<svg width="250" height="250" viewBox="0 0 250 250" fill="none" xmlns="http://www.w3.org/2000/svg">
<circle cx="125" cy="125" r="125" fill="#F4F9DD"/>
<path style="mix-blend-mode:multiply" d="M239.092 127.467L113.052 54.6975C110.822 53.4075 107.202 53.4075 104.962 54.6975L101.082 56.9375L15.4323 106.387C13.2023 107.677 13.2023 109.767 15.4323 111.057L141.472 183.827C143.702 185.117 147.322 185.117 149.562 183.827L235.222 134.377L239.102 132.137C241.332 130.847 241.332 128.757 239.102 127.467H239.092Z" fill="url(#paint0_linear_1668_27)"/>
<path d="M10.6725 103.658C8.4425 104.948 8.4425 107.038 10.6725 108.328L136.713 181.098C138.943 182.388 142.562 182.388 144.803 181.098L230.452 131.648L96.3325 54.2075L10.6725 103.658Z" fill="#F6FCE0"/>
<path d="M234.333 124.728L108.303 51.9675C106.073 50.6775 102.453 50.6775 100.213 51.9675L96.3325 54.2075L230.453 131.637L234.333 129.397C236.563 128.107 236.563 126.018 234.333 124.728Z" fill="#7297C9"/>
<path d="M103.442 54.1275C104.412 53.5675 105.972 53.5675 106.942 54.1275C107.912 54.6875 107.912 55.5875 106.942 56.1475C105.972 56.7075 104.412 56.7075 103.442 56.1475C102.472 55.5875 102.472 54.6875 103.442 54.1275Z" fill="white"/>
<path d="M109.723 57.7476C110.693 57.1876 112.253 57.1876 113.223 57.7476C114.193 58.3076 114.193 59.2076 113.223 59.7676C112.253 60.3276 110.693 60.3276 109.723 59.7676C108.753 59.2076 108.753 58.3076 109.723 57.7476Z" fill="white"/>
<path d="M116.002 61.3673C116.972 60.8073 118.532 60.8073 119.502 61.3673C120.472 61.9273 120.472 62.8273 119.502 63.3873C118.532 63.9473 116.972 63.9473 116.002 63.3873C115.032 62.8273 115.032 61.9273 116.002 61.3673Z" fill="white"/>
<path d="M218.973 119.827L227.793 124.917L226.063 125.917L217.243 120.827L218.973 119.827Z" fill="#5C88C0"/>
<path d="M86.3324 143.498L19.7324 105.048L96.6624 60.9575L163.262 99.4075L86.3324 143.498Z" fill="#EBF1F8"/>
<path d="M98.4523 101.147L92.9023 97.9372L98.4523 94.7372L96.0823 93.3672L90.5323 96.5672L84.9823 93.3672L82.6123 94.7372L88.1623 97.9372L82.6123 101.147L84.9823 102.517L90.5323 99.3072L96.0823 102.517L98.4523 101.147Z" fill="#CAD9EB"/>
<path d="M236.003 127.007C236.033 127.867 235.473 128.737 234.333 129.397L230.453 131.637V134.367L234.333 132.127C235.453 131.487 236.013 130.637 236.013 129.797V127.007H236.003Z" fill="#4779B8"/>
<path d="M144.802 181.097C142.572 182.387 138.952 182.387 136.712 181.097L10.6824 108.327C9.56244 107.687 9.00244 106.837 9.00244 105.997V108.787C9.02244 109.617 9.58244 110.437 10.6724 111.067L136.712 183.837C138.942 185.127 142.562 185.127 144.802 183.837L230.452 134.387V131.657L144.802 181.107V181.097Z" fill="url(#paint1_linear_1668_27)"/>
<path style="mix-blend-mode:multiply" d="M199.132 127.488L176.972 114.688C175.142 113.628 172.152 113.628 170.322 114.688L159.032 127.278C157.202 128.338 157.202 130.058 159.032 131.118L170.622 137.808V144.698H173.992C173.992 144.698 173.992 144.698 174.002 144.698C175.202 144.698 176.412 144.438 177.322 143.908L199.132 131.318C200.962 130.258 200.962 128.538 199.132 127.478V127.488Z" fill="url(#paint2_linear_1668_27)"/>
<path d="M174.712 142.427C172.882 143.487 169.892 143.487 168.062 142.427L145.902 129.627C144.072 128.567 144.072 126.847 145.902 125.787L167.712 113.197C169.542 112.137 172.532 112.137 174.362 113.197L196.522 125.997C198.352 127.057 198.352 128.777 196.522 129.837L174.712 142.427Z" fill="white"/>
<path d="M171.382 141.607C170.412 141.607 169.492 141.397 168.852 141.027L146.692 128.227C146.242 127.967 146.122 127.737 146.122 127.697C146.122 127.657 146.242 127.427 146.692 127.167L168.502 114.577C169.142 114.207 170.062 113.997 171.032 113.997C172.002 113.997 172.922 114.207 173.552 114.577L195.712 127.377C196.162 127.637 196.282 127.867 196.282 127.907C196.282 127.947 196.162 128.177 195.712 128.437L173.902 141.027C173.262 141.397 172.342 141.607 171.382 141.607Z" fill="#F3E4EA"/>
<path d="M144.532 129.118C144.502 129.838 144.952 130.568 145.902 131.118L168.062 143.918C169.892 144.978 172.882 144.978 174.712 143.918L196.522 131.328C197.482 130.778 197.932 130.038 197.882 129.308V128.018C197.842 128.678 197.392 129.338 196.522 129.838L174.712 142.428C172.882 143.488 169.892 143.488 168.062 142.428L145.902 129.628C145.002 129.108 144.542 128.418 144.532 127.728V129.108V129.118Z" fill="url(#paint3_linear_1668_27)"/>
<path d="M167.322 126.307C169.472 125.067 172.952 125.067 175.102 126.307C177.252 127.547 177.252 129.557 175.102 130.797C172.952 132.037 169.472 132.037 167.322 130.797C165.172 129.557 165.172 127.547 167.322 126.307Z" fill="white"/>
<path d="M171.483 127.117L168.723 128.707L172.633 129.367L171.483 127.117Z" fill="#F3E4EA"/>
<path style="mix-blend-mode:multiply" d="M164.272 146.808L142.112 134.008C140.282 132.948 137.292 132.948 135.462 134.008L124.172 146.598C122.342 147.658 122.342 149.378 124.172 150.438L135.762 157.128V164.018H139.132C139.132 164.018 139.132 164.018 139.142 164.018C140.342 164.018 141.552 163.758 142.462 163.228L164.272 150.638C166.102 149.578 166.102 147.858 164.272 146.798V146.808Z" fill="url(#paint4_linear_1668_27)"/>
<path d="M139.852 161.748C138.022 162.808 135.032 162.808 133.202 161.748L111.042 148.948C109.212 147.888 109.212 146.168 111.042 145.108L132.852 132.518C134.682 131.458 137.672 131.458 139.502 132.518L161.662 145.318C163.492 146.378 163.492 148.098 161.662 149.158L139.852 161.748Z" fill="white"/>
<path d="M136.532 160.938C135.562 160.938 134.642 160.728 134.002 160.358L111.842 147.558C111.392 147.298 111.272 147.068 111.272 147.028C111.272 146.988 111.392 146.758 111.842 146.498L133.652 133.908C134.292 133.538 135.212 133.328 136.182 133.328C137.152 133.328 138.072 133.538 138.702 133.908L160.862 146.708C161.312 146.968 161.432 147.198 161.432 147.238C161.432 147.278 161.312 147.508 160.862 147.768L139.052 160.358C138.412 160.728 137.492 160.938 136.532 160.938Z" fill="#7297C9"/>
<path d="M109.672 148.438C109.642 149.158 110.092 149.888 111.042 150.438L133.202 163.238C135.032 164.298 138.022 164.298 139.852 163.238L161.662 150.648C162.622 150.098 163.072 149.358 163.022 148.628V147.338C162.982 147.998 162.532 148.658 161.662 149.158L139.852 161.748C138.022 162.808 135.032 162.808 133.202 161.748L111.042 148.948C110.142 148.428 109.682 147.738 109.672 147.048V148.428V148.438Z" fill="url(#paint5_linear_1668_27)"/>
<path d="M132.463 145.627C134.613 144.387 138.093 144.387 140.243 145.627C142.393 146.867 142.393 148.877 140.243 150.117C138.093 151.357 134.613 151.357 132.463 150.117C130.313 148.877 130.313 146.867 132.463 145.627Z" fill="white"/>
<path d="M136.623 146.438L133.863 148.027L137.773 148.688L136.623 146.438Z" fill="#7297C9"/>
<defs>
<linearGradient id="paint0_linear_1668_27" x1="13.7623" y1="119.267" x2="240.772" y2="119.267" gradientUnits="userSpaceOnUse">
<stop offset="0.01" stop-color="#CAD9EB"/>
<stop offset="0.31" stop-color="#D5E1EF"/>
<stop offset="0.84" stop-color="#F4F7FB"/>
<stop offset="1" stop-color="white"/>
</linearGradient>
<linearGradient id="paint1_linear_1668_27" x1="9.00244" y1="145.397" x2="236.012" y2="145.397" gradientUnits="userSpaceOnUse">
<stop offset="0.56" stop-color="#D4DFEE"/>
<stop offset="0.6" stop-color="#CAD9EB"/>
</linearGradient>
<linearGradient id="paint2_linear_1668_27" x1="157.652" y1="129.298" x2="200.502" y2="129.298" gradientUnits="userSpaceOnUse">
<stop stop-color="#C7D6EA"/>
<stop offset="0.26" stop-color="#D0DCED"/>
<stop offset="0.7" stop-color="#EAEFF7"/>
<stop offset="1" stop-color="white"/>
</linearGradient>
<linearGradient id="paint3_linear_1668_27" x1="197.921" y1="136.319" x2="144.562" y2="136.319" gradientUnits="userSpaceOnUse">
<stop offset="0.41" stop-color="#C0D1E7"/>
<stop offset="0.42" stop-color="#C1D2E7"/>
<stop offset="0.57" stop-color="#D4DFEE"/>
</linearGradient>
<linearGradient id="paint4_linear_1668_27" x1="122.792" y1="148.628" x2="165.642" y2="148.628" gradientUnits="userSpaceOnUse">
<stop stop-color="#C7D6EA"/>
<stop offset="0.26" stop-color="#D0DCED"/>
<stop offset="0.7" stop-color="#EAEFF7"/>
<stop offset="1" stop-color="white"/>
</linearGradient>
<linearGradient id="paint5_linear_1668_27" x1="163.06" y1="155.639" x2="109.701" y2="155.638" gradientUnits="userSpaceOnUse">
<stop offset="0.41" stop-color="#C0D1E7"/>
<stop offset="0.42" stop-color="#C1D2E7"/>
<stop offset="0.57" stop-color="#D4DFEE"/>
</linearGradient>
</defs>
</svg>
