<svg width="250" height="250" viewBox="0 0 250 250" fill="none" xmlns="http://www.w3.org/2000/svg">
<circle cx="125" cy="125" r="125" fill="#F4F9DD"/>
<path d="M130.79 66.8843V122.793L82.3794 150.728C82.3794 119.865 104.062 82.3156 130.79 66.8843Z" fill="#87A8D1"/>
<path d="M130.79 66.8842L154.748 80.713L107.327 165.13L82.3794 150.728C82.3794 155.417 82.874 159.67 83.8236 163.488C84.7732 167.287 86.1383 170.65 87.9188 173.499C89.9961 176.862 92.6273 179.553 95.6938 181.511L86.5537 176.229C83.4872 174.27 80.8758 171.6 78.7787 168.217C75.2374 162.499 73.2393 154.823 73.2393 145.446C73.2393 114.583 94.9223 77.0332 121.65 61.6019C135.103 53.8467 147.27 53.1542 156.034 58.3178L164.581 63.244C155.856 58.4761 143.946 59.307 130.81 66.8842H130.79Z" fill="url(#paint0_linear_1668_23)"/>
<path d="M179.201 94.819C179.201 125.701 157.538 163.231 130.79 178.663C112.174 189.405 96.03 186.596 87.9384 173.499C84.3971 167.782 82.3989 160.105 82.3989 150.708C82.3792 119.865 104.062 82.3157 130.79 66.8844C157.518 51.453 179.201 63.9564 179.201 94.8388V94.819Z" fill="white"/>
<path d="M131.403 91.3767C128.99 92.4253 126.991 96.1248 126.932 99.6266C126.873 103.128 128.772 105.107 131.166 104.058C133.56 103.01 135.558 99.31 135.637 95.8281C135.696 92.3263 133.797 90.3282 131.403 91.3767Z" fill="url(#paint1_linear_1668_23)"/>
<path d="M153.68 108.629C151.286 109.677 149.288 113.357 149.208 116.859C149.149 120.361 151.048 122.359 153.442 121.31C155.856 120.262 157.854 116.562 157.913 113.06C157.973 109.559 156.073 107.58 153.68 108.629Z" fill="url(#paint2_linear_1668_23)"/>
<path d="M130.414 145.782C128.02 146.831 126.002 150.531 125.943 154.032C125.883 157.534 127.783 159.512 130.176 158.464C132.59 157.415 134.568 153.716 134.648 150.234C134.707 146.732 132.808 144.734 130.414 145.782Z" fill="url(#paint3_linear_1668_23)"/>
<path d="M108.138 128.531C105.744 129.58 103.746 133.26 103.667 136.761C103.608 140.263 105.507 142.261 107.901 141.213C110.294 140.164 112.293 136.465 112.372 132.963C112.431 129.461 110.532 127.483 108.138 128.531Z" fill="url(#paint4_linear_1668_23)"/>
<path d="M151.959 124.277C151.721 124.376 151.504 124.673 151.385 125.049C149.209 132.507 144.836 139.748 139.435 144.951L140.622 142.478C140.86 142.003 140.82 141.449 140.583 141.251C140.464 141.153 140.326 141.153 140.187 141.212C140.009 141.291 139.831 141.469 139.712 141.726L137.061 147.226C136.923 147.523 136.864 147.859 136.923 148.136C136.982 148.393 137.141 148.552 137.338 148.552L141.137 148.294C141.137 148.294 141.236 148.294 141.295 148.255C141.572 148.136 141.829 147.76 141.908 147.325C142.007 146.811 141.809 146.415 141.473 146.435L139.732 146.554C145.529 141.034 150.099 133.437 152.473 125.326C152.631 124.811 152.493 124.336 152.196 124.277C152.117 124.277 152.038 124.277 151.939 124.317L151.959 124.277ZM109.305 142.913C109.305 142.913 109.107 143.032 109.028 143.131C108.83 143.349 108.711 143.685 108.691 144.001L108.276 149.857C108.236 150.372 108.494 150.688 108.83 150.57C108.83 150.57 108.87 150.57 108.889 150.55C109.206 150.411 109.483 149.937 109.503 149.462L109.7 146.712C112.351 152.113 117.06 155.041 122.956 154.803C123.015 154.803 123.054 154.803 123.114 154.764C123.391 154.645 123.628 154.269 123.727 153.834C123.826 153.32 123.648 152.904 123.312 152.924C117.891 153.142 113.4 150.392 110.887 145.505L112.332 146.138C112.332 146.138 112.53 146.178 112.648 146.138C112.866 146.039 113.064 145.802 113.182 145.465C113.36 144.971 113.281 144.456 112.985 144.338L109.641 142.874C109.641 142.874 109.443 142.834 109.325 142.874L109.305 142.913ZM138.466 95.0762C138.189 95.1949 137.932 95.5708 137.853 96.006C137.754 96.5204 137.932 96.9358 138.268 96.9161C143.689 96.7182 148.18 99.4484 150.692 104.335L149.248 103.702C149.248 103.702 149.05 103.662 148.932 103.702C148.714 103.801 148.516 104.038 148.397 104.375C148.219 104.869 148.299 105.384 148.595 105.502L151.939 106.946C151.939 106.946 152.137 106.986 152.255 106.946C152.354 106.907 152.453 106.828 152.532 106.729C152.73 106.491 152.849 106.175 152.869 105.858L153.284 99.9825C153.324 99.4682 153.066 99.1516 152.73 99.2703H152.691C152.374 99.4088 152.097 99.8836 152.057 100.358L151.86 103.108C149.209 97.7074 144.5 94.7794 138.605 95.0168C138.545 95.0168 138.506 95.0168 138.446 95.0564L138.466 95.0762ZM120.245 101.625C119.968 101.743 119.711 102.119 119.632 102.554C119.533 103.069 119.731 103.464 120.047 103.445L121.788 103.326C115.992 108.846 111.422 116.443 109.048 124.554C108.909 125.068 109.028 125.543 109.325 125.603C109.404 125.603 109.503 125.603 109.582 125.563C109.819 125.464 110.037 125.167 110.155 124.791C112.332 117.353 116.724 110.092 122.105 104.889L120.918 107.342C120.68 107.817 120.7 108.371 120.957 108.569C121.076 108.668 121.215 108.668 121.353 108.608C121.531 108.529 121.709 108.351 121.828 108.094L124.479 102.594C124.617 102.297 124.677 101.961 124.617 101.684C124.558 101.427 124.4 101.268 124.202 101.268L120.403 101.506C120.403 101.506 120.305 101.506 120.245 101.545V101.625Z" fill="url(#paint5_linear_1668_23)"/>
<defs>
<linearGradient id="paint0_linear_1668_23" x1="73.2393" y1="118.263" x2="164.561" y2="118.263" gradientUnits="userSpaceOnUse">
<stop offset="0.41" stop-color="#5C88C0"/>
<stop offset="0.5" stop-color="#749AC9"/>
<stop offset="0.58" stop-color="#87A8D1"/>
</linearGradient>
<linearGradient id="paint1_linear_1668_23" x1="126.932" y1="97.7075" x2="135.637" y2="97.7075" gradientUnits="userSpaceOnUse">
<stop stop-color="#1C59A9"/>
<stop offset="0.56" stop-color="#366CB2"/>
<stop offset="1" stop-color="#4779B8"/>
</linearGradient>
<linearGradient id="paint2_linear_1668_23" x1="149.208" y1="114.98" x2="157.913" y2="114.98" gradientUnits="userSpaceOnUse">
<stop stop-color="#1C59A9"/>
<stop offset="0.56" stop-color="#366CB2"/>
<stop offset="1" stop-color="#4779B8"/>
</linearGradient>
<linearGradient id="paint3_linear_1668_23" x1="125.943" y1="152.133" x2="134.648" y2="152.133" gradientUnits="userSpaceOnUse">
<stop stop-color="#1C59A9"/>
<stop offset="0.56" stop-color="#366CB2"/>
<stop offset="1" stop-color="#4779B8"/>
</linearGradient>
<linearGradient id="paint4_linear_1668_23" x1="103.667" y1="134.862" x2="112.372" y2="134.862" gradientUnits="userSpaceOnUse">
<stop stop-color="#1C59A9"/>
<stop offset="0.56" stop-color="#366CB2"/>
<stop offset="1" stop-color="#4779B8"/>
</linearGradient>
<linearGradient id="paint5_linear_1668_23" x1="108.276" y1="124.91" x2="153.324" y2="124.91" gradientUnits="userSpaceOnUse">
<stop offset="0.41" stop-color="#C0D1E7"/>
<stop offset="0.42" stop-color="#C1D2E7"/>
<stop offset="0.57" stop-color="#D4DFEE"/>
</linearGradient>
</defs>
</svg>
