<svg width="250" height="250" viewBox="0 0 250 250" fill="none" xmlns="http://www.w3.org/2000/svg">
<circle cx="125" cy="125" r="125" fill="#F4F9DD"/>
<path style="mix-blend-mode:multiply" d="M127.377 182.98L243.704 182.98V122.99L127.377 122.99L127.377 182.98Z" fill="url(#paint0_linear_1668_22)"/>
<path d="M155.404 108.835L153.092 110.177C151.063 109.012 103.674 109.012 101.662 110.177L99.3501 108.835L80.2183 115.454V125.902C80.2183 127.438 81.2419 128.956 83.2539 130.138L99.3501 139.439V166.849L103.957 169.514V142.104L120.053 151.406C122.082 152.57 124.73 153.153 127.377 153.153C130.025 153.153 132.672 152.57 134.702 151.406L150.798 142.104V169.514L155.404 166.849V139.439L171.5 130.138C173.53 128.973 174.536 127.438 174.536 125.902V115.454L155.404 108.835Z" fill="url(#paint1_linear_1668_22)"/>
<path d="M150.798 142.068L134.702 151.37C132.672 152.534 130.025 153.117 127.377 153.117C124.73 153.117 122.082 152.534 120.053 151.37L103.957 142.068L101.662 143.392L119.4 153.629C121.606 154.899 124.483 155.535 127.377 155.535C130.272 155.535 133.148 154.899 135.355 153.629L153.092 143.392L150.798 142.068Z" fill="#F6FCE0"/>
<path d="M135.355 153.646C133.148 154.917 130.272 155.552 127.377 155.552C124.483 155.552 121.606 154.917 119.4 153.646L101.662 143.41V170.819L119.4 181.056C121.606 182.326 124.483 182.962 127.377 182.962C130.272 182.962 133.148 182.326 135.355 181.056L153.092 170.819V143.41L135.355 153.646Z" fill="url(#paint2_linear_1668_22)"/>
<path d="M153.092 143.392L150.798 142.068L134.701 151.37C132.672 152.534 130.024 153.117 127.377 153.117H136.255L153.092 143.392Z" fill="#E1E8F3"/>
<path d="M80.2005 125.884V120.766L79.3004 121.278C77.0943 122.549 76 124.208 76 125.884C76 127.561 77.0943 129.22 79.3004 130.491L97.038 140.727L99.3324 139.404L83.2362 130.103C81.2065 128.938 80.2005 127.402 80.2005 125.867V125.884Z" fill="#F6FCE0"/>
<path d="M76 125.884V153.294C76 154.953 77.0943 156.629 79.3004 157.9L97.038 168.137V140.727L79.3004 130.491C77.0943 129.22 76 127.543 76 125.884Z" fill="#D4DFEE"/>
<path d="M99.332 166.831L97.0376 168.154V140.745L99.332 139.421V166.831Z" fill="#C0D1E7"/>
<path d="M171.518 130.121L155.422 139.422L157.716 140.746L175.454 130.509C177.66 129.238 178.754 127.562 178.754 125.902C178.754 124.243 177.66 122.567 175.454 121.296L174.554 120.784V125.902C174.554 127.438 173.53 128.956 171.518 130.138V130.121Z" fill="#E1E8F3"/>
<path d="M175.436 130.492L157.699 140.728V168.138L175.436 157.901C177.642 156.63 178.737 154.971 178.737 153.295V125.885C178.737 127.544 177.642 129.221 175.436 130.492Z" fill="#C0D1E7"/>
<path d="M155.405 166.831L157.699 168.155V140.746L155.405 139.422V166.831Z" fill="#D4DFEE"/>
<path d="M158.44 80.8787L153.092 77.79L127.377 92.6508L101.662 77.79L96.314 80.8787L122.029 95.7217L99.332 108.835L104.68 111.924L127.377 98.8104L150.074 111.924L155.404 108.835L132.707 95.7217L158.44 80.8787Z" fill="url(#paint3_linear_1668_22)"/>
<path d="M153.092 110.176L127.377 95.333L101.662 110.176L119.4 120.413C121.606 121.683 124.483 122.319 127.377 122.319C130.272 122.319 133.148 121.683 135.355 120.413L153.127 110.158H153.11L153.092 110.176Z" fill="white"/>
<path d="M153.092 110.177L135.355 120.413C133.148 121.684 130.272 122.319 127.377 122.319C124.483 122.319 121.606 121.684 119.4 120.413L101.662 110.177V137.586L119.4 147.823C121.606 149.093 124.483 149.729 127.377 149.729C130.272 149.729 133.148 149.093 135.355 147.823L153.092 137.586V110.177Z" fill="url(#paint4_linear_1668_22)"/>
<path d="M122.753 92.6688L97.038 77.8081L79.3004 88.0447C77.0943 89.3155 76 90.9921 76 92.6512C76 94.3102 77.0943 95.9869 79.3004 97.2576L97.038 107.494L122.753 92.6512V92.6688Z" fill="white"/>
<path d="M97.038 107.512L79.3004 97.2578C77.0943 95.9871 76 94.3281 76 92.6514V120.061C76 121.72 77.0943 123.396 79.3004 124.667L97.038 134.904V107.494V107.512Z" fill="#D4DFEE"/>
<path d="M99.332 106.188L97.0376 107.512V134.921L99.332 133.597V108.835L122.753 95.3159V92.6685L99.332 106.188Z" fill="#C0D1E7"/>
<path d="M175.436 88.0447L157.699 77.8081L131.984 92.6512L157.699 107.494L175.436 97.2576C177.643 95.9869 178.737 94.3279 178.737 92.6512C178.737 90.9745 177.643 89.3155 175.436 88.0447Z" fill="white"/>
<path d="M157.699 107.512L175.436 97.2749C177.642 96.0042 178.737 94.3451 178.737 92.6685V120.078C178.737 121.737 177.642 123.414 175.436 124.684L157.699 134.921V107.512Z" fill="#C0D1E7"/>
<path d="M155.405 106.188L131.984 92.6685V95.3159L155.405 108.835V133.597L157.699 134.921V107.512L155.405 106.188Z" fill="#D4DFEE"/>
<path d="M127.377 90.0034L153.092 75.1604L135.355 64.9061C133.148 63.6354 130.272 63 127.377 63C124.483 63 121.606 63.6354 119.4 64.9061L101.662 75.1427L127.377 89.9858V90.0034Z" fill="white"/>
<path d="M127.377 92.6507V90.0033L153.092 75.1426V77.79L127.377 92.6507Z" fill="#C0D1E7"/>
<path d="M127.377 92.6507V90.0033L101.662 75.1426V77.79L127.377 92.6507Z" fill="#D4DFEE"/>
<defs>
<linearGradient id="paint0_linear_1668_22" x1="133.244" y1="152.976" x2="249.652" y2="152.976" gradientUnits="userSpaceOnUse">
<stop stop-color="#CAD9EB"/>
<stop offset="1" stop-color="white"/>
</linearGradient>
<linearGradient id="paint1_linear_1668_22" x1="80.2006" y1="139.157" x2="174.554" y2="139.157" gradientUnits="userSpaceOnUse">
<stop offset="0.4" stop-color="#5C88C0"/>
<stop offset="0.48" stop-color="#4B7BB9"/>
<stop offset="0.57" stop-color="#366CB2"/>
</linearGradient>
<linearGradient id="paint2_linear_1668_22" x1="101.662" y1="163.177" x2="153.092" y2="163.177" gradientUnits="userSpaceOnUse">
<stop offset="0.4" stop-color="#D4DFEE"/>
<stop offset="0.55" stop-color="#C3D3E8"/>
<stop offset="0.57" stop-color="#C0D1E7"/>
</linearGradient>
<linearGradient id="paint3_linear_1668_22" x1="96.314" y1="94.8569" x2="158.44" y2="94.8569" gradientUnits="userSpaceOnUse">
<stop stop-color="#87A8D1"/>
<stop offset="0.44" stop-color="#769BCA"/>
<stop offset="1" stop-color="#5C88C0"/>
</linearGradient>
<linearGradient id="paint4_linear_1668_22" x1="76" y1="129.962" x2="77.7649" y2="129.962" gradientUnits="userSpaceOnUse">
<stop offset="0.4" stop-color="#D4DFEE"/>
<stop offset="0.55" stop-color="#C3D3E8"/>
<stop offset="0.57" stop-color="#C0D1E7"/>
</linearGradient>
</defs>
</svg>
