<svg width="250" height="250" viewBox="0 0 250 250" fill="none" xmlns="http://www.w3.org/2000/svg">
<circle cx="125" cy="125" r="125" fill="#F4F9DD"/>
<path style="mix-blend-mode:multiply" d="M182.6 201.669C180.138 200.254 177.152 199.323 174.01 198.877C179.304 194.127 178.334 187.728 171.141 183.559C163.501 179.138 151.479 178.789 143.141 182.512C142.326 181.348 141.085 180.262 139.457 179.312C132.883 175.512 122.238 175.512 115.684 179.312C109.111 183.113 109.111 189.26 115.684 193.041L145.875 210.473V219.78H169.841C174.476 219.741 179.091 218.714 182.62 216.678C189.794 212.528 189.794 205.819 182.62 201.669H182.6Z" fill="url(#paint0_linear_1668_29)"/>
<path d="M113.455 167.464C115.083 168.414 116.324 169.5 117.139 170.663C125.477 166.96 137.499 167.309 145.139 171.71C152.332 175.86 153.302 182.259 148.008 187.029C151.169 187.475 154.155 188.405 156.598 189.821C163.773 193.97 163.773 200.679 156.598 204.829C149.424 208.979 137.79 208.979 130.596 204.829L89.682 181.192C83.1086 177.392 83.1086 171.245 89.682 167.464C96.2553 163.663 106.901 163.663 113.455 167.464Z" fill="white"/>
<path d="M156.617 204.829C149.443 208.978 137.808 208.978 130.615 204.829L89.6814 181.192C86.482 179.35 84.8532 176.926 84.7756 174.502V186.02C84.698 188.56 86.3268 191.12 89.6814 193.059L130.634 216.696C137.808 220.845 149.443 220.845 156.637 216.696C160.263 214.601 162.046 211.848 162.008 209.114V197.344C162.008 200.059 160.204 202.773 156.617 204.829Z" fill="url(#paint1_linear_1668_29)"/>
<path d="M118.574 55.7936C123.712 64.7132 128.695 72.3918 135.87 76.5219C142.598 80.4 147.64 78.9457 153.166 75.7463V119.763C153.166 144.99 131.488 155.422 118.593 153.075C105.679 140.549 84.0005 105.065 84.0005 79.8377V35.8408C89.139 44.741 94.1417 52.439 101.297 56.5692C108.025 60.4473 113.067 58.993 118.593 55.7936H118.574Z" fill="url(#paint2_linear_1668_29)"/>
<path d="M131.992 139.231C127.532 141.965 122.646 143.303 118.574 143.245L119.989 142.431C123.635 142.489 127.92 141.423 131.973 139.251L131.992 139.231Z" fill="#A9B0D8"/>
<path d="M93.3276 59.5737V83.5791C93.3276 102.504 109.422 130.329 120.009 142.41L118.593 143.224C108.006 131.144 91.9121 103.338 91.9121 84.3935V58.1582C92.3775 58.643 92.8622 59.0889 93.3276 59.5543V59.5737Z" fill="#A1A7CE"/>
<path d="M161.717 114.838C161.717 129.07 154.814 138.591 146.476 143.768L146.341 143.846C145.856 144.156 145.352 144.427 144.848 144.699L137.925 148.693C146.263 143.516 153.166 133.995 153.166 119.763V75.7658L161.717 70.8213V114.838Z" fill="url(#paint3_linear_1668_29)"/>
<path d="M92.5517 30.8965C97.6901 39.8161 102.693 47.4947 109.848 51.6249C116.576 55.5029 121.618 54.0487 127.144 50.8492L118.593 55.7938C113.067 58.9738 108.025 60.4475 101.297 56.5694C94.1417 52.4392 89.139 44.7413 84.0005 35.841L92.5517 30.8965Z" fill="url(#paint4_linear_1668_29)"/>
<path d="M144.421 71.5965C151.15 75.4746 156.191 74.0203 161.717 70.8209L153.166 75.7655C147.659 78.9455 142.598 80.4192 135.87 76.5411C128.715 72.4109 123.732 64.7323 118.574 55.8127L127.125 50.8682C132.263 59.7878 137.247 67.4664 144.421 71.5965Z" fill="url(#paint5_linear_1668_29)"/>
<path d="M135.87 85.6358C139.341 87.633 142.444 88.6413 145.275 88.9516V115.226C145.275 126.879 139.167 134.868 132.012 139.231C127.94 141.403 123.654 142.469 120.028 142.411V70.1816C124.314 76.2508 129.413 81.8935 135.89 85.6358H135.87Z" fill="#614DC9"/>
<path d="M101.296 65.6832C108.277 69.7164 113.803 69.6776 118.554 68.0876C118.554 68.0876 118.554 68.107 118.573 68.1264C119.039 68.8244 119.523 69.5031 119.989 70.1818V142.411C109.402 130.331 93.3076 102.525 93.3076 83.5805V59.5752C95.7314 61.902 98.3491 63.9962 101.277 65.6832H101.296Z" fill="#7464CF"/>
<path d="M131.371 119.491L118.671 86.7598C118.011 85.0535 117.003 84.2584 116.228 84.685L118.942 83.1144C119.718 82.6878 120.726 83.4828 121.385 85.1892L134.086 117.92C134.551 119.122 134.513 119.937 134.086 120.208L134.047 120.228C134.047 120.228 134.009 120.228 134.009 120.247L131.371 121.76C131.798 121.488 131.837 120.674 131.371 119.471V119.491Z" fill="#F6FCE0"/>
<path d="M118.671 86.7606C117.876 84.7246 116.577 83.9683 115.801 85.093L103.1 103.165C102.305 104.29 102.964 105.957 104.535 106.868L129.937 121.528C131.527 122.439 132.166 121.528 131.371 119.472L118.671 86.7412V86.7606Z" fill="#EBD1DA"/>
<path d="M116.305 106.965L118.147 108.031V110.184L116.305 109.098V106.965Z" fill="#614DC9"/>
<path d="M115.937 93.0801L118.516 94.5538L118.148 105.858L116.305 104.792L115.937 93.0801Z" fill="#614DC9"/>
<defs>
<linearGradient id="paint0_linear_1668_29" x1="110.739" y1="198.14" x2="187.991" y2="198.14" gradientUnits="userSpaceOnUse">
<stop stop-color="#DFE4F4"/>
<stop offset="0.64" stop-color="#F2F4FA"/>
<stop offset="1" stop-color="white"/>
</linearGradient>
<linearGradient id="paint1_linear_1668_29" x1="84.7562" y1="197.15" x2="161.988" y2="197.15" gradientUnits="userSpaceOnUse">
<stop offset="0.4" stop-color="#D4DFEE"/>
<stop offset="0.55" stop-color="#C3D3E8"/>
<stop offset="0.57" stop-color="#C0D1E7"/>
</linearGradient>
<linearGradient id="paint2_linear_1668_29" x1="84.0005" y1="94.6132" x2="153.166" y2="94.6132" gradientUnits="userSpaceOnUse">
<stop offset="0.4" stop-color="#D4DFEE"/>
<stop offset="0.55" stop-color="#C3D3E8"/>
<stop offset="0.57" stop-color="#C0D1E7"/>
</linearGradient>
<linearGradient id="paint3_linear_1668_29" x1="137.925" y1="109.777" x2="161.717" y2="109.777" gradientUnits="userSpaceOnUse">
<stop stop-color="#C0D1E7"/>
<stop offset="0.46" stop-color="#D5E1EF"/>
<stop offset="1" stop-color="#EBF1F8"/>
</linearGradient>
<linearGradient id="paint4_linear_1668_29" x1="114.211" y1="58.3146" x2="96.9339" y2="28.3757" gradientUnits="userSpaceOnUse">
<stop stop-color="#C0D1E7"/>
<stop offset="0.46" stop-color="#D5E1EF"/>
<stop offset="1" stop-color="#EBF1F8"/>
</linearGradient>
<linearGradient id="paint5_linear_1668_29" x1="148.803" y1="78.2862" x2="131.507" y2="48.3474" gradientUnits="userSpaceOnUse">
<stop stop-color="#C0D1E7"/>
<stop offset="0.46" stop-color="#D5E1EF"/>
<stop offset="1" stop-color="#EBF1F8"/>
</linearGradient>
</defs>
</svg>
