<svg width="250" height="250" viewBox="0 0 250 250" fill="none" xmlns="http://www.w3.org/2000/svg">
<circle cx="125" cy="125" r="125" fill="#F4F9DD"/>
<path style="mix-blend-mode:multiply" d="M215.299 155.659L163.802 125.943C159.542 123.493 152.592 123.493 148.359 125.943L97.6874 155.179C93.4271 157.629 93.4271 161.65 97.6874 164.099L124.634 179.65V195.652H156.906C156.906 195.652 156.906 195.652 156.933 195.652C159.729 195.652 162.524 195.04 164.655 193.815L215.326 164.552C219.586 162.102 219.586 158.082 215.326 155.632L215.299 155.659Z" fill="url(#paint0_linear_1668_28)"/>
<path d="M134.139 175.736C129.879 178.186 122.929 178.186 118.669 175.736L67.1987 146.02C62.9383 143.571 62.9383 139.55 67.1987 137.1L117.843 107.837C122.104 105.388 129.053 105.388 133.287 107.837L184.784 137.553C189.044 140.003 189.044 144.023 184.784 146.473L134.113 175.736H134.139Z" fill="#F6FCE0"/>
<path d="M126.418 173.873C124.154 173.873 122.024 173.394 120.56 172.542L69.0628 142.799C68.0243 142.187 67.7581 141.654 67.7314 141.548C67.7314 141.441 67.9977 140.909 69.0628 140.323L119.708 111.06C121.199 110.208 123.329 109.729 125.565 109.729C127.802 109.729 129.959 110.208 131.423 111.06L182.92 140.776C183.985 141.388 184.252 141.921 184.252 142.027C184.252 142.134 183.985 142.666 182.92 143.252L132.249 172.515C130.784 173.367 128.628 173.847 126.391 173.847L126.418 173.873Z" fill="white"/>
<path d="M64.0042 159.494C63.9243 161.171 64.9894 162.849 67.1728 164.127L118.67 193.843C122.93 196.293 129.88 196.293 134.113 193.843L184.785 164.606C187.021 163.328 188.06 161.598 187.953 159.92V142.266C187.873 143.811 186.808 145.328 184.785 146.5L134.113 175.763C129.853 178.213 122.903 178.213 118.643 175.763L67.1994 146.021C65.0959 144.796 64.0308 143.198 64.0042 141.601V159.467V159.494Z" fill="url(#paint1_linear_1668_28)"/>
<path d="M64.0042 153.156C63.9243 154.833 64.9894 156.511 67.1728 157.789L118.67 187.504C122.93 189.954 129.88 189.954 134.113 187.504L184.785 158.241C187.021 156.963 188.06 155.232 187.953 153.555V150.04C187.873 151.585 186.808 153.102 184.785 154.274L134.113 183.537C129.853 185.987 122.903 185.987 118.643 183.537L67.1994 153.848C65.0959 152.623 64.0308 151.025 64.0042 149.428V153.156Z" fill="url(#paint2_linear_1668_28)"/>
<path d="M127.083 121.764C129.613 120.3 133.713 120.3 136.243 121.764C138.772 123.229 138.772 125.599 136.243 127.063C133.713 128.528 129.613 128.528 127.083 127.063C124.554 125.599 124.554 123.229 127.083 121.764Z" fill="#9182D9"/>
<g style="mix-blend-mode:multiply">
<path d="M130.891 167.535L147.773 139.869C148.945 137.952 145.749 136.115 142.421 136.781L94.4922 146.526L130.865 167.535H130.891Z" fill="#E1E8F3"/>
</g>
<g style="mix-blend-mode:multiply">
<path d="M107.886 154.247L119.548 135.156C120.72 133.238 117.525 131.401 114.196 132.067L81.1255 138.803L107.886 154.247Z" fill="#E1EBF4"/>
</g>
<path style="mix-blend-mode:multiply" d="M126.418 168.145C124.154 168.145 122.024 167.665 120.56 166.813L69.0628 137.071C68.0243 136.458 67.7581 135.926 67.7314 135.819C67.7314 135.713 67.9977 135.18 69.0628 134.595L119.708 105.331C121.199 104.479 123.329 104 125.565 104C127.802 104 129.959 104.479 131.423 105.331L182.92 135.047C183.985 135.66 184.252 136.192 184.252 136.299C184.252 136.405 183.985 136.938 182.92 137.523L132.249 166.787C130.784 167.639 128.628 168.118 126.391 168.118L126.418 168.145Z" fill="url(#paint3_radial_1668_28)"/>
<path d="M134.139 111.736C129.879 114.186 122.929 114.186 118.669 111.736L67.1987 82.0205C62.9383 79.5708 62.9383 75.5501 67.1987 73.1004L117.843 43.8373C122.104 41.3876 129.053 41.3876 133.287 43.8373L184.784 73.5531C189.044 76.0028 189.044 80.0235 184.784 82.4732L134.113 111.736H134.139Z" fill="#F6FCE0"/>
<path d="M126.418 109.873C124.154 109.873 122.024 109.394 120.56 108.542L69.0628 78.7993C68.0243 78.1869 67.7581 77.6544 67.7314 77.5479C67.7314 77.4414 67.9977 76.9088 69.0628 76.323L119.708 47.0599C121.199 46.2078 123.329 45.7285 125.565 45.7285C127.802 45.7285 129.959 46.2078 131.423 47.0599L182.92 76.7757C183.985 77.3881 184.252 77.9207 184.252 78.0272C184.252 78.1337 183.985 78.6662 182.92 79.252L132.249 108.515C130.784 109.367 128.628 109.847 126.391 109.847L126.418 109.873Z" fill="white"/>
<path d="M64.0042 95.494C63.9243 97.1715 64.9894 98.849 67.1728 100.127L118.67 129.843C122.93 132.293 129.88 132.293 134.113 129.843L184.785 100.606C187.021 99.3283 188.06 97.5975 187.953 95.92V78.2663C187.873 79.8106 186.808 81.3284 184.785 82.5L134.113 111.763C129.853 114.213 122.903 114.213 118.643 111.763L67.1994 82.0207C65.0959 80.7958 64.0308 79.1982 64.0042 77.6006V95.4674V95.494Z" fill="url(#paint4_linear_1668_28)"/>
<path d="M64.0042 89.1555C63.9243 90.833 64.9894 92.5105 67.1728 93.7886L118.67 123.504C122.93 125.954 129.88 125.954 134.113 123.504L184.785 94.2413C187.021 92.9632 188.06 91.2324 187.953 89.5549V86.0402C187.873 87.5845 186.808 89.1023 184.785 90.2739L134.113 119.537C129.853 121.987 122.903 121.987 118.643 119.537L67.1994 89.8478C65.0959 88.623 64.0308 87.0254 64.0042 85.4277V89.1555Z" fill="url(#paint5_linear_1668_28)"/>
<path d="M127.083 57.7644C129.613 56.2999 133.713 56.2999 136.243 57.7644C138.772 59.2289 138.772 61.5987 136.243 63.0632C133.713 64.5277 129.613 64.5277 127.083 63.0632C124.554 61.5987 124.554 59.2289 127.083 57.7644Z" fill="#9182D9"/>
<g style="mix-blend-mode:multiply">
<path d="M130.891 103.535L147.773 75.8695C148.945 73.9523 145.749 72.115 142.421 72.7807L94.4922 82.5262L130.865 103.535H130.891Z" fill="#E1E8F3"/>
</g>
<g style="mix-blend-mode:multiply">
<path d="M107.886 90.2472L119.548 71.1556C120.72 69.2384 117.525 67.4012 114.196 68.0668L81.1255 74.8035L107.886 90.2472Z" fill="#E1EBF4"/>
</g>
<defs>
<linearGradient id="paint0_linear_1668_28" x1="94.4922" y1="159.892" x2="218.495" y2="159.892" gradientUnits="userSpaceOnUse">
<stop stop-color="#C7D6EA"/>
<stop offset="0.26" stop-color="#D0DCED"/>
<stop offset="0.7" stop-color="#EAEFF7"/>
<stop offset="1" stop-color="white"/>
</linearGradient>
<linearGradient id="paint1_linear_1668_28" x1="188.04" y1="168.884" x2="64.0693" y2="168.881" gradientUnits="userSpaceOnUse">
<stop offset="0.41" stop-color="#C0D1E7"/>
<stop offset="0.42" stop-color="#C1D2E7"/>
<stop offset="0.57" stop-color="#D4DFEE"/>
</linearGradient>
<linearGradient id="paint2_linear_1668_28" x1="188.037" y1="169.623" x2="64.0793" y2="169.643" gradientUnits="userSpaceOnUse">
<stop offset="0.41" stop-color="#5C88C0"/>
<stop offset="0.49" stop-color="#749AC9"/>
<stop offset="0.57" stop-color="#87A8D1"/>
</linearGradient>
<radialGradient id="paint3_radial_1668_28" cx="0" cy="0" r="1" gradientUnits="userSpaceOnUse" gradientTransform="translate(119.298 131.023) rotate(100.464) scale(44.3766 79.4686)">
<stop stop-color="#C4D4EA" stop-opacity="0.53"/>
<stop offset="0.13" stop-color="#D1DEEE" stop-opacity="0.31"/>
<stop offset="0.35" stop-color="#E5ECF5" stop-opacity="0.17"/>
<stop offset="0.56" stop-color="#F3F6FA" stop-opacity="0.08"/>
<stop offset="0.76" stop-color="#FCFCFD" stop-opacity="0.02"/>
<stop offset="0.94" stop-color="white" stop-opacity="0"/>
</radialGradient>
<linearGradient id="paint4_linear_1668_28" x1="188.04" y1="104.884" x2="64.0693" y2="104.881" gradientUnits="userSpaceOnUse">
<stop offset="0.41" stop-color="#C0D1E7"/>
<stop offset="0.42" stop-color="#C1D2E7"/>
<stop offset="0.57" stop-color="#D4DFEE"/>
</linearGradient>
<linearGradient id="paint5_linear_1668_28" x1="188.037" y1="105.623" x2="64.0793" y2="105.643" gradientUnits="userSpaceOnUse">
<stop offset="0.41" stop-color="#5C88C0"/>
<stop offset="0.49" stop-color="#749AC9"/>
<stop offset="0.57" stop-color="#87A8D1"/>
</linearGradient>
</defs>
</svg>
