<svg width="1440" height="610" viewBox="0 0 1440 610" fill="none" xmlns="http://www.w3.org/2000/svg">
<g opacity="0.6" clip-path="url(#clip0_1330_7984)">
<rect width="1681.42" height="610" fill="#DCE3EC"/>
<path d="M0.0970717 -679.381C25.6269 -681.711 51.8363 -683.166 78.1427 -683.166C258.987 -683.166 421 -622.413 563.598 -500.906C736.192 -354.553 822.489 -163.267 822.489 72.275C822.489 256.089 754.15 420.395 618.347 563.642L836.661 771.427H566.51L471.963 678.356C352.661 754.929 220.644 793.167 75.0364 793.167C49.5066 793.167 24.7533 791.614 0 789.382V587.613C21.7441 590.622 44.2647 592.078 67.5619 592.078C160.557 592.078 244.621 570.339 319.657 528.316L0 217.754V203.487H262.579L468.953 409.04C559.715 314.513 605.533 197.47 605.533 57.9116C605.533 -95.1371 554.571 -223.438 453.228 -326.215C351.885 -429.767 225.886 -481.495 75.0364 -481.495C49.5066 -481.495 23.9767 -480.04 0 -476.255" fill="url(#paint0_linear_1330_7984)" fill-opacity="0.1"/>
<path d="M1202.67 -456.942V-114.838H1540.28V86.9297H1202.67V768.807H988.041V-658.807H1681.42V-456.942H1202.67Z" fill="url(#paint1_linear_1330_7984)" fill-opacity="0.1"/>
</g>
<defs>
<linearGradient id="paint0_linear_1330_7984" x1="418.331" y1="-683.166" x2="418.331" y2="793.166" gradientUnits="userSpaceOnUse">
<stop stop-color="#DCE3EC"/>
<stop offset="0.78125" stop-color="#5376A3"/>
</linearGradient>
<linearGradient id="paint1_linear_1330_7984" x1="1334.73" y1="-658.807" x2="1334.73" y2="768.807" gradientUnits="userSpaceOnUse">
<stop stop-color="#DCE3EC"/>
<stop offset="0.78125" stop-color="#5376A3"/>
</linearGradient>
<clipPath id="clip0_1330_7984">
<rect width="1681.42" height="610" fill="white"/>
</clipPath>
</defs>
</svg>
