<svg width="250" height="250" viewBox="0 0 250 250" fill="none" xmlns="http://www.w3.org/2000/svg">
<circle cx="125" cy="125" r="125" fill="#F4F9DD"/>
<path style="mix-blend-mode:multiply" d="M194.902 170.01C194.902 170.01 193.981 173.395 192.084 174.501L174.095 184.891L173.187 184.272C173.187 184.272 168.933 186.485 163.652 188.658C173.779 188.658 175.281 187.96 177.19 187.011C188.41 182.007 193.362 179.321 198.827 174.646C200.078 173.513 194.889 170.01 194.889 170.01H194.902Z" fill="url(#paint0_linear_1668_21)"/>
<path d="M192.071 164.69C193.849 165.717 194.876 166.797 194.902 167.785C194.942 168.878 193.796 169.879 191.834 170.603C183.761 173.763 179.086 176.621 170.421 183.1C166.655 186.076 160.492 187.275 156.725 185.102C154.961 184.088 154.092 183.574 152.34 182.574C150.457 181.481 149.575 179.848 149.535 178.122C149.496 176.384 150.286 174.554 152.182 173.039C160.439 166.349 165.983 163.307 173.74 160.357C177.467 159.014 183.893 160.002 187.672 162.175C189.424 163.189 190.306 163.689 192.058 164.703L192.071 164.69Z" fill="white"/>
<path d="M191.833 170.602C183.761 173.763 179.086 176.621 170.421 183.1C166.654 186.076 160.491 187.274 156.725 185.101C154.96 184.087 154.091 183.574 152.34 182.573C150.456 181.48 149.574 179.847 149.535 178.122V180.374C149.535 180.505 149.535 180.637 149.535 180.769V180.848C149.64 182.178 150.575 183.495 152.34 184.509L156.725 187.037C160.491 189.21 166.602 189.21 170.368 187.037L192.057 174.514C193.967 173.407 194.902 171.959 194.875 170.523V167.811C194.915 168.904 193.769 169.904 191.807 170.629L191.833 170.602Z" fill="url(#paint1_linear_1668_21)"/>
<path d="M177.967 167.982C177.111 167.495 177.085 166.77 177.928 166.481C178.784 166.191 180.206 166.494 181.062 166.981C181.839 167.416 181.891 167.956 181.035 168.259C180.179 168.548 178.77 168.456 177.967 167.995V167.982Z" fill="#BFD0E6"/>
<path style="mix-blend-mode:multiply" d="M200.498 125.789L194.849 122.523C197.035 123.787 197.035 125.855 194.849 127.119L155.158 150.033C152.972 151.297 149.39 151.297 147.19 150.033L152.735 153.233L150.983 154.247H156.633C158.16 154.273 159.675 153.957 160.807 153.299L200.498 130.385C202.685 129.121 202.685 127.053 200.498 125.789Z" fill="url(#paint2_linear_1668_21)"/>
<path d="M47.6461 92.8002L146.782 150.046C148.968 151.31 152.55 151.31 154.749 150.046L195.033 126.789C196.074 126.197 196.614 125.42 196.666 124.63V127.764C196.666 128.593 196.113 129.423 195.02 130.068L154.736 153.325C152.55 154.589 148.955 154.589 146.769 153.325L47.6461 96.0661C46.4609 95.3813 45.921 94.4595 46.0263 93.5508C46 93.564 46 90.5088 46 90.5088C46 91.3384 46.5399 92.1813 47.6461 92.8002Z" fill="url(#paint3_linear_1668_21)"/>
<path d="M154.749 150.046C152.563 151.31 148.968 151.31 146.782 150.046L47.6459 92.8006C45.4598 91.5364 45.4598 89.4688 47.6459 88.2046L87.9298 64.9482C90.1159 63.6839 93.6978 63.6839 95.897 64.9482L195.02 122.181C197.206 123.445 197.206 125.512 195.02 126.777L154.736 150.033L154.749 150.046Z" fill="white"/>
<path d="M92.697 73.4159L87.6533 70.4924L92.697 67.582L97.7539 70.4924L92.697 73.4159Z" fill="#E1E8F3"/>
<path d="M101.204 78.328L96.1475 75.4045L101.204 72.4941L106.248 75.4045L101.204 78.328Z" fill="#E1E8F3"/>
<path d="M109.712 83.2274L104.655 80.3171L109.712 77.3936L114.755 80.3171L109.712 83.2274Z" fill="#E1E8F3"/>
<path d="M118.206 88.139L113.162 85.2287L118.206 82.3052L123.263 85.2287L118.206 88.139Z" fill="#E1E8F3"/>
<path d="M126.713 93.0511L121.669 90.1408L126.713 87.2173L131.756 90.1408L126.713 93.0511Z" fill="#E1E8F3"/>
<path d="M135.219 97.9633L130.163 95.0397L135.219 92.1294L140.263 95.0397L135.219 97.9633Z" fill="#E1E8F3"/>
<path d="M143.727 102.875L138.67 99.9518L143.727 97.0415L148.771 99.9518L143.727 102.875Z" fill="#E1E8F3"/>
<path d="M152.221 107.774L147.178 104.864L152.221 101.954L157.278 104.864L152.221 107.774Z" fill="#E1E8F3"/>
<path d="M160.728 112.686L155.685 109.776L160.728 106.865L165.772 109.776L160.728 112.686Z" fill="#E1E8F3"/>
<path d="M169.235 117.598L164.178 114.688L169.235 111.764L174.279 114.688L169.235 117.598Z" fill="#E1E8F3"/>
<path d="M177.729 122.51L172.686 119.599L177.729 116.676L182.786 119.599L177.729 122.51Z" fill="#E1E8F3"/>
<path d="M186.236 127.422L181.192 124.498L186.236 121.588L191.293 124.498L186.236 127.422Z" fill="#E1E8F3"/>
<path d="M88.2199 80.6457L79.1465 75.4045L84.1902 72.4941L93.2768 77.7354L88.2199 80.6457Z" fill="#E1E8F3"/>
<path d="M83.5183 87.3486L70.9946 80.1057L76.0384 77.1953L88.5752 84.4383L83.5183 87.3486Z" fill="#E1E8F3"/>
<path d="M78.4749 94.2492L62.4878 85.0178L67.5447 82.1074L83.5187 91.3389L78.4749 94.2492Z" fill="#E1E8F3"/>
<path d="M61.2761 96.1983L52.2026 90.9571L59.0373 87.0195L68.1108 92.2608L61.2761 96.1983Z" fill="#E1E8F3"/>
<path d="M73.8132 103.441L64.7397 98.2002L71.5613 94.2495L80.6479 99.4908L73.8132 103.441Z" fill="#E1E8F3"/>
<path d="M86.3361 110.671L77.2627 105.43L84.0974 101.492L93.1708 106.733L86.3361 110.671Z" fill="#E1E8F3"/>
<path d="M129.557 135.627L120.47 130.385L127.305 126.435L136.392 131.676L129.557 135.627Z" fill="#E1E8F3"/>
<path d="M150.785 147.887L132.981 137.602L139.829 133.665L157.633 143.936L150.785 147.887Z" fill="#E1E8F3"/>
<path d="M117.046 128.397L89.7998 112.673L96.6345 108.723L123.881 124.46L117.046 128.397Z" fill="#E1E8F3"/>
<path d="M99.1109 86.9276L91.6704 82.6476L96.7273 79.7241L104.155 84.0172L99.1109 86.9276Z" fill="#E1E8F3"/>
<path d="M94.4092 93.6307L86.9819 89.3376L92.0388 86.4272L99.453 90.7203L94.4092 93.6307Z" fill="#E1E8F3"/>
<path d="M89.5894 100.4L82.1621 96.1198L87.219 93.1963L94.6463 97.4894L89.5894 100.4Z" fill="#E1E8F3"/>
<path d="M100.48 106.681L93.0527 102.402L98.0965 99.478L105.524 103.771L100.48 106.681Z" fill="#E1E8F3"/>
<path d="M111.357 112.976L103.93 108.683L108.974 105.759L116.401 110.052L111.357 112.976Z" fill="#E1E8F3"/>
<path d="M122.248 119.257L114.821 114.964L119.865 112.041L127.292 116.334L122.248 119.257Z" fill="#E1E8F3"/>
<path d="M133.126 125.539L125.699 121.246L130.742 118.335L138.17 122.615L133.126 125.539Z" fill="#E1E8F3"/>
<path d="M144.017 131.821L136.589 127.528L141.633 124.617L149.06 128.897L144.017 131.821Z" fill="#E1E8F3"/>
<path d="M161.321 141.803L147.467 133.809L152.511 130.899L166.364 138.892L161.321 141.803Z" fill="#E1E8F3"/>
<path d="M105.287 99.9124L97.8594 95.6325L102.916 92.709L110.344 97.0021L105.287 99.9124Z" fill="#E1E8F3"/>
<path d="M116.177 106.194L108.75 101.914L113.794 98.9902L121.221 103.283L116.177 106.194Z" fill="#E1E8F3"/>
<path d="M127.055 112.475L119.628 108.195L124.685 105.272L132.112 109.565L127.055 112.475Z" fill="#E1E8F3"/>
<path d="M137.946 118.757L130.519 114.477L135.563 111.566L142.99 115.846L137.946 118.757Z" fill="#E1E8F3"/>
<path d="M148.823 125.052L141.396 120.758L146.453 117.848L153.88 122.141L148.823 125.052Z" fill="#E1E8F3"/>
<path d="M169.591 137.035L152.287 127.04L157.331 124.13L174.635 134.125L169.591 137.035Z" fill="#E1E8F3"/>
<path d="M109.988 93.2093L102.561 88.9294L107.605 86.0059L115.032 90.2989L109.988 93.2093Z" fill="#E1E8F3"/>
<path d="M120.866 99.5037L113.438 95.2106L118.495 92.3003L125.923 96.5802L120.866 99.5037Z" fill="#E1E8F3"/>
<path d="M131.756 105.785L124.329 101.492L129.373 98.582L136.8 102.862L131.756 105.785Z" fill="#E1E8F3"/>
<path d="M142.647 112.067L135.207 107.774L140.263 104.864L147.691 109.144L142.647 112.067Z" fill="#E1E8F3"/>
<path d="M153.524 118.349L146.097 114.056L151.141 111.146L158.568 115.439L153.524 118.349Z" fill="#E1E8F3"/>
<path d="M164.402 124.63L156.975 120.35L162.032 117.427L169.459 121.72L164.402 124.63Z" fill="#E1E8F3"/>
<path d="M177.742 132.334L167.866 126.632L172.909 123.708L182.786 129.411L177.742 132.334Z" fill="#E1E8F3"/>
<defs>
<linearGradient id="paint0_linear_1668_21" x1="163.652" y1="179.334" x2="199.024" y2="179.334" gradientUnits="userSpaceOnUse">
<stop stop-color="#C7D6EA"/>
<stop offset="1" stop-color="white"/>
</linearGradient>
<linearGradient id="paint1_linear_1668_21" x1="149.535" y1="178.214" x2="194.902" y2="178.214" gradientUnits="userSpaceOnUse">
<stop offset="0.26" stop-color="#7297C9"/>
<stop offset="0.36" stop-color="#628CC2"/>
<stop offset="0.49" stop-color="#4779B8"/>
</linearGradient>
<linearGradient id="paint2_linear_1668_21" x1="147.19" y1="138.392" x2="202.145" y2="138.392" gradientUnits="userSpaceOnUse">
<stop stop-color="#C7D6EA"/>
<stop offset="1" stop-color="white"/>
</linearGradient>
<linearGradient id="paint3_linear_1668_21" x1="196.68" y1="122.378" x2="46" y2="122.378" gradientUnits="userSpaceOnUse">
<stop offset="0.26" stop-color="#4779B8"/>
<stop offset="0.3" stop-color="#5683BE"/>
<stop offset="0.34" stop-color="#7297C9"/>
</linearGradient>
</defs>
</svg>
