<svg width="250" height="250" viewBox="0 0 250 250" fill="none" xmlns="http://www.w3.org/2000/svg">
<circle cx="125" cy="125" r="125" fill="#F4F9DD"/>
<path d="M152.364 108.038C152.364 121.903 142.634 138.757 130.611 145.707C121.854 150.78 114.313 149.112 110.873 142.475C113.653 142.336 116.711 141.432 119.943 139.556C131.966 132.606 141.696 115.752 141.696 101.887C141.696 98.1341 140.966 95.0066 139.681 92.5741C147.152 92.2266 152.33 97.9256 152.33 108.038H152.364Z" fill="url(#paint0_linear_1668_26)"/>
<path d="M119.944 45.1741C136.067 35.8959 150.662 34.7839 161.435 40.4829L161.887 40.7261C162.199 40.8999 162.512 41.0736 162.825 41.2474L172.103 46.5988C161.331 40.9346 146.736 42.0119 130.612 51.3248C97.4951 70.4372 70.6335 116.967 70.6335 155.227C70.6335 173.992 77.097 187.231 87.5914 193.66L78.6955 188.517C67.1933 182.505 60.0001 168.849 60.0001 149.076C60.0001 110.817 86.8617 64.3213 119.978 45.1741H119.944Z" fill="url(#paint1_linear_1668_26)"/>
<path d="M89.3296 194.67L88.8431 194.427C89.0168 194.496 89.1558 194.601 89.3296 194.67Z" fill="#EBF1F8"/>
<path d="M130.611 51.3227C163.728 32.2103 190.589 47.7087 190.589 85.9683C190.589 124.228 163.728 170.723 130.611 189.87C97.4946 208.983 70.633 193.484 70.633 155.225C70.633 116.965 97.4946 70.4699 130.611 51.3227ZM130.611 145.703C142.635 138.753 152.365 121.9 152.365 108.034C152.365 94.1692 142.635 88.5398 130.611 95.4897C118.588 102.44 108.858 119.293 108.858 133.159C108.858 147.024 118.588 152.653 130.611 145.703Z" fill="white"/>
<path d="M143.018 138.271L159.002 161.032C150.628 171.457 140.933 180.284 130.577 186.261V149.321C135.095 146.715 139.334 142.823 142.983 138.271H143.018Z" fill="#7297C9"/>
<path d="M130.611 149.321V186.26C120.255 192.237 110.56 194.6 102.185 193.836L118.17 152.588C121.819 152.935 126.059 151.893 130.576 149.287L130.611 149.321Z" fill="#87A8D1"/>
<path d="M105.731 134.968C105.731 140.181 106.982 144.385 109.102 147.374L81.4059 181.846C76.541 175 73.761 165.409 73.761 153.455L105.766 134.968H105.731Z" fill="#7464CF"/>
<path d="M152.122 122.529L179.817 124.996C174.813 137.819 167.62 150.294 159.002 161.032L143.017 138.27C146.77 133.579 149.933 128.124 152.122 122.529Z" fill="#5C88C0"/>
<path d="M118.206 152.622L102.221 193.87C93.6032 193.071 86.41 188.936 81.406 181.847L109.102 147.375C111.291 150.468 114.418 152.275 118.206 152.622Z" fill="#614DC9"/>
<path d="M152.123 93.8595L179.818 59.3877C184.683 66.2334 187.463 75.8244 187.463 87.7783L155.459 106.265C155.459 101.053 154.208 96.848 152.088 93.8595H152.123Z" fill="#ECD4DD"/>
<path d="M130.613 91.8785C126.095 94.4848 121.856 98.3767 118.207 102.929L102.222 80.1678C110.597 69.7429 120.292 60.9164 130.647 54.9395V91.8785H130.613Z" fill="#F3E4EA"/>
<path d="M155.492 106.232L187.497 87.7446C187.497 99.6986 184.717 112.521 179.852 124.962L152.157 122.494C154.276 117.039 155.527 111.444 155.527 106.232H155.492Z" fill="#E9CDD7"/>
<path d="M109.102 118.673L81.406 116.206C86.41 103.383 93.6032 90.9081 102.221 80.1704L118.206 102.932C114.453 107.623 111.291 113.078 109.102 118.673Z" fill="#614DC9"/>
<path d="M130.612 91.8794V54.9403C140.968 48.9634 150.663 46.6004 159.038 47.3649L143.053 88.6129C139.404 88.2654 135.164 89.3079 130.647 91.9142L130.612 91.8794Z" fill="#F6EBEF"/>
<path d="M143.017 88.6128L159.036 47.3647C167.654 48.164 174.848 52.2992 179.852 59.3882L152.156 93.86C149.967 90.7673 146.839 88.9603 143.051 88.6128H143.017Z" fill="#F2E1E9"/>
<path d="M105.731 134.971L73.7268 153.458C73.7268 141.504 76.5068 128.681 81.3718 116.241L109.067 118.708C106.948 124.164 105.697 129.758 105.697 134.971H105.731Z" fill="#9182D9"/>
<defs>
<linearGradient id="paint0_linear_1668_26" x1="141.488" y1="139.417" x2="120.742" y2="103.52" gradientUnits="userSpaceOnUse">
<stop stop-color="#C0D1E7"/>
<stop offset="0.46" stop-color="#D5E1EF"/>
<stop offset="1" stop-color="#EBF1F8"/>
</linearGradient>
<linearGradient id="paint1_linear_1668_26" x1="146.875" y1="159.432" x2="90.6494" y2="62.0973" gradientUnits="userSpaceOnUse">
<stop stop-color="#C0D1E7"/>
<stop offset="0.46" stop-color="#D5E1EF"/>
<stop offset="1" stop-color="#EBF1F8"/>
</linearGradient>
</defs>
</svg>
