<svg width="250" height="250" viewBox="0 0 250 250" fill="none" xmlns="http://www.w3.org/2000/svg">
<circle cx="125" cy="125" r="125" fill="#F4F9DD"/>
<path style="mix-blend-mode:multiply" d="M207.075 128.946L148.126 94.9188C143.265 92.1117 135.3 92.1117 130.439 94.9188L72.4261 128.398C67.565 131.205 67.565 135.815 72.4261 138.623L127.404 170.368V174.772H139.75C143.105 174.841 146.506 174.156 149.062 172.673L207.075 139.17C211.936 136.363 211.936 131.753 207.075 128.946Z" fill="url(#paint0_linear_1667_20)"/>
<path d="M135.55 164.685C130.689 167.492 122.724 167.492 117.863 164.685L58.8919 130.635C54.0308 127.828 54.0308 123.218 58.8919 120.411L116.905 86.931C121.766 84.1239 129.731 84.1239 134.592 86.931L193.54 120.958C198.402 123.765 198.402 128.375 193.54 131.182L135.527 164.685H135.55Z" fill="white"/>
<path d="M55.2635 133.464C55.1723 135.381 56.3818 137.321 58.8922 138.782L117.841 172.809C122.702 175.616 130.667 175.616 135.528 172.809L193.541 139.33C196.097 137.869 197.284 135.906 197.169 133.966V126.344C197.055 128.101 195.869 129.858 193.541 131.205L135.528 164.707C130.667 167.514 122.702 167.514 117.841 164.707L58.8922 130.634C56.4959 129.242 55.2864 127.417 55.2407 125.591V133.464H55.2635Z" fill="url(#paint1_linear_1667_20)"/>
<path d="M193.564 120.958L134.616 86.931C129.755 84.1239 121.79 84.1239 116.929 86.931L69.4365 114.34C69.6647 114.5 69.893 114.659 70.1668 114.796L125.145 146.542V150.946H137.491C140.846 151.015 144.246 150.33 146.802 148.847L194.272 121.438C194.044 121.278 193.815 121.118 193.541 120.981L193.564 120.958Z" fill="url(#paint2_linear_1667_20)"/>
<path d="M133.292 140.859C128.431 143.666 120.466 143.666 115.605 140.859L56.656 106.832C51.795 104.025 51.795 99.4148 56.656 96.6077L114.669 63.1053C119.53 60.2982 127.495 60.2982 132.356 63.1053L191.305 97.1326C196.166 99.9397 196.166 104.55 191.305 107.357L133.292 140.859Z" fill="white"/>
<path d="M53.0048 109.639C52.9135 111.556 54.1231 113.496 56.6335 114.957L115.582 148.984C120.443 151.791 128.408 151.791 133.269 148.984L191.282 115.504C193.838 114.044 195.025 112.081 194.911 110.141V102.519C194.797 104.276 193.61 106.033 191.282 107.38L133.269 140.882C128.408 143.689 120.443 143.689 115.582 140.882L56.6563 106.832C54.26 105.44 53.0276 103.614 53.0048 101.789V109.662V109.639Z" fill="url(#paint3_linear_1667_20)"/>
<path d="M146.962 96.7906L145.638 94.8279L98.6938 105.417L100.018 107.38L146.962 96.7906ZM122.406 113.177L144.588 113.702L143.676 100.899L140.024 100.99L140.777 111.511L122.565 111.077L122.406 113.177ZM100.451 100.511L104.103 100.419L103.349 89.8984L121.561 90.332L121.721 88.2324L99.5383 87.7075L100.451 100.511Z" fill="#E1E8F3"/>
<defs>
<linearGradient id="paint0_linear_1667_20" x1="114.5" y1="133.807" x2="220.5" y2="133.807" gradientUnits="userSpaceOnUse">
<stop stop-color="#CAD9EB"/>
<stop offset="1" stop-color="white"/>
</linearGradient>
<linearGradient id="paint1_linear_1667_20" x1="197.212" y1="150.501" x2="55.285" y2="150.513" gradientUnits="userSpaceOnUse">
<stop offset="0.41" stop-color="#EBD1DA"/>
<stop offset="0.58" stop-color="#F2E1E9"/>
</linearGradient>
<linearGradient id="paint2_linear_1667_20" x1="69.4365" y1="117.877" x2="194.272" y2="117.877" gradientUnits="userSpaceOnUse">
<stop offset="0.43" stop-color="#C7D6EA"/>
<stop offset="0.67" stop-color="#D7E3DF"/>
<stop offset="1" stop-color="#F3FACE"/>
</linearGradient>
<linearGradient id="paint3_linear_1667_20" x1="194.955" y1="126.691" x2="53.0283" y2="126.703" gradientUnits="userSpaceOnUse">
<stop offset="0.41" stop-color="#5C88C0"/>
<stop offset="0.5" stop-color="#749AC9"/>
<stop offset="0.58" stop-color="#87A8D1"/>
</linearGradient>
</defs>
</svg>
