<svg width="250" height="250" viewBox="0 0 250 250" fill="none" xmlns="http://www.w3.org/2000/svg">
<circle cx="125" cy="125" r="125" fill="#F4F9DD"/>
<path d="M161.248 151.619C162.865 150.677 164.2 148.385 164.2 146.516V124.187C164.2 122.318 162.865 121.549 161.248 122.491L113.449 150.081V179.225L161.248 151.635V151.619Z" fill="white"/>
<path d="M91.3393 191.99L113.449 179.224V150.08L91.3393 162.846C89.7219 163.788 88.3872 166.081 88.3872 167.949V190.279C88.3872 192.147 89.7219 192.917 91.3393 191.975V191.99Z" fill="#87A8D1"/>
<path d="M161.248 122.474C162.049 122.019 162.771 121.972 163.305 122.27L160.997 120.936C160.463 120.59 159.694 120.621 158.861 121.108L111.062 148.698L113.449 150.08L161.248 122.49V122.474Z" fill="#E1E8F3"/>
<path d="M88.3868 190.279V167.95C88.3868 166.081 89.7216 163.773 91.339 162.846L113.449 150.08L111.062 148.698L88.9521 161.465C87.3347 162.407 86 164.699 86 166.568V188.897C86 189.871 86.3612 190.546 86.9422 190.845L89.1877 192.132C88.7009 191.802 88.3868 191.174 88.3868 190.279Z" fill="url(#paint0_linear_1668_24)"/>
<path d="M118.206 159.973L156.678 137.754V134.676L118.206 156.88V159.973Z" fill="url(#paint1_linear_1668_24)"/>
<path d="M118.206 167.934L143.582 153.283V150.206L118.206 164.856V167.934Z" fill="url(#paint2_linear_1668_24)"/>
<path d="M161.248 111.655C162.865 110.713 164.2 108.42 164.2 106.552V84.2222C164.2 82.3536 162.865 81.5842 161.248 82.5263L113.449 110.116V139.261L161.248 111.671V111.655Z" fill="white"/>
<path d="M91.3393 152.011L113.449 139.245V110.101L91.3393 122.867C89.7219 123.809 88.3872 126.102 88.3872 127.97V150.3C88.3872 152.168 89.7219 152.938 91.3393 151.996V152.011Z" fill="#614DC9"/>
<path d="M100.117 133.655C99.3005 133.498 98.7509 132.697 98.7509 131.394C98.7509 129.415 100.023 127.075 101.577 126.18C103.132 125.285 104.404 126.149 104.404 128.127C104.404 129.431 103.854 130.875 103.038 131.975C105.425 131.519 106.948 133.027 106.948 134.958C106.539 135.194 101.577 138.052 101.577 138.052C101.577 138.052 96.6153 140.909 96.207 141.145C96.207 139.198 97.7302 135.947 100.117 133.639V133.655Z" fill="#9182D9"/>
<path d="M161.248 82.5105C162.049 82.0551 162.771 82.008 163.305 82.3064L160.997 80.9717C160.463 80.6262 159.694 80.6576 158.861 81.1444L111.062 108.719L113.449 110.1L161.248 82.5105Z" fill="#E1E8F3"/>
<path d="M88.3868 150.315V127.986C88.3868 126.117 89.7216 123.809 91.339 122.883L113.449 110.116L111.062 108.734L88.9521 121.501C87.3347 122.443 86 124.736 86 126.604V148.934C86 149.907 86.3612 150.582 86.9422 150.881L89.1877 152.168C88.7009 151.839 88.3868 151.21 88.3868 150.315Z" fill="url(#paint3_linear_1668_24)"/>
<path d="M118.206 119.993L156.678 97.7897V94.7119L118.206 116.916V119.993Z" fill="url(#paint4_linear_1668_24)"/>
<path d="M118.206 127.97L143.582 113.319V110.242L118.206 124.877V127.97Z" fill="url(#paint5_linear_1668_24)"/>
<path d="M161.248 69.776C162.865 68.8339 164.2 66.5413 164.2 64.6726V54.4815C164.2 52.6129 162.865 51.8434 161.248 52.7856L120.845 76.1043V93.1104L161.248 69.776Z" fill="white"/>
<path d="M91.3393 110.148L120.845 93.1101V76.104L91.3393 93.1416C89.7219 94.0837 88.3872 96.3763 88.3872 98.245V108.436C88.3872 110.305 89.7219 111.074 91.3393 110.132V110.148Z" fill="#E1E8F3"/>
<path d="M161.248 52.7693C162.049 52.3139 162.771 52.2668 163.305 52.5652L160.997 51.2304C160.463 50.885 159.694 50.9164 158.861 51.4032L118.458 74.7218L120.845 76.1037L161.248 52.7693Z" fill="#E1E8F3"/>
<path d="M88.3868 108.452V98.2607C88.3868 96.392 89.7216 94.0837 91.339 93.1573L120.845 76.104L118.458 74.7222L88.9521 91.7597C87.3347 92.7019 86 94.9945 86 96.8631V107.054C86 108.028 86.3612 108.703 86.9422 109.001L89.1877 110.289C88.7009 109.959 88.3868 109.331 88.3868 108.436V108.452Z" fill="url(#paint6_linear_1668_24)"/>
<path d="M97.8559 99.5165L96.6782 96.0462L95.6418 96.6429L94.4641 101.479L93.2864 98.009L92.25 98.6057L93.8988 103.144L95.0451 102.484L96.1757 98.0718L97.3063 101.181L98.4526 100.521L100.101 94.0833L99.065 94.68L97.8873 99.5165H97.8559ZM106.006 94.8056L104.828 91.3353L103.792 91.932L102.614 96.7685L101.436 93.2982L100.4 93.8949L102.049 98.433L103.195 97.7735L104.325 93.361L105.456 96.4701L106.602 95.8106L108.251 89.3725L107.215 89.9692L106.037 94.8056H106.006ZM114.155 90.0948L112.978 86.6245L111.941 87.2212L110.764 92.0576L109.586 88.5873L108.55 89.184L110.198 93.7221L111.345 93.0626L112.475 88.6501L113.606 91.7593L114.752 91.0998L116.401 84.6616L115.365 85.2583L114.187 90.0948H114.155ZM118.003 87.9906C117.877 87.9121 117.72 87.9278 117.532 88.0377C117.343 88.1476 117.186 88.3047 117.06 88.5245C116.935 88.7444 116.872 88.9642 116.872 89.184C116.872 89.4039 116.935 89.5452 117.06 89.6237C117.186 89.7022 117.343 89.6865 117.532 89.5766C117.72 89.4667 117.877 89.3097 118.003 89.0741C118.128 88.8543 118.207 88.6344 118.207 88.4146C118.207 88.1948 118.144 88.0534 118.003 87.9906Z" fill="#87A8D1"/>
<path d="M106.131 167.934L101.907 170.368V165.5L99.9438 166.631V171.514L95.7197 173.948V176.225L99.9438 173.791V178.659L101.907 177.528V172.645L106.131 170.211V167.934Z" fill="#D7E2EF"/>
<defs>
<linearGradient id="paint0_linear_1668_24" x1="82.1528" y1="188.081" x2="113.904" y2="133.074" gradientUnits="userSpaceOnUse">
<stop offset="0.3" stop-color="#4779B8"/>
<stop offset="0.36" stop-color="#5F8AC1"/>
<stop offset="0.42" stop-color="#7297C9"/>
</linearGradient>
<linearGradient id="paint1_linear_1668_24" x1="1083" y1="-318.005" x2="1014.08" y2="-368.838" gradientUnits="userSpaceOnUse">
<stop offset="0.41" stop-color="#C0D1E7"/>
<stop offset="0.57" stop-color="#CAD9EB"/>
</linearGradient>
<linearGradient id="paint2_linear_1668_24" x1="1058.49" y1="-317.197" x2="1010.17" y2="-352.834" gradientUnits="userSpaceOnUse">
<stop offset="0.41" stop-color="#C0D1E7"/>
<stop offset="0.57" stop-color="#CAD9EB"/>
</linearGradient>
<linearGradient id="paint3_linear_1668_24" x1="82.1528" y1="148.117" x2="113.904" y2="93.1101" gradientUnits="userSpaceOnUse">
<stop offset="0.3" stop-color="#7464CF"/>
<stop offset="0.34" stop-color="#7F6FD2"/>
<stop offset="0.42" stop-color="#9182D9"/>
</linearGradient>
<linearGradient id="paint4_linear_1668_24" x1="1065.61" y1="-348.127" x2="996.689" y2="-398.949" gradientUnits="userSpaceOnUse">
<stop offset="0.41" stop-color="#C0D1E7"/>
<stop offset="0.57" stop-color="#CAD9EB"/>
</linearGradient>
<linearGradient id="paint5_linear_1668_24" x1="1041.1" y1="-347.308" x2="992.79" y2="-382.945" gradientUnits="userSpaceOnUse">
<stop offset="0.41" stop-color="#C0D1E7"/>
<stop offset="0.57" stop-color="#CAD9EB"/>
</linearGradient>
<linearGradient id="paint6_linear_1668_24" x1="89.2505" y1="110.336" x2="118.976" y2="58.8623" gradientUnits="userSpaceOnUse">
<stop offset="0.3" stop-color="#C0D1E7"/>
<stop offset="0.31" stop-color="#C1D2E7"/>
<stop offset="0.42" stop-color="#D4DFEE"/>
</linearGradient>
</defs>
</svg>
