<svg width="250" height="250" viewBox="0 0 250 250" fill="none" xmlns="http://www.w3.org/2000/svg">
<circle cx="125" cy="125" r="125" fill="#F4F9DD"/>
<g clip-path="url(#clip0_1668_25)">
<path style="mix-blend-mode:multiply" d="M151.681 192.802H153.675L231.992 147.526H229.997L151.681 192.802ZM220.058 140.622H218.063L229.997 147.518H231.992L220.058 140.622Z" fill="url(#paint0_linear_1668_25)"/>
<path d="M120.316 83L229.997 146.407L151.681 191.691L42 128.276L120.316 83Z" fill="#87A8D1"/>
<path d="M229.997 147.526L151.681 192.802V191.691L229.997 146.407V147.526Z" fill="#9186C9"/>
<path d="M151.681 192.802L42 129.395V128.276L151.681 191.691V192.802Z" fill="#3F3F60"/>
<path d="M151.681 187.679L51.3457 129.67L122.724 88.3979L223.058 146.407L151.681 187.679Z" stroke="white" stroke-width="0.96" stroke-linecap="round" stroke-linejoin="round"/>
<path d="M123.291 160.121L161.318 182.1L151.68 187.679L113.653 165.691L123.291 160.121Z" stroke="white" stroke-width="0.96" stroke-linecap="round" stroke-linejoin="round"/>
<path d="M165.471 179.699L127.444 157.719L123.291 160.121L161.319 182.1L165.471 179.699Z" stroke="white" stroke-width="0.96" stroke-linecap="round" stroke-linejoin="round"/>
<path d="M129.077 175.015C128.931 175.015 128.794 174.938 128.716 174.809C128.604 174.611 128.673 174.361 128.871 174.24L138.509 168.67C138.707 168.558 138.956 168.627 139.076 168.825C139.188 169.023 139.119 169.273 138.922 169.393L129.284 174.964C129.215 174.998 129.146 175.015 129.077 175.015Z" fill="white"/>
<path d="M135.508 171.296C135.44 171.296 135.371 171.279 135.302 171.244L119.878 162.325C119.68 162.213 119.611 161.955 119.723 161.757C119.835 161.559 120.093 161.49 120.29 161.602L135.715 170.521C135.912 170.633 135.981 170.891 135.869 171.089C135.792 171.218 135.654 171.296 135.508 171.296Z" fill="white"/>
<path d="M132.172 173.225C132.104 173.225 132.035 173.207 131.966 173.173L116.542 164.254C116.344 164.142 116.275 163.884 116.387 163.686C116.499 163.488 116.757 163.419 116.954 163.531L132.379 172.45C132.576 172.562 132.645 172.82 132.533 173.018C132.456 173.147 132.319 173.225 132.172 173.225Z" fill="white"/>
<path d="M121.365 170.564C121.219 170.564 121.082 170.487 121.004 170.357C120.892 170.159 120.961 169.91 121.159 169.789L130.797 164.219C130.995 164.107 131.244 164.176 131.364 164.374C131.476 164.572 131.407 164.822 131.21 164.942L121.572 170.512C121.503 170.547 121.434 170.564 121.365 170.564Z" fill="white"/>
<path d="M64.9643 118.367L67.9305 120.08L51.3456 129.671L48.3794 127.957L64.9643 118.367Z" stroke="white" stroke-width="0.96" stroke-linecap="round" stroke-linejoin="round"/>
<path d="M119.766 86.6934L122.724 88.398L112.398 94.3728L109.432 92.6595L119.766 86.6934Z" stroke="white" stroke-width="0.96" stroke-linecap="round" stroke-linejoin="round"/>
<path d="M62.5483 123.601C62.4795 123.601 62.4108 123.584 62.342 123.549L59.3758 121.836C59.178 121.724 59.1092 121.466 59.221 121.268C59.3328 121.07 59.5907 121.001 59.7885 121.113L62.7547 122.826C62.9524 122.938 63.0212 123.196 62.9094 123.394C62.832 123.523 62.6945 123.601 62.5483 123.601Z" fill="white"/>
<path d="M56.9682 126.829C56.8995 126.829 56.8307 126.812 56.7619 126.778L53.7957 125.064C53.5979 124.952 53.5292 124.694 53.6409 124.496C53.7527 124.298 54.0106 124.229 54.2084 124.341L57.1746 126.054C57.3723 126.166 57.4411 126.425 57.3293 126.623C57.252 126.752 57.1144 126.829 56.9682 126.829Z" fill="white"/>
<path d="M122.664 94.0111C123.051 93.7873 123.678 93.7873 124.065 94.0111C124.452 94.235 124.452 94.5966 124.065 94.8204C123.678 95.0442 123.051 95.0442 122.664 94.8204C122.277 94.5966 122.277 94.235 122.664 94.0111Z" fill="#E7D7DD"/>
<path d="M132.448 99.6674C132.835 99.4436 133.462 99.4436 133.849 99.6674C134.236 99.8912 134.236 100.253 133.849 100.477C133.462 100.7 132.835 100.7 132.448 100.477C132.061 100.253 132.061 99.8912 132.448 99.6674Z" fill="#E7D7DD"/>
<path d="M142.223 105.324C142.61 105.1 143.238 105.1 143.625 105.324C144.012 105.547 144.012 105.909 143.625 106.133C143.238 106.357 142.61 106.357 142.223 106.133C141.836 105.909 141.836 105.547 142.223 105.324Z" fill="#E7D7DD"/>
<path d="M152.007 110.98C152.394 110.756 153.022 110.756 153.409 110.98C153.796 111.204 153.796 111.565 153.409 111.789C153.022 112.013 152.394 112.013 152.007 111.789C151.621 111.565 151.621 111.204 152.007 110.98Z" fill="#E7D7DD"/>
<path d="M161.792 116.636C162.179 116.412 162.806 116.412 163.193 116.636C163.58 116.86 163.58 117.222 163.193 117.445C162.806 117.669 162.179 117.669 161.792 117.445C161.405 117.222 161.405 116.86 161.792 116.636Z" fill="#E7D7DD"/>
<path d="M171.576 122.284C171.963 122.06 172.59 122.06 172.977 122.284C173.364 122.507 173.364 122.869 172.977 123.093C172.59 123.317 171.963 123.317 171.576 123.093C171.189 122.869 171.189 122.507 171.576 122.284Z" fill="#E7D7DD"/>
<path d="M181.351 127.94C181.738 127.716 182.366 127.716 182.753 127.94C183.14 128.164 183.14 128.525 182.753 128.749C182.366 128.973 181.738 128.973 181.351 128.749C180.964 128.525 180.964 128.164 181.351 127.94Z" fill="#E7D7DD"/>
<path d="M191.135 133.596C191.522 133.372 192.15 133.372 192.537 133.596C192.924 133.82 192.924 134.182 192.537 134.405C192.15 134.629 191.522 134.629 191.135 134.405C190.748 134.182 190.748 133.82 191.135 133.596Z" fill="#E7D7DD"/>
<path d="M200.92 139.252C201.306 139.029 201.934 139.029 202.321 139.252C202.708 139.476 202.708 139.838 202.321 140.062C201.934 140.285 201.306 140.285 200.92 140.062C200.533 139.838 200.533 139.476 200.92 139.252Z" fill="#E7D7DD"/>
<path d="M210.704 144.909C211.091 144.685 211.718 144.685 212.105 144.909C212.492 145.132 212.492 145.494 212.105 145.718C211.718 145.942 211.091 145.942 210.704 145.718C210.317 145.494 210.317 145.132 210.704 144.909Z" fill="#E7D7DD"/>
<path d="M112.183 100.072C112.57 99.8483 113.198 99.8483 113.585 100.072C113.972 100.296 113.972 100.658 113.585 100.881C113.198 101.105 112.57 101.105 112.183 100.881C111.796 100.658 111.796 100.296 112.183 100.072Z" fill="#E7D7DD"/>
<path d="M121.967 105.728C122.354 105.505 122.982 105.505 123.369 105.728C123.756 105.952 123.756 106.314 123.369 106.538C122.982 106.762 122.354 106.762 121.967 106.538C121.581 106.314 121.581 105.952 121.967 105.728Z" fill="#E7D7DD"/>
<path d="M131.743 111.385C132.13 111.161 132.757 111.161 133.144 111.385C133.531 111.609 133.531 111.97 133.144 112.194C132.757 112.418 132.13 112.418 131.743 112.194C131.356 111.97 131.356 111.609 131.743 111.385Z" fill="#E7D7DD"/>
<path d="M141.527 117.032C141.914 116.808 142.542 116.808 142.928 117.032C143.315 117.256 143.315 117.618 142.928 117.841C142.542 118.065 141.914 118.065 141.527 117.841C141.14 117.618 141.14 117.256 141.527 117.032Z" fill="#E7D7DD"/>
<path d="M151.311 122.688C151.698 122.465 152.326 122.465 152.713 122.688C153.099 122.912 153.099 123.274 152.713 123.498C152.326 123.721 151.698 123.721 151.311 123.498C150.924 123.274 150.924 122.912 151.311 122.688Z" fill="#E7D7DD"/>
<path d="M161.095 128.345C161.482 128.121 162.11 128.121 162.497 128.345C162.884 128.568 162.884 128.93 162.497 129.154C162.11 129.378 161.482 129.378 161.095 129.154C160.708 128.93 160.708 128.568 161.095 128.345Z" fill="#E7D7DD"/>
<path d="M170.871 134.001C171.258 133.777 171.885 133.777 172.272 134.001C172.659 134.225 172.659 134.586 172.272 134.81C171.885 135.034 171.258 135.034 170.871 134.81C170.484 134.586 170.484 134.225 170.871 134.001Z" fill="#E7D7DD"/>
<path d="M180.655 139.657C181.042 139.433 181.669 139.433 182.056 139.657C182.443 139.881 182.443 140.243 182.056 140.466C181.669 140.69 181.042 140.69 180.655 140.466C180.268 140.243 180.268 139.881 180.655 139.657Z" fill="#E7D7DD"/>
<path d="M190.439 145.313C190.826 145.09 191.454 145.09 191.841 145.313C192.227 145.537 192.227 145.899 191.841 146.123C191.454 146.346 190.826 146.346 190.439 146.123C190.052 145.899 190.052 145.537 190.439 145.313Z" fill="#E7D7DD"/>
<path d="M200.223 150.97C200.61 150.746 201.238 150.746 201.625 150.97C202.012 151.193 202.012 151.555 201.625 151.779C201.238 152.003 200.61 152.003 200.223 151.779C199.836 151.555 199.836 151.193 200.223 150.97Z" fill="#E7D7DD"/>
<path d="M101.702 106.133C102.089 105.909 102.717 105.909 103.104 106.133C103.491 106.357 103.491 106.718 103.104 106.942C102.717 107.166 102.089 107.166 101.702 106.942C101.315 106.718 101.315 106.357 101.702 106.133Z" fill="#E7D7DD"/>
<path d="M111.478 111.789C111.865 111.565 112.493 111.565 112.88 111.789C113.266 112.013 113.266 112.374 112.88 112.598C112.493 112.822 111.865 112.822 111.478 112.598C111.091 112.374 111.091 112.013 111.478 111.789Z" fill="#E7D7DD"/>
<path d="M121.262 117.437C121.649 117.213 122.277 117.213 122.664 117.437C123.051 117.661 123.051 118.022 122.664 118.246C122.277 118.47 121.649 118.47 121.262 118.246C120.875 118.022 120.875 117.661 121.262 117.437Z" fill="#E7D7DD"/>
<path d="M131.047 123.093C131.433 122.869 132.061 122.869 132.448 123.093C132.835 123.317 132.835 123.679 132.448 123.902C132.061 124.126 131.433 124.126 131.047 123.902C130.66 123.679 130.66 123.317 131.047 123.093Z" fill="#E7D7DD"/>
<path d="M140.831 128.749C141.218 128.526 141.845 128.526 142.232 128.749C142.619 128.973 142.619 129.335 142.232 129.559C141.845 129.783 141.218 129.783 140.831 129.559C140.444 129.335 140.444 128.973 140.831 128.749Z" fill="#E7D7DD"/>
<path d="M150.606 134.406C150.993 134.182 151.621 134.182 152.008 134.406C152.394 134.63 152.394 134.991 152.008 135.215C151.621 135.439 150.993 135.439 150.606 135.215C150.219 134.991 150.219 134.63 150.606 134.406Z" fill="#E7D7DD"/>
<path d="M160.39 140.062C160.777 139.838 161.405 139.838 161.792 140.062C162.179 140.286 162.179 140.647 161.792 140.871C161.405 141.095 160.777 141.095 160.39 140.871C160.003 140.647 160.003 140.286 160.39 140.062Z" fill="#E7D7DD"/>
<path d="M170.174 145.718C170.561 145.494 171.189 145.494 171.576 145.718C171.963 145.942 171.963 146.304 171.576 146.527C171.189 146.751 170.561 146.751 170.174 146.527C169.788 146.304 169.788 145.942 170.174 145.718Z" fill="#E7D7DD"/>
<path d="M179.959 151.374C180.346 151.151 180.973 151.151 181.36 151.374C181.747 151.598 181.747 151.96 181.36 152.184C180.973 152.408 180.346 152.408 179.959 152.184C179.572 151.96 179.572 151.598 179.959 151.374Z" fill="#E7D7DD"/>
<path d="M189.734 157.031C190.121 156.807 190.749 156.807 191.135 157.031C191.522 157.255 191.522 157.616 191.135 157.84C190.749 158.064 190.121 158.064 189.734 157.84C189.347 157.616 189.347 157.255 189.734 157.031Z" fill="#E7D7DD"/>
<path d="M91.2218 112.194C91.6087 111.97 92.2363 111.97 92.6232 112.194C93.0101 112.418 93.0101 112.779 92.6232 113.003C92.2363 113.227 91.6087 113.227 91.2218 113.003C90.8349 112.779 90.8349 112.418 91.2218 112.194Z" fill="#E7D7DD"/>
<path d="M100.998 117.841C101.385 117.617 102.012 117.617 102.399 117.841C102.786 118.065 102.786 118.427 102.399 118.65C102.012 118.874 101.385 118.874 100.998 118.65C100.611 118.427 100.611 118.065 100.998 117.841Z" fill="#E7D7DD"/>
<path d="M110.781 123.497C111.168 123.274 111.796 123.274 112.183 123.497C112.57 123.721 112.57 124.083 112.183 124.307C111.796 124.531 111.168 124.531 110.781 124.307C110.394 124.083 110.394 123.721 110.781 123.497Z" fill="#E7D7DD"/>
<path d="M120.566 129.154C120.952 128.93 121.58 128.93 121.967 129.154C122.354 129.378 122.354 129.739 121.967 129.963C121.58 130.187 120.952 130.187 120.566 129.963C120.179 129.739 120.179 129.378 120.566 129.154Z" fill="#E7D7DD"/>
<path d="M130.35 134.81C130.737 134.586 131.364 134.586 131.751 134.81C132.138 135.034 132.138 135.395 131.751 135.619C131.364 135.843 130.737 135.843 130.35 135.619C129.963 135.395 129.963 135.034 130.35 134.81Z" fill="#E7D7DD"/>
<path d="M140.126 140.466C140.513 140.242 141.14 140.242 141.527 140.466C141.914 140.69 141.914 141.052 141.527 141.275C141.14 141.499 140.513 141.499 140.126 141.275C139.739 141.052 139.739 140.69 140.126 140.466Z" fill="#E7D7DD"/>
<path d="M149.91 146.122C150.297 145.899 150.924 145.899 151.311 146.122C151.698 146.346 151.698 146.708 151.311 146.932C150.924 147.156 150.297 147.156 149.91 146.932C149.523 146.708 149.523 146.346 149.91 146.122Z" fill="#E7D7DD"/>
<path d="M159.694 151.779C160.081 151.555 160.709 151.555 161.095 151.779C161.482 152.003 161.482 152.364 161.095 152.588C160.709 152.812 160.081 152.812 159.694 152.588C159.307 152.364 159.307 152.003 159.694 151.779Z" fill="#E7D7DD"/>
<path d="M169.478 157.435C169.865 157.211 170.493 157.211 170.88 157.435C171.266 157.659 171.266 158.02 170.88 158.244C170.493 158.468 169.865 158.468 169.478 158.244C169.091 158.02 169.091 157.659 169.478 157.435Z" fill="#E7D7DD"/>
<path d="M179.254 163.083C179.64 162.859 180.268 162.859 180.655 163.083C181.042 163.307 181.042 163.668 180.655 163.892C180.268 164.116 179.64 164.116 179.254 163.892C178.867 163.668 178.867 163.307 179.254 163.083Z" fill="#E7D7DD"/>
<path d="M80.7413 118.246C81.1282 118.022 81.7559 118.022 82.1428 118.246C82.5297 118.47 82.5297 118.831 82.1428 119.055C81.7559 119.279 81.1282 119.279 80.7413 119.055C80.3544 118.831 80.3544 118.47 80.7413 118.246Z" fill="#E7D7DD"/>
<path d="M90.5167 123.902C90.9036 123.678 91.5313 123.678 91.9182 123.902C92.3051 124.126 92.3051 124.488 91.9182 124.712C91.5313 124.935 90.9036 124.935 90.5167 124.712C90.1298 124.488 90.1298 124.126 90.5167 123.902Z" fill="#E7D7DD"/>
<path d="M100.301 129.559C100.688 129.335 101.315 129.335 101.702 129.559C102.089 129.782 102.089 130.144 101.702 130.368C101.315 130.592 100.688 130.592 100.301 130.368C99.914 130.144 99.914 129.782 100.301 129.559Z" fill="#E7D7DD"/>
<path d="M110.085 135.215C110.472 134.991 111.1 134.991 111.487 135.215C111.873 135.439 111.873 135.8 111.487 136.024C111.1 136.248 110.472 136.248 110.085 136.024C109.698 135.8 109.698 135.439 110.085 135.215Z" fill="#E7D7DD"/>
<path d="M119.869 140.871C120.256 140.647 120.884 140.647 121.271 140.871C121.658 141.095 121.658 141.456 121.271 141.68C120.884 141.904 120.256 141.904 119.869 141.68C119.482 141.456 119.482 141.095 119.869 140.871Z" fill="#E7D7DD"/>
<path d="M129.645 146.527C130.032 146.303 130.66 146.303 131.047 146.527C131.433 146.751 131.433 147.113 131.047 147.337C130.66 147.56 130.032 147.56 129.645 147.337C129.258 147.113 129.258 146.751 129.645 146.527Z" fill="#E7D7DD"/>
<path d="M139.429 152.184C139.816 151.96 140.443 151.96 140.83 152.184C141.217 152.407 141.217 152.769 140.83 152.993C140.443 153.217 139.816 153.217 139.429 152.993C139.042 152.769 139.042 152.407 139.429 152.184Z" fill="#E7D7DD"/>
<path d="M149.213 157.84C149.6 157.616 150.228 157.616 150.614 157.84C151.001 158.064 151.001 158.425 150.614 158.649C150.228 158.873 149.6 158.873 149.213 158.649C148.826 158.425 148.826 158.064 149.213 157.84Z" fill="#E7D7DD"/>
<path d="M158.989 163.487C159.376 163.263 160.003 163.263 160.39 163.487C160.777 163.711 160.777 164.073 160.39 164.296C160.003 164.52 159.376 164.52 158.989 164.296C158.602 164.073 158.602 163.711 158.989 163.487Z" fill="#E7D7DD"/>
<path d="M168.773 169.143C169.16 168.92 169.788 168.92 170.175 169.143C170.561 169.367 170.561 169.729 170.175 169.953C169.788 170.177 169.16 170.177 168.773 169.953C168.386 169.729 168.386 169.367 168.773 169.143Z" fill="#E7D7DD"/>
<path d="M70.2521 124.307C70.639 124.083 71.2666 124.083 71.6535 124.307C72.0404 124.531 72.0404 124.892 71.6535 125.116C71.2666 125.34 70.639 125.34 70.2521 125.116C69.8652 124.892 69.8652 124.531 70.2521 124.307Z" fill="#E7D7DD"/>
<path d="M80.0363 129.963C80.4232 129.739 81.0508 129.739 81.4377 129.963C81.8246 130.187 81.8246 130.549 81.4377 130.773C81.0508 130.996 80.4232 130.996 80.0363 130.773C79.6494 130.549 79.6494 130.187 80.0363 129.963Z" fill="#E7D7DD"/>
<path d="M89.8204 135.62C90.2073 135.396 90.835 135.396 91.2219 135.62C91.6088 135.843 91.6088 136.205 91.2219 136.429C90.835 136.653 90.2073 136.653 89.8204 136.429C89.4335 136.205 89.4335 135.843 89.8204 135.62Z" fill="#E7D7DD"/>
<path d="M99.6046 141.276C99.9915 141.052 100.619 141.052 101.006 141.276C101.393 141.5 101.393 141.861 101.006 142.085C100.619 142.309 99.9915 142.309 99.6046 142.085C99.2177 141.861 99.2177 141.5 99.6046 141.276Z" fill="#E7D7DD"/>
<path d="M109.38 146.932C109.767 146.708 110.395 146.708 110.781 146.932C111.168 147.156 111.168 147.517 110.781 147.741C110.395 147.965 109.767 147.965 109.38 147.741C108.993 147.517 108.993 147.156 109.38 146.932Z" fill="#E7D7DD"/>
<path d="M119.164 152.588C119.551 152.364 120.179 152.364 120.566 152.588C120.953 152.812 120.953 153.174 120.566 153.398C120.179 153.621 119.551 153.621 119.164 153.398C118.777 153.174 118.777 152.812 119.164 152.588Z" fill="#E7D7DD"/>
<path d="M59.7716 130.368C60.1585 130.144 60.7861 130.144 61.173 130.368C61.5599 130.591 61.5599 130.953 61.173 131.177C60.7861 131.401 60.1585 131.401 59.7716 131.177C59.3847 130.953 59.3847 130.591 59.7716 130.368Z" fill="#E7D7DD"/>
<path d="M69.5558 136.024C69.9427 135.8 70.5703 135.8 70.9572 136.024C71.3441 136.248 71.3441 136.609 70.9572 136.833C70.5703 137.057 69.9427 137.057 69.5558 136.833C69.1689 136.609 69.1689 136.248 69.5558 136.024Z" fill="#E7D7DD"/>
<path d="M79.34 141.68C79.7269 141.456 80.3545 141.456 80.7414 141.68C81.1283 141.904 81.1283 142.266 80.7414 142.489C80.3545 142.713 79.7269 142.713 79.34 142.489C78.9531 142.266 78.9531 141.904 79.34 141.68Z" fill="#E7D7DD"/>
<path d="M89.1242 147.336C89.5111 147.112 90.1387 147.112 90.5256 147.336C90.9125 147.56 90.9125 147.922 90.5256 148.146C90.1387 148.369 89.5111 148.369 89.1242 148.146C88.7373 147.922 88.7373 147.56 89.1242 147.336Z" fill="#E7D7DD"/>
<path d="M98.8995 152.993C99.2864 152.769 99.9141 152.769 100.301 152.993C100.688 153.216 100.688 153.578 100.301 153.802C99.9141 154.026 99.2864 154.026 98.8995 153.802C98.5127 153.578 98.5127 153.216 98.8995 152.993Z" fill="#E7D7DD"/>
<path d="M108.684 158.649C109.071 158.425 109.698 158.425 110.085 158.649C110.472 158.873 110.472 159.234 110.085 159.458C109.698 159.682 109.071 159.682 108.684 159.458C108.297 159.234 108.297 158.873 108.684 158.649Z" fill="#E7D7DD"/>
<path d="M156.47 143.514L157.553 144.143L153.022 146.777L151.93 146.148C151.225 145.744 149.849 145.365 148.328 145.89C147.631 146.148 146.918 146.39 146.187 146.605C144.648 147.104 144.527 147.991 144.794 148.542L145.198 149.403L138.999 150.367L138.595 149.506C138.475 149.248 138.217 148.946 137.796 148.705C137.314 148.43 136.626 148.223 135.689 148.232C134.872 148.249 134.038 148.249 133.213 148.232C131.442 148.223 130.582 148.955 130.324 149.506L129.929 150.367L123.713 149.403L124.108 148.542C124.314 148.086 124.271 147.414 123.394 146.906C123.205 146.794 122.965 146.691 122.689 146.605C121.959 146.39 121.245 146.148 120.54 145.882C119.01 145.356 117.634 145.735 116.938 146.14L115.854 146.768L111.297 144.134L112.381 143.505C113.077 143.101 113.731 142.3 112.819 141.413C112.364 141.009 111.951 140.596 111.573 140.174C111.418 140.01 111.237 139.881 111.048 139.769C110.171 139.261 109.011 139.235 108.228 139.356L106.749 139.588L105.064 135.99L106.543 135.757C107.497 135.611 108.753 135.103 108.727 134.078C108.692 133.605 108.684 133.123 108.727 132.649C108.727 132.107 108.383 131.702 107.901 131.435C107.48 131.194 106.964 131.039 106.517 130.97L105.03 130.738L106.672 127.139L108.159 127.372C109.114 127.518 110.635 127.449 111.495 126.554C111.865 126.132 112.278 125.71 112.725 125.306C113.627 124.419 112.965 123.618 112.26 123.214L111.169 122.585L115.7 119.951L116.791 120.579C117.496 120.984 118.872 121.363 120.394 120.837C121.09 120.579 121.804 120.338 122.535 120.123C124.074 119.615 124.194 118.737 123.927 118.177L123.523 117.316L129.722 116.352L130.118 117.213C130.238 117.471 130.496 117.773 130.917 118.014C131.399 118.289 132.087 118.496 133.032 118.487C133.849 118.47 134.683 118.47 135.509 118.487C137.28 118.496 138.148 117.764 138.397 117.213L138.793 116.352L145.009 117.316L144.613 118.177C144.407 118.633 144.45 119.305 145.327 119.813C145.516 119.925 145.748 120.028 146.032 120.123C146.763 120.338 147.485 120.579 148.182 120.837C149.712 121.363 151.088 120.984 151.784 120.579L152.867 119.951L157.424 122.585L156.341 123.214C155.644 123.618 154.991 124.419 155.902 125.306C156.349 125.71 156.771 126.123 157.149 126.545C157.304 126.709 157.484 126.838 157.673 126.959C158.55 127.467 159.72 127.492 160.502 127.363L161.981 127.131L163.666 130.729L162.179 130.962C161.224 131.108 159.969 131.616 160.003 132.641C160.038 133.114 160.046 133.596 160.003 134.078C160.003 134.621 160.347 135.025 160.829 135.301C161.25 135.542 161.766 135.688 162.213 135.757L163.692 135.99L162.05 139.588L160.562 139.356C159.608 139.209 158.086 139.278 157.226 140.174C156.857 140.596 156.444 141.009 155.997 141.413C155.094 142.3 155.756 143.101 156.461 143.505L156.47 143.514ZM126.068 138.151C130.659 140.802 138.088 140.802 142.645 138.151C147.21 135.499 147.184 131.194 142.593 128.534C138.002 125.882 130.582 125.874 126.017 128.534C121.46 131.186 121.477 135.499 126.068 138.151Z" stroke="white" stroke-width="0.96" stroke-linecap="round" stroke-linejoin="round"/>
<path d="M173.605 163.384C173.536 163.384 173.467 163.367 173.398 163.332L161.138 156.247C160.94 156.135 160.871 155.877 160.983 155.679C161.095 155.481 161.353 155.412 161.551 155.524L173.811 162.609C174.009 162.721 174.077 162.979 173.966 163.177C173.888 163.307 173.751 163.384 173.605 163.384Z" fill="white"/>
<path d="M176.528 161.697C176.459 161.697 176.39 161.679 176.322 161.645L164.061 154.559C163.864 154.448 163.795 154.189 163.907 153.991C164.018 153.793 164.276 153.724 164.474 153.836L176.734 160.922C176.932 161.034 177.001 161.292 176.889 161.49C176.812 161.619 176.674 161.697 176.528 161.697Z" fill="white"/>
<path d="M179.451 160.001C179.383 160.001 179.314 159.983 179.245 159.949L166.985 152.864C166.787 152.752 166.718 152.493 166.83 152.295C166.942 152.097 167.2 152.029 167.397 152.141L179.658 159.226C179.855 159.338 179.924 159.596 179.812 159.794C179.735 159.923 179.597 160.001 179.451 160.001Z" fill="white"/>
<path d="M150.374 117.299C150.305 117.299 150.236 117.282 150.168 117.247L128.931 104.971C128.734 104.859 128.665 104.6 128.777 104.402C128.888 104.204 129.146 104.136 129.344 104.247L150.58 116.524C150.778 116.636 150.847 116.894 150.735 117.092C150.658 117.222 150.52 117.299 150.374 117.299Z" fill="white"/>
<path d="M156.633 135.516C156.564 135.516 156.495 135.499 156.427 135.464L151.363 132.537C151.165 132.425 151.096 132.167 151.208 131.969C151.32 131.771 151.578 131.702 151.775 131.814L156.839 134.741C157.037 134.853 157.106 135.111 156.994 135.309C156.917 135.438 156.779 135.516 156.633 135.516Z" fill="white"/>
<path d="M106.913 142.429C106.844 142.429 106.775 142.412 106.706 142.378L85.47 130.101C85.2723 129.989 85.2035 129.731 85.3153 129.533C85.427 129.335 85.685 129.266 85.8827 129.378L107.119 141.655C107.317 141.766 107.385 142.025 107.274 142.223C107.196 142.352 107.059 142.429 106.913 142.429Z" fill="white"/>
<path d="M87.7569 131.349C87.6108 131.349 87.4732 131.272 87.3958 131.142C87.284 130.944 87.3528 130.695 87.5506 130.574L131.003 105.453C131.201 105.341 131.45 105.409 131.571 105.607C131.682 105.806 131.614 106.055 131.416 106.176L87.9633 131.297C87.8945 131.332 87.8257 131.349 87.7569 131.349Z" fill="white"/>
<path d="M118.072 134.319C117.857 134.319 117.668 134.147 117.659 133.923C117.651 133.691 117.823 133.501 118.055 133.493L151.552 131.762C151.775 131.745 151.973 131.926 151.981 132.15C151.99 132.382 151.818 132.572 151.586 132.58L118.089 134.311C118.089 134.311 118.072 134.311 118.064 134.311L118.072 134.319Z" fill="white"/>
<path d="M110.799 158.133C110.73 158.133 110.661 158.098 110.618 158.029C110.558 157.935 110.592 157.805 110.695 157.745L120.703 151.96C120.798 151.9 120.927 151.934 120.987 152.037C121.047 152.132 121.013 152.261 120.909 152.321L110.902 158.107C110.902 158.107 110.833 158.133 110.799 158.133Z" fill="white"/>
</g>
<path d="M79.6877 85.4849C63.0231 90.1316 64.2734 99.0331 69.7785 110.528C69.7785 110.528 69.9278 95.3754 79.6877 85.4849Z" fill="url(#paint1_linear_1668_25)"/>
<path d="M144.611 146.508L134.216 143.914L141.401 136.039L146.533 143.466L146.701 143.708C146.757 143.858 146.794 144.044 146.775 144.25C146.719 145.071 146.085 146.041 145.339 146.396C145.059 146.526 144.797 146.564 144.611 146.508Z" fill="url(#paint2_linear_1668_25)"/>
<path d="M146.7 143.69C146.756 143.839 146.794 144.026 146.775 144.231C146.719 145.052 146.085 146.023 145.338 146.377C145.058 146.508 144.816 146.545 144.61 146.489L149.5 147.739L146.7 143.69Z" fill="url(#paint3_linear_1668_25)"/>
<path d="M137.519 144.418L34.3213 75.8555L37.9043 71.918L141.121 140.48L137.519 144.418Z" fill="#EBD1DA"/>
<path d="M134.198 143.915L31 75.3525L34.3217 75.8564L137.519 144.418L134.198 143.915Z" fill="#E7C9D5"/>
<path d="M141.122 140.481L37.9053 71.9185L38.1852 67.4771L141.401 136.039L141.122 140.481Z" fill="#F2E1E9"/>
<path d="M31.2799 70.9107L34.8629 66.9731L38.1846 67.477L37.9047 71.9184L34.3217 75.856L31 75.3521L31.2799 70.9107Z" fill="#F3FACE"/>
<path d="M34.6955 69.9583C35.4233 69.6037 35.9645 69.9583 35.9271 70.7794C35.8711 71.6005 35.2367 72.5522 34.5089 72.9068C33.7811 73.2614 33.2399 72.9068 33.2772 72.0857C33.3332 71.2646 33.9677 70.3315 34.6955 69.9583Z" fill="#366CB2"/>
<path style="mix-blend-mode:multiply" d="M124.027 179.128H87.4692V185.847H124.027V179.128Z" fill="url(#paint4_linear_1668_25)"/>
<path style="mix-blend-mode:multiply" d="M106.952 169.443H70.394V176.161H106.952V169.443Z" fill="url(#paint5_linear_1668_25)"/>
<path d="M66.6432 174.09C66.6432 168.808 69.9836 168.659 69.9836 168.659C69.9836 168.659 71.7937 168.659 74.7422 167.446C77.6347 166.233 81.7403 166.7 79.4449 170.917C79.4262 170.973 79.3889 171.029 79.3703 171.066C79.221 171.29 78.997 171.514 78.6238 171.72L71.3085 176.012C70.1888 176.646 66.6618 175.172 66.6245 174.09H66.6432Z" fill="url(#paint6_linear_1668_25)"/>
<path d="M66.6616 173.622C66.7176 174.705 70.2073 176.142 71.327 175.526L78.6423 171.234C78.8848 171.084 79.2954 170.823 79.6686 170.487C79.594 170.637 79.538 170.767 79.4634 170.935C79.4447 170.991 79.4074 171.047 79.3887 171.084C79.2394 171.308 79.0155 171.532 78.6423 171.738L71.327 176.03C70.2819 176.627 67.1095 175.377 66.6989 174.313C66.6989 174.238 66.6616 174.164 66.6616 174.108C66.6616 173.94 66.6616 173.79 66.6616 173.641V173.622Z" fill="#0F50A3"/>
<path d="M68.0051 167.968C68.8636 167.968 71.9054 168.733 71.9054 168.733C71.9054 168.733 71.924 169.163 72.1853 169.517C72.2226 169.555 72.2413 169.592 72.2786 169.629C72.8758 170.04 73.4916 170.693 72.0733 171.589C70.9163 172.316 69.9646 171.85 69.5167 171.402C69.3301 171.066 69.0688 170.674 68.6956 170.469C68.3037 170.245 68.0798 170.152 67.9118 170.133C67.9118 170.114 67.9118 170.058 67.9118 170.058C67.9118 170.058 67.6879 167.95 68.0611 167.95L68.0051 167.968Z" fill="white"/>
<path d="M67.9491 116.351C71.2522 116.407 79.5192 116.556 82.8223 116.612C81.5906 126.54 79.1086 135.572 77.4664 145.183C75.6936 154.532 73.6968 161.101 71.9427 168.883C71.3082 170.339 68.3783 169.779 67.7812 168.398C67.3146 161.232 66.7921 152.498 68.9195 144.231C68.5649 135.33 67.7438 125.346 67.9491 116.351Z" fill="#1C59A9"/>
<path d="M83.2887 183.775C83.2887 178.494 86.6291 178.344 86.6291 178.344C86.6291 178.344 88.4392 178.344 91.3877 177.131C94.2803 175.918 98.3858 176.385 96.0904 180.602C96.0718 180.658 96.0344 180.714 96.0158 180.752C95.8665 180.975 95.6425 181.199 95.2693 181.405L87.954 185.697C86.8344 186.331 83.3073 184.857 83.27 183.775H83.2887Z" fill="url(#paint7_linear_1668_25)"/>
<path d="M83.3076 183.308C83.3636 184.391 86.8533 185.828 87.973 185.212L95.2882 180.938C95.5308 180.789 95.9414 180.509 96.3146 180.192C96.24 180.341 96.184 180.472 96.1093 180.64C96.0907 180.696 96.0534 180.752 96.0347 180.789C95.8854 181.013 95.6615 181.237 95.2882 181.442L87.973 185.734C86.9279 186.332 83.7555 185.081 83.3449 184.017C83.3263 183.943 83.3076 183.868 83.3076 183.794C83.3076 183.626 83.3076 183.476 83.3076 183.327V183.308Z" fill="#0F50A3"/>
<path d="M84.6517 177.653C85.5102 177.653 88.552 178.419 88.552 178.419C88.552 178.419 88.5706 178.848 88.8132 179.202C88.8506 179.24 88.8692 179.277 88.9065 179.314C89.5037 179.725 90.1195 180.397 88.7013 181.274C87.5443 182.002 86.5925 181.535 86.1446 181.087C85.958 180.751 85.6968 180.359 85.3236 180.154C84.9317 179.93 84.7077 179.837 84.5398 179.818C84.5398 179.799 84.5398 179.744 84.5398 179.744C84.5398 179.744 84.3158 177.635 84.6891 177.635L84.6517 177.653Z" fill="white"/>
<path d="M78.4183 139.976C77.5226 135.702 67.0909 135.18 67.7813 118.385C71.0471 117.899 87.5438 125.644 90.8095 125.159C91.2201 135.161 90.2497 144.473 90.1937 154.215C89.9698 163.732 89.074 170.543 88.6261 178.493C88.2342 180.023 85.2671 179.967 84.446 178.68C82.8224 171.682 80.863 163.153 81.6094 154.662C80.6391 149.96 79.482 144.959 78.4183 139.957V139.976Z" fill="url(#paint8_linear_1668_25)"/>
<path d="M72.5593 127.007C78.9229 132.046 88.2349 131.225 91.482 126.802C91.482 117.676 90.0078 112.955 93.1802 104.632C93.4041 99.7988 93.2922 97.9327 94.3559 95.2455C93.3668 93.4166 91.8739 92.1663 90.0824 89.9456C88.1603 87.5383 86.9473 85.3362 85.8276 84.907C76.5715 81.436 69.2189 97.7274 67.1289 116.034C67.0915 120.98 69.4242 124.525 72.5593 126.989V127.007Z" fill="url(#paint9_linear_1668_25)"/>
<path d="M80.3412 85.1493C82.6552 83.9737 82.9724 80.8572 83.1404 78.7671C82.9911 77.6288 83.0284 76.3971 83.3083 75.1468C84.3347 70.6681 88.0857 67.4397 91.5194 68.4847C98.4614 70.5748 96.3527 74.0085 95.3263 78.4872C94.3746 82.6487 91.8366 85.0747 88.5709 84.8321C88.4216 85.5226 88.3656 87.65 89.0934 88.6763C86.5368 89.7027 83.2337 88.5084 81.9834 87.6873C80.6584 86.8102 79.2028 86.0078 80.3225 85.1493H80.3412Z" fill="#C3BCEA"/>
<path d="M94.7106 66.7307C94.6359 66.1335 93.6095 65.5923 89.6906 66.4321C89.672 66.4321 88.7389 66.6374 88.6829 66.656C81.3863 68.5222 81.7782 76.6586 82.4687 78.9166C82.7113 79.719 82.8606 80.3535 82.618 81.4732C85.3239 81.7904 85.921 83.4326 87.8805 82.201C89.2801 81.3239 91.3328 80.3535 91.7247 79.8683C92.1166 79.3831 92.1166 79.0286 92.1913 78.5993C92.8071 74.8297 94.1694 77.405 93.9828 78.2634C94.7479 78.0208 94.9532 76.5093 95.1584 74.8111C101.634 71.4147 99.0027 67.925 94.7106 66.7307Z" fill="#1C59A9"/>
<path d="M110.852 119.524C111.878 119.711 113.875 121.577 115.835 120.644C117.794 119.711 117.85 120.55 117.943 120.457C118.186 119.711 119.119 116.296 112.867 116.65C111.748 117.77 110.871 119.543 110.871 119.543L110.852 119.524Z" fill="#F8EFF2"/>
<path d="M94.3371 95.245C96.166 98.772 99.0958 107.767 101.298 109.988C102.697 111.387 113.092 116.108 113.092 116.108C112.42 117.489 111.991 118.964 111.132 119.822C105.963 119.822 97.267 115.455 95.8487 114.037C93.9266 112.115 92.2657 110.118 90.6422 107.897C87.5817 103.755 87.2831 89.9825 94.3371 95.245Z" fill="url(#paint10_linear_1668_25)"/>
<defs>
<linearGradient id="paint0_linear_1668_25" x1="151.681" y1="166.716" x2="231.992" y2="166.716" gradientUnits="userSpaceOnUse">
<stop stop-color="#E7D7DD"/>
<stop offset="0.42" stop-color="#E8D9DF"/>
<stop offset="0.66" stop-color="#EDE1E6"/>
<stop offset="0.86" stop-color="#F5EFF1"/>
<stop offset="1" stop-color="white"/>
</linearGradient>
<linearGradient id="paint1_linear_1668_25" x1="67.0539" y1="93.9012" x2="74.052" y2="97.6521" gradientUnits="userSpaceOnUse">
<stop stop-color="#EBF1F8"/>
<stop offset="0.05" stop-color="#E9F0F7"/>
<stop offset="1" stop-color="#D4DFEE"/>
</linearGradient>
<linearGradient id="paint2_linear_1668_25" x1="138.222" y1="147.481" x2="145.163" y2="139.598" gradientUnits="userSpaceOnUse">
<stop stop-color="#C0D1E7"/>
<stop offset="1" stop-color="#F6FCE0"/>
</linearGradient>
<linearGradient id="paint3_linear_1668_25" x1="146.598" y1="148.198" x2="148.668" y2="145.4" gradientUnits="userSpaceOnUse">
<stop stop-color="#366CB2"/>
<stop offset="0.39" stop-color="#4677B7"/>
<stop offset="1" stop-color="#5C88C0"/>
</linearGradient>
<linearGradient id="paint4_linear_1668_25" x1="87.4692" y1="182.506" x2="124.027" y2="182.506" gradientUnits="userSpaceOnUse">
<stop stop-color="#C7D6EA"/>
<stop offset="0.07" stop-color="#CDDAEC"/>
<stop offset="0.39" stop-color="#E8EEF6"/>
<stop offset="0.68" stop-color="#F9FAFC"/>
<stop offset="0.9" stop-color="white"/>
</linearGradient>
<linearGradient id="paint5_linear_1668_25" x1="70.394" y1="172.802" x2="106.952" y2="172.802" gradientUnits="userSpaceOnUse">
<stop stop-color="#C7D6EA"/>
<stop offset="0.07" stop-color="#CDDAEC"/>
<stop offset="0.39" stop-color="#E8EEF6"/>
<stop offset="0.68" stop-color="#F9FAFC"/>
<stop offset="0.9" stop-color="white"/>
</linearGradient>
<linearGradient id="paint6_linear_1668_25" x1="80.1167" y1="171.514" x2="66.6432" y2="171.514" gradientUnits="userSpaceOnUse">
<stop stop-color="#4779B8"/>
<stop offset="0.42" stop-color="#376DB2"/>
<stop offset="1" stop-color="#1C59A9"/>
</linearGradient>
<linearGradient id="paint7_linear_1668_25" x1="96.7809" y1="181.199" x2="83.3073" y2="181.199" gradientUnits="userSpaceOnUse">
<stop stop-color="#4779B8"/>
<stop offset="0.42" stop-color="#376DB2"/>
<stop offset="1" stop-color="#1C59A9"/>
</linearGradient>
<linearGradient id="paint8_linear_1668_25" x1="90.9215" y1="149.008" x2="67.7627" y2="149.008" gradientUnits="userSpaceOnUse">
<stop stop-color="#1C59A9"/>
<stop offset="0.56" stop-color="#366CB2"/>
<stop offset="1" stop-color="#4779B8"/>
</linearGradient>
<linearGradient id="paint9_linear_1668_25" x1="94.0447" y1="109.619" x2="68.5197" y2="105.558" gradientUnits="userSpaceOnUse">
<stop stop-color="#D4DFEE"/>
<stop offset="1" stop-color="white"/>
</linearGradient>
<linearGradient id="paint10_linear_1668_25" x1="88.5894" y1="106.946" x2="113.092" y2="106.946" gradientUnits="userSpaceOnUse">
<stop stop-color="#F6FCE0"/>
<stop offset="1" stop-color="#D4DFEE"/>
</linearGradient>
<clipPath id="clip0_1668_25">
<rect width="190" height="109.802" fill="white" transform="translate(42 83)"/>
</clipPath>
</defs>
</svg>
