<svg width="547" height="547" viewBox="0 0 547 547" fill="none" xmlns="http://www.w3.org/2000/svg">
<circle opacity="0.1" cx="273.04" cy="273.04" r="273.04" fill="#F4F9DD"/>
<circle opacity="0.5" cx="273.04" cy="273.04" r="201.261" fill="#F4F9DD"/>
<circle cx="273.04" cy="273.04" r="133.001" fill="#F4F9DD"/>
<path d="M335.591 345.251C335.591 347.558 333.953 348.515 331.948 347.348L209.643 276.734C207.638 275.58 206 272.736 206 270.43V178.177C206 175.87 207.638 174.914 209.643 176.08L331.948 246.695C333.953 247.848 335.591 250.692 335.591 252.999V345.251Z" fill="#70AA9A"/>
<path d="M334.7 245.109L212.383 174.494C211.374 173.904 210.443 173.865 209.788 174.258L207.18 175.765C207.835 175.451 208.687 175.529 209.63 176.067L331.948 246.694C333.953 247.848 335.592 250.692 335.592 252.998V345.251C335.592 346.404 335.185 347.204 334.53 347.597L337.138 346.077C337.872 345.723 338.331 344.884 338.331 343.665V251.413C338.331 249.106 336.693 246.262 334.687 245.109H334.7Z" fill="url(#paint0_linear_1769_1443)"/>
<path d="M209.644 180.273V271.084L331.948 341.699V250.901L209.644 180.273Z" fill="white"/>
<path d="M223.129 202.2L220.495 200.68V197.875L223.129 199.382V202.2Z" fill="#6652C9"/>
<path d="M223.129 219.068L220.495 217.548V203.577L223.129 205.097V219.068Z" fill="#E6F1ED"/>
<path d="M223.129 224.612L220.495 223.091V220.287L223.129 221.794V224.612Z" fill="#6652C9"/>
<path d="M223.129 232.96L220.495 231.439V225.83L223.129 227.337V232.96Z" fill="#E6F1ED"/>
<path d="M223.129 249.67L220.495 248.15V234.179L223.129 235.699V249.67Z" fill="#E6F1ED"/>
<path d="M223.129 269.106L220.495 267.599V250.889L223.129 252.409V269.106Z" fill="#E6F1ED"/>
<path d="M229.485 208.674L226.864 207.154V201.544L229.485 203.052V208.674Z" fill="#E6F1ED"/>
<path d="M229.485 215.752L226.864 214.232V210.051L229.485 211.571V215.752Z" fill="#E6F1ED"/>
<path d="M229.485 221.295L226.864 219.775V216.97L229.485 218.491V221.295Z" fill="#6652C9"/>
<path d="M229.485 229.644L226.864 228.137V222.514L229.485 224.034V229.644Z" fill="#E6F1ED"/>
<path d="M229.485 253.339L226.864 251.819V230.863L229.485 232.383V253.339Z" fill="#E6F1ED"/>
<path d="M229.485 264.427L226.864 262.907V254.559L229.485 256.079V264.427Z" fill="#E6F1ED"/>
<path d="M229.485 272.776L226.864 271.268V265.646L229.485 267.166V272.776Z" fill="#6652C9"/>
<path d="M235.842 209.539L233.221 208.019V205.214L235.842 206.735V209.539Z" fill="#E6F1ED"/>
<path d="M235.842 215.24L233.221 213.733V210.916L235.842 212.436V215.24Z" fill="#6652C9"/>
<path d="M235.842 231.872L233.221 230.364V216.459L235.842 217.979V231.872Z" fill="#E6F1ED"/>
<path d="M235.842 240.233L233.221 238.713V233.09L235.842 234.611V240.233Z" fill="#E6F1ED"/>
<path d="M235.842 245.62L233.221 244.113V241.452L235.842 242.959V245.62Z" fill="#6652C9"/>
<path d="M235.842 265.069L233.221 263.549V246.852L235.842 248.359V265.069Z" fill="#E6F1ED"/>
<path d="M235.842 276.458L233.221 274.938V266.288L235.842 267.808V276.458Z" fill="#E6F1ED"/>
<path d="M242.198 213.209L239.577 211.688V208.884L242.198 210.404V213.209Z" fill="#6652C9"/>
<path d="M242.198 230.076L239.577 228.556V214.585L242.198 216.105V230.076Z" fill="#E6F1ED"/>
<path d="M242.198 235.62L239.577 234.1V231.295L242.198 232.815V235.62Z" fill="#6652C9"/>
<path d="M242.198 243.982L239.577 242.461V236.839L242.198 238.359V243.982Z" fill="#E6F1ED"/>
<path d="M242.198 252.028L239.577 250.521V245.2L242.198 246.707V252.028Z" fill="#6652C9"/>
<path d="M242.198 280.127L239.577 278.607V253.247L242.198 254.767V280.127Z" fill="#E6F1ED"/>
<path d="M248.503 217.114L245.882 215.594V212.789L248.503 214.309V217.114Z" fill="#6652C9"/>
<path d="M248.503 233.981L245.882 232.461V218.49L248.503 220.011V233.981Z" fill="#E6F1ED"/>
<path d="M248.503 239.525L245.882 238.005V235.2L248.503 236.72V239.525Z" fill="#6652C9"/>
<path d="M248.503 247.874L245.882 246.367V240.744L248.503 242.264V247.874Z" fill="#E6F1ED"/>
<path d="M248.503 264.584L245.882 263.064V249.093L248.503 250.613V264.584Z" fill="#E6F1ED"/>
<path d="M248.503 284.033L245.882 282.513V265.803L248.503 267.323V284.033Z" fill="#E6F1ED"/>
<path d="M254.872 223.589L252.237 222.082V216.459L254.872 217.98V223.589Z" fill="#E6F1ED"/>
<path d="M254.872 230.666L252.237 229.146V224.979L254.872 226.486V230.666Z" fill="#E6F1ED"/>
<path d="M254.872 236.21L252.237 234.69V231.885L254.872 233.406V236.21Z" fill="#6652C9"/>
<path d="M254.872 244.559L252.237 243.052V237.429L254.872 238.949V244.559Z" fill="#E6F1ED"/>
<path d="M254.872 268.254L252.237 266.747V245.791L254.872 247.298V268.254Z" fill="#E6F1ED"/>
<path d="M254.872 279.342L252.237 277.835V269.474L254.872 270.994V279.342Z" fill="#E6F1ED"/>
<path d="M254.872 287.704L252.237 286.183V280.561L254.872 282.081V287.704Z" fill="#6652C9"/>
<path d="M261.229 224.454L258.607 222.934V220.129L261.229 221.649V224.454Z" fill="#E6F1ED"/>
<path d="M261.229 230.168L258.607 228.648V225.843L261.229 227.35V230.168Z" fill="#6652C9"/>
<path d="M261.229 246.799L258.607 245.279V231.387L261.229 232.894V246.799Z" fill="#E6F1ED"/>
<path d="M261.229 255.148L258.607 253.627V248.018L261.229 249.525V255.148Z" fill="#E6F1ED"/>
<path d="M261.229 260.547L258.607 259.027V256.367L261.229 257.887V260.547Z" fill="#6652C9"/>
<path d="M261.229 279.984L258.607 278.477V261.767L261.229 263.274V279.984Z" fill="#E6F1ED"/>
<path d="M261.229 291.373L258.607 289.853V281.203L261.229 282.723V291.373Z" fill="#E6F1ED"/>
<path d="M267.585 228.123L264.964 226.616V223.798L267.585 225.318V228.123Z" fill="#6652C9"/>
<path d="M267.585 244.99L264.964 243.483V229.512L267.585 231.019V244.99Z" fill="#E6F1ED"/>
<path d="M267.585 250.534L264.964 249.027V246.209L267.585 247.73V250.534Z" fill="#6652C9"/>
<path d="M267.585 258.896L264.964 257.375V251.753L267.585 253.273V258.896Z" fill="#E6F1ED"/>
<path d="M267.585 266.956L264.964 265.435V260.114L267.585 261.621V266.956Z" fill="#6652C9"/>
<path d="M267.585 295.041L264.964 293.521V268.174L267.585 269.682V295.041Z" fill="#E6F1ED"/>
<path d="M315.369 319.786L317.99 321.306V324.111L315.369 322.591V319.786Z" fill="#6652C9"/>
<path d="M315.369 302.918L317.99 304.439V318.41L315.369 316.889V302.918Z" fill="#E6F1ED"/>
<path d="M315.369 297.375L317.99 298.895V301.7L315.369 300.18V297.375Z" fill="#6652C9"/>
<path d="M315.369 289.026L317.99 290.534V296.156L315.369 294.636V289.026Z" fill="#E6F1ED"/>
<path d="M315.369 272.316L317.99 273.824V287.795L315.369 286.287V272.316Z" fill="#E6F1ED"/>
<path d="M315.369 252.867L317.99 254.387V271.098L315.369 269.577V252.867Z" fill="#E6F1ED"/>
<path d="M308.999 313.312L311.633 314.819V320.442L308.999 318.921V313.312Z" fill="#E6F1ED"/>
<path d="M308.999 306.235L311.633 307.742V311.923L308.999 310.416V306.235Z" fill="#E6F1ED"/>
<path d="M308.999 300.691L311.633 302.198V305.016L308.999 303.496V300.691Z" fill="#6652C9"/>
<path d="M308.999 292.33L311.633 293.85V299.472L308.999 297.952V292.33Z" fill="#E6F1ED"/>
<path d="M308.999 268.647L311.633 270.154V291.111L308.999 289.603V268.647Z" fill="#E6F1ED"/>
<path d="M308.999 257.559L311.633 259.066V267.428L308.999 265.908V257.559Z" fill="#E6F1ED"/>
<path d="M308.999 249.198L311.633 250.718V256.327L308.999 254.82V249.198Z" fill="#6652C9"/>
<path d="M302.644 312.447L305.265 313.954V316.772L302.644 315.251V312.447Z" fill="#E6F1ED"/>
<path d="M302.644 306.733L305.265 308.253V311.058L302.644 309.551V306.733Z" fill="#6652C9"/>
<path d="M302.644 290.101L305.265 291.621V305.513L302.644 304.006V290.101Z" fill="#E6F1ED"/>
<path d="M302.644 281.753L305.265 283.273V288.883L302.644 287.375V281.753Z" fill="#E6F1ED"/>
<path d="M302.644 276.353L305.265 277.873V280.534L302.644 279.014V276.353Z" fill="#6652C9"/>
<path d="M302.644 256.917L305.265 258.424V275.134L302.644 273.613V256.917Z" fill="#E6F1ED"/>
<path d="M302.644 245.528L305.265 247.048V255.698L302.644 254.178V245.528Z" fill="#E6F1ED"/>
<path d="M296.287 308.777L298.908 310.285V313.102L296.287 311.582V308.777Z" fill="#6652C9"/>
<path d="M296.287 291.91L298.908 293.417V307.388L296.287 305.881V291.91Z" fill="#E6F1ED"/>
<path d="M296.287 286.353L298.908 287.873V290.678L296.287 289.171V286.353Z" fill="#6652C9"/>
<path d="M296.287 278.004L298.908 279.525V285.134L296.287 283.627V278.004Z" fill="#E6F1ED"/>
<path d="M296.287 269.944L298.908 271.465V276.786L296.287 275.265V269.944Z" fill="#6652C9"/>
<path d="M296.287 241.858L298.908 243.379V268.726L296.287 267.218V241.858Z" fill="#E6F1ED"/>
<path d="M289.983 304.872L292.605 306.379V309.197L289.983 307.676V304.872Z" fill="#6652C9"/>
<path d="M289.983 288.004L292.605 289.512V303.483L289.983 301.975V288.004Z" fill="#E6F1ED"/>
<path d="M289.983 282.46L292.605 283.968V286.785L289.983 285.265V282.46Z" fill="#6652C9"/>
<path d="M289.983 274.099L292.605 275.619V281.242L289.983 279.722V274.099Z" fill="#E6F1ED"/>
<path d="M289.983 257.389L292.605 258.909V272.88L289.983 271.373V257.389Z" fill="#E6F1ED"/>
<path d="M289.983 237.953L292.605 239.473V256.17L289.983 254.663V237.953Z" fill="#E6F1ED"/>
<path d="M283.626 298.384L286.247 299.905V305.527L283.626 304.007V298.384Z" fill="#E6F1ED"/>
<path d="M283.626 291.32L286.247 292.827V297.008L283.626 295.488V291.32Z" fill="#E6F1ED"/>
<path d="M283.626 285.776L286.247 287.283V290.101L283.626 288.581V285.776Z" fill="#6652C9"/>
<path d="M283.626 277.415L286.247 278.935V284.544L283.626 283.037V277.415Z" fill="#E6F1ED"/>
<path d="M283.626 253.719L286.247 255.239V276.195L283.626 274.675V253.719Z" fill="#E6F1ED"/>
<path d="M283.626 242.631L286.247 244.152V252.5L283.626 250.993V242.631Z" fill="#E6F1ED"/>
<path d="M283.626 234.283L286.247 235.803V241.412L283.626 239.905V234.283Z" fill="#6652C9"/>
<path d="M277.257 297.519L279.891 299.039V301.844L277.257 300.337V297.519Z" fill="#E6F1ED"/>
<path d="M277.257 291.818L279.891 293.339V296.143L277.257 294.623V291.818Z" fill="#6652C9"/>
<path d="M277.257 275.187L279.891 276.707V290.599L277.257 289.079V275.187Z" fill="#E6F1ED"/>
<path d="M277.257 266.838L279.891 268.346V273.968L277.257 272.448V266.838Z" fill="#E6F1ED"/>
<path d="M277.257 261.438L279.891 262.959V265.619L277.257 264.099V261.438Z" fill="#6652C9"/>
<path d="M277.257 241.99L279.891 243.51V260.22L277.257 258.7V241.99Z" fill="#E6F1ED"/>
<path d="M277.257 230.613L279.891 232.12V240.77L277.257 239.263V230.613Z" fill="#E6F1ED"/>
<path d="M270.9 293.85L273.535 295.37V298.175L270.9 296.667V293.85Z" fill="#6652C9"/>
<path d="M270.9 276.982L273.535 278.503V292.474L270.9 290.953V276.982Z" fill="#E6F1ED"/>
<path d="M270.9 271.439L273.535 272.959V275.764L270.9 274.257V271.439Z" fill="#6652C9"/>
<path d="M270.9 263.09L273.535 264.598V270.22L270.9 268.7V263.09Z" fill="#E6F1ED"/>
<path d="M270.9 255.03L273.535 256.551V261.872L270.9 260.351V255.03Z" fill="#6652C9"/>
<path d="M270.9 226.944L273.535 228.451V253.811L270.9 252.291V226.944Z" fill="#E6F1ED"/>
<defs>
<linearGradient id="paint0_linear_1769_1443" x1="240.364" y1="156.604" x2="346.601" y2="340.625" gradientUnits="userSpaceOnUse">
<stop offset="0.58" stop-color="#A3C8BD"/>
<stop offset="0.61" stop-color="#4F9683"/>
</linearGradient>
</defs>
</svg>
