<svg width="397" height="347" viewBox="0 0 397 347" fill="none" xmlns="http://www.w3.org/2000/svg">
<path d="M139.518 72.5293C139.518 64.8298 144.962 55.3703 151.644 51.5206L232.407 4.91102C239.061 1.06127 244.534 4.22357 244.534 11.9231V107.892C244.534 115.592 239.089 125.051 232.407 128.901L151.617 175.538C144.935 179.388 139.49 176.253 139.49 168.553V72.5293H139.518Z" fill="#F1F1F6"/>
<path d="M235.571 0.951321C233.343 -0.451091 230.236 -0.368596 226.771 1.63878L145.981 48.2758C139.299 52.1256 133.854 61.585 133.854 69.2845V165.281C133.854 169.323 135.367 172.073 137.732 173.255L142.764 176.17C140.729 174.823 139.492 172.211 139.492 168.553V72.5293C139.492 64.8298 144.936 55.3704 151.618 51.5206L232.408 4.91107C235.708 3.01369 238.705 2.8212 240.878 4.03113L235.543 0.951321H235.571Z" fill="url(#paint0_linear_1356_32799)"/>
<path style="mix-blend-mode:multiply" d="M220.03 258.075C317.533 209.462 386.842 150.529 374.834 126.445C362.826 102.361 274.05 122.247 176.546 170.86C79.0423 219.474 9.73415 278.407 21.7418 302.49C33.7495 326.574 122.526 306.689 220.03 258.075Z" fill="url(#paint1_radial_1356_32799)"/>
<path d="M194.325 48.5793V90.2116L158.274 111.028C158.274 88.0393 174.416 60.0735 194.325 48.5518V48.5793Z" fill="url(#paint2_linear_1356_32799)"/>
<path d="M158.274 111.027L194.325 90.2109L162.399 127.994C159.759 123.731 158.274 118.012 158.274 111.027Z" fill="url(#paint3_linear_1356_32799)"/>
<path d="M194.326 90.2111V48.5787C214.235 37.0845 230.376 46.4064 230.376 69.3949C230.376 92.3835 214.235 120.349 194.326 131.871C180.467 139.873 168.423 137.783 162.4 128.021L194.326 90.2386V90.2111Z" fill="url(#paint4_linear_1356_32799)"/>
<defs>
<linearGradient id="paint0_linear_1356_32799" x1="115.046" y1="160.166" x2="214.122" y2="-11.4229" gradientUnits="userSpaceOnUse">
<stop offset="0.41" stop-color="#BBC0E6"/>
<stop offset="0.58" stop-color="#CED3F8"/>
</linearGradient>
<radialGradient id="paint1_radial_1356_32799" cx="0" cy="0" r="1" gradientUnits="userSpaceOnUse" gradientTransform="translate(182.063 214) rotate(-30.3355) scale(156.416 40.6682)">
<stop stop-color="#C4D4EA" stop-opacity="0.4"/>
<stop offset="0.194231" stop-color="#D1DEEE" stop-opacity="0.31"/>
<stop offset="0.35" stop-color="#E5ECF5" stop-opacity="0.17"/>
<stop offset="0.56" stop-color="#F3F6FA" stop-opacity="0.08"/>
<stop offset="0.76" stop-color="#FCFCFD" stop-opacity="0.02"/>
<stop offset="0.94" stop-color="white" stop-opacity="0"/>
</radialGradient>
<linearGradient id="paint2_linear_1356_32799" x1="158.274" y1="79.8173" x2="194.325" y2="79.8173" gradientUnits="userSpaceOnUse">
<stop stop-color="#E7C0CF"/>
<stop offset="0.04" stop-color="#E7C0CF"/>
<stop offset="1" stop-color="#F0D6DF"/>
</linearGradient>
<linearGradient id="paint3_linear_1356_32799" x1="158.274" y1="109.102" x2="194.325" y2="109.102" gradientUnits="userSpaceOnUse">
<stop stop-color="#4329C9"/>
<stop offset="1" stop-color="#4329C9"/>
</linearGradient>
<linearGradient id="paint4_linear_1356_32799" x1="162.4" y1="90.2111" x2="230.404" y2="90.2111" gradientUnits="userSpaceOnUse">
<stop stop-color="#5989C9"/>
<stop offset="0.26" stop-color="#5184C6"/>
<stop offset="0.64" stop-color="#3E76C0"/>
<stop offset="1" stop-color="#2666B8"/>
</linearGradient>
</defs>
</svg>
