<svg width="547" height="547" viewBox="0 0 547 547" fill="none" xmlns="http://www.w3.org/2000/svg">
<circle opacity="0.1" cx="273.04" cy="273.04" r="273.04" fill="#F4F9DD"/>
<circle opacity="0.5" cx="273.04" cy="273.04" r="201.261" fill="#F4F9DD"/>
<circle cx="273.04" cy="273.04" r="133.001" fill="#F4F9DD"/>
<path d="M271.979 203L202 243.406L271.979 283.812L341.958 243.406L271.979 203ZM271.979 272.511L221.573 243.406L271.979 214.301L322.385 243.406L271.979 272.511Z" fill="#D0DCEC"/>
<path d="M271.979 283.811V364.623L341.958 324.217V243.405L271.979 283.811ZM332.182 318.567L281.776 347.672V289.462L332.182 260.356V318.567Z" fill="#CFE2DD"/>
<path d="M202 243.405V324.217L271.979 364.623V283.811L202 243.405ZM262.203 347.672L211.797 318.567V260.356L262.203 289.462V347.672Z" fill="#DDEBE7"/>
<path d="M226.755 246.393L271.978 220.276V214.3L221.572 243.406L226.755 246.393Z" fill="#BCD7D0"/>
<path d="M216.958 263.345V315.56L211.796 318.568V260.357L216.958 263.345Z" fill="#BCD7D0"/>
<path d="M211.796 318.568L262.202 347.653V341.677L216.958 315.56L211.796 318.568Z" fill="#D0DCEC"/>
<path d="M216.959 263.344V315.559L262.202 341.677V289.462L216.959 263.344Z" fill="#92BEB2"/>
<path d="M317.203 246.393L271.979 220.276V214.3L322.385 243.406L317.203 246.393Z" fill="#DDEBE7"/>
<path d="M326.999 263.345V315.56L332.182 318.568V260.357L326.999 263.345Z" fill="#DDEBE7"/>
<path d="M332.181 318.568L281.775 347.653V341.677L326.998 315.56L332.181 318.568Z" fill="#D0DCEC"/>
<path d="M326.998 263.344V315.559L281.775 341.677V289.462L326.998 263.344Z" fill="url(#paint0_linear_1769_1444)"/>
<path d="M226.756 246.393L271.979 220.275L317.202 246.393L271.979 272.511L226.756 246.393Z" fill="url(#paint1_linear_1769_1444)"/>
<g style="mix-blend-mode:multiply">
<path d="M226.756 246.393L271.979 220.275L277.162 223.283L231.939 249.381L226.756 246.393Z" fill="#E9F2EE"/>
</g>
<g style="mix-blend-mode:multiply">
<path d="M277.162 223.284L271.979 214.3V220.276L277.162 223.284Z" fill="#E9F2EE"/>
</g>
<path style="mix-blend-mode:multiply" d="M252.04 244.666L257.345 247.735C257.345 247.735 257.183 247.857 257.122 247.918L254.683 249.239C253.727 249.707 253.788 250.398 255.089 251.15L264.459 256.556C266.939 257.999 272.995 259.158 277.955 259.158C280.353 259.158 282.06 258.894 282.914 258.447L282.955 258.426C282.975 258.426 282.995 258.406 283.016 258.386L285.739 256.841C286.694 256.373 286.654 255.682 285.353 254.93L275.983 249.524C275.617 249.3 275.15 249.097 274.621 248.894C275.556 247.573 275.109 245.967 273.239 244.89L263.87 239.483C262.264 238.548 260.028 238.244 257.955 238.508C255.902 238.244 253.646 238.569 252.04 239.483C249.561 240.906 249.561 243.243 252.04 244.687V244.666ZM264.703 251.089C265.577 251.191 266.471 251.17 267.325 251.069C267.914 251.15 268.504 251.17 269.113 251.15L278.117 256.353C275.516 256.251 272.589 255.642 271.329 254.93L264.703 251.109V251.089ZM256.857 240.622C257.183 240.439 257.548 240.296 257.955 240.195C258.361 240.296 258.727 240.439 259.053 240.622L268.422 246.028C269.134 246.435 269.479 246.983 269.459 247.532C267.955 247.308 266.146 247.105 264.886 246.983C264.662 246.963 264.479 246.963 264.317 246.963C263.788 246.943 263.26 246.922 262.752 246.902L256.878 243.508C255.496 242.715 255.496 241.414 256.878 240.622H256.857Z" fill="url(#paint2_linear_1769_1444)"/>
<path d="M265.027 245.336L255.658 239.93C253.178 238.507 253.178 236.17 255.658 234.727C258.137 233.284 262.182 233.284 264.662 234.727L274.031 240.133C276.511 241.556 276.511 243.893 274.031 245.336C271.552 246.78 267.507 246.78 265.027 245.336ZM262.67 235.885C261.288 235.093 259.032 235.093 257.649 235.885C256.267 236.678 256.267 237.979 257.649 238.772L267.019 244.178C268.401 244.971 270.657 244.971 272.04 244.178C273.422 243.385 273.422 242.084 272.04 241.292L262.67 235.885Z" fill="#D0DCEC"/>
<path d="M272.04 241.292L262.67 235.886C261.288 235.093 259.032 235.093 257.65 235.886C256.43 236.597 256.288 237.695 257.223 238.488C257.345 238.386 257.487 238.284 257.65 238.183C259.032 237.39 261.288 237.39 262.67 238.183L272.04 243.589C272.202 243.691 272.345 243.772 272.467 243.894C273.402 243.101 273.259 242.004 272.04 241.292Z" fill="url(#paint3_linear_1769_1444)"/>
<path d="M274.032 245.337C271.552 246.78 267.507 246.78 265.028 245.337L255.658 239.93C254.418 239.219 253.808 238.284 253.788 237.349V239.565C253.747 240.54 254.377 241.495 255.638 242.247L265.007 247.654C267.487 249.077 271.532 249.077 274.011 247.654C275.271 246.922 275.902 245.947 275.861 244.991V242.756C275.861 243.691 275.231 244.646 273.991 245.357L274.032 245.337Z" fill="url(#paint4_linear_1769_1444)"/>
<path d="M284.438 244.991L275.068 239.585C273.808 238.853 272.67 238.812 271.836 239.3L270.027 240.357C270.82 239.971 271.897 240.052 273.076 240.743L282.446 246.15C284.926 247.573 286.938 251.089 286.938 253.955C286.938 255.357 286.45 256.333 285.678 256.82L287.568 255.723C288.401 255.255 288.93 254.239 288.93 252.796C288.93 249.93 286.917 246.434 284.438 244.991Z" fill="url(#paint5_linear_1769_1444)"/>
<path d="M272.568 243.324C272.568 243.141 272.568 242.979 272.609 242.816C271.45 242.41 270.576 243.06 270.576 244.483C270.576 244.544 270.576 244.605 270.576 244.686C271.105 244.584 271.613 244.422 272.04 244.198C272.263 244.076 272.446 243.934 272.588 243.771C272.588 243.629 272.568 243.487 272.568 243.345V243.324ZM284.438 253.08L275.068 247.674C274.885 247.572 274.702 247.45 274.54 247.308C274.377 247.43 274.214 247.532 274.031 247.633C273.544 247.918 272.975 248.141 272.385 248.324C272.609 248.527 272.832 248.69 273.076 248.832L276.084 250.56L282.446 254.239C283.665 254.95 284.682 254.523 284.905 253.304C284.763 253.243 284.6 253.182 284.438 253.08Z" fill="#7B7B9E"/>
<path d="M282.446 246.15L273.076 240.744C270.596 239.321 268.584 240.479 268.584 243.345C268.584 243.792 268.645 244.26 268.726 244.727C269.336 244.809 269.986 244.788 270.576 244.687C270.576 244.626 270.576 244.565 270.576 244.483C270.576 242.878 271.694 242.248 273.076 243.04L282.446 248.447C283.828 249.239 284.946 251.191 284.946 252.796C284.946 254.402 283.828 255.032 282.446 254.239L273.076 248.833C272.832 248.691 272.608 248.528 272.385 248.325C271.775 248.508 271.125 248.609 270.474 248.67C271.206 249.707 272.1 250.581 273.076 251.13L282.446 256.536C284.925 257.979 286.937 256.8 286.937 253.935C286.937 251.069 284.925 247.573 282.446 246.13V246.15Z" fill="#262660"/>
<defs>
<linearGradient id="paint0_linear_1769_1444" x1="325.312" y1="313.872" x2="279.662" y2="289.096" gradientUnits="userSpaceOnUse">
<stop stop-color="#70AA9A"/>
<stop offset="1" stop-color="#81B4A6"/>
</linearGradient>
<linearGradient id="paint1_linear_1769_1444" x1="271.979" y1="272.511" x2="271.979" y2="220.275" gradientUnits="userSpaceOnUse">
<stop stop-color="#81B4A6"/>
<stop offset="1" stop-color="#A3C8BD"/>
</linearGradient>
<linearGradient id="paint2_linear_1769_1444" x1="286.39" y1="248.772" x2="250.171" y2="248.772" gradientUnits="userSpaceOnUse">
<stop stop-color="#DDEBE7"/>
<stop offset="0.08" stop-color="#E0EDE9"/>
<stop offset="0.64" stop-color="#F6FAF9"/>
<stop offset="1" stop-color="white"/>
</linearGradient>
<linearGradient id="paint3_linear_1769_1444" x1="256.633" y1="239.585" x2="273.076" y2="239.585" gradientUnits="userSpaceOnUse">
<stop stop-color="#CFE2DD"/>
<stop offset="1" stop-color="#DDEBE7"/>
</linearGradient>
<linearGradient id="paint4_linear_1769_1444" x1="253.808" y1="243.02" x2="275.902" y2="243.02" gradientUnits="userSpaceOnUse">
<stop stop-color="#DDEBE7"/>
<stop offset="0.77" stop-color="#CFE2DD"/>
</linearGradient>
<linearGradient id="paint5_linear_1769_1444" x1="274.905" y1="237.532" x2="285.942" y2="256.678" gradientUnits="userSpaceOnUse">
<stop offset="0.49" stop-color="#9B9BB6"/>
<stop offset="1" stop-color="#4B4B7B"/>
</linearGradient>
</defs>
</svg>
