<svg width="397" height="347" viewBox="0 0 397 347" fill="none" xmlns="http://www.w3.org/2000/svg">
<path d="M139.519 72.5298C139.519 64.8302 144.963 55.3708 151.645 51.5211L232.408 4.91151C239.062 1.06175 244.535 4.22405 244.535 11.9236V107.893C244.535 115.592 239.09 125.051 232.408 128.901L151.618 175.538C144.936 179.388 139.491 176.253 139.491 168.554V72.5298H139.519Z" fill="#F1F1F6"/>
<path d="M235.572 0.951321C233.344 -0.451091 230.237 -0.368596 226.772 1.63878L145.982 48.2758C139.3 52.1256 133.855 61.585 133.855 69.2845V165.281C133.855 169.323 135.368 172.073 137.733 173.255L142.765 176.17C140.73 174.823 139.493 172.211 139.493 168.553V72.5293C139.493 64.8298 144.937 55.3704 151.619 51.5206L232.409 4.91107C235.709 3.01369 238.706 2.8212 240.879 4.03113L235.544 0.951321H235.572Z" fill="url(#paint0_linear_1356_32753)"/>
<path style="mix-blend-mode:multiply" d="M220.03 258.075C317.533 209.462 386.842 150.529 374.834 126.445C362.826 102.361 274.05 122.247 176.546 170.86C79.0423 219.474 9.73415 278.407 21.7418 302.49C33.7495 326.574 122.526 306.689 220.03 258.075Z" fill="url(#paint1_radial_1356_32753)"/>
<path d="M155.224 86.3063C154.757 86.3063 154.289 86.0588 154.042 85.6188C153.657 84.9589 153.877 84.1339 154.537 83.749L228.15 41.2641C228.81 40.8792 229.635 41.0992 230.02 41.7591C230.405 42.4191 230.185 43.244 229.525 43.629L155.912 86.1138C155.692 86.2513 155.472 86.3063 155.224 86.3063Z" fill="#CED3F8"/>
<path d="M196.635 61.0357C196.635 58.3959 198.477 55.1786 200.76 53.8861C203.042 52.5662 204.884 53.6387 204.884 56.2785C204.884 58.9183 203.042 62.1356 200.76 63.428C198.477 64.748 196.635 63.6755 196.635 61.0357Z" fill="url(#paint2_linear_1356_32753)"/>
<path d="M155.224 110.698C154.757 110.698 154.289 110.45 154.042 110.01C153.657 109.35 153.877 108.526 154.537 108.141L228.15 65.6557C228.81 65.2708 229.635 65.4907 230.02 66.1507C230.405 66.8107 230.185 67.6356 229.525 68.0206L155.912 110.505C155.692 110.643 155.472 110.698 155.224 110.698Z" fill="#CED3F8"/>
<path d="M174.308 98.3238C174.308 95.6839 176.15 92.4667 178.432 91.1742C180.715 89.8543 182.557 90.9267 182.557 93.5666C182.557 96.2064 180.715 99.4237 178.432 100.716C176.15 102.036 174.308 100.964 174.308 98.3238Z" fill="url(#paint3_linear_1356_32753)"/>
<path d="M155.224 135.089C154.757 135.089 154.289 134.842 154.042 134.402C153.657 133.742 153.877 132.917 154.537 132.532L228.15 90.0469C228.81 89.6619 229.635 89.8819 230.02 90.5418C230.405 91.2018 230.185 92.0267 229.525 92.4117L155.912 134.897C155.692 135.034 155.472 135.089 155.224 135.089Z" fill="#CED3F8"/>
<path d="M217.646 97.691C217.646 95.0511 219.489 91.8338 221.771 90.5414C224.054 89.2215 225.896 90.2939 225.896 92.9338C225.896 95.5736 224.054 98.7909 221.771 100.083C219.489 101.403 217.646 100.331 217.646 97.691Z" fill="url(#paint4_linear_1356_32753)"/>
<defs>
<linearGradient id="paint0_linear_1356_32753" x1="115.047" y1="160.166" x2="214.123" y2="-11.4229" gradientUnits="userSpaceOnUse">
<stop offset="0.41" stop-color="#BBC0E6"/>
<stop offset="0.58" stop-color="#CED3F8"/>
</linearGradient>
<radialGradient id="paint1_radial_1356_32753" cx="0" cy="0" r="1" gradientUnits="userSpaceOnUse" gradientTransform="translate(182.063 214) rotate(-30.3355) scale(156.416 40.6682)">
<stop stop-color="#C4D4EA" stop-opacity="0.4"/>
<stop offset="0.194231" stop-color="#D1DEEE" stop-opacity="0.31"/>
<stop offset="0.35" stop-color="#E5ECF5" stop-opacity="0.17"/>
<stop offset="0.56" stop-color="#F3F6FA" stop-opacity="0.08"/>
<stop offset="0.76" stop-color="#FCFCFD" stop-opacity="0.02"/>
<stop offset="0.94" stop-color="white" stop-opacity="0"/>
</radialGradient>
<linearGradient id="paint2_linear_1356_32753" x1="196.635" y1="58.6708" x2="204.884" y2="58.6708" gradientUnits="userSpaceOnUse">
<stop stop-color="#4329C9"/>
<stop offset="1" stop-color="#4329C9"/>
</linearGradient>
<linearGradient id="paint3_linear_1356_32753" x1="174.308" y1="95.9314" x2="182.585" y2="95.9314" gradientUnits="userSpaceOnUse">
<stop offset="0.15" stop-color="#7CB1A4"/>
<stop offset="0.37" stop-color="#6CA899"/>
<stop offset="1" stop-color="#43907C"/>
</linearGradient>
<linearGradient id="paint4_linear_1356_32753" x1="217.646" y1="95.2986" x2="225.923" y2="95.2986" gradientUnits="userSpaceOnUse">
<stop stop-color="#5989C9"/>
<stop offset="0.26" stop-color="#5184C6"/>
<stop offset="0.64" stop-color="#3E76C0"/>
<stop offset="1" stop-color="#2666B8"/>
</linearGradient>
</defs>
</svg>
