<svg width="397" height="347" viewBox="0 0 397 347" fill="none" xmlns="http://www.w3.org/2000/svg">
<path d="M139.52 72.5293C139.52 64.8298 144.964 55.3703 151.646 51.5206L232.409 4.91102C239.063 1.06127 244.536 4.22357 244.536 11.9231V107.892C244.536 115.592 239.091 125.051 232.409 128.901L151.619 175.538C144.937 179.388 139.492 176.253 139.492 168.553V72.5293H139.52Z" fill="#F1F1F6"/>
<path d="M235.573 0.951321C233.345 -0.451091 230.238 -0.368596 226.773 1.63878L145.983 48.2758C139.301 52.1256 133.856 61.585 133.856 69.2845V165.281C133.856 169.323 135.369 172.073 137.734 173.255L142.766 176.17C140.731 174.823 139.494 172.211 139.494 168.553V72.5293C139.494 64.8298 144.938 55.3704 151.62 51.5206L232.41 4.91107C235.71 3.01369 238.707 2.8212 240.88 4.03113L235.545 0.951321H235.573Z" fill="url(#paint0_linear_1356_32743)"/>
<path style="mix-blend-mode:multiply" d="M220.03 258.075C317.533 209.461 386.842 150.528 374.834 126.445C362.826 102.361 274.05 122.246 176.546 170.86C79.0423 219.473 9.73415 278.406 21.7418 302.49C33.7495 326.573 122.526 306.688 220.03 258.075Z" fill="url(#paint1_radial_1356_32743)"/>
<path d="M214.892 46.7355C214.562 46.763 214.177 47.0655 213.93 47.5054C210.465 53.5001 207.33 57.9823 203.233 60.3471C199.246 62.657 196.221 61.832 192.674 59.7972C192.591 59.7422 192.509 59.7422 192.399 59.7422C192.289 59.7422 192.179 59.7972 192.069 59.8521C191.959 59.9071 191.821 60.0171 191.739 60.1271C191.629 60.2371 191.546 60.3746 191.464 60.5121C188.439 65.7643 185.332 70.714 180.905 73.2713C176.56 75.7736 173.205 74.5362 170.208 72.8038C169.96 72.6663 169.575 72.8038 169.245 73.1338C168.915 73.4913 168.695 73.9863 168.695 74.3987V103.134C168.695 120.486 183.517 126.48 191.821 124.968C191.904 124.968 192.014 124.913 192.096 124.858C192.206 124.803 192.289 124.721 192.371 124.638C200.676 116.581 215.497 93.455 215.497 76.1036V47.3679C215.497 46.9555 215.277 46.708 214.947 46.7355H214.892ZM213.655 77.1211C213.655 92.4651 200.758 113.391 192.921 121.806V98.6797C192.921 98.1022 192.536 97.8822 192.041 98.1572C191.546 98.4322 191.161 99.1197 191.161 99.6971V122.823C183.324 123.456 170.428 117.434 170.428 102.089V75.7736C173.315 77.1761 176.642 77.7535 180.877 75.3062C185.194 72.8313 188.384 68.4041 191.189 63.7844V70.9614C191.189 71.5389 191.574 71.7589 192.069 71.4839C192.564 71.2089 192.949 70.5215 192.949 69.944V62.767C196.166 64.3069 199.273 64.6918 203.233 62.4095C207.633 59.8796 210.933 55.3149 213.682 50.8052V77.1211H213.655ZM192.014 88.5878C191.519 88.8628 191.134 89.5503 191.134 90.1277V94.225C191.134 94.8024 191.519 95.0224 192.014 94.7475C192.509 94.4725 192.894 93.785 192.894 93.2075V89.1103C192.894 88.5328 192.509 88.3129 192.014 88.5878Z" fill="url(#paint2_linear_1356_32743)"/>
<defs>
<linearGradient id="paint0_linear_1356_32743" x1="115.048" y1="160.166" x2="214.124" y2="-11.4229" gradientUnits="userSpaceOnUse">
<stop offset="0.41" stop-color="#BBC0E6"/>
<stop offset="0.58" stop-color="#CED3F8"/>
</linearGradient>
<radialGradient id="paint1_radial_1356_32743" cx="0" cy="0" r="1" gradientUnits="userSpaceOnUse" gradientTransform="translate(182.063 214) rotate(-30.3355) scale(156.416 40.6682)">
<stop stop-color="#C4D4EA" stop-opacity="0.4"/>
<stop offset="0.194231" stop-color="#D1DEEE" stop-opacity="0.31"/>
<stop offset="0.35" stop-color="#E5ECF5" stop-opacity="0.17"/>
<stop offset="0.56" stop-color="#F3F6FA" stop-opacity="0.08"/>
<stop offset="0.76" stop-color="#FCFCFD" stop-opacity="0.02"/>
<stop offset="0.94" stop-color="white" stop-opacity="0"/>
</radialGradient>
<linearGradient id="paint2_linear_1356_32743" x1="168.613" y1="85.948" x2="215.442" y2="85.948" gradientUnits="userSpaceOnUse">
<stop stop-color="#4329C9"/>
<stop offset="1" stop-color="#4329C9"/>
</linearGradient>
</defs>
</svg>
