<svg width="397" height="347" viewBox="0 0 397 347" fill="none" xmlns="http://www.w3.org/2000/svg">
<path d="M139.519 72.5288C139.519 64.8293 144.963 55.3699 151.645 51.5201L232.408 4.91053C239.062 1.06078 244.535 4.22308 244.535 11.9226V107.892C244.535 115.591 239.09 125.05 232.408 128.9L151.618 175.537C144.936 179.387 139.491 176.252 139.491 168.553V72.5288H139.519Z" fill="#F1F1F6"/>
<path d="M235.572 0.951321C233.344 -0.451091 230.237 -0.368596 226.772 1.63878L145.982 48.2758C139.3 52.1256 133.855 61.585 133.855 69.2845V165.281C133.855 169.323 135.368 172.073 137.733 173.255L142.765 176.17C140.73 174.823 139.493 172.211 139.493 168.553V72.5293C139.493 64.8298 144.937 55.3704 151.619 51.5206L232.409 4.91107C235.709 3.01369 238.706 2.8212 240.879 4.03113L235.544 0.951321H235.572Z" fill="url(#paint0_linear_1356_32822)"/>
<path style="mix-blend-mode:multiply" d="M220.03 258.075C317.533 209.462 386.842 150.529 374.834 126.445C362.826 102.361 274.05 122.247 176.546 170.86C79.0423 219.474 9.73415 278.407 21.7418 302.49C33.7495 326.574 122.526 306.689 220.03 258.075Z" fill="url(#paint1_radial_1356_32822)"/>
<path d="M207.634 77.4521L194.985 84.7666V70.165L189.073 73.5748V88.1489L176.451 95.4634V102.256L189.073 94.9685V109.57L194.985 106.16V91.5587L207.634 84.2716V77.4521Z" fill="url(#paint2_linear_1356_32822)"/>
<defs>
<linearGradient id="paint0_linear_1356_32822" x1="115.047" y1="160.166" x2="214.123" y2="-11.4229" gradientUnits="userSpaceOnUse">
<stop offset="0.41" stop-color="#BBC0E6"/>
<stop offset="0.58" stop-color="#CED3F8"/>
</linearGradient>
<radialGradient id="paint1_radial_1356_32822" cx="0" cy="0" r="1" gradientUnits="userSpaceOnUse" gradientTransform="translate(182.063 214) rotate(-30.3355) scale(156.416 40.6682)">
<stop stop-color="#C4D4EA" stop-opacity="0.4"/>
<stop offset="0.194231" stop-color="#D1DEEE" stop-opacity="0.31"/>
<stop offset="0.35" stop-color="#E5ECF5" stop-opacity="0.17"/>
<stop offset="0.56" stop-color="#F3F6FA" stop-opacity="0.08"/>
<stop offset="0.76" stop-color="#FCFCFD" stop-opacity="0.02"/>
<stop offset="0.94" stop-color="white" stop-opacity="0"/>
</radialGradient>
<linearGradient id="paint2_linear_1356_32822" x1="176.451" y1="89.8538" x2="207.634" y2="89.8538" gradientUnits="userSpaceOnUse">
<stop offset="0.17" stop-color="#7CB1A4"/>
<stop offset="0.37" stop-color="#6CA899"/>
<stop offset="0.95" stop-color="#43907C"/>
</linearGradient>
</defs>
</svg>
