<svg width="174" height="179" viewBox="0 0 174 179" fill="none" xmlns="http://www.w3.org/2000/svg">
<circle cx="87" cy="92" r="87" fill="#F4F9DD"/>
<mask id="mask0_1515_2609" style="mask-type:luminance" maskUnits="userSpaceOnUse" x="27" y="0" width="105" height="146">
<path d="M132 0H27V146H132V0Z" fill="white"/>
</mask>
<g mask="url(#mask0_1515_2609)">
<path d="M129.94 143.54C129.94 145.75 128.38 146.66 126.45 145.53L30.49 90.1C28.56 89.01 27 86.3 27 84.08V3.68003C27 1.47003 28.56 0.560033 30.49 1.65003L126.45 57.08C128.35 58.17 129.94 60.88 129.94 63.1V143.54Z" fill="white"/>
<path d="M128.54 55.9L32.5503 0.470017C31.6103 -0.0599825 30.7403 -0.119983 30.1203 0.220017L28.0303 1.40002C28.6503 1.06002 29.5303 1.09002 30.4603 1.65002L126.45 57.08C128.35 58.17 129.94 60.88 129.94 63.1V143.5C129.94 144.56 129.57 145.31 129.01 145.68L130.85 144.62C131.57 144.28 132 143.5 132 142.31V61.95C132 59.74 130.44 57.02 128.51 55.93L128.54 55.9Z" fill="url(#paint0_linear_1515_2609)"/>
<path d="M55.4204 90.49L54.6904 91.76L101.55 118.81L102.28 117.54L55.4204 90.49Z" fill="#D8E3EF"/>
<path d="M78.4601 105.28C78.8701 105.28 79.1801 104.94 79.1801 104.56V90.59L101.53 103.5C101.75 103.62 102.03 103.62 102.25 103.5C102.47 103.38 102.62 103.13 102.62 102.88V72.17C102.62 71.92 102.5 71.67 102.25 71.55L55.4201 44.46C55.2001 44.34 54.9201 44.34 54.7001 44.46C54.4801 44.58 54.3301 44.83 54.3301 45.08V59.58C54.3301 59.99 54.6401 60.3 55.0501 60.3C55.4601 60.3 55.7701 59.99 55.7701 59.58V46.33L101.18 72.55V101.54L78.8301 88.63C78.6101 88.51 78.3301 88.51 78.1101 88.63C77.8901 88.75 77.7401 89 77.7401 89.25V104.5C77.7401 104.9 78.0501 105.22 78.4601 105.22V105.28Z" fill="#D8E3EF"/>
<path d="M79.2002 41.25H77.7402V57.93H79.2002V41.25Z" fill="#D8E3EF"/>
<path d="M81.6997 39.34L75.2197 35.6V43.11L81.6997 46.85V39.34Z" fill="#CBD9EB"/>
<path d="M59.5096 57.86L50.5996 52.68V63L59.5096 68.14V57.85V57.86Z" fill="#BFBFD1"/>
<path d="M78.4601 53.31L86.8701 63.47L78.4601 63.91L70.0801 53.75L78.4601 53.31Z" fill="#7699C9"/>
<path d="M106.35 90.07C106.35 87.23 104.36 83.77 101.89 82.34C99.4297 80.91 97.4297 82.06 97.4297 84.93C97.4297 87.8 99.4197 91.23 101.89 92.66C104.35 94.09 106.35 92.94 106.35 90.07Z" fill="#4C7CB8"/>
<path d="M59.5096 98.86L50.5996 93.68V83.39L59.5096 88.53V98.85V98.86Z" fill="#4C7CB8"/>
<path d="M97.4404 120.75L106.35 125.92V115.6L97.4404 110.46V120.75Z" fill="#BFBFD1"/>
<path d="M70.0703 89.76L86.8703 99.46V88.89L70.0703 79.16V89.76Z" fill="#7699C9"/>
</g>
<defs>
<linearGradient id="paint0_linear_1515_2609" x1="54.2603" y1="-13.74" x2="142.01" y2="138.19" gradientUnits="userSpaceOnUse">
<stop offset="0.55" stop-color="#608BC0"/>
<stop offset="0.6" stop-color="#3B6FB2"/>
</linearGradient>
</defs>
</svg>
