<svg width="547" height="547" viewBox="0 0 547 547" fill="none" xmlns="http://www.w3.org/2000/svg">
<circle opacity="0.1" cx="273.04" cy="273.04" r="273.04" fill="#F4F9DD"/>
<circle opacity="0.5" cx="273.04" cy="273.04" r="201.261" fill="#F4F9DD"/>
<circle cx="273.04" cy="273.04" r="133.001" fill="#F4F9DD"/>
<path style="mix-blend-mode:multiply" d="M331.743 350.843H263.343L268.63 362.432H331.743V350.843Z" fill="url(#paint0_linear_1769_1445)"/>
<path style="mix-blend-mode:multiply" d="M316.234 335.568H252.519L253.135 342.942H316.234V335.568Z" fill="url(#paint1_linear_1769_1445)"/>
<path d="M248.332 324.803C246.202 323.349 242.853 325.816 242.002 328.563C241.958 329.738 242.839 331.721 242.839 331.721C242.839 331.721 246.393 339.637 247.598 340.989C248.802 342.34 253.708 344.264 256.072 342.252C257.762 340.049 254.398 338.741 253.781 336.568C252.973 333.733 253.326 331.471 252.533 329.341C251.886 327.593 248.317 324.817 248.317 324.817L248.332 324.803Z" fill="url(#paint2_linear_1769_1445)"/>
<path d="M242.207 328.004C242.207 328.004 242.207 328.019 242.207 328.033C242.163 329.208 243.044 331.191 243.044 331.191C243.044 331.191 246.599 339.108 247.803 340.459C249.008 341.81 253.913 343.749 256.278 341.722C256.366 341.605 256.454 341.473 256.513 341.355C256.454 341.634 256.322 341.928 256.087 342.236C253.722 344.249 248.817 342.324 247.612 340.973C246.408 339.622 242.853 331.705 242.853 331.705C242.853 331.705 241.972 329.737 242.016 328.547C242.075 328.371 242.134 328.18 242.222 328.004H242.207Z" fill="#46907D"/>
<path d="M254.178 326.58C253.135 325.875 248.846 324.318 248.846 324.318C248.846 324.318 248.479 324.803 247.877 325.038C247.818 325.052 247.759 325.082 247.686 325.096C246.628 325.096 244.704 326.095 245.894 328.239C248.2 332.381 253.517 332.235 252.929 330.266C252.533 328.945 253.62 327.388 254.178 326.58Z" fill="white"/>
<path d="M253.032 331.353C253.194 330.692 253.385 329.282 251.71 329.047C249.962 328.797 247.98 329.605 248.141 330.633C248.479 332.778 252.871 331.999 253.032 331.353Z" fill="url(#paint3_linear_1769_1445)"/>
<path d="M246.467 324.406C248.45 321.718 263.196 303.975 270.143 300.435C267.808 290.639 261.742 277.905 263.666 267.417H278.457C278.457 267.417 287.225 298.497 281.614 305.899C277.37 311.51 258.54 325.86 251.534 330.369C249.125 330.369 245.585 326.491 246.452 324.406H246.467Z" fill="url(#paint4_linear_1769_1445)"/>
<path d="M259.025 350.197C256.484 350.609 255.749 354.707 257.012 357.277C257.806 358.158 259.788 358.995 259.788 358.995C259.788 358.995 267.823 362.285 269.615 362.432C271.421 362.579 275.431 361.904 275.754 358.819C275.446 356.939 273.859 356.41 271.92 355.265C269.394 353.767 267.22 351.578 265.179 350.579C263.504 349.757 259.01 350.197 259.01 350.197H259.025Z" fill="url(#paint5_linear_1769_1445)"/>
<path d="M269.586 361.609C267.736 361.462 259.466 358.084 259.466 358.084C259.466 358.084 257.542 357.276 256.69 356.395C256.779 356.703 256.896 357.012 257.028 357.291C257.821 358.172 259.804 359.009 259.804 359.009C259.804 359.009 267.838 362.299 269.63 362.446C271.437 362.593 275.447 361.918 275.77 358.833C275.77 358.774 275.74 358.716 275.726 358.642C274.874 361.183 271.275 361.756 269.572 361.624L269.586 361.609Z" fill="#46907D"/>
<path d="M264.505 347.48C263.271 347.686 259.07 349.507 259.07 349.507C259.07 349.507 259.144 350.109 258.865 350.697C258.835 350.755 258.806 350.814 258.776 350.873C258.013 351.607 257.205 352.914 259.54 353.649C264.064 355.074 267.912 352.033 266.135 351.02C264.945 350.329 264.666 348.449 264.505 347.495V347.48Z" fill="white"/>
<path d="M266.897 351.622C266.56 351.182 265.781 349.977 264.401 350.961C262.961 351.989 262.638 353.223 262.8 354.251C262.976 355.279 265.943 354.516 266.06 354.369C266.178 354.222 266.897 351.622 266.897 351.622Z" fill="url(#paint6_linear_1769_1445)"/>
<path d="M265.503 266.917C265.503 280.812 265.65 296.352 265.65 308.484C265.65 322.363 266.707 339.563 266.56 351.195C264.328 353.957 258.658 353.266 257.468 351.122C256 340.562 252.71 324.493 253.517 312.963C250.007 297.776 245.616 279.74 247.04 267.828C250.404 268.9 262.139 265.845 265.503 266.917Z" fill="url(#paint7_linear_1769_1445)"/>
<path d="M269.291 210.913C280.615 214.512 283.347 225.586 283.847 233.224C284.184 238.247 284.713 256.592 277.619 252.288C270.525 247.97 269.291 210.928 269.291 210.928V210.913Z" fill="url(#paint8_linear_1769_1445)"/>
<path d="M247.715 218.874C250.652 215.202 257.878 210.062 262.608 209.709C270.657 209.122 277.017 215.761 278.662 221.313C280.204 226.541 279.352 266.037 281.085 273.145C280.233 276.891 273.345 278.918 270.73 279.491C259.377 281.987 246.437 281.547 245.541 274.335C243.881 260.881 243.485 223.09 247.715 218.86V218.874Z" fill="url(#paint9_linear_1769_1445)"/>
<path d="M297.536 254.889L267.235 237.396C265.575 236.441 264.738 235.178 264.738 233.915C264.738 232.652 265.575 231.389 267.235 230.434L297.536 212.941C299.196 211.986 301.384 211.501 303.573 211.501C305.761 211.501 307.935 211.986 309.609 212.941L339.91 230.434C341.57 231.389 342.407 232.652 342.407 233.915C342.407 235.178 341.57 236.441 339.91 237.396L309.609 254.889C307.95 255.844 305.761 256.328 303.573 256.328C301.384 256.328 299.21 255.844 297.536 254.889Z" fill="#D0DCEC"/>
<path d="M339.91 237.396L309.609 254.889C307.95 255.843 305.761 256.328 303.573 256.328C301.384 256.328 299.21 255.843 297.536 254.889L267.235 237.396C265.575 236.441 264.738 235.178 264.738 233.915V279.755C264.738 281.018 265.575 282.281 267.235 283.236L297.536 300.729C299.196 301.684 301.384 302.168 303.573 302.168C305.761 302.168 307.935 301.684 309.609 300.729L339.91 283.236C341.57 282.281 342.407 281.018 342.407 279.755V233.915C342.407 235.178 341.57 236.441 339.91 237.396Z" fill="url(#paint10_linear_1769_1445)"/>
<g style="mix-blend-mode:multiply">
<path d="M303.573 229.597L311.063 233.915L303.573 238.233L296.082 233.915L303.573 229.597Z" fill="#9284D9"/>
<path d="M315.675 236.587L323.166 240.906L315.675 245.224L308.185 240.906L315.675 236.587Z" fill="#9284D9"/>
<path d="M327.778 229.597L335.269 233.915L327.778 238.233L320.287 233.915L327.778 229.597Z" fill="#9284D9"/>
<path d="M303.573 243.564L311.063 247.883L303.573 252.216L296.082 247.883L303.573 243.564Z" fill="#9284D9"/>
<path d="M291.47 222.605L298.961 226.923L291.47 231.256L283.979 226.923L291.47 222.605Z" fill="#9284D9"/>
<path d="M315.675 222.605L323.166 226.923L315.675 231.256L308.185 226.923L315.675 222.605Z" fill="#9284D9"/>
<path d="M303.573 215.614L311.063 219.932L303.573 224.265L296.082 219.932L303.573 215.614Z" fill="#9284D9"/>
<path d="M279.368 229.597L286.858 233.915L279.368 238.233L271.877 233.915L279.368 229.597Z" fill="#9284D9"/>
<path d="M291.47 236.587L298.961 240.906L291.47 245.224L283.979 240.906L291.47 236.587Z" fill="#9284D9"/>
</g>
<path d="M273.873 256.827C274.27 257.224 276.032 262.1 272.346 263.554C270.466 262.57 269.834 257.62 273.873 256.827Z" fill="#62A292"/>
<path d="M271.597 256.798L273.947 257.635C275.269 258.017 278.589 257.371 280.454 255.52C282.305 253.655 282.701 257.341 280.527 258.399C278.354 259.456 278.324 260.367 281.835 260.999C283.48 261.292 285.169 262.203 285.756 262.776C287.019 264.039 288.415 266.815 286.417 268.166C284.801 269.268 279.984 267.094 278.53 266.506C274.52 264.876 275.313 264.083 273.066 263.011C270.819 261.939 270.305 261.983 270.305 261.983L271.612 256.798H271.597Z" fill="#C4C4D4"/>
<path d="M252.943 217.156C250.417 216.642 247.156 217.068 244.939 224.573C243.073 230.918 244.571 243.946 245.702 247.56C248.581 256.842 259.979 260 272.36 263.554C270.789 261.748 271.832 257.753 273.888 256.827C265.501 253.156 257.658 247.868 254.853 245.063C254.853 241.89 256.395 229.861 256.586 225.748C256.821 220.637 255.44 217.655 252.943 217.141V217.156Z" fill="url(#paint11_linear_1769_1445)"/>
<path d="M261.594 199.031C261.301 196.432 270.304 201.734 269.952 205.171C269.658 207.976 268.835 210.429 271.67 212.191C272.64 212.97 275.988 218.419 270.848 218.478C263.504 218.566 261.536 216.554 256.233 212.001C259.406 210.209 262.549 207.491 261.594 199.046V199.031Z" fill="#C4C4D4"/>
<path d="M259.48 197.489L263.137 192.334H279.058V201.925C279.058 207.227 275.489 211.516 271.098 211.516C266.706 211.516 262.858 207.976 262.652 202.909L260.713 202.248L259.465 197.504L259.48 197.489Z" fill="#C4C4D4"/>
<path d="M270.73 214.086C266.926 214.086 262.211 207.976 262.666 202.923C262.857 207.682 266.823 211.119 270.789 211.516C271.126 211.795 271.332 211.986 271.685 212.206C271.758 212.265 271.846 212.368 271.949 212.47C271.949 213.249 271.435 214.086 270.745 214.086H270.73Z" fill="#AFAFC4"/>
<path d="M278.133 188.016C279.587 187.766 279.72 186.547 273.815 184.506C270.393 182.817 265.517 182.302 262.373 184.256C258.114 186.9 256.821 190.777 257.585 195.639C258.349 200.515 261.463 205.142 261.463 205.142C261.933 205.612 262.006 203.379 261.624 201.705C261.448 201.543 261.257 201.088 261.066 200.28C259.935 195.33 262.961 196.065 263.372 196.491C264.312 196.873 262.506 200.971 265.237 200.559C266.559 200.368 266.383 196.667 266.383 195.36C266.574 195.404 266.765 195.448 266.985 195.521C269.247 196.77 276.929 197.695 272.655 195.022C275.622 195.022 279.676 196.388 281.041 194.508C282.672 192.261 280.057 189.823 278.119 188.001L278.133 188.016Z" fill="#509784"/>
<defs>
<linearGradient id="paint0_linear_1769_1445" x1="263.343" y1="356.645" x2="331.743" y2="356.645" gradientUnits="userSpaceOnUse">
<stop stop-color="#D5E7E2"/>
<stop offset="0.29" stop-color="#E8F2EF"/>
<stop offset="0.64" stop-color="#F9FBFA"/>
<stop offset="0.9" stop-color="white"/>
</linearGradient>
<linearGradient id="paint1_linear_1769_1445" x1="252.519" y1="339.255" x2="316.234" y2="339.255" gradientUnits="userSpaceOnUse">
<stop stop-color="#D5E7E2"/>
<stop offset="0.29" stop-color="#E8F2EF"/>
<stop offset="0.64" stop-color="#F9FBFA"/>
<stop offset="0.9" stop-color="white"/>
</linearGradient>
<linearGradient id="paint2_linear_1769_1445" x1="253.561" y1="343.412" x2="245.189" y2="324.994" gradientUnits="userSpaceOnUse">
<stop stop-color="#509784"/>
<stop offset="0.97" stop-color="#6EA999"/>
<stop offset="1" stop-color="#70AA9A"/>
</linearGradient>
<linearGradient id="paint3_linear_1769_1445" x1="254.442" y1="342.81" x2="248.905" y2="324.905" gradientUnits="userSpaceOnUse">
<stop stop-color="#509784"/>
<stop offset="0.97" stop-color="#6EA999"/>
<stop offset="1" stop-color="#70AA9A"/>
</linearGradient>
<linearGradient id="paint4_linear_1769_1445" x1="283.397" y1="302.185" x2="250.215" y2="297.781" gradientUnits="userSpaceOnUse">
<stop stop-color="#509784"/>
<stop offset="0.49" stop-color="#559A88"/>
<stop offset="1" stop-color="#62A292"/>
</linearGradient>
<linearGradient id="paint5_linear_1769_1445" x1="262.036" y1="360.875" x2="268.88" y2="352.724" gradientUnits="userSpaceOnUse">
<stop stop-color="#70AA9A"/>
<stop offset="0.03" stop-color="#6EA999"/>
<stop offset="1" stop-color="#509784"/>
</linearGradient>
<linearGradient id="paint6_linear_1769_1445" x1="259.363" y1="358.525" x2="266.721" y2="351.108" gradientUnits="userSpaceOnUse">
<stop stop-color="#70AA9A"/>
<stop offset="0.03" stop-color="#6EA999"/>
<stop offset="1" stop-color="#509784"/>
</linearGradient>
<linearGradient id="paint7_linear_1769_1445" x1="271.877" y1="306.442" x2="248.715" y2="311.891" gradientUnits="userSpaceOnUse">
<stop stop-color="#509784"/>
<stop offset="0.64" stop-color="#6DA898"/>
<stop offset="1" stop-color="#81B4A6"/>
</linearGradient>
<linearGradient id="paint8_linear_1769_1445" x1="269.291" y1="231.917" x2="284.023" y2="231.917" gradientUnits="userSpaceOnUse">
<stop stop-color="#A3C8BD"/>
<stop offset="1" stop-color="#92BEB2"/>
</linearGradient>
<linearGradient id="paint9_linear_1769_1445" x1="244.351" y1="245.283" x2="281.085" y2="245.283" gradientUnits="userSpaceOnUse">
<stop stop-color="#92BEB2"/>
<stop offset="1" stop-color="#70AA9A"/>
</linearGradient>
<linearGradient id="paint10_linear_1769_1445" x1="264.738" y1="268.034" x2="342.407" y2="268.034" gradientUnits="userSpaceOnUse">
<stop offset="0.4" stop-color="#DDEBE7"/>
<stop offset="0.57" stop-color="#CFE2DD"/>
</linearGradient>
<linearGradient id="paint11_linear_1769_1445" x1="244.057" y1="240.289" x2="273.873" y2="240.289" gradientUnits="userSpaceOnUse">
<stop stop-color="#A3C8BD"/>
<stop offset="1" stop-color="#81B4A6"/>
</linearGradient>
</defs>
</svg>
