<svg width="547" height="547" viewBox="0 0 547 547" fill="none" xmlns="http://www.w3.org/2000/svg">
<circle opacity="0.1" cx="273.04" cy="273.04" r="273.04" fill="#F4F9DD"/>
<circle opacity="0.5" cx="273.04" cy="273.04" r="201.261" fill="#F4F9DD"/>
<path d="M167 337.507L223.353 370.05L197.394 251.58L192.959 249.022L167 337.507ZM172.611 336.024L195.176 259.119L217.741 362.068L172.611 336.024Z" fill="#DDEBE7"/>
<path d="M172.611 336.024L207.61 315.829L195.176 259.119L172.611 336.024Z" fill="#62A292"/>
<path d="M172.611 336.024L217.741 362.085L207.61 315.829L172.611 336.024Z" fill="#81B4A6"/>
<path d="M192.959 249.005L335.017 167L339.452 169.558L197.394 251.58L192.959 249.005Z" fill="#D5E0EE"/>
<path d="M197.394 251.58C244.758 224.239 292.105 196.899 339.452 169.558C348.099 209.06 356.764 248.544 365.411 288.045C318.064 315.386 270.717 342.709 223.37 370.05C214.705 330.566 206.058 291.064 197.411 251.563L197.394 251.58Z" fill="#D0DCEC"/>
<path d="M200.685 266.589C248.067 239.402 295.448 212.215 342.829 185.028C341.362 178.325 340.663 175.17 339.435 169.558C292.105 196.899 244.758 224.239 197.394 251.58C198.57 256.987 199.253 260.057 200.685 266.606V266.589Z" fill="#6652C9"/>
<path d="M272.627 211.976C269.932 213.528 268.585 214.313 265.873 215.865C266.521 218.799 266.862 220.351 267.562 223.574C270.256 222.022 271.621 221.255 274.316 219.703C273.616 216.479 273.275 214.927 272.627 211.976Z" fill="#509784"/>
<path d="M249.84 225.109C247.145 226.661 245.798 227.446 243.086 228.998C243.734 231.915 244.058 233.467 244.774 236.673C247.469 235.121 248.817 234.354 251.529 232.802C250.829 229.595 250.488 228.043 249.84 225.126V225.109Z" fill="#509784"/>
<path d="M227.053 238.242C224.358 239.794 223.011 240.579 220.299 242.131C220.93 245.031 221.271 246.566 221.97 249.772C224.665 248.22 226.013 247.435 228.707 245.883C228.008 242.694 227.667 241.142 227.036 238.242H227.053Z" fill="#509784"/>
<path d="M288.676 202.732C291.371 201.18 292.718 200.395 295.413 198.843C296.061 201.794 296.402 203.363 297.118 206.604C294.424 208.156 293.059 208.923 290.364 210.475C289.648 207.235 289.307 205.683 288.676 202.732Z" fill="#509784"/>
<path d="M311.463 189.599C314.158 188.047 315.505 187.262 318.217 185.71C318.865 188.678 319.223 190.247 319.923 193.505C317.228 195.057 315.863 195.824 313.168 197.376C312.452 194.136 312.111 192.567 311.463 189.599Z" fill="#509784"/>
<path style="mix-blend-mode:multiply" d="M229.1 233.279H220.214L213.853 236.946H222.722L229.1 233.279Z" fill="url(#paint0_linear_1201_814)"/>
<path style="mix-blend-mode:multiply" d="M252.092 220.01H243.223L236.861 223.694H245.73L252.092 220.01Z" fill="url(#paint1_linear_1201_814)"/>
<path style="mix-blend-mode:multiply" d="M275.1 206.757H266.231L259.853 210.424H268.739L275.1 206.757Z" fill="url(#paint2_linear_1201_814)"/>
<path d="M222.295 243.359L224.904 241.739C224.734 242.864 223.404 243.257 222.295 243.359Z" fill="#BDD8D1"/>
<path d="M218.884 226.61C215.098 224.427 212.011 226.201 212.011 230.567C212.011 232.631 212.727 234.882 213.853 236.946L211.567 238.276C209.862 235.206 208.787 231.812 208.787 228.708C208.787 222.278 213.307 219.669 218.884 222.875C224.461 226.099 228.981 233.927 228.981 240.357C228.981 244.996 226.628 247.606 223.216 247.521L222.295 243.342C224.342 243.154 225.741 241.432 225.741 238.498C225.741 234.115 222.671 228.793 218.884 226.61Z" fill="#DDEBE7"/>
<path d="M216.342 225.723C215.984 226.474 215.728 227.327 215.728 228.418C215.728 230.482 216.445 232.75 217.57 234.797L213.835 236.946C212.71 234.899 211.993 232.631 211.993 230.567C211.993 227.224 213.801 225.416 216.325 225.723H216.342Z" fill="#BDD8D1"/>
<path d="M215.2 220.248C217.042 219.003 219.669 219.037 222.603 220.726C228.18 223.95 232.7 231.761 232.7 238.208C232.7 241.636 231.404 243.939 229.357 244.877L225.639 247.043C227.685 246.088 228.982 243.785 228.982 240.357C228.982 233.927 224.462 226.099 218.885 222.875C216.156 221.306 213.7 221.135 211.892 222.107L215.166 220.214H215.2V220.248Z" fill="url(#paint3_linear_1201_814)"/>
<path d="M245.082 230.209L247.692 228.589C247.521 229.714 246.191 230.107 245.082 230.209Z" fill="#BDD8D1"/>
<path d="M241.671 213.477C237.885 211.294 234.798 213.068 234.798 217.434C234.798 219.498 235.514 221.749 236.64 223.813L234.354 225.143C232.649 222.073 231.574 218.679 231.574 215.575C231.574 209.145 236.094 206.536 241.671 209.742C247.249 212.966 251.768 220.794 251.768 227.224C251.768 231.863 249.415 234.473 246.003 234.388L245.082 230.209C247.129 230.021 248.528 228.299 248.528 225.365C248.528 220.982 245.458 215.66 241.671 213.477Z" fill="#DDEBE7"/>
<path d="M239.13 212.59C238.771 213.324 238.516 214.194 238.516 215.285C238.516 217.349 239.232 219.617 240.358 221.664L236.622 223.813C235.497 221.766 234.78 219.498 234.78 217.434C234.78 214.091 236.588 212.283 239.112 212.59H239.13Z" fill="#BDD8D1"/>
<path d="M237.988 207.115C239.83 205.87 242.456 205.904 245.39 207.593C250.967 210.817 255.487 218.628 255.487 225.075C255.487 228.503 254.191 230.806 252.144 231.744L248.426 233.91C250.472 232.955 251.769 230.652 251.769 227.224C251.769 220.794 247.249 212.966 241.672 209.742C238.943 208.173 236.487 208.002 234.679 208.974L237.953 207.081H237.988V207.115Z" fill="url(#paint4_linear_1201_814)"/>
<path d="M267.868 217.076L270.478 215.456C270.307 216.581 268.977 216.974 267.868 217.076Z" fill="#BDD8D1"/>
<path d="M264.457 200.344C260.671 198.161 257.584 199.935 257.584 204.301C257.584 206.365 258.3 208.616 259.426 210.68L257.14 212.01C255.435 208.94 254.36 205.546 254.36 202.442C254.36 195.995 258.88 193.402 264.457 196.609C270.035 199.832 274.554 207.661 274.554 214.091C274.554 218.73 272.184 221.34 268.79 221.255L267.869 217.076C269.915 216.888 271.314 215.166 271.314 212.232C271.314 207.849 268.244 202.527 264.457 200.344Z" fill="#DDEBE7"/>
<path d="M261.915 199.457C261.557 200.191 261.301 201.061 261.301 202.152C261.301 204.216 262.018 206.484 263.143 208.531L259.425 210.68C258.299 208.633 257.583 206.365 257.583 204.301C257.583 200.958 259.391 199.15 261.915 199.457Z" fill="#BDD8D1"/>
<path d="M260.772 193.965C262.614 192.72 265.241 192.754 268.174 194.443C273.752 197.666 278.271 205.478 278.271 211.925C278.271 215.353 276.975 217.656 274.929 218.594L271.193 220.76C273.24 219.805 274.536 217.502 274.536 214.074C274.536 207.644 270.016 199.815 264.439 196.592C261.71 195.023 259.254 194.852 257.446 195.824L260.721 193.931H260.755L260.772 193.965Z" fill="url(#paint5_linear_1201_814)"/>
<path d="M290.654 203.943L293.264 202.323C293.093 203.448 291.763 203.841 290.654 203.943Z" fill="#BDD8D1"/>
<path d="M287.244 187.194C283.457 185.011 280.37 186.768 280.37 191.151C280.37 193.215 281.086 195.466 282.212 197.53L279.927 198.86C278.221 195.79 277.146 192.396 277.146 189.292C277.146 182.845 281.666 180.252 287.244 183.459C292.821 186.682 297.341 194.494 297.341 200.941C297.341 205.58 294.987 208.19 291.576 208.105L290.655 203.926C292.701 203.738 294.1 202.016 294.1 199.082C294.1 194.699 291.03 189.377 287.244 187.194Z" fill="#DDEBE7"/>
<path d="M284.701 186.307C284.343 187.041 284.087 187.91 284.087 189.002C284.087 191.066 284.804 193.334 285.929 195.381L282.211 197.53C281.085 195.483 280.369 193.215 280.369 191.151C280.369 187.808 282.177 186 284.701 186.307Z" fill="#BDD8D1"/>
<path d="M283.558 180.832C285.4 179.587 288.027 179.621 290.961 181.31C296.538 184.533 301.058 192.362 301.058 198.792C301.058 202.22 299.761 204.523 297.715 205.478L293.979 207.644C296.026 206.689 297.322 204.386 297.322 200.958C297.322 194.511 292.803 186.7 287.225 183.476C284.496 181.907 282.04 181.736 280.232 182.708L283.507 180.815H283.541L283.558 180.832Z" fill="url(#paint6_linear_1201_814)"/>
<path d="M302.27 257.788L267.118 278.085L271.041 293.043L306.21 272.746L302.27 257.788Z" fill="#92BEB2"/>
<path d="M288.096 287.943L272.132 297.17L273.547 302.577L289.512 293.367L288.096 287.943Z" fill="#70AA9A"/>
<path d="M275.271 232.017C271.723 234.064 269.796 239.402 270.99 243.939C272.183 248.459 276.021 250.471 279.569 248.425C283.116 246.378 285.027 241.039 283.85 236.52C282.656 231.983 278.818 229.97 275.271 232.017Z" fill="#6652C9"/>
<path d="M318.149 247.794C314.601 249.84 312.691 255.179 313.868 259.699C315.062 264.235 318.899 266.248 322.447 264.201C325.994 262.155 327.922 256.816 326.728 252.279C325.534 247.742 321.696 245.747 318.149 247.794Z" fill="#6652C9"/>
<path d="M293.759 302.389C290.211 304.436 288.284 309.775 289.478 314.311C290.672 318.831 294.509 320.844 298.057 318.797C301.605 316.75 303.515 311.412 302.338 306.892C301.144 302.355 297.306 300.343 293.759 302.389Z" fill="#6652C9"/>
<path d="M250.865 286.63C247.317 288.676 245.407 294.015 246.601 298.535C247.795 303.072 251.632 305.084 255.18 303.038C258.727 300.991 260.638 295.652 259.444 291.115C258.25 286.579 254.412 284.583 250.865 286.63Z" fill="#6652C9"/>
<path d="M321.117 268.431C320.776 268.636 320.503 269.079 320.469 269.591C319.65 279.824 315.147 290.433 308.257 298.688L309.297 295.158C309.502 294.475 309.263 293.776 308.768 293.589C308.547 293.503 308.308 293.52 308.103 293.657C307.847 293.81 307.626 294.083 307.523 294.458L305.221 302.304C305.101 302.73 305.136 303.191 305.34 303.515C305.528 303.839 305.852 303.993 306.176 303.924L312.316 302.492C312.316 302.492 312.47 302.441 312.555 302.406C312.964 302.168 313.237 301.605 313.203 301.025C313.169 300.343 312.708 299.865 312.18 299.984L309.365 300.633C316.802 291.832 321.509 280.728 322.396 269.608C322.464 268.909 322.072 268.329 321.543 268.329C321.407 268.329 321.27 268.363 321.151 268.448L321.117 268.431ZM258.113 304.811C257.976 304.897 257.84 305.016 257.72 305.187C257.481 305.528 257.396 305.988 257.481 306.415L258.982 314.09C259.119 314.755 259.631 315.096 260.142 314.857C260.176 314.857 260.193 314.823 260.227 314.823C260.688 314.55 260.961 313.868 260.841 313.237L260.142 309.655C266.487 315.846 275.288 318.234 284.856 316.239C284.941 316.222 285.027 316.188 285.112 316.136C285.504 315.915 285.794 315.352 285.76 314.772C285.726 314.073 285.283 313.612 284.754 313.714C275.953 315.556 267.561 313.339 261.643 307.762L264.253 308.154C264.423 308.188 264.594 308.154 264.764 308.052C265.071 307.881 265.327 307.506 265.395 307.029C265.515 306.329 265.174 305.698 264.662 305.63L258.641 304.726C258.471 304.709 258.3 304.726 258.147 304.828L258.113 304.811ZM288.25 234.729C287.841 234.968 287.568 235.513 287.602 236.093C287.636 236.793 288.08 237.27 288.608 237.151C297.409 235.309 305.784 237.526 311.719 243.103L309.11 242.711C308.939 242.694 308.751 242.711 308.598 242.813C308.291 243.001 308.035 243.376 307.967 243.837C307.847 244.536 308.189 245.167 308.7 245.252L314.704 246.156C314.874 246.173 315.045 246.156 315.216 246.054C315.352 245.969 315.488 245.849 315.591 245.679C315.813 245.338 315.915 244.86 315.83 244.451L314.346 236.758C314.209 236.093 313.698 235.752 313.186 235.991C313.169 235.991 313.135 236.008 313.118 236.025C312.657 236.298 312.367 236.98 312.487 237.611L313.186 241.193C306.841 235.002 298.04 232.614 288.489 234.609C288.404 234.626 288.318 234.661 288.233 234.712L288.25 234.729ZM260.824 248.442C260.415 248.68 260.142 249.243 260.176 249.823C260.21 250.522 260.671 250.983 261.2 250.864L264.014 250.215C256.578 259.016 251.87 270.12 250.983 281.24C250.932 281.939 251.307 282.519 251.836 282.519C251.972 282.519 252.109 282.485 252.245 282.4C252.586 282.195 252.859 281.769 252.893 281.24C253.712 271.007 258.215 260.398 265.122 252.143L264.099 255.656C263.894 256.339 264.133 257.038 264.628 257.243C264.85 257.328 265.088 257.294 265.293 257.174C265.549 257.021 265.771 256.748 265.873 256.373L268.175 248.527C268.312 248.101 268.261 247.657 268.073 247.316C267.868 246.992 267.561 246.838 267.22 246.907L261.08 248.322C261.08 248.322 260.927 248.373 260.841 248.425L260.824 248.442Z" fill="#DDEBE7"/>
<defs>
<linearGradient id="paint0_linear_1201_814" x1="216.496" y1="238.14" x2="228.111" y2="231.079" gradientUnits="userSpaceOnUse">
<stop stop-color="#E0ECE8"/>
<stop offset="1" stop-color="white"/>
</linearGradient>
<linearGradient id="paint1_linear_1201_814" x1="239.505" y1="224.871" x2="251.103" y2="217.809" gradientUnits="userSpaceOnUse">
<stop stop-color="#E0ECE8"/>
<stop offset="1" stop-color="white"/>
</linearGradient>
<linearGradient id="paint2_linear_1201_814" x1="262.513" y1="211.618" x2="274.111" y2="204.557" gradientUnits="userSpaceOnUse">
<stop stop-color="#E0ECE8"/>
<stop offset="1" stop-color="white"/>
</linearGradient>
<linearGradient id="paint3_linear_1201_814" x1="231.25" y1="243.82" x2="217.008" y2="219.157" gradientUnits="userSpaceOnUse">
<stop stop-color="#CFE2DD"/>
<stop offset="1" stop-color="white"/>
</linearGradient>
<linearGradient id="paint4_linear_1201_814" x1="254.037" y1="230.687" x2="239.795" y2="206.024" gradientUnits="userSpaceOnUse">
<stop stop-color="#CFE2DD"/>
<stop offset="1" stop-color="white"/>
</linearGradient>
<linearGradient id="paint5_linear_1201_814" x1="276.822" y1="217.554" x2="262.58" y2="192.891" gradientUnits="userSpaceOnUse">
<stop stop-color="#CFE2DD"/>
<stop offset="1" stop-color="white"/>
</linearGradient>
<linearGradient id="paint6_linear_1201_814" x1="299.608" y1="204.421" x2="285.366" y2="179.758" gradientUnits="userSpaceOnUse">
<stop stop-color="#CFE2DD"/>
<stop offset="1" stop-color="white"/>
</linearGradient>
</defs>
</svg>
