<svg width="397" height="347" viewBox="0 0 397 347" fill="none" xmlns="http://www.w3.org/2000/svg">
<path d="M139.52 72.5293C139.52 64.8298 144.964 55.3703 151.646 51.5206L232.409 4.91102C239.063 1.06127 244.536 4.22357 244.536 11.9231V107.892C244.536 115.592 239.091 125.051 232.409 128.901L151.619 175.538C144.937 179.388 139.492 176.253 139.492 168.553V72.5293H139.52Z" fill="#F1F1F6"/>
<path d="M235.573 0.951321C233.345 -0.451091 230.238 -0.368596 226.773 1.63878L145.983 48.2758C139.301 52.1256 133.856 61.585 133.856 69.2845V165.281C133.856 169.323 135.369 172.073 137.734 173.255L142.766 176.17C140.731 174.823 139.494 172.211 139.494 168.553V72.5293C139.494 64.8298 144.938 55.3704 151.62 51.5206L232.41 4.91107C235.71 3.01369 238.707 2.8212 240.88 4.03113L235.545 0.951321H235.573Z" fill="url(#paint0_linear_1356_32812)"/>
<path style="mix-blend-mode:multiply" d="M220.03 258.075C317.533 209.462 386.842 150.529 374.834 126.445C362.826 102.361 274.05 122.247 176.546 170.86C79.0423 219.474 9.73415 278.407 21.7418 302.49C33.7495 326.574 122.526 306.689 220.03 258.075Z" fill="url(#paint1_radial_1356_32812)"/>
<path d="M201.199 70.9346L188.275 100.495L182.225 96.3705L178.266 104.345L188.99 112.402L205.791 73.2444L201.199 70.9346Z" fill="url(#paint2_linear_1356_32812)"/>
<defs>
<linearGradient id="paint0_linear_1356_32812" x1="115.048" y1="160.166" x2="214.124" y2="-11.4229" gradientUnits="userSpaceOnUse">
<stop offset="0.41" stop-color="#BBC0E6"/>
<stop offset="0.58" stop-color="#CED3F8"/>
</linearGradient>
<radialGradient id="paint1_radial_1356_32812" cx="0" cy="0" r="1" gradientUnits="userSpaceOnUse" gradientTransform="translate(182.063 214) rotate(-30.3355) scale(156.416 40.6682)">
<stop stop-color="#C4D4EA" stop-opacity="0.4"/>
<stop offset="0.194231" stop-color="#D1DEEE" stop-opacity="0.31"/>
<stop offset="0.35" stop-color="#E5ECF5" stop-opacity="0.17"/>
<stop offset="0.56" stop-color="#F3F6FA" stop-opacity="0.08"/>
<stop offset="0.76" stop-color="#FCFCFD" stop-opacity="0.02"/>
<stop offset="0.94" stop-color="white" stop-opacity="0"/>
</radialGradient>
<linearGradient id="paint2_linear_1356_32812" x1="178.266" y1="91.6683" x2="205.791" y2="91.6683" gradientUnits="userSpaceOnUse">
<stop offset="0.3" stop-color="#7CB1A4"/>
<stop offset="0.43" stop-color="#6CA899"/>
<stop offset="0.85" stop-color="#43907C"/>
</linearGradient>
</defs>
</svg>
