<svg width="547" height="547" viewBox="0 0 547 547" fill="none" xmlns="http://www.w3.org/2000/svg">
<circle opacity="0.1" cx="273.04" cy="273.04" r="273.04" fill="#F4F9DD"/>
<circle opacity="0.5" cx="273.04" cy="273.04" r="201.261" fill="#F4F9DD"/>
<circle cx="273.04" cy="273.04" r="133.001" fill="#F4F9DD"/>
<path style="mix-blend-mode:multiply" d="M294.718 336.136C293.324 335.326 290.921 334.6 288.162 334.06C285.403 333.534 282.302 333.207 279.501 333.207H228.531C225.729 333.207 223.767 333.534 222.842 334.06C221.918 334.586 222.06 335.326 223.454 336.136V368.049C222.06 368.86 221.918 369.585 222.842 370.125C223.753 370.652 225.729 370.979 228.531 370.979H279.487C282.288 370.979 285.388 370.652 288.147 370.125C290.906 369.599 293.31 368.86 294.704 368.049V336.136H294.718Z" fill="url(#paint0_linear_1769_1442)"/>
<path style="mix-blend-mode:multiply" d="M393.372 271.457H323.303V313.794H393.372V271.457Z" fill="url(#paint1_linear_1769_1442)"/>
<path style="mix-blend-mode:multiply" d="M339.615 309.059C338.292 308.291 336.031 307.608 333.443 307.11C330.854 306.613 327.925 306.3 325.294 306.3H277.282C274.651 306.3 272.788 306.613 271.921 307.11C271.053 307.608 271.181 308.305 272.504 309.059V339.109C271.181 339.877 271.053 340.559 271.921 341.057C272.788 341.555 274.637 341.868 277.282 341.868H325.28C327.911 341.868 330.84 341.555 333.428 341.057C336.017 340.559 338.278 339.862 339.601 339.109V309.059H339.615Z" fill="url(#paint2_linear_1769_1442)"/>
<path d="M323.303 272.665L287.678 252.101L323.303 231.537L358.927 252.101L323.303 272.665Z" fill="#D0DCEC"/>
<path d="M323.303 313.794L287.678 293.23V252.101L323.303 272.665V313.794Z" fill="#DDEBE7"/>
<path d="M323.302 313.794L358.927 293.23V252.101L323.302 272.665V313.794Z" fill="#CFE2DD"/>
<g style="mix-blend-mode:multiply">
<path d="M323.302 238.419L320.458 236.77L323.302 235.134L326.147 236.77L323.302 238.419Z" fill="#E6F1ED"/>
<path d="M329.943 242.245L327.085 240.61L329.943 238.96L332.788 240.61L329.943 242.245Z" fill="#E6F1ED"/>
<path d="M336.572 246.085L333.728 244.435L336.572 242.786L339.416 244.435L336.572 246.085Z" fill="#E6F1ED"/>
<path d="M343.212 249.911L340.354 248.261L343.212 246.625L346.056 248.261L343.212 249.911Z" fill="#E6F1ED"/>
<path d="M349.839 253.736L346.995 252.101L349.839 250.451L352.698 252.101L349.839 253.736Z" fill="#E6F1ED"/>
<path d="M316.676 242.245L313.817 240.61L316.676 238.96L319.52 240.61L316.676 242.245Z" fill="#E6F1ED"/>
<path d="M323.302 246.085L320.458 244.435L323.302 242.786L326.147 244.435L323.302 246.085Z" fill="#E6F1ED"/>
<path d="M329.943 249.911L327.085 248.261L329.943 246.625L332.788 248.261L329.943 249.911Z" fill="#E6F1ED"/>
<path d="M336.572 253.736L333.728 252.101L336.572 250.451L339.416 252.101L336.572 253.736Z" fill="#E6F1ED"/>
<path d="M343.212 257.576L340.354 255.926L343.212 254.291L346.056 255.926L343.212 257.576Z" fill="#E6F1ED"/>
<path d="M310.034 246.085L307.189 244.435L310.034 242.786L312.878 244.435L310.034 246.085Z" fill="#E6F1ED"/>
<path d="M316.676 249.911L313.817 248.261L316.676 246.625L319.52 248.261L316.676 249.911Z" fill="#E6F1ED"/>
<path d="M323.302 253.736L320.458 252.101L323.302 250.451L326.147 252.101L323.302 253.736Z" fill="#E6F1ED"/>
<path d="M329.943 257.576L327.085 255.926L329.943 254.291L332.788 255.926L329.943 257.576Z" fill="#E6F1ED"/>
<path d="M336.572 261.402L333.728 259.766L336.572 258.117L339.416 259.766L336.572 261.402Z" fill="#E6F1ED"/>
<path d="M303.407 249.911L300.549 248.261L303.407 246.625L306.252 248.261L303.407 249.911Z" fill="#E6F1ED"/>
<path d="M310.034 253.736L307.189 252.101L310.034 250.451L312.878 252.101L310.034 253.736Z" fill="#E6F1ED"/>
<path d="M316.676 257.576L313.817 255.926L316.676 254.291L319.52 255.926L316.676 257.576Z" fill="#E6F1ED"/>
<path d="M323.302 261.402L320.458 259.766L323.302 258.117L326.147 259.766L323.302 261.402Z" fill="#E6F1ED"/>
<path d="M329.943 265.242L327.085 263.592L329.943 261.942L332.788 263.592L329.943 265.242Z" fill="#E6F1ED"/>
<path d="M296.765 253.736L293.921 252.101L296.765 250.451L299.609 252.101L296.765 253.736Z" fill="#E6F1ED"/>
<path d="M303.407 257.576L300.549 255.926L303.407 254.291L306.252 255.926L303.407 257.576Z" fill="#E6F1ED"/>
<path d="M310.034 261.402L307.189 259.766L310.034 258.117L312.878 259.766L310.034 261.402Z" fill="#E6F1ED"/>
<path d="M316.676 265.242L313.817 263.592L316.676 261.942L319.52 263.592L316.676 265.242Z" fill="#E6F1ED"/>
<path d="M323.302 269.067L320.458 267.417L323.302 265.782L326.147 267.417L323.302 269.067Z" fill="#E6F1ED"/>
<path d="M293.651 262.426L290.807 260.79V257.505L293.651 259.14V262.426Z" fill="#E6F1ED"/>
<path d="M300.279 266.265L297.435 264.616V261.331L300.279 262.98V266.265Z" fill="#E6F1ED"/>
<path d="M306.919 270.091L304.075 268.455V265.156L306.919 266.805V270.091Z" fill="#E6F1ED"/>
<path d="M313.547 273.931L310.703 272.281V268.996L313.547 270.632V273.931Z" fill="#E6F1ED"/>
<path d="M320.188 277.757L317.344 276.107V272.822L320.188 274.471V277.757Z" fill="#E6F1ED"/>
<path d="M293.651 270.091L290.807 268.455V265.156L293.651 266.805V270.091Z" fill="#E6F1ED"/>
<path d="M300.279 273.917L297.435 272.281V268.996L300.279 270.632V273.917Z" fill="#E6F1ED"/>
<path d="M306.919 277.757L304.075 276.107V272.822L306.919 274.471V277.757Z" fill="#E6F1ED"/>
<path d="M313.547 281.582L310.703 279.946V276.647L313.547 278.297V281.582Z" fill="#E6F1ED"/>
<path d="M320.188 285.422L317.344 283.772V280.487L320.188 282.122V285.422Z" fill="#E6F1ED"/>
<path d="M293.651 277.757L290.807 276.107V272.822L293.651 274.471V277.757Z" fill="#E6F1ED"/>
<path d="M300.279 281.582L297.435 279.946V276.647L300.279 278.297V281.582Z" fill="#E6F1ED"/>
<path d="M306.919 285.422L304.075 283.772V280.487L306.919 282.122V285.422Z" fill="#E6F1ED"/>
<path d="M313.547 289.247L310.703 287.598V284.312L313.547 285.962V289.247Z" fill="#E6F1ED"/>
<path d="M320.188 293.073L317.344 291.437V288.138L320.188 289.787V293.073Z" fill="#E6F1ED"/>
<path d="M293.651 285.422L290.807 283.772V280.487L293.651 282.122V285.422Z" fill="#E6F1ED"/>
<path d="M300.279 289.247L297.435 287.598V284.312L300.279 285.962V289.247Z" fill="#E6F1ED"/>
<path d="M306.919 293.073L304.075 291.437V288.138L306.919 289.787V293.073Z" fill="#E6F1ED"/>
<path d="M313.547 296.913L310.703 295.263V291.978L313.547 293.613V296.913Z" fill="#E6F1ED"/>
<path d="M320.188 300.739L317.344 299.089V295.804L320.188 297.453V300.739Z" fill="#E6F1ED"/>
<path d="M293.651 293.073L290.807 291.437V288.138L293.651 289.787V293.073Z" fill="#E6F1ED"/>
<path d="M300.279 296.913L297.435 295.263V291.978L300.279 293.613V296.913Z" fill="#E6F1ED"/>
<path d="M306.919 300.739L304.075 299.089V295.804L306.919 297.453V300.739Z" fill="#E6F1ED"/>
<path d="M313.547 304.564L310.703 302.928V299.629L313.547 301.279V304.564Z" fill="#E6F1ED"/>
<path d="M320.188 308.403L317.344 306.753V303.468L320.188 305.104V308.403Z" fill="#E6F1ED"/>
<path d="M352.969 262.426L355.813 260.79V257.505L352.969 259.14V262.426Z" fill="#E6F1ED"/>
<path d="M346.327 266.265L349.171 264.616V261.331L346.327 262.98V266.265Z" fill="#E6F1ED"/>
<path d="M339.686 270.091L342.544 268.455V265.156L339.686 266.805V270.091Z" fill="#E6F1ED"/>
<path d="M333.059 273.931L335.903 272.281V268.996L333.059 270.632V273.931Z" fill="#E6F1ED"/>
<path d="M326.417 277.757L329.276 276.107V272.822L326.417 274.471V277.757Z" fill="#E6F1ED"/>
<path d="M352.969 270.091L355.813 268.455V265.156L352.969 266.805V270.091Z" fill="#E6F1ED"/>
<path d="M346.327 273.917L349.171 272.281V268.996L346.327 270.632V273.917Z" fill="#E6F1ED"/>
<path d="M339.686 277.757L342.544 276.107V272.822L339.686 274.471V277.757Z" fill="#E6F1ED"/>
<path d="M333.059 281.582L335.903 279.946V276.647L333.059 278.297V281.582Z" fill="#E6F1ED"/>
<path d="M326.417 285.422L329.276 283.772V280.487L326.417 282.122V285.422Z" fill="#E6F1ED"/>
<path d="M352.969 277.757L355.813 276.107V272.822L352.969 274.471V277.757Z" fill="#E6F1ED"/>
<path d="M346.327 281.582L349.171 279.946V276.647L346.327 278.297V281.582Z" fill="#E6F1ED"/>
<path d="M339.686 285.422L342.544 283.772V280.487L339.686 282.122V285.422Z" fill="#E6F1ED"/>
<path d="M333.059 289.247L335.903 287.598V284.312L333.059 285.962V289.247Z" fill="#E6F1ED"/>
<path d="M326.417 293.073L329.276 291.437V288.138L326.417 289.787V293.073Z" fill="#E6F1ED"/>
<path d="M352.969 285.422L355.813 283.772V280.487L352.969 282.122V285.422Z" fill="#E6F1ED"/>
<path d="M346.327 289.247L349.171 287.598V284.312L346.327 285.962V289.247Z" fill="#E6F1ED"/>
<path d="M339.686 293.073L342.544 291.437V288.138L339.686 289.787V293.073Z" fill="#E6F1ED"/>
<path d="M333.059 296.913L335.903 295.263V291.978L333.059 293.613V296.913Z" fill="#E6F1ED"/>
<path d="M326.417 300.739L329.276 299.089V295.804L326.417 297.453V300.739Z" fill="#E6F1ED"/>
<path d="M352.969 293.073L355.813 291.437V288.138L352.969 289.787V293.073Z" fill="#E6F1ED"/>
<path d="M346.327 296.913L349.171 295.263V291.978L346.327 293.613V296.913Z" fill="#E6F1ED"/>
<path d="M339.686 300.739L342.544 299.089V295.804L339.686 297.453V300.739Z" fill="#E6F1ED"/>
<path d="M333.059 304.564L335.903 302.928V299.629L333.059 301.279V304.564Z" fill="#E6F1ED"/>
<path d="M326.417 308.403L329.276 306.753V303.468L326.417 305.104V308.403Z" fill="#E6F1ED"/>
</g>
<path d="M301.373 326.465L275.889 341.17C274.495 341.981 273.215 342.052 272.305 341.526C271.38 341 270.812 339.862 270.812 338.241V308.817C270.812 307.195 271.38 305.403 272.305 303.825C273.215 302.232 274.495 300.853 275.889 300.042L301.373 285.323C302.781 284.512 304.047 284.441 304.957 284.967C305.882 285.493 306.436 286.631 306.436 288.252V317.677C306.436 319.298 305.867 321.09 304.957 322.668C304.033 324.261 302.767 325.641 301.373 326.451V326.465Z" fill="#CFE2DD"/>
<path d="M298.97 323.962L278.32 335.894C277.182 336.548 276.158 336.619 275.419 336.178C274.679 335.752 274.21 334.827 274.21 333.519V309.67C274.21 308.361 274.665 306.911 275.419 305.617C276.158 304.322 277.196 303.199 278.32 302.545L298.97 290.613C300.107 289.959 301.131 289.902 301.871 290.328C302.61 290.755 303.08 291.679 303.08 292.988V316.837C303.08 318.146 302.624 319.596 301.871 320.89C301.131 322.185 300.093 323.308 298.97 323.962Z" fill="url(#paint3_linear_1769_1442)"/>
<path d="M270.825 338.241V308.817C270.825 307.195 271.394 305.404 272.319 303.825C273.229 302.232 274.509 300.853 275.903 300.042L301.387 285.323C302.795 284.512 304.061 284.441 304.971 284.967L271.593 265.697C270.669 265.171 269.403 265.242 268.01 266.053L242.525 280.758C241.117 281.568 239.851 282.948 238.941 284.541C238.031 286.133 237.462 287.925 237.462 289.532V318.957C237.462 320.578 238.031 321.716 238.941 322.242L272.319 341.512C271.394 340.986 270.825 339.848 270.825 338.227V338.241Z" fill="url(#paint4_linear_1769_1442)"/>
<path style="mix-blend-mode:multiply" d="M301.374 285.323C302.781 284.512 304.047 284.441 304.957 284.967L271.58 265.697C270.655 265.171 269.389 265.242 267.996 266.053L246.55 278.44L279.928 297.71L301.374 285.323Z" fill="url(#paint5_linear_1769_1442)"/>
<path d="M317.884 220.672L290.764 205.014C289.271 204.161 288.531 203.023 288.531 201.9C288.531 200.776 289.271 199.639 290.764 198.785L317.884 183.128C319.378 182.274 321.326 181.833 323.274 181.833C325.223 181.833 327.185 182.26 328.678 183.128L355.799 198.785C357.292 199.639 358.032 200.776 358.032 201.9C358.032 203.023 357.292 204.161 355.799 205.014L328.678 220.672C327.185 221.526 325.237 221.966 323.274 221.966C321.312 221.966 319.363 221.54 317.884 220.672Z" fill="#D0DCEC"/>
<path style="mix-blend-mode:multiply" d="M324.128 232.007L304.63 243.27C303.137 244.124 302.397 245.261 302.397 246.385C302.397 247.508 303.137 248.646 304.63 249.499L331.751 265.157C332.575 265.626 333.528 265.954 334.552 266.167L358.928 252.088L324.128 231.993V232.007Z" fill="url(#paint6_linear_1769_1442)"/>
<path d="M355.799 205L328.678 220.658C327.185 221.511 325.237 221.952 323.274 221.952C321.312 221.952 319.363 221.526 317.884 220.658L290.764 205C289.271 204.147 288.531 203.009 288.531 201.886V242.9C288.531 244.024 289.271 245.162 290.764 246.015L317.884 261.673C319.378 262.526 321.326 262.967 323.274 262.967C325.223 262.967 327.185 262.54 328.678 261.673L355.799 246.015C357.292 245.162 358.032 244.024 358.032 242.9V201.886C358.032 203.009 357.292 204.147 355.799 205Z" fill="url(#paint7_linear_1769_1442)"/>
<path d="M323.274 198.017L329.987 201.885L323.274 205.754L316.576 201.885L323.274 198.017Z" fill="#E6F1ED"/>
<path d="M334.111 204.274L340.81 208.143L334.111 212.011L327.413 208.143L334.111 204.274Z" fill="#E6F1ED"/>
<path d="M344.948 198.017L351.647 201.885L344.948 205.754L338.25 201.885L344.948 198.017Z" fill="#E6F1ED"/>
<path d="M323.274 210.532L329.987 214.4L323.274 218.268L316.576 214.4L323.274 210.532Z" fill="#E6F1ED"/>
<path d="M312.452 191.774L319.15 195.642L312.452 199.51L305.739 195.642L312.452 191.774Z" fill="#E6F1ED"/>
<path d="M334.111 191.774L340.81 195.642L334.111 199.51L327.413 195.642L334.111 191.774Z" fill="#E6F1ED"/>
<path d="M323.274 185.517L329.987 189.385L323.274 193.253L316.576 189.385L323.274 185.517Z" fill="#E6F1ED"/>
<path d="M301.615 198.017L308.314 201.885L301.615 205.754L294.917 201.885L301.615 198.017Z" fill="#E6F1ED"/>
<path d="M312.452 204.274L319.15 208.143L312.452 212.011L305.739 208.143L312.452 204.274Z" fill="#E6F1ED"/>
<path d="M251.911 355.051L226.426 369.756C225.032 370.566 223.752 370.638 222.842 370.111C221.918 369.585 221.363 368.447 221.363 366.826V337.402C221.363 335.781 221.932 333.989 222.842 332.41C223.767 330.817 225.032 329.438 226.426 328.627L251.911 313.922C253.319 313.112 254.585 313.041 255.495 313.567C256.419 314.093 256.988 315.231 256.988 316.852V346.276C256.988 347.897 256.419 349.689 255.495 351.268C254.585 352.861 253.305 354.24 251.911 355.051Z" fill="#CFE2DD"/>
<path d="M221.364 366.84V337.416C221.364 335.795 221.932 334.003 222.843 332.425C223.767 330.832 225.033 329.452 226.426 328.642L251.911 313.937C253.319 313.126 254.585 313.055 255.495 313.581L222.117 294.311C221.193 293.785 219.927 293.856 218.533 294.667L193.063 309.357C191.669 310.168 190.389 311.547 189.479 313.14C188.569 314.733 188 316.525 188 318.132V347.556C188 349.177 188.569 350.315 189.479 350.841L222.857 370.111C221.932 369.585 221.378 368.447 221.378 366.826L221.364 366.84Z" fill="url(#paint8_linear_1769_1442)"/>
<g style="mix-blend-mode:multiply">
<path d="M225.16 338.028V362.19L236.722 343.489L225.16 338.028ZM253.191 346.49V321.616L241.287 340.872L253.191 346.49ZM250.602 321.047L227.521 334.373L239.012 339.805L250.602 321.047ZM227.521 363.157L250.389 349.945L238.998 344.57L227.507 363.157H227.521Z" fill="#E6F1ED"/>
</g>
<path d="M240.279 280.999L265.764 295.704C267.157 296.515 268.437 296.586 269.347 296.06C270.272 295.533 270.826 294.396 270.826 292.775V263.35C270.826 261.729 270.258 259.937 269.347 258.359C268.423 256.766 267.157 255.386 265.764 254.576L240.279 239.856C238.885 239.046 237.605 238.975 236.695 239.501C235.77 240.027 235.216 241.165 235.216 242.786V272.21C235.216 273.832 235.785 275.623 236.695 277.202C237.619 278.795 238.885 280.174 240.279 280.985V280.999Z" fill="#DDEBE7"/>
<path d="M270.826 292.775V263.35C270.826 261.729 270.257 259.937 269.347 258.359C268.422 256.766 267.157 255.386 265.763 254.576L240.278 239.857C238.884 239.046 237.605 238.975 236.694 239.501L270.072 220.231C270.982 219.705 272.262 219.776 273.656 220.586L299.141 235.306C300.534 236.116 301.814 237.496 302.725 239.089C303.635 240.681 304.204 242.473 304.204 244.08V273.505C304.204 275.126 303.635 276.263 302.725 276.79L269.347 296.06C270.271 295.534 270.826 294.396 270.826 292.775Z" fill="url(#paint9_linear_1769_1442)"/>
<path style="mix-blend-mode:multiply" d="M299.127 235.306L273.642 220.586C272.248 219.776 270.968 219.705 270.058 220.231L248.882 232.461C249.024 232.646 249.195 232.817 249.394 233.002L247.787 233.926C248.697 233.4 249.963 233.471 251.357 234.267L276.856 248.987C278.249 249.797 279.529 251.177 280.44 252.77C281.364 254.362 281.919 256.154 281.919 257.761V287.186C281.919 287.868 281.819 288.451 281.634 288.949L302.71 276.79C303.621 276.263 304.189 275.126 304.189 273.505V244.08C304.189 242.459 303.621 240.667 302.71 239.089C301.786 237.496 300.52 236.116 299.127 235.306Z" fill="url(#paint10_linear_1769_1442)"/>
<path d="M238.999 270.105L267.03 286.289V290.456L238.999 274.272V270.105Z" fill="#CFE2DD"/>
<path d="M238.999 261.9L267.03 278.084V282.251L238.999 266.067V261.9Z" fill="#CFE2DD"/>
<path d="M238.999 253.694L267.03 269.878V274.045L238.999 257.861V253.694Z" fill="#CFE2DD"/>
<path d="M238.999 245.488L267.03 261.672V265.839L238.999 249.655V245.488Z" fill="#CFE2DD"/>
<path d="M265.421 205.839L238.301 190.181C236.808 189.328 236.068 188.19 236.068 187.066C236.068 185.943 236.808 184.805 238.301 183.952L265.421 168.294C266.915 167.427 268.863 167 270.826 167C272.788 167 274.737 167.427 276.216 168.294L303.336 183.952C304.829 184.819 305.569 185.943 305.569 187.066C305.569 188.19 304.829 189.328 303.336 190.181L276.216 205.839C274.722 206.706 272.774 207.133 270.826 207.133C268.877 207.133 266.915 206.706 265.421 205.839Z" fill="#D0DCEC"/>
<path d="M303.336 190.181L276.216 205.839C274.722 206.706 272.774 207.133 270.826 207.133C268.877 207.133 266.915 206.706 265.421 205.839L238.301 190.181C236.808 189.328 236.068 188.19 236.068 187.066V228.095C236.068 229.219 236.808 230.342 238.301 231.21L265.421 246.868C266.915 247.735 268.863 248.162 270.826 248.162C272.788 248.162 274.737 247.735 276.216 246.868L303.336 231.21C304.829 230.342 305.569 229.219 305.569 228.095V187.066C305.569 188.19 304.829 189.328 303.336 190.181Z" fill="url(#paint11_linear_1769_1442)"/>
<path d="M261.183 181.506C266.502 178.434 275.135 178.434 280.468 181.506C285.787 184.578 285.787 189.57 280.468 192.641C275.149 195.713 266.517 195.713 261.183 192.641C255.865 189.57 255.865 184.592 261.183 181.506Z" fill="url(#paint12_linear_1769_1442)"/>
<defs>
<linearGradient id="paint0_linear_1769_1442" x1="222.274" y1="352.093" x2="294.718" y2="352.093" gradientUnits="userSpaceOnUse">
<stop stop-color="#D5E7E2"/>
<stop offset="1" stop-color="white"/>
</linearGradient>
<linearGradient id="paint1_linear_1769_1442" x1="323.303" y1="292.632" x2="393.372" y2="292.632" gradientUnits="userSpaceOnUse">
<stop stop-color="#D5E7E2"/>
<stop offset="0.58" stop-color="#F0F6F4"/>
<stop offset="1" stop-color="white"/>
</linearGradient>
<linearGradient id="paint2_linear_1769_1442" x1="271.38" y1="324.077" x2="339.615" y2="324.077" gradientUnits="userSpaceOnUse">
<stop stop-color="#D5E7E2"/>
<stop offset="1" stop-color="white"/>
</linearGradient>
<linearGradient id="paint3_linear_1769_1442" x1="276.215" y1="334.742" x2="301.871" y2="290.328" gradientUnits="userSpaceOnUse">
<stop offset="0.38" stop-color="#92BEB2"/>
<stop offset="0.59" stop-color="#70AA9A"/>
</linearGradient>
<linearGradient id="paint4_linear_1769_1442" x1="247.46" y1="327.177" x2="280.112" y2="270.618" gradientUnits="userSpaceOnUse">
<stop offset="0.41" stop-color="#DDEBE7"/>
<stop offset="0.62" stop-color="#D0DCEC"/>
</linearGradient>
<linearGradient id="paint5_linear_1769_1442" x1="267.043" y1="266.607" x2="284.478" y2="296.8" gradientUnits="userSpaceOnUse">
<stop stop-color="#E0ECE8"/>
<stop offset="1" stop-color="#D0DCEC"/>
</linearGradient>
<linearGradient id="paint6_linear_1769_1442" x1="302.383" y1="249.087" x2="358.928" y2="249.087" gradientUnits="userSpaceOnUse">
<stop stop-color="#E0ECE8"/>
<stop offset="1" stop-color="#D0DCEC"/>
</linearGradient>
<linearGradient id="paint7_linear_1769_1442" x1="288.531" y1="232.433" x2="358.032" y2="232.433" gradientUnits="userSpaceOnUse">
<stop offset="0.4" stop-color="#DDEBE7"/>
<stop offset="0.57" stop-color="#CFE2DD"/>
</linearGradient>
<linearGradient id="paint8_linear_1769_1442" x1="197.998" y1="355.776" x2="230.65" y2="299.217" gradientUnits="userSpaceOnUse">
<stop offset="0.41" stop-color="#DDEBE7"/>
<stop offset="0.6" stop-color="#D0DCEC"/>
</linearGradient>
<linearGradient id="paint9_linear_1769_1442" x1="294.192" y1="281.71" x2="261.539" y2="225.152" gradientUnits="userSpaceOnUse">
<stop offset="0.41" stop-color="#C7DED7"/>
<stop offset="0.62" stop-color="#D0DCEC"/>
</linearGradient>
<linearGradient id="paint10_linear_1769_1442" x1="266.915" y1="222.051" x2="299.567" y2="278.61" gradientUnits="userSpaceOnUse">
<stop offset="0.24" stop-color="#E6F1ED"/>
<stop offset="0.49" stop-color="#F6FAF8"/>
<stop offset="0.6" stop-color="white"/>
</linearGradient>
<linearGradient id="paint11_linear_1769_1442" x1="236.068" y1="217.614" x2="305.583" y2="217.614" gradientUnits="userSpaceOnUse">
<stop offset="0.4" stop-color="#DDEBE7"/>
<stop offset="0.57" stop-color="#CFE2DD"/>
</linearGradient>
<linearGradient id="paint12_linear_1769_1442" x1="257.187" y1="187.067" x2="284.45" y2="187.067" gradientUnits="userSpaceOnUse">
<stop stop-color="#BCD7D0"/>
<stop offset="1" stop-color="#CFE2DD"/>
</linearGradient>
</defs>
</svg>
