<svg width="547" height="547" viewBox="0 0 547 547" fill="none" xmlns="http://www.w3.org/2000/svg">
<circle opacity="0.1" cx="273.04" cy="273.04" r="273.04" fill="#F4F9DD"/>
<circle opacity="0.5" cx="273.04" cy="273.04" r="201.261" fill="#F4F9DD"/>
<circle cx="273.04" cy="273.04" r="133.001" fill="#F4F9DD"/>
<path d="M375.193 317.235L355.298 305.754L277.671 260.931C276.439 260.224 275.443 260.8 275.443 262.216V269.922C275.443 271.338 276.453 273.081 277.671 273.788L355.298 318.611L375.193 330.091C376.425 330.799 377.421 330.223 377.421 328.807V321.101C377.421 319.685 376.411 317.942 375.193 317.235Z" fill="white"/>
<path d="M377.001 316.186L357.107 304.705L279.48 259.883C278.851 259.516 278.274 259.503 277.868 259.752L276.125 260.761C276.531 260.538 277.082 260.577 277.685 260.918L355.311 305.74L375.206 317.221C376.438 317.929 377.434 319.672 377.434 321.087V328.794C377.434 329.475 377.198 329.947 376.831 330.196L378.522 329.213C378.954 328.99 379.229 328.492 379.229 327.745V320.039C379.229 318.624 378.22 316.88 377.001 316.173V316.186Z" fill="url(#paint0_linear_1769_1441)"/>
<path d="M289.848 269.988L365.495 313.67V322.608L289.848 278.926V269.988Z" fill="#E9F2EE"/>
<path d="M367.631 316.239V317.248L374.735 321.35V320.341L367.631 316.239ZM367.631 319.673L374.735 323.775V322.766L367.631 318.663V319.673ZM367.631 322.097L374.735 326.199V325.19L367.631 321.088V322.097Z" fill="#E0ECE8"/>
<path d="M282.745 266.711L284.789 267.891C284.134 266.934 283.308 266.122 282.417 265.61C280.228 264.352 278.459 265.374 278.459 267.904C278.459 268.559 278.577 269.241 278.787 269.922L279.062 268.9L282.745 266.711ZM284.855 267.983L284.304 270.014C284.212 270.342 283.95 270.551 283.61 270.538L282.325 270.499L284.815 271.927L284.422 273.395L283.531 272.884L283.256 273.906L281.604 272.95L281.88 271.927L278.865 270.184C279.521 272.058 280.857 273.854 282.404 274.745C284.593 276.003 286.362 274.981 286.362 272.452C286.362 270.984 285.759 269.332 284.842 267.969L284.855 267.983ZM281.119 269.804L282.338 270.499L282.81 268.756L281.133 269.791L281.119 269.804Z" fill="#A3C8BD"/>
<path d="M327.671 289.057C327.409 289.057 327.199 288.847 327.199 288.585V247.878C327.199 247.616 327.409 247.406 327.671 247.406C327.933 247.406 328.143 247.616 328.143 247.878V288.585C328.143 288.847 327.933 289.057 327.671 289.057Z" fill="#62A292"/>
<path style="mix-blend-mode:multiply" d="M281.29 335.399L258.079 322.005C256.283 320.97 253.361 320.97 251.565 322.005L230.281 334.298C228.486 335.334 228.486 337.024 230.281 338.06L251.906 350.55L248.983 352.24H256.795C257.961 352.24 259.127 351.978 260.005 351.467L281.29 339.174C283.085 338.138 283.072 336.448 281.29 335.412V335.399Z" fill="url(#paint1_linear_1769_1441)"/>
<path d="M245.719 318.506C247.515 317.47 250.437 317.47 252.233 318.506L275.444 331.9C277.226 332.935 277.239 334.626 275.444 335.661L252.233 349.055C250.437 350.091 247.515 350.091 245.719 349.055L222.509 335.661C220.713 334.626 220.713 332.935 222.509 331.9L245.719 318.506Z" fill="#D0DCEC"/>
<path d="M275.443 335.661L252.233 349.055C250.437 350.091 247.515 350.091 245.719 349.055L222.509 335.661C221.67 335.176 221.237 334.547 221.185 333.905V336.041C221.132 336.762 221.565 337.496 222.522 338.046L245.732 351.441C247.528 352.476 250.45 352.476 252.246 351.441L275.457 338.046C276.413 337.496 276.846 336.762 276.78 336.028V333.905C276.715 334.547 276.295 335.176 275.443 335.661Z" fill="url(#paint2_linear_1769_1441)"/>
<path style="mix-blend-mode:multiply" d="M252.811 333.106H239.718V334.561H252.811V333.106Z" fill="url(#paint3_linear_1769_1441)"/>
<path style="mix-blend-mode:multiply" d="M271.46 333.106H258.367V334.561H271.46V333.106Z" fill="url(#paint4_linear_1769_1441)"/>
<path style="mix-blend-mode:multiply" d="M262.968 337.235L262.666 335.806L250.006 338.493H249.036V339.948H262.129V338.493H257.031L262.968 337.235Z" fill="url(#paint5_linear_1769_1441)"/>
<path style="mix-blend-mode:multiply" d="M262.129 327.733H249.036V329.188H262.129V327.733Z" fill="url(#paint6_linear_1769_1441)"/>
<path d="M239.718 321.795L240.871 321.14V333.905L239.718 334.574V321.795Z" fill="#70AA9A"/>
<path d="M249.036 336.579L250.189 337.247L258.223 319.83L257.083 319.174L249.036 336.579Z" fill="#81B4A6"/>
<path d="M249.036 313.041V314.377L257.214 319.095V317.759L249.036 313.041Z" fill="#81B4A6"/>
<path d="M240.871 317.759L242.024 318.427L249.036 314.377V313.041L240.871 317.759Z" fill="#70AA9A"/>
<path d="M249.037 314.377L247.896 315.032V321.808L249.037 322.476V314.377Z" fill="#81B4A6"/>
<path d="M250.189 315.032L249.036 314.377V322.476L250.189 321.808V315.032Z" fill="#70AA9A"/>
<path d="M258.367 334.574L257.214 333.905V324.299L258.367 321.795V334.574Z" fill="#81B4A6"/>
<path d="M249.036 339.947L250.321 339.2L258.354 321.795V334.561L259.508 333.892V317.746L258.931 318.073L258.354 318.401L250.189 323.119L249.613 323.447L249.036 323.774V339.921V339.947ZM258.223 319.829L250.189 337.234V324.469L258.223 319.829Z" fill="#70AA9A"/>
<path d="M239.718 318.427L247.883 323.145L249.036 323.814L250.189 323.145L259.508 317.759L249.036 311.717L238.564 317.759L239.718 318.427ZM249.036 313.04L257.201 317.759L249.036 322.477L240.871 317.759L249.036 313.04Z" fill="#A3C8BD"/>
<path d="M238.564 333.905L239.718 334.573V321.808L247.752 339.213L249.036 339.96V323.813L248.459 323.486L247.883 323.158L239.718 318.44L239.141 318.112L238.564 317.785V333.931V333.905ZM247.883 324.469V337.234L239.849 319.829L247.883 324.469Z" fill="#81B4A6"/>
<path d="M247.896 337.247V334.089L241.841 320.983L239.862 319.83L247.896 337.247Z" fill="#70AA9A"/>
<path d="M239.718 305.649L240.871 304.994V317.759L239.718 318.427V305.649Z" fill="#70AA9A"/>
<path d="M249.036 320.433L250.189 321.101L258.223 303.683L257.083 303.028L249.036 320.433Z" fill="#81B4A6"/>
<path d="M249.036 296.894V298.231L257.214 302.949V301.612L249.036 296.894Z" fill="#81B4A6"/>
<path d="M240.871 301.612L242.024 302.281L249.036 298.231V296.894L240.871 301.612Z" fill="#70AA9A"/>
<path d="M249.037 298.231L247.896 298.886V305.662L249.037 306.33V298.231Z" fill="#81B4A6"/>
<path d="M250.189 298.886L249.036 298.231V306.33L250.189 305.662V298.886Z" fill="#70AA9A"/>
<path d="M258.367 318.427L257.214 317.759V308.152L258.367 305.649V318.427Z" fill="#81B4A6"/>
<path d="M249.036 323.801L250.321 323.054L258.354 305.649V318.415L259.508 317.746V301.6L258.931 301.927L258.354 302.255L250.189 306.973L249.613 307.301L249.036 307.628V323.775V323.801ZM258.223 303.683L250.189 321.088V308.323L258.223 303.683Z" fill="#70AA9A"/>
<path d="M239.718 302.281L247.883 306.999L249.036 307.668L250.189 306.999L259.508 301.613L249.036 295.571L238.564 301.613L239.718 302.281ZM249.036 296.895L257.201 301.613L249.036 306.331L240.871 301.613L249.036 296.895Z" fill="#A3C8BD"/>
<path d="M238.564 317.759L239.718 318.427V305.662L247.752 323.067L249.036 323.814V307.667L248.459 307.34L247.883 307.012L239.718 302.294L239.141 301.966L238.564 301.639V317.785V317.759ZM247.883 308.323V321.088L239.849 303.683L247.883 308.323Z" fill="#81B4A6"/>
<path d="M247.896 321.101V317.942L241.841 304.836L239.862 303.683L247.896 321.101Z" fill="#70AA9A"/>
<path d="M239.718 289.502L240.871 288.847V301.612L239.718 302.28V289.502Z" fill="#70AA9A"/>
<path d="M249.036 304.286L250.189 304.954L258.223 287.536L257.083 286.881L249.036 304.286Z" fill="#81B4A6"/>
<path d="M249.036 280.747V282.084L257.214 286.802V285.465L249.036 280.747Z" fill="#81B4A6"/>
<path d="M240.871 285.465L242.024 286.134L249.036 282.084V280.747L240.871 285.465Z" fill="#70AA9A"/>
<path d="M249.037 282.084L247.896 282.739V289.515L249.037 290.183V282.084Z" fill="#81B4A6"/>
<path d="M250.189 282.739L249.036 282.084V290.183L250.189 289.515V282.739Z" fill="#70AA9A"/>
<path d="M258.367 302.28L257.214 301.612V292.005L258.367 289.502V302.28Z" fill="#81B4A6"/>
<path d="M249.036 307.667L250.321 306.92L258.354 289.515V302.28L259.508 301.612V285.465L258.931 285.793L258.354 286.121L250.189 290.839L249.613 291.166L249.036 291.494V307.641V307.667ZM258.223 287.549L250.189 304.954V292.189L258.223 287.549Z" fill="#70AA9A"/>
<path d="M239.718 286.134L247.883 290.852L249.036 291.521L250.189 290.852L259.508 285.466L249.036 279.424L238.564 285.466L239.718 286.134ZM249.036 280.748L257.201 285.466L249.036 290.184L240.871 285.466L249.036 280.748Z" fill="#A3C8BD"/>
<path d="M238.564 301.612L239.718 302.28V289.515L247.752 306.92L249.036 307.667V291.52L248.459 291.193L247.883 290.865L239.718 286.147L239.141 285.819L238.564 285.492V301.638V301.612ZM247.883 292.176V304.941L239.849 287.536L247.883 292.176Z" fill="#81B4A6"/>
<path d="M247.896 304.954V301.795L241.841 288.689L239.862 287.536L247.896 304.954Z" fill="#70AA9A"/>
<path d="M239.718 273.356L240.871 272.701V285.466L239.718 286.134V273.356Z" fill="#70AA9A"/>
<path d="M249.036 288.14L250.189 288.808L258.223 271.39L257.07 270.735L249.036 288.14Z" fill="#81B4A6"/>
<path d="M249.036 264.601V265.938L257.214 270.656V269.319L249.036 264.601Z" fill="#81B4A6"/>
<path d="M240.871 269.319L242.024 269.988L249.036 265.938V264.601L240.871 269.319Z" fill="#70AA9A"/>
<path d="M249.037 265.938L247.896 266.593V273.369L249.037 274.037V265.938Z" fill="#81B4A6"/>
<path d="M250.189 266.593L249.036 265.938V274.037L250.189 273.369V266.593Z" fill="#70AA9A"/>
<path d="M258.367 286.134L257.214 285.466V275.859L258.367 273.356V286.134Z" fill="#81B4A6"/>
<path d="M249.036 291.521L250.321 290.774L258.354 273.369V286.134L259.508 285.466V269.319L258.931 269.647L258.354 269.975L250.189 274.693L249.613 275.02L249.036 275.348V291.495V291.521ZM258.223 271.403L250.189 288.808V276.043L258.223 271.403Z" fill="#70AA9A"/>
<path d="M239.718 269.988L247.883 274.706L249.036 275.374L250.189 274.706L259.508 269.319L249.036 263.277L238.564 269.319L239.718 269.988ZM249.036 264.601L257.201 269.319L249.036 274.037L240.871 269.319L249.036 264.601Z" fill="#A3C8BD"/>
<path d="M238.564 285.466L239.718 286.134V273.369L247.752 290.773L249.036 291.52V275.374L248.459 275.046L247.883 274.719L239.718 270.001L239.141 269.673L238.564 269.345V285.492V285.466ZM247.883 276.029V288.794L239.849 271.39L247.883 276.029Z" fill="#81B4A6"/>
<path d="M247.896 288.808V285.649L241.841 272.543L239.862 271.39L247.896 288.808Z" fill="#70AA9A"/>
<path d="M239.718 257.223L240.871 256.554V269.319L239.718 269.988V257.223Z" fill="#70AA9A"/>
<path d="M249.036 271.993L250.189 272.661L258.223 255.244L257.07 254.588L249.036 271.993Z" fill="#81B4A6"/>
<path d="M249.036 248.455V249.791L257.214 254.51V253.173L249.036 248.455Z" fill="#81B4A6"/>
<path d="M240.871 253.173L242.024 253.841L249.036 249.791V248.455L240.871 253.173Z" fill="#70AA9A"/>
<path d="M249.037 249.792L247.896 250.447V257.223L249.037 257.891V249.792Z" fill="#81B4A6"/>
<path d="M250.189 250.447L249.036 249.792V257.891L250.189 257.223V250.447Z" fill="#70AA9A"/>
<path d="M258.367 269.988L257.214 269.32V259.713L258.367 257.223V269.988Z" fill="#81B4A6"/>
<path d="M249.036 275.374L250.321 274.627L258.354 257.223V269.988L259.508 269.319V253.173L258.931 253.5L258.354 253.828L250.189 258.546L249.613 258.874L249.036 259.202V275.348V275.374ZM258.223 255.257L250.189 272.661V259.896L258.223 255.257Z" fill="#70AA9A"/>
<path d="M239.718 253.842L247.883 258.56L249.036 259.228L250.189 258.56L259.508 253.173L249.036 247.131L238.564 253.173L239.718 253.842ZM249.036 248.455L257.201 253.173L249.036 257.891L240.871 253.173L249.036 248.455Z" fill="#A3C8BD"/>
<path d="M238.564 269.32L239.718 269.988V257.223L247.752 274.627L249.036 275.374V259.228L248.459 258.9L247.883 258.573L239.718 253.855L239.141 253.527L238.564 253.199V269.346V269.32ZM247.883 259.883V272.648L239.849 255.244L247.883 259.883Z" fill="#81B4A6"/>
<path d="M247.896 272.661V269.503L241.841 256.397L239.862 255.244L247.896 272.661Z" fill="#70AA9A"/>
<path d="M239.718 241.076L240.871 240.407V253.172L239.718 253.841V241.076Z" fill="#70AA9A"/>
<path d="M249.036 255.846L250.189 256.514L258.223 239.097L257.07 238.441L249.036 255.846Z" fill="#81B4A6"/>
<path d="M249.036 232.308V233.644L257.214 238.363V237.026L249.036 232.308Z" fill="#81B4A6"/>
<path d="M240.871 237.026L242.024 237.694L249.036 233.644V232.308L240.871 237.026Z" fill="#70AA9A"/>
<path d="M249.037 233.645L247.896 234.313V241.089L249.037 241.744V233.645Z" fill="#81B4A6"/>
<path d="M250.189 234.313L249.036 233.645V241.744L250.189 241.089V234.313Z" fill="#70AA9A"/>
<path d="M258.367 253.841L257.214 253.173V243.566L258.367 241.076V253.841Z" fill="#81B4A6"/>
<path d="M249.036 259.227L250.321 258.48L258.354 241.076V253.841L259.508 253.172V237.026L258.931 237.354L258.354 237.681L250.189 242.399L249.613 242.727L249.036 243.055V259.201V259.227ZM258.223 239.11L250.189 256.514V243.749L258.223 239.11Z" fill="#70AA9A"/>
<path d="M239.718 237.695L247.883 242.413L249.036 243.081L250.189 242.413L259.508 237.026L249.036 230.984L238.564 237.026L239.718 237.695ZM249.036 232.308L257.201 237.026L249.036 241.744L240.871 237.026L249.036 232.308Z" fill="#A3C8BD"/>
<path d="M238.564 253.173L239.718 253.841V241.076L247.752 258.48L249.036 259.227V243.081L248.459 242.753L247.883 242.426L239.718 237.708L239.141 237.38L238.564 237.052V253.199V253.173ZM247.883 243.736V256.501L239.849 239.097L247.883 243.736Z" fill="#81B4A6"/>
<path d="M247.896 256.514V253.356L241.841 240.25L239.862 239.097L247.896 256.514Z" fill="#70AA9A"/>
<path d="M239.718 224.93L240.871 224.261V237.026L239.718 237.695V224.93Z" fill="#70AA9A"/>
<path d="M249.036 239.7L250.189 240.368L258.223 222.951L257.07 222.295L249.036 239.7Z" fill="#81B4A6"/>
<path d="M249.036 216.161V217.498L257.214 222.216V220.879L249.036 216.161Z" fill="#81B4A6"/>
<path d="M240.871 220.879L242.024 221.548L249.036 217.498V216.161L240.871 220.879Z" fill="#70AA9A"/>
<path d="M249.037 217.498L247.896 218.166V224.942L249.037 225.598V217.498Z" fill="#81B4A6"/>
<path d="M250.189 218.166L249.036 217.498V225.598L250.189 224.942V218.166Z" fill="#70AA9A"/>
<path d="M258.367 237.695L257.214 237.026V227.42L258.367 224.93V237.695Z" fill="#81B4A6"/>
<path d="M249.036 243.081L250.321 242.334L258.354 224.929V237.694L259.508 237.026V220.879L258.931 221.207L258.354 221.535L250.189 226.253L249.613 226.58L249.036 226.908V243.055V243.081ZM258.223 222.963L250.189 240.368V227.603L258.223 222.963Z" fill="#70AA9A"/>
<path d="M239.718 221.548L247.883 226.266L249.036 226.935L250.189 226.266L259.508 220.88L249.036 214.838L238.564 220.88L239.718 221.548ZM249.036 216.162L257.201 220.88L249.036 225.598L240.871 220.88L249.036 216.162Z" fill="#A3C8BD"/>
<path d="M238.564 237.026L239.718 237.694V224.929L247.752 242.334L249.036 243.081V226.934L248.459 226.607L247.883 226.279L239.718 221.561L239.141 221.233L238.564 220.906V237.052V237.026ZM247.883 227.59V240.355L239.849 222.95L247.883 227.59Z" fill="#81B4A6"/>
<path d="M247.896 240.368V237.21L241.841 224.104L239.862 222.951L247.896 240.368Z" fill="#70AA9A"/>
<path d="M239.718 208.783L240.871 208.115V220.88L239.718 221.548V208.783Z" fill="#70AA9A"/>
<path d="M249.036 223.554L250.189 224.222L258.223 206.817L257.07 206.149L249.036 223.554Z" fill="#81B4A6"/>
<path d="M249.036 200.015V201.352L257.214 206.07V204.733L249.036 200.015Z" fill="#81B4A6"/>
<path d="M240.871 204.733L242.024 205.402L249.036 201.352V200.015L240.871 204.733Z" fill="#70AA9A"/>
<path d="M249.037 201.352L247.896 202.02V208.796L249.037 209.452V201.352Z" fill="#81B4A6"/>
<path d="M250.189 202.02L249.036 201.352V209.452L250.189 208.796V202.02Z" fill="#70AA9A"/>
<path d="M258.367 221.549L257.214 220.88V211.274L258.367 208.784V221.549Z" fill="#81B4A6"/>
<path d="M249.036 226.935L250.321 226.188L258.354 208.783V221.548L259.508 220.88V204.733L258.931 205.061L258.354 205.389L250.189 210.107L249.613 210.434L249.036 210.762V226.909V226.935ZM258.223 206.817L250.189 224.222V211.457L258.223 206.817Z" fill="#70AA9A"/>
<path d="M239.718 205.402L247.883 210.12L249.036 210.789L250.189 210.12L259.508 204.734L249.036 198.692L238.564 204.734L239.718 205.402ZM249.036 200.016L257.201 204.734L249.036 209.452L240.871 204.734L249.036 200.016Z" fill="#A3C8BD"/>
<path d="M238.564 220.88L239.718 221.548V208.783L247.752 226.188L249.036 226.935V210.788L248.459 210.461L247.883 210.133L239.718 205.415L239.141 205.087L238.564 204.76V220.906V220.88ZM247.883 211.444V224.209L239.849 206.804L247.883 211.444Z" fill="#81B4A6"/>
<path d="M247.896 224.223V221.064L241.841 207.958L239.862 206.818L247.896 224.223Z" fill="#70AA9A"/>
<path d="M249.036 216.031L224.829 202.047L249.036 188.062L273.256 202.047L249.036 216.031Z" fill="#9284D9"/>
<path d="M249.036 218.717L224.829 204.733V202.046L249.036 216.03V218.717Z" fill="#6652C9"/>
<path d="M273.256 204.733L249.036 218.717V216.03L273.256 202.046V204.733Z" fill="#46907D"/>
<path d="M212.745 176.765L215.432 175.219L240.294 178.862L229.822 184.904L212.745 176.765Z" fill="#AECEC5"/>
<path d="M212.745 182.65V176.766L229.822 184.904V197.001L212.745 182.65Z" fill="#92BEB2"/>
<path d="M240.294 190.945L229.822 197V184.904L240.294 178.862V190.945Z" fill="#70AA9A"/>
<path d="M212.745 182.65L196.717 173.397V165.547L200.596 167.788L202.405 170.789L212.745 176.766V182.65Z" fill="#81B4A6"/>
<path d="M212.745 176.752L202.404 170.789L205.091 169.242L215.432 175.218L212.745 176.752Z" fill="#A3C8BD"/>
<path d="M202.404 170.789L200.596 167.788L203.282 166.241L205.091 169.242L202.404 170.789Z" fill="#92BEB2"/>
<path d="M200.596 167.788L196.717 165.547L199.404 164L203.283 166.241L200.596 167.788Z" fill="#A3C8BD"/>
<path d="M250.202 185.9V187.236L239.141 180.854V179.517L250.202 185.9Z" fill="#81B4A6"/>
<path d="M232.745 186.594L231.592 187.25L242.653 202.924L243.807 202.256L232.745 186.594Z" fill="#70AA9A"/>
<path d="M253.125 198.364L251.972 197.695L243.807 202.413L244.96 203.069L253.125 198.364Z" fill="#A3C8BD"/>
<path d="M253.125 188.928L251.972 189.583V197.696L253.125 198.364V188.928Z" fill="#81B4A6"/>
<path d="M251.972 197.695V196.358L246.113 192.977L244.96 193.645L251.972 197.695Z" fill="#A3C8BD"/>
<path d="M250.818 198.363L251.972 197.695L244.96 193.645V194.969L250.818 198.363Z" fill="#81B4A6"/>
<path d="M229.822 195.664L230.976 195.008L239.298 199.805L240.884 202.046L229.822 195.664Z" fill="#A3C8BD"/>
<path d="M229.822 184.904V186.385L240.884 202.046L229.822 195.664V196.987L243.806 205.061V192.964L229.822 184.891V184.904ZM242.653 202.924L231.592 187.263L242.653 193.645V202.924Z" fill="#81B4A6"/>
<path d="M253.125 187.591L244.96 192.309L243.807 192.977V205.074L254.278 199.032V186.936L253.125 187.604V187.591ZM253.125 198.351L244.96 203.069V193.633L253.125 188.915V198.351Z" fill="#70AA9A"/>
<path d="M240.294 178.862L239.141 179.53L250.202 185.913L231.107 184.17L229.822 184.917L243.806 192.99L244.383 192.662L244.96 192.335L253.125 187.617L253.701 187.289L254.278 186.961L240.294 178.888V178.862ZM243.806 191.653L232.745 185.271L251.84 187.014L243.806 191.653Z" fill="#A3C8BD"/>
<path d="M232.745 185.257L235.484 186.843L249.848 188.154L251.84 187.014L232.745 185.257Z" fill="#81B4A6"/>
<path d="M264.186 193.973V195.31L253.125 188.928V187.591L264.186 193.973Z" fill="#81B4A6"/>
<path d="M246.729 194.668L245.576 195.323L256.638 210.998L257.791 210.33L246.729 194.668Z" fill="#70AA9A"/>
<path d="M267.108 206.437L265.955 205.769L257.79 210.487L258.943 211.142L267.108 206.437Z" fill="#A3C8BD"/>
<path d="M267.108 197.001L265.955 197.656V205.769L267.108 206.437V197.001Z" fill="#81B4A6"/>
<path d="M265.955 205.768V204.432L260.084 201.05L258.943 201.719L265.955 205.768Z" fill="#A3C8BD"/>
<path d="M264.802 206.437L265.955 205.768L258.943 201.719V203.042L264.802 206.437Z" fill="#81B4A6"/>
<path d="M243.807 203.737L244.96 203.069L253.282 207.879L254.868 210.12L243.807 203.737Z" fill="#A3C8BD"/>
<path d="M243.807 192.977V194.458L254.868 210.12L243.807 203.737V205.061L257.791 213.134V201.038L243.807 192.964V192.977ZM256.637 210.998L245.576 195.337L256.637 201.719V210.998Z" fill="#81B4A6"/>
<path d="M267.108 195.664L258.943 200.382L257.79 201.051V213.147L268.262 207.106V195.009L267.108 195.677V195.664ZM267.108 206.424L258.943 211.142V201.706L267.108 196.988V206.424Z" fill="#70AA9A"/>
<path d="M254.278 186.936L253.125 187.604L264.186 193.987L245.091 192.243L243.807 192.99L257.791 201.064L258.367 200.736L258.944 200.408L267.109 195.69L267.686 195.363L268.262 195.035L254.278 186.962V186.936ZM257.791 199.727L246.729 193.344L265.825 195.087L257.791 199.727Z" fill="#A3C8BD"/>
<path d="M246.729 193.331L249.469 194.917L263.833 196.227L265.825 195.087L246.729 193.331Z" fill="#81B4A6"/>
<path d="M278.17 202.047V203.383L267.108 197.001V195.664L278.17 202.047Z" fill="#81B4A6"/>
<path d="M260.713 202.741L259.56 203.397L270.621 219.071L271.774 218.403L260.713 202.741Z" fill="#70AA9A"/>
<path d="M281.092 214.511L279.938 213.842L271.773 218.56L272.927 219.216L281.092 214.511Z" fill="#A3C8BD"/>
<path d="M281.092 205.074L279.938 205.73V213.842L281.092 214.51V205.074Z" fill="#81B4A6"/>
<path d="M279.938 213.842V212.505L274.067 209.124L272.927 209.792L279.938 213.842Z" fill="#A3C8BD"/>
<path d="M278.785 214.51L279.938 213.842L272.927 209.792V211.116L278.785 214.51Z" fill="#81B4A6"/>
<path d="M257.79 211.811L258.943 211.143L267.266 215.952L268.851 218.194L257.79 211.811Z" fill="#A3C8BD"/>
<path d="M257.79 201.051V202.532L268.851 218.193L257.79 211.811V213.134L271.774 221.208V209.111L257.79 201.038V201.051ZM270.621 219.071L259.559 203.41L270.621 209.792V219.071Z" fill="#81B4A6"/>
<path d="M281.092 203.738L272.927 208.456L271.773 209.124V221.221L282.245 215.179V203.083L281.092 203.751V203.738ZM281.092 214.498L272.927 219.216V209.78L281.092 205.062V214.498Z" fill="#70AA9A"/>
<path d="M268.262 195.009L267.108 195.677L278.17 202.06L259.074 200.317L257.79 201.064L271.774 209.137L272.351 208.809L272.927 208.482L281.092 203.764L281.669 203.436L282.246 203.108L268.262 195.035V195.009ZM271.774 207.8L260.713 201.418L279.808 203.161L271.774 207.8Z" fill="#A3C8BD"/>
<path d="M260.713 201.404L263.452 202.99L277.816 204.301L279.808 203.16L260.713 201.404Z" fill="#81B4A6"/>
<path d="M292.154 210.119V211.456L281.093 205.074V203.737L292.154 210.119Z" fill="#81B4A6"/>
<path d="M274.697 210.814L273.544 211.469L284.605 227.131L285.759 226.476L274.697 210.814Z" fill="#70AA9A"/>
<path d="M295.076 222.583L293.923 221.915L285.758 226.633L286.898 227.288L295.076 222.583Z" fill="#A3C8BD"/>
<path d="M295.076 213.147L293.923 213.803V221.915L295.076 222.584V213.147Z" fill="#81B4A6"/>
<path d="M293.923 221.915V220.578L288.052 217.197L286.898 217.865L293.923 221.915Z" fill="#A3C8BD"/>
<path d="M292.77 222.583L293.923 221.914L286.898 217.865V219.188L292.77 222.583Z" fill="#81B4A6"/>
<path d="M271.774 219.884L272.928 219.215L281.25 224.025L282.836 226.266L271.774 219.884Z" fill="#A3C8BD"/>
<path d="M271.774 209.123V210.604L282.836 226.266L271.774 219.883V221.207L285.758 229.28V217.184L271.774 209.11V209.123ZM284.605 227.144L273.544 211.483L284.605 217.865V227.144Z" fill="#81B4A6"/>
<path d="M295.076 211.811L286.911 216.529L285.758 217.197V229.294L296.229 223.252V211.155L295.076 211.824V211.811ZM295.076 222.571L286.911 227.289V217.852L295.076 213.134V222.571Z" fill="#70AA9A"/>
<path d="M282.246 203.082L281.093 203.75L292.154 210.133L273.059 208.389L271.774 209.136L285.758 217.21L286.335 216.882L286.912 216.554L295.077 211.836L295.653 211.509L296.23 211.181L282.246 203.108V203.082ZM285.758 215.873L274.697 209.49L293.792 211.233L285.758 215.873Z" fill="#A3C8BD"/>
<path d="M274.697 209.477L277.423 211.063L291.801 212.373L293.793 211.233L274.697 209.477Z" fill="#81B4A6"/>
<path d="M306.138 218.193V219.53L295.076 213.147V211.811L306.138 218.193Z" fill="#81B4A6"/>
<path d="M288.681 218.888L287.527 219.543L298.589 235.205L299.729 234.549L288.681 218.888Z" fill="#70AA9A"/>
<path d="M309.06 230.657L307.907 229.988L299.729 234.706L300.882 235.362L309.06 230.657Z" fill="#A3C8BD"/>
<path d="M309.06 221.221L307.906 221.876V229.989L309.06 230.657V221.221Z" fill="#81B4A6"/>
<path d="M307.907 229.988V228.651L302.035 225.27L300.882 225.938L307.907 229.988Z" fill="#A3C8BD"/>
<path d="M306.753 230.657L307.907 229.988L300.882 225.938V227.262L306.753 230.657Z" fill="#81B4A6"/>
<path d="M285.758 227.957L286.898 227.289L295.233 232.098L296.806 234.34L285.758 227.957Z" fill="#A3C8BD"/>
<path d="M285.758 217.197V218.678L296.819 234.34L285.758 227.957V229.281L299.742 237.354V225.257L285.758 217.184V217.197ZM298.589 235.218L287.527 219.556L298.589 225.939V235.218Z" fill="#81B4A6"/>
<path d="M309.061 219.884L300.896 224.602L299.742 225.27V237.367L310.214 231.325V219.229L309.061 219.897V219.884ZM309.061 230.644L300.896 235.362V225.926L309.061 221.208V230.644Z" fill="#70AA9A"/>
<path d="M296.229 211.155L295.076 211.824L306.138 218.206L287.042 216.463L285.758 217.21L299.742 225.283L300.319 224.956L300.895 224.628L309.06 219.91L309.637 219.582L310.213 219.255L296.229 211.181V211.155ZM299.742 223.947L288.68 217.564L307.776 219.307L299.742 223.947Z" fill="#A3C8BD"/>
<path d="M288.681 217.551L291.407 219.137L305.784 220.447L307.776 219.294L288.681 217.551Z" fill="#81B4A6"/>
<path d="M320.122 226.266V227.603L309.061 221.221V219.884L320.122 226.266Z" fill="#81B4A6"/>
<path d="M302.665 226.961L301.512 227.616L312.573 243.278L313.713 242.623L302.665 226.961Z" fill="#70AA9A"/>
<path d="M323.044 238.73L321.891 238.062L313.713 242.78L314.866 243.435L323.044 238.73Z" fill="#A3C8BD"/>
<path d="M323.045 229.294L321.892 229.949V238.062L323.045 238.73V229.294Z" fill="#81B4A6"/>
<path d="M321.891 238.062V236.725L316.02 233.344L314.866 234.012L321.891 238.062Z" fill="#A3C8BD"/>
<path d="M320.738 238.73L321.891 238.061L314.866 234.012V235.335L320.738 238.73Z" fill="#81B4A6"/>
<path d="M299.729 236.031L300.883 235.362L309.205 240.172L310.791 242.413L299.729 236.031Z" fill="#A3C8BD"/>
<path d="M299.729 225.27V226.751L310.791 242.413L299.729 236.03V237.354L313.714 245.427V233.331L299.729 225.257V225.27ZM312.56 243.291L301.499 227.629L312.56 234.012V243.291Z" fill="#81B4A6"/>
<path d="M323.045 227.958L314.88 232.676L313.727 233.344V245.441L324.198 239.399V227.302L323.045 227.971V227.958ZM323.045 238.718L314.88 243.436V233.999L323.045 229.281V238.718Z" fill="#70AA9A"/>
<path d="M310.214 219.229L309.061 219.897L320.122 226.28L301.027 224.536L299.742 225.283L313.726 233.357L314.303 233.029L314.88 232.701L323.045 227.983L323.621 227.656L324.198 227.328L310.214 219.255V219.229ZM313.726 232.02L302.665 225.637L321.76 227.38L313.726 232.02Z" fill="#A3C8BD"/>
<path d="M302.665 225.624L305.391 227.21L319.768 228.52L321.747 227.367L302.665 225.624Z" fill="#81B4A6"/>
<path d="M334.106 234.339V235.676L323.045 229.293V227.957L334.106 234.339Z" fill="#81B4A6"/>
<path d="M316.635 235.034L315.495 235.689L326.543 251.351L327.697 250.695L316.635 235.034Z" fill="#70AA9A"/>
<path d="M337.029 246.803L335.875 246.135L327.697 250.853L328.851 251.508L337.029 246.803Z" fill="#A3C8BD"/>
<path d="M337.028 237.367L335.875 238.022V246.135L337.028 246.803V237.367Z" fill="#81B4A6"/>
<path d="M335.874 246.135V244.798L330.003 241.417L328.85 242.085L335.874 246.135Z" fill="#A3C8BD"/>
<path d="M334.721 246.803L335.874 246.134L328.85 242.084V243.408L334.721 246.803Z" fill="#81B4A6"/>
<path d="M313.713 244.103L314.866 243.435L323.188 248.245L324.774 250.486L313.713 244.103Z" fill="#A3C8BD"/>
<path d="M313.713 233.343V234.824L324.774 250.486L313.713 244.103V245.427L327.697 253.5V241.403L313.713 233.33V233.343ZM326.544 251.364L315.482 235.702L326.544 242.085V251.364Z" fill="#81B4A6"/>
<path d="M337.028 236.03L328.863 240.748L327.71 241.417V253.514L338.182 247.472V235.375L337.028 236.043V236.03ZM337.028 246.79L328.863 251.508V242.072L337.028 237.354V246.79Z" fill="#70AA9A"/>
<path d="M324.197 227.301L323.044 227.97L334.105 234.352L315.01 232.609L313.726 233.356L327.71 241.429L328.286 241.102L328.863 240.774L337.028 236.056L337.605 235.728L338.181 235.401L324.197 227.327V227.301ZM327.71 240.093L316.648 233.71L335.744 235.453L327.71 240.093Z" fill="#A3C8BD"/>
<path d="M316.636 233.697L319.375 235.283L333.752 236.593L335.731 235.44L316.636 233.697Z" fill="#81B4A6"/>
<path d="M348.078 242.413V243.75L337.029 237.367V236.03L348.078 242.413Z" fill="#81B4A6"/>
<path d="M330.62 243.107L329.479 243.763L340.528 259.424L341.681 258.769L330.62 243.107Z" fill="#70AA9A"/>
<path d="M351 254.864L349.86 254.208L341.682 258.927L342.835 259.582L351 254.864Z" fill="#A3C8BD"/>
<path d="M351 245.44L349.859 246.096V254.208L351 254.864V245.44Z" fill="#81B4A6"/>
<path d="M349.859 254.208V252.872L343.987 249.49L342.834 250.159L349.859 254.208Z" fill="#A3C8BD"/>
<path d="M348.705 254.863L349.859 254.208L342.834 250.158V251.482L348.705 254.863Z" fill="#81B4A6"/>
<path d="M327.697 252.177L328.851 251.508L337.173 256.318L338.759 258.559L327.697 252.177Z" fill="#A3C8BD"/>
<path d="M327.697 241.417V242.898L338.759 258.559L327.697 252.177V253.501L341.681 261.574V249.477L327.697 241.404V241.417ZM340.528 259.438L329.467 243.776L340.528 250.159V259.438Z" fill="#81B4A6"/>
<path d="M351 244.104L342.835 248.822L341.682 249.49V261.587L352.153 255.545V243.448L351 244.117V244.104ZM351 254.864L342.835 259.582V250.145L351 245.427V254.864Z" fill="#70AA9A"/>
<path d="M338.169 235.375L337.016 236.043L348.077 242.426L328.982 240.683L327.697 241.43L341.681 249.503L342.258 249.176L342.835 248.848L351 244.13L351.576 243.802L352.153 243.474L338.169 235.401V235.375ZM341.681 248.166L330.62 241.784L349.715 243.527L341.681 248.166Z" fill="#A3C8BD"/>
<path d="M330.62 241.771L333.359 243.356L347.736 244.667L349.715 243.514L330.62 241.771Z" fill="#81B4A6"/>
<path d="M342.835 248.822L341.682 249.49L354.512 267.498L355.666 266.842L342.835 248.822Z" fill="#92BEB2"/>
<path d="M341.682 260.25L342.835 259.582L351.157 264.392L352.743 266.633L341.682 260.25Z" fill="#A3C8BD"/>
<path d="M341.682 249.49V251.05L352.743 266.633L341.682 260.25V261.587L354.512 268.992V267.498L341.682 249.49Z" fill="#81B4A6"/>
<path d="M352.153 243.435L351 244.103L363.844 262.124L364.984 261.456L352.153 243.435Z" fill="#92BEB2"/>
<path d="M351.013 254.864L352.153 254.208L360.475 259.005L362.061 261.259L351.013 254.864Z" fill="#A3C8BD"/>
<path d="M351 244.104V245.663H351.013L362.061 261.259L351.013 254.863H351V256.2L363.844 263.605V262.124L351 244.104Z" fill="#81B4A6"/>
<path d="M364.983 262.937L354.512 268.991V267.497L364.983 261.456V262.937Z" fill="#70AA9A"/>
<path d="M363.844 262.124L355.666 266.842L355.023 265.938L362.638 261.534L363.844 262.124Z" fill="#A3C8BD"/>
<defs>
<linearGradient id="paint0_linear_1769_1441" x1="302.18" y1="245.728" x2="357.421" y2="341.415" gradientUnits="userSpaceOnUse">
<stop offset="0.88" stop-color="#9B9BB6"/>
<stop offset="0.89" stop-color="#8888A8"/>
<stop offset="0.91" stop-color="#595985"/>
<stop offset="0.93" stop-color="#262660"/>
</linearGradient>
<linearGradient id="paint1_linear_1769_1441" x1="228.944" y1="336.723" x2="282.626" y2="336.723" gradientUnits="userSpaceOnUse">
<stop stop-color="#D5E7E2"/>
<stop offset="0.29" stop-color="#DAEAE5"/>
<stop offset="0.65" stop-color="#E9F2F0"/>
<stop offset="1" stop-color="white"/>
</linearGradient>
<linearGradient id="paint2_linear_1769_1441" x1="221.185" y1="343.066" x2="276.767" y2="343.066" gradientUnits="userSpaceOnUse">
<stop offset="0.39" stop-color="#92BEB2"/>
<stop offset="0.43" stop-color="#8BBAAD"/>
<stop offset="0.48" stop-color="#79AFA1"/>
<stop offset="0.53" stop-color="#62A292"/>
</linearGradient>
<linearGradient id="paint3_linear_1769_1441" x1="239.718" y1="333.84" x2="252.811" y2="333.84" gradientUnits="userSpaceOnUse">
<stop stop-color="#D5E5E1"/>
<stop offset="0.29" stop-color="#E8F1EF"/>
<stop offset="0.64" stop-color="#F9FBFA"/>
<stop offset="0.9" stop-color="white"/>
</linearGradient>
<linearGradient id="paint4_linear_1769_1441" x1="258.367" y1="164" x2="271.447" y2="164" gradientUnits="userSpaceOnUse">
<stop stop-color="#D5E5E1"/>
<stop offset="0.29" stop-color="#E8F1EF"/>
<stop offset="0.64" stop-color="#F9FBFA"/>
<stop offset="0.9" stop-color="white"/>
</linearGradient>
<linearGradient id="paint5_linear_1769_1441" x1="249.036" y1="337.877" x2="262.968" y2="337.877" gradientUnits="userSpaceOnUse">
<stop stop-color="#D5E5E1"/>
<stop offset="0.29" stop-color="#E8F1EF"/>
<stop offset="0.64" stop-color="#F9FBFA"/>
<stop offset="0.9" stop-color="white"/>
</linearGradient>
<linearGradient id="paint6_linear_1769_1441" x1="249.036" y1="328.467" x2="262.129" y2="328.467" gradientUnits="userSpaceOnUse">
<stop stop-color="#D5E5E1"/>
<stop offset="0.29" stop-color="#E8F1EF"/>
<stop offset="0.64" stop-color="#F9FBFA"/>
<stop offset="0.9" stop-color="white"/>
</linearGradient>
</defs>
</svg>
