<svg width="111" height="177" viewBox="0 0 111 177" fill="none" xmlns="http://www.w3.org/2000/svg">
<path d="M6.49219 72.5459C6.49219 64.9256 11.8677 55.6512 18.4248 51.8115L98.1133 5.79421C104.67 2.01358 110.046 5.08535 110.046 12.7057V107.399C110.046 115.019 104.67 124.293 98.1133 128.133L18.4248 174.15C11.8677 177.931 6.49219 174.859 6.49219 167.239V72.5459Z" stroke="#DCE3EC" stroke-dasharray="2 2"/>
<path d="M101.305 1.95425C99.1191 0.536511 96.0473 0.654659 92.6211 2.60405L12.9326 48.6214C6.37556 52.402 1 61.7354 1 69.3557V164.049C1 168.006 2.47677 170.783 4.83966 171.905L9.80176 174.8C7.7933 173.5 6.55277 170.901 6.55277 167.298V72.6047C6.55277 64.9844 11.9284 55.71 18.4854 51.8703L98.1739 5.85302C101.423 3.9627 104.377 3.78548 106.562 4.96692L101.305 1.95425Z" stroke="#DCE3EC" stroke-dasharray="2 2"/>
</svg>
