<svg width="64" height="103" viewBox="0 0 64 103" fill="none" xmlns="http://www.w3.org/2000/svg">
<g clip-path="url(#clip0_1201_4488)">
<path d="M2.51026 62.8971C1.64465 62.8971 0.8079 62.843 0 62.7312V48.9861L11.8768 60.5275C9.08887 62.0892 5.96547 62.8971 2.51026 62.8971Z" fill="#0C113A"/>
<path d="M9.75611 48.4561H0V23.1948C0.890854 23.0541 1.83941 23 2.78798 23C8.39278 23 13.0743 24.9224 16.8397 28.7707C20.605 32.5902 22.4986 37.3583 22.4986 43.046C22.4986 48.2324 20.7962 52.5821 17.4239 56.095L9.75611 48.4561Z" fill="#0C113A"/>
<path d="M37.7765 16.5042V69.5587H45.7509V44.2181H58.295V36.7198H45.7509V24.0062H63.5392V103.004H0V70.2296C0.919707 70.3125 1.83941 70.3702 2.78798 70.3702C8.19802 70.3702 13.1031 68.9492 17.5358 66.1035L21.0487 69.5623H31.0861L22.9746 61.8404C28.0204 56.5169 30.5595 50.4108 30.5595 43.5797C30.5595 34.8262 27.3532 27.7175 20.9405 22.2786C15.6422 17.763 9.62266 15.5052 2.90339 15.5052C1.92598 15.5052 0.952168 15.5593 0.0036067 15.6458V0H63.5392V16.5042H37.7765Z" fill="#0C113A"/>
<path d="M15.036 90.2036H13.33L12.6231 89.4822C11.8729 89.9655 11.0361 90.2036 10.1164 90.2036C8.92262 90.2036 7.86586 89.7996 6.93894 88.9917C5.93267 88.1009 5.42773 86.9648 5.42773 85.5798C5.42773 84.1948 5.90382 83.0912 6.85599 82.1895C7.78291 81.3095 8.87213 80.873 10.1345 80.873C11.2778 80.873 12.2985 81.2554 13.2074 82.0272C14.2966 82.9541 14.8376 84.1624 14.8376 85.6483C14.8376 86.8133 14.4084 87.8484 13.55 88.7573L15.036 90.2072V90.2036ZM11.2994 86.4779L12.6051 87.7799C13.1821 87.1812 13.4671 86.4418 13.4671 85.5581C13.4671 84.5916 13.1461 83.78 12.5041 83.1272C11.8621 82.4744 11.065 82.1462 10.1128 82.1462C9.16066 82.1462 8.35637 82.4744 7.73602 83.1272C7.10845 83.7764 6.79828 84.5988 6.79828 85.5942C6.79828 86.5897 7.11927 87.3615 7.76487 87.9782C8.43572 88.6166 9.20394 88.934 10.0659 88.934C10.6538 88.934 11.184 88.8006 11.6565 88.5301L9.53937 86.4779H11.2958H11.2994Z" fill="white"/>
<path d="M25.6974 84.3607H27.0139V90.0412H25.6974V89.4461C25.1564 89.951 24.5757 90.2035 23.9554 90.2035C23.1691 90.2035 22.5199 89.9222 22.0078 89.3523C21.4992 88.7716 21.2432 88.0503 21.2432 87.1847C21.2432 86.3191 21.4956 85.623 22.0078 85.0567C22.5163 84.4905 23.1547 84.2056 23.9193 84.2056C24.5794 84.2056 25.1745 84.4761 25.6974 85.0207V84.3607ZM22.5849 87.1847C22.5849 87.7293 22.7291 88.1729 23.0213 88.512C23.3206 88.8582 23.6993 89.0313 24.1538 89.0313C24.6371 89.0313 25.0302 88.8618 25.3296 88.53C25.6289 88.1838 25.7804 87.7437 25.7804 87.2135C25.7804 86.6834 25.6289 86.2434 25.3296 85.8971C25.0302 85.5581 24.6407 85.3886 24.1646 85.3886C23.7137 85.3886 23.335 85.5581 23.0357 85.9007C22.7363 86.247 22.5849 86.6762 22.5849 87.1847Z" fill="white"/>
<path d="M17.0592 84.3606V87.6211C17.0592 88.5624 17.4307 89.0349 18.1737 89.0349C18.9167 89.0349 19.2882 88.5624 19.2882 87.6211V84.3606H20.601V87.6499C20.601 88.1043 20.5433 88.4975 20.4315 88.8293C20.3233 89.125 20.1321 89.3883 19.8652 89.63C19.4216 90.0123 18.859 90.2071 18.1737 90.2071C17.4884 90.2071 16.933 90.0159 16.4894 89.63C16.2189 89.3919 16.0241 89.125 15.9123 88.8293C15.8041 88.5624 15.75 88.1729 15.75 87.6499V84.3606H17.0628H17.0592Z" fill="white"/>
<path d="M28.1387 84.3607H29.4551V84.8872C29.9132 84.4328 30.4325 84.2056 31.006 84.2056C31.6696 84.2056 32.1818 84.4111 32.5497 84.8295C32.8671 85.183 33.0294 85.7601 33.0294 86.5607V90.0412H31.7129V86.8673C31.7129 86.3083 31.6336 85.9224 31.4785 85.7096C31.327 85.4932 31.0529 85.3813 30.6525 85.3813C30.2161 85.3813 29.9096 85.5256 29.7256 85.8141C29.5453 86.0991 29.4587 86.5932 29.4587 87.3001V90.0412H28.1423V84.3607H28.1387Z" fill="white"/>
<path d="M35.7381 85.5869V90.0411H34.4252V85.5869H33.8662V84.3606H34.4252V82.2795H35.7381V84.3606H36.7588V85.5869H35.7381Z" fill="white"/>
<path d="M37.8301 84.3607H39.1429V84.8873C39.3954 84.624 39.6118 84.4437 39.7885 84.3535C39.9797 84.2561 40.2177 84.2092 40.5062 84.2092C41.1482 84.2092 41.6568 84.4869 42.0283 85.0496C42.4394 84.4906 42.9985 84.2092 43.7018 84.2092C44.9785 84.2092 45.6205 84.9847 45.6205 86.5355V90.0449H44.3041V86.8926C44.3041 86.348 44.2356 85.9621 44.1057 85.7385C43.9687 85.5076 43.7451 85.3958 43.4349 85.3958C43.0742 85.3958 42.8109 85.5329 42.645 85.8034C42.4791 86.0739 42.3962 86.5103 42.3962 87.1162V90.0485H41.0797V86.9106C41.0797 85.9008 40.7876 85.3958 40.2033 85.3958C39.8354 85.3958 39.5649 85.5329 39.3954 85.8106C39.2259 86.0883 39.1429 86.5247 39.1429 87.1162V90.0485H37.8301V84.3679V84.3607Z" fill="white"/>
<path d="M51.2439 82.3158H48.1061V84.4798H51.1321V85.7566H48.1061V90.0414H46.75V81.0391H51.2439V82.3158Z" fill="white"/>
<path d="M54.2987 88.9844L51.7451 84.3606H53.2671L55.0056 87.6247L56.625 84.3606H58.1073L53.5845 93.1321H52.0841L54.2987 88.9844Z" fill="white"/>
</g>
<defs>
<clipPath id="clip0_1201_4488">
<rect width="63.5392" height="103" fill="white"/>
</clipPath>
</defs>
</svg>
