<svg width="184" height="345" viewBox="0 0 184 345" fill="none" xmlns="http://www.w3.org/2000/svg">
<path d="M181.323 134.524C181.323 136.344 180.033 137.084 178.463 136.174L82.3832 80.7042C80.8132 79.7942 79.5232 77.5642 79.5232 75.7542V3.27417C79.5232 1.45417 80.8132 0.71417 82.3832 1.62417L178.463 57.0942C180.033 58.0042 181.323 60.2342 181.323 62.0442V134.514V134.524Z" fill="#3F74B8"/>
<path d="M180.623 55.8541L84.5431 0.384148C83.7431 -0.0758518 83.0231 -0.105852 82.5031 0.204148L80.4431 1.39415C80.9531 1.14415 81.6331 1.20415 82.3731 1.63415L178.453 57.1041C180.023 58.0141 181.313 60.2441 181.313 62.0541V134.524C181.313 135.424 180.993 136.064 180.483 136.364L182.533 135.174C183.113 134.904 183.473 134.244 183.473 133.274V60.8141C183.473 58.9941 182.183 56.7641 180.613 55.8641L180.623 55.8541Z" fill="url(#paint0_linear_1473_488)"/>
<path d="M82.3833 4.93408V76.2641L178.463 131.744V60.4041L82.3833 4.93408Z" fill="white"/>
<path d="M127.553 55.084C127.493 55.084 127.433 55.064 127.373 55.034L119.453 50.464C119.343 50.394 119.273 50.274 119.273 50.144V36.614C119.273 36.484 119.343 36.364 119.453 36.294C119.563 36.234 119.703 36.234 119.823 36.294L127.743 40.864C127.913 40.964 127.973 41.184 127.873 41.364C127.773 41.534 127.543 41.594 127.373 41.494L120.003 37.234V49.924L127.743 54.394C127.913 54.494 127.973 54.714 127.873 54.894C127.803 55.014 127.683 55.074 127.553 55.074V55.084Z" fill="#E0EAF4"/>
<path d="M135.473 59.654C135.413 59.654 135.343 59.634 135.293 59.604L127.373 55.034C127.203 54.934 127.143 54.714 127.243 54.534C127.343 54.354 127.563 54.304 127.743 54.404L135.113 58.664V45.974L127.373 41.504C127.203 41.404 127.143 41.184 127.243 41.004C127.343 40.824 127.563 40.774 127.743 40.874L135.663 45.444C135.773 45.514 135.843 45.634 135.843 45.764V59.294C135.843 59.424 135.773 59.544 135.663 59.614C135.603 59.644 135.543 59.664 135.483 59.664L135.473 59.654Z" fill="#E0EAF4"/>
<path d="M113.243 61.4841C113.183 61.4841 113.123 61.4641 113.063 61.4341L98.6233 53.0941C98.4533 52.9941 98.3933 52.7741 98.4933 52.5941C98.5933 52.4241 98.8133 52.3641 98.9933 52.4641L113.433 60.8041C113.603 60.9041 113.663 61.1241 113.563 61.3041C113.493 61.4241 113.373 61.4841 113.243 61.4841Z" fill="#DFE7F3"/>
<path d="M113.243 59.3638C113.043 59.3638 112.873 59.2038 112.873 58.9938V39.6838C112.873 39.5538 112.943 39.4338 113.053 39.3638C113.163 39.3038 113.303 39.3038 113.423 39.3638L127.733 47.6238C127.903 47.7239 127.963 47.9438 127.863 48.1238C127.763 48.2938 127.533 48.3538 127.363 48.2538L113.603 40.3039V58.9738C113.603 59.1738 113.443 59.3438 113.233 59.3438L113.243 59.3638Z" fill="#BDCFE7"/>
<path d="M127.553 88.6243C127.493 88.6243 127.433 88.6043 127.373 88.5743L113.063 80.3143C112.953 80.2443 112.883 80.1243 112.883 79.9943V63.2343C112.883 63.0343 113.043 62.8643 113.253 62.8643C113.463 62.8643 113.623 63.0243 113.623 63.2343V79.7843L127.753 87.9443C127.923 88.0443 127.983 88.2643 127.883 88.4443C127.813 88.5643 127.693 88.6243 127.563 88.6243H127.553Z" fill="#E0EAF4"/>
<path d="M141.863 96.884C141.803 96.884 141.733 96.864 141.683 96.834L127.373 88.574C127.203 88.474 127.143 88.254 127.243 88.074C127.343 87.904 127.563 87.844 127.743 87.944L141.503 95.894V79.764C141.503 79.564 141.663 79.394 141.873 79.394C142.083 79.394 142.243 79.554 142.243 79.764V96.524C142.243 96.654 142.173 96.774 142.063 96.844C142.003 96.874 141.943 96.894 141.883 96.894L141.863 96.884Z" fill="#E0EAF4"/>
<path d="M154.683 85.4042C154.483 85.4042 154.313 85.2442 154.313 85.0342V63.8142L127.363 48.2542C127.193 48.1542 127.133 47.9342 127.233 47.7542C127.333 47.5842 127.553 47.5242 127.733 47.6242L154.863 63.2842C154.973 63.3542 155.043 63.4742 155.043 63.6042V85.0342C155.043 85.2342 154.883 85.4042 154.673 85.4042H154.683Z" fill="#BDCFE7"/>
<path d="M142.048 77.3195L141.683 77.9517L167.326 92.7567L167.691 92.1245L142.048 77.3195Z" fill="#E0EAF4"/>
<path d="M108.963 58.6441C108.963 55.9141 110.883 54.8141 113.243 56.1741C115.603 57.5341 117.523 60.8541 117.523 63.5841C117.523 66.3141 115.603 67.4141 113.243 66.0541C110.883 64.6941 108.963 61.3741 108.963 58.6441Z" fill="#E7C7D3"/>
<path d="M111.233 59.9539C111.233 58.6739 112.133 58.1539 113.243 58.7939C114.353 59.4339 115.253 60.9939 115.253 62.2739C115.253 63.5539 114.353 64.0739 113.243 63.4339C112.133 62.7939 111.233 61.2339 111.233 59.9539Z" fill="white"/>
<path d="M146.143 80.1041C146.143 77.3741 144.223 74.0541 141.863 72.6941C139.503 71.3341 137.583 72.4341 137.583 75.1641C137.583 77.8941 139.503 81.2141 141.863 82.5741C144.223 83.9341 146.143 82.8341 146.143 80.1041Z" fill="#2D66B2"/>
<path d="M151.803 80.0542L157.563 83.3842V90.0342L151.803 86.7042V80.0542Z" fill="#E7C7D3"/>
<g style="mix-blend-mode:multiply">
<path d="M103.253 48.9039L92.0933 42.4639V55.3539L103.253 61.7939V48.9039Z" fill="#F1F1FB"/>
</g>
<path d="M131.183 41.3941L123.923 37.2041V40.9741L131.183 45.1641V41.3941Z" fill="#E0EAF4"/>
<path d="M131.183 48.1641L123.923 43.9741V47.7341L131.183 51.9341V48.1641Z" fill="#BDCFE7"/>
<path d="M131.183 54.9239L123.923 50.7339V54.5039L131.183 58.6939V54.9239Z" fill="#E0EAF4"/>
<path d="M127.552 82.0537L122.174 85.1587L127.549 94.4685L132.927 91.3635L127.552 82.0537Z" fill="#81A5D1"/>
<path d="M164.623 82.5239L170.383 85.8539V102.364L164.623 99.0439V82.5239Z" fill="#81A5D1"/>
<path d="M20.1431 282.974L74.0831 251.834C76.7231 250.314 80.9931 250.314 83.6331 251.834L137.573 282.974C140.213 284.494 140.213 286.964 137.573 288.484L83.6331 319.624C80.9931 321.144 76.7231 321.144 74.0831 319.624L20.1431 288.484C17.5031 286.964 17.5031 284.494 20.1431 282.974Z" fill="#645FB7"/>
<path d="M18.1731 121.174V285.734C18.1731 286.734 18.8331 287.724 20.1531 288.494L74.0931 319.634C76.7331 321.154 81.0031 321.154 83.6431 319.634L137.583 288.494C138.903 287.734 139.563 286.734 139.563 285.734V121.174H18.1731Z" fill="url(#paint1_linear_1473_488)" style="mix-blend-mode:multiply"/>
<path d="M47.873 277.254C47.873 266.194 54.883 265.874 54.883 265.874C54.883 265.874 58.673 265.874 64.843 263.314C70.923 260.784 79.503 261.764 74.703 270.604C74.663 270.714 74.603 270.824 74.543 270.934C74.253 271.404 73.743 271.854 72.993 272.294L57.683 281.274C55.343 282.604 47.933 279.524 47.883 277.254H47.873Z" fill="url(#paint2_linear_1473_488)"/>
<path d="M47.9131 276.264C48.0431 278.534 55.3631 281.554 57.6731 280.234L72.9831 271.254C73.4931 270.954 74.3631 270.374 75.1431 269.674C75.0031 269.974 74.8831 270.264 74.7031 270.594C74.6631 270.704 74.6031 270.814 74.5431 270.924C74.2531 271.394 73.7431 271.844 72.9931 272.284L57.6831 281.264C55.4931 282.514 48.8531 279.894 47.9731 277.674C47.9431 277.514 47.9031 277.354 47.9031 277.224C47.8731 276.884 47.9031 276.574 47.9231 276.244L47.9131 276.264Z" fill="#0449A3"/>
<path d="M50.7231 264.424C52.5331 264.424 58.8831 266.044 58.8831 266.044C58.8831 266.044 58.9231 266.924 59.4531 267.694C59.5131 267.764 59.5731 267.834 59.6331 267.914C60.8831 268.784 62.1631 270.164 59.1831 272.024C56.7431 273.554 54.7631 272.584 53.8231 271.644C53.4431 270.924 52.8831 270.134 52.0931 269.684C51.2831 269.224 50.7931 269.004 50.4331 268.984C50.4331 268.934 50.4231 268.834 50.4231 268.834C50.4231 268.834 49.9631 264.434 50.7131 264.434L50.7231 264.424Z" fill="#A0884A"/>
<path d="M53.5931 156.284C60.5131 156.414 74.8431 156.724 81.7631 156.844C79.1831 177.654 74.0031 196.564 70.5431 216.724C66.8231 236.314 62.6331 250.084 58.9831 266.384C57.6431 269.414 51.5231 268.274 50.2831 265.354C49.3131 250.344 50.6031 232.054 55.0531 214.724C54.3131 196.054 53.1731 175.154 53.6031 156.294L53.5931 156.284Z" fill="#1253A9"/>
<path d="M82.7832 297.574C82.7832 286.514 89.7932 286.194 89.7932 286.194C89.7932 286.194 93.5832 286.194 99.7532 283.634C105.833 281.104 114.413 282.084 109.623 290.924C109.573 291.034 109.523 291.144 109.453 291.254C109.163 291.724 108.653 292.174 107.893 292.614L92.5832 301.594C90.2432 302.924 82.8332 299.844 82.7832 297.564V297.574Z" fill="url(#paint3_linear_1473_488)"/>
<path d="M82.8233 296.584C82.9533 298.854 90.2733 301.874 92.5833 300.554L107.893 291.584C108.403 291.284 109.273 290.704 110.053 290.004C109.913 290.304 109.793 290.604 109.613 290.934C109.563 291.044 109.513 291.154 109.443 291.264C109.153 291.734 108.643 292.184 107.883 292.624L92.5733 301.604C90.3933 302.854 83.7433 300.224 82.8633 298.024C82.8233 297.854 82.7933 297.704 82.7933 297.574C82.7633 297.224 82.7933 296.924 82.8033 296.594L82.8233 296.584Z" fill="#0449A3"/>
<path d="M85.6333 284.735C87.4333 284.735 93.7833 286.345 93.7833 286.345C93.7833 286.345 93.8233 287.225 94.3433 287.995C94.4133 288.065 94.4633 288.135 94.5233 288.205C95.7833 289.075 97.0533 290.455 94.0833 292.325C91.6533 293.855 89.6733 292.885 88.7233 291.945C88.3433 291.235 87.7832 290.435 87.0032 289.985C86.1932 289.515 85.7033 289.315 85.3433 289.285C85.3433 289.235 85.3232 289.135 85.3232 289.135C85.3232 289.135 84.8633 284.725 85.6233 284.725L85.6333 284.735Z" fill="#A0884A"/>
<path d="M74.2532 205.784C72.3632 196.844 51.8332 192.204 53.2632 160.544C60.1132 159.534 91.6932 175.744 98.5332 174.734C99.3932 195.684 97.3632 215.194 97.2432 235.634C96.7732 255.564 94.8932 269.834 93.9432 286.514C93.1232 289.724 86.8932 289.594 85.1832 286.914C81.7732 272.254 80.2732 254.394 81.8332 236.574C79.7932 226.704 76.4632 216.244 74.2432 205.774L74.2532 205.784Z" fill="url(#paint4_linear_1473_488)"/>
<path d="M62.7432 191.954C78.7432 200.934 116.613 194.984 111.673 174.254C107.143 152.534 92.9932 111.114 88.9932 97.9941C81.9932 92.4741 78.7332 89.9441 71.8832 88.7441C67.7632 88.0241 62.4032 87.0941 59.2232 90.0841C45.4432 103.034 40.8932 138.704 42.3832 172.484C44.0732 181.844 54.8632 187.534 62.7432 191.954Z" fill="url(#paint5_linear_1473_488)"/>
<path d="M64.6232 90.2543C66.3532 87.6043 66.1032 82.5143 65.5532 78.5543C64.8032 76.4743 64.3932 74.1743 64.4232 71.7243C64.5132 62.9343 74.7732 54.4343 81.6632 54.5043C88.5432 54.5743 89.4532 63.1943 89.3632 71.9843C89.2732 80.1343 83.7632 85.9343 77.8632 88.0143C77.4732 89.3643 79.4732 91.0343 80.5432 91.8143C75.9032 94.3243 70.3432 92.4343 67.5832 91.6943C66.1532 91.3143 65.1032 90.8643 64.6432 90.2343L64.6232 90.2543Z" fill="#A0884A"/>
<path d="M21.2331 83.0439C29.6931 81.7439 27.4731 73.6939 30.7631 70.0639C34.7931 65.6139 43.6231 65.7139 47.7031 67.2039C55.1231 69.9039 64.7331 66.6939 64.7331 64.1739C64.7331 61.6539 60.6831 59.9639 63.2131 54.7339C65.7431 49.5039 76.3631 54.0639 80.5831 49.8439C90.4031 40.0239 92.1931 61.4539 88.2831 65.3639C84.1431 69.5039 86.8131 70.9239 85.5531 72.1839C84.2931 73.4439 83.9331 66.9339 81.9731 68.8939C79.7331 71.1239 84.2531 76.0139 84.2531 82.8439C84.2531 89.6739 77.7631 95.8039 71.9931 93.4639C67.9531 91.8239 62.6431 95.3039 64.1531 106.614C65.4131 116.094 76.7931 138.354 49.9931 142.904C23.1831 147.454 42.5631 118.044 23.6931 127.734C4.47314 137.594 -17.1069 88.9639 21.2431 83.0639L21.2331 83.0439Z" fill="#242460"/>
<path d="M117.773 102.874V102.934C116.923 100.694 116.893 99.2042 117.603 98.4942C117.583 97.8842 117.563 97.2542 117.553 96.6442C117.473 93.0942 119.953 89.0742 120.983 89.5342C121.603 89.8142 120.353 91.8642 119.983 93.7142C119.743 94.9342 119.943 95.4842 120.093 96.3542C120.093 96.3542 124.433 95.1442 125.763 98.6242C126.843 101.454 124.893 100.924 124.673 100.364C124.683 103.644 122.753 102.444 123.153 104.964L117.853 104.694C117.853 104.694 117.823 103.964 117.773 102.874Z" fill="#A0884A"/>
<path d="M92.9632 101.634C89.8532 98.0341 88.1732 95.1141 81.5632 99.2841C76.7832 102.304 74.6432 117.264 107.963 132.854C119.133 138.074 124.633 111.444 124.633 103.494C122.213 103.264 117.493 104.784 117.493 104.784C116.653 109.674 111.933 118.464 110.163 118.464C107.293 118.464 96.7132 105.984 92.9632 101.624V101.634Z" fill="url(#paint6_linear_1473_488)"/>
<defs>
<linearGradient id="paint0_linear_1473_488" x1="106.513" y1="-13.6659" x2="189.973" y2="130.894" gradientUnits="userSpaceOnUse">
<stop offset="0.58" stop-color="#81A5D1"/>
<stop offset="0.61" stop-color="#1253A9"/>
</linearGradient>
<linearGradient id="paint1_linear_1473_488" x1="78.8631" y1="320.774" x2="78.8631" y2="121.174" gradientUnits="userSpaceOnUse">
<stop stop-color="#EED8E0"/>
<stop offset="0.07" stop-color="#F0DDE4" stop-opacity="0.64"/>
<stop offset="0.36" stop-color="#F8F0F3" stop-opacity="0.18"/>
<stop offset="0.67" stop-color="#FDFBFC" stop-opacity="0"/>
<stop offset="1" stop-color="white" stop-opacity="0"/>
</linearGradient>
<linearGradient id="paint2_linear_1473_488" x1="76.103" y1="271.854" x2="47.873" y2="271.854" gradientUnits="userSpaceOnUse">
<stop stop-color="#3F74B8"/>
<stop offset="0.41" stop-color="#2F68B2"/>
<stop offset="1" stop-color="#1253A9"/>
</linearGradient>
<linearGradient id="paint3_linear_1473_488" x1="111.013" y1="292.174" x2="82.7832" y2="292.174" gradientUnits="userSpaceOnUse">
<stop stop-color="#3F74B8"/>
<stop offset="0.41" stop-color="#2F68B2"/>
<stop offset="1" stop-color="#1253A9"/>
</linearGradient>
<linearGradient id="paint4_linear_1473_488" x1="98.7532" y1="224.714" x2="53.1932" y2="224.714" gradientUnits="userSpaceOnUse">
<stop stop-color="#1253A9"/>
<stop offset="0.57" stop-color="#2E67B2"/>
<stop offset="1" stop-color="#3F74B8"/>
</linearGradient>
<linearGradient id="paint5_linear_1473_488" x1="42.1133" y1="142.014" x2="112.114" y2="142.014" gradientUnits="userSpaceOnUse">
<stop stop-color="#5943C9"/>
<stop offset="0.14" stop-color="#5E48C9"/>
<stop offset="0.32" stop-color="#6F57CA"/>
<stop offset="0.52" stop-color="#8A70CC"/>
<stop offset="0.74" stop-color="#B094CF"/>
<stop offset="0.97" stop-color="#E0C0D2"/>
<stop offset="1" stop-color="#E7C7D3"/>
</linearGradient>
<linearGradient id="paint6_linear_1473_488" x1="78.8632" y1="115.384" x2="124.633" y2="115.384" gradientUnits="userSpaceOnUse">
<stop stop-color="#5943C9"/>
<stop offset="0.14" stop-color="#5E48C9"/>
<stop offset="0.32" stop-color="#6F57CA"/>
<stop offset="0.52" stop-color="#8A70CC"/>
<stop offset="0.74" stop-color="#B094CF"/>
<stop offset="0.97" stop-color="#E0C0D2"/>
<stop offset="1" stop-color="#E7C7D3"/>
</linearGradient>
</defs>
</svg>
