<svg width="250" height="272" viewBox="0 0 250 272" fill="none" xmlns="http://www.w3.org/2000/svg">
<circle cx="125" cy="147" r="125" fill="#669085"/>
<path style="mix-blend-mode:multiply" d="M217.46 155.381C213.988 150.485 208.804 145.893 201.908 141.909C177.125 127.605 138.63 126.053 110.87 137.253L98.9987 140.069C95.6068 141.429 92.3748 142.981 89.3509 144.725C75.4472 152.757 68.5034 163.268 68.5034 173.78C68.5034 184.292 75.4632 194.82 89.3509 202.851C117.158 218.899 162.229 218.899 190.036 202.851C203.108 195.3 210.036 185.556 210.804 175.668C211.268 169.732 209.524 163.764 205.572 158.18L217.444 155.381H217.46Z" fill="url(#paint0_linear_1451_13122)"/>
<path d="M85.4951 112.966L126.182 146.693L176.533 117.622C151.749 103.318 113.254 101.766 85.4951 112.966Z" fill="#A9BBD1"/>
<path d="M176.533 117.622L126.183 146.693L192.069 131.093C188.597 126.197 183.413 121.605 176.533 117.622Z" fill="#92B0A8"/>
<path d="M126.198 159.477L85.5112 125.75C82.1193 127.109 78.8874 128.661 75.8635 130.405C61.9598 138.437 55 148.965 55 159.477C55 169.988 61.9598 180.516 75.8635 188.548C103.671 204.596 148.742 204.596 176.549 188.548C189.621 180.996 196.549 171.252 197.316 161.365C197.78 155.429 196.037 149.461 192.085 143.877L126.198 159.477Z" fill="white"/>
<path d="M197.316 161.365C196.533 171.253 189.621 180.996 176.549 188.548C148.742 204.596 103.671 204.596 75.8635 188.548C62.7758 180.996 55.864 171.253 55.08 161.365H55V173.796C55 184.308 61.9598 194.836 75.8635 202.852C103.671 218.899 148.742 218.899 176.549 202.852C189.621 195.3 196.549 185.556 197.316 175.668C197.412 174.532 197.38 173.396 197.316 172.276V161.365Z" fill="url(#paint1_linear_1451_13122)"/>
<path d="M192.085 143.877L126.198 159.477V146.677L192.085 131.093V143.877Z" fill="#3F3F60"/>
<path d="M126.199 159.477L85.4956 125.766V112.966L126.199 146.677V159.477Z" fill="#8AA2C0"/>
<path style="mix-blend-mode:multiply" d="M194.565 148.021C193.861 146.629 193.045 145.237 192.069 143.893L126.183 159.493H146.406L194.549 148.021H194.565Z" fill="url(#paint2_linear_1451_13122)"/>
<path style="mix-blend-mode:multiply" d="M171.029 162.901L117.75 162.933L110.774 174.677H119.318L115.654 180.852L171.029 180.82V162.901Z" fill="url(#paint3_linear_1451_13122)"/>
<path d="M123.414 59.1595C124.006 60.0875 138.374 56.3595 139.718 55.4476C141.638 54.1356 143.59 51.9597 144.854 51.3677C146.118 50.7917 148.645 50.1197 149.333 50.0717C150.005 50.0237 152.421 50.7117 152.149 51.5917C151.877 52.4556 150.549 51.3197 150.181 51.7517C150.581 51.8957 151.605 52.7916 151.509 53.6396C151.397 54.4876 151.077 54.2156 151.077 54.2156C151.269 54.6476 151.317 55.2396 150.981 55.4316C151.141 55.7996 151.509 56.4075 150.565 56.6475C149.621 56.8715 148.037 57.1115 147.461 57.5435C145.59 58.9515 140.87 59.1435 140.31 59.4475C139.734 59.7355 128.438 65.1113 126.038 65.7993C116.71 68.4712 116.774 52.0237 118.95 52.0237C122.95 52.0237 122.166 57.2075 123.446 59.1915L123.414 59.1595Z" fill="#EDE1E6"/>
<path d="M115.639 162.293C113.063 162.709 112.327 166.869 113.607 169.461C114.407 170.356 116.423 171.188 116.423 171.188C116.423 171.188 124.551 174.532 126.375 174.676C128.215 174.82 132.263 174.148 132.599 171.012C132.295 169.109 130.679 168.581 128.711 167.413C126.151 165.893 123.943 163.685 121.879 162.661C120.183 161.829 115.623 162.277 115.623 162.277L115.639 162.293Z" fill="url(#paint4_linear_1451_13122)"/>
<path d="M120.582 159.653C119.334 159.861 115.286 160.853 115.286 160.853C115.286 160.853 113.799 165.045 116.15 165.781C120.726 167.221 124.63 164.149 122.838 163.109C121.622 162.421 120.438 161.637 120.582 159.653Z" fill="#EDE1E6"/>
<path d="M126.327 173.844C124.439 173.7 116.071 170.26 116.071 170.26C116.071 170.26 114.119 169.444 113.255 168.548C113.351 168.868 113.463 169.172 113.591 169.46C114.391 170.356 116.407 171.188 116.407 171.188C116.407 171.188 124.535 174.532 126.359 174.676C128.199 174.82 132.247 174.148 132.583 171.012C132.583 170.948 132.551 170.884 132.535 170.82C131.671 173.396 128.023 173.972 126.295 173.828L126.327 173.844Z" fill="#5376A3"/>
<path d="M123.607 163.716C123.271 163.268 122.471 162.052 121.079 163.044C119.623 164.084 119.287 165.332 119.463 166.388C119.639 167.428 122.647 166.66 122.759 166.5C122.871 166.34 123.607 163.716 123.607 163.716Z" fill="#6F8CB2"/>
<path d="M124.999 165.029C124.391 165.285 122.935 166.277 122.263 167.685C122.071 168.1 121.575 168.276 121.159 168.084C120.743 167.893 120.567 167.397 120.759 166.981C121.607 165.189 123.367 163.925 124.327 163.509C124.743 163.333 125.223 163.525 125.415 163.941C125.591 164.357 125.399 164.853 124.983 165.013L124.999 165.029Z" fill="white"/>
<path d="M127.527 166.645C126.935 166.901 125.479 167.877 124.807 169.301C124.615 169.717 124.119 169.893 123.703 169.685C123.287 169.493 123.111 168.997 123.319 168.581C124.167 166.789 125.927 165.525 126.887 165.109C127.303 164.933 127.799 165.125 127.975 165.541C128.151 165.957 127.959 166.437 127.527 166.629V166.645Z" fill="white"/>
<path d="M119.879 77.5107C121.111 92.8223 123.175 107.398 123.175 119.686C123.175 133.749 120.727 148.549 120.583 160.325C120.711 163.941 116.615 166.772 114.871 163.573C114.791 162.517 115.287 161.189 115.111 159.653C114.055 150.677 110.983 136.901 113.575 125.285C110.023 109.91 100.215 90.9023 101.671 78.8226C106.119 76.6147 116.471 76.4067 119.879 77.4787V77.5107Z" fill="#EDE1E6"/>
<path d="M117.91 29.0317C121.926 30.9997 123.398 34.0076 123.398 39.9915C120.662 38.3115 117.91 29.0317 117.91 29.0317Z" fill="#EDE1E6"/>
<path d="M115.751 83.3345V85.9104L113.527 84.6304L115.751 83.3345Z" fill="#7B96B8"/>
<path d="M104.902 168.468C102.326 168.884 101.59 173.044 102.87 175.636C103.67 176.532 105.686 177.364 105.686 177.364C105.686 177.364 113.814 180.708 115.638 180.852C117.478 180.996 121.526 180.324 121.862 177.188C121.542 175.284 119.942 174.756 117.974 173.588C115.414 172.068 113.206 169.86 111.142 168.836C109.446 168.004 104.886 168.452 104.886 168.452L104.902 168.468Z" fill="url(#paint5_linear_1451_13122)"/>
<path d="M109.847 165.812C108.599 166.02 104.551 167.012 104.551 167.012C104.551 167.012 103.063 171.204 105.415 171.94C109.991 173.38 113.894 170.308 112.102 169.268C110.886 168.58 109.703 167.796 109.847 165.812Z" fill="#EDE1E6"/>
<path d="M115.59 180.02C113.702 179.876 105.334 176.437 105.334 176.437C105.334 176.437 103.383 175.621 102.519 174.725C102.615 175.045 102.727 175.349 102.855 175.637C103.655 176.533 105.67 177.365 105.67 177.365C105.67 177.365 113.798 180.708 115.622 180.852C117.462 180.996 121.51 180.324 121.846 177.189C121.846 177.125 121.814 177.061 121.798 176.997C120.934 179.572 117.286 180.148 115.558 180.004L115.59 180.02Z" fill="#5376A3"/>
<path d="M112.87 169.892C112.534 169.444 111.734 168.229 110.342 169.236C108.886 170.276 108.55 171.524 108.726 172.58C108.902 173.62 111.91 172.852 112.022 172.692C112.134 172.532 112.87 169.908 112.87 169.908V169.892Z" fill="#6F8CB2"/>
<path d="M114.262 171.189C113.654 171.445 112.198 172.437 111.526 173.845C111.334 174.261 110.838 174.437 110.422 174.229C110.006 174.037 109.83 173.541 110.022 173.125C110.87 171.333 112.63 170.069 113.59 169.653C114.006 169.477 114.486 169.669 114.678 170.085C114.854 170.501 114.662 170.981 114.246 171.157L114.262 171.189Z" fill="white"/>
<path d="M116.807 172.82C116.199 173.076 114.759 174.052 114.087 175.476C113.895 175.892 113.399 176.068 112.983 175.86C112.567 175.668 112.391 175.172 112.599 174.756C113.447 172.964 115.207 171.7 116.167 171.284C116.583 171.108 117.079 171.3 117.255 171.716C117.431 172.132 117.239 172.612 116.823 172.788L116.807 172.82Z" fill="white"/>
<path d="M111.462 84.0865C111.462 98.1662 111.606 113.91 111.606 126.197C111.606 140.261 109.99 154.725 109.83 166.501C109.958 170.116 105.862 172.948 104.118 169.764C104.038 168.708 104.534 167.38 104.358 165.845C103.302 156.869 100.231 143.093 102.822 131.477C99.2706 116.102 93.7827 99.8941 97.0466 84.2145C101.495 82.0066 108.054 83.0306 111.446 84.1025L111.462 84.0865Z" fill="#EDE1E6"/>
<path d="M100.871 65.9912C102.039 55.3834 97.031 45.3837 96.119 38.7599C95.543 34.584 95.1271 29.6881 98.903 28.5041C102.807 27.2881 104.391 26.7122 107.783 26.8081C115.959 27.0161 119.782 28.6801 121.446 34.312C123.014 39.6078 124.118 41.2238 125.414 46.4077C125.99 48.7276 119.59 53.7995 120.326 63.8312C126.006 72.407 130.07 91.7985 131.814 107.03C132.47 111.622 127.814 117.51 119.558 121.654C109.143 126.87 97.015 127.286 92.4551 122.582C91.3511 121.446 90.7912 120.102 90.7432 118.662C90.7432 113.254 93.8151 74.807 100.903 65.9912H100.871Z" fill="url(#paint6_linear_1451_13122)"/>
<path d="M104.887 16.8563C105.031 14.3444 113.622 19.3363 113.43 22.6642C113.27 25.3681 112.918 28.0721 113.926 28.4241C115.094 29.272 118.582 38.2318 116.486 40.3118C109.19 37.3198 105.383 31 98.8867 28.5041C101.543 27.9601 104.407 25.0001 104.871 16.8563H104.887Z" fill="#EDE1E6"/>
<path d="M102.823 13.3841L105.415 6.9043H121.815V16.7761C121.815 22.2319 118.135 26.6478 113.607 26.6478C109.079 26.6478 105.655 22.4879 105.447 17.256L104.311 17.288L102.823 13.3841Z" fill="#EDE1E6"/>
<path d="M106.855 22.312C108.263 24.808 110.583 26.4879 113.255 26.6159C113.287 27.4319 113.399 27.9439 113.671 28.2479C113.207 28.2319 112.839 28.2479 112.375 28.1359C109.639 27.4639 107.655 25.2079 106.855 22.328V22.312Z" fill="#E7D7DD"/>
<path d="M112.519 0.0245854C112.519 0.0245854 112.615 0.0245854 112.679 0.0245854C121.622 0.24858 122.294 6.93642 121.798 8.04039C118.966 9.04836 117.174 7.12841 115.399 7.28841C114.535 7.3524 111.047 7.83239 109.607 9.67235C108.055 11.6563 108.551 14.8402 107.079 14.7602C106.439 14.7282 106.247 12.6003 105.303 12.5363C104.503 12.4883 103.703 13.2403 103.799 14.4562C103.927 16.1042 105.479 17.0962 105.255 17.8961C104.871 19.2081 101.607 16.8562 101.671 12.1843C101.735 7.5444 104.823 -0.295407 112.551 0.00858582L112.519 0.0245854Z" fill="#5D7EA9"/>
<path d="M96.6788 71.0467L94.9188 75.4306C88.7909 72.2307 85.191 63.8789 84.839 57.143C84.3591 48.0713 93.7668 32.7436 94.2468 32.0077C96.6308 28.4557 102.279 31.6077 100.407 36.1516C100.007 37.0635 90.3749 52.9031 91.3989 58.247C92.1029 61.9429 93.3188 68.7267 96.6628 71.0467H96.6788Z" fill="#EDE1E6"/>
<path d="M111.399 0.0566406C101.895 0.728624 100.759 10.1044 96.967 12.6483C94.711 14.1523 89.6711 11.3044 86.7272 16.4082C83.3353 22.2801 88.8232 24.408 85.2233 26.888C81.6233 29.3679 78.8714 36.9517 84.8553 41.6236C90.8391 46.2795 98.3429 42.1836 97.495 35.3678C96.887 30.4559 98.3429 27.928 102.471 29.5119C105.559 30.6959 106.743 28.2639 105.351 25.112C112.215 25.8 105.015 12.6963 115.383 7.28846C114.983 4.61653 111.383 0.0566406 111.383 0.0566406H111.399Z" fill="#5D7EA9"/>
<path d="M96.6794 71.047C97.3994 71.511 101.335 70.583 102.263 70.583C103.191 70.583 105.767 70.583 107.911 71.287C110.055 71.975 111.527 72.759 110.055 73.0949C110.839 73.2709 112.711 74.0229 111.239 74.4549C111.095 74.9669 110.567 75.6389 108.951 75.5909C108.407 76.0229 104.663 76.8069 103.511 76.6149C102.295 76.9829 95.9114 76.8549 94.9194 75.4469C94.9194 73.0789 96.6794 71.063 96.6794 71.063V71.047Z" fill="#EDE1E6"/>
<defs>
<linearGradient id="paint0_linear_1451_13122" x1="68.5194" y1="172.388" x2="217.46" y2="172.388" gradientUnits="userSpaceOnUse">
<stop offset="0.42" stop-color="#7EA299"/>
<stop offset="0.51" stop-color="#8AAAA2"/>
<stop offset="0.67" stop-color="#AAC2BC"/>
<stop offset="0.88" stop-color="#DFE8E6"/>
<stop offset="1" stop-color="white"/>
</linearGradient>
<linearGradient id="paint1_linear_1451_13122" x1="55" y1="188.132" x2="197.38" y2="188.132" gradientUnits="userSpaceOnUse">
<stop stop-color="#95B2AB"/>
<stop offset="0.54" stop-color="#799D94"/>
<stop offset="1" stop-color="#669085"/>
</linearGradient>
<linearGradient id="paint2_linear_1451_13122" x1="126.199" y1="151.685" x2="194.565" y2="151.685" gradientUnits="userSpaceOnUse">
<stop stop-color="#7DA197"/>
<stop offset="0.03" stop-color="#7FA299"/>
<stop offset="0.41" stop-color="#9AB6AE"/>
<stop offset="0.74" stop-color="#ABC1BC"/>
<stop offset="1" stop-color="#B1C6C1"/>
</linearGradient>
<linearGradient id="paint3_linear_1451_13122" x1="110.774" y1="171.877" x2="171.029" y2="171.877" gradientUnits="userSpaceOnUse">
<stop stop-color="#7DA197"/>
<stop offset="0.2" stop-color="#A7C0B9"/>
<stop offset="0.41" stop-color="#CDDBD7"/>
<stop offset="0.6" stop-color="#E8EEED"/>
<stop offset="0.77" stop-color="#F9FAFA"/>
<stop offset="0.9" stop-color="white"/>
</linearGradient>
<linearGradient id="paint4_linear_1451_13122" x1="116.44" y1="172.963" x2="127.951" y2="164.129" gradientUnits="userSpaceOnUse">
<stop stop-color="#7B96B8"/>
<stop offset="1" stop-color="#5D7EA9"/>
</linearGradient>
<linearGradient id="paint5_linear_1451_13122" x1="105.71" y1="179.14" x2="117.221" y2="170.306" gradientUnits="userSpaceOnUse">
<stop stop-color="#7B96B8"/>
<stop offset="1" stop-color="#5D7EA9"/>
</linearGradient>
<linearGradient id="paint6_linear_1451_13122" x1="131.862" y1="76.3269" x2="90.7112" y2="76.3269" gradientUnits="userSpaceOnUse">
<stop stop-color="#3F3F60"/>
<stop offset="1" stop-color="#669085"/>
</linearGradient>
</defs>
</svg>
