<svg width="294" height="269" viewBox="0 0 294 269" fill="none" xmlns="http://www.w3.org/2000/svg">
<path d="M62.7086 244.44L137.506 201.251C140.555 199.494 145.509 199.494 148.578 201.251L223.376 244.44L282.507 210.291L207.709 167.102C204.661 165.345 204.661 162.487 207.709 160.709L282.507 117.52L223.376 83.3706L3.55664 210.291L62.6874 244.44H62.7086Z" fill="url(#paint0_linear_1472_377)"/>
<ellipse cx="213.84" cy="201.199" rx="39.1079" ry="69.6319" transform="rotate(-62.028 213.84 201.199)" fill="url(#paint1_radial_1472_377)"/>
<path d="M185.162 141.146L169.559 150.165L166.849 148.598L182.452 139.58L185.162 141.146Z" fill="#CED3F8"/>
<path d="M207.159 128.465L191.556 137.463L188.825 135.896L204.428 126.898L207.159 128.465Z" fill="#CED3F8"/>
<path d="M229.135 115.762L213.532 124.781L210.801 123.215L226.404 114.196L229.135 115.762Z" fill="#CED3F8"/>
<path d="M251.11 103.08L235.507 112.099L232.797 110.511L248.4 101.514L251.11 103.08Z" fill="#CED3F8"/>
<path d="M103.632 188.231L119.235 179.212L116.504 177.645L100.901 186.664L103.632 188.231Z" fill="#CED3F8"/>
<path d="M81.6357 200.912L97.2388 191.914L94.5289 190.348L78.9258 199.345L81.6357 200.912Z" fill="#CED3F8"/>
<path d="M59.6598 213.615L75.2629 204.596L72.553 203.029L56.95 212.048L59.6598 213.615Z" fill="#CED3F8"/>
<path d="M37.6845 226.296L53.2876 217.299L50.5777 215.732L34.9746 224.73L37.6845 226.296Z" fill="#CED3F8"/>
<path d="M125.608 175.549L163.187 153.849L160.477 152.282L122.877 173.961L125.608 175.549Z" fill="#CED3F8"/>
<path d="M182.452 188.231L166.849 179.233L169.559 177.645L185.162 186.664L182.452 188.231Z" fill="#CED3F8"/>
<path d="M204.428 200.912L188.825 191.914L191.556 190.348L207.159 199.345L204.428 200.912Z" fill="#CED3F8"/>
<path d="M226.404 213.615L210.801 204.596L213.532 203.029L229.135 212.048L226.404 213.615Z" fill="#CED3F8"/>
<path d="M248.4 226.296L232.797 217.299L235.507 215.732L251.11 224.73L248.4 226.296Z" fill="#CED3F8"/>
<path d="M133.674 1.73524L60.8244 43.8022C53.7744 47.867 48.0159 57.8386 48.0159 65.9683V114.09C48.0159 122.22 53.7744 125.544 60.8244 121.479L83.4351 108.437L97.2598 116.419L111.084 92.4745L133.695 79.4331C140.745 75.3682 146.504 65.3967 146.504 57.267V9.12394C146.504 0.994253 140.745 -2.3296 133.695 1.73524H133.674Z" fill="white"/>
<path d="M94.9312 80.1536L99.5676 77.4648V82.8423L94.9312 85.531V80.1536Z" fill="#7259CA"/>
<path d="M83.3296 86.843L87.9872 84.1543V89.5318L83.3296 92.2205V86.843Z" fill="#7259CA"/>
<path d="M111.169 70.7744L106.512 73.4631V78.8406L111.169 76.1519V70.7744Z" fill="#7259CA"/>
<g style="mix-blend-mode:multiply">
<path d="M89.3844 66.7733L97.2388 71.3039L105.093 57.6909C109.433 50.1752 109.433 42.0455 105.093 39.5473C100.753 37.0491 93.7033 41.1139 89.3632 48.6297C85.0231 56.1454 85.0231 64.2751 89.3632 66.7733H89.3844ZM92.0096 56.1877C92.0096 52.8427 94.3596 48.7779 97.26 47.1054C100.16 45.4328 102.51 46.7878 102.51 50.1328C102.51 53.4778 100.16 57.5427 97.26 59.2152C94.3596 60.8877 92.0096 59.5328 92.0096 56.1877Z" fill="#A5ABCC"/>
</g>
<path d="M0 116.863L17.1274 125.184L19.7314 120.441L5.65268 113.624L19.7314 90.5477L17.1274 88.7905L0 116.863Z" fill="white"/>
<path d="M173.052 15.2848L187.11 22.1019L173.052 45.1784L175.635 46.9356L192.763 18.8415L175.635 10.5425L173.052 15.2848Z" fill="white"/>
<path d="M210.97 221.851L223.037 214.885L221.725 205.761L207.138 214.187L210.97 221.851Z" fill="#131147"/>
<path d="M168.225 197.186L180.293 190.221L176.461 182.557L164.393 189.522L168.225 197.186Z" fill="#131147"/>
<path d="M218.126 215.479C221.619 217.49 224.435 222.381 224.435 226.425C224.435 230.468 221.598 232.077 218.126 230.066C214.632 228.055 211.817 223.164 211.817 219.121C211.817 215.077 214.654 213.468 218.126 215.479Z" fill="#BBC0E6"/>
<path d="M218.125 227.271C220.285 228.52 222.042 227.503 222.042 225.005C222.042 222.507 220.285 219.48 218.125 218.231C215.966 216.981 214.209 217.998 214.209 220.496C214.209 222.994 215.966 226.022 218.125 227.271Z" fill="#CED3F8"/>
<path d="M210.652 218.443C210.652 223.206 213.997 229.007 218.125 231.399C222.254 233.792 225.599 231.844 225.599 227.08C225.599 222.317 222.254 216.516 218.125 214.124C213.997 211.731 210.652 213.679 210.652 218.443ZM212.346 219.416C212.346 215.733 214.929 214.229 218.125 216.071C221.322 217.913 223.905 222.401 223.905 226.085C223.905 229.769 221.322 231.272 218.125 229.43C214.929 227.588 212.346 223.1 212.346 219.416Z" fill="url(#paint2_linear_1472_377)"/>
<path d="M213.065 213.489L218.782 210.186C220.158 209.276 222.105 209.339 224.265 210.588C228.393 212.981 231.738 218.781 231.738 223.545C231.738 225.958 230.87 227.652 229.473 228.414L223.46 231.886C224.794 231.082 225.599 229.431 225.599 227.081C225.599 222.296 222.254 216.516 218.125 214.124C216.156 213.002 214.378 212.832 213.044 213.489H213.065Z" fill="#3F3F60"/>
<path d="M175.402 190.793C178.896 192.804 181.711 197.695 181.711 201.738C181.711 205.782 178.875 207.391 175.402 205.38C171.909 203.369 169.094 198.478 169.094 194.456C169.094 190.433 171.93 188.803 175.402 190.814V190.793Z" fill="#BBC0E6"/>
<path d="M175.402 202.607C177.562 203.856 179.319 202.839 179.319 200.341C179.319 197.843 177.562 194.816 175.402 193.567C173.243 192.317 171.486 193.334 171.486 195.832C171.486 198.33 173.243 201.357 175.402 202.607Z" fill="#CED3F8"/>
<path d="M167.908 193.757C167.908 198.542 171.253 204.321 175.403 206.714C179.531 209.106 182.876 207.158 182.876 202.395C182.876 197.631 179.531 191.809 175.403 189.438C171.274 187.046 167.908 188.993 167.908 193.757ZM169.602 194.731C169.602 191.047 172.185 189.544 175.381 191.386C178.578 193.228 181.161 197.716 181.161 201.4C181.161 205.083 178.578 206.587 175.381 204.745C172.185 202.903 169.602 198.415 169.602 194.731Z" fill="url(#paint3_linear_1472_377)"/>
<path d="M170.321 188.803L176.037 185.5C177.414 184.59 179.361 184.654 181.521 185.903C185.649 188.295 188.994 194.096 188.994 198.859C188.994 201.273 188.126 202.967 186.729 203.729L180.716 207.201C182.05 206.417 182.854 204.745 182.854 202.395C182.854 197.61 179.509 191.809 175.381 189.438C173.412 188.295 171.634 188.147 170.3 188.803H170.321Z" fill="#3F3F60"/>
<path d="M157.089 173.771L163.801 194.794C164.393 195.133 167.527 196.933 168.225 197.356C167.675 195.726 167.378 194.075 167.421 192.529C167.421 191.936 167.505 191.407 167.611 190.899C168.437 186.876 172.036 185.627 176.27 188.189C177.032 188.655 177.773 189.248 178.472 189.883C181.5 192.614 183.85 196.784 184.485 200.659C184.612 201.463 184.696 202.247 184.675 203.03C184.654 204.385 184.358 205.507 183.871 206.417C193.419 211.922 197.484 214.272 210.948 222.063C210.398 220.433 210.102 218.781 210.144 217.236C210.144 216.643 210.229 216.114 210.335 215.606C211.16 211.583 214.759 210.313 218.993 212.896C223.08 215.373 226.425 220.602 227.208 225.365C227.356 226.17 227.42 226.953 227.398 227.737C227.377 229.091 227.081 230.235 226.594 231.124C227.504 231.653 228.118 232.013 228.118 232.013L231.929 227.334V217.045L157.068 173.814L157.089 173.771Z" fill="url(#paint4_linear_1472_377)"/>
<path d="M177.498 182.558L213.404 161.831L194.308 152.283L157.089 173.772L177.498 182.558Z" fill="url(#paint5_linear_1472_377)"/>
<path d="M219.735 196.044L251.47 177.731L216.411 157.491L184.675 175.804L219.735 196.044Z" fill="#F1F1FB"/>
<path d="M231.95 216.982L269.169 195.493L251.47 177.73L219.735 196.043L231.95 216.982Z" fill="#B5CAE7"/>
<path d="M231.95 227.271L269.169 205.783V195.494L231.95 216.982V227.271Z" fill="url(#paint6_linear_1472_377)"/>
<path d="M265.358 210.461L269.169 205.782L231.95 227.271L228.139 231.95L265.358 210.461Z" fill="url(#paint7_linear_1472_377)"/>
<path d="M231.95 216.982L219.735 196.043L184.675 175.804L177.646 182.473L157.089 173.771L231.95 216.982Z" fill="white"/>
<path d="M177.646 182.473L183.892 176.63L220.856 197.949L229.155 212.197L177.646 182.473Z" fill="url(#paint8_linear_1472_377)"/>
<path d="M229.156 212.197L220.857 197.949L253.079 179.361L265.125 191.428L229.156 212.197Z" fill="url(#paint9_linear_1472_377)"/>
<path d="M237.306 221.385L235.973 222.147V217.595L237.306 216.833V221.385Z" fill="#DFE4F4"/>
<path d="M239.847 219.903L238.513 220.687V216.135L239.847 215.352V219.903Z" fill="#DFE4F4"/>
<path d="M242.388 218.443L241.054 219.226V214.674L242.388 213.891V218.443Z" fill="#DFE4F4"/>
<path d="M244.928 216.982L243.594 217.765V213.192L244.928 212.43V216.982Z" fill="#DFE4F4"/>
<path d="M247.469 215.521L246.135 216.283V211.731L247.469 210.969V215.521Z" fill="#DFE4F4"/>
<path d="M250.009 214.039L248.654 214.822V210.271L250.009 209.487V214.039Z" fill="#DFE4F4"/>
<path d="M252.55 212.579L251.195 213.362V208.81L252.55 208.027V212.579Z" fill="#DFE4F4"/>
<path d="M255.091 211.118L253.736 211.901V207.328L255.091 206.566V211.118Z" fill="#DFE4F4"/>
<path d="M257.631 209.656L256.276 210.418V205.866L257.631 205.104V209.656Z" fill="#DFE4F4"/>
<path d="M260.171 208.175L258.816 208.958V204.406L260.171 203.623V208.175Z" fill="#DFE4F4"/>
<path d="M262.712 206.714L261.357 207.497V202.945L262.712 202.162V206.714Z" fill="#DFE4F4"/>
<path d="M265.252 205.253L263.897 206.037V201.464L265.252 200.702V205.253Z" fill="#DFE4F4"/>
<defs>
<linearGradient id="paint0_linear_1472_377" x1="3.55664" y1="163.905" x2="282.507" y2="163.905" gradientUnits="userSpaceOnUse">
<stop stop-color="#5943C9"/>
<stop offset="0.14" stop-color="#5E48C9"/>
<stop offset="0.32" stop-color="#6F57CA"/>
<stop offset="0.52" stop-color="#8A70CC"/>
<stop offset="0.74" stop-color="#B094CF"/>
<stop offset="0.97" stop-color="#E0C0D2"/>
<stop offset="1" stop-color="#E7C7D3"/>
</linearGradient>
<radialGradient id="paint1_radial_1472_377" cx="0" cy="0" r="1" gradientUnits="userSpaceOnUse" gradientTransform="translate(213.84 201.2) rotate(90) scale(69.6319 26.7855)">
<stop stop-color="#0C113A"/>
<stop offset="1" stop-color="#0C113A" stop-opacity="0"/>
</radialGradient>
<linearGradient id="paint2_linear_1472_377" x1="210.652" y1="222.761" x2="225.62" y2="222.761" gradientUnits="userSpaceOnUse">
<stop stop-color="#0349A3"/>
<stop offset="0.85" stop-color="#1556A9"/>
<stop offset="1" stop-color="#1959AB"/>
</linearGradient>
<linearGradient id="paint3_linear_1472_377" x1="167.908" y1="198.076" x2="182.876" y2="198.076" gradientUnits="userSpaceOnUse">
<stop stop-color="#0349A3"/>
<stop offset="0.85" stop-color="#1556A9"/>
<stop offset="1" stop-color="#1959AB"/>
</linearGradient>
<linearGradient id="paint4_linear_1472_377" x1="157.089" y1="202.861" x2="231.95" y2="202.861" gradientUnits="userSpaceOnUse">
<stop offset="0.44" stop-color="#CDDBEE"/>
<stop offset="0.49" stop-color="#BCCFE8"/>
<stop offset="0.58" stop-color="#99B7DE"/>
</linearGradient>
<linearGradient id="paint5_linear_1472_377" x1="157.089" y1="167.421" x2="213.404" y2="167.421" gradientUnits="userSpaceOnUse">
<stop offset="0.59" stop-color="#CEDCEE"/>
<stop offset="1" stop-color="#B9CDE5"/>
</linearGradient>
<linearGradient id="paint6_linear_1472_377" x1="231.95" y1="211.393" x2="269.169" y2="211.393" gradientUnits="userSpaceOnUse">
<stop offset="0.44" stop-color="#CDDBEE"/>
<stop offset="0.49" stop-color="#BCCFE8"/>
<stop offset="0.58" stop-color="#99B7DE"/>
</linearGradient>
<linearGradient id="paint7_linear_1472_377" x1="228.139" y1="218.866" x2="269.169" y2="218.866" gradientUnits="userSpaceOnUse">
<stop stop-color="#0349A3"/>
<stop offset="1" stop-color="#306AB4"/>
</linearGradient>
<linearGradient id="paint8_linear_1472_377" x1="177.646" y1="194.414" x2="229.155" y2="194.414" gradientUnits="userSpaceOnUse">
<stop stop-color="#306AB4"/>
<stop offset="1" stop-color="#628EC6"/>
</linearGradient>
<linearGradient id="paint9_linear_1472_377" x1="220.857" y1="195.768" x2="265.125" y2="195.768" gradientUnits="userSpaceOnUse">
<stop stop-color="#0349A3"/>
<stop offset="0.85" stop-color="#1556A9"/>
<stop offset="1" stop-color="#1959AB"/>
</linearGradient>
</defs>
</svg>
