<svg width="194" height="269" viewBox="0 0 194 269" fill="none" xmlns="http://www.w3.org/2000/svg">
<path d="M1.43726 2.11551L1.51096 2.07129C1.48148 2.07129 1.46674 2.10077 1.452 2.11551H1.43726Z" fill="url(#paint0_linear_1473_609)"/>
<path d="M190.866 223.654V115.648C190.866 112.285 188.48 108.151 185.561 106.461L5.30482 2.39729C3.86751 1.5675 2.57838 1.47859 1.61523 2.01203L4.34168 0.426543C5.30482 -0.195797 6.68286 -0.166162 8.20907 0.708077L188.465 104.787C191.384 106.476 193.77 110.596 193.77 113.974V221.994C193.77 223.491 193.296 224.602 192.511 225.21H192.496C192.318 225.343 192.111 225.462 191.903 225.551L189.606 226.884C190.392 226.262 190.866 225.165 190.866 223.669V223.654Z" fill="url(#paint1_linear_1473_609)"/>
<path d="M0 113.47C0 116.833 2.38564 120.968 5.30471 122.657L185.561 226.721C188.48 228.41 190.866 227.032 190.866 223.654V115.648C190.866 112.284 188.48 108.15 185.561 106.461L5.30471 2.39693C2.38564 0.707723 0 2.08576 0 5.44936V113.47Z" fill="#F7F7FC"/>
<path d="M20.3298 63.3717L22.5376 62.0974L31.6949 77.9671L36.6736 75.1073L48.1128 94.9036L54.9437 90.9473L68.813 114.967L77.6443 109.855L85.4828 123.442L94.9958 117.96L104.494 134.407L113.133 129.414L117.667 137.267L127.343 131.666L134.974 144.869L140.175 141.861L153.303 164.62L160.816 160.294L166.98 170.992L179.782 163.598V186.639V210.911L11.0836 113.515V89.2433L11.054 47.3242L20.3298 63.3717Z" fill="url(#paint2_linear_1473_609)"/>
<path d="M178.048 209.903L179.812 210.911V140.735L178.048 139.712V209.903Z" fill="url(#paint3_linear_1473_609)"/>
<path d="M159.927 199.442L161.69 200.45V151.196L159.927 150.174V199.442Z" fill="url(#paint4_linear_1473_609)"/>
<path d="M139.286 187.514L141.049 188.537V122.331L139.286 121.309V187.514Z" fill="url(#paint5_linear_1473_609)"/>
<path d="M112.243 171.911L114.022 172.933V106.728L112.243 105.706V171.911Z" fill="url(#paint6_linear_1473_609)"/>
<path d="M94.5513 161.687L96.3146 162.709V80.9751L94.5513 79.9526V161.687Z" fill="url(#paint7_linear_1473_609)"/>
<path d="M76.7703 151.418L78.5336 152.441V97.497L76.7703 96.4746V151.418Z" fill="url(#paint8_linear_1473_609)"/>
<path d="M54.0696 138.32L55.8329 139.342V66.7949L54.0696 65.7725V138.32Z" fill="url(#paint9_linear_1473_609)"/>
<path d="M21.6484 119.605L23.4117 120.612V48.08L21.6484 47.0576V119.605Z" fill="url(#paint10_linear_1473_609)"/>
<path d="M11.054 113.515L12.8321 114.537V28.7133L11.054 27.6909V113.515Z" fill="url(#paint11_linear_1473_609)"/>
<path d="M7.61621 21.7342C7.61621 24.4903 9.55732 27.8539 11.943 29.2319C12.8024 29.7209 13.5877 29.8839 14.2545 29.7802L18.9369 38.73C18.4775 39.2634 18.196 40.0636 18.196 41.086C18.196 43.8421 20.1371 47.2057 22.5227 48.5837C24.612 49.7839 26.3457 49.0875 26.7606 47.0575L50.7058 60.8823C51.1207 63.3865 52.8544 66.0981 54.9437 67.2984C56.1143 67.98 57.1811 68.0392 57.9665 67.6095L73.6435 88.8135C73.4361 89.2729 73.3175 89.836 73.3175 90.5028C73.3175 93.2588 75.2586 96.6224 77.6443 98.0005C80.0299 99.3785 81.971 98.2524 81.971 95.4963C81.971 94.2516 81.5561 92.8884 80.9042 91.6437L93.5584 79.8933C94.1215 80.5305 94.7586 81.0936 95.4254 81.4788C96.5071 82.1012 97.4851 82.1901 98.2408 81.8641L109.221 97.8375C108.954 98.3265 108.791 98.9636 108.791 99.7193C108.791 102.475 110.732 105.839 113.118 107.217C115.207 108.417 116.941 107.721 117.355 105.691L135.922 116.419C136.337 118.923 138.071 121.635 140.16 122.835C141.286 123.487 142.323 123.561 143.094 123.19L156.844 142.424C156.607 142.898 156.474 143.505 156.474 144.217C156.474 146.973 158.415 150.336 160.801 151.714C163.186 153.092 165.128 151.966 165.128 149.21C165.128 148.203 164.861 147.106 164.416 146.069L176.552 139.06C177.233 139.964 178.048 140.749 178.923 141.253C181.308 142.631 183.249 141.505 183.249 138.749C183.249 135.993 181.308 132.629 178.923 131.251C176.537 129.873 174.596 130.999 174.596 133.755C174.596 134.763 174.863 135.859 175.307 136.897L163.172 143.905C162.49 143.002 161.675 142.216 160.801 141.712C159.675 141.06 158.652 140.986 157.867 141.357L144.116 122.124C144.353 121.649 144.487 121.042 144.487 120.331C144.487 117.575 142.545 114.211 140.16 112.833C138.071 111.633 136.337 112.329 135.922 114.359L117.355 103.631C116.941 101.127 115.207 98.4154 113.118 97.2151C112.036 96.5928 111.058 96.5039 110.302 96.8299L99.3224 80.8565C99.5892 80.3675 99.7522 79.7303 99.7522 78.9746C99.7522 76.2186 97.8111 72.855 95.4254 71.4769C93.0398 70.0989 91.0987 71.225 91.0987 73.9811C91.0987 75.2258 91.5136 76.589 92.1655 77.8337L79.5113 89.5841C78.9482 88.9469 78.3111 88.3838 77.6443 87.9986C76.4737 87.317 75.4068 87.2577 74.6215 87.6874L58.9444 66.4834C59.1519 66.0241 59.2704 65.461 59.2704 64.7942C59.2704 62.0381 57.3293 58.6745 54.9437 57.2965C52.8544 56.0962 51.1207 56.7927 50.7058 58.8227L26.7606 44.9979C26.3457 42.4937 24.612 39.7821 22.5227 38.5818C21.6633 38.0928 20.878 37.9298 20.2112 38.0336L15.5288 29.0837C15.9882 28.5503 16.2697 27.7501 16.2697 26.7277C16.2697 23.9717 14.3286 20.6081 11.943 19.23C9.55732 17.852 7.61621 18.9781 7.61621 21.7342ZM176.374 134.778C176.374 133.148 177.53 132.481 178.938 133.296C180.345 134.111 181.501 136.097 181.501 137.727C181.501 139.356 180.345 140.023 178.938 139.208C177.53 138.393 176.374 136.408 176.374 134.778ZM158.252 145.239C158.252 143.609 159.408 142.942 160.816 143.757C162.223 144.572 163.379 146.558 163.379 148.188C163.379 149.818 162.223 150.484 160.816 149.67C159.408 148.855 158.252 146.869 158.252 145.239ZM137.611 116.374C137.611 114.744 138.767 114.078 140.175 114.893C141.582 115.708 142.738 117.693 142.738 119.323C142.738 120.953 141.582 121.62 140.175 120.805C138.767 119.99 137.611 118.004 137.611 116.374ZM110.569 100.771C110.569 99.1414 111.725 98.4746 113.132 99.2896C114.54 100.105 115.696 102.09 115.696 103.72C115.696 105.35 114.555 106.017 113.132 105.202C111.725 104.387 110.569 102.401 110.569 100.771ZM95.4254 79.4636C94.0177 78.6487 92.862 76.6631 92.862 75.0332C92.862 73.4032 94.0177 72.7364 95.4254 73.5514C96.8331 74.3664 97.9889 76.3519 97.9889 77.9819C97.9889 79.6118 96.8331 80.2786 95.4254 79.4636ZM75.0808 91.54C75.0808 89.91 76.2366 89.2433 77.6443 90.0582C79.0519 90.8732 80.2077 92.8588 80.2077 94.4887C80.2077 96.1186 79.0519 96.7854 77.6443 95.9705C76.2366 95.1555 75.0808 93.1699 75.0808 91.54ZM52.3802 60.8379C52.3802 59.208 53.536 58.5412 54.9437 59.3561C56.3514 60.1711 57.5071 62.1567 57.5071 63.7866C57.5071 65.4165 56.3514 66.0833 54.9437 65.2684C53.536 64.4534 52.3802 62.4678 52.3802 60.8379ZM19.9741 42.1084C19.9741 40.4785 21.1299 39.8117 22.5376 40.6267C23.9452 41.4416 25.101 43.4272 25.101 45.0571C25.101 46.6871 23.9452 47.3539 22.5376 46.5389C21.1299 45.7239 19.9741 43.7384 19.9741 42.1084ZM9.37951 22.7566C9.37951 21.1267 10.5205 20.4599 11.943 21.2748C13.3506 22.0898 14.5064 24.0754 14.5064 25.7053C14.5064 27.3353 13.3506 28.002 11.943 27.1871C10.5353 26.3721 9.37951 24.3865 9.37951 22.7566Z" fill="url(#paint12_linear_1473_609)"/>
<path d="M163.246 104.757L178.937 113.811V109.736L163.246 100.682V104.757Z" fill="#D0D4F6"/>
<path d="M140.175 91.4367L149.332 96.7266V92.6517L140.175 87.3618V91.4367Z" fill="#D0D4F6"/>
<path d="M114.866 76.8258L134.603 88.2206V84.1457L114.866 72.751V76.8258Z" fill="#D0D4F6"/>
<path d="M156.104 100.638L159.645 102.683V98.5935L156.104 96.5635V100.638Z" fill="#D0D4F6"/>
<g style="mix-blend-mode:multiply">
<path d="M69.8058 124.939L154.711 173.955C157.585 175.615 159.927 179.69 159.927 182.994V211.918L64.5752 156.871V127.947C64.5752 124.628 66.9312 123.279 69.791 124.939H69.8058Z" fill="#DCE1F4"/>
</g>
<path d="M46.5864 209.947C46.5864 213.266 48.9424 217.326 51.8022 218.986L136.707 268.003C139.582 269.662 141.923 268.299 141.923 264.995V187.958C141.923 184.639 139.567 180.579 136.707 178.919L51.8022 129.902C48.9276 128.243 46.5864 129.606 46.5864 132.91V209.947Z" fill="#F7F7FC"/>
<path d="M141.938 265.01V187.973C141.938 184.654 139.582 180.594 136.722 178.934L51.8171 129.917C50.3798 129.088 49.0758 129.013 48.1423 129.562L51.0169 127.902C51.9653 127.339 53.2692 127.413 54.7214 128.243L139.626 177.26C142.501 178.919 144.842 182.994 144.842 186.298V263.335C144.842 265.024 144.235 266.21 143.242 266.743L140.456 268.344C141.375 267.78 141.938 266.639 141.938 265.01Z" fill="url(#paint13_linear_1473_609)"/>
<g style="mix-blend-mode:multiply">
<path d="M128.765 214.185L132.706 216.467V211.918L128.765 209.636V214.185Z" fill="#EAEEF9"/>
<path d="M120.512 209.429L124.453 211.711V207.147L120.512 204.865V209.429Z" fill="#EAEEF9"/>
<path d="M112.258 204.658L116.2 206.94V202.391L112.258 200.109V204.658Z" fill="#92BEB2"/>
<path d="M104.005 199.901L107.946 202.168V197.619L104.005 195.337V199.901Z" fill="#EAEEF9"/>
<path d="M95.7512 195.13L99.6927 197.411V192.848L95.7512 190.581V195.13Z" fill="#BDC1E4"/>
<path d="M87.498 190.359L91.4395 192.641V188.092L87.498 185.81V190.359Z" fill="url(#paint14_linear_1473_609)"/>
<path d="M79.2446 185.602L83.1861 187.884V183.32L79.2446 181.038V185.602Z" fill="url(#paint15_linear_1473_609)"/>
<path d="M128.765 223.728L132.706 225.995V221.446L128.765 219.164V223.728Z" fill="#BDC1E4"/>
<path d="M120.512 218.957L124.453 221.239V216.675L120.512 214.408V218.957Z" fill="url(#paint16_linear_1473_609)"/>
<path d="M112.258 214.185L116.2 216.467V211.918L112.258 209.636V214.185Z" fill="#6652C9"/>
<path d="M104.005 209.429L107.946 211.711V207.147L104.005 204.865V209.429Z" fill="#BDC1E4"/>
<path d="M95.7512 204.658L99.6927 206.94V202.391L95.7512 200.109V204.658Z" fill="#BDC1E4"/>
<path d="M87.498 199.901L91.4395 202.168V197.619L87.498 195.337V199.901Z" fill="url(#paint17_linear_1473_609)"/>
<path d="M79.2446 195.13L83.1861 197.411V192.848L79.2446 190.581V195.13Z" fill="#6652C9"/>
<path d="M128.765 233.256L132.706 235.538V230.974L128.765 228.692V233.256Z" fill="#BDC1E4"/>
<path d="M120.512 228.485L124.453 230.766V226.203L120.512 223.936V228.485Z" fill="#6652C9"/>
<path d="M112.258 223.728L116.2 225.995V221.446L112.258 219.164V223.728Z" fill="#BDC1E4"/>
<path d="M104.005 218.957L107.946 221.239V216.675L104.005 214.408V218.957Z" fill="#BDC1E4"/>
<path d="M95.7512 214.185L99.6927 216.467V211.918L95.7512 209.636V214.185Z" fill="url(#paint18_linear_1473_609)"/>
<path d="M87.498 209.429L91.4395 211.711V207.147L87.498 204.865V209.429Z" fill="#6652C9"/>
<path d="M79.2446 204.658L83.1861 206.94V202.391L79.2446 200.109V204.658Z" fill="#92BEB2"/>
<path d="M128.765 242.783L132.706 245.065V240.501L128.765 238.234V242.783Z" fill="#BDC1E4"/>
<path d="M120.512 238.012L124.453 240.294V235.745L120.512 233.463V238.012Z" fill="#BDC1E4"/>
<path d="M112.258 233.256L116.2 235.538V230.974L112.258 228.692V233.256Z" fill="#92BEB2"/>
<path d="M104.005 228.485L107.946 230.766V226.203L104.005 223.936V228.485Z" fill="#BDC1E4"/>
<path d="M95.7512 223.728L99.6927 225.995V221.446L95.7512 219.164V223.728Z" fill="#BDC1E4"/>
<path d="M87.498 218.957L91.4395 221.239V216.675L87.498 214.408V218.957Z" fill="url(#paint19_linear_1473_609)"/>
<path d="M79.2446 214.185L83.1861 216.467V211.918L79.2446 209.636V214.185Z" fill="url(#paint20_linear_1473_609)"/>
<path d="M128.765 252.311L132.706 254.593V250.029L128.765 247.762V252.311Z" fill="url(#paint21_linear_1473_609)"/>
<path d="M120.512 247.555L124.453 249.822V245.273L120.512 242.991V247.555Z" fill="#92BEB2"/>
<path d="M112.258 242.783L116.2 245.065V240.501L112.258 238.234V242.783Z" fill="#BDC1E4"/>
<path d="M104.005 238.012L107.946 240.294V235.745L104.005 233.463V238.012Z" fill="#6652C9"/>
<path d="M95.7512 233.256L99.6927 235.538V230.974L95.7512 228.692V233.256Z" fill="#EAEEF9"/>
<path d="M87.498 228.485L91.4395 230.766V226.203L87.498 223.936V228.485Z" fill="#92BEB2"/>
<path d="M79.2446 223.728L83.1861 225.995V221.446L79.2446 219.164V223.728Z" fill="#EAEEF9"/>
</g>
<path d="M112.258 179.097L132.707 190.907V196.671L112.258 184.861V179.097Z" fill="#D0D4F6"/>
<path d="M54.1733 188.358L70.6802 197.886V204.968L54.1733 195.441V188.358Z" fill="#BDC1E4"/>
<path d="M54.1733 200.686L70.6802 210.214V217.311L54.1733 207.769V200.686Z" fill="#BDC1E4"/>
<g style="mix-blend-mode:multiply">
<path d="M69.7759 166.902C70.2352 166.191 70.5019 165.228 70.5019 164.042C70.5019 160.264 67.8496 155.655 64.5749 153.774C61.3002 151.877 58.6478 153.418 58.6478 157.196C58.6478 160.975 61.3002 165.583 64.5749 167.465V171.732C59.2554 168.665 54.9583 161.197 54.9583 155.063C54.9583 148.928 59.2702 146.439 64.5749 149.506C69.8944 152.573 74.1915 160.041 74.1915 166.176C74.1915 168.102 73.7618 169.673 73.0061 170.829L69.7611 166.917L69.7759 166.902Z" fill="url(#paint22_linear_1473_609)"/>
<path d="M69.7759 166.902L73.021 170.814C71.3911 173.318 68.2201 173.822 64.575 171.718V167.45C66.8124 168.739 68.7683 168.428 69.7759 166.887V166.902Z" fill="url(#paint23_linear_1473_609)"/>
</g>
<defs>
<linearGradient id="paint0_linear_1473_609" x1="1.48148" y1="2.08603" x2="1.48148" y2="2.08603" gradientUnits="userSpaceOnUse">
<stop offset="0.36" stop-color="#5555C6"/>
<stop offset="0.41" stop-color="#7F7FF4"/>
</linearGradient>
<linearGradient id="paint1_linear_1473_609" x1="194.363" y1="224.158" x2="49.98" y2="-25.9192" gradientUnits="userSpaceOnUse">
<stop stop-color="#5943C9"/>
<stop offset="0.14" stop-color="#5E48C9"/>
<stop offset="0.32" stop-color="#6F57CA"/>
<stop offset="0.52" stop-color="#8A70CC"/>
<stop offset="0.74" stop-color="#B094CF"/>
<stop offset="0.97" stop-color="#E0C0D2"/>
<stop offset="1" stop-color="#E7C7D3"/>
</linearGradient>
<linearGradient id="paint2_linear_1473_609" x1="11.054" y1="129.117" x2="179.782" y2="129.117" gradientUnits="userSpaceOnUse">
<stop stop-color="#5943C9"/>
<stop offset="0.14" stop-color="#5E48C9"/>
<stop offset="0.32" stop-color="#6F57CA"/>
<stop offset="0.52" stop-color="#8A70CC"/>
<stop offset="0.74" stop-color="#B094CF"/>
<stop offset="0.97" stop-color="#E0C0D2"/>
<stop offset="1" stop-color="#E7C7D3"/>
</linearGradient>
<linearGradient id="paint3_linear_1473_609" x1="1979.85" y1="1249.94" x2="2010.24" y2="1197.3" gradientUnits="userSpaceOnUse">
<stop stop-color="#E7C0CF"/>
<stop offset="0.04" stop-color="#E7C0CF"/>
<stop offset="1" stop-color="#F0D6DF"/>
</linearGradient>
<linearGradient id="paint4_linear_1473_609" x1="1961.74" y1="1239.48" x2="1983.07" y2="1202.54" gradientUnits="userSpaceOnUse">
<stop stop-color="#E7C0CF"/>
<stop offset="0.04" stop-color="#E7C0CF"/>
<stop offset="1" stop-color="#F0D6DF"/>
</linearGradient>
<linearGradient id="paint5_linear_1473_609" x1="1941.1" y1="1227.56" x2="1969.77" y2="1177.9" gradientUnits="userSpaceOnUse">
<stop stop-color="#E7C0CF"/>
<stop offset="0.04" stop-color="#E7C0CF"/>
<stop offset="1" stop-color="#F0D6DF"/>
</linearGradient>
<linearGradient id="paint6_linear_1473_609" x1="1914.05" y1="1211.95" x2="1942.72" y2="1162.29" gradientUnits="userSpaceOnUse">
<stop stop-color="#E7C0CF"/>
<stop offset="0.04" stop-color="#E7C0CF"/>
<stop offset="1" stop-color="#F0D6DF"/>
</linearGradient>
<linearGradient id="paint7_linear_1473_609" x1="1896.36" y1="1201.73" x2="1931.75" y2="1140.43" gradientUnits="userSpaceOnUse">
<stop stop-color="#E7C0CF"/>
<stop offset="0.04" stop-color="#E7C0CF"/>
<stop offset="1" stop-color="#F0D6DF"/>
</linearGradient>
<linearGradient id="paint8_linear_1473_609" x1="1878.57" y1="1191.46" x2="1902.37" y2="1150.25" gradientUnits="userSpaceOnUse">
<stop stop-color="#E7C0CF"/>
<stop offset="0.04" stop-color="#E7C0CF"/>
<stop offset="1" stop-color="#F0D6DF"/>
</linearGradient>
<linearGradient id="paint9_linear_1473_609" x1="1855.87" y1="1178.36" x2="1887.28" y2="1123.95" gradientUnits="userSpaceOnUse">
<stop stop-color="#E7C0CF"/>
<stop offset="0.04" stop-color="#E7C0CF"/>
<stop offset="1" stop-color="#F0D6DF"/>
</linearGradient>
<linearGradient id="paint10_linear_1473_609" x1="1823.46" y1="1159.64" x2="1854.87" y2="1105.23" gradientUnits="userSpaceOnUse">
<stop stop-color="#E7C0CF"/>
<stop offset="0.04" stop-color="#E7C0CF"/>
<stop offset="1" stop-color="#F0D6DF"/>
</linearGradient>
<linearGradient id="paint11_linear_1473_609" x1="1812.86" y1="1153.56" x2="1850.02" y2="1089.19" gradientUnits="userSpaceOnUse">
<stop stop-color="#E7C0CF"/>
<stop offset="0.04" stop-color="#E7C0CF"/>
<stop offset="1" stop-color="#F0D6DF"/>
</linearGradient>
<linearGradient id="paint12_linear_1473_609" x1="7.61621" y1="85.4648" x2="183.264" y2="85.4648" gradientUnits="userSpaceOnUse">
<stop stop-color="#E7C0CF"/>
<stop offset="0.04" stop-color="#E7C0CF"/>
<stop offset="1" stop-color="#F0D6DF"/>
</linearGradient>
<linearGradient id="paint13_linear_1473_609" x1="155.837" y1="259.468" x2="72.6506" y2="115.396" gradientUnits="userSpaceOnUse">
<stop stop-color="#5943C9"/>
<stop offset="0.14" stop-color="#5E48C9"/>
<stop offset="0.32" stop-color="#6F57CA"/>
<stop offset="0.52" stop-color="#8A70CC"/>
<stop offset="0.74" stop-color="#B094CF"/>
<stop offset="0.97" stop-color="#E0C0D2"/>
<stop offset="1" stop-color="#E7C7D3"/>
</linearGradient>
<linearGradient id="paint14_linear_1473_609" x1="87.498" y1="189.233" x2="91.4395" y2="189.233" gradientUnits="userSpaceOnUse">
<stop stop-color="#0349A3"/>
<stop offset="0.85" stop-color="#1556A9"/>
<stop offset="1" stop-color="#1959AB"/>
</linearGradient>
<linearGradient id="paint15_linear_1473_609" x1="79.2446" y1="184.461" x2="83.1861" y2="184.461" gradientUnits="userSpaceOnUse">
<stop stop-color="#0349A3"/>
<stop offset="0.85" stop-color="#1556A9"/>
<stop offset="1" stop-color="#1959AB"/>
</linearGradient>
<linearGradient id="paint16_linear_1473_609" x1="120.512" y1="217.816" x2="124.453" y2="217.816" gradientUnits="userSpaceOnUse">
<stop stop-color="#E7C0CF"/>
<stop offset="0.04" stop-color="#E7C0CF"/>
<stop offset="1" stop-color="#F0D6DF"/>
</linearGradient>
<linearGradient id="paint17_linear_1473_609" x1="87.498" y1="198.76" x2="91.4395" y2="198.76" gradientUnits="userSpaceOnUse">
<stop stop-color="#0349A3"/>
<stop offset="0.85" stop-color="#1556A9"/>
<stop offset="1" stop-color="#1959AB"/>
</linearGradient>
<linearGradient id="paint18_linear_1473_609" x1="95.7512" y1="213.059" x2="99.6927" y2="213.059" gradientUnits="userSpaceOnUse">
<stop stop-color="#E7C0CF"/>
<stop offset="0.04" stop-color="#E7C0CF"/>
<stop offset="1" stop-color="#F0D6DF"/>
</linearGradient>
<linearGradient id="paint19_linear_1473_609" x1="87.498" y1="217.816" x2="91.4395" y2="217.816" gradientUnits="userSpaceOnUse">
<stop stop-color="#0349A3"/>
<stop offset="0.85" stop-color="#1556A9"/>
<stop offset="1" stop-color="#1959AB"/>
</linearGradient>
<linearGradient id="paint20_linear_1473_609" x1="79.2446" y1="213.059" x2="83.1861" y2="213.059" gradientUnits="userSpaceOnUse">
<stop stop-color="#0349A3"/>
<stop offset="0.85" stop-color="#1556A9"/>
<stop offset="1" stop-color="#1959AB"/>
</linearGradient>
<linearGradient id="paint21_linear_1473_609" x1="128.765" y1="251.17" x2="132.706" y2="251.17" gradientUnits="userSpaceOnUse">
<stop stop-color="#E7C0CF"/>
<stop offset="0.04" stop-color="#E7C0CF"/>
<stop offset="1" stop-color="#F0D6DF"/>
</linearGradient>
<linearGradient id="paint22_linear_1473_609" x1="54.9583" y1="159.952" x2="74.2063" y2="159.952" gradientUnits="userSpaceOnUse">
<stop offset="0.59" stop-color="#CEDCEE"/>
<stop offset="1" stop-color="#B9CDE5"/>
</linearGradient>
<linearGradient id="paint23_linear_1473_609" x1="64.575" y1="169.969" x2="73.021" y2="169.969" gradientUnits="userSpaceOnUse">
<stop stop-color="#0349A3"/>
<stop offset="0.85" stop-color="#1556A9"/>
<stop offset="1" stop-color="#1959AB"/>
</linearGradient>
</defs>
</svg>
