<svg width="250" height="277" viewBox="0 0 250 277" fill="none" xmlns="http://www.w3.org/2000/svg">
<circle cx="125" cy="133" r="125" fill="#669085"/>
<path d="M177.586 68.7489L66.5814 4.57411C61.2679 1.50591 56.9614 3.9948 56.9614 10.1312V107.82C56.9614 113.957 61.2679 121.423 66.5814 124.492L177.586 188.666C182.9 191.735 187.206 189.246 187.206 183.109V85.4203C187.206 79.2838 182.9 71.8172 177.586 68.7489Z" fill="url(#paint0_linear_1667_10)"/>
<path d="M118.303 48.0016C96.1062 35.1709 78.1089 45.577 78.1089 71.2384C78.1089 96.8997 96.1062 128.118 118.303 140.949C140.5 153.78 158.497 143.373 158.497 117.712C158.497 92.0507 140.5 60.8322 118.303 48.0016Z" fill="white"/>
<path d="M192.819 82.1809C192.819 76.0445 188.513 68.5778 183.199 65.5096L72.1943 1.31329C69.6018 -0.188629 67.245 -0.360277 65.5096 0.583786L59.7676 3.88801C61.503 2.87958 63.9027 3.02977 66.5594 4.55314L177.564 68.728C182.878 71.7962 187.184 79.2629 187.184 85.3993V183.088C187.184 186.221 186.049 188.409 184.249 189.375L190.013 186.049C191.748 185.041 192.819 182.895 192.819 179.806V82.1809Z" fill="url(#paint1_linear_1667_10)"/>
<path d="M118.303 93.0803C117.639 92.6941 117.103 93.016 117.103 93.7669C117.103 94.5179 117.639 95.462 118.303 95.8482C118.967 96.2344 119.503 95.9125 119.503 95.1616C119.503 94.4106 118.967 93.4666 118.303 93.0803ZM118.303 87.8665C115.154 86.0428 112.583 87.5232 112.583 91.1708C112.583 94.8183 115.154 99.2597 118.303 101.083C121.453 102.907 124.024 101.427 124.024 97.7792C124.024 94.1317 121.453 89.6903 118.303 87.8665ZM118.303 99.0022C116.139 97.7577 114.382 94.711 114.382 92.2221C114.382 89.7332 116.139 88.7033 118.303 89.9692C120.467 91.2351 122.224 94.2604 122.224 96.7493C122.224 99.2382 120.467 100.268 118.303 99.0022ZM141.871 107.434C141.443 106.619 131.437 87.1156 118.303 79.5202C105.169 71.9248 95.1638 79.842 94.7353 80.1853C94.4567 80.4213 94.4567 80.9792 94.7353 81.5156C95.1638 82.3309 105.169 101.834 118.303 109.451C131.437 117.047 141.443 109.129 141.871 108.786C142.15 108.55 142.15 107.992 141.871 107.456V107.434ZM118.303 107.349C107.612 101.169 98.8061 85.9355 96.6421 81.9447C98.8061 80.4642 107.612 75.4006 118.303 81.6014C128.994 87.7807 137.8 103.014 139.964 107.005C137.8 108.486 128.994 113.549 118.303 107.349ZM113.482 73.5983C114.147 73.9845 114.682 73.6627 114.682 72.9117C114.682 72.1608 114.147 71.2167 113.482 70.8305C112.818 70.4443 112.283 70.7661 112.283 71.5171C112.283 72.268 112.818 73.2121 113.482 73.5983ZM113.482 68.0198C114.147 68.406 114.682 68.0841 114.682 67.3332C114.682 66.5822 114.147 65.6381 113.482 65.2519C112.818 64.8657 112.283 65.1876 112.283 65.9385C112.283 66.6895 112.818 67.6336 113.482 68.0198ZM118.303 76.3661C118.967 76.7523 119.503 76.4305 119.503 75.6795C119.503 74.9286 118.967 73.9845 118.303 73.5983C117.639 73.2121 117.103 73.5339 117.103 74.2849C117.103 75.0359 117.639 75.9799 118.303 76.3661ZM108.662 59.6519C109.326 60.0381 109.862 59.7163 109.862 58.9653C109.862 58.2144 109.326 57.2703 108.662 56.8841C107.998 56.4979 107.462 56.8197 107.462 57.5707C107.462 58.3217 107.998 59.2657 108.662 59.6519ZM113.482 62.4412C114.147 62.8274 114.682 62.5056 114.682 61.7546C114.682 61.0037 114.147 60.0596 113.482 59.6734C112.818 59.2872 112.283 59.609 112.283 60.36C112.283 61.1109 112.818 62.055 113.482 62.4412ZM103.841 68.0198C104.505 68.406 105.041 68.0841 105.041 67.3332C105.041 66.5822 104.505 65.6381 103.841 65.2519C103.177 64.8657 102.641 65.1876 102.641 65.9385C102.641 66.6895 103.177 67.6336 103.841 68.0198ZM103.841 62.4412C104.505 62.8274 105.041 62.5056 105.041 61.7546C105.041 61.0037 104.505 60.0596 103.841 59.6734C103.177 59.2872 102.641 59.609 102.641 60.36C102.641 61.1109 103.177 62.055 103.841 62.4412ZM103.841 56.8627C104.505 57.2489 105.041 56.927 105.041 56.1761C105.041 55.4251 104.505 54.481 103.841 54.0948C103.177 53.7086 102.641 54.0305 102.641 54.7814C102.641 55.5324 103.177 56.4764 103.841 56.8627ZM108.662 70.7876C109.326 71.1738 109.862 70.8519 109.862 70.101C109.862 69.35 109.326 68.406 108.662 68.0198C107.998 67.6336 107.462 67.9554 107.462 68.7064C107.462 69.4573 107.998 70.4014 108.662 70.7876ZM108.662 65.209C109.326 65.5952 109.862 65.2734 109.862 64.5224C109.862 63.7715 109.326 62.8274 108.662 62.4412C107.998 62.055 107.462 62.3768 107.462 63.1278C107.462 63.8788 107.998 64.8228 108.662 65.209ZM132.744 79.134C133.408 79.5202 133.944 79.1983 133.944 78.4474C133.944 77.6964 133.408 76.7523 132.744 76.3661C132.08 75.9799 131.544 76.3018 131.544 77.0527C131.544 77.8037 132.08 78.7478 132.744 79.134ZM132.744 84.7125C133.408 85.0987 133.944 84.7769 133.944 84.0259C133.944 83.275 133.408 82.3309 132.744 81.9447C132.08 81.5585 131.544 81.8803 131.544 82.6313C131.544 83.3822 132.08 84.3263 132.744 84.7125ZM118.303 65.2305C118.967 65.6167 119.503 65.2949 119.503 64.5439C119.503 63.7929 118.967 62.8489 118.303 62.4627C117.639 62.0765 117.103 62.3983 117.103 63.1493C117.103 63.9002 117.639 64.8443 118.303 65.2305ZM127.945 70.809C128.609 71.1952 129.144 70.8734 129.144 70.1224C129.144 69.3715 128.609 68.4274 127.945 68.0412C127.28 67.655 126.745 67.9768 126.745 68.7278C126.745 69.4788 127.28 70.4228 127.945 70.809ZM132.765 73.5983C133.43 73.9845 133.965 73.6627 133.965 72.9117C133.965 72.1608 133.43 71.2167 132.765 70.8305C132.101 70.4443 131.566 70.7661 131.566 71.5171C131.566 72.268 132.101 73.2121 132.765 73.5983ZM103.862 73.5983C104.527 73.9845 105.062 73.6627 105.062 72.9117C105.062 72.1608 104.527 71.2167 103.862 70.8305C103.198 70.4443 102.663 70.7661 102.663 71.5171C102.663 72.268 103.198 73.2121 103.862 73.5983ZM132.765 90.3125C133.43 90.6987 133.965 90.3769 133.965 89.6259C133.965 88.875 133.43 87.9309 132.765 87.5447C132.101 87.1585 131.566 87.4803 131.566 88.2313C131.566 88.9822 132.101 89.9263 132.765 90.3125ZM127.945 76.3876C128.609 76.7738 129.144 76.452 129.144 75.701C129.144 74.95 128.609 74.006 127.945 73.6198C127.28 73.2336 126.745 73.5554 126.745 74.3064C126.745 75.0573 127.28 76.0014 127.945 76.3876ZM123.124 73.5983C123.788 73.9845 124.324 73.6627 124.324 72.9117C124.324 72.1608 123.788 71.2167 123.124 70.8305C122.46 70.4443 121.924 70.7661 121.924 71.5171C121.924 72.268 122.46 73.2121 123.124 73.5983ZM123.124 79.1769C123.788 79.5631 124.324 79.2412 124.324 78.4903C124.324 77.7393 123.788 76.7953 123.124 76.409C122.46 76.0228 121.924 76.3447 121.924 77.0956C121.924 77.8466 122.46 78.7907 123.124 79.1769ZM123.124 68.0412C123.788 68.4274 124.324 68.1056 124.324 67.3546C124.324 66.6037 123.788 65.6596 123.124 65.2734C122.46 64.8872 121.924 65.209 121.924 65.96C121.924 66.7109 122.46 67.655 123.124 68.0412ZM127.945 81.9661C128.609 82.3524 129.144 82.0305 129.144 81.2796C129.144 80.5286 128.609 79.5845 127.945 79.1983C127.28 78.8121 126.745 79.134 126.745 79.8849C126.745 80.6359 127.28 81.5799 127.945 81.9661ZM118.303 70.8305C118.967 71.2167 119.503 70.8949 119.503 70.1439C119.503 69.3929 118.967 68.4489 118.303 68.0627C117.639 67.6765 117.103 67.9983 117.103 68.7493C117.103 69.5002 117.639 70.4443 118.303 70.8305ZM127.945 129.298C127.28 128.912 126.745 129.234 126.745 129.985C126.745 130.736 127.28 131.68 127.945 132.066C128.609 132.452 129.144 132.13 129.144 131.379C129.144 130.628 128.609 129.684 127.945 129.298ZM123.124 115.373C122.46 114.987 121.924 115.309 121.924 116.06C121.924 116.811 122.46 117.755 123.124 118.141C123.788 118.527 124.324 118.205 124.324 117.454C124.324 116.703 123.788 115.759 123.124 115.373ZM118.303 112.584C117.639 112.198 117.103 112.519 117.103 113.27C117.103 114.021 117.639 114.965 118.303 115.352C118.967 115.738 119.503 115.416 119.503 114.665C119.503 113.914 118.967 112.97 118.303 112.584ZM127.945 123.719C127.28 123.333 126.745 123.655 126.745 124.406C126.745 125.157 127.28 126.101 127.945 126.487C128.609 126.874 129.144 126.552 129.144 125.801C129.144 125.05 128.609 124.106 127.945 123.719ZM123.124 120.93C122.46 120.544 121.924 120.866 121.924 121.617C121.924 122.368 122.46 123.312 123.124 123.698C123.788 124.084 124.324 123.762 124.324 123.011C124.324 122.26 123.788 121.316 123.124 120.93ZM123.124 126.509C122.46 126.123 121.924 126.444 121.924 127.195C121.924 127.946 122.46 128.89 123.124 129.277C123.788 129.663 124.324 129.341 124.324 128.59C124.324 127.839 123.788 126.895 123.124 126.509ZM132.765 115.373C132.101 114.987 131.566 115.309 131.566 116.06C131.566 116.811 132.101 117.755 132.765 118.141C133.43 118.527 133.965 118.205 133.965 117.454C133.965 116.703 133.43 115.759 132.765 115.373ZM132.765 120.952C132.101 120.565 131.566 120.887 131.566 121.638C131.566 122.389 132.101 123.333 132.765 123.719C133.43 124.106 133.965 123.784 133.965 123.033C133.965 122.282 133.43 121.338 132.765 120.952ZM103.862 115.373C103.198 114.987 102.663 115.309 102.663 116.06C102.663 116.811 103.198 117.755 103.862 118.141C104.527 118.527 105.062 118.205 105.062 117.454C105.062 116.703 104.527 115.759 103.862 115.373ZM127.945 118.162C127.28 117.776 126.745 118.098 126.745 118.849C126.745 119.6 127.28 120.544 127.945 120.93C128.609 121.316 129.144 120.995 129.144 120.244C129.144 119.493 128.609 118.549 127.945 118.162ZM132.765 126.509C132.101 126.123 131.566 126.444 131.566 127.195C131.566 127.946 132.101 128.89 132.765 129.277C133.43 129.663 133.965 129.341 133.965 128.59C133.965 127.839 133.43 126.895 132.765 126.509ZM132.765 132.087C132.101 131.701 131.566 132.023 131.566 132.774C131.566 133.525 132.101 134.469 132.765 134.855C133.43 135.241 133.965 134.92 133.965 134.169C133.965 133.418 133.43 132.474 132.765 132.087ZM103.862 98.6804C103.198 98.2941 102.663 98.616 102.663 99.3669C102.663 100.118 103.198 101.062 103.862 101.448C104.527 101.834 105.062 101.513 105.062 100.762C105.062 100.011 104.527 99.0666 103.862 98.6804ZM118.303 118.162C117.639 117.776 117.103 118.098 117.103 118.849C117.103 119.6 117.639 120.544 118.303 120.93C118.967 121.316 119.503 120.995 119.503 120.244C119.503 119.493 118.967 118.549 118.303 118.162ZM108.662 118.162C107.998 117.776 107.462 118.098 107.462 118.849C107.462 119.6 107.998 120.544 108.662 120.93C109.326 121.316 109.862 120.995 109.862 120.244C109.862 119.493 109.326 118.549 108.662 118.162ZM103.841 104.237C103.177 103.851 102.641 104.173 102.641 104.924C102.641 105.675 103.177 106.619 103.841 107.005C104.505 107.391 105.041 107.07 105.041 106.319C105.041 105.568 104.505 104.624 103.841 104.237ZM103.841 109.816C103.177 109.43 102.641 109.752 102.641 110.503C102.641 111.254 103.177 112.198 103.841 112.584C104.505 112.97 105.041 112.648 105.041 111.897C105.041 111.146 104.505 110.202 103.841 109.816ZM108.662 112.605C107.998 112.219 107.462 112.541 107.462 113.292C107.462 114.043 107.998 114.987 108.662 115.373C109.326 115.759 109.862 115.437 109.862 114.687C109.862 113.936 109.326 112.991 108.662 112.605ZM108.662 107.027C107.998 106.641 107.462 106.962 107.462 107.713C107.462 108.464 107.998 109.408 108.662 109.795C109.326 110.181 109.862 109.859 109.862 109.108C109.862 108.357 109.326 107.413 108.662 107.027ZM118.303 123.741C117.639 123.355 117.103 123.677 117.103 124.428C117.103 125.178 117.639 126.123 118.303 126.509C118.967 126.895 119.503 126.573 119.503 125.822C119.503 125.071 118.967 124.127 118.303 123.741ZM113.482 109.816C112.818 109.43 112.283 109.752 112.283 110.503C112.283 111.254 112.818 112.198 113.482 112.584C114.147 112.97 114.682 112.648 114.682 111.897C114.682 111.146 114.147 110.202 113.482 109.816ZM113.482 120.952C112.818 120.565 112.283 120.887 112.283 121.638C112.283 122.389 112.818 123.333 113.482 123.719C114.147 124.106 114.682 123.784 114.682 123.033C114.682 122.282 114.147 121.338 113.482 120.952ZM113.482 115.373C112.818 114.987 112.283 115.309 112.283 116.06C112.283 116.811 112.818 117.755 113.482 118.141C114.147 118.527 114.682 118.205 114.682 117.454C114.682 116.703 114.147 115.759 113.482 115.373Z" fill="#3F3F60"/>
<path style="mix-blend-mode:multiply" d="M210.476 253.3C216.77 240.658 180.441 209.723 129.333 184.205C78.2244 158.687 31.6905 148.249 25.3964 160.89C19.1023 173.532 55.4316 204.467 106.54 229.985C157.648 255.503 204.182 265.942 210.476 253.3Z" fill="url(#paint2_radial_1667_10)"/>
<defs>
<linearGradient id="paint0_linear_1667_10" x1="199.633" y1="174.291" x2="44.2921" y2="19.1711" gradientUnits="userSpaceOnUse">
<stop offset="0.41" stop-color="#C7DED7"/>
<stop offset="0.62" stop-color="#D0DCEC"/>
</linearGradient>
<linearGradient id="paint1_linear_1667_10" x1="93.7483" y1="-15.7442" x2="208.126" y2="182.089" gradientUnits="userSpaceOnUse">
<stop offset="0.38" stop-color="#92BEB2"/>
<stop offset="0.59" stop-color="#70AA9A"/>
</linearGradient>
<radialGradient id="paint2_radial_1667_10" cx="0" cy="0" r="1" gradientUnits="userSpaceOnUse" gradientTransform="translate(124.899 202.546) rotate(-149.721) scale(86.498 22.5108)">
<stop stop-color="#8CA0BA" stop-opacity="0.4"/>
<stop offset="0.13" stop-color="#778DA9" stop-opacity="0.31"/>
<stop offset="0.35" stop-color="#8097B4" stop-opacity="0.17"/>
<stop offset="0.56" stop-color="#829DC2" stop-opacity="0.08"/>
<stop offset="0.76" stop-color="white" stop-opacity="0.02"/>
<stop offset="0.94" stop-color="white" stop-opacity="0"/>
</radialGradient>
</defs>
</svg>
