<svg width="353" height="204" viewBox="0 0 353 204" fill="none" xmlns="http://www.w3.org/2000/svg">
<g clip-path="url(#clip0_1451_13314)">
<path style="mix-blend-mode:multiply" d="M203.775 204H207.481L352.984 119.882H349.278L203.775 204ZM330.813 107.054H327.107L349.278 119.866H352.984L330.813 107.054Z" fill="url(#paint0_linear_1451_13314)"/>
<path d="M145.503 0L349.278 117.803L203.775 201.937L0 84.1176L145.503 0Z" fill="url(#paint1_linear_1451_13314)"/>
<path d="M349.278 119.883L203.775 204V201.937L349.278 117.803V119.883Z" fill="#9186C9"/>
<path d="M203.775 204L0 86.197V84.1177L203.775 201.937V204Z" fill="#3F3F60"/>
<path d="M203.775 194.483L17.3633 86.7087L149.976 10.0288L336.387 117.803L203.775 194.483Z" stroke="white" stroke-width="0.96" stroke-linecap="round" stroke-linejoin="round"/>
<path d="M151.03 143.283L221.681 184.118L203.775 194.483L133.124 153.632L151.03 143.283Z" stroke="white" stroke-width="0.96" stroke-linecap="round" stroke-linejoin="round"/>
<path d="M229.396 179.655L158.745 138.82L151.03 143.283L221.681 184.118L229.396 179.655Z" stroke="white" stroke-width="0.96" stroke-linecap="round" stroke-linejoin="round"/>
<path d="M161.78 170.954C161.509 170.954 161.253 170.81 161.109 170.57C160.902 170.203 161.03 169.739 161.397 169.515L179.303 159.166C179.671 158.958 180.134 159.086 180.358 159.454C180.565 159.822 180.438 160.286 180.07 160.51L162.164 170.858C162.036 170.922 161.908 170.954 161.78 170.954Z" fill="white"/>
<path d="M173.729 164.045C173.601 164.045 173.473 164.013 173.345 163.949L144.689 147.378C144.321 147.17 144.194 146.69 144.401 146.322C144.609 145.954 145.088 145.826 145.455 146.034L174.112 162.605C174.479 162.813 174.607 163.293 174.4 163.661C174.256 163.901 174 164.045 173.729 164.045Z" fill="white"/>
<path d="M167.531 167.628C167.403 167.628 167.275 167.596 167.148 167.532L138.491 150.961C138.124 150.753 137.996 150.273 138.203 149.905C138.411 149.537 138.89 149.409 139.258 149.617L167.914 166.188C168.282 166.396 168.41 166.876 168.202 167.244C168.058 167.484 167.802 167.628 167.531 167.628Z" fill="white"/>
<path d="M147.452 162.685C147.18 162.685 146.925 162.541 146.781 162.301C146.573 161.933 146.701 161.469 147.069 161.245L164.975 150.896C165.342 150.689 165.806 150.816 166.029 151.184C166.237 151.552 166.109 152.016 165.742 152.24L147.835 162.589C147.708 162.653 147.58 162.685 147.452 162.685Z" fill="white"/>
<path d="M42.6653 65.7075L48.1762 68.8905L17.3632 86.7089L11.8523 83.5259L42.6653 65.7075Z" stroke="white" stroke-width="0.96" stroke-linecap="round" stroke-linejoin="round"/>
<path d="M144.481 6.86182L149.976 10.0288L130.792 21.1293L125.281 17.9463L144.481 6.86182Z" stroke="white" stroke-width="0.96" stroke-linecap="round" stroke-linejoin="round"/>
<path d="M38.1767 75.4321C38.049 75.4321 37.9212 75.4001 37.7934 75.3361L32.2825 72.1531C31.9151 71.9452 31.7873 71.4653 31.995 71.0975C32.2026 70.7296 32.6818 70.6016 33.0492 70.8096L38.5601 73.9926C38.9275 74.2005 39.0553 74.6803 38.8476 75.0482C38.7039 75.2881 38.4483 75.4321 38.1767 75.4321Z" fill="white"/>
<path d="M27.8098 81.4306C27.682 81.4306 27.5542 81.3986 27.4264 81.3347L21.9156 78.1517C21.5482 77.9437 21.4204 77.4639 21.628 77.096C21.8357 76.7281 22.3149 76.6002 22.6823 76.8081L28.1932 79.9911C28.5606 80.199 28.6883 80.6789 28.4807 81.0468C28.3369 81.2867 28.0813 81.4306 27.8098 81.4306Z" fill="white"/>
<path d="M149.864 20.4574C150.583 20.0415 151.749 20.0415 152.468 20.4574C153.187 20.8733 153.187 21.5451 152.468 21.9609C151.749 22.3768 150.583 22.3768 149.864 21.9609C149.145 21.5451 149.145 20.8733 149.864 20.4574Z" fill="#E7D7DD"/>
<path d="M168.042 30.9662C168.761 30.5503 169.927 30.5503 170.646 30.9662C171.365 31.3821 171.365 32.0539 170.646 32.4697C169.927 32.8856 168.761 32.8856 168.042 32.4697C167.323 32.0539 167.323 31.3821 168.042 30.9662Z" fill="#E7D7DD"/>
<path d="M186.204 41.475C186.923 41.0591 188.089 41.0591 188.808 41.475C189.526 41.8909 189.526 42.5626 188.808 42.9785C188.089 43.3944 186.923 43.3944 186.204 42.9785C185.485 42.5626 185.485 41.8909 186.204 41.475Z" fill="#E7D7DD"/>
<path d="M204.382 51.9833C205.101 51.5674 206.267 51.5674 206.986 51.9833C207.704 52.3992 207.704 53.0709 206.986 53.4868C206.267 53.9027 205.101 53.9027 204.382 53.4868C203.663 53.0709 203.663 52.3992 204.382 51.9833Z" fill="#E7D7DD"/>
<path d="M222.56 62.4921C223.279 62.0762 224.445 62.0762 225.164 62.4921C225.882 62.9079 225.882 63.5797 225.164 63.9956C224.445 64.4115 223.279 64.4115 222.56 63.9956C221.841 63.5797 221.841 62.9079 222.56 62.4921Z" fill="#E7D7DD"/>
<path d="M240.738 72.9848C241.457 72.5689 242.623 72.5689 243.342 72.9848C244.06 73.4006 244.06 74.0724 243.342 74.4883C242.623 74.9041 241.457 74.9041 240.738 74.4883C240.019 74.0724 240.019 73.4006 240.738 72.9848Z" fill="#E7D7DD"/>
<path d="M258.9 83.4935C259.619 83.0777 260.785 83.0777 261.503 83.4935C262.222 83.9094 262.222 84.5812 261.503 84.9971C260.785 85.4129 259.619 85.4129 258.9 84.9971C258.181 84.5812 258.181 83.9094 258.9 83.4935Z" fill="#E7D7DD"/>
<path d="M277.078 94.0023C277.796 93.5865 278.963 93.5865 279.681 94.0023C280.4 94.4182 280.4 95.09 279.681 95.5059C278.963 95.9217 277.796 95.9217 277.078 95.5059C276.359 95.09 276.359 94.4182 277.078 94.0023Z" fill="#E7D7DD"/>
<path d="M295.255 104.511C295.974 104.095 297.14 104.095 297.859 104.511C298.578 104.927 298.578 105.599 297.859 106.015C297.14 106.431 295.974 106.431 295.255 106.015C294.537 105.599 294.537 104.927 295.255 104.511Z" fill="#E7D7DD"/>
<path d="M313.433 115.02C314.152 114.604 315.318 114.604 316.037 115.02C316.756 115.436 316.756 116.108 316.037 116.523C315.318 116.939 314.152 116.939 313.433 116.523C312.715 116.108 312.715 115.436 313.433 115.02Z" fill="#E7D7DD"/>
<path d="M130.392 31.7177C131.111 31.3018 132.277 31.3018 132.996 31.7177C133.715 32.1335 133.715 32.8053 132.996 33.2212C132.277 33.6371 131.111 33.6371 130.392 33.2212C129.674 32.8053 129.674 32.1335 130.392 31.7177Z" fill="#E7D7DD"/>
<path d="M148.57 42.2265C149.289 41.8106 150.455 41.8106 151.174 42.2265C151.893 42.6423 151.893 43.3141 151.174 43.73C150.455 44.1459 149.289 44.1459 148.57 43.73C147.851 43.3141 147.851 42.6423 148.57 42.2265Z" fill="#E7D7DD"/>
<path d="M166.732 52.7352C167.451 52.3194 168.617 52.3194 169.336 52.7352C170.055 53.1511 170.055 53.8229 169.336 54.2388C168.617 54.6546 167.451 54.6546 166.732 54.2388C166.013 53.8229 166.013 53.1511 166.732 52.7352Z" fill="#E7D7DD"/>
<path d="M184.91 63.2279C185.629 62.812 186.795 62.812 187.514 63.2279C188.233 63.6438 188.233 64.3156 187.514 64.7314C186.795 65.1473 185.629 65.1473 184.91 64.7314C184.191 64.3156 184.191 63.6438 184.91 63.2279Z" fill="#E7D7DD"/>
<path d="M203.088 73.7367C203.807 73.3208 204.973 73.3208 205.692 73.7367C206.41 74.1526 206.41 74.8244 205.692 75.2402C204.973 75.6561 203.807 75.6561 203.088 75.2402C202.369 74.8244 202.369 74.1526 203.088 73.7367Z" fill="#E7D7DD"/>
<path d="M221.266 84.2455C221.985 83.8296 223.151 83.8296 223.87 84.2455C224.588 84.6614 224.588 85.3332 223.87 85.749C223.151 86.1649 221.985 86.1649 221.266 85.749C220.547 85.3332 220.547 84.6614 221.266 84.2455Z" fill="#E7D7DD"/>
<path d="M239.428 94.7543C240.147 94.3384 241.313 94.3384 242.031 94.7543C242.75 95.1702 242.75 95.8419 242.031 96.2578C241.313 96.6737 240.147 96.6737 239.428 96.2578C238.709 95.8419 238.709 95.1702 239.428 94.7543Z" fill="#E7D7DD"/>
<path d="M257.606 105.263C258.325 104.847 259.491 104.847 260.209 105.263C260.928 105.678 260.928 106.35 260.209 106.766C259.491 107.182 258.325 107.182 257.606 106.766C256.887 106.35 256.887 105.678 257.606 105.263Z" fill="#E7D7DD"/>
<path d="M275.784 115.771C276.503 115.356 277.669 115.356 278.387 115.771C279.106 116.187 279.106 116.859 278.387 117.275C277.669 117.691 276.503 117.691 275.784 117.275C275.065 116.859 275.065 116.187 275.784 115.771Z" fill="#E7D7DD"/>
<path d="M293.962 126.28C294.681 125.864 295.847 125.864 296.565 126.28C297.284 126.696 297.284 127.368 296.565 127.784C295.847 128.2 294.681 128.2 293.962 127.784C293.243 127.368 293.243 126.696 293.962 126.28Z" fill="#E7D7DD"/>
<path d="M110.92 42.9784C111.639 42.5625 112.805 42.5625 113.524 42.9784C114.243 43.3943 114.243 44.0661 113.524 44.4819C112.805 44.8978 111.639 44.8978 110.92 44.4819C110.202 44.0661 110.202 43.3943 110.92 42.9784Z" fill="#E7D7DD"/>
<path d="M129.083 53.4872C129.801 53.0713 130.967 53.0713 131.686 53.4872C132.405 53.9031 132.405 54.5749 131.686 54.9907C130.967 55.4066 129.801 55.4066 129.083 54.9907C128.364 54.5749 128.364 53.9031 129.083 53.4872Z" fill="#E7D7DD"/>
<path d="M147.26 63.9799C147.979 63.564 149.145 63.564 149.864 63.9799C150.583 64.3957 150.583 65.0675 149.864 65.4834C149.145 65.8993 147.979 65.8993 147.26 65.4834C146.541 65.0675 146.541 64.3957 147.26 63.9799Z" fill="#E7D7DD"/>
<path d="M165.438 74.4887C166.157 74.0728 167.323 74.0728 168.042 74.4887C168.761 74.9045 168.761 75.5763 168.042 75.9922C167.323 76.4081 166.157 76.4081 165.438 75.9922C164.719 75.5763 164.719 74.9045 165.438 74.4887Z" fill="#E7D7DD"/>
<path d="M183.616 84.997C184.335 84.5811 185.501 84.5811 186.22 84.997C186.939 85.4128 186.939 86.0846 186.22 86.5005C185.501 86.9164 184.335 86.9164 183.616 86.5005C182.897 86.0846 182.897 85.4128 183.616 84.997Z" fill="#E7D7DD"/>
<path d="M201.778 95.5057C202.497 95.0899 203.663 95.0899 204.382 95.5057C205.101 95.9216 205.101 96.5934 204.382 97.0093C203.663 97.4252 202.497 97.4252 201.778 97.0093C201.059 96.5934 201.059 95.9216 201.778 95.5057Z" fill="#E7D7DD"/>
<path d="M219.956 106.015C220.675 105.599 221.841 105.599 222.56 106.015C223.279 106.43 223.279 107.102 222.56 107.518C221.841 107.934 220.675 107.934 219.956 107.518C219.237 107.102 219.237 106.43 219.956 106.015Z" fill="#E7D7DD"/>
<path d="M238.134 116.523C238.853 116.107 240.019 116.107 240.738 116.523C241.457 116.939 241.457 117.611 240.738 118.027C240.019 118.443 238.853 118.443 238.134 118.027C237.415 117.611 237.415 116.939 238.134 116.523Z" fill="#E7D7DD"/>
<path d="M256.312 127.032C257.031 126.616 258.197 126.616 258.916 127.032C259.635 127.448 259.635 128.12 258.916 128.536C258.197 128.952 257.031 128.952 256.312 128.536C255.593 128.12 255.593 127.448 256.312 127.032Z" fill="#E7D7DD"/>
<path d="M274.474 137.541C275.193 137.125 276.359 137.125 277.078 137.541C277.796 137.957 277.796 138.629 277.078 139.044C276.359 139.46 275.193 139.46 274.474 139.044C273.755 138.629 273.755 137.957 274.474 137.541Z" fill="#E7D7DD"/>
<path d="M91.4488 54.2387C92.1676 53.8228 93.3337 53.8228 94.0525 54.2387C94.7713 54.6545 94.7713 55.3263 94.0525 55.7422C93.3337 56.1581 92.1676 56.1581 91.4488 55.7422C90.73 55.3263 90.73 54.6545 91.4488 54.2387Z" fill="#E7D7DD"/>
<path d="M109.611 64.7313C110.329 64.3155 111.496 64.3155 112.214 64.7313C112.933 65.1472 112.933 65.819 112.214 66.2349C111.496 66.6507 110.329 66.6507 109.611 66.2349C108.892 65.819 108.892 65.1472 109.611 64.7313Z" fill="#E7D7DD"/>
<path d="M127.789 75.2401C128.507 74.8243 129.673 74.8243 130.392 75.2401C131.111 75.656 131.111 76.3278 130.392 76.7437C129.673 77.1595 128.507 77.1595 127.789 76.7437C127.07 76.3278 127.07 75.656 127.789 75.2401Z" fill="#E7D7DD"/>
<path d="M145.967 85.7489C146.685 85.333 147.851 85.333 148.57 85.7489C149.289 86.1648 149.289 86.8366 148.57 87.2524C147.851 87.6683 146.685 87.6683 145.967 87.2524C145.248 86.8366 145.248 86.1648 145.967 85.7489Z" fill="#E7D7DD"/>
<path d="M164.144 96.2577C164.863 95.8418 166.029 95.8418 166.748 96.2577C167.467 96.6736 167.467 97.3454 166.748 97.7612C166.029 98.1771 164.863 98.1771 164.144 97.7612C163.426 97.3454 163.426 96.6736 164.144 96.2577Z" fill="#E7D7DD"/>
<path d="M182.306 106.766C183.025 106.351 184.191 106.351 184.91 106.766C185.629 107.182 185.629 107.854 184.91 108.27C184.191 108.686 183.025 108.686 182.306 108.27C181.588 107.854 181.588 107.182 182.306 106.766Z" fill="#E7D7DD"/>
<path d="M200.484 117.275C201.203 116.859 202.369 116.859 203.088 117.275C203.807 117.691 203.807 118.362 203.088 118.778C202.369 119.194 201.203 119.194 200.484 118.778C199.766 118.362 199.766 117.691 200.484 117.275Z" fill="#E7D7DD"/>
<path d="M218.662 127.784C219.381 127.368 220.547 127.368 221.266 127.784C221.985 128.199 221.985 128.871 221.266 129.287C220.547 129.703 219.381 129.703 218.662 129.287C217.943 128.871 217.943 128.199 218.662 127.784Z" fill="#E7D7DD"/>
<path d="M236.84 138.292C237.559 137.877 238.725 137.877 239.444 138.292C240.163 138.708 240.163 139.38 239.444 139.796C238.725 140.212 237.559 140.212 236.84 139.796C236.121 139.38 236.121 138.708 236.84 138.292Z" fill="#E7D7DD"/>
<path d="M255.002 148.785C255.721 148.369 256.887 148.369 257.606 148.785C258.325 149.201 258.325 149.873 257.606 150.289C256.887 150.704 255.721 150.704 255.002 150.289C254.283 149.873 254.283 149.201 255.002 148.785Z" fill="#E7D7DD"/>
<path d="M71.9769 65.4833C72.6957 65.0674 73.8617 65.0674 74.5805 65.4833C75.2994 65.8992 75.2994 66.571 74.5805 66.9868C73.8617 67.4027 72.6957 67.4027 71.9769 66.9868C71.258 66.571 71.258 65.8992 71.9769 65.4833Z" fill="#E7D7DD"/>
<path d="M90.139 75.9921C90.8578 75.5762 92.0238 75.5762 92.7427 75.9921C93.4615 76.4079 93.4615 77.0797 92.7427 77.4956C92.0238 77.9115 90.8578 77.9115 90.139 77.4956C89.4202 77.0797 89.4202 76.4079 90.139 75.9921Z" fill="#E7D7DD"/>
<path d="M108.317 86.5009C109.036 86.085 110.202 86.085 110.92 86.5009C111.639 86.9167 111.639 87.5885 110.92 88.0044C110.202 88.4203 109.036 88.4203 108.317 88.0044C107.598 87.5885 107.598 86.9167 108.317 86.5009Z" fill="#E7D7DD"/>
<path d="M126.495 97.0092C127.213 96.5933 128.38 96.5933 129.098 97.0092C129.817 97.425 129.817 98.0968 129.098 98.5127C128.38 98.9286 127.213 98.9286 126.495 98.5127C125.776 98.0968 125.776 97.425 126.495 97.0092Z" fill="#E7D7DD"/>
<path d="M144.673 107.518C145.391 107.102 146.558 107.102 147.276 107.518C147.995 107.934 147.995 108.606 147.276 109.021C146.558 109.437 145.391 109.437 144.673 109.021C143.954 108.606 143.954 107.934 144.673 107.518Z" fill="#E7D7DD"/>
<path d="M162.835 118.027C163.553 117.611 164.719 117.611 165.438 118.027C166.157 118.443 166.157 119.114 165.438 119.53C164.719 119.946 163.553 119.946 162.835 119.53C162.116 119.114 162.116 118.443 162.835 118.027Z" fill="#E7D7DD"/>
<path d="M181.012 128.536C181.731 128.12 182.897 128.12 183.616 128.536C184.335 128.951 184.335 129.623 183.616 130.039C182.897 130.455 181.731 130.455 181.012 130.039C180.294 129.623 180.294 128.951 181.012 128.536Z" fill="#E7D7DD"/>
<path d="M199.19 139.044C199.909 138.628 201.075 138.628 201.794 139.044C202.513 139.46 202.513 140.132 201.794 140.548C201.075 140.964 199.909 140.964 199.19 140.548C198.472 140.132 198.472 139.46 199.19 139.044Z" fill="#E7D7DD"/>
<path d="M217.352 149.537C218.071 149.121 219.237 149.121 219.956 149.537C220.675 149.953 220.675 150.625 219.956 151.041C219.237 151.456 218.071 151.456 217.352 151.041C216.634 150.625 216.634 149.953 217.352 149.537Z" fill="#E7D7DD"/>
<path d="M235.53 160.046C236.249 159.63 237.415 159.63 238.134 160.046C238.853 160.462 238.853 161.133 238.134 161.549C237.415 161.965 236.249 161.965 235.53 161.549C234.812 161.133 234.812 160.462 235.53 160.046Z" fill="#E7D7DD"/>
<path d="M52.4891 76.7435C53.2079 76.3277 54.3739 76.3277 55.0928 76.7435C55.8116 77.1594 55.8116 77.8312 55.0928 78.2471C54.3739 78.6629 53.2079 78.6629 52.4891 78.2471C51.7702 77.8312 51.7702 77.1594 52.4891 76.7435Z" fill="#E7D7DD"/>
<path d="M70.667 87.2523C71.3858 86.8365 72.5519 86.8365 73.2707 87.2523C73.9895 87.6682 73.9895 88.34 73.2707 88.7559C72.5519 89.1717 71.3858 89.1717 70.667 88.7559C69.9482 88.34 69.9482 87.6682 70.667 87.2523Z" fill="#E7D7DD"/>
<path d="M88.845 97.7611C89.5638 97.3453 90.7299 97.3453 91.4487 97.7611C92.1675 98.177 92.1675 98.8488 91.4487 99.2647C90.7299 99.6805 89.5638 99.6805 88.845 99.2647C88.1262 98.8488 88.1262 98.177 88.845 97.7611Z" fill="#E7D7DD"/>
<path d="M107.023 108.27C107.742 107.854 108.908 107.854 109.627 108.27C110.345 108.686 110.345 109.358 109.627 109.773C108.908 110.189 107.742 110.189 107.023 109.773C106.304 109.358 106.304 108.686 107.023 108.27Z" fill="#E7D7DD"/>
<path d="M125.185 118.779C125.904 118.363 127.07 118.363 127.789 118.779C128.507 119.195 128.507 119.866 127.789 120.282C127.07 120.698 125.904 120.698 125.185 120.282C124.466 119.866 124.466 119.195 125.185 118.779Z" fill="#E7D7DD"/>
<path d="M143.363 129.287C144.082 128.872 145.248 128.872 145.967 129.287C146.685 129.703 146.685 130.375 145.967 130.791C145.248 131.207 144.082 131.207 143.363 130.791C142.644 130.375 142.644 129.703 143.363 129.287Z" fill="#E7D7DD"/>
<path d="M33.0174 88.0043C33.7362 87.5884 34.9023 87.5884 35.6211 88.0043C36.3399 88.4202 36.3399 89.0919 35.6211 89.5078C34.9023 89.9237 33.7362 89.9237 33.0174 89.5078C32.2986 89.0919 32.2986 88.4202 33.0174 88.0043Z" fill="#E7D7DD"/>
<path d="M51.1954 98.5131C51.9142 98.0972 53.0802 98.0972 53.7991 98.5131C54.5179 98.9289 54.5179 99.6007 53.7991 100.017C53.0802 100.432 51.9142 100.432 51.1954 100.017C50.4765 99.6007 50.4765 98.9289 51.1954 98.5131Z" fill="#E7D7DD"/>
<path d="M69.3733 109.022C70.0921 108.606 71.2582 108.606 71.977 109.022C72.6958 109.438 72.6958 110.11 71.977 110.525C71.2582 110.941 70.0921 110.941 69.3733 110.525C68.6545 110.11 68.6545 109.438 69.3733 109.022Z" fill="#E7D7DD"/>
<path d="M87.5511 119.53C88.2699 119.114 89.4359 119.114 90.1548 119.53C90.8736 119.946 90.8736 120.618 90.1548 121.034C89.4359 121.45 88.2699 121.45 87.5511 121.034C86.8323 120.618 86.8323 119.946 87.5511 119.53Z" fill="#E7D7DD"/>
<path d="M105.713 130.039C106.432 129.623 107.598 129.623 108.317 130.039C109.036 130.455 109.036 131.127 108.317 131.542C107.598 131.958 106.432 131.958 105.713 131.542C104.994 131.127 104.994 130.455 105.713 130.039Z" fill="#E7D7DD"/>
<path d="M123.891 140.548C124.61 140.132 125.776 140.132 126.495 140.548C127.213 140.964 127.213 141.635 126.495 142.051C125.776 142.467 124.61 142.467 123.891 142.051C123.172 141.635 123.172 140.964 123.891 140.548Z" fill="#E7D7DD"/>
<path d="M212.672 112.429L214.685 113.596L206.267 118.491L204.238 117.323C202.928 116.571 200.373 115.867 197.545 116.843C196.251 117.323 194.926 117.771 193.568 118.171C190.709 119.098 190.485 120.746 190.98 121.77L191.731 123.369L180.214 125.161L179.463 123.561C179.239 123.081 178.76 122.521 177.978 122.073C177.083 121.562 175.805 121.178 174.064 121.194C172.547 121.226 170.997 121.226 169.464 121.194C166.173 121.178 164.576 122.537 164.097 123.561L163.362 125.161L151.813 123.369L152.548 121.77C152.931 120.922 152.851 119.674 151.222 118.731C150.87 118.523 150.423 118.331 149.912 118.171C148.554 117.771 147.228 117.323 145.919 116.827C143.075 115.851 140.52 116.555 139.226 117.307L137.213 118.475L128.747 113.58L130.76 112.413C132.054 111.661 133.268 110.173 131.574 108.526C130.728 107.774 129.961 107.006 129.258 106.222C128.971 105.919 128.635 105.679 128.284 105.471C126.654 104.527 124.498 104.479 123.044 104.703L120.297 105.135L117.166 98.4489L119.914 98.017C121.687 97.7451 124.019 96.8014 123.971 94.898C123.907 94.0183 123.891 93.1226 123.971 92.2428C123.971 91.2352 123.332 90.4834 122.437 89.9876C121.655 89.5397 120.696 89.2518 119.866 89.1238L117.102 88.692L120.153 82.0061L122.917 82.4379C124.69 82.7098 127.517 82.5819 129.114 80.9184C129.801 80.1347 130.568 79.3509 131.399 78.5991C133.076 76.9516 131.846 75.4641 130.536 74.7124L128.507 73.5447L136.926 68.6503L138.954 69.8179C140.264 70.5697 142.82 71.2734 145.647 70.2977C146.941 69.8179 148.267 69.37 149.624 68.9702C152.484 68.0264 152.707 66.395 152.212 65.3553L151.461 63.7558L162.978 61.9644L163.713 63.5639C163.937 64.0437 164.416 64.6035 165.199 65.0514C166.093 65.5632 167.371 65.9471 169.128 65.9311C170.646 65.8991 172.195 65.8991 173.729 65.9311C177.019 65.9471 178.633 64.5875 179.096 63.5639L179.831 61.9644L191.379 63.7558L190.645 65.3553C190.261 66.203 190.341 67.4506 191.97 68.3943C192.322 68.6023 192.753 68.7942 193.28 68.9702C194.638 69.37 195.98 69.8179 197.274 70.2977C200.117 71.2734 202.673 70.5697 203.967 69.8179L205.979 68.6503L214.445 73.5447L212.433 74.7124C211.139 75.4641 209.925 76.9516 211.618 78.5991C212.449 79.3509 213.231 80.1187 213.934 80.9024C214.222 81.2063 214.557 81.4462 214.908 81.6702C216.538 82.6139 218.71 82.6619 220.164 82.4219L222.911 81.9901L226.042 88.676L223.279 89.1078C221.506 89.3797 219.173 90.3235 219.237 92.2269C219.301 93.1066 219.317 94.0023 219.237 94.898C219.237 95.9057 219.876 96.6575 220.771 97.1693C221.554 97.6172 222.512 97.8891 223.343 98.017L226.09 98.4489L223.039 105.135L220.276 104.703C218.503 104.431 215.675 104.559 214.078 106.222C213.391 107.006 212.624 107.774 211.794 108.526C210.116 110.173 211.346 111.661 212.656 112.413L212.672 112.429ZM156.19 102.464C164.72 107.39 178.521 107.39 186.987 102.464C195.469 97.5372 195.421 89.5397 186.891 84.5973C178.361 79.6708 164.576 79.6548 156.094 84.5973C147.628 89.5237 147.66 97.5372 156.19 102.464Z" stroke="white" stroke-width="0.96" stroke-linecap="round" stroke-linejoin="round"/>
<path d="M244.508 149.345C244.38 149.345 244.252 149.313 244.124 149.249L221.346 136.085C220.979 135.877 220.851 135.397 221.058 135.03C221.266 134.662 221.745 134.534 222.113 134.742L244.891 147.906C245.258 148.113 245.386 148.593 245.179 148.961C245.035 149.201 244.779 149.345 244.508 149.345Z" fill="white"/>
<path d="M249.939 146.21C249.811 146.21 249.683 146.178 249.555 146.114L226.777 132.95C226.409 132.742 226.282 132.262 226.489 131.894C226.697 131.526 227.176 131.398 227.544 131.606L250.322 144.77C250.689 144.978 250.817 145.458 250.609 145.826C250.466 146.066 250.21 146.21 249.939 146.21Z" fill="white"/>
<path d="M255.37 143.059C255.242 143.059 255.114 143.027 254.986 142.963L232.208 129.799C231.841 129.591 231.713 129.111 231.921 128.743C232.128 128.376 232.607 128.248 232.975 128.456L255.753 141.619C256.12 141.827 256.248 142.307 256.041 142.675C255.897 142.915 255.641 143.059 255.37 143.059Z" fill="white"/>
<path d="M201.347 63.724C201.219 63.724 201.091 63.692 200.964 63.628L161.509 40.8191C161.141 40.6112 161.014 40.1314 161.221 39.7635C161.429 39.3956 161.908 39.2676 162.276 39.4756L201.73 62.2844C202.098 62.4923 202.225 62.9722 202.018 63.3401C201.874 63.58 201.618 63.724 201.347 63.724Z" fill="white"/>
<path d="M212.976 97.5692C212.848 97.5692 212.72 97.5372 212.592 97.4733L203.184 92.035C202.816 91.827 202.689 91.3472 202.896 90.9793C203.104 90.6114 203.583 90.4835 203.951 90.6914L213.359 96.1297C213.726 96.3376 213.854 96.8175 213.647 97.1853C213.503 97.4253 213.247 97.5692 212.976 97.5692Z" fill="white"/>
<path d="M120.601 110.413C120.473 110.413 120.345 110.381 120.217 110.317L80.7625 87.5086C80.3951 87.3007 80.2673 86.8208 80.4749 86.4529C80.6826 86.085 81.1618 85.9571 81.5292 86.165L120.984 108.974C121.351 109.182 121.479 109.662 121.271 110.03C121.128 110.269 120.872 110.413 120.601 110.413Z" fill="white"/>
<path d="M85.0116 89.8277C84.74 89.8277 84.4844 89.6838 84.3407 89.4439C84.133 89.076 84.2608 88.6121 84.6282 88.3882L165.359 41.7148C165.726 41.5069 166.189 41.6349 166.413 42.0027C166.621 42.3706 166.493 42.8345 166.125 43.0584L85.3949 89.7318C85.2671 89.7957 85.1394 89.8277 85.0116 89.8277Z" fill="white"/>
<path d="M141.334 95.3459C140.935 95.3459 140.583 95.026 140.567 94.6101C140.551 94.1783 140.871 93.8264 141.302 93.8104L203.535 90.5954C203.951 90.5634 204.318 90.8993 204.334 91.3151C204.35 91.747 204.03 92.0989 203.599 92.1149L141.366 95.3299C141.366 95.3299 141.334 95.3299 141.318 95.3299L141.334 95.3459Z" fill="white"/>
<path d="M127.821 139.588C127.693 139.588 127.565 139.524 127.485 139.396C127.373 139.22 127.437 138.98 127.629 138.868L146.222 128.12C146.398 128.008 146.638 128.072 146.749 128.264C146.861 128.439 146.797 128.679 146.606 128.791L128.012 139.54C128.012 139.54 127.885 139.588 127.821 139.588Z" fill="white"/>
</g>
<defs>
<linearGradient id="paint0_linear_1451_13314" x1="203.775" y1="155.535" x2="352.984" y2="155.535" gradientUnits="userSpaceOnUse">
<stop stop-color="#E7D7DD"/>
<stop offset="0.42" stop-color="#E8D9DF"/>
<stop offset="0.66" stop-color="#EDE1E6"/>
<stop offset="0.86" stop-color="#F5EFF1"/>
<stop offset="1" stop-color="white"/>
</linearGradient>
<linearGradient id="paint1_linear_1451_13314" x1="0" y1="100.968" x2="349.278" y2="100.968" gradientUnits="userSpaceOnUse">
<stop stop-color="#5943C9"/>
<stop offset="0.14" stop-color="#5E48C9"/>
<stop offset="0.32" stop-color="#6F57CA"/>
<stop offset="0.52" stop-color="#8A70CC"/>
<stop offset="0.74" stop-color="#B094CF"/>
<stop offset="0.97" stop-color="#E0C0D2"/>
<stop offset="1" stop-color="#E7C7D3"/>
</linearGradient>
<clipPath id="clip0_1451_13314">
<rect width="353" height="204" fill="white"/>
</clipPath>
</defs>
</svg>
