<svg width="305" height="302" viewBox="0 0 305 302" fill="none" xmlns="http://www.w3.org/2000/svg">
<g clip-path="url(#clip0_1027_11886)">
<path style="mix-blend-mode:multiply" d="M305.01 221.091H71.0049V302H305.01V221.091Z" fill="url(#paint0_linear_1027_11886)"/>
<path d="M5.64258 134.77V264.305C5.64258 266.06 6.79459 267.815 9.10838 269.151L62.5988 299.991C67.2264 302.653 74.7926 302.653 79.4104 299.991L132.901 269.151C135.215 267.815 136.367 266.06 136.367 264.305V134.77H5.64258Z" fill="url(#paint1_linear_1027_11886)"/>
<path d="M9.10838 139.626C6.79459 138.29 5.64258 136.535 5.64258 134.78C5.64258 133.025 6.79459 131.27 9.10838 129.934L62.5988 99.0936C67.2264 96.4317 74.7926 96.4317 79.4104 99.0936L132.901 129.934C135.215 131.27 136.367 133.025 136.367 134.78C136.367 136.535 135.215 138.29 132.901 139.626L79.4104 170.467C74.7828 173.129 67.2166 173.129 62.5988 170.467L9.10838 139.626Z" fill="url(#paint2_linear_1027_11886)"/>
<path d="M0 53.0618V131.524C0 133.435 1.2594 135.346 3.76845 136.789L61.8669 170.291C66.885 173.187 75.1053 173.187 80.1332 170.291L138.232 136.789C140.741 135.336 142 133.435 142 131.524V53.0618H0Z" fill="url(#paint3_linear_1027_11886)"/>
<path d="M3.76845 58.3271C1.2594 56.8742 0 54.9729 0 53.0618C0 51.1507 1.2594 49.2397 3.76845 47.7966L61.8669 14.2941C66.885 11.3982 75.1053 11.3982 80.1332 14.2941L138.232 47.7966C140.741 49.2494 142 51.1507 142 53.0618C142 54.9729 140.741 56.884 138.232 58.3271L80.1332 91.8295C75.1151 94.7254 66.8948 94.7254 61.8669 91.8295L3.76845 58.3271Z" fill="#F6F6FB"/>
<path style="mix-blend-mode:multiply" d="M138.232 47.7966L92.3956 21.3632L35.3417 54.2611C32.8326 55.7139 31.5732 57.6153 31.5732 59.5264C31.5732 61.4374 32.8326 63.3485 35.3417 64.7916L81.1781 91.225L138.232 58.3271C140.741 56.8742 142 54.9729 142 53.0618C142 51.1507 140.741 49.2397 138.232 47.7966Z" fill="url(#paint4_linear_1027_11886)"/>
<path d="M0 40.942V45.4077C0 47.3188 1.2594 49.2299 3.76845 50.673L61.8669 84.1754C66.885 87.0713 75.1053 87.0713 80.1332 84.1754L138.232 50.673C140.741 49.2202 142 47.3188 142 45.4077V40.942H0Z" fill="url(#paint5_linear_1027_11886)"/>
<path d="M3.76845 46.2073C1.2594 44.7545 0 42.8532 0 40.9421C0 39.031 1.2594 37.1199 3.76845 35.6769L61.8669 2.17438C66.885 -0.721495 75.1053 -0.721495 80.1332 2.17438L138.232 35.6769C140.741 37.1297 142 39.031 142 40.9421C142 42.8532 140.741 44.7642 138.232 46.2073L80.1332 79.7098C75.1151 82.6057 66.8948 82.6057 61.8669 79.7098L3.76845 46.2073Z" fill="#F6F6FB"/>
<g style="mix-blend-mode:multiply">
<path d="M33.6723 146.929L28.459 143.926V79.3685L33.6723 82.3716V146.929Z" fill="#807DFB"/>
</g>
<g style="mix-blend-mode:multiply">
<path d="M108.338 146.929L113.541 143.926V79.3685L108.338 82.3716V146.929Z" fill="#807DFB"/>
</g>
<path d="M18.3936 152.848L22.2108 155.051V159.458L18.3936 157.255V152.848Z" fill="#FFD03E"/>
<path d="M33.2031 161.145L37.0204 163.349V167.746L33.2031 165.543V161.145Z" fill="#6B67E9"/>
<path d="M48.0137 169.433L51.8309 171.637V176.044L48.0137 173.84V169.433Z" fill="#6B67E9"/>
<path d="M18.3936 167.746L22.2108 169.95V174.347L18.3936 172.154V167.746Z" fill="#6B67E9"/>
<path d="M33.2031 176.044L37.0204 178.238V182.645L33.2031 180.441V176.044Z" fill="#6B67E9"/>
<path d="M48.0137 184.332L51.8309 186.535V190.933L48.0137 188.739V184.332Z" fill="#6B67E9"/>
<path d="M18.3936 182.645L22.2108 184.839V189.246L18.3936 187.042V182.645Z" fill="#6B67E9"/>
<path d="M33.2031 190.933L37.0204 193.136V197.534L33.2031 195.34V190.933Z" fill="#FFD03E"/>
<path d="M48.0137 199.23L51.8309 201.434V205.832L48.0137 203.628V199.23Z" fill="#6B67E9"/>
<path d="M18.3936 197.534L22.2108 199.738V204.145L18.3936 201.941V197.534Z" fill="#6B67E9"/>
<path d="M33.2031 205.832L37.0204 208.035V212.433L33.2031 210.229V205.832Z" fill="#6B67E9"/>
<path d="M48.0137 214.119L51.8309 216.323V220.73L48.0137 218.527V214.119Z" fill="#6B67E9"/>
<path d="M18.3936 212.433L22.2108 214.636V219.034L18.3936 216.83V212.433Z" fill="#6B67E9"/>
<path d="M33.2031 220.73L37.0204 222.924V227.331L33.2031 225.128V220.73Z" fill="#6B67E9"/>
<path d="M48.0137 229.018L51.8309 231.222V235.619L48.0137 233.425V229.018Z" fill="#6B67E9"/>
<path d="M18.3936 227.331L22.2108 229.525V233.932L18.3936 231.729V227.331Z" fill="#6B67E9"/>
<path d="M33.2031 235.619L37.0204 237.823V242.22L33.2031 240.026V235.619Z" fill="#6B67E9"/>
<path d="M48.0137 243.917L51.8309 246.111V250.518L48.0137 248.314V243.917Z" fill="#6B67E9"/>
<path d="M18.3936 242.22L22.2108 244.424V248.831L18.3936 246.627V242.22Z" fill="#FFD03E"/>
<path d="M33.2031 250.518L37.0204 252.721V257.119L33.2031 254.915V250.518Z" fill="#6B67E9"/>
<path d="M48.0137 258.806L51.8309 261.009V265.416L48.0137 263.213V258.806Z" fill="#6B67E9"/>
<path d="M18.3936 257.119L22.2108 259.322V263.72L18.3936 261.516V257.119Z" fill="#6B67E9"/>
<path d="M33.2031 265.416L37.0204 267.61V272.017L33.2031 269.814V265.416Z" fill="#6B67E9"/>
<path d="M48.0137 273.704L51.8309 275.908V280.305L48.0137 278.102V273.704Z" fill="#6B67E9"/>
<path d="M123.607 152.848L119.79 155.051V159.458L123.607 157.255V152.848Z" fill="#6B67E9"/>
<path d="M108.797 161.145L104.979 163.349V167.746L108.797 165.543V161.145Z" fill="#FCBA06"/>
<path d="M93.9862 169.433L90.1689 171.637V176.044L93.9862 173.84V169.433Z" fill="#6B67E9"/>
<path d="M123.607 167.746L119.79 169.95V174.347L123.607 172.154V167.746Z" fill="#6B67E9"/>
<path d="M108.797 176.044L104.979 178.238V182.645L108.797 180.441V176.044Z" fill="#6B67E9"/>
<path d="M93.9862 184.332L90.1689 186.535V190.933L93.9862 188.739V184.332Z" fill="#6B67E9"/>
<path d="M123.607 182.645L119.79 184.839V189.246L123.607 187.042V182.645Z" fill="#6B67E9"/>
<path d="M108.797 190.933L104.979 193.136V197.534L108.797 195.34V190.933Z" fill="#6B67E9"/>
<path d="M93.9862 199.23L90.1689 201.434V205.832L93.9862 203.628V199.23Z" fill="#6B67E9"/>
<path d="M123.607 197.534L119.79 199.738V204.145L123.607 201.941V197.534Z" fill="#6B67E9"/>
<path d="M108.797 205.832L104.979 208.035V212.433L108.797 210.229V205.832Z" fill="#6B67E9"/>
<path d="M93.9862 214.119L90.1689 216.323V220.73L93.9862 218.527V214.119Z" fill="#6B67E9"/>
<path d="M123.607 212.433L119.79 214.636V219.034L123.607 216.83V212.433Z" fill="#6B67E9"/>
<path d="M108.797 220.73L104.979 222.924V227.331L108.797 225.128V220.73Z" fill="#6B67E9"/>
<path d="M93.9862 229.018L90.1689 231.222V235.619L93.9862 233.425V229.018Z" fill="#6B67E9"/>
<path d="M123.607 227.331L119.79 229.525V233.932L123.607 231.729V227.331Z" fill="#6B67E9"/>
<path d="M108.797 235.619L104.979 237.823V242.22L108.797 240.026V235.619Z" fill="#6B67E9"/>
<path d="M93.9862 243.917L90.1689 246.111V250.518L93.9862 248.314V243.917Z" fill="#6B67E9"/>
<path d="M123.607 242.22L119.79 244.424V248.831L123.607 246.627V242.22Z" fill="#6B67E9"/>
<path d="M108.797 250.518L104.979 252.721V257.119L108.797 254.915V250.518Z" fill="#6B67E9"/>
<path d="M93.9862 258.806L90.1689 261.009V265.416L93.9862 263.213V258.806Z" fill="#6B67E9"/>
<path d="M123.607 257.119L119.79 259.322V263.72L123.607 261.516V257.119Z" fill="#6B67E9"/>
<path d="M108.797 265.416L104.979 267.61V272.017L108.797 269.814V265.416Z" fill="#6B67E9"/>
<path d="M93.9862 273.704L90.1689 275.908V280.305L93.9862 278.102V273.704Z" fill="#6B67E9"/>
<path d="M80.1328 170.291C75.1147 173.187 66.8945 173.187 61.8666 170.291L5.64258 137.871V140.445C5.64258 142.2 6.79459 143.955 9.10838 145.291L62.5988 176.132C67.2264 178.794 74.7926 178.794 79.4104 176.132L132.901 145.291C135.215 143.955 136.367 142.2 136.367 140.445V137.871L80.1328 170.291Z" fill="url(#paint6_linear_1027_11886)"/>
<path style="mix-blend-mode:multiply" d="M265.402 290.611H228.479V292.903H265.402V290.611Z" fill="url(#paint7_linear_1027_11886)"/>
<path d="M228.479 292.903L226.663 291.85V271.403L228.479 272.446V292.903Z" fill="#34318B"/>
<path d="M228.479 292.903L230.295 291.85V271.403L228.479 272.446V292.903Z" fill="#1E1C6B"/>
<path d="M248.473 266.557L228.479 236.935C228.479 236.935 208.182 266.986 208.046 267.21C207.216 268.566 206.796 269.98 206.796 271.403C206.796 274.601 208.914 277.799 213.151 280.237C221.616 285.122 235.352 285.122 243.816 280.237C248.054 277.799 250.162 274.601 250.162 271.403C250.162 269.755 249.596 268.108 248.473 266.557Z" fill="url(#paint8_linear_1027_11886)"/>
<path d="M246.003 254.574L228.479 228.618L210.964 254.574C209.978 255.929 209.48 257.372 209.48 258.815C209.48 261.623 211.335 264.422 215.045 266.567C222.475 270.847 234.503 270.847 241.922 266.567C245.632 264.422 247.487 261.623 247.487 258.815C247.487 257.372 246.989 255.929 246.003 254.574Z" fill="url(#paint9_linear_1027_11886)"/>
<path d="M243.767 244.687C243.67 244.521 228.479 222.027 228.479 222.027C228.479 222.027 213.288 244.521 213.18 244.687C212.565 245.701 212.243 246.764 212.243 247.817C212.243 250.215 213.825 252.604 216.988 254.437C223.324 258.094 233.604 258.094 239.94 254.437C243.113 252.614 244.695 250.215 244.695 247.817C244.695 246.754 244.382 245.691 243.758 244.687H243.767Z" fill="url(#paint10_linear_1027_11886)"/>
</g>
<defs>
<linearGradient id="paint0_linear_1027_11886" x1="71.0049" y1="261.545" x2="305" y2="261.545" gradientUnits="userSpaceOnUse">
<stop stop-color="#CFD5F1"/>
<stop offset="1" stop-color="white"/>
</linearGradient>
<linearGradient id="paint1_linear_1027_11886" x1="5.64258" y1="218.39" x2="136.367" y2="218.39" gradientUnits="userSpaceOnUse">
<stop offset="0.42" stop-color="#CED3F8"/>
<stop offset="0.53" stop-color="#AFB5D7"/>
<stop offset="0.56" stop-color="#A5ABCC"/>
</linearGradient>
<linearGradient id="paint2_linear_1027_11886" x1="5.64258" y1="134.77" x2="136.367" y2="134.77" gradientUnits="userSpaceOnUse">
<stop stop-color="white"/>
<stop offset="1" stop-color="#C7D3DD"/>
</linearGradient>
<linearGradient id="paint3_linear_1027_11886" x1="0" y1="112.764" x2="142" y2="112.764" gradientUnits="userSpaceOnUse">
<stop offset="0.42" stop-color="#DAE0F5"/>
<stop offset="0.56" stop-color="#BBC0E6"/>
</linearGradient>
<linearGradient id="paint4_linear_1027_11886" x1="31.5732" y1="56.2892" x2="142" y2="56.2892" gradientUnits="userSpaceOnUse">
<stop stop-color="#CFD5F1"/>
<stop offset="1" stop-color="white"/>
</linearGradient>
<linearGradient id="paint5_linear_1027_11886" x1="0" y1="63.641" x2="142" y2="63.641" gradientUnits="userSpaceOnUse">
<stop offset="0.42" stop-color="#807DFB"/>
<stop offset="0.49" stop-color="#6561DA"/>
<stop offset="0.56" stop-color="#423EAF"/>
</linearGradient>
<linearGradient id="paint6_linear_1027_11886" x1="5.64258" y1="157.996" x2="136.367" y2="157.996" gradientUnits="userSpaceOnUse">
<stop offset="0.42" stop-color="#BBC0E6"/>
<stop offset="0.56" stop-color="#A5ABCC"/>
</linearGradient>
<linearGradient id="paint7_linear_1027_11886" x1="228.479" y1="291.762" x2="265.402" y2="291.762" gradientUnits="userSpaceOnUse">
<stop stop-color="#C2C7E3"/>
<stop offset="0.27" stop-color="#D7DAEC"/>
<stop offset="0.7" stop-color="#F4F4F9"/>
<stop offset="0.95" stop-color="white"/>
</linearGradient>
<linearGradient id="paint8_linear_1027_11886" x1="207.694" y1="274.991" x2="241.959" y2="255.18" gradientUnits="userSpaceOnUse">
<stop stop-color="#669085"/>
<stop offset="0.34" stop-color="#658D84"/>
<stop offset="1" stop-color="#3F3F60"/>
</linearGradient>
<linearGradient id="paint9_linear_1027_11886" x1="210.261" y1="261.965" x2="240.292" y2="244.605" gradientUnits="userSpaceOnUse">
<stop stop-color="#669085"/>
<stop offset="0.34" stop-color="#658D84"/>
<stop offset="1" stop-color="#3F3F60"/>
</linearGradient>
<linearGradient id="paint10_linear_1027_11886" x1="212.253" y1="239.607" x2="244.705" y2="239.607" gradientUnits="userSpaceOnUse">
<stop stop-color="#669085"/>
<stop offset="0.34" stop-color="#658D84"/>
<stop offset="1" stop-color="#3F3F60"/>
</linearGradient>
<clipPath id="clip0_1027_11886">
<rect width="305" height="302" fill="white"/>
</clipPath>
</defs>
</svg>
