<svg width="216" height="185" viewBox="0 0 216 185" fill="none" xmlns="http://www.w3.org/2000/svg">
<path style="mix-blend-mode:multiply" d="M216 111.391H52.3613V184.956H216V111.391Z" fill="url(#paint0_linear_1027_12119)"/>
<path d="M0 42.245V153.923C0 161.861 5.2772 169.845 15.7865 175.889C26.2958 181.978 40.0526 185 53.8545 185C67.6113 185 81.4132 181.978 91.9225 175.889C102.432 169.8 107.664 161.861 107.664 153.923V42.245H0Z" fill="url(#paint1_linear_1027_12119)"/>
<path d="M0 42.2456C0 34.3072 5.2772 26.3238 15.7865 20.2798C26.2958 14.1907 40.0526 11.1687 53.8545 11.1687C67.6564 11.1687 81.4132 14.1907 91.9225 20.2798C102.432 26.3689 107.709 34.3072 107.709 42.2456C107.709 50.1839 102.477 58.1674 91.9676 64.2113C81.4583 70.3004 67.7015 73.3224 53.8996 73.3224C40.1428 73.3224 26.3409 70.3004 15.8316 64.2113C5.2772 58.1223 0 50.1839 0 42.2456Z" fill="#F6F6FB"/>
<path style="mix-blend-mode:multiply" d="M100.221 27.6765H53.8086L78.9768 42.2L53.8086 56.7236H100.221V27.6765Z" fill="url(#paint2_linear_1027_12119)"/>
<path d="M53.8067 7.01825L28.6836 21.4967L53.8067 35.9752L78.9297 21.4967L53.8067 7.01825Z" fill="white"/>
<path d="M53.8055 56.7241L28.7275 42.2457V21.5428L53.8055 36.0213V56.7241Z" fill="#CED3F8"/>
<path d="M78.9317 42.2457L53.8086 56.7241V36.0213L78.9317 21.5428V42.2457Z" fill="#BBC0E6"/>
<path style="mix-blend-mode:multiply" d="M71.3993 20.0992H53.8086V22.3544H71.3993V20.0992Z" fill="url(#paint3_linear_1027_12119)"/>
<path d="M53.8047 22.3543L52.3613 21.5425V0.74939L53.8047 1.56127V22.3543Z" fill="#CED3F8"/>
<path d="M55.2519 21.5425L53.8086 22.3543V1.56127L55.2519 0.74939V21.5425Z" fill="#BBC0E6"/>
<path d="M49.2543 167.094C37.0311 166.508 25.0784 163.531 15.7419 158.118C9.24684 154.375 4.78152 149.909 2.30078 145.128V148.962C4.78152 153.698 9.24684 158.163 15.7419 161.952C25.0784 167.365 37.0311 170.342 49.2543 170.928V167.094Z" fill="#D8DEF3"/>
<path d="M105.316 145.128C102.835 149.864 98.3698 154.33 91.8748 158.118C82.5382 163.531 70.5856 166.508 58.3623 167.094V170.928C70.5856 170.342 82.5382 167.365 91.8748 161.952C98.3698 158.209 102.835 153.743 105.316 148.962V145.128Z" fill="#D8DEF3"/>
<path d="M49.2543 158.163C37.0311 157.577 25.0784 154.6 15.7419 149.188C9.24684 145.444 4.78152 140.979 2.30078 136.198V140.031C4.78152 144.767 9.24684 149.233 15.7419 153.022C25.0784 158.434 37.0311 161.411 49.2543 161.997V158.163Z" fill="#D8DEF3"/>
<path d="M105.316 136.198C102.835 140.934 98.3698 145.399 91.8748 149.188C82.5382 154.6 70.5856 157.577 58.3623 158.163V161.997C70.5856 161.411 82.5382 158.434 91.8748 153.022C98.3698 149.278 102.835 144.813 105.316 140.031V136.198Z" fill="#D8DEF3"/>
<path d="M49.2543 149.233C37.0311 148.647 25.0784 145.67 15.7419 140.257C9.24684 136.514 4.78152 132.048 2.30078 127.267V131.101C4.78152 135.837 9.24684 140.302 15.7419 144.091C25.0784 149.504 37.0311 152.48 49.2543 153.067V149.233Z" fill="#D8DEF3"/>
<path d="M105.316 127.312C102.835 132.048 98.3698 136.513 91.8748 140.302C82.5382 145.715 70.5856 148.692 58.3623 149.278V153.112C70.5856 152.525 82.5382 149.549 91.8748 144.136C98.3698 140.392 102.835 135.927 105.316 131.146V127.312Z" fill="#D8DEF3"/>
<path d="M49.2543 140.347C37.0311 139.761 25.0784 136.784 15.7419 131.372C9.24684 127.628 4.78152 123.163 2.30078 118.382V122.216C4.78152 126.952 9.24684 131.417 15.7419 135.206C25.0784 140.618 37.0311 143.595 49.2543 144.181V140.347Z" fill="#D8DEF3"/>
<path d="M105.316 118.382C102.835 123.118 98.3698 127.583 91.8748 131.372C82.5382 136.784 70.5856 139.761 58.3623 140.347V144.181C70.5856 143.595 82.5382 140.618 91.8748 135.206C98.3698 131.462 102.835 126.997 105.316 122.216V118.382Z" fill="#D8DEF3"/>
<path d="M49.2543 131.417C37.0311 130.831 25.0784 127.854 15.7419 122.441C9.24684 118.698 4.78152 114.232 2.30078 109.451V113.285C4.78152 118.021 9.24684 122.486 15.7419 126.275C25.0784 131.688 37.0311 134.665 49.2543 135.251V131.417Z" fill="#D8DEF3"/>
<path d="M105.316 109.451C102.835 114.187 98.3698 118.653 91.8748 122.441C82.5382 127.854 70.5856 130.831 58.3623 131.417V135.251C70.5856 134.665 82.5382 131.688 91.8748 126.275C98.3698 122.531 102.835 118.066 105.316 113.285V109.451Z" fill="#D8DEF3"/>
<path d="M49.2543 122.486C37.0311 121.9 25.0784 118.923 15.7419 113.51C9.24684 109.767 4.78152 105.301 2.30078 100.52V104.354C4.78152 109.09 9.24684 113.555 15.7419 117.344C25.0784 122.757 37.0311 125.734 49.2543 126.32V122.486Z" fill="#D8DEF3"/>
<path d="M105.316 100.52C102.835 105.256 98.3698 109.722 91.8748 113.51C82.5382 118.923 70.5856 121.9 58.3623 122.486V126.32C70.5856 125.734 82.5382 122.757 91.8748 117.344C98.3698 113.6 102.835 109.135 105.316 104.354V100.52Z" fill="#D8DEF3"/>
<path d="M49.2543 113.555C37.0311 112.968 25.0784 109.992 15.7419 104.579C9.24684 100.835 4.78152 96.3701 2.30078 91.5891V95.4229C4.78152 100.159 9.24684 104.624 15.7419 108.413C25.0784 113.825 37.0311 116.802 49.2543 117.389V113.555Z" fill="#D8DEF3"/>
<path d="M105.316 91.5891C102.835 96.325 98.3698 100.79 91.8748 104.579C82.5382 109.992 70.5856 112.968 58.3623 113.555V117.389C70.5856 116.802 82.5382 113.825 91.8748 108.413C98.3698 104.669 102.835 100.204 105.316 95.4229V91.5891Z" fill="#D8DEF3"/>
<path d="M49.2543 104.669C37.0311 104.083 25.0784 101.106 15.7419 95.6933C9.24684 91.9497 4.78152 87.4844 2.30078 82.7033V86.5372C4.78152 91.2731 9.24684 95.7384 15.7419 99.5272C25.0784 104.94 37.0311 107.917 49.2543 108.503V104.669Z" fill="#D8DEF3"/>
<path d="M105.316 82.7033C102.835 87.4393 98.3698 91.9046 91.8748 95.6933C82.5382 101.106 70.5856 104.083 58.3623 104.669V108.503C70.5856 107.917 82.5382 104.94 91.8748 99.5272C98.3698 95.7835 102.835 91.3182 105.316 86.5372V82.7033Z" fill="#D8DEF3"/>
<path d="M49.2543 95.7387C37.0311 95.1523 25.0784 92.1754 15.7419 86.7629C9.24684 83.0193 4.78152 78.5539 2.30078 73.7729V77.6068C4.78152 82.3427 9.24684 86.808 15.7419 90.5968C25.0784 96.0093 37.0311 98.9862 49.2543 99.5725V95.7387Z" fill="#D8DEF3"/>
<path d="M105.316 73.7729C102.835 78.5088 98.3698 82.9742 91.8748 86.7629C82.5382 92.1754 70.5856 95.1523 58.3623 95.7387V99.5725C70.5856 98.9862 82.5382 96.0093 91.8748 90.5968C98.3698 86.8531 102.835 82.3878 105.316 77.6068V73.7729Z" fill="#D8DEF3"/>
<path d="M49.2543 86.8082C37.0311 86.2219 25.0784 83.245 15.7419 77.8325C9.24684 74.0888 4.78152 69.6235 2.30078 64.8424V68.6763C4.78152 73.4122 9.24684 77.8776 15.7419 81.6663C25.0784 87.0788 37.0311 90.0557 49.2543 90.6421V86.8082Z" fill="#D8DEF3"/>
<path d="M105.316 64.8424C102.835 69.5784 98.3698 74.0437 91.8748 77.8325C82.5382 83.245 70.5856 86.2219 58.3623 86.8082V90.6421C70.5856 90.0557 82.5382 87.0788 91.8748 81.6663C98.3698 77.9227 102.835 73.4574 105.316 68.6763V64.8424Z" fill="#D8DEF3"/>
<defs>
<linearGradient id="paint0_linear_1027_12119" x1="52.3613" y1="148.196" x2="216" y2="148.196" gradientUnits="userSpaceOnUse">
<stop stop-color="#CFD5F1"/>
<stop offset="1" stop-color="white"/>
</linearGradient>
<linearGradient id="paint1_linear_1027_12119" x1="0" y1="113.6" x2="107.619" y2="113.6" gradientUnits="userSpaceOnUse">
<stop stop-color="#CED3F8"/>
<stop offset="1" stop-color="#A3A9D0"/>
</linearGradient>
<linearGradient id="paint2_linear_1027_12119" x1="53.8086" y1="42.2" x2="100.221" y2="42.2" gradientUnits="userSpaceOnUse">
<stop stop-color="#CFD5F1"/>
<stop offset="1" stop-color="white"/>
</linearGradient>
<linearGradient id="paint3_linear_1027_12119" x1="53.8086" y1="21.2268" x2="71.4444" y2="21.2268" gradientUnits="userSpaceOnUse">
<stop stop-color="#CFD5F1"/>
<stop offset="1" stop-color="white"/>
</linearGradient>
</defs>
</svg>
