<svg width="388" height="338" viewBox="0 0 388 338" fill="none" xmlns="http://www.w3.org/2000/svg">
<g clip-path="url(#clip0_1515_1760)">
<path d="M105.905 199.913L8.05193 142.966C2.65753 139.847 0 135.728 0 131.649C0 127.57 2.6972 123.451 8.05193 120.332L105.905 63.305C111.299 60.1857 118.32 58.6261 125.38 58.6261C132.44 58.6261 139.461 60.1857 144.855 63.305L242.708 120.252C248.103 123.371 250.76 127.49 250.76 131.569C250.76 135.648 248.063 139.767 242.708 142.886L144.855 199.833C139.461 202.952 132.44 204.512 125.38 204.512C118.32 204.512 111.299 202.952 105.905 199.833V199.913Z" fill="#E7D7DD"/>
<path d="M242.708 142.966L144.855 199.913C139.461 203.032 132.44 204.592 125.38 204.592C118.32 204.592 111.299 203.032 105.905 199.873L8.05193 142.966C2.65753 139.847 0 135.728 0 131.649V265.057C0 269.176 2.6972 273.255 8.05193 276.375L105.905 333.321C111.299 336.44 118.32 338 125.38 338C132.44 338 139.461 336.44 144.855 333.321L242.708 276.375C248.103 273.255 250.76 269.136 250.76 265.057V131.609C250.76 135.728 248.063 139.807 242.708 142.926V142.966Z" fill="url(#paint0_linear_1515_1760)"/>
<path style="mix-blend-mode:multiply" d="M242.708 142.966L144.855 199.913C139.461 203.032 132.44 204.592 125.38 204.592C118.32 204.592 111.299 203.032 105.905 199.873L8.05193 142.966C2.65753 139.847 0 135.728 0 131.649V142.486C0 146.605 2.6972 150.684 8.05193 153.804L105.905 210.75C111.299 213.869 118.32 215.429 125.38 215.429C132.44 215.429 139.461 213.869 144.855 210.75L242.708 153.804C248.103 150.684 250.76 146.565 250.76 142.486V131.649C250.76 135.768 248.063 139.847 242.708 142.966Z" fill="url(#paint1_linear_1515_1760)"/>
<path style="mix-blend-mode:multiply" d="M242.708 265.537L144.855 322.484C139.461 325.603 132.44 327.163 125.38 327.163C118.32 327.163 111.299 325.603 105.905 322.444L8.05193 265.537C2.65753 262.418 0 258.299 0 254.22V265.057C0 269.176 2.6972 273.255 8.05193 276.375L105.905 333.321C111.299 336.44 118.32 338 125.38 338C132.44 338 139.461 336.44 144.855 333.321L242.708 276.375C248.103 273.255 250.76 269.136 250.76 265.057V254.22C250.76 258.339 248.063 262.418 242.708 265.537Z" fill="url(#paint2_linear_1515_1760)"/>
<path d="M116.138 184.196L35.0631 137.008C29.9464 134.048 29.9464 129.209 35.0631 126.25L116.138 79.0613C121.255 76.102 129.544 76.102 134.622 79.0613L215.696 126.25C220.813 129.209 220.813 134.048 215.696 137.008L134.622 184.196C129.505 187.156 121.215 187.156 116.138 184.196ZM130.496 81.4607C127.68 79.8211 123.079 79.8211 120.263 81.4607L39.1883 128.65C36.3721 130.289 36.3721 132.969 39.1883 134.608L120.263 181.797C123.079 183.437 127.68 183.437 130.496 181.797L211.571 134.608C214.387 132.969 214.387 130.289 211.571 128.65L130.496 81.4607Z" fill="#B8B8C4"/>
<path d="M86.8255 129.769L122.246 109.174C123.991 108.174 126.768 108.174 128.513 109.174L163.934 129.769C165.679 130.769 165.679 132.409 163.934 133.408L128.513 154.004C126.768 155.003 123.991 155.003 122.246 154.004L86.8255 133.408C85.0803 132.409 85.0803 130.769 86.8255 129.769Z" fill="#F4F9DD"/>
<path d="M176.785 221.628V287.772L171.312 290.971V224.827L176.785 221.628Z" fill="#73738B"/>
<path d="M191.025 213.349V279.494L185.512 282.693V216.549L191.025 213.349Z" fill="#73738B"/>
<path d="M205.264 205.071V271.216L199.751 274.415V208.271L205.264 205.071Z" fill="#73738B"/>
<path d="M219.465 196.793V262.938L213.991 266.137V199.993L219.465 196.793Z" fill="#73738B"/>
<path d="M233.704 188.515V254.66L228.19 257.859V191.715L233.704 188.515Z" fill="#73738B"/>
<path d="M176.785 206.431V212.47L171.312 215.669V209.63L176.785 206.431Z" fill="#9999AB"/>
<path d="M191.025 198.153V204.192L185.551 207.391V201.352L191.025 198.153Z" fill="#3F3F60"/>
<g style="mix-blend-mode:multiply">
<path d="M205.264 189.875V195.914L199.751 199.113V193.074L205.264 189.875Z" fill="#DCE3EC"/>
</g>
<path d="M219.465 181.597V187.636L213.991 190.835V184.796L219.465 181.597Z" fill="#9999AB"/>
<path d="M233.704 173.319V179.358L228.19 182.517V176.518L233.704 173.319Z" fill="#3F3F60"/>
<path d="M162.586 229.906V296.05L157.072 299.249V233.105L162.586 229.906Z" fill="#73738B"/>
<path d="M162.586 214.709V220.748L157.072 223.947V217.908L162.586 214.709Z" fill="#3F3F60"/>
<g style="mix-blend-mode:lighten">
<path d="M85.5566 22.6746V131.609C85.5566 132.289 85.993 132.928 86.8656 133.448L122.286 154.043C124.031 155.043 126.808 155.043 128.553 154.043L163.974 133.448C164.846 132.928 165.283 132.289 165.283 131.609V22.6746H85.5566Z" fill="url(#paint3_linear_1515_1760)" style="mix-blend-mode:multiply"/>
</g>
<path style="mix-blend-mode:multiply" d="M388.001 252.9H340.006L324.22 267.976H388.001V252.9Z" fill="url(#paint4_linear_1515_1760)"/>
<path style="mix-blend-mode:multiply" d="M360.196 237.544H312.202L296.415 252.58H360.196V237.544Z" fill="url(#paint5_linear_1515_1760)"/>
<path d="M340.125 246.501C344.052 246.501 346.154 252.54 344.885 256.739C343.933 258.259 341.117 260.018 341.117 260.018C341.117 260.018 329.852 266.977 327.155 267.656C324.457 268.336 318.27 268.296 317.04 263.697C317.04 260.778 319.142 258.699 321.8 256.459C325.251 253.54 328.106 250.62 330.962 248.581C333.263 246.901 340.165 246.501 340.165 246.501H340.125Z" fill="url(#paint6_linear_1515_1760)"/>
<path d="M327.036 266.377C329.812 265.697 341.394 258.499 341.394 258.499C341.394 258.499 344.091 256.779 345.162 255.259C345.083 255.739 345.004 256.219 344.885 256.699C343.933 258.219 341.117 259.978 341.117 259.978C341.117 259.978 329.852 266.937 327.155 267.616C324.457 268.296 318.27 268.256 317.04 263.657C317.04 263.537 317.04 263.457 317.04 263.377C318.944 267.017 324.497 267.017 327.036 266.377Z" fill="#3F3F60"/>
<path d="M331.24 243.702C333.144 243.702 339.887 245.422 339.887 245.422C339.887 245.422 339.927 246.382 340.482 247.181C340.561 247.261 340.601 247.341 340.68 247.421C342.029 248.341 343.536 250.141 340.204 251.82C333.739 255.099 327.234 251.46 329.654 249.461C331.28 248.141 331.24 245.222 331.24 243.702Z" fill="#F7FBE6"/>
<path d="M328.662 250.341C329.059 249.581 329.892 247.821 332.232 248.941C334.651 250.141 335.445 251.94 335.445 253.54C335.445 255.139 330.764 254.739 330.566 254.5C330.368 254.3 328.662 250.301 328.662 250.301V250.341Z" fill="#62627D"/>
<path d="M332.629 256.459C332.311 256.459 331.994 256.299 331.835 256.019C330.447 253.98 327.988 252.86 326.996 252.62C326.48 252.5 326.124 251.94 326.282 251.42C326.401 250.9 326.956 250.54 327.472 250.7C328.979 251.06 331.835 252.5 333.461 254.899C333.779 255.339 333.66 255.979 333.223 256.299C333.065 256.419 332.867 256.459 332.668 256.459H332.629Z" fill="white"/>
<path d="M329.217 259.498C328.9 259.498 328.583 259.338 328.424 259.058C327.036 257.019 324.577 255.899 323.585 255.659C323.069 255.539 322.712 254.979 322.871 254.46C322.99 253.94 323.545 253.58 324.061 253.74C325.568 254.1 328.384 255.539 330.05 257.939C330.368 258.379 330.249 259.019 329.812 259.338C329.654 259.458 329.455 259.498 329.257 259.498H329.217Z" fill="white"/>
<path d="M312.757 231.105C316.684 231.105 318.786 237.144 317.517 241.343C316.565 242.862 313.748 244.622 313.748 244.622C313.748 244.622 302.484 251.62 299.786 252.26C297.089 252.94 290.901 252.9 289.672 248.301C289.672 245.382 291.774 243.302 294.432 241.063C297.882 238.144 300.738 235.224 303.594 233.185C305.934 231.505 312.796 231.105 312.796 231.105H312.757Z" fill="url(#paint7_linear_1515_1760)"/>
<path d="M299.667 251.02C302.444 250.341 314.026 243.142 314.026 243.142C314.026 243.142 316.723 241.423 317.794 239.903C317.715 240.383 317.635 240.863 317.517 241.343C316.565 242.862 313.748 244.622 313.748 244.622C313.748 244.622 302.484 251.62 299.786 252.26C297.089 252.94 290.901 252.9 289.672 248.301C289.672 248.221 289.672 248.101 289.672 248.021C291.576 251.66 297.129 251.66 299.667 251.02Z" fill="#3F3F60"/>
<path d="M303.832 228.346C305.736 228.346 312.479 230.065 312.479 230.065C312.479 230.065 312.519 230.985 313.074 231.825C313.153 231.905 313.193 231.985 313.272 232.065C314.621 232.985 316.128 234.784 312.796 236.464C306.331 239.743 299.826 236.104 302.245 234.104C303.872 232.785 303.832 229.825 303.832 228.346Z" fill="#F7FBE6"/>
<path d="M301.294 234.984C301.69 234.224 302.523 232.465 304.824 233.585C307.243 234.784 308.037 236.584 308.037 238.183C308.037 239.783 303.356 239.383 303.158 239.143C302.96 238.943 301.254 234.944 301.254 234.944L301.294 234.984Z" fill="#62627D"/>
<path d="M305.22 241.103C304.903 241.103 304.586 240.943 304.427 240.663C303.039 238.623 300.58 237.504 299.588 237.264C299.072 237.144 298.715 236.584 298.874 236.064C298.993 235.544 299.548 235.184 300.064 235.344C301.571 235.704 304.427 237.144 306.053 239.543C306.371 239.983 306.252 240.623 305.815 240.943C305.657 241.063 305.458 241.103 305.26 241.103H305.22Z" fill="white"/>
<path d="M301.849 244.142C301.532 244.142 301.215 243.982 301.056 243.702C299.668 241.663 297.208 240.543 296.217 240.303C295.701 240.183 295.344 239.623 295.503 239.103C295.622 238.583 296.177 238.223 296.693 238.383C298.2 238.743 301.056 240.183 302.682 242.582C302.999 243.022 302.881 243.662 302.444 243.982C302.286 244.102 302.087 244.142 301.889 244.142H301.849Z" fill="white"/>
<path d="M296.296 183.316C296.137 167.8 298.874 136.608 300.698 117.172C305.815 119.652 341.077 122.451 346.789 124.65C349.367 148.445 347.106 174.719 344.29 197.953C346.947 213.589 343.1 226.226 341.593 244.062C340.72 248.861 334.215 250.221 330.13 246.701C329.217 233.065 328.226 220.748 327.194 201.592C325.568 186.756 321.205 171.719 319.222 159.482C318.111 165.641 315.216 175.038 314.145 184.996C315.216 200.232 317.04 210.71 315.017 230.545C313.193 235.064 306.529 235.024 303.237 230.745C301.849 215.149 296.454 196.313 296.296 183.276V183.316Z" fill="url(#paint8_linear_1515_1760)"/>
<g style="mix-blend-mode:multiply">
<path d="M314.978 179.117C316.326 171.399 318.349 164.361 319.222 159.442C318.666 155.883 317.992 150.724 317.992 150.724C316.762 156.243 313.748 176.078 314.978 179.077V179.117Z" fill="#A7A7B6"/>
</g>
<path d="M292.527 98.0167C289.711 103.295 293.003 106.655 297.247 106.215C299.667 105.975 296.89 99.4164 296.89 99.4164L292.527 98.0167Z" fill="#F7FBE6"/>
<path d="M312.558 41.5901C301.373 44.8693 292.091 60.9055 289.235 75.5021C287.292 85.3797 288.045 98.1767 295.582 101.936C308.354 93.8977 312.558 41.5901 312.558 41.5901Z" fill="#D3D3DA"/>
<path d="M344.449 53.4672C340.086 47.9885 329.416 40.3104 322.435 39.7905C310.536 38.9107 301.135 48.8283 298.676 57.1064C296.375 64.9045 298.081 108.494 299.667 121.731C300.937 127.33 306.529 129.849 310.417 130.649C327.314 134.208 346.948 132.968 347.662 122.971C349.09 102.816 350.716 59.7857 344.449 53.4672Z" fill="url(#paint9_linear_1515_1760)"/>
<path d="M337.428 50.9078C341.157 50.148 346.234 50.5479 348.574 61.9852C350.636 72.1428 349.01 104.175 341.99 111.294C336.357 117.012 315.89 114.253 297.605 106.655C295.78 104.175 294.908 100.416 297.605 98.4166C310.139 98.0167 322.118 99.9762 331.915 99.0564C332.629 90.8184 331.637 72.0228 331.399 65.9043C331.042 56.8264 333.779 51.6676 337.468 50.9078H337.428Z" fill="url(#paint10_linear_1515_1760)"/>
<path style="mix-blend-mode:multiply" d="M310.138 50.6678C309.9 66.5441 307.124 97.3768 298.517 101.656C299.389 102.736 300.301 103.295 301.253 103.175C311.328 101.936 311.447 67.6238 310.138 50.6678Z" fill="url(#paint11_linear_1515_1760)"/>
<path d="M323.942 23.9142C324.378 20.0351 311.051 27.9532 311.606 33.072C312.043 37.231 313.233 40.9102 309.068 43.5495C307.64 44.7093 302.682 52.8273 310.297 52.9073C321.165 53.0273 324.061 50.028 331.915 43.2296C327.234 40.5502 322.554 36.5112 323.982 23.9142H323.942Z" fill="#F7FBE6"/>
<path d="M327.075 21.5948L321.681 13.9166H298.12V28.1932C298.12 36.0714 303.395 42.4699 309.901 42.4699C316.406 42.4699 322.078 37.1911 322.395 29.6329L325.251 28.6331L327.115 21.5548L327.075 21.5948Z" fill="#F7FBE6"/>
<path d="M310.417 46.349C316.049 46.349 323.03 37.2311 322.356 29.7129C322.078 36.8312 316.208 41.95 310.337 42.5499C309.861 42.9898 309.544 43.2697 309.029 43.5496C308.91 43.6296 308.79 43.7896 308.632 43.9495C308.632 45.1092 309.385 46.349 310.417 46.349Z" fill="#E6ECC7"/>
<path d="M299.469 7.47813C297.327 7.11821 297.129 5.27865 305.855 2.23937C310.932 -0.280036 318.111 -1.03986 322.792 1.87945C329.099 5.79852 331.003 11.5971 329.852 18.8754C328.742 26.1537 324.101 33.0321 324.101 33.0321C323.387 33.7519 323.308 30.3927 323.863 27.9133C324.141 27.6733 324.418 26.9935 324.696 25.7938C326.362 18.4355 321.88 19.5153 321.285 20.1551C319.896 20.715 322.594 26.8335 318.508 26.2337C316.565 25.9538 316.803 20.4351 316.842 18.4755C316.565 18.5555 316.287 18.5955 315.97 18.7155C312.638 20.595 301.254 21.9547 307.561 17.9556C303.158 17.9556 297.169 19.9952 295.146 17.1958C292.726 13.8366 296.574 10.1975 299.469 7.47813Z" fill="#3F3F60"/>
<path d="M302.919 49.0683C303.276 47.6286 302.919 46.5489 302.642 45.1092C302.483 44.1894 302.642 43.3496 302.404 42.5098C301.61 39.9104 300.143 37.351 300.262 36.8312C304.545 38.6307 303.713 43.0297 309.107 40.6303C315.136 37.9509 319.618 35.0316 320.054 35.9914C320.253 36.4313 317.675 38.5507 315.533 40.7902C314.779 41.59 314.303 45.6291 313.549 46.4689C311.844 48.3884 310.138 47.9885 309.543 50.8278C307.044 52.1075 302.919 49.0283 302.919 49.0283V49.0683Z" fill="#EBEFD5"/>
<path d="M296.573 102.176C291.932 102.336 288.521 86.3795 294.272 68.4237C296.811 60.5056 302.245 48.0286 302.245 48.0286C304.188 48.1485 310.138 50.7079 310.138 50.7079C309.9 67.7039 306.727 101.856 296.573 102.216V102.176Z" fill="url(#paint12_linear_1515_1760)"/>
</g>
<defs>
<linearGradient id="paint0_linear_1515_1760" x1="0" y1="234.824" x2="250.8" y2="234.824" gradientUnits="userSpaceOnUse">
<stop stop-color="#E7D7DD"/>
<stop offset="0.01" stop-color="#DED0D7"/>
<stop offset="0.05" stop-color="#C7BEC9"/>
<stop offset="0.1" stop-color="#B5B0BD"/>
<stop offset="0.16" stop-color="#A8A6B5"/>
<stop offset="0.23" stop-color="#A1A0B1"/>
<stop offset="0.4" stop-color="#9F9FB0"/>
<stop offset="0.48" stop-color="#8E8EA2"/>
<stop offset="0.57" stop-color="#75758D"/>
</linearGradient>
<linearGradient id="paint1_linear_1515_1760" x1="0" y1="173.519" x2="250.8" y2="173.519" gradientUnits="userSpaceOnUse">
<stop offset="0.4" stop-color="#E7D7DD"/>
<stop offset="0.47" stop-color="#D6CCD4"/>
<stop offset="0.57" stop-color="#B8B8C4"/>
</linearGradient>
<linearGradient id="paint2_linear_1515_1760" x1="0" y1="296.09" x2="3.96647" y2="296.09" gradientUnits="userSpaceOnUse">
<stop offset="0.4" stop-color="#E7D7DD"/>
<stop offset="0.47" stop-color="#D6CCD4"/>
<stop offset="0.57" stop-color="#B8B8C4"/>
</linearGradient>
<linearGradient id="paint3_linear_1515_1760" x1="125.38" y1="154.803" x2="125.38" y2="22.6746" gradientUnits="userSpaceOnUse">
<stop stop-color="white"/>
<stop offset="1" stop-color="#F4F9DD" stop-opacity="0"/>
</linearGradient>
<linearGradient id="paint4_linear_1515_1760" x1="324.22" y1="260.458" x2="388.001" y2="260.458" gradientUnits="userSpaceOnUse">
<stop stop-color="#8C8CA0"/>
<stop offset="0.14" stop-color="#A7A7B7"/>
<stop offset="0.37" stop-color="#CDCDD6"/>
<stop offset="0.58" stop-color="#E8E8EC"/>
<stop offset="0.76" stop-color="#F9F9FA"/>
<stop offset="0.9" stop-color="white"/>
</linearGradient>
<linearGradient id="paint5_linear_1515_1760" x1="296.415" y1="245.062" x2="360.196" y2="245.062" gradientUnits="userSpaceOnUse">
<stop stop-color="#8C8CA0"/>
<stop offset="0.14" stop-color="#A7A7B7"/>
<stop offset="0.37" stop-color="#CDCDD6"/>
<stop offset="0.58" stop-color="#E8E8EC"/>
<stop offset="0.76" stop-color="#F9F9FA"/>
<stop offset="0.9" stop-color="white"/>
</linearGradient>
<linearGradient id="paint6_linear_1515_1760" x1="345.242" y1="257.219" x2="317.04" y2="257.219" gradientUnits="userSpaceOnUse">
<stop stop-color="#75758D"/>
<stop offset="0.22" stop-color="#6A6A83"/>
<stop offset="0.66" stop-color="#595975"/>
<stop offset="1" stop-color="#545471"/>
</linearGradient>
<linearGradient id="paint7_linear_1515_1760" x1="317.873" y1="241.863" x2="289.632" y2="241.863" gradientUnits="userSpaceOnUse">
<stop stop-color="#75758D"/>
<stop offset="0.22" stop-color="#6A6A83"/>
<stop offset="0.66" stop-color="#595975"/>
<stop offset="1" stop-color="#545471"/>
</linearGradient>
<linearGradient id="paint8_linear_1515_1760" x1="354.008" y1="179.677" x2="299.66" y2="184.517" gradientUnits="userSpaceOnUse">
<stop stop-color="#3F3F60"/>
<stop offset="0.47" stop-color="#4D4D6B"/>
<stop offset="1" stop-color="#62627D"/>
</linearGradient>
<linearGradient id="paint9_linear_1515_1760" x1="349.01" y1="86.1395" x2="297.565" y2="86.1395" gradientUnits="userSpaceOnUse">
<stop stop-color="#9F9FB0"/>
<stop offset="1" stop-color="#E7D7DD"/>
</linearGradient>
<linearGradient id="paint10_linear_1515_1760" x1="349.407" y1="82.5003" x2="295.859" y2="82.5003" gradientUnits="userSpaceOnUse">
<stop stop-color="#D3D3DA"/>
<stop offset="0.61" stop-color="#F0F0F3"/>
<stop offset="1" stop-color="white"/>
</linearGradient>
<linearGradient id="paint11_linear_1515_1760" x1="304.585" y1="103.215" x2="304.585" y2="50.6678" gradientUnits="userSpaceOnUse">
<stop stop-color="#E7D7DD"/>
<stop offset="0.21" stop-color="#DACED6"/>
<stop offset="0.7" stop-color="#C1BEC8"/>
<stop offset="1" stop-color="#B8B8C4"/>
</linearGradient>
<linearGradient id="paint12_linear_1515_1760" x1="291.258" y1="75.1022" x2="310.138" y2="75.1022" gradientUnits="userSpaceOnUse">
<stop stop-color="white"/>
<stop offset="0.39" stop-color="#F0F0F3"/>
<stop offset="1" stop-color="#D3D3DA"/>
</linearGradient>
<clipPath id="clip0_1515_1760">
<rect width="388" height="338" fill="white"/>
</clipPath>
</defs>
</svg>
