<svg width="494" height="427" viewBox="0 0 494 427" fill="none" xmlns="http://www.w3.org/2000/svg">
<circle cx="202" cy="225" r="202" fill="#F4F9DD"/>
<path style="mix-blend-mode:multiply" d="M310.849 359.319H493.504L331.699 265.821L197.965 342.912C192.97 345.791 192.97 350.463 197.965 353.342C197.965 353.342 251.013 383.983 251.231 384.092L243.14 387.025H256.117C261.113 387.025 265.294 385.613 268.551 383.766L310.794 359.373L310.849 359.319Z" fill="url(#paint0_linear_1023_7715)"/>
<path d="M184.767 276.959C189.762 274.08 197.853 274.08 202.848 276.959L304.709 335.795C309.704 338.675 309.704 343.347 304.709 346.226L252.149 376.595C247.154 379.475 239.064 379.475 234.069 376.595L132.207 317.759C127.212 314.879 127.212 310.207 132.207 307.328L184.767 276.959Z" fill="#F6F6FB"/>
<path d="M132.209 317.813L234.071 376.65C239.066 379.529 247.156 379.529 252.151 376.65L304.711 346.281C307.1 344.922 308.349 343.075 308.403 341.282V349.323C308.403 351.224 307.154 353.126 304.657 354.538L252.097 384.907C247.102 387.787 239.012 387.787 234.016 384.907L132.155 326.071C129.549 324.604 128.354 322.594 128.463 320.638V312.815C128.571 314.662 129.766 316.455 132.155 317.813H132.209Z" fill="url(#paint1_linear_1023_7715)"/>
<path style="mix-blend-mode:multiply" d="M240.315 307.545H239.446H192.425C192.642 309.283 193.837 310.913 196.117 312.217L252.206 344.65L251.826 345.52L242.161 351.115H296.404L306.068 345.52L240.369 307.545H240.315Z" fill="url(#paint2_linear_1023_7715)"/>
<path d="M183.736 297.168C187.809 284.619 187.809 273.916 187.809 269.516L195.03 265.333C195.03 267.18 195.03 270.005 194.759 273.536L253.454 307.436C253.454 313.63 253.454 332.264 242.106 351.007L176.406 313.032L183.682 297.114L183.736 297.168Z" fill="#CED3F8"/>
<path d="M187.812 269.516L253.511 307.491L260.787 303.307L195.033 265.333L187.812 269.516Z" fill="#C6B4BB"/>
<path d="M242.161 351.061C253.509 332.264 253.509 313.684 253.509 307.49L260.73 303.307C260.73 309.5 260.73 326.396 251.771 345.465L242.106 351.061H242.161Z" fill="#BBC0E6"/>
<g style="mix-blend-mode:multiply">
<path d="M249.927 333.622L257.691 329.113C259.049 323.898 259.809 319.171 260.189 315.097L252.859 319.334C252.37 323.517 251.447 328.352 249.872 333.568L249.927 333.622Z" fill="#D8DEF3"/>
</g>
<path d="M79.0524 12.112C79.0524 6.3533 83.1247 4.01719 88.0657 6.89654L331.642 147.605C336.637 150.484 340.655 157.547 340.655 163.251V326.614L78.998 175.475V12.112H79.0524Z" fill="#A4C1BD"/>
<path d="M97.8932 1.24657L341.469 141.955C346.465 144.834 350.483 151.897 350.483 157.601V320.963L340.655 326.614V163.251C340.655 157.492 336.583 150.484 331.642 147.605L88.0654 6.89659C86.0565 5.70139 84.1561 5.42978 82.6357 5.8644L90.4544 1.40955C92.0834 -0.328929 94.7982 -0.546232 97.8388 1.24657H97.8932Z" fill="url(#paint3_linear_1023_7715)"/>
<path d="M340.71 326.614V359.645C340.71 365.403 336.638 367.739 331.697 364.86L88.1207 224.152C83.1254 221.273 79.1074 214.21 79.1074 208.506V175.475L340.765 326.614H340.71Z" fill="#D7DDFD"/>
<path d="M340.712 359.699V326.668L350.54 321.018V354.049C350.54 356.929 349.508 358.993 347.825 359.917L338.432 365.295C339.843 364.263 340.712 362.361 340.712 359.699Z" fill="#BBC0E6"/>
<path d="M88.0635 180.69L331.64 321.398V158.035L88.0635 17.3274V180.69Z" fill="#89A8A3"/>
<g style="mix-blend-mode:screen">
<path d="M193.242 192.5L102 138.523L102 57.5L193.242 111.531V192.5Z" fill="#89A8A3"/>
</g>
<g style="mix-blend-mode:screen">
<path d="M124 113.399C124 100.522 133.212 95.2952 144.5 101.797C155.788 108.172 165 123.853 165 136.601C165 149.478 155.788 154.705 144.5 148.203C133.212 141.829 124 126.147 124 113.399Z" fill="#89A8A3"/>
</g>
<g style="mix-blend-mode:multiply">
<path d="M193.243 210.95L171.499 198V187.678L193.243 200.683V210.95Z" fill="#647E93"/>
</g>
<g style="mix-blend-mode:multiply">
<path d="M217.181 130.491C217.181 125.004 221.036 122.777 225.76 125.548C230.484 128.264 234.339 134.946 234.339 140.379C234.339 145.866 230.484 148.094 225.76 145.323C221.036 142.607 217.181 135.924 217.181 130.491Z" fill="#BBC0E6"/>
</g>
<g style="mix-blend-mode:multiply">
<path d="M296.894 181.722L244.117 151.19V140.922L296.894 171.4V181.722Z" fill="#DAE0F5"/>
</g>
<g style="mix-blend-mode:multiply">
<path d="M217.181 160.208C217.181 154.721 221.036 152.494 225.76 155.265C230.484 157.981 234.339 164.663 234.339 170.096C234.339 175.583 230.484 177.81 225.76 175.04C221.036 172.323 217.181 165.641 217.181 160.208Z" fill="#BBC0E6"/>
</g>
<g style="mix-blend-mode:multiply">
<path d="M296.894 211.44L244.117 180.907V170.64L296.894 201.117V211.44Z" fill="#DAE0F5"/>
</g>
<g style="mix-blend-mode:screen">
<path d="M217.181 189.926C217.181 184.439 221.036 182.211 225.76 184.982C230.484 187.698 234.339 194.381 234.339 199.868C234.339 205.355 230.484 207.528 225.76 204.811C221.036 202.095 217.181 195.413 217.181 189.98V189.926Z" fill="#E7D7DD"/>
</g>
<g style="mix-blend-mode:multiply">
<path d="M296.894 241.156L244.117 210.624V200.356L296.894 230.834V241.156Z" fill="#BBC0E6"/>
</g>
<g style="mix-blend-mode:screen">
<path d="M217.181 219.643C217.181 214.156 221.036 211.928 225.76 214.699C230.484 217.415 234.339 224.098 234.339 229.53C234.339 235.017 230.484 237.245 225.76 234.474C221.036 231.758 217.181 225.075 217.181 219.643Z" fill="#89A8A3"/>
</g>
<g style="mix-blend-mode:screen">
<path d="M296.894 270.874L244.117 240.342V230.074L296.894 260.551V270.874Z" fill="#89A8A3"/>
</g>
<path style="mix-blend-mode:multiply" d="M79.3321 314.148C79.8931 314.148 80.3937 314.252 80.877 314.537C81.1272 314.684 81.904 315.133 82.6117 315.538L82.9396 315.348C83.1036 315.253 83.3021 315.271 83.4574 315.348C83.5006 315.366 89.5591 318.871 89.5591 318.871C89.6282 318.914 89.7059 318.966 89.7663 319.035L90.0511 319.45L153.7 358.374L157.334 364.004L147.84 361.033L87.1254 325.96C86.9614 326.055 86.7629 326.038 86.6075 325.96C86.573 325.943 80.4972 322.437 80.4972 322.437C80.4282 322.394 80.3505 322.351 80.2987 322.273L79.8586 321.652L77.5801 320.339C76.6308 319.726 76.0008 318.69 76.0008 317.498C76.0008 315.659 77.4938 314.165 79.3321 314.165V314.148Z" fill="url(#paint4_linear_1023_7715)"/>
<path d="M84.71 313C85.271 313 85.7715 313.112 86.2548 313.389C86.5569 313.561 87.6443 314.192 88.4297 314.649C88.2398 314.71 88.0327 314.787 87.8256 314.908C86.3411 315.772 85.1415 317.853 85.1415 319.571C85.1415 319.951 85.2105 320.262 85.3141 320.529L82.958 319.174C82.0087 318.561 81.3786 317.524 81.3786 316.333C81.3786 314.494 82.8717 313 84.71 313Z" fill="url(#paint5_linear_1023_7715)"/>
<path d="M159.788 358.65C159.304 358.927 158.916 359.6 158.916 360.161C158.916 360.498 159.063 360.714 159.279 360.766L153.211 359.876L151.917 358.029L153.211 354.687L155.801 353.193L160.461 358.659C160.297 358.512 160.055 358.504 159.779 358.659L159.788 358.65Z" fill="url(#paint6_linear_1023_7715)"/>
<path d="M159.787 358.65C160.063 358.486 160.313 358.503 160.469 358.65L160.538 358.737L162.695 361.266L159.338 360.774H159.278C159.062 360.714 158.915 360.498 158.915 360.161C158.915 359.609 159.304 358.926 159.787 358.65Z" fill="url(#paint7_linear_1023_7715)"/>
<path d="M94.6109 323.577C94.844 323.448 95.1029 323.137 95.1978 322.895L96.2507 320.184C96.3457 319.942 96.3025 319.562 96.1472 319.346L95.1374 317.904C94.9821 317.688 94.6714 317.619 94.447 317.749L92.3325 318.966C92.0995 319.096 91.8406 319.407 91.7456 319.657L90.6927 322.368C90.5978 322.619 90.641 322.99 90.7963 323.206L91.8061 324.648C91.9614 324.864 92.2721 324.933 92.4965 324.803L94.6109 323.577Z" fill="#F3EBEE"/>
<path d="M90.8803 322.765L151.915 358.02L153.218 354.678L92.1749 319.424L90.8803 322.765Z" fill="#669085"/>
<path d="M92.1749 324.613L153.218 359.868L151.915 358.02L90.8803 322.766L92.1749 324.613Z" fill="#C4CAE9"/>
<path d="M92.1776 319.424L153.22 354.679L155.81 353.185L94.7667 317.922L92.1776 319.424Z" fill="#92B0A8"/>
<path d="M84.563 318.82L85.6159 316.109C85.7109 315.858 85.9784 315.556 86.2028 315.418L88.3172 314.2C88.4812 314.114 88.6797 314.123 88.8351 314.2C88.8782 314.218 94.9368 317.723 94.9368 317.723C94.7728 317.654 94.6002 317.654 94.4535 317.74L92.339 318.958C92.106 319.087 91.8471 319.398 91.7521 319.649L90.6992 322.36C90.6043 322.61 90.6475 322.982 90.8028 323.197L91.8126 324.639C91.8471 324.691 91.8989 324.734 91.9506 324.769L85.8748 321.263C85.8058 321.22 85.7281 321.168 85.6763 321.099L84.6666 319.657C84.5199 319.441 84.4681 319.062 84.563 318.811V318.82Z" fill="url(#paint8_linear_1023_7715)"/>
<path style="mix-blend-mode:multiply" d="M91.0515 324.268C90.9997 324.233 90.9479 324.19 90.9134 324.138L89.9037 322.696C89.7483 322.481 89.7052 322.101 89.8001 321.859L90.853 319.148C90.9479 318.897 91.2155 318.586 91.4399 318.457L93.5543 317.239C93.701 317.153 93.8823 317.162 94.0376 317.231C94.0463 317.231 94.4778 317.473 94.4778 317.473C94.3224 317.412 94.1412 317.404 93.9945 317.49L91.88 318.707C91.6556 318.837 91.3881 319.148 91.2932 319.398L90.2403 322.109C90.1453 322.36 90.1885 322.731 90.3438 322.947L91.3536 324.389C91.3881 324.441 91.4399 324.484 91.4917 324.518L91.0601 324.268H91.0515Z" fill="url(#paint9_linear_1023_7715)"/>
<path style="mix-blend-mode:multiply" d="M90.1374 323.733C90.0857 323.698 90.0339 323.655 89.9994 323.603L88.9896 322.161C88.8343 321.945 88.7911 321.566 88.886 321.324L89.939 318.613C90.0339 318.371 90.3014 318.06 90.5258 317.922L92.6403 316.704C92.787 316.618 92.9682 316.627 93.1236 316.696L93.5637 316.946C93.4084 316.886 93.2271 316.877 93.0804 316.963L90.966 318.181C90.7329 318.31 90.474 318.621 90.3791 318.872L89.3262 321.583C89.2313 321.833 89.2744 322.204 89.4298 322.429L90.4395 323.871C90.474 323.923 90.5258 323.966 90.5776 324L90.1461 323.75L90.1374 323.733Z" fill="url(#paint10_linear_1023_7715)"/>
<path style="mix-blend-mode:multiply" d="M89.2244 323.206C89.1726 323.171 89.1208 323.128 89.0863 323.076L88.0765 321.634C87.9212 321.418 87.878 321.039 87.973 320.788L89.0259 318.077C89.1208 317.835 89.3883 317.524 89.6127 317.386L91.7272 316.169C91.8739 316.082 92.0551 316.091 92.2105 316.16L92.6506 316.41C92.4867 316.35 92.3054 316.341 92.1587 316.428L90.0442 317.654C89.8112 317.783 89.5523 318.094 89.4574 318.336L88.4045 321.056C88.3095 321.298 88.3527 321.677 88.508 321.893L89.5178 323.335C89.5523 323.387 89.6041 323.43 89.6559 323.465L89.2244 323.214V323.206Z" fill="url(#paint11_linear_1023_7715)"/>
<path style="mix-blend-mode:multiply" d="M10.0003 263.406L56.9053 268.197V289.07L10.0003 293.861V263.406Z" fill="url(#paint12_linear_1023_7715)"/>
<path d="M81 245.925L74.9049 278.822C74.9049 281.447 73.1749 284.072 69.7034 286.078C62.7719 290.079 51.5326 290.079 44.5896 286.078C41.1296 284.072 39.3882 281.447 39.3882 278.822L33.293 245.937H81V245.925Z" fill="url(#paint13_linear_1023_7715)"/>
<path d="M81 245.925C81 242.395 78.6742 238.876 74.0112 236.182C64.6967 230.807 49.5964 230.807 40.2818 236.182C35.6303 238.876 33.293 242.395 33.293 245.925C33.293 249.456 35.6188 252.975 40.2818 255.668C49.5964 261.044 64.6967 261.044 74.0112 255.668C78.6628 252.975 81 249.456 81 245.925Z" fill="#F9F9FC"/>
<path d="M70.3565 241.524C63.0584 237.306 51.2348 237.306 43.9367 241.524C41.0037 243.22 39.2737 245.341 38.7008 247.53C38.5633 246.992 38.4717 246.453 38.4717 245.914C38.4717 243.152 40.2933 240.389 43.9481 238.28C51.2462 234.073 63.0699 234.073 70.368 238.28C74.0113 240.389 75.8444 243.152 75.833 245.914C75.833 246.453 75.7413 246.992 75.6038 247.53C75.031 245.33 73.301 243.209 70.368 241.513L70.3565 241.524Z" fill="url(#paint14_linear_1023_7715)"/>
<path d="M70.354 253.559C63.0559 257.778 51.2323 257.778 43.9342 253.559C41.0012 251.863 39.2712 249.742 38.6983 247.542C39.2712 245.341 41.0012 243.22 43.9342 241.535C51.2323 237.317 63.0559 237.317 70.354 241.535C73.287 243.232 75.017 245.352 75.5898 247.553C75.017 249.754 73.287 251.874 70.354 253.571V253.559Z" fill="#82A49B"/>
<path style="mix-blend-mode:multiply" d="M57.6059 254.339C55.0624 254.339 50.9035 254.453 46.2176 254.648C45.4271 254.316 44.6595 253.961 43.9491 253.548C41.0161 251.851 39.2861 249.731 38.7133 247.53C39.2861 245.329 41.0161 243.209 43.9491 241.524C46.7675 239.896 50.2619 238.899 53.9053 238.532C56.8612 239.312 58.8203 239.873 58.8203 239.873L57.6173 254.327L57.6059 254.339Z" fill="url(#paint15_linear_1023_7715)"/>
<path style="mix-blend-mode:multiply" d="M40.293 236.182C42.1146 235.128 44.1769 234.291 46.3537 233.649C48.9087 234.234 51.3146 234.841 53.3311 235.369C49.894 235.781 46.6173 236.756 43.9478 238.292C40.3044 240.401 38.4713 243.163 38.4713 245.925C38.4713 246.464 38.563 247.003 38.7005 247.542C39.1015 249.055 40.0524 250.522 41.5533 251.852C39.6743 251.943 37.761 252.058 35.882 252.172C34.1635 250.212 33.2928 248.069 33.2928 245.925C33.2928 242.395 35.6185 238.876 40.2815 236.182H40.293Z" fill="url(#paint16_linear_1023_7715)"/>
<path d="M33.9428 220.491C40.1754 214.209 49.0431 227.449 51.3689 231.002C51.3689 231.002 51.0939 231.609 50.5325 232.584C44.8155 226.818 36.807 222.107 33.9313 220.502L33.9428 220.491Z" fill="#BBC0E6"/>
<path d="M33.3136 221.202C33.5198 220.938 33.726 220.709 33.9437 220.491C36.8194 222.096 44.8279 226.807 50.5449 232.572C50.0294 233.466 49.2503 234.67 48.2077 236C37.2319 233.398 28.5704 227.196 33.3251 221.19L33.3136 221.202Z" fill="#759B91"/>
<path d="M66.1123 184.59C61.6326 180.074 55.2625 189.588 53.5898 192.132C53.5898 192.132 53.7846 192.568 54.1856 193.267C58.2872 189.129 64.0386 185.736 66.1008 184.59H66.1123Z" fill="#C5C9EA"/>
<path d="M66.5741 185.094C66.4251 184.911 66.2762 184.739 66.1273 184.59C64.065 185.736 58.3136 189.129 54.212 193.267C54.5901 193.909 55.14 194.78 55.8962 195.732C63.7786 193.863 69.9997 189.416 66.5855 185.094H66.5741Z" fill="#BBC0E6"/>
<path d="M57.6026 212.788C64.5685 215.482 71.351 222.061 65.3934 252.024C65.1642 252.196 62.9072 252.643 61.8531 252.929C64.9924 223.081 61.9448 216.594 57.6141 212.788H57.6026Z" fill="url(#paint17_linear_1023_7715)"/>
<path d="M61.839 252.929C60.5214 253.663 59.2955 254.064 57.5999 254.339V212.776C61.9421 216.593 64.9896 223.07 61.839 252.918V252.929Z" fill="url(#paint18_linear_1023_7715)"/>
<path d="M57.6018 212.788C76.3798 212.788 69.4369 242.006 67.409 249.33C67.1111 250.293 66.4352 251.222 65.3926 252.024C71.3502 222.061 64.5677 215.482 57.6018 212.788Z" fill="url(#paint19_linear_1023_7715)"/>
<path d="M57.6016 212.788C50.4295 215.275 43.8532 222.061 49.8108 252.024C48.814 251.256 48.1495 250.362 47.8402 249.445C47.8402 249.445 47.8287 249.399 47.8173 249.388C47.8173 249.365 47.8058 249.342 47.7944 249.319C45.629 243.496 38.9381 212.788 57.6016 212.788Z" fill="url(#paint20_linear_1023_7715)"/>
<path d="M57.6001 212.788C53.2579 216.605 50.3135 223.288 53.4527 253.136C52.3986 252.838 50.0385 252.196 49.8208 252.024C43.8632 222.061 50.4395 215.276 57.6116 212.788H57.6001Z" fill="url(#paint21_linear_1023_7715)"/>
<path d="M57.6016 212.788V254.351C56.0549 253.927 54.7717 253.503 53.4541 253.136C50.3149 223.288 53.2708 216.605 57.6016 212.788Z" fill="url(#paint22_linear_1023_7715)"/>
<path d="M41.4514 181.69C47.936 181.897 54.4207 186.218 58.8889 213.327C58.7629 213.544 58.0296 213.911 57.262 214.473C50.5482 188.304 46.1487 183.616 41.4514 181.69Z" fill="url(#paint23_linear_1023_7715)"/>
<path d="M57.2622 214.473C56.4258 215.482 55.8759 215.951 54.5813 216.697L41.4515 181.69C46.1489 183.616 50.5484 188.304 57.2622 214.473Z" fill="url(#paint24_linear_1023_7715)"/>
<path d="M41.4515 181.69C56.6778 176.096 59.29 206.139 59.9202 212.948C59.6567 212.914 59.4619 212.833 58.889 213.338C54.4208 186.229 47.9361 181.908 41.4515 181.702V181.69Z" fill="url(#paint25_linear_1023_7715)"/>
<path d="M41.4521 181.69C36.411 185.931 34.1081 193.634 48.2346 217.189C42.2426 211.882 27.0965 188.029 41.4521 181.69Z" fill="url(#paint26_linear_1023_7715)"/>
<path d="M41.4536 181.69C39.1164 186.206 39.483 192.683 51.2952 216.983C50.3442 217.04 48.4767 217.258 48.2361 217.178C34.1097 193.623 36.4011 185.92 41.4536 181.679V181.69Z" fill="url(#paint27_linear_1023_7715)"/>
<path d="M41.4538 181.69L54.5835 216.697C53.1972 216.811 52.4754 216.914 51.2953 216.995C39.4832 192.694 39.1165 186.218 41.4538 181.702V181.69Z" fill="url(#paint28_linear_1023_7715)"/>
<defs>
<linearGradient id="paint0_linear_1023_7715" x1="194.219" y1="326.45" x2="493.504" y2="326.45" gradientUnits="userSpaceOnUse">
<stop stop-color="#C2C8E6"/>
<stop offset="0.41" stop-color="#E2E5F3"/>
<stop offset="0.77" stop-color="#F7F8FB"/>
<stop offset="1" stop-color="white"/>
</linearGradient>
<linearGradient id="paint1_linear_1023_7715" x1="308.457" y1="349.921" x2="128.517" y2="349.921" gradientUnits="userSpaceOnUse">
<stop offset="0.255208" stop-color="#5D817C"/>
<stop offset="0.328125" stop-color="#89A8A3"/>
<stop offset="0.614583" stop-color="#C8E1DE"/>
</linearGradient>
<linearGradient id="paint2_linear_1023_7715" x1="192.425" y1="329.276" x2="306.068" y2="329.276" gradientUnits="userSpaceOnUse">
<stop stop-color="#DAE0F5"/>
<stop offset="0.32" stop-color="#E0E5F6"/>
<stop offset="0.77" stop-color="#F2F4FB"/>
<stop offset="1" stop-color="white"/>
</linearGradient>
<linearGradient id="paint3_linear_1023_7715" x1="130.96" y1="-68.7815" x2="355.287" y2="319.496" gradientUnits="userSpaceOnUse">
<stop offset="0.63" stop-color="#C8E1DE"/>
<stop offset="0.7" stop-color="#647E93"/>
</linearGradient>
<linearGradient id="paint4_linear_1023_7715" x1="158.792" y1="339.076" x2="76.2252" y2="339.076" gradientUnits="userSpaceOnUse">
<stop stop-color="#F6F0F2"/>
<stop offset="0.52" stop-color="#F8F4F5"/>
<stop offset="1" stop-color="white"/>
</linearGradient>
<linearGradient id="paint5_linear_1023_7715" x1="86.0736" y1="313.423" x2="82.6449" y2="319.129" gradientUnits="userSpaceOnUse">
<stop stop-color="#C5C9EA"/>
<stop offset="1" stop-color="#759B91"/>
</linearGradient>
<linearGradient id="paint6_linear_1023_7715" x1="154.843" y1="360.187" x2="158.073" y2="354.524" gradientUnits="userSpaceOnUse">
<stop stop-color="#EEE2E7"/>
<stop offset="1" stop-color="#F9F9FC"/>
</linearGradient>
<linearGradient id="paint7_linear_1023_7715" x1="160.253" y1="361.154" x2="161.609" y2="359.393" gradientUnits="userSpaceOnUse">
<stop stop-color="#759B91"/>
<stop offset="1" stop-color="#CDD1ED"/>
</linearGradient>
<linearGradient id="paint8_linear_1023_7715" x1="87.8167" y1="322.04" x2="91.5908" y2="315.704" gradientUnits="userSpaceOnUse">
<stop offset="0.07" stop-color="#E7D7DD"/>
<stop offset="0.14" stop-color="#F3EBEE"/>
<stop offset="0.56" stop-color="#F3EBEE"/>
<stop offset="0.69" stop-color="#F9F9FC"/>
</linearGradient>
<linearGradient id="paint9_linear_1023_7715" x1="89.8433" y1="323.482" x2="94.5323" y2="317.527" gradientUnits="userSpaceOnUse">
<stop offset="0.56" stop-color="#F4EDEF"/>
<stop offset="0.69" stop-color="#F6F6FB"/>
</linearGradient>
<linearGradient id="paint10_linear_1023_7715" x1="88.9292" y1="322.956" x2="93.6096" y2="317" gradientUnits="userSpaceOnUse">
<stop offset="0.56" stop-color="#F4EDEF"/>
<stop offset="0.69" stop-color="#F6F6FB"/>
</linearGradient>
<linearGradient id="paint11_linear_1023_7715" x1="88.0075" y1="322.42" x2="92.6965" y2="316.473" gradientUnits="userSpaceOnUse">
<stop offset="0.56" stop-color="#F4EDEF"/>
<stop offset="0.69" stop-color="#F6F6FB"/>
</linearGradient>
<linearGradient id="paint12_linear_1023_7715" x1="56.9053" y1="278.639" x2="10.0003" y2="278.639" gradientUnits="userSpaceOnUse">
<stop stop-color="#F1E7EB"/>
<stop offset="0.1" stop-color="#F3EBEE"/>
<stop offset="0.57" stop-color="#FCF9FA"/>
<stop offset="0.96" stop-color="white"/>
</linearGradient>
<linearGradient id="paint13_linear_1023_7715" x1="81" y1="267.498" x2="33.3045" y2="267.498" gradientUnits="userSpaceOnUse">
<stop stop-color="#F3EBEE"/>
<stop offset="0.11" stop-color="#F2E9EC"/>
<stop offset="1" stop-color="#EEE2E7"/>
</linearGradient>
<linearGradient id="paint14_linear_1023_7715" x1="75.833" y1="241.341" x2="38.4717" y2="241.341" gradientUnits="userSpaceOnUse">
<stop stop-color="#EEE2E7"/>
<stop offset="1" stop-color="#F3EBEE"/>
</linearGradient>
<linearGradient id="paint15_linear_1023_7715" x1="58.8089" y1="246.602" x2="38.7018" y2="246.602" gradientUnits="userSpaceOnUse">
<stop stop-color="#F0E6EA"/>
<stop offset="0.39" stop-color="#F2E9ED"/>
<stop offset="0.75" stop-color="#F8F4F6"/>
<stop offset="0.96" stop-color="white"/>
</linearGradient>
<linearGradient id="paint16_linear_1023_7715" x1="53.3311" y1="242.911" x2="33.3042" y2="242.911" gradientUnits="userSpaceOnUse">
<stop stop-color="#F1E7EB"/>
<stop offset="0.68" stop-color="#F9F6F7"/>
<stop offset="1" stop-color="white"/>
</linearGradient>
<linearGradient id="paint17_linear_1023_7715" x1="71.1906" y1="231.85" x2="45.1601" y2="234.129" gradientUnits="userSpaceOnUse">
<stop stop-color="#C5C9EA"/>
<stop offset="0.25" stop-color="#A9B9C9"/>
<stop offset="0.5" stop-color="#93ADAF"/>
<stop offset="0.72" stop-color="#86A6A0"/>
<stop offset="0.9" stop-color="#82A49B"/>
</linearGradient>
<linearGradient id="paint18_linear_1023_7715" x1="71.4399" y1="232.343" x2="45.0543" y2="234.667" gradientUnits="userSpaceOnUse">
<stop stop-color="#CDD1ED"/>
<stop offset="0.46" stop-color="#C0C5E8"/>
<stop offset="0.9" stop-color="#BBC0E6"/>
</linearGradient>
<linearGradient id="paint19_linear_1023_7715" x1="71.1669" y1="231.552" x2="45.1249" y2="233.831" gradientUnits="userSpaceOnUse">
<stop stop-color="#CDD1ED"/>
<stop offset="0.46" stop-color="#C0C5E8"/>
<stop offset="0.9" stop-color="#BBC0E6"/>
</linearGradient>
<linearGradient id="paint20_linear_1023_7715" x1="71.1094" y1="230.841" x2="45.0674" y2="233.132" gradientUnits="userSpaceOnUse">
<stop stop-color="#C5C9EA"/>
<stop offset="0.25" stop-color="#A9B9C9"/>
<stop offset="0.5" stop-color="#93ADAF"/>
<stop offset="0.72" stop-color="#86A6A0"/>
<stop offset="0.9" stop-color="#82A49B"/>
</linearGradient>
<linearGradient id="paint21_linear_1023_7715" x1="71.1652" y1="231.587" x2="45.1347" y2="233.865" gradientUnits="userSpaceOnUse">
<stop stop-color="#CDD1ED"/>
<stop offset="0.46" stop-color="#C0C5E8"/>
<stop offset="0.9" stop-color="#BBC0E6"/>
</linearGradient>
<linearGradient id="paint22_linear_1023_7715" x1="71.1552" y1="232.377" x2="45.2966" y2="234.645" gradientUnits="userSpaceOnUse">
<stop stop-color="#C5C9EA"/>
<stop offset="0.25" stop-color="#A9B9C9"/>
<stop offset="0.5" stop-color="#93ADAF"/>
<stop offset="0.72" stop-color="#86A6A0"/>
<stop offset="0.9" stop-color="#82A49B"/>
</linearGradient>
<linearGradient id="paint23_linear_1023_7715" x1="58.094" y1="193.962" x2="40.171" y2="202.3" gradientUnits="userSpaceOnUse">
<stop stop-color="#C5C9EA"/>
<stop offset="0.25" stop-color="#A9B9C9"/>
<stop offset="0.5" stop-color="#93ADAF"/>
<stop offset="0.72" stop-color="#86A6A0"/>
<stop offset="0.9" stop-color="#82A49B"/>
</linearGradient>
<linearGradient id="paint24_linear_1023_7715" x1="59.1675" y1="193.924" x2="39.5651" y2="203.046" gradientUnits="userSpaceOnUse">
<stop stop-color="#CDD1ED"/>
<stop offset="0.46" stop-color="#C0C5E8"/>
<stop offset="0.9" stop-color="#BBC0E6"/>
</linearGradient>
<linearGradient id="paint25_linear_1023_7715" x1="58.3228" y1="193.717" x2="39.7712" y2="202.349" gradientUnits="userSpaceOnUse">
<stop stop-color="#CDD1ED"/>
<stop offset="0.46" stop-color="#C0C5E8"/>
<stop offset="0.9" stop-color="#BBC0E6"/>
</linearGradient>
<linearGradient id="paint26_linear_1023_7715" x1="58.2569" y1="193.088" x2="39.3057" y2="201.918" gradientUnits="userSpaceOnUse">
<stop stop-color="#C5C9EA"/>
<stop offset="0.25" stop-color="#A9B9C9"/>
<stop offset="0.5" stop-color="#93ADAF"/>
<stop offset="0.72" stop-color="#86A6A0"/>
<stop offset="0.9" stop-color="#82A49B"/>
</linearGradient>
<linearGradient id="paint27_linear_1023_7715" x1="58.4649" y1="193.62" x2="39.5782" y2="202.417" gradientUnits="userSpaceOnUse">
<stop stop-color="#CDD1ED"/>
<stop offset="0.46" stop-color="#C0C5E8"/>
<stop offset="0.9" stop-color="#BBC0E6"/>
</linearGradient>
<linearGradient id="paint28_linear_1023_7715" x1="58.4467" y1="194.258" x2="40.1434" y2="202.788" gradientUnits="userSpaceOnUse">
<stop stop-color="#C5C9EA"/>
<stop offset="0.25" stop-color="#A9B9C9"/>
<stop offset="0.5" stop-color="#93ADAF"/>
<stop offset="0.72" stop-color="#86A6A0"/>
<stop offset="0.9" stop-color="#82A49B"/>
</linearGradient>
</defs>
</svg>
