<svg width="174" height="174" viewBox="0 0 174 174" fill="none" xmlns="http://www.w3.org/2000/svg">
<circle cx="87" cy="87" r="87" fill="#F4F9DD"/>
<mask id="mask0_1515_2265" style="mask-type:luminance" maskUnits="userSpaceOnUse" x="11" y="46" width="163" height="93">
<path d="M174 46H11.2666V138.869H174V46Z" fill="white"/>
</mask>
<g mask="url(#mask0_1515_2265)">
<path style="mix-blend-mode:multiply" d="M75.8054 66.0052C76.5381 66.4141 77.1941 66.8657 77.8331 67.3343C89.4375 61.0465 107.662 61.1402 119.002 67.6921C121.277 69.0042 123.092 70.4697 124.463 72.0288C135.216 70.7934 146.803 72.5741 155.136 77.3795C167.848 84.7238 168.35 96.4218 156.729 104.141C159.6 104.984 162.284 106.109 164.687 107.481C177.118 114.655 177.118 126.302 164.687 133.476C164.082 133.816 163.451 134.149 162.812 134.455C150.313 140.632 131.501 140.317 119.675 133.476L39.3309 87.0753C29.2517 81.2561 29.2517 71.8244 39.3309 66.0052C49.4102 60.1859 65.7431 60.1859 75.8054 66.0052Z" fill="url(#paint0_linear_1515_2265)"/>
<path d="M55.3063 50.3538C56.0391 50.7628 56.6951 51.2143 57.3341 51.6914C68.9384 45.4036 87.1629 45.4973 98.5031 52.0493C100.778 53.3614 102.593 54.8268 103.964 56.386C114.717 55.1506 126.304 56.9313 134.637 61.7366C147.349 69.0809 147.851 80.779 136.23 88.4982C139.101 89.3416 141.785 90.4663 144.188 91.838C156.619 99.0119 156.619 110.659 144.188 117.833C143.583 118.174 142.952 118.506 142.313 118.813C129.814 124.99 111.002 124.674 99.1762 117.833L18.8319 71.4324C8.75265 65.6047 8.75265 56.1815 18.8319 50.3538C28.9111 44.5346 45.2441 44.5346 55.3063 50.3538Z" fill="#9F93DD"/>
<path d="M136.213 88.4981C139.084 89.3416 141.768 90.4663 144.171 91.838C144.281 91.9147 144.392 91.9914 144.511 92.0425C144.545 91.5313 144.571 91.0456 144.511 90.5429V76.1781C144.29 80.5915 141.512 84.9453 136.179 88.4981H136.213Z" fill="#C2D2E7"/>
<path d="M153.483 105.496C153.219 109.986 150.126 114.433 144.188 117.85C143.583 118.191 142.944 118.523 142.313 118.83C129.814 125.007 111.002 124.691 99.1762 117.85L18.8319 71.4324C14.3248 68.8338 11.8284 65.511 11.3598 62.1115V75.3176C10.7549 79.5265 13.2598 83.8632 18.8319 87.0753L99.1932 133.484C111.019 140.317 129.831 140.641 142.33 134.464C142.969 134.166 143.608 133.842 144.205 133.484C150.101 130.085 153.193 125.671 153.5 121.198V121.121C153.517 120.687 153.517 120.278 153.5 119.843V105.479L153.483 105.496Z" fill="url(#paint1_linear_1515_2265)"/>
<path d="M74.5114 52.7053L99.2708 66.9935C101.52 68.2885 101.52 70.393 99.2708 71.7051L74.5114 85.9932C72.2621 87.2883 68.6155 87.2883 66.3662 85.9932L41.6069 71.7051C39.3576 70.41 39.3576 68.3055 41.6069 67.0105L66.3833 52.7053C68.6326 51.4102 72.2792 51.4102 74.5285 52.7053H74.5114Z" fill="#E1E8F3"/>
<path d="M70.4385 84.2381H76.8797L97.1319 72.54C100.191 70.7764 100.191 67.9221 97.1319 66.1585L77.6635 54.912H70.4555V84.2381H70.4385Z" fill="url(#paint2_linear_1515_2265)"/>
<path d="M46.164 67.3172L44.5537 66.38V63.824L46.164 64.7441V67.3172Z" fill="#BFBFD1"/>
<path d="M46.165 67.3172L47.0852 66.789V64.233L46.165 64.7442V67.3172Z" fill="#A3A3BC"/>
<path d="M46.1647 64.7442L47.0849 64.233L45.449 63.2958L44.5459 63.824L46.1562 64.7442H46.1647Z" fill="#D4D4DF"/>
<path d="M49.0009 65.6814L47.3906 64.7442V62.1882L49.0009 63.1083V65.6814Z" fill="#BFBFD1"/>
<path d="M49.001 65.6814L49.9041 65.1532V62.5972L49.001 63.1084V65.6814Z" fill="#A3A3BC"/>
<path d="M49.0009 63.1083L49.904 62.5971L48.2938 61.6599L47.3906 62.1882L49.0009 63.1083Z" fill="#D4D4DF"/>
<path d="M51.8124 64.0455L50.2021 63.1253V60.5522L51.8124 61.4895V64.0455Z" fill="#BFBFD1"/>
<path d="M51.8135 64.0456L52.7336 63.5344V60.9613L51.8135 61.4895V64.0456Z" fill="#A3A3BC"/>
<path d="M51.8132 61.4895L52.7333 60.9613L51.0975 60.024L50.1943 60.5523L51.8046 61.4895H51.8132Z" fill="#D4D4DF"/>
<path d="M54.6494 62.4182L53.0391 61.498V58.9249L54.6494 59.8621V62.4182Z" fill="#BFBFD1"/>
<path d="M54.6504 62.4097L55.5535 61.8985V59.3254L54.6504 59.8537V62.4097Z" fill="#A3A3BC"/>
<path d="M54.6494 59.8622L55.5525 59.3339L53.9422 58.3967L53.0391 58.925L54.6494 59.8622Z" fill="#D4D4DF"/>
<path d="M57.4786 60.7994L55.8428 59.8622V57.2891L57.4786 58.2263V60.7994Z" fill="#BFBFD1"/>
<path d="M57.4873 60.7994L58.3904 60.2712V57.6981L57.4873 58.2264V60.7994Z" fill="#A3A3BC"/>
<path d="M57.4786 58.2263L58.3818 57.6981L56.7459 56.7609L55.8428 57.2891L57.4786 58.2263Z" fill="#D4D4DF"/>
<path d="M60.2988 59.1635L58.6885 58.2263V55.6533L60.2988 56.5905V59.1635Z" fill="#BFBFD1"/>
<path d="M60.2998 59.1636L61.2029 58.6353V56.0623L60.2998 56.5905V59.1636Z" fill="#A3A3BC"/>
<path d="M60.2988 56.5905L61.2019 56.0622L59.5916 55.125L58.6885 55.6532L60.2988 56.5905Z" fill="#D4D4DF"/>
<path d="M63.1368 57.5277L61.501 56.5905V54.0175L63.1368 54.9547V57.5277Z" fill="#BFBFD1"/>
<path d="M63.1367 57.5277L64.0398 56.9995V54.4264L63.1367 54.9546V57.5277Z" fill="#A3A3BC"/>
<path d="M63.1368 54.9546L64.04 54.4263L62.4041 53.4891L61.501 54.0174L63.1368 54.9546Z" fill="#D4D4DF"/>
<path d="M65.9472 55.9003L64.3369 54.9631V52.3901L65.9472 53.3273V55.9003Z" fill="#BFBFD1"/>
<path d="M65.9482 55.9004L66.8514 55.3721V52.7991L65.9482 53.3273V55.9004Z" fill="#A3A3BC"/>
<path d="M65.9472 53.3273L66.8503 52.7991L65.24 51.8619L64.3369 52.3901L65.9472 53.3273Z" fill="#D4D4DF"/>
<path d="M94.7295 67.3172L96.3398 66.38V63.824L94.7295 64.7441V67.3172Z" fill="#A3A3BC"/>
<path d="M94.7288 67.3172L93.8086 66.789V64.233L94.7288 64.7442V67.3172Z" fill="#A3A3BC"/>
<path d="M94.7288 64.7442L93.8086 64.233L95.4445 63.2958L96.3476 63.824L94.7373 64.7442H94.7288Z" fill="#D4D4DF"/>
<path d="M91.8916 65.6814L93.5019 64.7442V62.1882L91.8916 63.1083V65.6814Z" fill="#A3A3BC"/>
<path d="M91.8914 65.6814L90.9883 65.1532V62.5972L91.8914 63.1084V65.6814Z" fill="#A3A3BC"/>
<path d="M91.8914 63.1083L90.9883 62.5971L92.5986 61.6599L93.5017 62.1882L91.8914 63.1083Z" fill="#D4D4DF"/>
<path d="M89.0791 64.0455L90.6894 63.1253V60.5522L89.0791 61.4895V64.0455Z" fill="#A3A3BC"/>
<path d="M89.0706 64.0456L88.1504 63.5344V60.9613L89.0706 61.4895V64.0456Z" fill="#A3A3BC"/>
<path d="M89.0706 61.4895L88.1504 60.9613L89.7862 60.024L90.6894 60.5523L89.0791 61.4895H89.0706Z" fill="#D4D4DF"/>
<path d="M86.2422 62.4182L87.8525 61.498V58.9249L86.2422 59.8621V62.4182Z" fill="#A3A3BC"/>
<path d="M86.242 62.4097L85.3389 61.8985V59.3254L86.242 59.8537V62.4097Z" fill="#A3A3BC"/>
<path d="M86.242 59.8622L85.3389 59.3339L86.9492 58.3967L87.8523 58.925L86.242 59.8622Z" fill="#D4D4DF"/>
<path d="M83.4219 60.7994L85.0322 59.8622V57.2891L83.4219 58.2263V60.7994Z" fill="#A3A3BC"/>
<path d="M83.4221 60.7994L82.502 60.2712V57.6981L83.4221 58.2264V60.7994Z" fill="#A3A3BC"/>
<path d="M83.4221 58.2263L82.502 57.6981L84.1378 56.7609L85.0409 57.2891L83.4306 58.2263H83.4221Z" fill="#D4D4DF"/>
<path d="M80.5938 59.1635L82.204 58.2263V55.6533L80.5938 56.5905V59.1635Z" fill="#A3A3BC"/>
<path d="M80.5936 59.1636L79.6904 58.6353V56.0623L80.5936 56.5905V59.1636Z" fill="#A3A3BC"/>
<path d="M80.5936 56.5905L79.6904 56.0622L81.3007 55.125L82.2039 55.6532L80.5936 56.5905Z" fill="#D4D4DF"/>
<path d="M77.7734 57.5277L79.3837 56.5905V54.0175L77.7734 54.9547V57.5277Z" fill="#A3A3BC"/>
<path d="M77.7737 57.5277L76.8535 56.9995V54.4264L77.7737 54.9546V57.5277Z" fill="#A3A3BC"/>
<path d="M77.7737 54.9546L76.8535 54.4263L78.4894 53.4891L79.3925 54.0174L77.7822 54.9546H77.7737Z" fill="#D4D4DF"/>
<path d="M74.9365 55.9003L76.5468 54.9631V52.3901L74.9365 53.3273V55.9003Z" fill="#A3A3BC"/>
<path d="M74.9363 55.9004L74.0332 55.3721V52.7991L74.9363 53.3273V55.9004Z" fill="#A3A3BC"/>
<path d="M74.9363 53.3273L74.0332 52.7991L75.6435 51.8619L76.5466 52.3901L74.9363 53.3273Z" fill="#D4D4DF"/>
<path d="M96.1514 68.8764V66.7719H75.618L73.8884 65.7751C71.9885 64.6845 68.9127 64.6845 67.0213 65.7751L65.2917 66.7719H44.6816V69.345C44.6816 70.0607 45.1502 70.7934 46.1045 71.3387L67.0128 83.4116C68.9127 84.5022 71.9885 84.5022 73.8799 83.4116L94.7882 71.3387C95.9554 70.6656 96.3985 69.7454 96.1429 68.8764H96.1514Z" fill="url(#paint3_linear_1515_2265)"/>
<path d="M73.8889 52.7223L94.7972 64.7953C96.6971 65.8859 96.6971 67.6666 94.7972 68.7742L73.8889 80.8471C71.9889 81.9377 68.9132 81.9377 67.0217 80.8471L46.1135 68.7742C44.2135 67.6836 44.2135 65.9029 46.1135 64.7953L67.0047 52.7223C68.9047 51.6318 71.9804 51.6318 73.8719 52.7223H73.8889Z" fill="url(#paint4_linear_1515_2265)"/>
<path d="M78.0037 82.713H75.584V84.3063H78.0037V82.713Z" fill="url(#paint5_linear_1515_2265)"/>
<path d="M75.5761 84.3148L73.9658 83.3776V80.8045L75.5761 81.7417V84.3148Z" fill="#BFBFD1"/>
<path d="M75.5752 84.3148L76.4783 83.7866V81.2135L75.5752 81.7417V84.3148Z" fill="#A3A3BC"/>
<path d="M75.5761 81.7417L76.4792 81.2135L74.869 80.2762L73.9658 80.8045L75.5761 81.7417Z" fill="#D4D4DF"/>
<path d="M73.9658 80.796L75.3887 84.1955L73.9658 83.369V80.796Z" fill="url(#paint6_linear_1515_2265)"/>
<path d="M80.8328 81.0857H78.4131V82.6789H80.8328V81.0857Z" fill="url(#paint7_linear_1515_2265)"/>
<path d="M78.4132 82.679L76.7773 81.7418V79.1687L78.4132 80.1059V82.679Z" fill="#BFBFD1"/>
<path d="M78.4131 82.6789L79.3162 82.1507V79.5776L78.4131 80.1059V82.6789Z" fill="#A3A3BC"/>
<path d="M78.4125 80.1059L79.3156 79.5776L77.7053 78.6404L76.7852 79.1687L78.421 80.1059H78.4125Z" fill="#D4D4DF"/>
<path d="M76.7773 79.1687L78.2002 82.5682L76.7773 81.7418V79.1687Z" fill="url(#paint8_linear_1515_2265)"/>
<path d="M83.6521 79.4498H81.2324V81.0431H83.6521V79.4498Z" fill="url(#paint9_linear_1515_2265)"/>
<path d="M81.2333 81.0431L79.623 80.1059V77.5328L81.2333 78.47V81.0431Z" fill="#BFBFD1"/>
<path d="M81.2324 81.0431L82.1355 80.5148V77.9418L81.2324 78.47V81.0431Z" fill="#A3A3BC"/>
<path d="M81.2333 78.47L82.1365 77.9418L80.5262 77.0216L79.623 77.5328L81.2333 78.47Z" fill="#D4D4DF"/>
<path d="M79.6143 77.5328L81.0371 80.9323L79.6143 80.1059V77.5328Z" fill="url(#paint10_linear_1515_2265)"/>
<path d="M86.4812 77.814H84.0615V79.4072H86.4812V77.814Z" fill="url(#paint11_linear_1515_2265)"/>
<path d="M84.0616 79.4072L82.4258 78.47V75.8969L84.0616 76.8341V79.4072Z" fill="#BFBFD1"/>
<path d="M84.0615 79.4072L84.9646 78.879V76.3059L84.0615 76.8342V79.4072Z" fill="#A3A3BC"/>
<path d="M84.0619 76.8342L84.965 76.3059L83.3547 75.3857L82.4346 75.8969L84.0704 76.8342H84.0619Z" fill="#D4D4DF"/>
<path d="M82.4346 75.8969L83.8574 79.2964L82.4346 78.47V75.8969Z" fill="url(#paint12_linear_1515_2265)"/>
<path d="M89.3006 76.1781H86.8809V77.7714H89.3006V76.1781Z" fill="url(#paint13_linear_1515_2265)"/>
<path d="M86.8818 77.78L85.2715 76.8428V74.2867L86.8818 75.2069V77.78Z" fill="#BFBFD1"/>
<path d="M86.8809 77.7799L87.784 77.2517V74.6786L86.8809 75.2068V77.7799Z" fill="#A3A3BC"/>
<path d="M86.8818 75.2068L87.7849 74.6786L86.1746 73.7584L85.2715 74.2867L86.8818 75.2068Z" fill="#D4D4DF"/>
<path d="M85.2627 74.2867L86.6855 77.6692L85.2627 76.8428V74.2867Z" fill="url(#paint14_linear_1515_2265)"/>
<path d="M92.1375 74.5422H89.7178V76.1355H92.1375V74.5422Z" fill="url(#paint15_linear_1515_2265)"/>
<path d="M89.7101 76.144L88.0742 75.2068V72.6508L89.7101 73.571V76.144Z" fill="#BFBFD1"/>
<path d="M89.7109 76.1441L90.6141 75.6158V73.0598L89.7109 73.571V76.1441Z" fill="#A3A3BC"/>
<path d="M89.7103 73.571L90.6135 73.0598L89.0032 72.1226L88.083 72.6508L89.7189 73.571H89.7103Z" fill="#D4D4DF"/>
<path d="M88.083 72.6508L89.5059 76.0333L88.083 75.2068V72.6508Z" fill="url(#paint16_linear_1515_2265)"/>
<path d="M94.95 72.9149H92.5303V74.5082H94.95V72.9149Z" fill="url(#paint17_linear_1515_2265)"/>
<path d="M92.5302 74.5082L90.9199 73.588V71.015L92.5302 71.9351V74.5082Z" fill="#BFBFD1"/>
<path d="M92.5303 74.5082L93.4334 73.9799V71.4239L92.5303 71.9351V74.5082Z" fill="#A3A3BC"/>
<path d="M92.5302 71.9351L93.4333 71.4239L91.8231 70.4867L90.9199 71.0149L92.5302 71.9351Z" fill="#D4D4DF"/>
<path d="M90.9111 71.015L92.334 74.3974L90.9111 73.588V71.015Z" fill="url(#paint18_linear_1515_2265)"/>
<path d="M97.7879 71.2791H95.3682V72.8723H97.7879V71.2791Z" fill="url(#paint19_linear_1515_2265)"/>
<path d="M95.3681 72.8724L93.7578 71.9522V69.3792L95.3681 70.3164V72.8724Z" fill="#BFBFD1"/>
<path d="M95.3682 72.8724L96.2713 72.3611V69.7881L95.3682 70.3163V72.8724Z" fill="#A3A3BC"/>
<path d="M95.3681 70.3248L96.2712 69.7966L94.6609 68.8594L93.7578 69.3876L95.3681 70.3248Z" fill="#D4D4DF"/>
<path d="M93.749 69.3792L95.1548 72.7616L93.749 71.9522V69.3792Z" fill="url(#paint20_linear_1515_2265)"/>
<path d="M47.9451 71.2791H45.5254V72.8723H47.9451V71.2791Z" fill="url(#paint21_linear_1515_2265)"/>
<path d="M50.781 72.9149H48.3613V74.5082H50.781V72.9149Z" fill="url(#paint22_linear_1515_2265)"/>
<path d="M53.5935 74.5422H51.1738V76.1355H53.5935V74.5422Z" fill="url(#paint23_linear_1515_2265)"/>
<path d="M56.4314 76.1781H54.0117V77.7714H56.4314V76.1781Z" fill="url(#paint24_linear_1515_2265)"/>
<path d="M59.2508 77.814H56.8311V79.4072H59.2508V77.814Z" fill="url(#paint25_linear_1515_2265)"/>
<path d="M62.0799 79.4498H59.6602V81.0431H62.0799V79.4498Z" fill="url(#paint26_linear_1515_2265)"/>
<path d="M64.9002 81.0857H62.4805V82.6789H64.9002V81.0857Z" fill="url(#paint27_linear_1515_2265)"/>
<path d="M67.7283 82.713H65.3086V84.3063H67.7283V82.713Z" fill="url(#paint28_linear_1515_2265)"/>
<path d="M47.1611 69.3792L48.5329 72.7446L47.1611 71.9522V69.3792Z" fill="url(#paint29_linear_1515_2265)"/>
<path d="M49.9727 71.015L51.3614 74.3804L49.9727 73.588V71.015Z" fill="url(#paint30_linear_1515_2265)"/>
<path d="M52.8105 72.6508L54.1823 76.0162L52.8105 75.2068V72.6508Z" fill="url(#paint31_linear_1515_2265)"/>
<path d="M55.6221 74.2867L57.0108 77.6522L55.6221 76.8428V74.2867Z" fill="url(#paint32_linear_1515_2265)"/>
<path d="M58.459 75.8969L59.8307 79.2794L58.459 78.47V75.8969Z" fill="url(#paint33_linear_1515_2265)"/>
<path d="M61.2783 77.5328L62.6671 80.9153L61.2783 80.1059V77.5328Z" fill="url(#paint34_linear_1515_2265)"/>
<path d="M64.1074 79.1687L65.4792 82.5341L64.1074 81.7418V79.1687Z" fill="url(#paint35_linear_1515_2265)"/>
<path d="M66.9268 80.796L68.3155 84.1614L66.9268 83.369V80.796Z" fill="url(#paint36_linear_1515_2265)"/>
<path d="M65.3086 84.3148L66.9189 83.3776V80.8045L65.3086 81.7417V84.3148Z" fill="#A3A3BC"/>
<path d="M65.3084 84.3148L64.4053 83.7866V81.2135L65.3084 81.7417V84.3148Z" fill="#BFBFD1"/>
<path d="M65.3084 81.7417L64.4053 81.2135L66.0156 80.2762L66.9187 80.8045L65.3084 81.7417Z" fill="#D4D4DF"/>
<path d="M62.4805 82.679L64.1163 81.7418V79.1687L62.4805 80.1059V82.679Z" fill="#A3A3BC"/>
<path d="M62.4803 82.6789L61.5771 82.1507V79.5776L62.4803 80.1059V82.6789Z" fill="#BFBFD1"/>
<path d="M62.4803 80.1059L61.5771 79.5776L63.1874 78.6404L64.1076 79.1687L62.4718 80.1059H62.4803Z" fill="#D4D4DF"/>
<path d="M59.6602 81.0431L61.2704 80.1059V77.5328L59.6602 78.47V81.0431Z" fill="#A3A3BC"/>
<path d="M59.66 81.0431L58.7568 80.5148V77.9418L59.66 78.47V81.0431Z" fill="#BFBFD1"/>
<path d="M59.66 78.47L58.7568 77.9418L60.3671 77.0216L61.2703 77.5328L59.66 78.47Z" fill="#D4D4DF"/>
<path d="M56.8223 79.4072L58.4581 78.47V75.8969L56.8223 76.8341V79.4072Z" fill="#A3A3BC"/>
<path d="M56.8231 79.4072L55.9199 78.879V76.3059L56.8231 76.8342V79.4072Z" fill="#BFBFD1"/>
<path d="M56.8231 76.8342L55.9199 76.3059L57.5302 75.3857L58.4504 75.8969L56.8145 76.8342H56.8231Z" fill="#D4D4DF"/>
<path d="M54.0117 77.78L55.622 76.8428V74.2867L54.0117 75.2069V77.78Z" fill="#A3A3BC"/>
<path d="M54.0115 77.7799L53.1084 77.2517V74.6786L54.0115 75.2068V77.7799Z" fill="#BFBFD1"/>
<path d="M54.0115 75.2068L53.1084 74.6786L54.7187 73.7584L55.6218 74.2867L54.0115 75.2068Z" fill="#D4D4DF"/>
<path d="M51.1738 76.144L52.8097 75.2068V72.6508L51.1738 73.571V76.144Z" fill="#A3A3BC"/>
<path d="M51.1736 76.1441L50.2705 75.6158V73.0598L51.1736 73.571V76.1441Z" fill="#BFBFD1"/>
<path d="M51.1736 73.571L50.2705 73.0598L51.8808 72.1226L52.801 72.6508L51.1651 73.571H51.1736Z" fill="#D4D4DF"/>
<path d="M48.3613 74.5082L49.9716 73.588V71.015L48.3613 71.9351V74.5082Z" fill="#A3A3BC"/>
<path d="M48.3621 74.5082L47.459 73.9799V71.4239L48.3621 71.9351V74.5082Z" fill="#BFBFD1"/>
<path d="M48.3621 71.9351L47.459 71.4239L49.0693 70.4867L49.9724 71.0149L48.3621 71.9351Z" fill="#D4D4DF"/>
<path d="M45.5254 72.8724L47.1612 71.9522V69.3792L45.5254 70.3164V72.8724Z" fill="#A3A3BC"/>
<path d="M45.5252 72.8724L44.6221 72.3611V69.7881L45.5252 70.3163V72.8724Z" fill="#BFBFD1"/>
<path d="M45.5252 70.3248L44.6221 69.7966L46.2324 68.8594L47.1525 69.3876L45.5167 70.3248H45.5252Z" fill="#D4D4DF"/>
<path d="M67.3034 58.678L65.5908 57.6981L67.3034 56.7013L69.0074 57.6981L67.3034 58.678Z" fill="#225DA9"/>
<path d="M70.455 60.5013L68.751 59.5214L70.455 58.5246L72.142 59.5214L70.455 60.5013Z" fill="#225DA9"/>
<path d="M73.5907 62.316L71.8867 61.3192L73.5907 60.3394L75.3033 61.3192L73.5907 62.316Z" fill="#3B6FB2"/>
<path d="M76.7431 64.1223L75.0391 63.1425L76.7431 62.1627L78.4471 63.1425L76.7431 64.1223Z" fill="#3B6FB2"/>
<path d="M79.8786 65.9456L78.166 64.9658L79.8786 63.9689L81.5826 64.9658L79.8786 65.9456Z" fill="#3B6FB2"/>
<path d="M83.0312 67.7688L81.3271 66.789L83.0312 65.7922L84.7352 66.789L83.0312 67.7688Z" fill="#8AAAD1"/>
<path d="M86.1665 69.5921L84.4795 68.5953L86.1665 67.6155L87.8705 68.5953L86.1665 69.5921Z" fill="#8AAAD1"/>
<path d="M64.1508 60.5013L62.4639 59.5214L64.1508 58.5246L65.8634 59.5214L64.1508 60.5013Z" fill="#3B6FB2"/>
<path d="M67.3034 62.316L65.5908 61.3192L67.3034 60.3394L69.0074 61.3192L67.3034 62.316Z" fill="#3B6FB2"/>
<path d="M70.455 64.1223L68.751 63.1425L70.455 62.1627L72.142 63.1425L70.455 64.1223Z" fill="#3B6FB2"/>
<path d="M73.5907 65.9456L71.8867 64.9658L73.5907 63.9689L75.3033 64.9658L73.5907 65.9456Z" fill="#3B6FB2"/>
<path d="M76.7431 67.7688L75.0391 66.789L76.7431 65.7922L78.4471 66.789L76.7431 67.7688Z" fill="#3B6FB2"/>
<path d="M79.8786 69.5921L78.166 68.5953L79.8786 67.6155L81.5826 68.5953L79.8786 69.5921Z" fill="#8AAAD1"/>
<path d="M83.0312 71.3899L81.3271 70.4101L83.0312 69.4303L84.7352 70.4101L83.0312 71.3899Z" fill="#8AAAD1"/>
<path d="M61.0146 62.316L59.3105 61.3192L61.0146 60.3394L62.7271 61.3192L61.0146 62.316Z" fill="#3B6FB2"/>
<path d="M64.1508 64.1223L62.4639 63.1425L64.1508 62.1627L65.8634 63.1425L64.1508 64.1223Z" fill="#3B6FB2"/>
<path d="M67.3034 65.9456L65.5908 64.9658L67.3034 63.9689L69.0074 64.9658L67.3034 65.9456Z" fill="#A3A3BC"/>
<path d="M70.455 67.7688L68.751 66.789L70.455 65.7922L72.142 66.789L70.455 67.7688Z" fill="#A3A3BC"/>
<path d="M73.5907 69.5921L71.8867 68.5953L73.5907 67.6155L75.3033 68.5953L73.5907 69.5921Z" fill="#A3A3BC"/>
<path d="M76.7431 71.3899L75.0391 70.4101L76.7431 69.4303L78.4471 70.4101L76.7431 71.3899Z" fill="#BFBFD1"/>
<path d="M79.8786 73.2132L78.166 72.2334L79.8786 71.2366L81.5826 72.2334L79.8786 73.2132Z" fill="#BFBFD1"/>
<path d="M57.8622 64.1223L56.1582 63.1425L57.8622 62.1627L59.5748 63.1425L57.8622 64.1223Z" fill="#A3A3BC"/>
<path d="M61.0146 65.9456L59.3105 64.9658L61.0146 63.9689L62.7271 64.9658L61.0146 65.9456Z" fill="#A3A3BC"/>
<path d="M64.1508 67.7688L62.4639 66.789L64.1508 65.7922L65.8634 66.789L64.1508 67.7688Z" fill="#A3A3BC"/>
<path d="M67.3034 69.5921L65.5908 68.5953L67.3034 67.6155L69.0074 68.5953L67.3034 69.5921Z" fill="#A3A3BC"/>
<path d="M70.455 71.3899L68.751 70.4101L70.455 69.4303L72.142 70.4101L70.455 71.3899Z" fill="#3B6FB2"/>
<path d="M73.5907 73.2132L71.8867 72.2334L73.5907 71.2366L75.3033 72.2334L73.5907 73.2132Z" fill="#8AAAD1"/>
<path d="M76.7431 75.0365L75.0391 74.0567L76.7431 73.0598L78.4471 74.0567L76.7431 75.0365Z" fill="#8AAAD1"/>
<path d="M54.7275 65.9456L53.0234 64.9658L54.7275 63.9689L56.4144 64.9658L54.7275 65.9456Z" fill="#3B6FB2"/>
<path d="M57.8622 67.7688L56.1582 66.789L57.8622 65.7922L59.5748 66.789L57.8622 67.7688Z" fill="#3B6FB2"/>
<path d="M61.0146 69.5921L59.3105 68.5953L61.0146 67.6155L62.7271 68.5953L61.0146 69.5921Z" fill="#3B6FB2"/>
<path d="M64.1508 71.3899L62.4639 70.4101L64.1508 69.4303L65.8634 70.4101L64.1508 71.3899Z" fill="#3B6FB2"/>
<path d="M67.3034 73.2132L65.5908 72.2334L67.3034 71.2366L69.0074 72.2334L67.3034 73.2132Z" fill="#3B6FB2"/>
<path d="M70.455 75.0365L68.751 74.0567L70.455 73.0598L72.142 74.0567L70.455 75.0365Z" fill="#225DA9"/>
<path d="M73.5907 76.8598L71.8867 75.863L73.5907 74.8832L75.3033 75.863L73.5907 76.8598Z" fill="#225DA9"/>
<path d="M30.9219 84.4256L20.0332 78.1378V76.2378L30.9219 82.5256V84.4256Z" fill="#7699C9"/>
<path d="M34.6962 86.6067L32.7451 85.4821V83.5821L34.6962 84.7067V86.6067Z" fill="#7699C9"/>
<path d="M30.9219 87.3906L20.0332 81.1028V79.1858L30.9219 85.4736V87.3906Z" fill="#7699C9"/>
<path d="M34.6962 89.5717L32.7451 88.43V86.53L34.6962 87.6547V89.5717Z" fill="#7699C9"/>
<path d="M30.9219 90.3385L20.0332 84.0507V82.1507L30.9219 88.4385V90.3385Z" fill="#7699C9"/>
<path d="M34.6962 92.5196L32.7451 91.395V89.478L34.6962 90.6197V92.5196Z" fill="#7699C9"/>
<path d="M98.7076 90.134C97.3359 89.3417 95.1037 89.3417 93.7319 90.134C92.3602 90.9264 92.3602 92.2214 93.7319 93.0053C95.1037 93.7976 97.3359 93.7976 98.7076 93.0053C100.079 92.2129 100.079 90.9179 98.7076 90.134ZM96.2113 84.8005V86.4874C98.5543 86.4874 100.77 87.0157 102.422 87.9699C104.075 88.9242 104.995 90.2022 104.995 91.5569H107.926C107.926 89.7506 106.708 88.0466 104.493 86.7686C102.278 85.4906 99.3296 84.7749 96.2113 84.8005ZM96.2113 81.8355V83.5224C99.926 83.5224 103.419 84.3659 106.052 85.874C108.676 87.3991 110.125 89.4013 110.125 91.5654H113.055C113.055 88.9753 111.309 86.53 108.122 84.6897C104.953 82.8494 100.71 81.8355 96.2027 81.8355H96.2198H96.2113ZM111.752 82.5852C107.603 80.1826 102.082 78.8705 96.2113 78.8705V80.5575C101.298 80.5575 106.086 81.6991 109.69 83.7866C113.294 85.874 115.262 88.6345 115.262 91.5654H118.193C118.193 88.1659 115.901 84.9964 111.752 82.5852Z" fill="#D5E0EE"/>
<path d="M43.421 101.287L42.373 100.665V99.1057L43.421 99.7106V101.287Z" fill="#C2D2E7"/>
<path d="M47.8001 103.809L46.7266 103.187V101.628L47.8001 102.25V103.809Z" fill="#C2D2E7"/>
<path d="M56.5247 108.836L55.4512 108.231V106.671L56.5247 107.276V108.836Z" fill="#C2D2E7"/>
<path d="M60.878 111.375L59.8301 110.753V109.193L60.878 109.798V111.375Z" fill="#C2D2E7"/>
<path d="M65.2571 113.888L64.1836 113.266V111.707L65.2571 112.312V113.888Z" fill="#C2D2E7"/>
<path d="M69.6114 116.41L68.5635 115.805V114.229L69.6114 114.851V116.41Z" fill="#C2D2E7"/>
<path d="M73.965 118.923L72.917 118.318V116.742L73.965 117.364V118.923Z" fill="#C2D2E7"/>
<path d="M78.3361 121.462L77.2881 120.84V119.281L78.3361 119.886V121.462Z" fill="#C2D2E7"/>
<path d="M124.046 96.899L130.726 100.75V93.0309L124.046 96.899Z" fill="#3B6FB2"/>
<path d="M137.807 97.1205L130.727 93.0223V100.742L131.118 100.963L137.798 97.112L137.807 97.1205Z" fill="#4C7CB8"/>
<path d="M129.038 99.7702L130.086 100.392V95.1523L129.038 95.7573V99.7787V99.7702Z" fill="#A3A3BC"/>
<path d="M127.088 98.637L128.136 99.259V96.277L127.088 96.8819V98.6456V98.637Z" fill="#A3A3BC"/>
<path d="M126.184 98.1344V97.4017L125.562 97.7595L126.184 98.1344Z" fill="#A3A3BC"/>
<path d="M109.784 103.809L110.909 104.482V108.708L114.325 110.676L115.825 109.815V100.315L109.784 103.809Z" fill="#3B6FB2"/>
<path d="M107.245 106.586L110.909 108.708V104.482L107.245 106.586Z" fill="#608BC0"/>
<path d="M120.63 98.8671V107.038L127.693 102.94L120.63 98.8671Z" fill="#608BC0"/>
<path d="M116.975 100.972V109.159L120.638 107.038V98.8671L116.975 100.972Z" fill="#3B6FB2"/>
<path d="M115.824 100.315V109.815L116.966 109.159V100.972L115.824 100.315Z" fill="#608BC0"/>
<path d="M114.214 110.608L114.325 110.684L115.245 110.139V102.837L114.214 103.442V110.616V110.608Z" fill="#A3A3BC"/>
<path d="M112.331 109.517L113.362 110.122V103.928L112.331 104.533V109.526V109.517Z" fill="#A3A3BC"/>
<path d="M110.908 108.708L111.488 109.023V104.984L110.908 105.325V108.708Z" fill="#A3A3BC"/>
</g>
<defs>
<linearGradient id="paint0_linear_1515_2265" x1="31.7715" y1="100.243" x2="174.01" y2="100.243" gradientUnits="userSpaceOnUse">
<stop stop-color="#DCE5EF"/>
<stop offset="0.52" stop-color="#F0F4F8"/>
<stop offset="1" stop-color="white"/>
</linearGradient>
<linearGradient id="paint1_linear_1515_2265" x1="11.2661" y1="100.486" x2="153.517" y2="100.486" gradientUnits="userSpaceOnUse">
<stop offset="0.6" stop-color="#D5E0EE"/>
<stop offset="1" stop-color="#C2D2E7"/>
</linearGradient>
<linearGradient id="paint2_linear_1515_2265" x1="70.4385" y1="69.5665" x2="99.4238" y2="69.5665" gradientUnits="userSpaceOnUse">
<stop stop-color="#ECF1F8"/>
<stop offset="0.83" stop-color="#F3F6FA"/>
<stop offset="1" stop-color="#9F93DD"/>
</linearGradient>
<linearGradient id="paint3_linear_1515_2265" x1="44.6816" y1="74.5934" x2="96.2281" y2="74.5934" gradientUnits="userSpaceOnUse">
<stop offset="0.42" stop-color="#3B6FB2"/>
<stop offset="0.6" stop-color="#225DA9"/>
</linearGradient>
<linearGradient id="paint4_linear_1515_2265" x1="44.6821" y1="66.789" x2="96.22" y2="66.789" gradientUnits="userSpaceOnUse">
<stop stop-color="#608BC0"/>
<stop offset="1" stop-color="#3B6FB2"/>
</linearGradient>
<linearGradient id="paint5_linear_1515_2265" x1="75.5755" y1="83.5139" x2="78.0037" y2="83.5139" gradientUnits="userSpaceOnUse">
<stop stop-color="#E1E8F3"/>
<stop offset="0.36" stop-color="#E8EDF6"/>
<stop offset="0.96" stop-color="#EBE7F7"/>
<stop offset="1" stop-color="white"/>
</linearGradient>
<linearGradient id="paint6_linear_1515_2265" x1="73.9658" y1="82.5" x2="75.3887" y2="82.5" gradientUnits="userSpaceOnUse">
<stop stop-color="#ECF1F8"/>
<stop offset="0.53" stop-color="#AFA4E2"/>
<stop offset="1" stop-color="white"/>
</linearGradient>
<linearGradient id="paint7_linear_1515_2265" x1="78.4131" y1="81.8781" x2="80.8157" y2="81.8781" gradientUnits="userSpaceOnUse">
<stop stop-color="#E1E8F3"/>
<stop offset="0.36" stop-color="#E8EDF6"/>
<stop offset="0.96" stop-color="#EBE7F7"/>
<stop offset="1" stop-color="white"/>
</linearGradient>
<linearGradient id="paint8_linear_1515_2265" x1="76.7773" y1="80.8642" x2="78.2087" y2="80.8642" gradientUnits="userSpaceOnUse">
<stop stop-color="#ECF1F8"/>
<stop offset="0.53" stop-color="#AFA4E2"/>
<stop offset="1" stop-color="white"/>
</linearGradient>
<linearGradient id="paint9_linear_1515_2265" x1="81.2324" y1="80.2422" x2="83.6521" y2="80.2422" gradientUnits="userSpaceOnUse">
<stop stop-color="#E1E8F3"/>
<stop offset="0.36" stop-color="#E8EDF6"/>
<stop offset="0.96" stop-color="#EBE7F7"/>
<stop offset="1" stop-color="white"/>
</linearGradient>
<linearGradient id="paint10_linear_1515_2265" x1="79.6143" y1="79.2283" x2="81.0456" y2="79.2283" gradientUnits="userSpaceOnUse">
<stop stop-color="#ECF1F8"/>
<stop offset="0.53" stop-color="#AFA4E2"/>
<stop offset="1" stop-color="white"/>
</linearGradient>
<linearGradient id="paint11_linear_1515_2265" x1="84.0615" y1="78.6063" x2="86.4642" y2="78.6063" gradientUnits="userSpaceOnUse">
<stop stop-color="#E1E8F3"/>
<stop offset="0.36" stop-color="#E8EDF6"/>
<stop offset="0.96" stop-color="#EBE7F7"/>
<stop offset="1" stop-color="white"/>
</linearGradient>
<linearGradient id="paint12_linear_1515_2265" x1="82.4346" y1="77.5924" x2="83.8574" y2="77.5924" gradientUnits="userSpaceOnUse">
<stop stop-color="#ECF1F8"/>
<stop offset="0.53" stop-color="#AFA4E2"/>
<stop offset="1" stop-color="white"/>
</linearGradient>
<linearGradient id="paint13_linear_1515_2265" x1="86.8809" y1="76.979" x2="89.3006" y2="76.979" gradientUnits="userSpaceOnUse">
<stop stop-color="#E1E8F3"/>
<stop offset="0.36" stop-color="#E8EDF6"/>
<stop offset="0.96" stop-color="#EBE7F7"/>
<stop offset="1" stop-color="white"/>
</linearGradient>
<linearGradient id="paint14_linear_1515_2265" x1="85.2627" y1="75.9737" x2="86.6941" y2="75.9737" gradientUnits="userSpaceOnUse">
<stop stop-color="#ECF1F8"/>
<stop offset="0.53" stop-color="#AFA4E2"/>
<stop offset="1" stop-color="white"/>
</linearGradient>
<linearGradient id="paint15_linear_1515_2265" x1="89.7093" y1="75.3431" x2="92.1119" y2="75.3431" gradientUnits="userSpaceOnUse">
<stop stop-color="#E1E8F3"/>
<stop offset="0.36" stop-color="#E8EDF6"/>
<stop offset="0.96" stop-color="#EBE7F7"/>
<stop offset="1" stop-color="white"/>
</linearGradient>
<linearGradient id="paint16_linear_1515_2265" x1="88.083" y1="74.3378" x2="89.5059" y2="74.3378" gradientUnits="userSpaceOnUse">
<stop stop-color="#ECF1F8"/>
<stop offset="0.53" stop-color="#AFA4E2"/>
<stop offset="1" stop-color="white"/>
</linearGradient>
<linearGradient id="paint17_linear_1515_2265" x1="92.5303" y1="73.7073" x2="94.95" y2="73.7073" gradientUnits="userSpaceOnUse">
<stop stop-color="#E1E8F3"/>
<stop offset="0.36" stop-color="#E8EDF6"/>
<stop offset="0.96" stop-color="#EBE7F7"/>
<stop offset="1" stop-color="white"/>
</linearGradient>
<linearGradient id="paint18_linear_1515_2265" x1="90.9111" y1="72.7019" x2="92.3425" y2="72.7019" gradientUnits="userSpaceOnUse">
<stop stop-color="#ECF1F8"/>
<stop offset="0.53" stop-color="#AFA4E2"/>
<stop offset="1" stop-color="white"/>
</linearGradient>
<linearGradient id="paint19_linear_1515_2265" x1="95.3682" y1="72.0714" x2="97.7708" y2="72.0714" gradientUnits="userSpaceOnUse">
<stop stop-color="#E1E8F3"/>
<stop offset="0.36" stop-color="#E8EDF6"/>
<stop offset="0.96" stop-color="#EBE7F7"/>
<stop offset="1" stop-color="white"/>
</linearGradient>
<linearGradient id="paint20_linear_1515_2265" x1="93.749" y1="71.0661" x2="95.1548" y2="71.0661" gradientUnits="userSpaceOnUse">
<stop stop-color="#ECF1F8"/>
<stop offset="0.53" stop-color="#AFA4E2"/>
<stop offset="1" stop-color="white"/>
</linearGradient>
<linearGradient id="paint21_linear_1515_2265" x1="45.5254" y1="72.0714" x2="47.9451" y2="72.0714" gradientUnits="userSpaceOnUse">
<stop stop-color="#E1E8F3"/>
<stop offset="0.36" stop-color="#E8EDF6"/>
<stop offset="0.96" stop-color="#EBE7F7"/>
<stop offset="1" stop-color="white"/>
</linearGradient>
<linearGradient id="paint22_linear_1515_2265" x1="48.3443" y1="73.7073" x2="50.764" y2="73.7073" gradientUnits="userSpaceOnUse">
<stop stop-color="#E1E8F3"/>
<stop offset="0.36" stop-color="#E8EDF6"/>
<stop offset="0.96" stop-color="#EBE7F7"/>
<stop offset="1" stop-color="white"/>
</linearGradient>
<linearGradient id="paint23_linear_1515_2265" x1="51.1738" y1="75.3431" x2="53.5935" y2="75.3431" gradientUnits="userSpaceOnUse">
<stop stop-color="#E1E8F3"/>
<stop offset="0.36" stop-color="#E8EDF6"/>
<stop offset="0.96" stop-color="#EBE7F7"/>
<stop offset="1" stop-color="white"/>
</linearGradient>
<linearGradient id="paint24_linear_1515_2265" x1="53.9947" y1="76.979" x2="56.4144" y2="76.979" gradientUnits="userSpaceOnUse">
<stop stop-color="#E1E8F3"/>
<stop offset="0.36" stop-color="#E8EDF6"/>
<stop offset="0.96" stop-color="#EBE7F7"/>
<stop offset="1" stop-color="white"/>
</linearGradient>
<linearGradient id="paint25_linear_1515_2265" x1="56.8225" y1="78.6063" x2="59.2508" y2="78.6063" gradientUnits="userSpaceOnUse">
<stop stop-color="#E1E8F3"/>
<stop offset="0.36" stop-color="#E8EDF6"/>
<stop offset="0.96" stop-color="#EBE7F7"/>
<stop offset="1" stop-color="white"/>
</linearGradient>
<linearGradient id="paint26_linear_1515_2265" x1="59.6431" y1="80.2422" x2="62.0628" y2="80.2422" gradientUnits="userSpaceOnUse">
<stop stop-color="#E1E8F3"/>
<stop offset="0.36" stop-color="#E8EDF6"/>
<stop offset="0.96" stop-color="#EBE7F7"/>
<stop offset="1" stop-color="white"/>
</linearGradient>
<linearGradient id="paint27_linear_1515_2265" x1="62.4805" y1="81.8781" x2="64.9002" y2="81.8781" gradientUnits="userSpaceOnUse">
<stop stop-color="#E1E8F3"/>
<stop offset="0.36" stop-color="#E8EDF6"/>
<stop offset="0.96" stop-color="#EBE7F7"/>
<stop offset="1" stop-color="white"/>
</linearGradient>
<linearGradient id="paint28_linear_1515_2265" x1="65.2916" y1="456.114" x2="67.7113" y2="456.114" gradientUnits="userSpaceOnUse">
<stop stop-color="#E1E8F3"/>
<stop offset="0.36" stop-color="#E8EDF6"/>
<stop offset="0.96" stop-color="#EBE7F7"/>
<stop offset="1" stop-color="white"/>
</linearGradient>
<linearGradient id="paint29_linear_1515_2265" x1="47.1611" y1="71.0576" x2="48.5329" y2="71.0576" gradientUnits="userSpaceOnUse">
<stop stop-color="#E1E8F3"/>
<stop offset="0.24" stop-color="#ECF1F8"/>
<stop offset="0.62" stop-color="#C6BFEB"/>
<stop offset="0.91" stop-color="white"/>
</linearGradient>
<linearGradient id="paint30_linear_1515_2265" x1="49.9727" y1="72.6934" x2="51.3614" y2="72.6934" gradientUnits="userSpaceOnUse">
<stop stop-color="#E1E8F3"/>
<stop offset="0.24" stop-color="#ECF1F8"/>
<stop offset="0.62" stop-color="#C6BFEB"/>
<stop offset="0.91" stop-color="white"/>
</linearGradient>
<linearGradient id="paint31_linear_1515_2265" x1="52.8105" y1="74.3293" x2="54.1823" y2="74.3293" gradientUnits="userSpaceOnUse">
<stop stop-color="#E1E8F3"/>
<stop offset="0.24" stop-color="#ECF1F8"/>
<stop offset="0.62" stop-color="#C6BFEB"/>
<stop offset="0.91" stop-color="white"/>
</linearGradient>
<linearGradient id="paint32_linear_1515_2265" x1="55.6221" y1="75.9652" x2="57.0108" y2="75.9652" gradientUnits="userSpaceOnUse">
<stop stop-color="#E1E8F3"/>
<stop offset="0.24" stop-color="#ECF1F8"/>
<stop offset="0.62" stop-color="#C6BFEB"/>
<stop offset="0.91" stop-color="white"/>
</linearGradient>
<linearGradient id="paint33_linear_1515_2265" x1="58.459" y1="77.5839" x2="59.8307" y2="77.5839" gradientUnits="userSpaceOnUse">
<stop stop-color="#E1E8F3"/>
<stop offset="0.24" stop-color="#ECF1F8"/>
<stop offset="0.62" stop-color="#C6BFEB"/>
<stop offset="0.91" stop-color="white"/>
</linearGradient>
<linearGradient id="paint34_linear_1515_2265" x1="61.2783" y1="79.2198" x2="62.6671" y2="79.2198" gradientUnits="userSpaceOnUse">
<stop stop-color="#E1E8F3"/>
<stop offset="0.24" stop-color="#ECF1F8"/>
<stop offset="0.62" stop-color="#C6BFEB"/>
<stop offset="0.91" stop-color="white"/>
</linearGradient>
<linearGradient id="paint35_linear_1515_2265" x1="64.1074" y1="80.8472" x2="65.4792" y2="80.8472" gradientUnits="userSpaceOnUse">
<stop stop-color="#E1E8F3"/>
<stop offset="0.24" stop-color="#ECF1F8"/>
<stop offset="0.62" stop-color="#C6BFEB"/>
<stop offset="0.91" stop-color="white"/>
</linearGradient>
<linearGradient id="paint36_linear_1515_2265" x1="66.9268" y1="82.4744" x2="68.3155" y2="82.4744" gradientUnits="userSpaceOnUse">
<stop stop-color="#E1E8F3"/>
<stop offset="0.24" stop-color="#ECF1F8"/>
<stop offset="0.62" stop-color="#C6BFEB"/>
<stop offset="0.91" stop-color="white"/>
</linearGradient>
</defs>
</svg>
