<svg width="174" height="183" viewBox="0 0 174 183" fill="none" xmlns="http://www.w3.org/2000/svg">
<circle cx="87" cy="96" r="87" fill="#F4F9DD"/>
<mask id="mask0_1515_2472" style="mask-type:luminance" maskUnits="userSpaceOnUse" x="30" y="0" width="140" height="163">
<path d="M170 0H30V163H170V0Z" fill="white"/>
</mask>
<g mask="url(#mask0_1515_2472)">
<path d="M146.45 83.71C148.25 82.69 148.25 81 146.45 79.95L97.4495 51.63C95.6495 50.61 92.7295 50.61 90.9595 51.63L68.6195 64.54C66.8195 65.56 66.8195 67.25 68.6195 68.3L117.62 96.62C119.42 97.64 122.34 97.64 124.11 96.62L146.45 83.71Z" fill="#ACA0E1"/>
<path d="M96.2199 59.64L94.1299 58.43L96.2199 57.22L98.3099 58.43L96.2199 59.64Z" fill="#D8E3EF"/>
<path d="M99.7297 61.68L97.6396 60.47L99.7297 59.26L101.82 60.47L99.7297 61.68Z" fill="#D8E3EF"/>
<path d="M103.27 63.72L101.18 62.51L103.27 61.3L105.36 62.51L103.27 63.72Z" fill="#D8E3EF"/>
<path d="M106.81 65.76L104.69 64.55L106.81 63.34L108.9 64.55L106.81 65.76Z" fill="#D8E3EF"/>
<path d="M110.33 67.8L108.24 66.59L110.33 65.38L112.42 66.59L110.33 67.8Z" fill="#D8E3EF"/>
<path d="M113.87 69.84L111.78 68.63L113.87 67.42L115.96 68.63L113.87 69.84Z" fill="#D8E3EF"/>
<path d="M117.38 71.88L115.29 70.67L117.38 69.46L119.47 70.67L117.38 71.88Z" fill="#D8E3EF"/>
<path d="M120.92 73.92L118.83 72.71L120.92 71.5L123.01 72.71L120.92 73.92Z" fill="#D8E3EF"/>
<path d="M124.46 75.96L122.34 74.75L124.46 73.54L126.55 74.75L124.46 75.96Z" fill="#D8E3EF"/>
<path d="M127.97 78L125.88 76.79L127.97 75.58L130.06 76.79L127.97 78Z" fill="#D8E3EF"/>
<path d="M131.51 80.04L129.42 78.83L131.51 77.62L133.6 78.83L131.51 80.04Z" fill="#D8E3EF"/>
<path d="M135.03 82.08L132.94 80.87L135.03 79.66L137.12 80.87L135.03 82.08Z" fill="#D8E3EF"/>
<path d="M94.3698 62.64L90.5898 60.47L92.6798 59.26L96.4598 61.43L94.3698 62.64Z" fill="#D8E3EF"/>
<path d="M92.41 65.44L87.21 62.43L89.3 61.22L94.5 64.23L92.41 65.44Z" fill="#D8E3EF"/>
<path d="M90.3199 68.31L83.6699 64.47L85.7599 63.26L92.4099 67.1L90.3199 68.31Z" fill="#D8E3EF"/>
<path d="M83.1804 69.11L79.4004 66.94L82.2404 65.3L85.9904 67.47L83.1704 69.11H83.1804Z" fill="#D8E3EF"/>
<path d="M88.3604 72.12L84.6104 69.95L87.4504 68.31L91.2004 70.48L88.3604 72.12Z" fill="#D8E3EF"/>
<path d="M93.5596 75.13L89.8096 72.96L92.6496 71.32L96.3996 73.49L93.5596 75.13Z" fill="#D8E3EF"/>
<path d="M111.51 85.49L107.76 83.32L110.58 81.68L114.36 83.85L111.52 85.49H111.51Z" fill="#D8E3EF"/>
<path d="M120.33 90.59L112.93 86.32L115.77 84.68L123.17 88.95L120.33 90.59Z" fill="#D8E3EF"/>
<path d="M106.3 82.48L95.0098 75.96L97.8498 74.32L109.14 80.84L106.3 82.48Z" fill="#D8E3EF"/>
<path d="M98.87 65.25L95.79 63.48L97.88 62.27L100.96 64.04L98.87 65.25Z" fill="#D8E3EF"/>
<path d="M96.9198 68.04L93.8398 66.27L95.9298 65.06L99.0098 66.83L96.9198 68.04Z" fill="#D8E3EF"/>
<path d="M94.9296 70.86L91.8496 69.09L93.9396 67.86L97.0196 69.66L94.9296 70.87V70.86Z" fill="#D8E3EF"/>
<path d="M99.4404 73.46L96.3604 71.69L98.4503 70.48L101.53 72.25L99.4404 73.46Z" fill="#D8E3EF"/>
<path d="M103.97 76.06L100.89 74.29L102.98 73.08L106.06 74.85L103.97 76.06Z" fill="#D8E3EF"/>
<path d="M108.48 78.7L105.4 76.9L107.49 75.69L110.57 77.49L108.48 78.7Z" fill="#D8E3EF"/>
<path d="M112.98 81.3L109.9 79.53L112.02 78.3L115.1 80.1L112.98 81.31V81.3Z" fill="#D8E3EF"/>
<path d="M117.51 83.9L114.43 82.13L116.52 80.92L119.6 82.69L117.51 83.9Z" fill="#D8E3EF"/>
<path d="M124.7 88.06L118.93 84.73L121.02 83.52L126.79 86.85L124.7 88.06Z" fill="#D8E3EF"/>
<path d="M101.45 70.64L98.3701 68.87L100.46 67.66L103.54 69.43L101.45 70.64Z" fill="#D8E3EF"/>
<path d="M105.96 73.27L102.88 71.47L104.97 70.26L108.05 72.06L105.96 73.27Z" fill="#D8E3EF"/>
<path d="M110.49 75.88L107.41 74.08L109.5 72.87L112.58 74.67L110.49 75.88Z" fill="#D8E3EF"/>
<path d="M114.99 78.48L111.91 76.71L114 75.5L117.08 77.27L114.99 78.48Z" fill="#D8E3EF"/>
<path d="M119.5 81.08L116.42 79.31L118.54 78.1L121.62 79.87L119.5 81.08Z" fill="#D8E3EF"/>
<path d="M128.14 86.08L120.95 81.92L123.04 80.71L130.23 84.87L128.14 86.08Z" fill="#D8E3EF"/>
<path d="M103.38 67.88L100.3 66.08L102.42 64.87L105.48 66.67L103.39 67.88H103.38Z" fill="#D8E3EF"/>
<path d="M107.91 70.48L104.83 68.71L106.92 67.48L110 69.28L107.91 70.49V70.48Z" fill="#D8E3EF"/>
<path d="M112.42 73.09L109.34 71.32L111.43 70.11L114.51 71.88L112.42 73.09Z" fill="#D8E3EF"/>
<path d="M116.95 75.69L113.87 73.92L115.96 72.71L119.04 74.48L116.95 75.69Z" fill="#D8E3EF"/>
<path d="M121.46 78.32L118.38 76.52L120.47 75.31L123.55 77.11L121.46 78.32Z" fill="#D8E3EF"/>
<path d="M125.96 80.92L122.9 79.15L124.99 77.92L128.07 79.72L125.95 80.93L125.96 80.92Z" fill="#D8E3EF"/>
<path d="M131.51 84.12L127.41 81.76L129.5 80.55L133.6 82.91L131.51 84.12Z" fill="#D8E3EF"/>
<path d="M68.6203 68.33L117.62 96.65C119.42 97.67 122.34 97.67 124.11 96.65L146.45 83.74C147.33 83.23 147.79 82.53 147.79 81.86V83.28C147.79 83.95 147.36 84.65 146.45 85.16L124.11 98.07C122.31 99.09 119.39 99.09 117.62 98.07L68.6203 69.75C67.7103 69.21 67.2803 68.52 67.2803 67.84V66.44C67.2803 67.11 67.7403 67.81 68.6203 68.32V68.33Z" fill="url(#paint0_linear_1515_2472)"/>
<path d="M149.7 35.4C149.7 33.33 148.25 30.81 146.46 29.76L97.4502 1.48002C95.6502 0.460018 94.2002 1.29002 94.2002 3.36002V46.03C94.2002 48.1 95.6502 50.62 97.4502 51.67L146.45 79.99C148.25 81.01 149.69 80.18 149.69 78.11V35.4H149.7Z" fill="url(#paint1_linear_1515_2472)"/>
<path d="M149.7 78.1V35.4C149.7 33.33 148.25 30.81 146.46 29.76L97.4499 1.48001C96.5599 0.97001 95.7599 0.92001 95.1699 1.24001L96.8599 0.25001C97.4499 -0.12999 98.2799 -0.0999902 99.2199 0.44001L148.22 28.76C150.02 29.78 151.47 32.33 151.47 34.4V77.08C151.47 78.15 151.07 78.91 150.42 79.23L148.81 80.17C149.35 79.82 149.69 79.1 149.69 78.13L149.7 78.1Z" fill="url(#paint2_linear_1515_2472)"/>
<path d="M97.6399 131.27C97.6399 126.25 100.83 126.09 100.83 126.09C100.83 126.09 102.55 126.09 105.36 124.94C108.12 123.79 112.01 124.24 109.84 128.24C109.84 128.29 109.79 128.35 109.76 128.4C109.63 128.61 109.41 128.83 109.06 129.02L102.11 133.1C101.06 133.72 97.6799 132.29 97.6599 131.27H97.6299H97.6399Z" fill="url(#paint3_linear_1515_2472)"/>
<path d="M97.6702 130.82C97.7202 131.84 101.05 133.23 102.1 132.62L109.05 128.54C109.29 128.41 109.67 128.14 110.04 127.82C109.99 127.95 109.93 128.09 109.85 128.25C109.85 128.3 109.8 128.36 109.77 128.41C109.64 128.62 109.42 128.84 109.07 129.03L102.12 133.11C101.13 133.67 98.1202 132.49 97.7202 131.47C97.7202 131.39 97.6902 131.34 97.6902 131.26V130.8L97.6602 130.83L97.6702 130.82Z" fill="#225DA9"/>
<path d="M98.9503 125.45C99.7803 125.45 102.65 126.17 102.65 126.17C102.65 126.17 102.65 126.57 102.92 126.92C102.95 126.95 102.97 126.97 103 127.03C103.56 127.43 104.15 128.05 102.79 128.91C101.69 129.61 100.78 129.15 100.35 128.75C100.19 128.43 99.9203 128.05 99.5703 127.86C99.1903 127.65 98.9803 127.57 98.8203 127.54V127.46C98.8203 127.46 98.9303 126.25 98.9503 125.47V125.44V125.45Z" fill="#ECD5DE"/>
<path d="M97.93 106.29C97.53 111.6 98.79 126.39 98.79 126.39C98.82 126.66 99.11 126.9 99.46 127.11C100.21 127.54 101.44 127.54 102.2 127.11C102.5 126.95 102.68 126.71 102.74 126.49C102.74 126.49 106.6 103.57 105.45 97.72C105.45 97.45 105.4 97.18 105.29 96.97C105.29 99.6 100.52 103.71 97.94 106.28L97.93 106.29Z" fill="url(#paint4_linear_1515_2472)"/>
<path d="M87.7698 124.54C87.7698 119.52 90.9598 119.39 90.9598 119.39C90.9598 119.39 92.6798 119.39 95.4898 118.24C98.2498 117.09 102.14 117.54 99.9698 121.54C99.9698 121.59 99.9198 121.65 99.8898 121.67C99.7598 121.88 99.5398 122.1 99.1898 122.29L92.2398 126.37C91.1898 126.99 87.8098 125.56 87.7898 124.55H87.7598L87.7698 124.54Z" fill="url(#paint5_linear_1515_2472)"/>
<path d="M87.7998 124.08C87.8498 125.1 91.1798 126.5 92.2298 125.88L99.1798 121.8C99.4198 121.67 99.7998 121.4 100.15 121.08C100.1 121.21 100.04 121.35 99.9598 121.51C99.9598 121.56 99.9098 121.62 99.8798 121.64C99.7498 121.85 99.5298 122.07 99.1798 122.26L92.2298 126.34C91.2398 126.9 88.2298 125.72 87.8298 124.7C87.8298 124.62 87.7998 124.57 87.7998 124.49V124.09V124.08Z" fill="#225DA9"/>
<path d="M89.0896 118.71C89.8896 118.71 92.7896 119.43 92.7896 119.43C92.7896 119.43 92.7896 119.83 93.0596 120.18C93.0896 120.21 93.1096 120.23 93.1396 120.29C93.6996 120.69 94.2896 121.31 92.9296 122.17C91.8296 122.87 90.9196 122.41 90.4896 122.01C90.3296 121.69 90.0596 121.34 89.7096 121.12C89.3296 120.91 89.1196 120.83 88.9596 120.8V120.72C88.9596 120.72 88.7496 118.73 89.0896 118.73V118.7V118.71Z" fill="#ECD5DE"/>
<path d="M95.8399 94.18C95.2199 96.33 90.4199 99.01 89.5899 99.55C89.0799 105.59 88.9199 119.65 88.9199 119.65C88.9499 119.92 89.2399 120.16 89.5899 120.37C90.3399 120.8 91.5699 120.8 92.3299 120.37C92.6199 120.21 92.8099 119.97 92.8699 119.75C92.8699 119.75 95.9799 99.94 95.8199 94.17H95.8499L95.8399 94.18Z" fill="#225DA9"/>
<path style="mix-blend-mode:multiply" d="M102.09 120.57H64.6504L96.8904 141.77L64.6504 163H102.09L138.81 141.77L102.09 120.57Z" fill="url(#paint6_linear_1515_2472)"/>
<path d="M99.28 115.52H30V142.98C30 143.73 30.48 144.48 31.48 145.05L61.09 162.15C63.05 163.28 66.24 163.28 68.22 162.15L97.8 145.05C98.79 144.49 99.28 143.73 99.28 142.98V115.52Z" fill="url(#paint7_linear_1515_2472)"/>
<path d="M68.1898 134.68L97.7698 117.58C99.7298 116.45 99.7298 114.6 97.7698 113.45L68.1898 96.35C66.2298 95.22 63.0398 95.22 61.0598 96.35L31.4798 113.45C29.5198 114.58 29.5198 116.43 31.4798 117.58L61.0898 134.68C63.0498 135.81 66.2398 135.81 68.2198 134.68H68.1898Z" fill="#9F93DD"/>
<path style="mix-blend-mode:multiply" d="M97.8004 113.48L92.3804 110.34C83.8004 115.12 76.4204 115.63 72.2704 115.52C64.6504 115.33 59.3704 111.95 57.1204 107.71C55.1404 112.54 61.7304 118.69 72.1104 118.69H95.8704L97.8004 117.59C99.7604 116.46 99.7604 114.61 97.8004 113.46V113.49V113.48Z" fill="url(#paint8_linear_1515_2472)"/>
<path d="M82.8397 77.97C83.5897 77.43 84.3397 76.84 85.1697 76.2C85.2197 76.04 85.2497 75.88 85.2497 75.72C85.4597 75.64 85.6797 75.56 85.7597 75.56C86.4297 75.61 86.9097 75.56 87.3197 75.43C88.6897 75.08 90.2997 73.98 90.7797 73.6C90.1097 72.98 89.3297 73.65 88.8197 73.95C88.9297 73.76 89.0297 73.6 89.1997 73.47C90.0297 72.64 90.2197 72.34 91.1597 72.34C92.0997 72.34 92.7997 71.59 91.9097 71.02C91.3697 70.7 90.6797 70.38 90.4597 70.3C89.5197 69.84 88.0497 70.22 87.6397 70.49C87.2397 70.79 84.6597 72.34 84.1797 73.36C84.1797 73.36 83.9097 73.49 83.6197 73.66C83.3797 73.58 83.1097 73.53 82.8997 73.53C81.5897 74.09 80.4597 74.6 79.4697 75.03C79.5497 76.26 82.8497 77.96 82.8497 77.96V77.99L82.8397 77.97Z" fill="url(#paint9_linear_1515_2472)"/>
<path d="M91.7897 70.05C91.2497 69.73 90.5597 69.41 90.3397 69.33C89.3997 68.87 87.9297 69.25 87.5197 69.52C87.1197 69.82 84.5397 71.37 84.0597 72.39C84.0597 72.39 83.0897 72.9 82.7197 73.09L84.1097 75.24C84.1097 75.24 85.3397 74.6 85.6397 74.6C86.3097 74.65 86.7897 74.6 87.1997 74.47C88.5697 74.12 90.1797 73.02 90.6597 72.64C89.9897 72.02 89.2097 72.69 88.6997 72.99C88.8097 72.8 88.9097 72.64 89.0797 72.51C89.9097 71.68 90.0997 71.38 91.0397 71.38C91.9797 71.38 92.6797 70.63 91.7897 70.06V70.05Z" fill="#EDD8E1"/>
<path d="M85.0598 75.23C85.5398 73.75 83.7998 72.47 82.7798 72.57C77.9498 74.66 75.6198 75.93 73.9598 75.44C67.0098 72.19 69.7198 79.57 73.8298 79.95C78.6598 80.38 81.2298 78.21 85.0698 75.25V75.22L85.0598 75.23Z" fill="url(#paint10_linear_1515_2472)"/>
<path d="M95.8402 94.18C95.6802 88.57 69.0502 96.76 66.0402 97.35C64.7802 102.82 63.2802 106.66 61.9902 111.33C66.9802 112.99 81.3502 105.96 89.6102 99.55C90.4402 99.01 95.2202 96.33 95.8602 94.18H95.8302H95.8402Z" fill="#225DA9"/>
<path d="M75.6998 104.27C72.7498 99.55 65.0498 94.26 56.0898 98.69C56.0898 100.86 56.4098 105.86 57.1098 107.71C59.0398 112.86 63.2498 117.53 72.1298 117.75C76.8198 117.86 89.5098 113.56 97.9298 106.26C100.53 103.66 105.28 99.58 105.28 96.95C102.92 92.31 78.6998 103.66 75.6998 104.25V104.28V104.27Z" fill="url(#paint11_linear_1515_2472)"/>
<path d="M63.5498 109.16C70.9798 113.32 80.4498 111.63 76.9598 103.2C75.0598 99.15 74.2998 92.09 74.4398 87.87C75.1398 86.29 77.3398 85.78 78.4098 81.62C78.6498 78.4 78.6798 77.14 78.0898 70.8C75.4098 67.63 74.1698 66.18 71.1698 65C69.3698 64.28 67.0098 63.36 65.2998 64.44C57.8198 69.06 55.4298 83.01 56.1298 98.69C56.9098 103.82 59.9098 107.12 63.5598 109.16H63.5498Z" fill="url(#paint12_linear_1515_2472)"/>
<path d="M66.8997 65.11C68.1297 63.88 68.5396 61.11 68.6696 58.91C68.5096 57.7 68.5396 56.41 68.7996 55.1C69.8196 50.38 73.6297 47.18 77.3297 47.99C81.0297 48.8 83.1996 53.25 82.1796 57.97C81.2396 62.34 77.6497 64.87 74.2397 65.32C73.8897 65.99 74.7796 67.12 75.2596 67.66C72.4996 68.49 69.7097 66.88 68.3097 66.18C67.5897 65.8 67.0796 65.46 66.8896 65.08V65.11H66.8997Z" fill="#ECD5DE"/>
<path d="M107.83 76.92C107.29 76.6 106.6 76.28 106.38 76.2C105.44 75.74 103.97 76.12 103.56 76.39C103.16 76.69 102.22 77.25 101.49 77.81C102.08 77.22 102.8 76.68 102.4 76.04C100.33 76.66 99.5805 79.07 99.5605 79.29C99.5605 79.29 99.2405 79.45 98.9205 79.61C98.7605 79.58 98.6005 79.56 98.4405 79.56C95.5205 80.82 92.9405 82.03 90.9805 82.65L96.2605 85.71C97.7905 84.61 99.2605 83.35 100.71 82.22C100.76 82.09 100.76 81.95 100.76 81.84C103.52 82.03 104.25 80.15 105.08 79.32C105.91 78.49 106.1 78.19 107.04 78.19C107.98 78.19 108.68 77.44 107.79 76.87L107.82 76.92H107.83Z" fill="url(#paint13_linear_1515_2472)"/>
<path d="M98.4404 78.83C98.8204 78.64 99.4304 78.32 99.4304 78.32C99.4304 78.11 100.21 75.69 102.27 75.07C102.7 75.71 101.97 76.22 101.36 76.84C102.08 76.28 103 75.69 103.43 75.42C103.83 75.12 105.33 74.78 106.25 75.23C106.46 75.34 107.16 75.63 107.7 75.95C108.59 76.51 107.89 77.27 106.95 77.27C106.01 77.27 105.82 77.57 104.99 78.4C104.16 79.23 103.43 81.08 100.67 80.92C100.37 80.92 100.05 81.16 100.05 81.16L98.4704 78.88L98.4404 78.83Z" fill="#EDD8E1"/>
<path d="M100.59 81.3C101.07 79.82 99.3302 78.54 98.3102 78.64C93.4802 80.73 89.5702 82.61 87.9002 82.13C80.9502 78.88 79.0002 72.71 77.2802 71.1C73.4202 68.34 68.7502 74.45 73.8202 79.96C79.1802 84.98 83.8002 87.42 87.9002 87.8C92.7302 88.23 96.7502 84.28 100.59 81.3Z" fill="url(#paint14_linear_1515_2472)"/>
<path d="M60.6296 68.28C60.3896 65.81 62.4496 64.9 64.5196 63.02C67.7696 60.07 66.2096 60.55 67.7696 55.05C69.2996 49.55 73.7996 45.52 79.6196 47.51C82.5696 48.5 86.2396 53.09 81.9796 54.97C75.1896 57.92 81.2596 61.01 79.5696 63.96C78.8196 65.3 77.9596 64.71 77.4196 66.46C76.8796 68.18 81.4396 71.26 77.7696 73.55C74.0996 75.84 75.1396 80.13 69.6396 78.94C64.1696 77.79 63.9496 75.93 65.2996 74.67C66.6396 73.41 62.4796 72.84 64.0096 71.13C65.5396 69.41 60.8196 70.46 60.5996 68.28H60.6296Z" fill="#225DA9"/>
<path d="M111.05 25.28C111.05 18.95 115.48 16.4 120.97 19.56C126.44 22.73 130.89 30.4 130.89 36.74C130.89 43.08 126.46 45.62 120.97 42.46C115.5 39.29 111.05 31.62 111.05 25.28Z" fill="white"/>
<path d="M115.47 28.64V27.06C115.74 27.19 115.95 27.27 116.09 27.27C116.23 27.27 116.36 27.22 116.47 27.08C116.58 26.95 116.63 26.76 116.68 26.49C116.71 26.3 116.73 25.95 116.73 25.42C116.73 24.56 116.76 24 116.84 23.7C116.92 23.4 117.03 23.22 117.22 23.11C117.41 23 117.65 23 118 23.08C118.24 23.13 118.59 23.29 119.1 23.59L119.39 23.75V25.31C118.96 25.07 118.69 24.93 118.59 24.93C118.49 24.93 118.38 24.93 118.32 25.04C118.27 25.12 118.24 25.28 118.24 25.58C118.24 25.88 118.24 26.36 118.19 27.11C118.19 27.54 118.11 27.86 118.03 28.08C117.95 28.29 117.84 28.46 117.74 28.56C117.63 28.67 117.42 28.75 117.18 28.77C117.39 29.04 117.58 29.33 117.72 29.6C117.85 29.87 117.96 30.19 118.04 30.51C118.12 30.83 118.17 31.23 118.2 31.74C118.2 32.49 118.23 32.95 118.23 33.16C118.23 33.46 118.26 33.67 118.31 33.8C118.36 33.96 118.47 34.1 118.58 34.23C118.71 34.36 118.98 34.55 119.38 34.77V36.35L119.08 36.19C118.57 35.89 118.17 35.63 117.9 35.36C117.63 35.09 117.39 34.82 117.2 34.5C117.01 34.18 116.88 33.83 116.82 33.48C116.77 33.13 116.71 32.59 116.71 31.9C116.71 31.09 116.68 30.56 116.63 30.29C116.55 29.89 116.42 29.57 116.25 29.32C116.09 29.08 115.82 28.84 115.47 28.62V28.64Z" fill="#262660"/>
<path d="M126.47 34.97C126.2 34.84 125.99 34.76 125.85 34.76C125.71 34.76 125.58 34.81 125.5 34.95C125.39 35.08 125.34 35.27 125.29 35.51C125.26 35.7 125.24 36.05 125.24 36.58C125.24 37.44 125.21 38 125.13 38.3C125.08 38.6 124.94 38.81 124.75 38.89C124.56 39 124.32 39 123.97 38.92C123.73 38.87 123.38 38.71 122.87 38.41L122.57 38.25V36.67C122.97 36.91 123.24 37.02 123.37 37.05C123.5 37.05 123.58 37.05 123.64 36.94C123.69 36.86 123.72 36.7 123.72 36.43C123.72 36.16 123.72 35.65 123.77 34.93C123.77 34.47 123.85 34.15 123.93 33.94C124.01 33.73 124.12 33.54 124.25 33.43C124.38 33.32 124.57 33.24 124.79 33.24C124.52 32.86 124.31 32.54 124.17 32.27C123.98 31.87 123.88 31.44 123.79 30.95C123.74 30.63 123.71 29.93 123.71 28.88C123.71 28.56 123.68 28.32 123.63 28.18C123.58 28.05 123.5 27.91 123.36 27.78C123.23 27.65 122.96 27.46 122.53 27.22V25.66L122.82 25.82C123.33 26.12 123.73 26.38 124 26.63C124.27 26.87 124.51 27.17 124.7 27.49C124.89 27.81 125.02 28.16 125.08 28.51C125.13 28.86 125.19 29.4 125.19 30.09C125.19 30.9 125.22 31.43 125.27 31.7C125.35 32.1 125.48 32.42 125.65 32.67C125.81 32.91 126.08 33.15 126.43 33.37V34.95L126.46 34.98L126.47 34.97Z" fill="#262660"/>
<path d="M130.33 52.34L104.45 37.39V38.65L130.33 53.6V52.34ZM132.74 53.74V55L138.8 58.52V57.26L132.74 53.74ZM117.29 48.69L104.44 41.28V42.54L117.29 49.95V48.69ZM119.7 51.35L138.82 62.41V61.15L119.7 50.09V51.35ZM123.08 55.94L104.47 45.18V46.44L123.08 57.2V55.94ZM125.49 58.6L138.85 66.3V65.04L125.49 57.34V58.6ZM104.46 50.36L110.15 53.66V52.4L104.46 49.1V50.36ZM112.56 55.03L138.82 70.19V68.93L112.56 53.77V55.03Z" fill="#608BC0"/>
</g>
<defs>
<linearGradient id="paint0_linear_1515_2472" x1="67.2803" y1="82.65" x2="147.79" y2="82.65" gradientUnits="userSpaceOnUse">
<stop offset="0.62" stop-color="#C2D2E7"/>
<stop offset="0.65" stop-color="#BBCDE4"/>
<stop offset="0.74" stop-color="#ABC2DE"/>
</linearGradient>
<linearGradient id="paint1_linear_1515_2472" x1="94.0502" y1="49.31" x2="150.46" y2="31.97" gradientUnits="userSpaceOnUse">
<stop stop-color="#3B6FB2"/>
<stop offset="1" stop-color="#7699C9"/>
</linearGradient>
<linearGradient id="paint2_linear_1515_2472" x1="157.04" y1="75.39" x2="109.43" y2="-7.01999" gradientUnits="userSpaceOnUse">
<stop offset="0.4" stop-color="#225DA9"/>
<stop offset="0.48" stop-color="#3B6FB2"/>
</linearGradient>
<linearGradient id="paint3_linear_1515_2472" x1="110.46" y1="128.82" x2="97.6699" y2="128.82" gradientUnits="userSpaceOnUse">
<stop stop-color="#608BC0"/>
<stop offset="0.66" stop-color="#4475B5"/>
<stop offset="1" stop-color="#3B6FB2"/>
</linearGradient>
<linearGradient id="paint4_linear_1515_2472" x1="105.69" y1="112.21" x2="56.12" y2="112.21" gradientUnits="userSpaceOnUse">
<stop offset="0.29" stop-color="#3B6FB2"/>
<stop offset="1" stop-color="#4C7CB8"/>
</linearGradient>
<linearGradient id="paint5_linear_1515_2472" x1="100.59" y1="122.1" x2="87.7998" y2="122.1" gradientUnits="userSpaceOnUse">
<stop stop-color="#608BC0"/>
<stop offset="0.66" stop-color="#4475B5"/>
<stop offset="1" stop-color="#3B6FB2"/>
</linearGradient>
<linearGradient id="paint6_linear_1515_2472" x1="64.6504" y1="141.781" x2="138.81" y2="141.781" gradientUnits="userSpaceOnUse">
<stop stop-color="#DCE5EF"/>
<stop offset="0.52" stop-color="#F0F4F8"/>
<stop offset="1" stop-color="white"/>
</linearGradient>
<linearGradient id="paint7_linear_1515_2472" x1="30" y1="139.26" x2="99.28" y2="139.26" gradientUnits="userSpaceOnUse">
<stop offset="0.44" stop-color="#D5E0EE"/>
<stop offset="0.5" stop-color="#C5D5E8"/>
<stop offset="0.58" stop-color="#ABC2DE"/>
</linearGradient>
<linearGradient id="paint8_linear_1515_2472" x1="56.7604" y1="113.2" x2="99.2704" y2="113.2" gradientUnits="userSpaceOnUse">
<stop stop-color="#C8D7EA"/>
<stop offset="0.42" stop-color="#DFE7F2"/>
<stop offset="1" stop-color="white"/>
</linearGradient>
<linearGradient id="paint9_linear_1515_2472" x1="79.4797" y1="74.03" x2="92.3297" y2="74.03" gradientUnits="userSpaceOnUse">
<stop stop-color="#CBD9EB"/>
<stop offset="1" stop-color="white"/>
</linearGradient>
<linearGradient id="paint10_linear_1515_2472" x1="80.5298" y1="79.45" x2="77.0998" y2="75.1" gradientUnits="userSpaceOnUse">
<stop stop-color="#A3A3BC"/>
<stop offset="0.53" stop-color="#B1B1C6"/>
<stop offset="1" stop-color="#BFBFD1"/>
</linearGradient>
<linearGradient id="paint11_linear_1515_2472" x1="29.9998" y1="106.8" x2="56.1198" y2="106.8" gradientUnits="userSpaceOnUse">
<stop offset="0.29" stop-color="#3B6FB2"/>
<stop offset="1" stop-color="#4C7CB8"/>
</linearGradient>
<linearGradient id="paint12_linear_1515_2472" x1="78.5698" y1="87.65" x2="56.0098" y2="87.65" gradientUnits="userSpaceOnUse">
<stop stop-color="#A3A3BC"/>
<stop offset="0.23" stop-color="#A5A5BE"/>
<stop offset="0.52" stop-color="#B4B4C7"/>
<stop offset="0.86" stop-color="#C9C9D7"/>
<stop offset="1" stop-color="#D4D4DF"/>
</linearGradient>
<linearGradient id="paint13_linear_1515_2472" x1="90.9905" y1="80.85" x2="108.23" y2="80.85" gradientUnits="userSpaceOnUse">
<stop stop-color="#CBD9EB"/>
<stop offset="1" stop-color="white"/>
</linearGradient>
<linearGradient id="paint14_linear_1515_2472" x1="72.3502" y1="76.66" x2="100.78" y2="84.33" gradientUnits="userSpaceOnUse">
<stop stop-color="#D4D4DF"/>
<stop offset="0.07" stop-color="#D2D2DE"/>
<stop offset="0.68" stop-color="#C4C4D4"/>
<stop offset="1" stop-color="#BFBFD1"/>
</linearGradient>
</defs>
</svg>
