<svg width="174" height="174" viewBox="0 0 174 174" fill="none" xmlns="http://www.w3.org/2000/svg">
<circle cx="87" cy="87" r="87" fill="#F4F9DD"/>
<path style="mix-blend-mode:multiply" d="M160 125.22H66.1597C60.8997 125.22 62.0397 128.34 64.6597 129.87L106.43 154.06C107.87 154.87 112.59 155 117.84 155H159.97V125.22H159.99H160Z" fill="url(#paint0_linear_1515_2241)"/>
<path d="M59 121.24C59 124.26 61.15 127.98 63.78 129.48L105.91 153.75C108.53 155.27 110.69 154.03 110.69 151.01V52.3999C110.69 49.3799 108.54 45.6599 105.91 44.1599L63.78 19.8899C61.14 18.3699 59 19.6099 59 22.6299V121.24Z" fill="#ECF1F8"/>
<path d="M60.3096 19.61C61.1896 19.05 62.4096 19.07 63.7896 19.87L105.92 44.14C108.54 45.66 110.7 49.36 110.7 52.38V151.02C110.7 152.52 110.16 153.57 109.33 154.08L112.72 151.87C113.6 151.38 114.14 150.31 114.14 148.79V50.16C114.14 47.14 111.99 43.42 109.36 41.92L67.2196 17.64C65.8496 16.85 64.6196 16.83 63.7396 17.38L60.3096 19.61Z" fill="url(#paint1_linear_1515_2241)"/>
<path d="M62 26.16V117.13L107.69 143.46V52.49L62 26.16Z" fill="white"/>
<path d="M84.8504 131.99C82.9604 130.9 81.4404 131.78 81.4404 133.96C81.4404 136.14 82.9604 138.78 84.8504 139.87C86.7404 140.96 88.2604 140.08 88.2604 137.9C88.2604 135.72 86.7404 133.08 84.8504 131.99ZM84.8504 138.71C83.5204 137.94 82.4304 136.08 82.4304 134.54C82.4304 133 83.5004 132.38 84.8504 133.15C86.1804 133.92 87.2704 135.78 87.2704 137.32C87.2704 138.86 86.2004 139.48 84.8504 138.71Z" fill="#C2D2E7"/>
<path d="M92.4195 39.56L77.2695 30.83V31.84L92.4195 40.57V39.56Z" fill="#C2D2E7"/>
<path d="M96.5601 85.37C95.6801 84.86 94.8201 84.58 94.0701 84.51C93.5601 79.61 90.1201 74.06 85.9801 71.69C82.0801 69.44 78.8101 70.73 78.0201 74.49C76.9501 73.14 75.7001 71.99 74.3701 71.22C70.4901 68.97 67.3301 70.79 67.3301 75.29C67.3301 79.79 70.4801 85.22 74.3701 87.47L96.5501 100.25C100.11 102.3 102.99 100.64 102.99 96.55C102.99 92.46 100.12 87.47 96.5501 85.42V85.38L96.5601 85.37Z" fill="#E1E8F3"/>
<path d="M99.4803 58.31L98.2803 56.83C98.8403 56.02 99.9103 55.91 101.05 56.57V58.15C100.41 57.79 99.8103 57.83 99.4803 58.3V58.31Z" fill="#608BC0"/>
<path d="M101.05 63.88C99.2901 62.87 97.8701 60.41 97.8701 58.4C97.8701 57.76 98.0201 57.22 98.2801 56.84L99.4801 58.32C99.3301 58.53 99.2401 58.86 99.2401 59.22C99.2401 60.35 100.06 61.75 101.04 62.32C102.03 62.9 102.84 62.43 102.84 61.29C102.84 60.15 102.02 58.76 101.04 58.19V56.61C102.8 57.62 104.21 60.08 104.21 62.09C104.21 64.1 102.79 64.94 101.04 63.91V63.89L101.05 63.88Z" fill="#BFBFD1"/>
<path d="M99.0301 123.13C98.3001 122.02 97.8701 120.73 97.8701 119.64C97.8701 117.63 99.2901 116.81 101.05 117.82V119.4C100.06 118.82 99.2501 119.29 99.2501 120.43C99.2501 121.05 99.4901 121.78 99.9201 122.42L99.0401 123.15V123.13H99.0301Z" fill="#608BC0"/>
<path d="M101.05 125.1C100.32 124.67 99.6103 123.96 99.0303 123.11L99.9103 122.38C100.23 122.87 100.64 123.26 101.05 123.52C102.04 124.1 102.85 123.63 102.85 122.49C102.85 121.35 102.03 119.96 101.05 119.39V117.81C102.81 118.82 104.23 121.28 104.23 123.29C104.23 125.3 102.81 126.14 101.05 125.11V125.1Z" fill="#BFBFD1"/>
<path d="M101.05 134.67C99.2901 133.66 97.8701 131.2 97.8701 129.19C97.8701 127.18 99.2901 126.34 101.05 127.37V128.95C100.06 128.37 99.2501 128.84 99.2501 129.98C99.2501 131.12 100.07 132.51 101.05 133.08C101.5 133.34 101.93 133.4 102.25 133.23L103.17 134.94C102.59 135.22 101.82 135.11 101.05 134.66V134.67Z" fill="#608BC0"/>
<path d="M103.17 134.94L102.25 133.23C102.64 133.06 102.85 132.61 102.85 132.03C102.85 130.9 102.03 129.5 101.05 128.93V127.35C102.81 128.36 104.22 130.82 104.22 132.83C104.22 133.86 103.83 134.63 103.17 134.95V134.94Z" fill="#BFBFD1"/>
<path d="M87.21 51.23L96.61 56.65V55.34L87.21 49.92V51.23Z" fill="#E1E8F3"/>
<path d="M90.5996 55.89L96.6096 59.36V58.03L90.5996 54.58V55.89Z" fill="#E1E8F3"/>
<path d="M87.21 112.6L96.61 118.02V116.71L87.21 111.29V112.6Z" fill="#E1E8F3"/>
<path d="M90.5996 117.26L96.6096 120.73V119.4L90.5996 115.95V117.26Z" fill="#E1E8F3"/>
<path d="M87.21 122.31L96.61 127.73V126.4L87.21 120.98V122.31Z" fill="#E1E8F3"/>
<path d="M90.5996 126.98L96.6096 130.43V129.12L90.5996 125.65V126.98Z" fill="#E1E8F3"/>
<defs>
<linearGradient id="paint0_linear_1515_2241" x1="62.4531" y1="140.107" x2="160" y2="140.107" gradientUnits="userSpaceOnUse">
<stop stop-color="#DCE5EF"/>
<stop offset="0.52" stop-color="#F0F4F8"/>
<stop offset="1" stop-color="white"/>
</linearGradient>
<linearGradient id="paint1_linear_1515_2241" x1="63.6196" y1="17.46" x2="134.09" y2="139.82" gradientUnits="userSpaceOnUse">
<stop offset="0.3" stop-color="#7699C9"/>
<stop offset="0.35" stop-color="#5683BD"/>
<stop offset="0.41" stop-color="#3B6FB2"/>
</linearGradient>
</defs>
</svg>
