<svg width="504" height="407" viewBox="0 0 504 407" fill="none" xmlns="http://www.w3.org/2000/svg">
<path d="M5.59082 71.1079C5.59082 63.5466 10.9664 54.2723 17.4644 50.4916L96.6213 4.76965C103.178 0.989026 108.495 4.06079 108.495 11.622V101.589C108.495 109.15 103.119 118.425 96.6213 122.205L17.4644 167.927C10.9073 171.708 5.59082 168.636 5.59082 161.075V71.1079Z" fill="#F1F1F6"/>
<path d="M99.7492 0.929935C97.5635 -0.428728 94.4918 -0.369656 91.1247 1.57973L11.9087 47.3017C5.35166 51.0823 0.0351562 60.3567 0.0351562 67.9179V157.885C0.0351562 161.843 1.51196 164.56 3.81578 165.683L8.71879 168.518C6.71033 167.218 5.52888 164.619 5.52888 161.016V71.1078C5.52888 63.5466 10.9045 54.2722 17.4024 50.4916L96.6184 4.76964C99.8674 2.87932 102.762 2.7021 104.948 3.94262L99.7492 0.929935Z" fill="url(#paint0_linear_1201_814)"/>
<path d="M81.91 42.5168C81.5556 42.5168 81.1421 42.8712 80.9058 43.3438C77.3024 49.6055 73.9943 54.2722 69.682 56.7532C65.4879 59.1752 62.3571 58.2891 58.6355 56.1625C58.5764 56.1625 58.4583 56.1034 58.3401 56.1625C58.222 56.1625 58.1039 56.1625 57.9857 56.2806C57.8676 56.3397 57.7494 56.4578 57.6313 56.576C57.5131 56.6941 57.395 56.8123 57.3359 56.9895C54.146 62.4832 50.897 67.6816 46.2894 70.3398C41.7408 72.939 38.1965 71.6394 35.0657 69.8673C34.7703 69.69 34.4159 69.8673 34.0614 70.2217C33.707 70.5761 33.4707 71.1078 33.4707 71.5213V101.589C33.4707 119.724 49.0067 126.045 57.6313 124.45C57.7494 124.45 57.8085 124.45 57.9266 124.332C58.0448 124.332 58.1039 124.214 58.222 124.096C66.9056 115.648 82.3826 91.4877 82.3826 73.2934V43.1666C82.3826 42.7531 82.1463 42.4577 81.7919 42.5168H81.91ZM80.6104 74.2977C80.6104 90.3653 67.1419 112.222 58.9309 121.083V96.8633C58.9309 96.2726 58.5174 96.0363 57.9857 96.3316C57.4541 96.627 57.0406 97.3359 57.0406 97.9266V122.146C48.8295 122.796 35.361 116.475 35.361 100.467V72.939C38.3737 74.4158 41.859 75.0065 46.2894 72.4664C50.7789 69.8673 54.146 65.2596 57.0406 60.4157V67.9179C57.0406 68.5086 57.4541 68.7449 57.9857 68.4495C58.5174 68.1542 58.9309 67.4453 58.9309 66.8546V59.3524C62.298 60.9473 65.547 61.3608 69.682 58.9979C74.2897 56.3397 77.7159 51.6139 80.6104 46.8881V74.4158V74.2977ZM57.9857 86.2894C57.4541 86.5847 57.0406 87.2936 57.0406 87.8843V92.1966C57.0406 92.7873 57.4541 93.0236 57.9857 92.7282C58.5174 92.4329 58.9309 91.724 58.9309 91.1333V86.821C58.9309 86.2303 58.5174 85.994 57.9857 86.2894Z" fill="#C4CAE9"/>
<path d="M55.1475 100.112C55.1475 92.7284 60.4049 83.6313 66.7847 79.9688L144.347 35.192C150.726 31.4704 155.984 34.5422 155.984 41.9262V134.079C155.984 141.463 150.726 150.56 144.347 154.223L66.7847 198.999C60.4049 202.721 55.1475 199.649 55.1475 192.265V100.112Z" fill="#F1F1F6"/>
<path d="M147.36 31.3522C145.234 29.9936 142.221 30.1117 138.913 32.002L61.3511 76.7788C54.9713 80.5004 49.7139 89.5385 49.7139 96.9225V189.075C49.7139 192.974 51.1316 195.632 53.4354 196.755L58.2794 199.531C56.33 198.231 55.1485 195.75 55.1485 192.206V100.053C55.1485 92.6693 60.406 83.5721 66.7858 79.9097L144.348 35.1329C147.538 33.3016 150.373 33.1244 152.5 34.3058L147.419 31.3522H147.36Z" fill="url(#paint1_linear_1201_814)"/>
<g style="mix-blend-mode:multiply">
<path d="M100.514 123.978C97.6784 123.446 95.7881 120.67 95.7881 116.121C95.7881 109.269 100.159 101.235 105.535 98.1039C110.911 94.9731 115.282 97.9858 115.282 104.838C115.282 109.328 113.392 114.349 110.556 118.129C118.826 116.594 124.084 121.733 124.084 128.467C122.666 129.294 105.535 139.159 105.535 139.159C105.535 139.159 88.4041 149.024 86.9863 149.851C86.9863 143.176 92.2438 131.893 100.514 123.919V123.978Z" fill="#D1D7F3"/>
</g>
<path d="M103.29 127.522C103.29 119.784 108.784 110.332 115.459 106.433L196.565 59.589C203.24 55.7493 208.734 58.8801 208.734 66.6186V158.771C208.734 166.51 203.24 175.961 196.565 179.86L115.459 226.705C108.784 230.544 103.29 227.413 103.29 219.675V127.522Z" fill="#F1F1F6"/>
<path d="M199.696 55.6901C197.451 54.2724 194.321 54.3905 190.894 56.399L109.788 103.243C103.113 107.083 97.6191 116.594 97.6191 124.332V216.485C97.6191 220.561 99.155 223.337 101.518 224.519L106.539 227.413C104.531 226.055 103.231 223.455 103.231 219.734V127.581C103.231 119.843 108.725 110.391 115.4 106.492L196.506 59.648C199.814 57.7577 202.827 57.5804 205.013 58.7619L199.696 55.6901Z" fill="url(#paint2_linear_1201_814)"/>
<path d="M185.165 152.628L160.65 166.805C160.295 164.856 158.818 164.029 156.928 164.678V157.944L176.304 146.78C178.253 145.657 179.789 142.94 179.789 140.754V111.454C179.789 109.21 178.194 108.324 176.304 109.446L146.354 126.754L144.877 125.041C144.227 124.273 143.164 124.273 141.983 124.923L135.721 128.526C133.772 129.649 132.236 132.366 132.236 134.552V168.282C132.236 170.527 133.831 171.413 135.721 170.29L155.097 159.126V165.86C153.206 167.396 151.789 169.936 151.375 172.299L126.86 186.476C126.329 186.772 125.915 187.539 125.915 188.13C125.915 188.721 126.329 188.957 126.86 188.662L151.375 174.484C151.789 176.729 153.738 177.497 156.042 176.198C158.346 174.898 160.236 171.885 160.709 169.109L185.224 154.932C185.755 154.636 186.169 153.868 186.169 153.278C186.169 152.687 185.755 152.451 185.224 152.746L185.165 152.628ZM135.662 168.046C134.776 168.577 134.067 168.164 134.067 167.1V133.37C134.067 132.366 134.776 131.125 135.662 130.594L141.924 126.99C142.455 126.695 142.928 126.695 143.223 126.99L144.995 129.058C144.995 129.058 145.468 129.294 145.763 129.058L176.245 111.454C177.131 110.923 177.84 111.336 177.84 112.399V141.699C177.84 142.704 177.131 143.944 176.245 144.476L135.603 167.927L135.662 168.046ZM155.983 173.894C154.388 174.78 153.147 174.071 153.147 172.24C153.147 170.408 154.447 168.223 155.983 167.278C157.578 166.392 158.818 167.1 158.818 168.932C158.818 170.763 157.519 172.949 155.983 173.894ZM155.983 138.332C155.274 138.746 154.742 139.75 154.742 140.518C154.742 141.286 155.333 141.64 155.983 141.227C156.692 140.813 157.223 139.809 157.223 139.041C157.223 138.273 156.633 137.919 155.983 138.332ZM161.063 135.379C160.354 135.792 159.823 136.796 159.823 137.564C159.823 138.332 160.413 138.687 161.063 138.273C161.772 137.86 162.304 136.855 162.304 136.087C162.304 135.32 161.713 134.965 161.063 135.379ZM150.903 141.227C150.194 141.64 149.662 142.645 149.662 143.412C149.662 144.18 150.253 144.535 150.903 144.121C151.612 143.708 152.143 142.704 152.143 141.936C152.143 141.168 151.552 140.813 150.903 141.227Z" fill="#C4CAE9"/>
<path d="M148.539 156.231C148.539 148.729 153.856 139.573 160.294 135.851L238.742 90.5427C245.24 86.8211 250.498 89.8929 250.498 97.336V190.552C250.498 198.054 245.181 207.211 238.742 210.932L160.294 256.241C153.796 259.962 148.539 256.949 148.539 249.447V156.231Z" fill="#F1F1F6"/>
<path d="M241.815 86.7621C239.689 85.4034 236.617 85.5216 233.309 87.4119L154.861 132.72C148.363 136.442 143.105 145.657 143.105 153.1V246.316C143.105 250.215 144.582 252.932 146.886 254.055L151.789 256.89C149.84 255.591 148.599 253.051 148.599 249.506V156.29C148.599 148.788 153.916 139.632 160.355 135.91L238.803 90.6018C241.993 88.7705 244.887 88.5933 247.014 89.7748L241.874 86.8212L241.815 86.7621Z" fill="url(#paint3_linear_1201_814)"/>
<path d="M163.78 173.539C163.307 173.539 162.894 173.303 162.598 172.889C162.244 172.24 162.421 171.413 163.071 171.058L234.548 129.767C235.198 129.412 235.966 129.589 236.38 130.239C236.734 130.889 236.557 131.716 235.907 132.07L164.43 173.362C164.43 173.362 164.016 173.539 163.78 173.539Z" fill="#CED3F8"/>
<path d="M204.007 149.024C204.007 146.484 205.779 143.353 208.024 142.054C210.269 140.754 212.041 141.818 212.041 144.358C212.041 146.898 210.269 150.029 208.024 151.328C205.779 152.628 204.007 151.564 204.007 149.024Z" fill="#FCBA06"/>
<path d="M163.78 197.227C163.307 197.227 162.894 196.991 162.598 196.578C162.244 195.928 162.421 195.101 163.071 194.746L234.548 153.455C235.198 153.1 235.966 153.278 236.38 153.927C236.734 154.577 236.557 155.404 235.907 155.759L164.43 197.05C164.43 197.05 164.016 197.227 163.78 197.227Z" fill="#CED3F8"/>
<path d="M182.328 185.236C182.328 182.695 184.1 179.565 186.345 178.265C188.59 176.965 190.362 178.029 190.362 180.569C190.362 183.109 188.59 186.24 186.345 187.539C184.1 188.839 182.328 187.776 182.328 185.236Z" fill="#6B67E9"/>
<path d="M163.78 220.915C163.307 220.915 162.894 220.679 162.598 220.266C162.244 219.616 162.421 218.789 163.071 218.434L234.548 177.143C235.198 176.788 235.966 176.966 236.38 177.615C236.734 178.265 236.557 179.092 235.907 179.447L164.43 220.738C164.43 220.738 164.016 220.915 163.78 220.915Z" fill="#CED3F8"/>
<path d="M224.388 184.586C224.388 182.046 226.16 178.915 228.405 177.615C230.649 176.316 232.422 177.379 232.422 179.919C232.422 182.459 230.649 185.59 228.405 186.89C226.16 188.189 224.388 187.126 224.388 184.586Z" fill="#6B67E9"/>
<path d="M200.938 185.295C200.938 177.733 206.313 168.459 212.811 164.678L292.027 118.956C298.584 115.176 303.901 118.248 303.901 125.809V215.776C303.901 223.337 298.525 232.612 292.027 236.392L212.811 282.114C206.254 285.895 200.938 282.823 200.938 275.262V185.295Z" fill="#F1F1F6"/>
<path d="M295.16 115.117C292.975 113.758 289.903 113.817 286.536 115.766L207.32 161.488C200.763 165.269 195.446 174.543 195.446 182.105V272.072C195.446 276.03 196.923 278.747 199.227 279.869L204.13 282.705C202.121 281.405 200.94 278.806 200.94 275.203V185.236C200.94 177.674 206.316 168.4 212.814 164.619L292.03 118.897C295.278 117.007 298.173 116.83 300.359 118.07L295.16 115.058V115.117Z" fill="url(#paint4_linear_1201_814)"/>
<path d="M268.459 183.936L253.928 192.265V175.548L247.134 179.446V196.223L232.603 204.611V212.409L247.134 204.02V220.797L253.928 216.898V200.122L268.459 191.733V183.936Z" fill="#D1D7F3"/>
<path d="M251.628 216.426C251.628 208.865 257.003 199.59 263.501 195.81L342.717 150.088C349.274 146.307 354.591 149.379 354.591 156.94V246.907C354.591 254.468 349.215 263.743 342.717 267.523L263.501 313.245C256.944 317.026 251.628 313.954 251.628 306.393V216.426Z" fill="#F1F1F6"/>
<path d="M345.786 146.248C343.601 144.889 340.529 144.948 337.162 146.898L257.946 192.62C251.389 196.4 246.072 205.675 246.072 213.236V303.203C246.072 307.161 247.549 309.878 249.853 311.001L254.756 313.836C252.747 312.536 251.566 309.937 251.566 306.334V216.367C251.566 208.805 256.942 199.531 263.44 195.75L342.655 150.028C345.904 148.138 348.799 147.961 350.985 149.201L345.786 146.189V146.248Z" fill="url(#paint5_linear_1201_814)"/>
<path d="M328.423 226.114C327.833 227 327.36 228.181 327.065 229.599C326.829 230.603 326.71 232.493 326.71 235.388C326.71 237.869 326.592 239.759 326.356 241C326.12 242.299 325.647 243.481 324.997 244.662C324.347 245.844 323.52 246.848 322.516 247.734C321.571 248.62 320.153 249.624 318.322 250.688L317.259 251.338V245.726C318.736 244.899 319.681 244.249 320.094 243.776C320.508 243.304 320.862 242.831 321.098 242.299C321.335 241.768 321.394 241 321.394 239.937C321.394 238.873 321.394 237.515 321.512 234.915C321.571 233.143 321.748 231.725 322.044 230.544C322.339 229.363 322.693 228.299 323.225 227.295C323.757 226.291 324.407 225.287 325.174 224.282C324.288 224.105 323.58 223.869 323.166 223.514C322.753 223.16 322.339 222.569 322.103 221.742C321.807 220.974 321.63 219.793 321.571 218.257C321.453 215.599 321.394 213.768 321.394 212.763C321.394 211.759 321.276 211.168 321.098 210.873C320.921 210.578 320.567 210.459 320.153 210.519C319.74 210.519 318.736 211.05 317.259 211.877V206.265L318.322 205.616C320.094 204.611 321.394 203.962 322.221 203.784C323.461 203.489 324.347 203.548 324.997 203.902C325.647 204.257 326.061 204.966 326.297 206.029C326.533 207.092 326.651 209.101 326.651 212.173C326.651 214.004 326.651 215.303 326.828 216.012C326.947 216.957 327.242 217.607 327.596 218.08C327.951 218.552 328.423 218.73 328.896 218.73C329.369 218.73 330.137 218.493 331.141 217.962V223.574C329.9 224.341 328.955 225.228 328.364 226.114H328.423Z" fill="#C4CAE9"/>
<path d="M284.354 245.017C285.594 244.249 286.539 243.363 287.13 242.477C287.721 241.591 288.193 240.409 288.489 238.991C288.666 237.987 288.784 236.097 288.784 233.202C288.784 230.721 288.902 228.831 289.138 227.59C289.375 226.291 289.847 225.05 290.497 223.928C291.147 222.747 291.974 221.742 292.978 220.856C293.923 219.97 295.341 218.966 297.172 217.962L298.235 217.312V222.924C296.7 223.81 295.695 224.46 295.282 224.932C294.868 225.405 294.514 225.877 294.396 226.35C294.219 226.823 294.16 227.65 294.1 228.831C294.041 232.612 293.923 235.034 293.805 236.215C293.569 237.928 293.155 239.523 292.505 240.882C292.033 241.886 291.324 243.008 290.32 244.367C291.088 244.426 291.738 244.662 292.21 245.076C292.683 245.489 293.096 246.08 293.392 246.848C293.687 247.675 293.864 248.857 293.923 250.451C294.041 253.051 294.1 254.882 294.1 255.827C294.1 256.772 294.219 257.363 294.396 257.658C294.632 257.954 294.927 258.072 295.4 258.013C295.873 258.013 296.818 257.54 298.235 256.713V262.325L297.172 262.975C295.4 263.979 294.1 264.629 293.273 264.806C292.033 265.101 291.088 265.042 290.497 264.688C289.847 264.333 289.434 263.625 289.197 262.561C288.961 261.498 288.843 259.43 288.843 256.418C288.843 254.587 288.843 253.287 288.666 252.637C288.489 251.751 288.252 251.042 287.898 250.57C287.543 250.097 287.13 249.861 286.598 249.92C286.126 249.92 285.358 250.156 284.354 250.688V245.076V245.017Z" fill="#C4CAE9"/>
<path d="M316.727 228.595C316.727 227.118 315.663 226.527 314.423 227.236C313.123 227.945 312.119 229.776 312.119 231.253C312.119 232.73 313.182 233.32 314.423 232.611C315.723 231.903 316.727 230.071 316.727 228.595Z" fill="#C4CAE9"/>
<path d="M308.633 233.261C308.633 231.785 307.57 231.194 306.329 231.903C305.03 232.612 304.025 234.443 304.025 235.92C304.025 237.396 305.089 237.987 306.329 237.278C307.629 236.569 308.633 234.738 308.633 233.261Z" fill="#C4CAE9"/>
<path d="M300.539 237.928C300.539 236.451 299.476 235.861 298.235 236.569C296.936 237.278 295.932 239.11 295.932 240.586C295.932 242.063 296.995 242.654 298.235 241.945C299.535 241.236 300.539 239.405 300.539 237.928Z" fill="#C4CAE9"/>
<path d="M298.229 245.371C298.229 237.81 303.605 228.536 310.103 224.755L389.319 179.033C395.876 175.252 401.193 178.324 401.193 185.885V275.852C401.193 283.414 395.817 292.688 389.319 296.469L310.103 342.191C303.546 345.971 298.229 342.9 298.229 335.338V245.371Z" fill="#F1F1F6"/>
<path d="M392.451 175.193C390.266 173.835 387.194 173.894 383.827 175.843L304.611 221.565C298.054 225.346 292.737 234.62 292.737 242.181V332.148C292.737 336.106 294.214 338.824 296.518 339.946L301.421 342.781C299.412 341.482 298.231 338.883 298.231 335.279V245.312C298.231 237.751 303.607 228.476 310.105 224.696L389.321 178.974C392.57 177.084 395.464 176.906 397.65 178.147L392.451 175.134V175.193Z" fill="url(#paint6_linear_1201_814)"/>
<path d="M374.555 216.839C374.2 216.839 373.787 217.194 373.55 217.666C369.947 223.928 366.639 228.595 362.327 231.076C358.132 233.498 355.002 232.612 351.28 230.485C351.221 230.485 351.103 230.426 350.985 230.485C350.867 230.485 350.748 230.485 350.63 230.603C350.512 230.662 350.394 230.78 350.276 230.898C350.158 231.017 350.04 231.135 349.98 231.312C346.791 236.806 343.542 242.004 338.934 244.662C334.385 247.261 330.841 245.962 327.71 244.19C327.415 244.012 327.06 244.19 326.706 244.544C326.352 244.899 326.115 245.43 326.115 245.844V275.912C326.115 294.047 341.651 300.367 350.276 298.773C350.394 298.773 350.453 298.773 350.571 298.654C350.689 298.654 350.748 298.536 350.867 298.418C359.55 289.971 375.027 265.81 375.027 247.616V217.548C375.027 217.135 374.791 216.839 374.436 216.898L374.555 216.839ZM373.255 248.62C373.255 264.688 359.786 286.545 351.575 295.405V271.186C351.575 270.595 351.162 270.359 350.63 270.654C350.099 270.949 349.685 271.658 349.685 272.249V296.469C341.474 297.118 328.006 290.798 328.006 274.789V247.261C331.018 248.738 334.503 249.329 338.934 246.789C343.423 244.19 346.791 239.582 349.685 234.738V242.24C349.685 242.831 350.099 243.067 350.63 242.772C351.162 242.477 351.575 241.768 351.575 241.177V233.675C354.943 235.27 358.192 235.683 362.327 233.32C366.934 230.662 370.36 225.936 373.255 221.211V248.738V248.62ZM350.63 260.612C350.099 260.907 349.685 261.616 349.685 262.207V266.519C349.685 267.11 350.099 267.346 350.63 267.051C351.162 266.755 351.575 266.046 351.575 265.456V261.143C351.575 260.553 351.162 260.316 350.63 260.612Z" fill="#C4CAE9"/>
<path d="M347.795 275.853C347.795 268.173 353.23 258.781 359.846 254.941L440.243 208.51C446.859 204.67 452.294 207.801 452.294 215.481V306.866C452.294 314.545 446.859 323.937 440.243 327.777L359.846 374.208C353.23 378.048 347.795 374.917 347.795 367.237V275.853Z" fill="#F1F1F6"/>
<path d="M443.43 204.611C441.244 203.194 438.114 203.312 434.687 205.32L354.29 251.751C347.674 255.591 342.239 264.983 342.239 272.663V364.048C342.239 368.064 343.716 370.841 346.079 372.022L351.1 374.917C349.092 373.558 347.851 370.959 347.851 367.296V275.912C347.851 268.232 353.286 258.84 359.902 255L440.299 208.569C443.607 206.679 446.561 206.502 448.747 207.683L443.43 204.611Z" fill="url(#paint7_linear_1201_814)"/>
<path d="M429.019 300.722L404.681 314.781C404.326 312.891 402.85 312.005 401.018 312.654V305.979L420.217 294.874C422.107 293.751 423.702 291.093 423.702 288.848V259.785C423.702 257.599 422.166 256.654 420.217 257.776L390.503 274.907L389.027 273.194C388.377 272.426 387.314 272.426 386.132 273.076L379.93 276.679C378.039 277.802 376.444 280.46 376.444 282.705V316.14C376.444 318.325 377.98 319.271 379.93 318.148L399.128 307.043V313.718C397.297 315.195 395.82 317.735 395.466 320.098L371.128 334.157C370.596 334.452 370.183 335.161 370.183 335.811C370.183 336.461 370.596 336.638 371.128 336.342L395.466 322.283C395.879 324.528 397.828 325.296 400.073 323.996C402.377 322.697 404.267 319.684 404.681 316.967L429.019 302.908C429.55 302.612 429.964 301.903 429.964 301.254C429.964 300.604 429.55 300.427 429.019 300.722ZM379.93 315.963C379.043 316.435 378.335 316.081 378.335 315.076V281.642C378.335 280.637 379.043 279.397 379.93 278.924L386.132 275.321C386.664 275.025 387.136 275.025 387.432 275.321L389.204 277.388C389.204 277.388 389.676 277.625 389.972 277.388L420.217 259.962C421.103 259.489 421.812 259.844 421.812 260.848V289.912C421.812 290.916 421.103 292.156 420.217 292.629L379.93 315.903V315.963ZM400.073 321.752C398.537 322.638 397.238 321.929 397.238 320.098C397.238 318.266 398.537 316.081 400.073 315.195C401.609 314.309 402.909 315.017 402.909 316.849C402.909 318.68 401.609 320.866 400.073 321.752ZM400.073 286.485C399.364 286.899 398.833 287.844 398.833 288.671C398.833 289.498 399.423 289.794 400.073 289.38C400.782 288.967 401.314 288.021 401.314 287.194C401.314 286.367 400.723 286.072 400.073 286.485ZM405.094 283.591C404.385 284.004 403.854 284.95 403.854 285.777C403.854 286.604 404.445 286.899 405.094 286.485C405.803 286.072 406.335 285.127 406.335 284.3C406.335 283.473 405.744 283.177 405.094 283.591ZM394.993 289.38C394.284 289.794 393.752 290.739 393.752 291.566C393.752 292.393 394.343 292.688 394.993 292.275C395.702 291.861 396.234 290.916 396.234 290.089C396.234 289.262 395.643 288.967 394.993 289.38Z" fill="#C4CAE9"/>
<path d="M400.128 303.203C400.128 295.583 405.503 286.308 412.061 282.469L491.749 236.451C498.306 232.671 503.682 235.742 503.682 243.363V338.056C503.682 345.676 498.306 354.95 491.749 358.79L412.061 404.807C405.503 408.588 400.128 405.516 400.128 397.896V303.203Z" fill="#F1F1F6"/>
<path d="M494.94 232.612C492.755 231.194 489.683 231.312 486.257 233.261L406.568 279.279C400.011 283.059 394.636 292.393 394.636 300.013V394.706C394.636 398.664 396.113 401.44 398.475 402.563L403.438 405.457C401.429 404.157 400.189 401.558 400.189 397.955V303.262C400.189 295.642 405.564 286.367 412.121 282.528L491.81 236.51C495.059 234.62 498.012 234.443 500.198 235.624L494.94 232.612Z" fill="url(#paint8_linear_1201_814)"/>
<g style="mix-blend-mode:multiply">
<path d="M446.8 327.777C443.905 327.245 441.897 324.351 441.897 319.743C441.897 312.714 446.386 304.443 451.939 301.254C457.492 298.064 461.982 301.135 461.982 308.165C461.982 312.773 460.032 317.912 457.079 321.811C465.585 320.216 470.961 325.532 470.961 332.444C469.484 333.271 451.939 343.431 451.939 343.431C451.939 343.431 434.336 353.592 432.918 354.419C432.918 347.507 438.294 335.988 446.8 327.777Z" fill="#D1D7F3"/>
</g>
<defs>
<linearGradient id="paint0_linear_1201_814" x1="-17.0958" y1="153.632" x2="78.2469" y2="-11.4752" gradientUnits="userSpaceOnUse">
<stop offset="0.41" stop-color="#5652CC"/>
<stop offset="0.5" stop-color="#6F6CE8"/>
<stop offset="0.57" stop-color="#807DFB"/>
</linearGradient>
<linearGradient id="paint1_linear_1201_814" x1="31.6377" y1="184.231" x2="126.803" y2="19.4787" gradientUnits="userSpaceOnUse">
<stop offset="0.41" stop-color="#BBC0E6"/>
<stop offset="0.58" stop-color="#CED3F8"/>
</linearGradient>
<linearGradient id="paint2_linear_1201_814" x1="80.0747" y1="212.055" x2="177.662" y2="42.9896" gradientUnits="userSpaceOnUse">
<stop offset="0.41" stop-color="#669085"/>
<stop offset="0.57" stop-color="#5376A3"/>
</linearGradient>
<linearGradient id="paint3_linear_1201_814" x1="124.793" y1="241.354" x2="220.963" y2="74.7113" gradientUnits="userSpaceOnUse">
<stop offset="0.41" stop-color="#BBC0E6"/>
<stop offset="0.58" stop-color="#CED3F8"/>
</linearGradient>
<linearGradient id="paint4_linear_1201_814" x1="178.315" y1="267.819" x2="273.658" y2="102.711" gradientUnits="userSpaceOnUse">
<stop offset="0.41" stop-color="#5652CC"/>
<stop offset="0.5" stop-color="#6F6CE8"/>
<stop offset="0.57" stop-color="#807DFB"/>
</linearGradient>
<linearGradient id="paint5_linear_1201_814" x1="228.941" y1="298.95" x2="324.284" y2="133.843" gradientUnits="userSpaceOnUse">
<stop offset="0.41" stop-color="#669085"/>
<stop offset="0.57" stop-color="#5376A3"/>
</linearGradient>
<linearGradient id="paint6_linear_1201_814" x1="275.606" y1="327.895" x2="370.949" y2="162.788" gradientUnits="userSpaceOnUse">
<stop offset="0.41" stop-color="#5652CC"/>
<stop offset="0.5" stop-color="#6F6CE8"/>
<stop offset="0.57" stop-color="#807DFB"/>
</linearGradient>
<linearGradient id="paint7_linear_1201_814" x1="324.754" y1="359.676" x2="421.573" y2="191.97" gradientUnits="userSpaceOnUse">
<stop offset="0.41" stop-color="#F4F9DD"/>
<stop offset="0.57" stop-color="#9186C9"/>
</linearGradient>
<linearGradient id="paint8_linear_1201_814" x1="376.028" y1="389.685" x2="473.734" y2="220.384" gradientUnits="userSpaceOnUse">
<stop offset="0.41" stop-color="#BBC0E6"/>
<stop offset="0.58" stop-color="#CED3F8"/>
</linearGradient>
</defs>
</svg>
