<svg width="251" height="349" viewBox="0 0 251 349" fill="none" xmlns="http://www.w3.org/2000/svg">
<path d="M182.906 216.18V220.228L129.121 252.013C128.779 252.229 128.383 252.301 128.006 252.247H127.916C126.944 252.247 126.171 251.474 126.171 250.502V216.288L115.378 222.53V218.483L127.034 211.755C127.574 211.449 128.24 211.449 128.779 211.755C129.319 212.061 129.661 212.637 129.661 213.266V247.642L182.906 216.18Z" fill="url(#paint0_linear_1473_1142)"/>
<path d="M4.94679 342.765C4.94679 348.054 8.68838 350.212 13.2574 347.568L242.556 215.191C247.125 212.547 250.867 206.071 250.867 200.782V8.77379C250.867 3.48519 247.125 1.32658 242.556 3.97088L13.2574 136.348C8.68838 138.992 4.94679 145.468 4.94679 150.756V342.765Z" fill="#F1F1F6"/>
<path d="M8.32864 133.506L237.627 1.1289C239.894 -0.184255 241.944 -0.310174 243.455 0.535282C243.455 0.535282 243.491 0.535282 243.509 0.571259L248.384 3.37745C246.891 2.532 244.822 2.65792 242.556 3.97107L13.2575 136.348C8.68841 138.992 4.94682 145.468 4.94682 150.757V342.765C4.94682 345.284 5.81026 347.1 7.19537 348L2.77022 345.445C1.07931 344.654 0 342.729 0 339.923V147.914C0 142.626 3.74159 136.15 8.31065 133.506H8.32864Z" fill="url(#paint1_linear_1473_1142)"/>
<path d="M73.6986 173.278V242.551L115.378 218.483L127.034 211.755C127.574 211.449 128.24 211.449 128.779 211.755C129.319 212.061 129.661 212.636 129.661 213.266V250.502C129.661 251.437 128.941 252.193 128.006 252.247H127.916C126.944 252.247 126.171 251.473 126.171 250.502V216.288L115.378 222.53L72.8172 247.102C72.2775 247.408 71.6119 247.408 71.0723 247.102C70.5326 246.778 70.2088 246.203 70.2088 245.573V172.27C70.2088 171.659 70.5326 171.083 71.0723 170.759L142.81 129.098L141.929 133.631L73.6986 173.278Z" fill="#DAE0F5"/>
<path d="M129.661 98.4644H126.171V138.327H129.661V98.4644Z" fill="url(#paint2_linear_1473_1142)"/>
<path d="M120.163 94.0027L135.651 85.0444V102.943L120.163 111.883V94.0027Z" fill="url(#paint3_linear_1473_1142)"/>
<path d="M119.533 216.108V220.137L107.823 226.901L72.8172 247.12C72.2775 247.426 71.6119 247.426 71.0723 247.12C70.5326 246.796 70.2088 246.22 70.2088 245.591V215.083H73.6986V242.569L107.823 222.872L119.533 216.108Z" fill="#DAE0F5"/>
<path d="M130.488 92.6362L126.854 100.947L125.164 99.7956L124.03 102.026L127.052 104.293L131.783 93.2838L130.488 92.6362Z" fill="white"/>
<path d="M142.81 129.099L141.929 133.632L73.6986 173.278V204.11H70.2089V172.271C70.2089 171.659 70.5327 171.084 71.0723 170.76L142.81 129.099Z" fill="url(#paint4_linear_1473_1142)"/>
<path d="M127.916 127.317L107.823 151.566L127.916 152.609L148.009 128.361L127.916 127.317Z" fill="url(#paint5_linear_1473_1142)"/>
<path d="M130.488 132.499L126.854 140.827L125.164 139.658L124.03 141.888L127.052 144.155L131.783 133.146L130.488 132.499Z" fill="white"/>
<path d="M61.2866 215.083C61.2866 208.283 66.0535 200.027 71.9357 196.627C77.818 193.227 82.5849 195.979 82.5849 202.779C82.5849 209.579 77.818 217.835 71.9357 221.235C66.0535 224.635 61.2866 221.883 61.2866 215.083Z" fill="#3F3F60"/>
<path d="M74.58 203.409L70.9464 211.737L69.2555 210.568L68.1402 212.799L71.1442 215.083L75.8752 204.056L74.58 203.409Z" fill="white"/>
<path d="M184.759 219.131L182.906 220.228V216.181L183.014 216.109L184.759 219.131Z" fill="#DAE0F5"/>
<path d="M182.906 216.18V220.228L129.121 252.013C128.779 252.229 128.383 252.301 128.006 252.247H127.916C126.944 252.247 126.171 251.474 126.171 250.502V216.288L115.378 222.53V218.483L127.034 211.755C127.574 211.449 128.24 211.449 128.779 211.755C129.319 212.061 129.661 212.637 129.661 213.266V247.642L182.906 216.18Z" fill="#DAE0F5"/>
<path d="M173.229 236.076L194.545 223.772V199.164L173.229 211.468V236.076Z" fill="#BCCFE5"/>
<path d="M148.009 214.327L107.823 237.514V212.241L148.009 189.036V214.327Z" fill="#BCCFE5"/>
<defs>
<linearGradient id="paint0_linear_1473_1142" x1="115.378" y1="231.902" x2="182.906" y2="231.902" gradientUnits="userSpaceOnUse">
<stop offset="0.3" stop-color="#7CB1A4"/>
<stop offset="0.43" stop-color="#6CA899"/>
<stop offset="0.85" stop-color="#43907C"/>
</linearGradient>
<linearGradient id="paint1_linear_1473_1142" x1="185.695" y1="-32.8333" x2="-23.8347" y2="330.083" gradientUnits="userSpaceOnUse">
<stop stop-color="#4579BB"/>
<stop offset="0.03" stop-color="#497BBD"/>
<stop offset="1" stop-color="#0349A3"/>
</linearGradient>
<linearGradient id="paint2_linear_1473_1142" x1="127.916" y1="109.833" x2="127.916" y2="128.649" gradientUnits="userSpaceOnUse">
<stop offset="0.29" stop-color="#D8E8E3"/>
<stop offset="0.84" stop-color="#C5DCD7"/>
<stop offset="0.91" stop-color="#C3DBD6"/>
</linearGradient>
<linearGradient id="paint3_linear_1473_1142" x1="120.163" y1="98.4638" x2="135.651" y2="98.4638" gradientUnits="userSpaceOnUse">
<stop offset="0.3" stop-color="#7CB1A4"/>
<stop offset="0.43" stop-color="#6CA899"/>
<stop offset="0.85" stop-color="#43907C"/>
</linearGradient>
<linearGradient id="paint4_linear_1473_1142" x1="106.51" y1="202.689" x2="106.51" y2="162.143" gradientUnits="userSpaceOnUse">
<stop offset="0.29" stop-color="#D8E8E3"/>
<stop offset="0.84" stop-color="#C5DCD7"/>
<stop offset="0.91" stop-color="#C3DBD6"/>
</linearGradient>
<linearGradient id="paint5_linear_1473_1142" x1="107.823" y1="139.963" x2="148.009" y2="139.963" gradientUnits="userSpaceOnUse">
<stop offset="0.3" stop-color="#7CB1A4"/>
<stop offset="0.43" stop-color="#6CA899"/>
<stop offset="0.85" stop-color="#43907C"/>
</linearGradient>
</defs>
</svg>
