<svg width="174" height="174" viewBox="0 0 174 174" fill="none" xmlns="http://www.w3.org/2000/svg">
<circle cx="87" cy="87" r="87" fill="#F4F9DD"/>
<path d="M90.3984 51.0767V89.0338L57.5266 108.012C57.5266 87.0478 72.2425 61.5548 90.3984 51.0767Z" fill="#807DFB"/>
<path d="M90.3985 51.0682L106.66 60.4578L74.4611 117.792L57.5267 108.021C57.5267 111.203 57.8673 114.095 58.5072 116.679C59.147 119.263 60.0859 121.532 61.2908 123.484C62.7034 125.769 64.4899 127.597 66.5672 128.927L60.3602 125.337C58.2828 124.008 56.5046 122.188 55.0837 119.895C52.6823 116.006 51.3196 110.804 51.3196 104.431C51.3196 83.4581 66.0438 57.9733 84.1914 47.4869C93.3234 42.2188 101.583 41.7451 107.541 45.2517L113.341 48.6003C107.416 45.3597 99.331 45.9247 90.4151 51.0682H90.3985Z" fill="url(#paint0_linear_1667_12)"/>
<path d="M123.27 70.0469C123.27 91.0113 108.554 116.504 90.3984 126.983C77.7599 134.278 66.7915 132.367 61.2991 123.476C58.8893 119.587 57.5349 114.377 57.5349 108.004C57.5266 87.0478 72.2425 61.5547 90.3984 51.0683C108.554 40.5902 123.27 49.0907 123.27 70.0469Z" fill="url(#paint1_linear_1667_12)"/>
<path d="M101.865 81.5636L92.5672 86.9315V76.1958L88.2297 78.7052V89.4409L78.9315 94.8087V99.8193L88.2297 94.4514V105.187L92.5672 102.678V91.942L101.865 86.5742V81.5636Z" fill="white"/>
<defs>
<linearGradient id="paint0_linear_1667_12" x1="51.3196" y1="85.992" x2="113.341" y2="85.992" gradientUnits="userSpaceOnUse">
<stop offset="0.44" stop-color="#CDDBEE"/>
<stop offset="0.49" stop-color="#BCCFE8"/>
<stop offset="0.58" stop-color="#99B7DE"/>
</linearGradient>
<linearGradient id="paint1_linear_1667_12" x1="123.282" y1="89.0265" x2="57.5368" y2="89.0265" gradientUnits="userSpaceOnUse">
<stop stop-color="#1253A9"/>
<stop offset="0.57" stop-color="#2E67B2"/>
<stop offset="1" stop-color="#3F74B8"/>
</linearGradient>
</defs>
</svg>
