<svg width="189" height="174" viewBox="0 0 189 174" fill="none" xmlns="http://www.w3.org/2000/svg">
<circle cx="87" cy="87" r="87" fill="#F4F9DD"/>
<path style="mix-blend-mode:multiply" d="M180.162 134.107C184.595 125.216 159.016 103.463 123.03 85.5212C87.044 67.5792 54.2778 60.2421 49.8448 69.1334C45.4118 78.0246 70.9906 99.7773 106.977 117.719C142.963 135.661 175.729 142.998 180.162 134.107Z" fill="url(#paint0_radial_1667_11)"/>
<path d="M133.587 83.7199C135.098 82.848 135.098 81.4238 133.587 80.552L92.1716 56.6397C90.6609 55.7679 88.1918 55.7679 86.6811 56.6397L67.7869 67.5476C66.2761 68.4195 66.2761 69.8437 67.7869 70.7155L109.202 94.6278C110.713 95.4996 113.182 95.4996 114.693 94.6278L133.587 83.7199Z" fill="white"/>
<path d="M91.1134 63.3815L89.3431 62.3633L91.1134 61.3384L92.8837 62.3633L91.1134 63.3815Z" fill="#D0DDEE"/>
<path d="M94.0949 65.1052L92.3246 64.0869L94.0949 63.062L95.8652 64.0869L94.0949 65.1052Z" fill="#D0DDEE"/>
<path d="M97.0764 66.8293L95.3062 65.8044L97.0764 64.7861L98.8534 65.8044L97.0764 66.8293Z" fill="#D0DDEE"/>
<path d="M100.065 68.5529L98.2877 67.528L100.065 66.5098L101.835 67.528L100.065 68.5529Z" fill="#D0DDEE"/>
<path d="M103.046 70.2764L101.276 69.2515L103.046 68.2266L104.816 69.2515L103.046 70.2764Z" fill="#D0DDEE"/>
<path d="M106.028 71.9934L104.257 70.9751L106.028 69.9502L107.798 70.9751L106.028 71.9934Z" fill="#D0DDEE"/>
<path d="M109.009 73.717L107.239 72.6987L109.009 71.6738L110.78 72.6987L109.009 73.717Z" fill="#D0DDEE"/>
<path d="M111.998 75.4411L110.221 74.4162L111.998 73.3979L113.768 74.4162L111.998 75.4411Z" fill="#D0DDEE"/>
<path d="M114.979 77.1647L113.209 76.1398L114.979 75.1216L116.749 76.1398L114.979 77.1647Z" fill="#D0DDEE"/>
<path d="M117.961 78.8882L116.19 77.8633L117.961 76.8384L119.731 77.8633L117.961 78.8882Z" fill="#D0DDEE"/>
<path d="M120.942 80.6118L119.172 79.5869L120.942 78.562L122.712 79.5869L120.942 80.6118Z" fill="#D0DDEE"/>
<path d="M123.93 82.3293L122.153 81.311L123.93 80.2861L125.701 81.311L123.93 82.3293Z" fill="#D0DDEE"/>
<path d="M89.5427 65.9238L86.3549 64.0869L88.1318 63.062L91.313 64.8989L89.5427 65.9238Z" fill="#D0DDEE"/>
<path d="M87.8923 68.273L83.4999 65.7373L85.2702 64.7124L89.6693 67.248L87.8923 68.273Z" fill="#D0DDEE"/>
<path d="M86.122 70.6959L80.5183 67.4614L82.2886 66.4365L87.8923 69.671L86.122 70.6959Z" fill="#D0DDEE"/>
<path d="M80.0924 71.3813L76.9045 69.5444L79.3004 68.1602L82.4883 69.997L80.0924 71.3813Z" fill="#D0DDEE"/>
<path d="M84.4848 73.9169L81.3036 72.0801L83.6995 70.6958L86.8873 72.5326L84.4848 73.9169Z" fill="#D0DDEE"/>
<path d="M88.8839 76.4592L85.696 74.6157L88.0986 73.2314L91.2798 75.0749L88.8839 76.4592Z" fill="#D0DDEE"/>
<path d="M104.045 85.2107L100.857 83.3739L103.253 81.9829L106.44 83.8264L104.045 85.2107Z" fill="#D0DDEE"/>
<path d="M111.492 89.51L105.249 85.9028L107.645 84.5186L113.888 88.1257L111.492 89.51Z" fill="#D0DDEE"/>
<path d="M99.652 82.6749L90.0951 77.1577L92.491 75.7734L102.048 81.2906L99.652 82.6749Z" fill="#D0DDEE"/>
<path d="M93.363 68.1266L90.7542 66.6226L92.5244 65.5977L95.1333 67.1017L93.363 68.1266Z" fill="#D0DDEE"/>
<path d="M91.7124 70.4759L89.1102 68.9719L90.8805 67.9536L93.4827 69.4577L91.7124 70.4759Z" fill="#D0DDEE"/>
<path d="M90.022 72.8522L87.4198 71.3481L89.1901 70.3232L91.7923 71.8273L90.022 72.8522Z" fill="#D0DDEE"/>
<path d="M93.8421 75.055L91.2333 73.551L93.0036 72.5327L95.6124 74.0368L93.8421 75.055Z" fill="#D0DDEE"/>
<path d="M97.6622 77.2643L95.0533 75.7603L96.8236 74.7354L99.4325 76.2394L97.6622 77.2643Z" fill="#D0DDEE"/>
<path d="M101.476 79.4675L98.8734 77.9634L100.644 76.9385L103.246 78.4426L101.476 79.4675Z" fill="#D0DDEE"/>
<path d="M105.296 81.6701L102.687 80.166L104.464 79.1411L107.066 80.6452L105.296 81.6701Z" fill="#D0DDEE"/>
<path d="M109.116 83.8729L106.507 82.3688L108.277 81.3506L110.886 82.8547L109.116 83.8729Z" fill="#D0DDEE"/>
<path d="M115.185 87.3805L110.327 84.572L112.097 83.5537L116.956 86.3556L115.185 87.3805Z" fill="#D0DDEE"/>
<path d="M95.5324 72.6857L92.9236 71.175L94.6939 70.1567L97.3027 71.6608L95.5324 72.6857Z" fill="#D0DDEE"/>
<path d="M99.3526 74.8889L96.7438 73.3848L98.5141 72.3599L101.123 73.8639L99.3526 74.8889Z" fill="#D0DDEE"/>
<path d="M103.166 77.0915L100.564 75.5874L102.334 74.5625L104.936 76.0666L103.166 77.0915Z" fill="#D0DDEE"/>
<path d="M106.986 79.2946L104.377 77.7905L106.148 76.7656L108.756 78.2764L106.986 79.2946Z" fill="#D0DDEE"/>
<path d="M110.806 81.4974L108.197 79.9933L109.968 78.9751L112.577 80.4792L110.806 81.4974Z" fill="#D0DDEE"/>
<path d="M118.087 85.7033L112.018 82.196L113.788 81.1777L119.857 84.6784L118.087 85.7033Z" fill="#D0DDEE"/>
<path d="M97.1764 70.33L94.5742 68.8259L96.3445 67.8076L98.9467 69.3117L97.1764 70.33Z" fill="#D0DDEE"/>
<path d="M100.996 72.5392L98.3876 71.0285L100.165 70.0103L102.767 71.5143L100.996 72.5392Z" fill="#D0DDEE"/>
<path d="M104.817 74.7419L102.208 73.2378L103.978 72.2129L106.587 73.717L104.817 74.7419Z" fill="#D0DDEE"/>
<path d="M108.63 76.945L106.028 75.4409L107.798 74.416L110.407 75.9201L108.63 76.945Z" fill="#D0DDEE"/>
<path d="M112.45 79.1481L109.841 77.644L111.618 76.6191L114.22 78.1299L112.45 79.1481Z" fill="#D0DDEE"/>
<path d="M116.27 81.3505L113.661 79.8464L115.432 78.8281L118.041 80.3322L116.27 81.3505Z" fill="#D0DDEE"/>
<path d="M120.942 84.0527L117.481 82.0562L119.252 81.0312L122.712 83.0278L120.942 84.0527Z" fill="#D0DDEE"/>
<path d="M67.7869 70.7158L109.202 94.628C110.713 95.4999 113.182 95.4999 114.693 94.628L133.587 83.7201C134.339 83.2875 134.719 82.7085 134.719 82.1362V83.3341C134.719 83.9131 134.346 84.4855 133.587 84.9247L114.693 95.8326C113.182 96.7045 110.713 96.7045 109.202 95.8326L67.7869 71.9204C67.0149 71.4745 66.6422 70.8888 66.6555 70.3032V69.1318C66.6555 69.7042 67.0348 70.2832 67.7869 70.7158Z" fill="#BFD0E6"/>
<path d="M136.329 42.9171C136.329 41.1734 135.091 39.0371 133.587 38.1653L92.1716 14.2464C90.6609 13.3745 89.4297 14.0866 89.4297 15.8303V51.8884C89.4297 53.632 90.6676 55.7684 92.1716 56.6402L133.587 80.5525C135.098 81.4243 136.329 80.7122 136.329 78.9685V42.9171Z" fill="url(#paint1_linear_1667_11)"/>
<path style="mix-blend-mode:screen" d="M133.587 80.5519L92.1716 56.6397C90.6609 55.7679 89.4297 53.6315 89.4297 51.8879V18.625C93.1367 20.768 91.5394 30.3515 94.3612 31.9821C96.3445 33.1268 96.8037 27.949 99.6987 29.6194C102.747 31.3831 103.971 45.8649 107.399 47.8481C110.141 49.4321 110.527 44.8932 113.255 46.4705C116.916 48.5869 116.849 58.5231 120.436 60.5863C124.17 62.7425 127.072 48.6601 130.586 50.6899C132.562 51.828 134.852 59.1421 136.336 63.1419V78.9613C136.336 80.705 135.098 81.4171 133.594 80.5453L133.587 80.5519Z" fill="url(#paint2_linear_1667_11)"/>
<g style="mix-blend-mode:screen">
<path d="M112.796 66.0572L113.708 66.5829V46.7304L112.796 46.2046V66.0572Z" fill="#614DC9"/>
</g>
<path d="M114.533 47.2092C114.533 46.3906 113.961 45.3923 113.249 44.9863C112.537 44.5737 111.964 44.9065 111.964 45.7251C111.964 46.5437 112.537 47.5419 113.249 47.9479C113.961 48.3605 114.533 48.0278 114.533 47.2092Z" fill="white"/>
<path d="M126.839 38.917L131.983 41.8852V39.8953L126.839 36.9204V38.917Z" fill="#3A70B4"/>
<path d="M127.325 41.7788L131.983 44.4675V43.1963L127.325 40.501V41.7788Z" fill="#3A70B4"/>
<path d="M136.329 78.9682V42.9168C136.329 41.1731 135.091 39.0368 133.587 38.1649L92.1717 14.246C91.4263 13.8134 90.7474 13.7735 90.2483 14.0463L91.6858 13.2144C92.185 12.895 92.8904 12.9216 93.6757 13.3675L135.091 37.2798C136.602 38.1516 137.833 40.2879 137.833 42.0316V78.083C137.833 78.9948 137.494 79.6204 136.955 79.8932L135.584 80.6852C136.043 80.3857 136.322 79.7868 136.322 78.9548L136.329 78.9682Z" fill="url(#paint3_linear_1667_11)"/>
<path d="M84.1122 120.004C84.1122 115.565 86.9273 115.439 86.9273 115.439C86.9273 115.439 88.4514 115.439 90.9271 114.407C93.3696 113.396 96.8104 113.782 94.887 117.329C94.8737 117.376 94.8471 117.416 94.8205 117.462C94.7007 117.649 94.501 117.835 94.1949 118.008L88.0521 121.615C87.1137 122.147 84.1388 120.916 84.1188 119.998L84.1122 120.004Z" fill="url(#paint4_linear_1667_11)"/>
<path d="M84.1322 119.605C84.1854 120.517 87.1204 121.728 88.0521 121.195L94.1949 117.588C94.3946 117.475 94.7473 117.236 95.0601 116.956C95.0002 117.076 94.9536 117.196 94.8804 117.329C94.8671 117.375 94.8405 117.415 94.8138 117.462C94.6941 117.648 94.4944 117.835 94.1883 118.008L88.0455 121.615C87.167 122.114 84.5049 121.062 84.1522 120.177C84.1389 120.111 84.1255 120.044 84.1255 119.997C84.1122 119.858 84.1255 119.738 84.1255 119.605H84.1322Z" fill="#0F50A3"/>
<path d="M85.2569 114.853C85.9823 114.853 88.5313 115.499 88.5313 115.499C88.5313 115.499 88.5446 115.851 88.7576 116.157C88.7842 116.184 88.8041 116.217 88.8308 116.244C89.3299 116.597 89.8424 117.149 88.6511 117.894C87.6728 118.507 86.8808 118.121 86.5014 117.741C86.3484 117.455 86.1221 117.136 85.8093 116.956C85.4832 116.77 85.2835 116.683 85.1438 116.677C85.1438 116.657 85.1371 116.617 85.1371 116.617C85.1371 116.617 84.9508 114.853 85.2569 114.853Z" fill="white"/>
<path d="M61.298 108.318C62.436 104.191 62.9485 99.8323 64.0599 94.9873C66.7286 94.4548 87.9988 84.1259 90.8738 89.683C90.9737 89.876 91.0203 90.0957 91.0136 90.3419C92.0318 95.5197 88.6244 115.765 88.6244 115.765C88.5711 115.965 88.4181 116.158 88.1518 116.311C87.4797 116.697 86.4015 116.697 85.7293 116.311C85.4232 116.138 85.177 115.911 85.1437 115.678C85.1437 115.678 83.6596 103.632 84.1188 98.3082C76.8047 103.978 65.7237 109.788 61.3113 108.318H61.298Z" fill="#0F50A3"/>
<path d="M92.8439 125.968C92.8439 121.528 95.659 121.402 95.659 121.402C95.659 121.402 97.1831 121.402 99.6588 120.377C102.101 119.366 105.542 119.752 103.619 123.299C103.599 123.339 103.579 123.385 103.552 123.432C103.432 123.618 103.233 123.805 102.927 123.978L96.7838 127.585C95.8454 128.117 92.8705 126.886 92.8505 125.968H92.8439Z" fill="url(#paint5_linear_1667_11)"/>
<path d="M92.8572 125.568C92.9104 126.48 95.8454 127.691 96.7771 127.159L102.92 123.552C103.126 123.432 103.472 123.199 103.785 122.919C103.725 123.039 103.679 123.159 103.605 123.292C103.585 123.332 103.565 123.379 103.539 123.425C103.419 123.612 103.219 123.798 102.913 123.971L96.7705 127.578C95.892 128.077 93.2299 127.026 92.8771 126.141C92.8638 126.074 92.8505 126.007 92.8505 125.961C92.8372 125.821 92.8505 125.701 92.8505 125.568H92.8572Z" fill="#0F50A3"/>
<path d="M93.9818 120.816C94.7072 120.816 97.2562 121.462 97.2562 121.462C97.2562 121.462 97.2761 121.815 97.4825 122.121C97.5091 122.147 97.529 122.181 97.5557 122.207C98.0548 122.56 98.5673 123.112 97.376 123.858C96.3977 124.47 95.6057 124.084 95.2263 123.705C95.0733 123.419 94.847 123.099 94.5342 122.919C94.2081 122.733 94.0084 122.647 93.8687 122.64C93.8687 122.62 93.8687 122.58 93.8687 122.58C93.8687 122.58 93.6823 120.816 93.9885 120.816H93.9818Z" fill="white"/>
<path d="M99.7453 96.3052C100.764 101.483 97.356 121.728 97.356 121.728C97.3028 121.928 97.1497 122.121 96.8835 122.274C96.218 122.66 95.1332 122.66 94.461 122.274C94.1549 122.101 93.9086 121.875 93.8753 121.642C93.8753 121.642 92.3912 109.596 92.8438 104.271C95.3062 102.448 99.7519 99.4331 99.7519 96.3052H99.7453Z" fill="url(#paint6_linear_1667_11)"/>
<path d="M64.426 152.282L33 134.14V110.66L64.426 128.802V152.282Z" fill="#BCCFE5"/>
<path d="M64.4259 152.282L95.8519 134.14V110.66L64.4259 128.802V152.282Z" fill="#D0DDEE"/>
<path d="M64.426 128.803L95.852 110.661L64.426 92.5186L33 110.661L64.426 128.803Z" fill="white"/>
<path style="mix-blend-mode:multiply" d="M79.9326 78.935C80.6514 78.3228 80.5715 78.4226 81.3835 77.797C81.4367 77.6373 81.4567 77.4842 81.4633 77.3311C81.6763 77.2446 81.8693 77.1781 81.9625 77.1847C82.608 77.2247 83.0805 77.1714 83.4466 77.0583C83.9923 76.9185 85.1769 73.6508 87.9721 73.8172C87.1935 74.4428 86.1553 75.7339 86.3682 75.6008C86.3549 75.6274 86.9872 75.1149 87.646 75.7073C87.2001 76.0733 85.6428 77.1315 84.3251 77.4642C83.959 77.5774 83.4799 77.6306 82.841 77.5907C82.7478 77.5907 82.5614 77.6506 82.3418 77.7371C82.3418 77.8902 82.3152 78.0432 82.2619 78.203C81.6164 78.7021 81.0574 79.168 80.7645 79.4209C80.6381 79.3477 80.0657 79.0216 79.9326 78.935Z" fill="url(#paint7_linear_1667_11)"/>
<path style="mix-blend-mode:multiply" d="M94.4543 82.7752C94.4942 82.6488 94.5142 82.529 94.5275 82.4025C97.163 82.5623 97.8684 80.7853 98.667 79.9867C99.4657 79.1814 99.652 78.9019 100.544 78.9019C101.436 78.9019 102.121 78.1898 101.269 77.6507C101.056 77.5176 100.823 77.3978 100.604 77.2847C100.657 77.3046 100.717 77.3246 100.77 77.3512C100.97 77.4444 101.642 77.7306 102.154 78.05C103.006 78.5891 102.327 79.3012 101.429 79.3012C100.531 79.3012 100.351 79.5807 99.5522 80.386C98.7536 81.1846 98.0481 82.9616 95.4126 82.8019C95.3993 82.9217 95.386 83.0481 95.3394 83.1745C93.7488 84.4058 93.3961 84.865 92.0185 85.9032L91.0801 85.3774C92.4311 84.3525 92.897 83.9732 94.4609 82.7686L94.4543 82.7752Z" fill="url(#paint8_linear_1667_11)"/>
<path d="M73.2707 83.2544C72.4921 83.4341 71.6469 83.5006 70.7085 83.4208C70.4889 83.4008 70.2759 83.3609 70.0696 83.2943C70.5421 83.5805 71.0546 83.7735 71.5936 83.8267C72.4122 83.9 73.151 83.8534 73.8431 83.7203C73.6567 83.5672 73.4637 83.4141 73.2707 83.261V83.2544Z" fill="url(#paint9_linear_1667_11)"/>
<path d="M72.7916 100.95C75.4604 100.418 96.7305 90.0888 99.6055 95.6459C99.7054 95.8389 99.752 96.0585 99.7453 96.3048C99.7453 99.4328 95.2996 102.448 92.8372 104.271C85.5231 109.941 74.4421 115.751 70.0297 114.281C62.882 111.898 59.2881 110.015 57.012 105.15C56.2667 103.552 56.1069 99.0867 56.1069 97.17C64.0134 93.2567 70.1894 96.784 72.7916 100.943V100.95Z" fill="url(#paint10_linear_1667_11)"/>
<path d="M87.8457 72.8187C87.3332 72.4993 86.661 72.2131 86.4614 72.1199C85.5696 71.694 84.1387 72.0334 83.746 72.3129C83.3534 72.5858 80.891 74.0965 80.4251 75.0748C80.4251 75.0748 79.5 75.554 79.1406 75.7337L80.4916 77.7968C80.4916 77.7968 81.6763 77.1646 81.9558 77.1846C82.6013 77.2245 83.0739 77.1712 83.4399 77.0581C84.7576 76.7187 86.315 75.6672 86.7609 75.3011C86.102 74.7088 85.3766 75.3677 84.8841 75.6272C84.9839 75.4608 85.0971 75.2945 85.2435 75.1547C86.0421 74.3494 86.2284 74.0699 87.1202 74.0699C88.0121 74.0699 88.6975 73.3578 87.8457 72.8187Z" fill="#F1DFE6"/>
<path d="M81.3768 77.7967C81.8493 76.3858 80.1722 75.1412 79.1806 75.2344C74.5419 77.2576 72.2924 78.4555 70.7085 77.9897C64.0399 74.875 66.7553 83.0743 70.7085 83.4204C75.3339 83.8263 77.6832 80.6518 81.3768 77.7967Z" fill="url(#paint11_linear_1667_11)"/>
<path d="M62.07 67.3682C58.7158 68.1002 54.5097 70.2432 57.3115 76.0932C59.2216 80.0863 62.07 67.3682 62.07 67.3682Z" fill="#614DC9"/>
<path d="M62.6823 106.428C69.251 110.115 78.1757 108.77 79.4069 103.586C74.9346 88.5783 73.9296 78.6021 74.0361 72.4992C71.1411 70.2631 68.672 68.2732 66.549 67.794C64.3328 67.2948 61.3978 66.9155 60.1067 68.1534C56.0737 73.5907 57.1252 83.0012 56.1202 97.1768C56.8124 101.716 59.4612 104.611 62.6956 106.428H62.6823Z" fill="url(#paint12_linear_1667_11)"/>
<path d="M63.4743 67.6344C64.5924 66.5762 64.9318 64.8725 65.1181 62.9425C65.005 61.8776 65.0716 60.7396 65.3577 59.5949C66.4026 55.4553 69.8766 52.7666 73.1177 53.5852C76.3588 54.4038 78.1358 58.4236 77.0909 62.5565C76.1193 66.3899 72.7584 68.5063 69.7369 68.8257C69.5838 69.1518 70.1562 69.6243 70.6819 69.9638C68.2062 70.6226 65.9101 69.3248 64.6922 68.6593C64.06 68.3133 63.6141 67.9871 63.4677 67.6344H63.4743Z" fill="#F1DFE6"/>
<path d="M92.3846 80.4321C92.744 80.2457 93.3297 79.9396 93.3297 79.9396C93.3363 79.7333 94.0751 77.4106 96.0517 76.825C96.4576 77.4439 95.7588 77.943 95.1865 78.522C95.872 77.9697 96.7704 77.4239 97.1631 77.1444C97.5558 76.8715 98.9866 76.5255 99.8784 76.9514C100.078 77.0446 100.75 77.3308 101.263 77.6502C102.115 78.1893 101.436 78.9014 100.537 78.9014C99.6388 78.9014 99.4592 79.1809 98.6605 79.9862C97.8619 80.7915 97.1564 82.5751 94.5077 82.402C94.2281 82.3821 93.9087 82.6283 93.9087 82.6283L92.3846 80.4254V80.4321Z" fill="#F1DFE6"/>
<path d="M94.4544 82.7749C94.927 81.364 93.2498 80.1195 92.2582 80.2127C87.6195 82.2358 85.3701 83.4338 83.7861 82.9679C77.1176 79.8533 75.6867 74.0233 74.0362 72.4926C70.3159 69.8438 65.8369 75.7071 70.7152 80.9847C75.8664 85.8097 79.8396 88.0525 83.7861 88.3986C88.4115 88.8046 90.7608 85.63 94.4544 82.7749Z" fill="url(#paint13_linear_1667_11)"/>
<path d="M64.5258 58.7963C64.5258 58.7963 64.5258 58.7963 64.5258 58.7896C65.2179 56.7198 66.2362 54.9362 67.9599 53.7915C72.4921 50.7834 74.3489 51.0828 74.7815 51.7683C79.6465 51.176 80.7313 53.7583 77.397 57.4386C76.452 58.7031 76.8779 62.1904 75.1875 62.7029C75.3805 61.9109 74.1626 59.6548 73.2774 63.1754C73.1842 63.5548 73.4438 63.7012 73.0711 64.1338C72.6918 64.573 70.7817 65.4315 69.4573 66.2168C67.6138 67.315 67.0814 65.7776 64.5857 65.4315C64.8519 64.3867 64.7121 63.7943 64.5058 63.0556C64.3794 62.5831 64.1464 60.7529 64.5191 58.7963H64.5258Z" fill="#0F50A3"/>
<defs>
<radialGradient id="paint0_radial_1667_11" cx="0" cy="0" r="1" gradientUnits="userSpaceOnUse" gradientTransform="translate(102.5 97.5) rotate(26.709) scale(88.9958 28.1032)">
<stop stop-color="#769BCF" stop-opacity="0.4"/>
<stop offset="0.07" stop-color="#88A8D5" stop-opacity="0.35"/>
<stop offset="0.3" stop-color="#BBCEE7" stop-opacity="0.2"/>
<stop offset="0.53" stop-color="#E1E9F4" stop-opacity="0.09"/>
<stop offset="0.74" stop-color="#F7F9FC" stop-opacity="0.02"/>
<stop offset="0.94" stop-color="white" stop-opacity="0"/>
</radialGradient>
<linearGradient id="paint1_linear_1667_11" x1="89.2833" y1="54.6569" x2="136.961" y2="39.9955" gradientUnits="userSpaceOnUse">
<stop stop-color="#2A63AD"/>
<stop offset="1" stop-color="#6A92C6"/>
</linearGradient>
<linearGradient id="paint2_linear_1667_11" x1="-423.867" y1="-241.287" x2="-408.091" y2="-268.612" gradientUnits="userSpaceOnUse">
<stop/>
<stop offset="0.14" stop-color="#0E0B1E"/>
<stop offset="0.56" stop-color="#3A2E79"/>
<stop offset="0.86" stop-color="#5644B2"/>
<stop offset="1" stop-color="#614DC9"/>
</linearGradient>
<linearGradient id="paint3_linear_1667_11" x1="142.512" y1="76.6987" x2="102.314" y2="7.08497" gradientUnits="userSpaceOnUse">
<stop offset="0.4" stop-color="#2A63AD"/>
<stop offset="0.48" stop-color="#3A70B4"/>
</linearGradient>
<linearGradient id="paint4_linear_1667_11" x1="95.4394" y1="117.835" x2="84.1122" y2="117.835" gradientUnits="userSpaceOnUse">
<stop stop-color="#2A63AD"/>
<stop offset="1" stop-color="#2A63AD"/>
</linearGradient>
<linearGradient id="paint5_linear_1667_11" x1="104.164" y1="123.798" x2="92.8372" y2="123.798" gradientUnits="userSpaceOnUse">
<stop stop-color="#3A70B4"/>
<stop offset="0.03" stop-color="#396FB3"/>
<stop offset="1" stop-color="#2A63AD"/>
</linearGradient>
<linearGradient id="paint6_linear_1667_11" x1="99.9316" y1="109.436" x2="56.1002" y2="109.436" gradientUnits="userSpaceOnUse">
<stop stop-color="#4F7FBC"/>
<stop offset="0.18" stop-color="#3C71B4"/>
<stop offset="0.39" stop-color="#2E66AE"/>
<stop offset="0.58" stop-color="#2A63AD"/>
</linearGradient>
<linearGradient id="paint7_linear_1667_11" x1="84.7444" y1="78.2961" x2="83.7328" y2="75.8603" gradientUnits="userSpaceOnUse">
<stop stop-color="#C6D5E9"/>
<stop offset="0.3" stop-color="#D2DEED"/>
<stop offset="0.85" stop-color="#F4F7FB"/>
<stop offset="1" stop-color="white"/>
</linearGradient>
<linearGradient id="paint8_linear_1667_11" x1="97.8218" y1="84.4058" x2="96.0915" y2="80.2529" gradientUnits="userSpaceOnUse">
<stop stop-color="#C6D5E9"/>
<stop offset="1" stop-color="white"/>
</linearGradient>
<linearGradient id="paint9_linear_1667_11" x1="71.6402" y1="84.266" x2="72.126" y2="83.088" gradientUnits="userSpaceOnUse">
<stop stop-color="#42907C"/>
<stop offset="1" stop-color="#42907C"/>
</linearGradient>
<linearGradient id="paint10_linear_1667_11" x1="99.9317" y1="104.264" x2="56.1003" y2="104.264" gradientUnits="userSpaceOnUse">
<stop stop-color="#4F7FBC"/>
<stop offset="0.18" stop-color="#3C71B4"/>
<stop offset="0.39" stop-color="#2E66AE"/>
<stop offset="0.58" stop-color="#2A63AD"/>
</linearGradient>
<linearGradient id="paint11_linear_1667_11" x1="76.9311" y1="82.076" x2="73.6434" y2="77.9231" gradientUnits="userSpaceOnUse">
<stop stop-color="#806FD3"/>
<stop offset="0.63" stop-color="#6D5BCD"/>
<stop offset="1" stop-color="#614DC9"/>
</linearGradient>
<linearGradient id="paint12_linear_1667_11" x1="79.4003" y1="87.9194" x2="56.1003" y2="87.9194" gradientUnits="userSpaceOnUse">
<stop stop-color="#E7C9D5"/>
<stop offset="0.1" stop-color="#D6BAD4"/>
<stop offset="0.37" stop-color="#B19AD3"/>
<stop offset="0.61" stop-color="#9682D3"/>
<stop offset="0.83" stop-color="#8574D3"/>
<stop offset="1" stop-color="#806FD3"/>
</linearGradient>
<linearGradient id="paint13_linear_1667_11" x1="69.2111" y1="77.8101" x2="94.8205" y2="84.7249" gradientUnits="userSpaceOnUse">
<stop stop-color="#806FD3"/>
<stop offset="0.43" stop-color="#B39BD3"/>
<stop offset="0.81" stop-color="#D8BCD4"/>
<stop offset="1" stop-color="#E7C9D5"/>
</linearGradient>
</defs>
</svg>
