<svg width="174" height="174" viewBox="0 0 174 174" fill="none" xmlns="http://www.w3.org/2000/svg">
<circle cx="87" cy="87" r="87" fill="#F4F9DD"/>
<path d="M147.172 73.9432C147.275 73.7016 147.505 73.4945 147.816 73.322C149.3 72.4706 152.671 72.2635 154.178 72.2635L154.201 69.1573C152.245 69.2378 147.828 68.8581 147.206 67.4776C146.953 67.0404 146.643 66.6032 146.286 66.189C145.043 64.9465 147.908 62.8757 149.208 62.1279L145.423 59.9305H137.611V61.4146C137.14 61.2996 136.668 61.1615 136.185 61.0695C133.792 60.7128 133.297 58.0667 133.297 57.0083H127.936C127.936 57.8827 127.579 59.8385 126.095 60.6898C125.785 60.8624 125.428 61.0004 125.014 61.058C124.254 61.2075 123.507 61.3801 122.782 61.5987C120.308 62.1279 117.075 60.6668 115.787 59.919L111.979 62.1164C113.267 62.8642 116.121 64.935 114.855 66.1775C114.487 66.5917 114.188 67.0289 113.923 67.4661C113.82 67.7077 113.59 67.9148 113.279 68.0988C111.795 68.9502 108.424 69.1573 106.905 69.1573V72.2635C108.723 72.2635 113.279 72.5511 113.889 73.9432C113.935 74.0122 113.981 74.0813 114.027 74.1618H105.617V81.4903H115.66C116.661 80.9151 119.031 79.7991 121.033 79.6495V84.401H133.136C133.217 83.4806 133.527 81.5593 134.988 80.708C135.069 80.662 135.161 80.6274 135.241 80.5929V81.4903H145.297L149.105 79.2929C147.816 78.5451 144.963 76.4743 146.228 75.2317C146.585 74.8061 146.907 74.3804 147.16 73.9432H147.172ZM123.817 74.599C120.113 72.4476 120.136 68.9617 123.852 66.8103C127.579 64.6589 135.264 74.1503 135.264 74.1503V75.4733C131.629 76.6813 126.912 76.3937 123.817 74.599Z" fill="url(#paint0_linear_1667_13)"/>
<path d="M105.122 56.4445C105.122 55.2366 102.994 53.7179 101.935 53.0967L101.958 62.1624C103.017 62.7836 105.145 64.3023 105.157 65.5102L105.134 56.4445H105.122Z" fill="#F7F7FC"/>
<path d="M139.187 62.1624L139.164 53.0967C138.095 53.7179 135.932 55.2481 135.932 56.4561L135.955 65.5218C135.955 64.3138 138.106 62.7836 139.187 62.1624Z" fill="#BDC1E4"/>
<path d="M113.831 66.856C117.559 64.7046 123.576 64.7046 127.269 66.856C129.109 67.9259 130.03 69.318 130.03 70.7216L130.007 61.6559C130.007 60.2523 129.086 58.8602 127.246 57.7903C123.541 55.6389 117.524 55.6389 113.797 57.7903C111.921 58.8717 110.99 60.2868 110.99 61.7134L111.013 70.7791C111.013 69.364 111.944 67.9489 113.82 66.8675L113.831 66.856Z" fill="url(#paint1_linear_1667_13)"/>
<path d="M105.617 72.4591L101.843 70.2617L101.866 79.3274L105.651 81.5248L105.617 72.4591Z" fill="#D0D4F6"/>
<path d="M139.095 79.3274L139.061 70.2617L135.253 72.4591L135.287 81.5248L139.095 79.3274Z" fill="#A3A9D0"/>
<path d="M112.658 79.8455C113.382 80.0525 114.119 80.2366 114.878 80.3747C117.248 80.7313 117.754 83.3084 117.754 84.3898L117.731 75.3241C117.731 74.2427 117.214 71.6656 114.855 71.309C114.096 71.1594 113.348 70.9868 112.635 70.7682C110.506 70.0435 106.917 71.7001 105.617 72.4479L105.64 81.5136C106.94 80.7658 110.518 79.1092 112.658 79.834V79.8455Z" fill="url(#paint2_linear_1667_13)"/>
<path d="M124.979 80.7425C125.278 80.57 125.635 80.4434 126.061 80.3744C126.82 80.2248 127.556 80.0523 128.292 79.8452C130.432 79.1204 133.999 80.7771 135.299 81.5249L135.276 72.4592C133.987 71.7114 130.421 70.0547 128.281 70.7795C127.556 70.9866 126.808 71.1591 126.049 71.3087C125.635 71.3662 125.278 71.5043 124.968 71.6768C123.507 72.5167 123.196 74.4495 123.115 75.3699L123.138 84.4356C123.219 83.5152 123.53 81.5939 124.991 80.7425H124.979Z" fill="url(#paint3_linear_1667_13)"/>
<path d="M104.765 66.2119C106.008 67.4429 103.143 69.5253 101.843 70.2731L105.628 72.4705C106.928 71.7227 110.506 70.066 112.646 70.7908C113.371 70.9979 114.119 71.182 114.867 71.3315C117.26 71.6882 117.754 74.3343 117.743 75.3927H123.104C123.184 74.4723 123.495 72.551 124.956 71.6997C125.267 71.5271 125.623 71.4006 126.038 71.3315C126.797 71.182 127.533 71.0094 128.27 70.8023C130.409 70.0775 133.976 71.7342 135.264 72.482L139.072 70.2846C137.784 69.5368 134.931 67.466 136.196 66.2234C136.553 65.7978 136.875 65.3721 137.128 64.9349C137.232 64.6933 137.462 64.4862 137.772 64.3137C139.257 63.4623 142.627 63.2552 144.135 63.2552L144.158 60.149C142.202 60.2295 137.784 59.8498 137.163 58.4693C136.91 58.0321 136.599 57.6064 136.242 57.1807C135 55.9382 137.864 53.8674 139.165 53.1196L135.379 50.9222C134.079 51.67 130.49 53.3267 128.362 52.6019C127.637 52.3948 126.889 52.2107 126.13 52.0612C123.737 51.7045 123.242 49.0584 123.242 48H117.881C117.881 48.8744 117.524 50.8302 116.04 51.6815C115.729 51.8656 115.373 51.9921 114.959 52.0497C114.199 52.1992 113.451 52.3718 112.727 52.5904C110.253 53.1196 107.02 51.6585 105.732 50.9107L101.924 53.1081C103.212 53.8559 106.065 55.9267 104.8 57.1692C104.432 57.5834 104.133 58.0206 103.868 58.4578C103.765 58.6994 103.534 58.9065 103.224 59.0905C101.74 59.9419 98.3688 60.149 96.8502 60.149V63.2552C98.668 63.2552 103.224 63.5428 103.834 64.9349C104.087 65.3721 104.386 65.8093 104.754 66.2234L104.765 66.2119ZM113.808 57.7905C117.536 55.6391 123.553 55.6391 127.257 57.7905C130.95 59.9419 130.939 63.4278 127.211 65.5792C123.484 67.7306 117.467 67.7306 113.774 65.5792C110.069 63.4278 110.092 59.9419 113.808 57.7905Z" fill="#F0F0F5"/>
<path d="M101.843 70.2618C103.143 69.514 106.019 67.4431 104.765 66.2006C104.409 65.775 104.098 65.3493 103.845 64.9121C103.235 63.52 98.6795 63.2324 96.8502 63.2324L96.8732 72.2981C98.0122 72.2981 100.198 72.4132 101.843 72.8273V70.2618Z" fill="#CED3F8"/>
<path d="M123.127 84.4353L123.104 75.3696H117.743L117.766 84.4353H123.127Z" fill="#BDC1E4"/>
<path d="M144.158 72.2981L144.135 63.2324C142.627 63.2324 139.245 63.428 137.772 64.2909C137.462 64.4749 137.232 64.682 137.128 64.9121C136.875 65.3493 136.553 65.7865 136.196 66.2006C134.931 67.4316 137.784 69.514 139.073 70.2618V72.8619C140.741 72.4132 142.996 72.2866 144.158 72.2866V72.2981Z" fill="url(#paint4_linear_1667_13)"/>
<path d="M112.071 100.335C112.393 100.001 112.784 99.7596 113.221 99.5871H118.272L120.389 94.9622L118.491 94.663C117.915 94.571 117.248 94.3869 116.707 94.0763C116.098 93.7197 115.637 93.2135 115.649 92.5117C115.695 91.9019 115.695 91.2807 115.649 90.6709C115.603 89.3479 117.225 88.7036 118.444 88.5195L120.354 88.2204L118.191 83.607H113.141C112.98 83.538 112.819 83.469 112.658 83.3769C112.416 83.2274 112.186 83.0663 111.979 82.8477C111.496 82.307 110.955 81.7778 110.38 81.2486C109.206 80.1096 110.046 79.0857 110.943 78.568L112.335 77.7626L106.48 74.3803L105.088 75.1856C104.19 75.7033 102.418 76.198 100.463 75.5192C99.5653 75.1856 98.6334 74.875 97.7015 74.5988C97.3449 74.4838 97.0457 74.3457 96.7926 74.2077C95.6652 73.5634 95.6077 72.6891 95.8723 72.1023L96.3785 70.9979L88.3942 69.7554L87.888 70.8598C87.5659 71.5731 86.4614 72.5165 84.1835 72.4935C83.1251 72.4705 82.0666 72.4705 81.0082 72.4935C79.8002 72.4935 78.9143 72.2404 78.2931 71.8837C77.7524 71.5731 77.4302 71.1935 77.2692 70.8598L76.7515 69.7554L68.7787 70.9979L69.2964 72.1023C69.63 72.8156 69.4805 73.9431 67.5017 74.5988C66.5698 74.875 65.6494 75.1856 64.7521 75.5192C62.7963 76.198 61.0245 75.7033 60.1157 75.1856L58.7121 74.3803L52.8907 77.7626L54.2943 78.568C55.1916 79.0857 56.0545 80.1211 54.8925 81.2486C54.3173 81.7663 53.7881 82.307 53.3049 82.8477C52.2004 83.9982 50.2446 84.0902 49.0136 83.8946L47.1038 83.5955L44.987 88.2089L46.8968 88.508C47.472 88.6001 48.1393 88.7841 48.68 89.0948C49.2897 89.4514 49.7499 89.9576 49.7384 90.6594C49.6924 91.2692 49.6924 91.8789 49.7384 92.5002C49.7499 92.9834 49.5428 93.3745 49.2092 93.6966H36.1974V99.5756H52.2464C52.4075 99.6446 52.5686 99.7136 52.7181 99.8056C52.9712 99.9437 53.2013 100.116 53.3969 100.323C53.8801 100.864 54.4208 101.393 54.9961 101.923C55.2147 102.141 55.3642 102.348 55.4563 102.555H47.8977V108.791H59.3333V108.538L60.2882 107.985C61.1856 107.468 62.9573 106.973 64.9246 107.652C65.2698 107.778 65.6264 107.905 65.9946 108.032V113.404H76.924H76.993L77.4993 112.3C77.5338 112.219 77.5798 112.139 77.6373 112.058V113.404H88.6358L96.6086 112.173L96.0909 111.069C95.7917 110.436 95.8838 109.458 97.3219 108.802H106.664L112.485 105.42L111.093 104.615C110.184 104.097 109.333 103.061 110.495 101.934C111.07 101.416 111.599 100.887 112.071 100.335ZM93.3182 97.7233C87.4623 101.129 77.9249 101.129 72.023 97.7233C66.1211 94.3179 66.0981 88.7841 71.954 85.3788C77.8214 81.9734 87.3588 81.9734 93.2607 85.3788C99.1626 88.7841 99.1971 94.3064 93.3297 97.7118L93.3182 97.7233Z" fill="url(#paint5_linear_1667_13)"/>
<path d="M82.1932 75.508C76.3373 72.1256 66.869 72.1256 61.0361 75.508C55.859 78.5222 55.3183 83.1931 59.3909 86.5755C59.8741 86.1728 60.4263 85.7932 61.0361 85.4365C66.8575 82.0542 76.3258 82.0542 82.1932 85.4365C82.8375 85.8047 83.4012 86.2073 83.9074 86.6215C88.0031 83.2391 87.4279 78.5337 82.1932 75.508Z" fill="url(#paint6_linear_1667_13)"/>
<path d="M84.8969 62.1508C84.8163 62.3234 84.7703 62.5305 84.7703 62.7376L84.7473 72.6891C84.7473 72.4706 84.7933 72.275 84.8739 72.1024L85.3801 70.998L85.4031 61.0464L84.8969 62.1508Z" fill="#BBBFE2"/>
<path d="M58.321 62.1508L57.8033 61.0464L57.7803 70.998L58.298 72.1024C58.3785 72.2865 58.436 72.4936 58.436 72.7237L58.4591 62.7606C58.4591 62.542 58.4015 62.3234 58.321 62.1393V62.1508Z" fill="#BBBFE2"/>
<path d="M99.9679 68.6046C99.3926 68.9383 98.8289 69.4905 98.8289 70.1463L98.8059 80.0978C98.8059 79.4421 99.3696 78.8898 99.9449 78.5562L101.337 77.7509L101.36 67.7993L99.9679 68.6046Z" fill="#BBBFE2"/>
<path d="M43.3189 68.6046L41.9268 67.7993L41.9038 77.7509L43.3074 78.5562C43.8941 78.9014 44.4694 79.4536 44.4694 80.1209L44.4924 70.1693C44.4924 69.502 43.9286 68.9498 43.3304 68.6046H43.3189Z" fill="#CED2F4"/>
<path d="M107.469 78.5567C106.261 78.7408 104.673 79.3736 104.673 80.6621L104.639 90.6136C104.639 89.3251 106.227 88.7039 107.435 88.5083L109.344 88.2092L109.367 78.2461L107.458 78.5452L107.469 78.5567Z" fill="#BBBFE2"/>
<path d="M104.708 81.7085L104.685 91.6716C104.685 91.9477 104.673 92.2353 104.65 92.5114L104.685 82.5598C104.708 82.2837 104.719 81.9961 104.719 81.72L104.708 81.7085Z" fill="#242D3C"/>
<path d="M38.7629 82.3645V80.7193C38.7629 80.0175 38.3258 79.5113 37.7045 79.1547C37.1638 78.8441 36.4965 78.6485 35.9213 78.568L34.023 78.2573L34 88.2089L35.9098 88.508C36.485 88.6 37.1523 88.7841 37.693 89.0947C38.2107 89.3939 38.6134 89.808 38.7169 90.3488V91.5107C38.7169 91.8444 38.7169 92.1665 38.7514 92.4886L38.7744 82.5371C38.7744 82.4795 38.7744 82.4105 38.7744 82.3415L38.7629 82.3645Z" fill="#CED2F4"/>
<path d="M38.7745 82.6061L38.74 92.5576V92.5116L38.763 82.5601C38.763 82.5601 38.763 82.5946 38.763 82.6061H38.7745Z" fill="#242D3C"/>
<path d="M109.413 84.9995L109.379 94.9626L107.273 99.576L107.296 89.6244L109.413 84.9995Z" fill="#BBBFE2"/>
<path d="M36.2319 89.6244L36.1974 99.576L34.0345 94.9626L34.0691 84.9995L36.2319 89.6244Z" fill="#CED2F4"/>
<path d="M105.387 89.3244C104.156 89.1288 102.2 89.2208 101.095 90.3713C100.612 90.912 100.094 91.4413 99.5192 91.959C99.1166 92.3501 98.9555 92.7298 98.9555 93.0749L98.9325 103.038C98.9325 102.693 99.0936 102.313 99.4962 101.922C100.071 101.404 100.601 100.875 101.084 100.323C102.188 99.1724 104.144 99.0804 105.375 99.276L107.285 99.5751L107.308 89.612L105.398 89.3129L105.387 89.3244Z" fill="url(#paint7_linear_1667_13)"/>
<path d="M44.0322 91.9712C43.4569 91.4535 42.9162 90.9243 42.433 90.3721C42.2374 90.165 42.0074 89.9924 41.7542 89.8544C40.6268 89.1986 39.1312 89.1756 38.1303 89.3251L36.232 89.6243L36.209 99.5873L38.1073 99.2882C39.1082 99.1272 40.6038 99.1617 41.7312 99.8174C41.9843 99.9555 42.2029 100.128 42.41 100.335C42.8932 100.876 43.4339 101.405 44.0092 101.934C44.4233 102.337 44.5844 102.717 44.5844 103.073L44.6074 93.1217C44.6074 92.7651 44.4463 92.3854 44.0322 91.9827V91.9712Z" fill="url(#paint8_linear_1667_13)"/>
<path d="M101.51 95.4688L101.487 105.42L95.6652 108.803L95.6882 98.8396L101.51 95.4688Z" fill="#BBBFE2"/>
<path d="M47.9438 98.8396L47.9092 108.803L42.0533 105.42L42.0879 95.4688L47.9438 98.8396Z" fill="#CED2F4"/>
<path d="M94.2962 98.0341C93.3873 97.5163 91.6156 97.0216 89.6598 97.7004C88.7624 98.0341 87.842 98.3447 86.9101 98.6208C85.4375 99.104 84.9774 99.8518 84.9774 100.496L84.9543 110.459C84.9543 109.815 85.4145 109.067 86.8871 108.584C87.8305 108.308 88.7394 107.997 89.6368 107.663C91.5926 106.985 93.3643 107.479 94.2732 107.997L95.6767 108.802L95.6997 98.8509L94.2962 98.0456V98.0341Z" fill="url(#paint9_linear_1667_13)"/>
<path d="M57.6307 99.012C57.3775 98.8739 57.0784 98.7358 56.7218 98.6208C55.7784 98.3447 54.858 98.0341 53.9607 97.7004C51.9933 97.0216 50.2216 97.5163 49.3243 98.0341L47.9322 98.8394L47.9092 108.791L49.3012 107.986C50.1986 107.468 51.9703 106.973 53.9376 107.652C54.835 107.986 55.7554 108.296 56.6988 108.572C57.0554 108.687 57.3545 108.825 57.6076 108.964C58.39 109.412 58.6546 109.976 58.6546 110.471L58.6776 100.519C58.6776 100.024 58.413 99.4606 57.6307 99.012Z" fill="url(#paint10_linear_1667_13)"/>
<path d="M85.6332 102.222L85.5987 112.173L77.6375 113.404L77.6605 103.453L85.6332 102.222Z" fill="#BBBFE2"/>
<path d="M77.1427 102.348C76.9816 102.014 76.6595 101.635 76.1188 101.324C75.509 100.968 74.6232 100.714 73.4037 100.726C72.3452 100.749 71.2868 100.749 70.2284 100.726C67.9504 100.714 66.846 101.646 66.5238 102.36L66.0176 103.464L65.9946 113.416L66.5008 112.311C66.823 111.598 67.9389 110.666 70.2053 110.678C71.2638 110.712 72.3222 110.712 73.3806 110.678C74.6001 110.678 75.4745 110.931 76.0958 111.276C76.6365 111.586 76.9586 111.966 77.1197 112.3L77.6374 113.404L77.6604 103.453L77.1427 102.348Z" fill="url(#paint11_linear_1667_13)"/>
<path d="M100.118 94.6517L101.51 95.457L95.6883 98.8394L94.2847 98.034C93.3758 97.5163 91.6041 97.0216 89.6483 97.7004C88.7509 98.034 87.8305 98.3447 86.8987 98.6208C84.9199 99.265 84.7703 100.404 85.1039 101.106L85.6216 102.21L77.6489 103.441L77.1312 102.337C76.9701 102.003 76.648 101.624 76.1073 101.313C75.4975 100.956 74.6116 100.703 73.3921 100.715C72.3337 100.738 71.2753 100.738 70.2169 100.715C67.9389 100.703 66.8345 101.635 66.5123 102.348L66.0061 103.453L58.0219 102.222L58.5281 101.117C58.7927 100.531 58.7352 99.6677 57.6077 99.0234C57.3546 98.8854 57.0555 98.7473 56.6988 98.6323C55.7554 98.3562 54.8351 98.0455 53.9377 97.7119C51.9704 97.0331 50.1987 97.5278 49.3013 98.0455L47.9092 98.8509L42.0534 95.4685L43.4454 94.6632C44.3428 94.1455 45.1826 93.1215 44.0091 91.9826C43.4339 91.4649 42.8932 90.9356 42.41 90.3834C42.2144 90.1763 41.9843 90.0038 41.7312 89.8542C40.6038 89.2099 39.1081 89.1754 38.1072 89.325L36.209 89.6241L34.0691 84.9992L35.9674 84.7001C37.1984 84.5045 38.809 83.8603 38.7745 82.5372C38.7285 81.9275 38.7285 81.3177 38.7745 80.6965C38.7745 79.9947 38.3258 79.4885 37.7161 79.1318C37.1754 78.8212 36.5081 78.6256 35.9329 78.5451L34.0231 78.2575L36.1399 73.6441L38.0497 73.9432C39.2807 74.1273 41.2365 74.0467 42.341 72.8963C42.8242 72.3556 43.3534 71.8148 43.9286 71.2971C45.0906 70.1582 44.2392 69.1342 43.3304 68.6165L41.9383 67.8112L47.7597 64.4288L49.1633 65.2341C50.0606 65.7519 51.8438 66.2466 53.7996 65.5678C54.697 65.2341 55.6174 64.9235 56.5493 64.6474C58.5281 64.0031 58.6776 62.8642 58.344 62.1624L57.8263 61.0579L65.799 59.8154L66.3168 60.9199C66.4778 61.2535 66.8 61.6332 67.3407 61.9438C67.9504 62.3004 68.8363 62.5651 70.0558 62.5535C71.1142 62.5305 72.1726 62.5305 73.2311 62.5535C75.509 62.5651 76.6135 61.6332 76.9356 60.9199L77.4418 59.8154L85.4261 61.0579L84.9199 62.1624C84.6552 62.7491 84.7128 63.612 85.8402 64.2562C86.0933 64.3943 86.3809 64.5324 86.7491 64.6474C87.6925 64.9235 88.6129 65.2341 89.5102 65.5678C91.4775 66.2466 93.2493 65.7519 94.1466 65.2341L95.5387 64.4288L101.395 67.8112L100.003 68.6165C99.1051 69.1342 98.2653 70.1697 99.4388 71.2971C100.014 71.8148 100.555 72.344 101.038 72.8963C101.234 73.1034 101.475 73.2759 101.717 73.4255C102.844 74.0698 104.34 74.1043 105.341 73.9547L107.239 73.6556L109.402 78.269L107.492 78.5681C106.261 78.7637 104.65 79.4079 104.696 80.7195C104.742 81.3292 104.742 81.9505 104.696 82.5602C104.696 83.262 105.145 83.7682 105.755 84.1249C106.296 84.4355 106.951 84.6311 107.538 84.7116L109.436 85.0107L107.319 89.6356L105.41 89.3365C104.179 89.1409 102.223 89.2329 101.118 90.3834C100.635 90.9241 100.118 91.4534 99.5423 91.9711C98.3803 93.11 99.2317 94.1339 100.141 94.6517H100.118ZM61.0476 87.7719C66.9495 91.1772 76.4869 91.1772 82.3428 87.7719C88.2102 84.3665 88.1757 78.8442 82.2738 75.4388C76.3719 72.0334 66.8345 72.0334 60.9671 75.4388C55.1112 78.8442 55.1342 84.3665 61.0361 87.7834L61.0476 87.7719Z" fill="#F0F0F5"/>
<path d="M66.0176 103.453L65.9946 113.404L58.0104 112.173L58.0449 102.222L66.0176 103.453Z" fill="#CED2F4"/>
<path d="M86.5881 73.7475C78.2817 68.95 64.8558 68.95 56.6069 73.7475C52.6723 76.0369 50.6359 78.9937 50.4634 81.9849C50.6244 85.0106 52.7068 88.0133 56.7104 90.3258C65.0168 95.1232 78.4428 95.1117 86.6917 90.3258C90.6263 88.0363 92.6741 85.0796 92.8352 82.0884C92.6741 79.0627 90.5918 76.06 86.5996 73.7475H86.5881ZM82.2509 87.7717C76.4295 91.1541 66.9611 91.1541 61.0937 87.7717C58.3211 86.1726 56.86 84.1017 56.6989 81.9964C56.86 79.9255 58.3096 77.8777 61.0247 76.3016C66.8461 72.9192 76.3144 72.9192 82.1818 76.3016C84.9545 77.9007 86.4156 79.9716 86.5766 82.0654C86.4156 84.1363 84.966 86.1726 82.2394 87.7602L82.2509 87.7717Z" fill="#E0E0EB"/>
<path d="M56.6069 73.7477C64.8672 68.9502 78.2817 68.9502 86.5881 73.7477C90.5917 76.0601 92.6626 79.0513 92.8237 82.0771C93.0192 78.7867 90.9369 75.4619 86.5881 72.9423C78.2817 68.1449 64.8557 68.1449 56.6069 72.9423C52.3271 75.4273 50.2908 78.7177 50.4634 81.9735C50.6359 78.9823 52.6838 76.0256 56.6069 73.7477Z" fill="url(#paint12_linear_1667_13)"/>
<path d="M98.9786 129.407C99.0821 129.165 99.3122 128.958 99.6228 128.786C101.107 127.934 104.478 127.727 105.985 127.727L106.008 124.621C104.052 124.702 99.6343 124.322 99.0131 122.941C98.76 122.504 98.4493 122.067 98.0927 121.653C96.8502 120.41 99.7149 118.34 101.015 117.592L97.2298 115.394H89.4181V116.878C88.9465 116.763 88.4748 116.625 87.9916 116.533C85.5986 116.177 85.1039 113.531 85.1039 112.472H79.7427C79.7427 113.347 79.3861 115.302 77.9019 116.154C77.5913 116.326 77.2347 116.464 76.8205 116.522C76.0612 116.671 75.3134 116.844 74.5886 117.063C72.1151 117.592 68.8823 116.131 67.5937 115.383L63.7857 117.58C65.0742 118.328 67.9274 120.399 66.6619 121.641C66.2937 122.056 65.9946 122.493 65.73 122.93C65.6264 123.172 65.3963 123.379 65.0857 123.563C63.6016 124.414 60.2307 124.621 58.7121 124.621V127.727C60.5299 127.727 65.0857 128.015 65.6955 129.407C65.7415 129.476 65.7875 129.545 65.8335 129.626H57.4236V136.954H67.4672C68.4681 136.379 70.8381 135.263 72.8399 135.113V139.865H84.9428C85.0234 138.944 85.334 137.023 86.7951 136.172C86.8756 136.126 86.9677 136.091 87.0482 136.057V136.954H97.0918L100.9 134.757C99.6113 134.009 96.7582 131.938 98.0237 130.696C98.3803 130.27 98.7024 129.844 98.9555 129.407H98.9786ZM75.624 130.063C71.9195 127.911 71.9425 124.426 75.6585 122.274C79.3861 120.123 87.0712 129.614 87.0712 129.614V130.937C83.4357 132.145 78.7188 131.858 75.624 130.063Z" fill="url(#paint13_linear_1667_13)"/>
<path d="M56.9403 111.909C56.9403 110.701 54.812 109.182 53.7535 108.561L53.7765 117.627C54.835 118.248 56.9633 119.767 56.9749 120.975L56.9518 111.909H56.9403Z" fill="#F7F7FC"/>
<path d="M91.0057 117.627L90.9827 108.561C89.9128 109.182 87.7499 110.712 87.7499 111.92L87.7729 120.986C87.7729 119.778 89.9243 118.248 91.0057 117.627Z" fill="#BDC1E4"/>
<path d="M65.6379 122.32C69.3654 120.169 75.3824 120.169 79.0754 122.32C80.9162 123.39 81.8365 124.782 81.8365 126.186L81.8135 117.12C81.8135 115.717 80.8932 114.325 79.0524 113.255C75.3479 111.103 69.3309 111.103 65.6034 113.255C63.7281 114.336 62.7963 115.751 62.7963 117.178L62.8193 126.243C62.8193 124.828 63.7512 123.413 65.6264 122.332L65.6379 122.32Z" fill="url(#paint14_linear_1667_13)"/>
<path d="M57.4349 127.923L53.6614 125.726L53.6844 134.791L57.4579 136.989L57.4349 127.923Z" fill="#D0D4F6"/>
<path d="M90.9022 134.791L90.8792 125.726L87.0712 127.923L87.1057 136.989L90.9022 134.791Z" fill="#A3A9D0"/>
<path d="M64.4758 135.309C65.2006 135.516 65.9369 135.7 66.6962 135.839C69.0662 136.195 69.5724 138.772 69.5724 139.854L69.5494 130.788C69.5494 129.707 69.0317 127.129 66.6732 126.773C65.9139 126.623 65.1661 126.451 64.4528 126.232C62.3244 125.507 58.735 127.164 57.4349 127.912L57.4579 136.977C58.758 136.23 62.3359 134.573 64.4758 135.298V135.309Z" fill="url(#paint15_linear_1667_13)"/>
<path d="M76.7974 136.206C77.0965 136.034 77.4531 135.907 77.8788 135.838C78.6381 135.689 79.3744 135.516 80.1107 135.309C82.2506 134.584 85.817 136.241 87.1171 136.989L87.0941 127.923C85.8055 127.175 82.2391 125.519 80.0992 126.243C79.3744 126.45 78.6266 126.623 77.8673 126.773C77.4531 126.83 77.0965 126.968 76.7858 127.141C75.3247 127.981 75.0141 129.913 74.9336 130.834L74.9566 139.899C75.0371 138.979 75.3478 137.058 76.8089 136.206H76.7974Z" fill="url(#paint16_linear_1667_13)"/>
<path d="M56.5837 121.676C57.8262 122.907 54.9615 124.99 53.6615 125.737L57.4465 127.935C58.7466 127.187 62.3245 125.53 64.4644 126.255C65.1892 126.462 65.937 126.646 66.6848 126.796C69.0778 127.152 69.5725 129.799 69.561 130.857H74.9222C75.0027 129.937 75.3133 128.015 76.7744 127.164C77.0851 126.991 77.4417 126.865 77.8559 126.796C78.6152 126.646 79.3515 126.474 80.0878 126.267C82.2277 125.542 85.7941 127.198 87.0826 127.946L90.8907 125.749C89.6022 125.001 86.749 122.93 88.0145 121.688C88.3712 121.262 88.6933 120.836 88.9464 120.399C89.0499 120.158 89.28 119.951 89.5907 119.778C91.0633 118.927 94.4457 118.72 95.9528 118.72L95.9758 115.613C94.02 115.694 89.6022 115.314 88.9809 113.934C88.7278 113.496 88.4172 113.059 88.0605 112.645C86.818 111.403 89.6827 109.332 90.9827 108.584L87.1977 106.386C85.8977 107.134 82.3082 108.791 80.1798 108.066C79.455 107.859 78.7072 107.675 77.9479 107.537C75.5549 107.18 75.0602 104.534 75.0602 103.487H69.699C69.699 104.362 69.3424 106.317 67.8583 107.169C67.5477 107.353 67.191 107.479 66.7769 107.537C66.0175 107.687 65.2697 107.859 64.5449 108.078C62.0714 108.607 58.8386 107.146 57.5501 106.398L53.742 108.595C55.0306 109.343 57.8837 111.414 56.6182 112.657C56.2501 113.071 55.9509 113.508 55.6863 113.945C55.5828 114.187 55.3527 114.394 55.0421 114.578C53.558 115.429 50.1871 115.636 48.6685 115.636V118.743C50.4862 118.743 55.0421 119.03 55.6518 120.422C55.9049 120.859 56.204 121.297 56.5722 121.711L56.5837 121.676ZM65.6264 113.255C69.3539 111.103 75.3709 111.103 79.0754 113.255C82.7684 115.406 82.7569 118.892 79.0294 121.043C75.3133 123.195 69.2849 123.195 65.5919 121.043C61.8874 118.892 61.9104 115.406 65.6264 113.255Z" fill="#F0F0F5"/>
<path d="M53.6615 125.726C54.9615 124.978 57.8377 122.907 56.5837 121.665C56.227 121.239 55.9164 120.814 55.6633 120.376C55.0536 118.984 50.4977 118.697 48.6685 118.697L48.6915 127.762C49.8304 127.762 52.0163 127.878 53.6615 128.292V125.726Z" fill="#CED3F8"/>
<path d="M74.9451 139.9L74.9221 130.834H69.5494L69.584 139.9H74.9451Z" fill="#BDC1E4"/>
<path d="M95.9757 127.762L95.9527 118.697C94.4456 118.697 91.0632 118.892 89.5906 119.755C89.28 119.928 89.0499 120.146 88.9463 120.376C88.6932 120.814 88.3711 121.251 88.0145 121.665C86.7489 122.896 89.6021 124.978 90.8906 125.726V128.326C92.5588 127.878 94.8137 127.751 95.9757 127.751V127.762Z" fill="url(#paint17_linear_1667_13)"/>
<defs>
<linearGradient id="paint0_linear_1667_13" x1="105.617" y1="70.6989" x2="154.19" y2="70.6989" gradientUnits="userSpaceOnUse">
<stop stop-color="#C8D7EA"/>
<stop offset="0.42" stop-color="#DFE7F2" stop-opacity="0.6"/>
<stop offset="1" stop-color="white" stop-opacity="0"/>
</linearGradient>
<linearGradient id="paint1_linear_1667_13" x1="111.001" y1="63.4736" x2="130.03" y2="63.4736" gradientUnits="userSpaceOnUse">
<stop stop-color="#A3A9D0"/>
<stop offset="1" stop-color="#DEE2F9"/>
</linearGradient>
<linearGradient id="paint2_linear_1667_13" x1="105.617" y1="77.4985" x2="117.766" y2="77.4985" gradientUnits="userSpaceOnUse">
<stop stop-color="#A3A9D0"/>
<stop offset="1" stop-color="#D0D4F6"/>
</linearGradient>
<linearGradient id="paint3_linear_1667_13" x1="134.804" y1="77.1665" x2="123.129" y2="77.3471" gradientUnits="userSpaceOnUse">
<stop stop-color="#D0D4F6"/>
<stop offset="0.57" stop-color="#B8BDE1"/>
<stop offset="1" stop-color="#A3A9D0"/>
</linearGradient>
<linearGradient id="paint4_linear_1667_13" x1="135.874" y1="68.0529" x2="144.158" y2="68.0529" gradientUnits="userSpaceOnUse">
<stop offset="0.4" stop-color="#A3A9D0"/>
<stop offset="0.69" stop-color="#B6BBE0"/>
<stop offset="1" stop-color="#D0D4F6"/>
</linearGradient>
<linearGradient id="paint5_linear_1667_13" x1="36.1974" y1="91.5913" x2="120.377" y2="91.5913" gradientUnits="userSpaceOnUse">
<stop stop-color="#C8D7EA"/>
<stop offset="0.42" stop-color="#DFE7F2" stop-opacity="0.6"/>
<stop offset="1" stop-color="white" stop-opacity="0"/>
</linearGradient>
<linearGradient id="paint6_linear_1667_13" x1="56.6873" y1="79.7992" x2="86.5995" y2="79.7992" gradientUnits="userSpaceOnUse">
<stop stop-color="#BBBFE2"/>
<stop offset="1" stop-color="#CED2F4"/>
</linearGradient>
<linearGradient id="paint7_linear_1667_13" x1="98.9325" y1="96.1467" x2="107.296" y2="96.1467" gradientUnits="userSpaceOnUse">
<stop stop-color="#A5ACD4"/>
<stop offset="0.63" stop-color="#BDC2E7"/>
<stop offset="1" stop-color="#CED2F4"/>
</linearGradient>
<linearGradient id="paint8_linear_1667_13" x1="36.1975" y1="96.1589" x2="44.6074" y2="96.1589" gradientUnits="userSpaceOnUse">
<stop stop-color="#BBBFE2"/>
<stop offset="1" stop-color="#CED2F4"/>
</linearGradient>
<linearGradient id="paint9_linear_1667_13" x1="84.9428" y1="103.913" x2="95.6882" y2="103.913" gradientUnits="userSpaceOnUse">
<stop stop-color="#A5ACD4"/>
<stop offset="0.52" stop-color="#BCC1E6"/>
<stop offset="1" stop-color="#CED2F4"/>
</linearGradient>
<linearGradient id="paint10_linear_1667_13" x1="47.9092" y1="103.924" x2="58.6776" y2="103.924" gradientUnits="userSpaceOnUse">
<stop stop-color="#BBBFE2"/>
<stop offset="1" stop-color="#CED2F4"/>
</linearGradient>
<linearGradient id="paint11_linear_1667_13" x1="65.9946" y1="107.065" x2="77.6604" y2="107.065" gradientUnits="userSpaceOnUse">
<stop stop-color="#BBBFE2"/>
<stop offset="1" stop-color="#CED2F4"/>
</linearGradient>
<linearGradient id="paint12_linear_1667_13" x1="50.4519" y1="75.715" x2="92.8467" y2="75.715" gradientUnits="userSpaceOnUse">
<stop stop-color="#BBBFE2"/>
<stop offset="1" stop-color="#CED2F4"/>
</linearGradient>
<linearGradient id="paint13_linear_1667_13" x1="57.4351" y1="126.163" x2="106.008" y2="126.163" gradientUnits="userSpaceOnUse">
<stop stop-color="#C8D7EA"/>
<stop offset="0.42" stop-color="#DFE7F2" stop-opacity="0.6"/>
<stop offset="1" stop-color="white" stop-opacity="0"/>
</linearGradient>
<linearGradient id="paint14_linear_1667_13" x1="62.8078" y1="118.938" x2="81.848" y2="118.938" gradientUnits="userSpaceOnUse">
<stop stop-color="#A3A9D0"/>
<stop offset="1" stop-color="#DEE2F9"/>
</linearGradient>
<linearGradient id="paint15_linear_1667_13" x1="57.4349" y1="132.962" x2="69.5839" y2="132.962" gradientUnits="userSpaceOnUse">
<stop stop-color="#A3A9D0"/>
<stop offset="1" stop-color="#D0D4F6"/>
</linearGradient>
<linearGradient id="paint16_linear_1667_13" x1="86.6112" y1="132.636" x2="74.9519" y2="132.812" gradientUnits="userSpaceOnUse">
<stop stop-color="#D0D4F6"/>
<stop offset="0.57" stop-color="#B8BDE1"/>
<stop offset="1" stop-color="#A3A9D0"/>
</linearGradient>
<linearGradient id="paint17_linear_1667_13" x1="87.6923" y1="123.517" x2="95.9757" y2="123.517" gradientUnits="userSpaceOnUse">
<stop offset="0.4" stop-color="#A3A9D0"/>
<stop offset="0.69" stop-color="#B6BBE0"/>
<stop offset="1" stop-color="#D0D4F6"/>
</linearGradient>
</defs>
</svg>
