<svg width="377" height="108" viewBox="0 0 377 108" fill="none" xmlns="http://www.w3.org/2000/svg">
<g clip-path="url(#clip0_1027_12014)">
<path style="mix-blend-mode:multiply" d="M376.54 -22.61H66.79V107.22H376.54V-22.61Z" fill="url(#paint0_linear_1027_12014)"/>
<path d="M0 -113.88L66.79 -75.31V107.22L0 68.65V-113.88Z" fill="#CED3F8"/>
<path d="M200.38 30.09L66.79 107.22V-75.31L200.38 -152.44V30.09Z" fill="#BBC0E6"/>
<path d="M76.3799 35.76L84.1799 40.26V106.18L76.3799 101.68V35.76Z" fill="#CED3F8"/>
<path d="M197.65 40.67L84.1797 106.18V40.26L197.65 -25.25V40.67Z" fill="#BBC0E6"/>
<path d="M197.65 -25.25L189.85 -29.75L76.3799 35.76L84.1799 40.26L197.65 -25.25Z" fill="#F6F6FB"/>
<g style="mix-blend-mode:multiply">
<path d="M76.3799 35.76L84.1799 40.26L197.65 -25.25L189.85 -29.75L76.3799 35.76Z" fill="#DAE0F5"/>
</g>
<path d="M100.94 96.51L100.93 42.7L95.3496 45.92V99.73L100.94 96.51Z" fill="#D8DEF3"/>
<path d="M115.27 88.23V34.43L109.68 37.65L109.69 91.46L115.27 88.23Z" fill="#D8DEF3"/>
<path d="M129.6 79.96V26.15L124.02 29.37V83.18L129.6 79.96Z" fill="#D8DEF3"/>
<path d="M143.94 71.68L143.93 17.87L138.35 21.1V74.9L143.94 71.68Z" fill="#D8DEF3"/>
<path d="M158.27 63.4V9.59998L152.68 12.82L152.69 66.63L158.27 63.4Z" fill="#D8DEF3"/>
<path d="M172.6 55.13V1.32001L167.02 4.53999V58.35L172.6 55.13Z" fill="#D8DEF3"/>
<path d="M186.94 46.85V-6.95001L181.35 -3.73001V50.08L186.94 46.85Z" fill="#D8DEF3"/>
<path d="M94.7803 7.13002L102.63 2.59001V-6.48999L94.7803 -1.93999V7.13002Z" fill="#D8DEF3"/>
<path d="M37.3297 3.47998L29.4697 -1.06001V-10.14L37.3297 -5.60002V3.47998Z" fill="#D8DEF3"/>
<path d="M37.3297 23.24L29.4697 18.7V9.62L37.3297 14.16V23.24Z" fill="#D8DEF3"/>
<path d="M37.3297 42.99L29.4697 38.46V29.38L37.3297 33.92V42.99Z" fill="#D8DEF3"/>
<path d="M37.3297 62.75L29.4697 58.21V49.14L37.3297 53.68V62.75Z" fill="#D8DEF3"/>
</g>
<defs>
<linearGradient id="paint0_linear_1027_12014" x1="66.79" y1="42.3" x2="376.54" y2="42.3" gradientUnits="userSpaceOnUse">
<stop stop-color="#CFD5F1"/>
<stop offset="1" stop-color="white"/>
</linearGradient>
<clipPath id="clip0_1027_12014">
<rect width="376.54" height="298.22" fill="white" transform="translate(0 -191)"/>
</clipPath>
</defs>
</svg>
