<svg width="28" height="13" viewBox="0 0 28 13" fill="none" xmlns="http://www.w3.org/2000/svg">
<path d="M1 5.75C0.585786 5.75 0.25 6.08579 0.25 6.5C0.25 6.91421 0.585787 7.25 1 7.25L1 5.75ZM27.5303 7.03033C27.8232 6.73743 27.8232 6.26256 27.5303 5.96967L22.7574 1.1967C22.4645 0.903804 21.9896 0.903804 21.6967 1.1967C21.4038 1.48959 21.4038 1.96446 21.6967 2.25736L25.9393 6.5L21.6967 10.7426C21.4038 11.0355 21.4038 11.5104 21.6967 11.8033C21.9896 12.0962 22.4645 12.0962 22.7574 11.8033L27.5303 7.03033ZM1 7.25L27 7.25L27 5.75L1 5.75L1 7.25Z" fill="white"/>
</svg>
