<svg width="64" height="103" viewBox="0 0 64 103" fill="none" xmlns="http://www.w3.org/2000/svg">
<g clip-path="url(#clip0_1010_10727)">
<path d="M2.51026 62.8971C1.64465 62.8971 0.8079 62.843 0 62.7312V48.9861L11.8768 60.5275C9.08887 62.0892 5.96547 62.8971 2.51026 62.8971Z" fill="white"/>
<path d="M9.75611 48.4559H0V23.1946C0.890854 23.054 1.83941 22.9999 2.78798 22.9999C8.39278 22.9999 13.0743 24.9222 16.8397 28.7706C20.605 32.5901 22.4986 37.3581 22.4986 43.0459C22.4986 48.2323 20.7962 52.582 17.4239 56.0949L9.75611 48.4559Z" fill="white"/>
<path d="M37.7765 16.5042V69.5587H45.7509V44.2181H58.295V36.7198H45.7509V24.0062H63.5392V103.004H0V70.2296C0.919707 70.3125 1.83941 70.3702 2.78798 70.3702C8.19802 70.3702 13.1031 68.9492 17.5358 66.1035L21.0487 69.5623H31.0861L22.9746 61.8404C28.0204 56.5169 30.5595 50.4108 30.5595 43.5797C30.5595 34.8262 27.3532 27.7175 20.9405 22.2786C15.6422 17.763 9.62266 15.5052 2.90339 15.5052C1.92598 15.5052 0.952168 15.5593 0.0036067 15.6458V0H63.5392V16.5042H37.7765Z" fill="white"/>
<path d="M15.0363 90.2034H13.3304L12.6235 89.4821C11.8733 89.9654 11.0365 90.2034 10.1168 90.2034C8.92299 90.2034 7.86623 89.7995 6.93931 88.9916C5.93304 88.1007 5.4281 86.9646 5.4281 85.5797C5.4281 84.1947 5.90418 83.091 6.85635 82.1894C7.78327 81.3093 8.87249 80.8729 10.1348 80.8729C11.2782 80.8729 12.2989 81.2552 13.2077 82.0271C14.297 82.954 14.838 84.1622 14.838 85.6482C14.838 86.8132 14.4088 87.8483 13.5504 88.7572L15.0363 90.2071V90.2034ZM11.2998 86.4777L12.6054 87.7797C13.1825 87.181 13.4674 86.4417 13.4674 85.558C13.4674 84.5914 13.1464 83.7799 12.5044 83.1271C11.8624 82.4743 11.0654 82.1461 10.1132 82.1461C9.16103 82.1461 8.35674 82.4743 7.73639 83.1271C7.10882 83.7763 6.79864 84.5986 6.79864 85.5941C6.79864 86.5895 7.11964 87.3614 7.76524 87.9781C8.43608 88.6165 9.20431 88.9339 10.0663 88.9339C10.6542 88.9339 11.1844 88.8004 11.6569 88.5299L9.53973 86.4777H11.2962H11.2998Z" fill="#0C113A"/>
<path d="M25.6977 84.3607H27.0141V90.0412H25.6977V89.4461C25.1567 89.951 24.576 90.2035 23.9556 90.2035C23.1694 90.2035 22.5202 89.9222 22.008 89.3523C21.4995 88.7716 21.2434 88.0503 21.2434 87.1847C21.2434 86.3191 21.4959 85.623 22.008 85.0567C22.5166 84.4905 23.155 84.2056 23.9196 84.2056C24.5796 84.2056 25.1747 84.4761 25.6977 85.0207V84.3607ZM22.5851 87.1847C22.5851 87.7293 22.7294 88.1729 23.0215 88.512C23.3209 88.8582 23.6996 89.0313 24.154 89.0313C24.6373 89.0313 25.0304 88.8618 25.3298 88.53C25.6291 88.1838 25.7806 87.7437 25.7806 87.2135C25.7806 86.6834 25.6291 86.2434 25.3298 85.8971C25.0304 85.5581 24.6409 85.3886 24.1648 85.3886C23.714 85.3886 23.3353 85.5581 23.0359 85.9007C22.7366 86.247 22.5851 86.6762 22.5851 87.1847Z" fill="#0C113A"/>
<path d="M17.0597 84.3606V87.6211C17.0597 88.5624 17.4312 89.0349 18.1742 89.0349C18.9172 89.0349 19.2887 88.5624 19.2887 87.6211V84.3606H20.6015V87.6499C20.6015 88.1043 20.5438 88.4975 20.432 88.8293C20.3238 89.125 20.1326 89.3883 19.8657 89.63C19.4221 90.0123 18.8595 90.2071 18.1742 90.2071C17.4889 90.2071 16.9335 90.0159 16.4899 89.63C16.2194 89.3919 16.0246 89.125 15.9128 88.8293C15.8046 88.5624 15.7505 88.1729 15.7505 87.6499V84.3606H17.0633H17.0597Z" fill="#0C113A"/>
<path d="M28.1394 84.3607H29.4558V84.8872C29.9139 84.4328 30.4333 84.2056 31.0067 84.2056C31.6704 84.2056 32.1825 84.4111 32.5504 84.8295C32.8678 85.183 33.0301 85.7601 33.0301 86.5607V90.0412H31.7136V86.8673C31.7136 86.3083 31.6343 85.9224 31.4792 85.7096C31.3277 85.4932 31.0536 85.3813 30.6533 85.3813C30.2169 85.3813 29.9103 85.5256 29.7264 85.8141C29.546 86.0991 29.4595 86.5932 29.4595 87.3001V90.0412H28.143V84.3607H28.1394Z" fill="#0C113A"/>
<path d="M35.7388 85.5869V90.0411H34.426V85.5869H33.8669V84.3606H34.426V82.2795H35.7388V84.3606H36.7595V85.5869H35.7388Z" fill="#0C113A"/>
<path d="M37.8307 84.3606H39.1435V84.8872C39.396 84.6239 39.6124 84.4435 39.7891 84.3534C39.9803 84.256 40.2183 84.2091 40.5069 84.2091C41.1488 84.2091 41.6574 84.4868 42.0289 85.0495C42.44 84.4904 42.9991 84.2091 43.7024 84.2091C44.9792 84.2091 45.6211 84.9845 45.6211 86.5354V90.0447H44.3047V86.8925C44.3047 86.3479 44.2362 85.962 44.1063 85.7383C43.9693 85.5075 43.7457 85.3957 43.4355 85.3957C43.0748 85.3957 42.8115 85.5328 42.6456 85.8033C42.4797 86.0738 42.3968 86.5102 42.3968 87.1161V90.0483H41.0803V86.9105C41.0803 85.9006 40.7882 85.3957 40.2039 85.3957C39.836 85.3957 39.5655 85.5328 39.396 85.8105C39.2265 86.0882 39.1435 86.5246 39.1435 87.1161V90.0483H37.8307V84.3678V84.3606Z" fill="#0C113A"/>
<path d="M51.2439 82.3156H48.1061V84.4796H51.1321V85.7564H48.1061V90.0411H46.75V81.0388H51.2439V82.3156Z" fill="#0C113A"/>
<path d="M54.2988 88.9844L51.7452 84.3606H53.2673L55.0057 87.6247L56.6251 84.3606H58.1074L53.5847 93.1321H52.0843L54.2988 88.9844Z" fill="#0C113A"/>
</g>
<defs>
<clipPath id="clip0_1010_10727">
<rect width="63.5392" height="103" fill="white"/>
</clipPath>
</defs>
</svg>
