<svg width="5418" height="1024" viewBox="0 0 4418 1024" fill="none" xmlns="http://www.w3.org/2000/svg">
<path d="M4289.08 1735.42C4157.85 1811.19 3945.08 1811.19 3813.85 1735.42L3770.33 1710.29C3572.85 1785.8 3304.21 1773.33 3130.23 1672.88C2950.88 1569.35 2933.48 1407.71 3078 1292.89L2531.15 977.156L2531.19 977.127L2333.29 871.603C2325.1 867.227 2311.83 867.227 2303.65 871.603L2104.63 977.712L2104.85 977.844L1538.42 1304.87L1386 1216.88L1945.1 894.069L1950.5 890.951L1950.57 890.908L1952.51 889.883L2533.63 580L2692.05 664.478L2491.7 771.304C2483.52 775.68 2483.52 782.749 2491.7 787.125L2683.33 889.298L2689.26 892.459L2689.3 892.488L2691.93 894.01L3238.83 1209.76C3432.9 1146.1 3684.05 1162.05 3849.54 1257.59C4019.6 1355.77 4044.06 1506.2 3922.9 1619.4L3968.85 1645.94C3991.66 1659.11 4021.56 1665.7 4051.46 1665.7C4081.37 1665.7 4111.27 1659.11 4134.08 1645.94L4262.91 1566.51L4417.9 1655.99L4289.08 1735.42ZM2566.14 651.013L2607.94 628.737L2600.67 624.844L2558.87 647.134L2566.14 651.013ZM2507.27 682.421L2549.06 660.131L2541.79 656.238L2499.99 678.528L2507.27 682.421ZM1507.14 1230.9L1466.92 1254.11L1473.93 1258.15L1514.14 1234.94L1507.14 1230.9ZM1563.78 1198.19L1523.56 1221.4L1530.57 1225.45L1570.78 1202.22L1563.78 1198.19ZM1620.42 1165.49L1580.2 1188.7L1587.21 1192.74L1627.42 1169.53L1620.42 1165.49ZM1677.06 1132.78L1636.86 1155.99L1643.85 1160.04L1684.07 1136.83L1677.06 1132.78ZM1733.7 1100.08L1693.5 1123.29L1700.49 1127.33L1740.71 1104.12L1733.7 1100.08ZM1790.36 1067.37L1750.14 1090.6L1757.15 1094.64L1797.35 1071.43L1790.36 1067.37ZM1847 1034.67L1806.78 1057.89L1813.79 1061.93L1853.99 1038.71L1847 1034.67ZM1903.64 1001.96L1863.42 1025.19L1870.43 1029.23L1910.63 1006.02L1903.64 1001.96ZM1960.28 969.267L1920.07 992.48L1927.07 996.519L1967.29 973.307L1960.28 969.267ZM2016.92 936.571L1976.71 959.784L1983.71 963.823L2023.93 940.611L2016.92 936.571ZM2070.78 907.417L2028.99 929.707L2036.27 933.585L2078.07 911.295L2070.78 907.417ZM2129.66 876.023L2087.86 898.299L2095.15 902.192L2136.95 879.901L2129.66 876.023ZM2188.54 844.615L2146.74 866.905L2154.03 870.798L2195.81 848.508L2188.54 844.615ZM2247.42 813.221L2205.62 835.511L2212.89 839.39L2254.69 817.099L2247.42 813.221ZM2365.16 750.434L2264.5 804.117L2271.77 807.996L2372.44 754.312L2365.16 750.434ZM2424.04 719.04L2382.24 741.33L2389.52 745.209L2431.32 722.918L2424.04 719.04ZM2389.52 813.221L2382.24 817.099L2424.04 839.39L2431.32 835.511L2389.52 813.221ZM2490.2 691.525L2482.91 687.646L2441.12 709.922L2448.4 713.815L2490.2 691.525ZM2448.4 844.615L2441.12 848.508L2482.91 870.783L2490.2 866.905L2448.4 844.615ZM3728.06 1653.46C3740.15 1648.34 3751.84 1642.78 3763.11 1636.79L3755.95 1632.66C3745.17 1638.39 3733.99 1643.7 3722.44 1648.6L3728.06 1653.46ZM3659.9 1676.7C3673.56 1673.04 3686.92 1668.9 3699.93 1664.31L3694.31 1659.45C3681.85 1663.84 3669.08 1667.79 3656.02 1671.29L3659.9 1676.7ZM3585.17 1691.75C3599.85 1689.7 3614.35 1687.15 3628.64 1684.15L3624.76 1678.75C3611.1 1681.62 3597.23 1684.05 3583.21 1686.02L3585.17 1691.75ZM3506.8 1698.08C3521.91 1697.72 3537 1696.87 3551.98 1695.52L3550 1689.8C3535.67 1691.07 3521.26 1691.89 3506.8 1692.24V1698.08ZM3472.97 1698.08V1692.24C3458.51 1691.89 3444.1 1691.07 3429.77 1689.8L3427.79 1695.52C3442.78 1696.87 3457.85 1697.72 3472.97 1698.08ZM3394.6 1691.75L3396.57 1686.02C3382.54 1684.05 3368.68 1681.62 3355.01 1678.75L3351.14 1684.15C3365.41 1687.15 3379.92 1689.7 3394.6 1691.75ZM3319.87 1676.7L3323.75 1671.3C3310.69 1667.79 3297.91 1663.84 3285.46 1659.45L3279.84 1664.31C3292.85 1668.9 3306.21 1673.04 3319.87 1676.7ZM3251.71 1653.46L3257.33 1648.6C3245.78 1643.7 3234.6 1638.39 3223.81 1632.66L3216.67 1636.79C3227.93 1642.78 3239.62 1648.34 3251.71 1653.46ZM3145.09 1586.52L3153.5 1583.27C3145.91 1576.07 3139.06 1568.69 3132.98 1561.15L3123.63 1563.39C3129.97 1571.28 3137.14 1578.99 3145.09 1586.52ZM3132.98 1369.32C3139.06 1361.78 3145.91 1354.41 3153.5 1347.21L3145.09 1343.97C3137.14 1351.48 3129.97 1359.19 3123.63 1367.08L3132.98 1369.32ZM3091.01 1501.09L3100.93 1499.95C3098.74 1491.68 3097.32 1483.35 3096.69 1475.01H3086.57C3087.2 1483.73 3088.68 1492.44 3091.01 1501.09ZM3096.69 1455.47C3097.32 1447.13 3098.74 1438.8 3100.93 1430.53L3091.01 1429.39C3088.68 1438.04 3087.2 1446.74 3086.57 1455.47H3096.69ZM2507.27 876.023L2499.99 879.901L2541.79 902.192L2549.06 898.299L2507.27 876.023ZM2566.14 907.417L2558.87 911.295L2600.67 933.585L2607.94 929.707L2566.14 907.417ZM2619.06 935.883L2612.05 939.937L2652.27 963.15L2659.27 959.096L2619.06 935.883ZM2675.7 968.594L2668.71 972.634L2708.91 995.846L2715.92 991.807L2675.7 968.594ZM2732.34 1001.29L2725.35 1005.33L2765.55 1028.56L2772.56 1024.5L2732.34 1001.29ZM2789 1034L2781.99 1038.04L2822.19 1061.25L2829.2 1057.21L2789 1034ZM2845.64 1066.7L2838.63 1070.74L2878.85 1093.96L2885.84 1089.91L2845.64 1066.7ZM2902.28 1099.41L2895.27 1103.45L2935.49 1126.66L2942.48 1122.62L2902.28 1099.41ZM2958.92 1132.1L2951.92 1136.14L2992.13 1159.37L2999.14 1155.32L2958.92 1132.1ZM3015.56 1164.8L3008.56 1168.86L3048.77 1192.07L3055.78 1188.03L3015.56 1164.8ZM3072.2 1197.51L3065.2 1201.55L3105.41 1224.76L3112.42 1220.72L3072.2 1197.51ZM3110.72 1385.13C3105.51 1393.37 3101.11 1401.75 3097.56 1410.23L3107.49 1411.36C3110.88 1403.26 3115.1 1395.26 3120.07 1387.37L3110.72 1385.13ZM3107.47 1519.12L3097.56 1520.25C3101.11 1528.72 3105.51 1537.11 3110.72 1545.35L3120.07 1543.11C3115.1 1535.22 3110.88 1527.21 3107.47 1519.12ZM3153.99 1244.73L3128.86 1230.21L3121.85 1234.26L3146.61 1248.55L3162.06 1257.47L3169.06 1253.44L3153.99 1244.73ZM3192.74 1307.5C3182.38 1314 3172.75 1320.75 3163.89 1327.73L3172.29 1330.98C3180.78 1324.3 3189.99 1317.85 3199.9 1311.63L3192.74 1307.5ZM3172.29 1599.5L3163.88 1602.75C3172.73 1609.73 3182.38 1616.48 3192.74 1622.97L3199.9 1618.85C3189.99 1612.63 3180.78 1606.17 3172.29 1599.5ZM3251.72 1277.01C3239.63 1282.14 3227.93 1287.7 3216.67 1293.68L3223.83 1297.81C3234.6 1292.09 3245.78 1286.78 3257.34 1281.87L3251.72 1277.01ZM3319.87 1253.77C3306.21 1257.43 3292.86 1261.57 3279.84 1266.17L3285.46 1271.03C3297.91 1266.64 3310.69 1262.69 3323.75 1259.17L3319.87 1253.77ZM3394.6 1238.73C3379.93 1240.78 3365.41 1243.32 3351.14 1246.32L3355.02 1251.72C3368.68 1248.85 3382.54 1246.42 3396.57 1244.45L3394.6 1238.73ZM3472.97 1232.39C3457.85 1232.76 3442.78 1233.6 3427.79 1234.95L3429.77 1240.67C3444.1 1239.4 3458.53 1238.58 3472.97 1238.23V1232.39ZM3506.81 1232.39V1238.23C3521.26 1238.58 3535.69 1239.4 3550 1240.67L3551.98 1234.94C3537 1233.6 3521.91 1232.76 3506.81 1232.39ZM3585.17 1238.73L3583.21 1244.45C3597.23 1246.42 3611.1 1248.85 3624.76 1251.72L3628.64 1246.32C3614.35 1243.32 3599.85 1240.78 3585.17 1238.73ZM3659.9 1253.77L3656.04 1259.17C3669.08 1262.69 3681.85 1266.64 3694.31 1271.03L3699.94 1266.17C3686.92 1261.57 3673.56 1257.43 3659.9 1253.77ZM3728.06 1277.01L3722.44 1281.87C3733.99 1286.78 3745.17 1292.09 3755.95 1297.81L3763.11 1293.68C3751.84 1287.7 3740.15 1282.14 3728.06 1277.01ZM3693.99 1347.4C3581.26 1282.33 3398.51 1282.33 3285.8 1347.4C3173.07 1412.48 3173.07 1517.99 3285.8 1583.08C3398.51 1648.15 3581.26 1648.15 3693.99 1583.08C3806.7 1517.99 3806.7 1412.48 3693.99 1347.4ZM3787.03 1307.49L3779.87 1311.63C3789.78 1317.85 3799 1324.3 3807.47 1330.98L3815.89 1327.73C3807.03 1320.75 3797.4 1314 3787.03 1307.49ZM3807.47 1599.5C3799 1606.17 3789.78 1612.63 3779.87 1618.85L3787.03 1622.97C3797.4 1616.48 3807.03 1609.73 3815.89 1602.75L3807.47 1599.5ZM3834.69 1343.96L3826.28 1347.21C3833.86 1354.41 3840.71 1361.78 3846.78 1369.31L3856.15 1367.08C3849.81 1359.19 3842.64 1351.48 3834.69 1343.96ZM3846.78 1561.15C3840.71 1568.69 3833.86 1576.07 3826.28 1583.27L3834.69 1586.5C3842.64 1578.99 3849.81 1571.28 3856.15 1563.39L3846.78 1561.15ZM3869.04 1385.13L3859.71 1387.37C3864.67 1395.26 3868.88 1403.26 3872.29 1411.36L3882.22 1410.21C3878.66 1401.75 3874.27 1393.37 3869.04 1385.13ZM3859.71 1543.11L3869.04 1545.35C3874.27 1537.09 3878.66 1528.72 3882.22 1520.25L3872.29 1519.12C3868.88 1527.21 3864.67 1535.22 3859.71 1543.11ZM3888.77 1429.39L3878.85 1430.53C3881.05 1438.8 3882.47 1447.13 3883.08 1455.47H3893.19C3892.56 1446.74 3891.09 1438.04 3888.77 1429.39ZM3883.08 1475.01C3882.47 1483.35 3881.05 1491.68 3878.85 1499.95L3888.77 1501.09C3891.09 1492.44 3892.56 1483.73 3893.19 1475.01H3883.08ZM3858.48 1667.58L3854.01 1665.01L3846.89 1669.12L3851.45 1671.75L3887.78 1692.73L3894.91 1688.63L3858.48 1667.58ZM3911.24 1697.16L3904.1 1701.28C3918.82 1708.31 3934.72 1714.11 3951.34 1718.71L3955.19 1713.35C3939.75 1709.03 3924.97 1703.66 3911.24 1697.16ZM4038.82 1725.82C4018.39 1725.15 3998.09 1722.88 3978.55 1718.94L3974.69 1724.31C3995.47 1728.53 4017.09 1730.96 4038.82 1731.64V1725.82ZM4124.38 1718.94C4104.84 1722.88 4084.54 1725.15 4064.11 1725.82V1731.64C4085.86 1730.96 4107.46 1728.53 4128.24 1724.31L4124.38 1718.94ZM4191.69 1697.16C4177.96 1703.66 4163.18 1709.03 4147.74 1713.35L4151.59 1718.72C4168.21 1714.11 4184.11 1708.31 4198.83 1701.28L4191.69 1697.16ZM4248.92 1665.01L4208.02 1688.63L4215.15 1692.74L4256.04 1669.12L4248.92 1665.01Z" fill="url(#paint0_linear_1166_29186)"/>
<path d="M2659.27 959.095L2619.06 935.883L2612.05 939.937L2652.27 963.149L2659.27 959.095Z" fill="#DCE3EC"/>
<path d="M2689.26 892.459L2683.55 889.166L2683.33 889.297L2689.26 892.459Z" fill="#DCE3EC"/>
<path d="M2715.92 991.807L2675.7 968.595L2668.71 972.634L2708.91 995.846L2715.92 991.807Z" fill="#DCE3EC"/>
<path d="M2772.56 1024.5L2732.34 1001.29L2725.35 1005.33L2765.55 1028.56L2772.56 1024.5Z" fill="#DCE3EC"/>
<path d="M2772.56 1024.5L2732.35 1001.29L2725.35 1005.33L2765.55 1028.56L2772.56 1024.5Z" fill="#DCE3EC"/>
<path d="M2715.92 991.807L2675.7 968.595L2668.71 972.634L2708.91 995.846L2715.92 991.807Z" fill="#DCE3EC"/>
<path d="M2659.27 959.095L2619.06 935.883L2612.05 939.937L2652.27 963.149L2659.27 959.095Z" fill="#DCE3EC"/>
<path d="M1870.43 1029.23L1910.63 1006.02L1903.64 1001.96L1863.42 1025.19L1870.43 1029.23Z" fill="#DCE3EC"/>
<path d="M1950.57 890.907L1952.5 889.882L1952.43 889.838L1950.57 890.907Z" fill="#DCE3EC"/>
<path d="M1927.07 996.519L1967.29 973.307L1960.28 969.267L1920.07 992.479L1927.07 996.519Z" fill="#DCE3EC"/>
<path d="M2023.93 940.61L2016.92 936.57L1976.71 959.783L1983.71 963.822L2023.93 940.61Z" fill="#DCE3EC"/>
<path d="M1983.71 963.822L1976.71 959.783L2016.92 936.57L2023.93 940.61L1983.71 963.822ZM1927.07 996.518L1920.07 992.479L1960.28 969.267L1967.29 973.306L1927.07 996.518ZM1870.43 1029.23L1863.42 1025.19L1903.64 1001.96L1910.63 1006.02L1870.43 1029.23ZM1813.79 1061.93L1806.78 1057.89L1847 1034.67L1853.99 1038.71L1813.79 1061.93ZM1473.93 1258.15L1466.92 1254.11L1507.14 1230.9L1514.13 1234.93L1473.93 1258.15ZM1530.57 1225.45L1523.56 1221.4L1563.78 1198.18L1570.78 1202.22L1530.57 1225.45ZM1587.21 1192.74L1580.2 1188.7L1620.42 1165.49L1627.42 1169.53L1587.21 1192.74ZM1643.85 1160.04L1636.86 1155.99L1677.06 1132.78L1684.07 1136.83L1643.85 1160.04ZM1700.49 1127.33L1693.5 1123.29L1733.7 1100.08L1740.71 1104.12L1700.49 1127.33ZM1757.15 1094.64L1750.14 1090.6L1790.36 1067.37L1797.35 1071.42L1757.15 1094.64Z" fill="#DCE3EC"/>
<path d="M2078.07 911.295L2070.78 907.417L2028.99 929.707L2036.27 933.585L2078.07 911.295Z" fill="#DCE3EC"/>
<path d="M1950.5 890.951L1944.88 893.952L1945.1 894.069L1950.5 890.951Z" fill="#DCE3EC"/>
<path d="M2136.95 879.901L2129.66 876.023L2087.86 898.298L2095.15 902.191L2136.95 879.901Z" fill="#DCE3EC"/>
<path d="M2195.81 848.508L2188.54 844.615L2146.74 866.905L2154.03 870.798L2195.81 848.508Z" fill="#DCE3EC"/>
<path d="M2254.69 817.1L2247.42 813.221L2205.62 835.511L2212.89 839.39L2254.69 817.1Z" fill="#DCE3EC"/>
<path d="M2372.44 754.312L2365.16 750.433L2264.5 804.117L2271.77 807.996L2372.44 754.312Z" fill="#DCE3EC"/>
<path d="M2431.32 722.918L2424.04 719.04L2382.24 741.33L2389.52 745.208L2431.32 722.918Z" fill="#DCE3EC"/>
<path d="M2431.32 835.511L2389.52 813.221L2382.24 817.1L2424.04 839.39L2431.32 835.511Z" fill="#DCE3EC"/>
<path d="M2490.2 691.524L2482.91 687.646L2441.12 709.921L2448.4 713.815L2490.2 691.524Z" fill="#DCE3EC"/>
<path d="M2490.2 866.904L2448.4 844.614L2441.12 848.507L2482.91 870.783L2490.2 866.904Z" fill="#DCE3EC"/>
<path d="M2549.06 660.131L2541.79 656.238L2499.99 678.528L2507.28 682.421L2549.06 660.131Z" fill="#DCE3EC"/>
<path d="M2549.06 898.298L2507.28 876.023L2499.99 879.901L2541.79 902.191L2549.06 898.298Z" fill="#DCE3EC"/>
<path d="M2607.94 628.738L2600.67 624.844L2558.87 647.135L2566.14 651.013L2607.94 628.738Z" fill="#DCE3EC"/>
<path d="M2607.94 929.707L2566.14 907.417L2558.87 911.295L2600.67 933.585L2607.94 929.707Z" fill="#DCE3EC"/>
<path d="M2692.05 893.951L2689.3 892.488L2691.94 894.01L2692.05 893.951Z" fill="#DCE3EC"/>
<path d="M2254.69 817.099L2247.42 813.221L2205.62 835.511L2212.89 839.39L2254.69 817.099Z" fill="#DCE3EC"/>
<path d="M2195.81 848.508L2188.54 844.615L2146.74 866.905L2154.03 870.798L2195.81 848.508Z" fill="#DCE3EC"/>
<path d="M2136.95 879.901L2129.66 876.023L2087.86 898.298L2095.15 902.192L2136.95 879.901Z" fill="#DCE3EC"/>
<path d="M2078.07 911.295L2070.78 907.417L2028.99 929.707L2036.27 933.585L2078.07 911.295Z" fill="#DCE3EC"/>
<path d="M2431.32 722.918L2424.04 719.04L2382.24 741.33L2389.52 745.209L2431.32 722.918Z" fill="#DCE3EC"/>
<path d="M2490.2 691.524L2482.91 687.646L2441.12 709.922L2448.4 713.815L2490.2 691.524Z" fill="#DCE3EC"/>
<path d="M2549.06 660.131L2541.79 656.238L2499.99 678.528L2507.27 682.421L2549.06 660.131Z" fill="#DCE3EC"/>
<path d="M2607.94 628.738L2600.67 624.844L2558.87 647.135L2566.14 651.013L2607.94 628.738Z" fill="#DCE3EC"/>
<path d="M2372.44 754.311L2365.16 750.433L2264.5 804.117L2271.77 807.995L2372.44 754.311Z" fill="#DCE3EC"/>
<path d="M2431.32 835.512L2389.52 813.221L2382.24 817.1L2424.04 839.39L2431.32 835.512Z" fill="#DCE3EC"/>
<path d="M2490.19 866.904L2448.4 844.614L2441.12 848.507L2482.91 870.783L2490.19 866.904Z" fill="#DCE3EC"/>
<path d="M2549.06 898.298L2507.28 876.022L2499.99 879.901L2541.79 902.191L2549.06 898.298Z" fill="#DCE3EC"/>
<path d="M2607.94 929.707L2566.14 907.417L2558.87 911.295L2600.67 933.585L2607.94 929.707Z" fill="#DCE3EC"/>
<path d="M2866.56 1200.06L2860.91 1203.31L2860.84 1203.36L2858.82 1204.43L2251.33 1528.37L2085.72 1440.06L2295.16 1328.39C2303.71 1323.82 2303.71 1316.43 2295.16 1311.85L2094.84 1205.04L2088.64 1201.74L2088.6 1201.71L2085.85 1200.12L1514.14 870.042C1311.27 936.595 1048.73 919.919 875.731 820.042C697.949 717.412 672.383 560.162 799.034 441.819C799.034 441.819 851.833 388.27 958.533 346.808C1164.97 267.876 1445.8 280.912 1627.67 385.914C1815.15 494.144 1833.34 663.113 1682.27 783.139L2253.93 1113.2L2253.88 1113.23L2460.76 1223.54C2469.32 1228.12 2483.19 1228.12 2491.75 1223.54L2699.79 1112.62L2699.56 1112.48M2217.35 1454.14L2173.65 1477.42L2181.25 1481.49L2224.95 1458.19L2217.35 1454.14ZM2278.88 1421.3L2235.2 1444.61L2242.8 1448.68L2286.5 1425.37L2278.88 1421.3ZM2735.18 1186.1L2778.86 1162.8L2771.26 1158.75L2727.56 1182.05L2735.18 1186.1ZM2673.63 1218.92L2717.32 1195.63L2709.71 1191.56L2666.01 1214.87L2673.63 1218.92ZM2612.08 1251.75L2655.77 1228.45L2648.15 1224.38L2604.47 1247.68L2612.08 1251.75ZM2550.53 1284.57L2594.22 1261.27L2586.62 1257.22L2542.92 1280.52L2550.53 1284.57ZM2427.44 1350.21L2532.67 1294.09L2525.07 1290.03L2419.84 1346.15L2427.44 1350.21ZM2365.89 1383.03L2409.59 1359.72L2401.98 1355.67L2358.29 1378.97L2365.89 1383.03ZM2401.98 1284.57L2409.59 1280.52L2365.89 1257.22L2358.29 1261.27L2401.98 1284.57ZM2296.74 1411.79L2304.36 1415.84L2348.04 1392.56L2340.43 1388.49L2296.74 1411.79ZM2340.43 1251.75L2348.04 1247.68L2304.36 1224.4L2296.74 1228.45L2340.43 1251.75ZM1002.72 406.216C990.081 411.571 977.857 417.385 966.076 423.643L973.558 427.957C984.833 421.975 996.522 416.421 1008.59 411.296L1002.72 406.216ZM1073.97 381.92C1059.69 385.745 1045.73 390.075 1032.12 394.879L1038 399.959C1051.02 395.369 1064.38 391.238 1078.02 387.581L1073.97 381.92ZM1152.09 366.192C1136.74 368.334 1121.58 370.996 1106.65 374.133L1110.7 379.778C1124.98 376.78 1139.48 374.24 1154.14 372.174L1152.09 366.192ZM1234.02 359.567C1218.22 359.95 1202.44 360.837 1186.79 362.245L1188.85 368.227C1203.83 366.896 1218.9 366.039 1234.02 365.672V359.567ZM1269.38 359.567V365.672C1284.49 366.039 1299.56 366.896 1314.54 368.227L1316.61 362.245C1300.94 360.837 1285.18 359.95 1269.38 359.567ZM1351.31 366.192L1349.24 372.174C1363.91 374.24 1378.4 376.78 1392.69 379.778L1396.73 374.133C1381.81 370.996 1366.65 368.334 1351.31 366.192ZM1429.43 381.92L1425.37 387.566C1439.02 391.238 1452.38 395.369 1465.4 399.959L1471.27 394.879C1457.67 390.075 1443.7 385.745 1429.43 381.92ZM1500.68 406.216L1494.8 411.296C1506.87 416.421 1518.56 421.975 1529.84 427.957L1537.31 423.643C1525.54 417.385 1513.32 411.571 1500.68 406.216ZM1612.14 476.197L1603.34 479.594C1611.28 487.121 1618.44 494.832 1624.79 502.711L1634.57 500.371C1627.94 492.124 1620.44 484.061 1612.14 476.197ZM1624.79 703.244C1618.44 711.124 1611.28 718.835 1603.34 726.362L1612.14 729.744C1620.44 721.895 1627.94 713.832 1634.57 705.585L1624.79 703.244ZM1668.67 565.501L1658.3 566.695C1660.59 575.339 1662.07 584.045 1662.73 592.765H1673.3C1672.65 583.647 1671.1 574.543 1668.67 565.501ZM1662.73 613.19C1662.07 621.911 1660.59 630.617 1658.3 639.261L1668.67 640.455C1671.1 631.412 1672.65 622.309 1673.3 613.19H1662.73ZM2278.88 1218.92L2286.5 1214.87L2242.8 1191.56L2235.2 1195.63L2278.88 1218.92ZM2217.35 1186.1L2224.95 1182.05L2181.25 1158.75L2173.65 1162.8L2217.35 1186.1ZM2162.02 1156.34L2169.35 1152.11L2127.31 1127.84L2119.99 1132.08L2162.02 1156.34ZM2102.81 1122.15L2110.13 1117.93L2068.1 1093.66L2060.77 1097.88L2102.81 1122.15ZM2043.6 1087.97L2050.92 1083.75L2008.89 1059.47L2001.56 1063.71L2043.6 1087.97ZM1984.38 1053.78L1991.71 1049.55L1949.68 1025.29L1942.35 1029.51L1984.38 1053.78ZM1925.17 1019.6L1932.5 1015.37L1890.45 991.093L1883.14 995.331L1925.17 1019.6ZM1865.96 985.401L1873.29 981.179L1831.24 956.913L1823.93 961.136L1865.96 985.401ZM1806.75 951.222L1814.06 946.999L1772.03 922.719L1764.7 926.957L1806.75 951.222ZM1747.54 917.042L1754.85 912.804L1712.82 888.539L1705.49 892.762L1747.54 917.042ZM1688.33 882.848L1695.64 878.625L1653.61 854.36L1646.29 858.582L1688.33 882.848ZM1648.06 686.721C1653.51 678.107 1658.11 669.34 1661.81 660.482L1651.44 659.304C1647.89 667.764 1643.49 676.133 1638.28 684.38L1648.06 686.721ZM1651.46 546.652L1661.81 545.474C1658.11 536.616 1653.51 527.849 1648.06 519.235L1638.28 521.576C1643.49 529.822 1647.89 538.191 1651.46 546.652ZM1602.83 833.491L1629.1 848.668L1636.43 844.43L1610.54 829.498L1594.39 820.165L1587.08 824.387L1602.83 833.491ZM1562.32 767.87C1573.15 761.077 1583.22 754.024 1592.48 746.726L1583.69 743.33C1574.82 750.306 1565.2 757.053 1554.84 763.556L1562.32 767.87ZM1583.69 462.626L1592.49 459.23C1583.23 451.932 1573.15 444.879 1562.32 438.086L1554.84 442.4C1565.2 448.902 1574.82 455.65 1583.69 462.626ZM1500.66 799.74C1513.3 794.385 1525.54 788.571 1537.31 782.313L1529.82 777.999C1518.56 783.981 1506.87 789.535 1494.79 794.66L1500.66 799.74ZM1429.43 824.036C1443.7 820.211 1457.66 815.881 1471.27 811.077L1465.4 805.997C1452.38 810.587 1439.02 814.718 1425.37 818.39L1429.43 824.036ZM1351.31 839.764C1366.64 837.622 1381.81 834.96 1396.73 831.823L1392.68 826.177C1378.4 829.176 1363.91 831.716 1349.24 833.781L1351.31 839.764ZM1269.38 846.388C1285.18 846.006 1300.94 845.118 1316.61 843.711L1314.54 837.729C1299.56 839.06 1284.48 839.917 1269.38 840.284V846.388ZM1234 846.388V840.284C1218.9 839.917 1203.82 839.06 1188.85 837.729L1186.79 843.726C1202.44 845.119 1218.22 846.006 1234 846.388ZM1152.09 839.764L1154.14 833.781C1139.48 831.716 1124.98 829.176 1110.7 826.177L1106.65 831.823C1121.58 834.96 1136.74 837.622 1152.09 839.764ZM1073.97 824.036L1078.01 818.39C1064.38 814.718 1051.02 810.587 1038 805.997L1032.11 811.077C1045.73 815.881 1059.69 820.211 1073.97 824.036ZM1002.72 799.74L1008.59 794.66C996.522 789.535 984.833 783.981 973.558 777.999L966.076 782.313C977.857 788.571 990.081 794.385 1002.72 799.74ZM1038.34 726.163C1156.17 794.186 1347.22 794.186 1465.04 726.163C1582.88 658.126 1582.88 547.83 1465.04 479.792C1347.22 411.77 1156.17 411.77 1038.34 479.792C920.514 547.83 920.514 658.126 1038.34 726.163ZM941.076 767.886L948.558 763.556C938.2 757.053 928.561 750.306 919.703 743.33L910.905 746.726C920.162 754.024 930.229 761.077 941.076 767.886ZM919.703 462.626C928.561 455.65 938.2 448.902 948.558 442.4L941.076 438.086C930.229 444.879 920.162 451.932 910.905 459.23L919.703 462.626ZM891.245 729.759L900.043 726.362C892.117 718.835 884.957 711.124 878.608 703.26L868.816 705.585C875.441 713.832 882.938 721.895 891.245 729.759ZM878.608 502.711C884.957 494.832 892.117 487.121 900.043 479.594L891.245 476.212C882.938 484.061 875.441 492.124 868.816 500.371L878.608 502.711ZM855.337 686.721L865.098 684.38C859.912 676.133 855.505 667.764 851.94 659.304L841.567 660.497C845.285 669.34 849.875 678.107 855.337 686.721ZM865.098 521.576L855.337 519.235C849.875 527.864 845.285 536.616 841.567 545.474L851.94 546.652C855.505 538.191 859.912 529.822 865.098 521.576ZM834.713 640.455L845.086 639.261C842.791 630.617 841.307 621.911 840.664 613.19H830.093C830.75 622.309 832.296 631.412 834.713 640.455ZM840.664 592.765C841.307 584.045 842.791 575.339 845.086 566.695L834.713 565.501C832.296 574.543 830.75 583.647 830.093 592.765H840.664Z" fill="url(#paint1_linear_1166_29186)"/>
<path d="M1234.02 359.567V365.672C1218.9 366.039 1203.83 366.896 1188.86 368.227L1186.79 362.245C1202.44 360.837 1218.22 359.95 1234.02 359.567ZM1316.61 362.245L1314.54 368.227C1299.56 366.896 1284.49 366.039 1269.38 365.672V359.567C1285.18 359.95 1300.94 360.837 1316.61 362.245ZM1073.97 381.92L1078.02 387.581C1064.38 391.238 1051.02 395.369 1038 399.959L1032.13 394.879C1045.73 390.075 1059.7 385.745 1073.97 381.92ZM1152.09 366.192L1154.14 372.174C1139.48 374.24 1124.98 376.78 1110.7 379.778L1106.65 374.133C1121.58 370.996 1136.74 368.334 1152.09 366.192ZM1351.31 366.192C1366.65 368.334 1381.81 370.996 1396.73 374.133L1392.69 379.778C1378.4 376.78 1363.91 374.24 1349.24 372.174L1351.31 366.192ZM1500.68 406.216C1513.32 411.571 1525.54 417.385 1537.31 423.643L1529.84 427.957C1518.56 421.975 1506.87 416.421 1494.8 411.296L1500.68 406.216ZM1562.32 438.085C1573.15 444.879 1583.24 451.932 1592.49 459.23L1583.69 462.626C1574.82 455.65 1565.2 448.902 1554.84 442.4L1562.32 438.085ZM1429.43 381.92C1443.7 385.745 1457.67 390.075 1471.27 394.879L1465.4 399.959C1452.38 395.369 1439.02 391.238 1425.37 387.566L1429.43 381.92ZM840.665 613.19C841.308 621.911 842.792 630.617 845.087 639.261L834.713 640.454C832.296 631.412 830.751 622.309 830.093 613.19H840.665ZM1002.72 406.216L1008.59 411.296C996.523 416.421 984.834 421.975 973.558 427.957L966.077 423.643C977.857 417.385 990.082 411.571 1002.72 406.216ZM834.713 565.501L845.087 566.695C842.792 575.339 841.308 584.045 840.665 592.765H830.093C830.751 583.647 832.296 574.543 834.713 565.501ZM851.941 659.304C855.506 667.764 859.912 676.133 865.099 684.38L855.337 686.721C849.875 678.107 845.286 669.34 841.568 660.497L851.941 659.304ZM941.077 438.085L948.558 442.4C938.2 448.902 928.562 455.65 919.703 462.626L910.906 459.23C920.162 451.932 930.229 444.879 941.077 438.085ZM855.337 519.235L865.099 521.576C859.912 529.822 855.506 538.191 851.941 546.652L841.568 545.474C845.286 536.615 849.875 527.864 855.337 519.235ZM891.246 476.212L900.043 479.594C892.118 487.121 884.958 494.832 878.608 502.711L868.816 500.371C875.441 492.124 882.938 484.061 891.246 476.212ZM878.608 703.26C884.958 711.124 892.118 718.835 900.043 726.362L891.246 729.759C882.938 721.895 875.441 713.832 868.816 705.585L878.608 703.26ZM1612.14 476.197C1620.44 484.061 1627.94 492.124 1634.57 500.371L1624.79 502.711C1618.44 494.832 1611.28 487.121 1603.34 479.594L1612.14 476.197ZM1314.54 837.729L1316.61 843.711C1300.94 845.118 1285.18 846.006 1269.38 846.388V840.284C1284.48 839.917 1299.56 839.06 1314.54 837.729ZM1188.86 837.729C1203.82 839.06 1218.9 839.917 1234 840.284V846.388C1218.22 846.006 1202.44 845.118 1186.79 843.726L1188.86 837.729ZM1465.4 805.997L1471.27 811.077C1457.66 815.881 1443.7 820.211 1429.43 824.035L1425.37 818.39C1439.02 814.718 1452.38 810.587 1465.4 805.997ZM1392.68 826.177L1396.73 831.823C1381.81 834.959 1366.64 837.622 1351.31 839.764L1349.24 833.781C1363.91 831.716 1378.4 829.176 1392.68 826.177ZM1038 805.997C1051.02 810.587 1064.38 814.718 1078.01 818.39L1073.97 824.035C1059.7 820.211 1045.73 815.881 1032.11 811.077L1038 805.997ZM919.703 743.33C928.562 750.306 938.2 757.053 948.558 763.556L941.077 767.886C930.229 761.077 920.162 754.024 910.906 746.726L919.703 743.33ZM973.558 777.999C984.834 783.981 996.523 789.535 1008.59 794.66L1002.72 799.74C990.082 794.385 977.857 788.571 966.077 782.313L973.558 777.999ZM1110.7 826.177C1124.98 829.176 1139.48 831.716 1154.14 833.781L1152.09 839.764C1136.74 837.622 1121.58 834.959 1106.65 831.823L1110.7 826.177ZM1668.67 565.501C1671.1 574.543 1672.65 583.647 1673.3 592.765H1662.73C1662.07 584.045 1660.59 575.339 1658.3 566.695L1668.67 565.501ZM1529.82 777.999L1537.31 782.313C1525.54 788.571 1513.3 794.385 1500.66 799.74L1494.79 794.66C1506.87 789.535 1518.56 783.981 1529.82 777.999ZM1648.06 519.235C1653.51 527.849 1658.11 536.615 1661.81 545.474L1651.46 546.652C1647.89 538.191 1643.49 529.822 1638.28 521.576L1648.06 519.235ZM1662.73 613.19H1673.3C1672.65 622.309 1671.1 631.412 1668.67 640.454L1658.3 639.261C1660.59 630.617 1662.07 621.911 1662.73 613.19ZM1583.69 743.33L1592.48 746.726C1583.22 754.024 1573.15 761.077 1562.32 767.87L1554.84 763.556C1565.2 757.053 1574.82 750.306 1583.69 743.33ZM1624.79 703.244L1634.57 705.585C1627.94 713.832 1620.44 721.895 1612.14 729.743L1603.34 726.362C1611.28 718.835 1618.44 711.124 1624.79 703.244ZM1651.44 659.304L1661.81 660.482C1658.11 669.34 1653.51 678.107 1648.06 686.721L1638.28 684.38C1643.49 676.133 1647.89 667.764 1651.44 659.304Z" fill="#DCE3EC"/>
<path d="M1883.14 995.331L1925.17 1019.6L1932.5 1015.37L1890.45 991.093L1883.14 995.331Z" fill="#DCE3EC"/>
<path d="M1823.93 961.135L1865.96 985.401L1873.29 981.178L1831.25 956.913L1823.93 961.135Z" fill="#DCE3EC"/>
<path d="M1764.71 926.956L1806.75 951.221L1814.06 946.998L1772.04 922.718L1764.71 926.956Z" fill="#DCE3EC"/>
<path d="M1705.5 892.761L1747.54 917.042L1754.85 912.804L1712.83 888.539L1705.5 892.761Z" fill="#DCE3EC"/>
<path d="M1646.29 858.582L1688.33 882.847L1695.64 878.624L1653.61 854.359L1646.29 858.582Z" fill="#DCE3EC"/>
<path d="M1587.08 824.387L1602.84 833.49L1629.1 848.668L1636.43 844.43L1610.55 829.497L1594.39 820.164L1587.08 824.387Z" fill="#DCE3EC"/>
<path d="M1883.14 995.331L1925.17 1019.6L1932.5 1015.37L1890.45 991.093L1883.14 995.331Z" fill="#DCE3EC"/>
<path d="M1823.93 961.135L1865.96 985.401L1873.29 981.178L1831.25 956.913L1823.93 961.135Z" fill="#DCE3EC"/>
<path d="M1764.71 926.956L1806.75 951.221L1814.06 946.998L1772.04 922.718L1764.71 926.956Z" fill="#DCE3EC"/>
<path d="M1705.5 892.761L1747.54 917.042L1754.85 912.804L1712.83 888.539L1705.5 892.761Z" fill="#DCE3EC"/>
<path d="M1646.29 858.582L1688.33 882.847L1695.64 878.624L1653.61 854.359L1646.29 858.582Z" fill="#DCE3EC"/>
<path d="M1587.08 824.387L1602.84 833.49L1629.1 848.668L1636.43 844.43L1610.55 829.497L1594.39 820.164L1587.08 824.387Z" fill="#DCE3EC"/>
<path d="M-86.1762 -721.173C45.048 -796.942 257.823 -796.942 389.047 -721.173L432.574 -696.043C630.054 -771.549 898.694 -759.08 1072.67 -658.634C1252.02 -555.101 1269.42 -393.464 1124.9 -278.646L1671.75 37.0912L1671.71 37.1205L1869.62 142.644C1877.8 147.02 1891.07 147.02 1899.25 142.644L2098.27 36.535L2098.05 36.4033L2664.48 -290.618L2816.9 -202.628L2257.8 120.178L2252.4 123.296L2252.33 123.34L2250.39 124.364L1669.27 434.247L1510.85 349.77L1711.2 242.943C1719.38 238.567 1719.38 231.498 1711.2 227.122L1519.57 124.95L1513.64 121.788L1513.6 121.759L1510.97 120.237L964.072 -195.515C770.001 -131.849 518.852 -147.802 353.365 -243.345C183.298 -341.521 158.841 -491.948 279.996 -605.155L234.054 -631.69C211.237 -644.862 181.336 -651.448 151.435 -651.448C121.535 -651.448 91.6337 -644.862 68.8165 -631.69L-60.0075 -552.262L-215 -641.745L-86.1762 -721.173ZM1636.76 363.235L1594.96 385.51L1602.23 389.403L1644.03 367.113L1636.76 363.235ZM1695.63 331.826L1653.84 354.116L1661.11 358.01L1702.91 335.719L1695.63 331.826ZM2695.76 -216.649L2735.98 -239.861L2728.97 -243.901L2688.76 -220.688L2695.76 -216.649ZM2639.12 -183.938L2679.34 -207.15L2672.33 -211.205L2632.12 -187.978L2639.12 -183.938ZM2582.48 -151.242L2622.7 -174.454L2615.69 -178.494L2575.48 -155.281L2582.48 -151.242ZM2525.84 -118.531L2566.04 -141.743L2559.05 -145.797L2518.83 -122.585L2525.84 -118.531ZM2469.2 -85.8346L2509.4 -109.047L2502.41 -113.086L2462.19 -89.874L2469.2 -85.8346ZM2412.54 -53.1236L2452.76 -76.3506L2445.75 -80.3901L2405.55 -57.1777L2412.54 -53.1236ZM2355.9 -20.4274L2396.12 -43.6397L2389.11 -47.6791L2348.91 -24.4668L2355.9 -20.4274ZM2299.26 12.2835L2339.48 -10.9434L2332.47 -14.9828L2292.27 8.22949L2299.26 12.2835ZM2242.62 44.9799L2282.83 21.7676L2275.83 17.7281L2235.61 40.9404L2242.62 44.9799ZM2185.98 77.6762L2226.19 54.4638L2219.19 50.4244L2178.97 73.6367L2185.98 77.6762ZM2132.12 106.831L2173.91 84.5404L2166.63 80.6619L2124.83 102.952L2132.12 106.831ZM2073.24 138.224L2115.04 115.949L2107.75 112.056L2065.95 134.346L2073.24 138.224ZM2014.36 169.633L2056.16 147.342L2048.87 143.449L2007.09 165.74L2014.36 169.633ZM1955.48 201.026L1997.28 178.736L1990.01 174.858L1948.21 197.148L1955.48 201.026ZM1837.74 263.814L1938.4 210.13L1931.13 206.251L1830.46 259.935L1837.74 263.814ZM1778.86 295.208L1820.66 272.917L1813.38 269.039L1771.59 291.329L1778.86 295.208ZM1813.38 201.026L1820.66 197.148L1778.86 174.858L1771.59 178.736L1813.38 201.026ZM1712.71 322.723L1719.99 326.601L1761.78 304.326L1754.51 300.432L1712.71 322.723ZM1754.51 169.633L1761.78 165.74L1719.99 143.464L1712.71 147.342L1754.51 169.633ZM474.842 -639.213C462.753 -634.09 451.059 -628.529 439.789 -622.543L446.946 -618.415C457.733 -624.138 468.914 -629.451 480.462 -634.354L474.842 -639.213ZM543.001 -662.454C529.345 -658.795 515.983 -654.653 502.972 -650.058L508.592 -645.199C521.047 -649.589 533.824 -653.541 546.879 -657.039L543.001 -662.454ZM617.731 -677.5C603.051 -675.451 588.547 -672.904 574.263 -669.904L578.141 -664.503C591.796 -667.372 605.671 -669.801 619.692 -671.777L617.731 -677.5ZM696.105 -683.837C680.986 -683.471 665.897 -682.622 650.925 -681.276L652.901 -675.553C667.229 -676.827 681.645 -677.646 696.105 -677.997V-683.837ZM729.929 -683.837V-677.997C744.389 -677.646 758.805 -676.827 773.133 -675.553L775.109 -681.276C760.122 -682.622 745.047 -683.471 729.929 -683.837ZM808.303 -677.5L806.327 -671.777C820.363 -669.801 834.223 -667.372 847.893 -664.503L851.757 -669.904C837.487 -672.904 822.983 -675.451 808.303 -677.5ZM883.033 -662.454L879.155 -657.054C892.21 -653.541 904.987 -649.589 917.442 -645.199L923.062 -650.058C910.051 -654.653 896.688 -658.795 883.033 -662.454ZM951.192 -639.213L945.572 -634.354C957.12 -629.451 968.301 -624.138 979.088 -618.415L986.23 -622.543C974.975 -628.529 963.281 -634.09 951.192 -639.213ZM1057.81 -572.269L1049.4 -569.02C1056.99 -561.819 1063.84 -554.442 1069.92 -546.905L1079.27 -549.144C1072.93 -557.033 1065.76 -564.746 1057.81 -572.269ZM1069.92 -355.074C1063.84 -347.537 1056.99 -340.16 1049.4 -332.959L1057.81 -329.725C1065.76 -337.233 1072.93 -344.946 1079.27 -352.835L1069.92 -355.074ZM1111.89 -486.84L1101.97 -485.698C1104.16 -477.429 1105.58 -469.101 1106.21 -460.759H1116.33C1115.7 -469.482 1114.22 -478.19 1111.89 -486.84ZM1106.21 -441.22C1105.58 -432.878 1104.16 -424.55 1101.97 -416.281L1111.89 -415.139C1114.22 -423.789 1115.7 -432.497 1116.33 -441.22H1106.21ZM1695.63 138.224L1702.91 134.346L1661.11 112.056L1653.84 115.949L1695.63 138.224ZM1636.76 106.831L1644.03 102.952L1602.23 80.6619L1594.96 84.5404L1636.76 106.831ZM1583.84 78.364L1590.85 74.3099L1550.63 51.0976L1543.63 55.1517L1583.84 78.364ZM1527.2 45.6531L1534.19 41.6137L1493.99 18.4014L1486.98 22.4408L1527.2 45.6531ZM1470.56 12.9568L1477.55 8.91733L1437.35 -14.3096L1430.34 -10.2555L1470.56 12.9568ZM1413.9 -19.7541L1420.91 -23.7936L1380.71 -47.0059L1373.7 -42.9664L1413.9 -19.7541ZM1357.26 -52.4504L1364.27 -56.4899L1324.05 -79.7168L1317.06 -75.6627L1357.26 -52.4504ZM1300.62 -85.1613L1307.63 -89.2008L1267.41 -112.413L1260.42 -108.374L1300.62 -85.1613ZM1243.98 -117.858L1250.98 -121.897L1210.77 -145.124L1203.76 -141.07L1243.98 -117.858ZM1187.34 -150.554L1194.34 -154.608L1154.13 -177.82L1147.12 -173.781L1187.34 -150.554ZM1130.7 -183.265L1137.7 -187.304L1097.49 -210.517L1090.48 -206.477L1130.7 -183.265ZM1092.18 -370.881C1097.39 -379.121 1101.79 -387.507 1105.34 -395.981L1095.41 -397.108C1092.02 -389.014 1087.8 -381.009 1082.83 -373.12L1092.18 -370.881ZM1095.43 -504.871L1105.34 -505.998C1101.79 -514.472 1097.39 -522.858 1092.18 -531.098L1082.83 -528.859C1087.8 -520.97 1092.02 -512.965 1095.43 -504.871ZM1048.91 -230.48L1074.04 -215.961L1081.06 -220.015L1056.29 -234.3L1040.84 -243.228L1033.84 -239.188L1048.91 -230.48ZM1010.16 -293.253C1020.52 -299.751 1030.15 -306.498 1039.01 -313.479L1030.61 -316.728C1022.12 -310.054 1012.91 -303.6 1003 -297.38L1010.16 -293.253ZM1030.61 -585.251L1039.02 -588.5C1030.17 -595.481 1020.52 -602.228 1010.16 -608.726L1003 -604.599C1012.91 -598.379 1022.12 -591.925 1030.61 -585.251ZM951.177 -262.766C963.266 -267.889 974.975 -273.45 986.23 -279.436L979.073 -283.564C968.301 -277.841 957.12 -272.528 945.557 -267.625L951.177 -262.766ZM883.033 -239.525C896.688 -243.184 910.036 -247.326 923.062 -251.921L917.442 -256.78C904.987 -252.39 892.21 -248.438 879.155 -244.925L883.033 -239.525ZM808.303 -224.479C822.968 -226.528 837.487 -229.075 851.757 -232.075L847.878 -237.476C834.223 -234.607 820.363 -232.178 806.327 -230.202L808.303 -224.479ZM729.929 -218.142C745.047 -218.508 760.122 -219.357 775.109 -220.703L773.133 -226.426C758.805 -225.152 744.374 -224.333 729.929 -223.982V-218.142ZM696.091 -218.142V-223.982C681.645 -224.333 667.214 -225.152 652.901 -226.426L650.925 -220.688C665.897 -219.357 680.986 -218.508 696.091 -218.142ZM617.731 -224.479L619.692 -230.202C605.671 -232.178 591.796 -234.607 578.141 -237.476L574.263 -232.075C588.547 -229.075 603.051 -226.528 617.731 -224.479ZM543.001 -239.525L546.864 -244.925C533.824 -248.438 521.047 -252.39 508.592 -256.78L502.957 -251.921C515.983 -247.326 529.345 -243.184 543.001 -239.525ZM474.842 -262.766L480.462 -267.625C468.914 -272.528 457.733 -277.841 446.946 -283.564L439.789 -279.436C451.059 -273.45 462.753 -267.889 474.842 -262.766ZM508.914 -333.15C621.639 -268.079 804.395 -268.079 917.105 -333.15C1029.83 -398.235 1029.83 -503.744 917.105 -568.829C804.395 -633.9 621.639 -633.9 508.914 -568.829C396.204 -503.744 396.204 -398.235 508.914 -333.15ZM415.874 -293.238L423.031 -297.38C413.123 -303.6 403.902 -310.054 395.428 -316.728L387.013 -313.479C395.867 -306.498 405.498 -299.751 415.874 -293.238ZM395.428 -585.251C403.902 -591.925 413.123 -598.379 423.031 -604.599L415.874 -608.726C405.498 -602.228 395.867 -595.481 387.013 -588.5L395.428 -585.251ZM368.206 -329.71L376.621 -332.959C369.04 -340.16 362.19 -347.537 356.117 -355.059L346.75 -352.835C353.087 -344.946 360.259 -337.233 368.206 -329.71ZM356.117 -546.905C362.19 -554.442 369.04 -561.819 376.621 -569.02L368.206 -572.254C360.259 -564.746 353.087 -557.033 346.75 -549.144L356.117 -546.905ZM333.855 -370.881L343.193 -373.12C338.232 -381.009 334.017 -389.014 330.606 -397.108L320.683 -395.966C324.24 -387.507 328.631 -379.121 333.855 -370.881ZM343.193 -528.859L333.855 -531.098C328.631 -522.844 324.24 -514.472 320.683 -505.998L330.606 -504.871C334.017 -512.965 338.232 -520.97 343.193 -528.859ZM314.126 -415.139L324.05 -416.281C321.854 -424.55 320.435 -432.878 319.82 -441.22H309.706C310.336 -432.497 311.814 -423.789 314.126 -415.139ZM319.82 -460.759C320.435 -469.101 321.854 -477.429 324.05 -485.698L314.126 -486.84C311.814 -478.19 310.336 -469.482 309.706 -460.759H319.82ZM344.423 -653.336L348.886 -650.76L356.014 -654.873L351.448 -657.507L315.122 -678.48L307.994 -674.382L344.423 -653.336ZM291.661 -682.915L298.803 -687.028C284.079 -694.068 268.185 -699.863 251.559 -704.459L247.709 -699.102C263.15 -694.785 277.932 -689.413 291.661 -682.915ZM164.081 -711.572C184.512 -710.899 204.812 -708.63 224.351 -704.693L228.215 -710.064C207.432 -714.28 185.815 -716.709 164.081 -717.397V-711.572ZM78.52 -704.693C98.0588 -708.63 118.359 -710.899 138.79 -711.572V-717.397C117.041 -716.709 95.4389 -714.28 74.6562 -710.064L78.52 -704.693ZM11.2102 -682.915C24.9385 -689.413 39.7207 -694.785 55.1614 -699.102L51.3122 -704.474C34.686 -699.863 18.7915 -694.068 4.06791 -687.028L11.2102 -682.915ZM-46.0156 -650.76L-5.12339 -674.382L-12.251 -678.495L-53.1432 -654.873L-46.0156 -650.76Z" fill="url(#paint2_linear_1166_29186)"/>
<path d="M1543.63 55.1523L1583.84 78.3646L1590.85 74.3105L1550.63 51.0982L1543.63 55.1523Z" fill="#DCE3EC"/>
<path d="M1513.64 121.789L1519.35 125.082L1519.57 124.95L1513.64 121.789Z" fill="#DCE3EC"/>
<path d="M1486.98 22.4403L1527.2 45.6527L1534.19 41.6132L1493.99 18.4009L1486.98 22.4403Z" fill="#DCE3EC"/>
<path d="M1430.34 -10.2549L1470.56 12.9573L1477.55 8.91787L1437.35 -14.3091L1430.34 -10.2549Z" fill="#DCE3EC"/>
<path d="M1430.34 -10.2549L1470.55 12.9573L1477.55 8.91787L1437.35 -14.3091L1430.34 -10.2549Z" fill="#DCE3EC"/>
<path d="M1486.98 22.4403L1527.2 45.6527L1534.19 41.6132L1493.99 18.4009L1486.98 22.4403Z" fill="#DCE3EC"/>
<path d="M1543.63 55.1523L1583.84 78.3646L1590.85 74.3105L1550.63 51.0982L1543.63 55.1523Z" fill="#DCE3EC"/>
<path d="M2332.47 -14.9821L2292.27 8.23024L2299.26 12.2843L2339.48 -10.9427L2332.47 -14.9821Z" fill="#DCE3EC"/>
<path d="M2252.33 123.341L2250.4 124.365L2250.47 124.409L2252.33 123.341Z" fill="#DCE3EC"/>
<path d="M2275.83 17.7285L2235.61 40.9408L2242.62 44.9802L2282.83 21.7679L2275.83 17.7285Z" fill="#DCE3EC"/>
<path d="M2178.97 73.6375L2185.98 77.677L2226.19 54.4646L2219.19 50.4252L2178.97 73.6375Z" fill="#DCE3EC"/>
<path d="M2219.19 50.4253L2226.19 54.4647L2185.98 77.6771L2178.97 73.6376L2219.19 50.4253ZM2275.83 17.729L2282.83 21.7684L2242.62 44.9807L2235.61 40.9413L2275.83 17.729ZM2332.47 -14.9819L2339.48 -10.9425L2299.26 12.2844L2292.27 8.23036L2332.47 -14.9819ZM2389.11 -47.6783L2396.12 -43.6388L2355.9 -20.4265L2348.91 -24.466L2389.11 -47.6783ZM2728.97 -243.9L2735.98 -239.86L2695.76 -216.648L2688.77 -220.688L2728.97 -243.9ZM2672.33 -211.204L2679.34 -207.15L2639.12 -183.937L2632.13 -187.977L2672.33 -211.204ZM2615.69 -178.493L2622.7 -174.453L2582.48 -151.241L2575.48 -155.28L2615.69 -178.493ZM2559.05 -145.796L2566.04 -141.742L2525.84 -118.53L2518.83 -122.584L2559.05 -145.796ZM2502.41 -113.086L2509.4 -109.046L2469.2 -85.8337L2462.19 -89.8732L2502.41 -113.086ZM2445.75 -80.3892L2452.76 -76.3497L2412.54 -53.1228L2405.55 -57.1769L2445.75 -80.3892Z" fill="#DCE3EC"/>
<path d="M2124.83 102.952L2132.12 106.831L2173.91 84.5405L2166.63 80.662L2124.83 102.952Z" fill="#DCE3EC"/>
<path d="M2252.4 123.296L2258.02 120.296L2257.8 120.179L2252.4 123.296Z" fill="#DCE3EC"/>
<path d="M2065.95 134.346L2073.24 138.225L2115.04 115.949L2107.75 112.056L2065.95 134.346Z" fill="#DCE3EC"/>
<path d="M2007.09 165.739L2014.36 169.632L2056.16 147.342L2048.87 143.449L2007.09 165.739Z" fill="#DCE3EC"/>
<path d="M1948.21 197.148L1955.48 201.026L1997.28 178.736L1990.01 174.857L1948.21 197.148Z" fill="#DCE3EC"/>
<path d="M1830.46 259.936L1837.74 263.814L1938.4 210.13L1931.13 206.252L1830.46 259.936Z" fill="#DCE3EC"/>
<path d="M1771.58 291.329L1778.86 295.208L1820.66 272.917L1813.38 269.039L1771.58 291.329Z" fill="#DCE3EC"/>
<path d="M1771.58 178.736L1813.38 201.026L1820.66 197.148L1778.86 174.857L1771.58 178.736Z" fill="#DCE3EC"/>
<path d="M1712.7 322.723L1719.99 326.601L1761.78 304.326L1754.5 300.433L1712.7 322.723Z" fill="#DCE3EC"/>
<path d="M1712.7 147.343L1754.5 169.633L1761.78 165.74L1719.99 143.465L1712.7 147.343Z" fill="#DCE3EC"/>
<path d="M1653.84 354.116L1661.11 358.009L1702.91 335.719L1695.62 331.826L1653.84 354.116Z" fill="#DCE3EC"/>
<path d="M1653.84 115.949L1695.62 138.225L1702.91 134.346L1661.11 112.056L1653.84 115.949Z" fill="#DCE3EC"/>
<path d="M1594.96 385.51L1602.23 389.403L1644.03 367.113L1636.76 363.234L1594.96 385.51Z" fill="#DCE3EC"/>
<path d="M1594.96 84.5405L1636.76 106.831L1644.03 102.952L1602.23 80.662L1594.96 84.5405Z" fill="#DCE3EC"/>
<path d="M1510.85 120.296L1513.6 121.76L1510.97 120.237L1510.85 120.296Z" fill="#DCE3EC"/>
<path d="M1948.21 197.148L1955.48 201.027L1997.28 178.736L1990.01 174.858L1948.21 197.148Z" fill="#DCE3EC"/>
<path d="M2007.09 165.739L2014.36 169.632L2056.16 147.342L2048.87 143.449L2007.09 165.739Z" fill="#DCE3EC"/>
<path d="M2065.95 134.346L2073.24 138.225L2115.04 115.949L2107.75 112.056L2065.95 134.346Z" fill="#DCE3EC"/>
<path d="M2124.83 102.952L2132.12 106.831L2173.91 84.5405L2166.63 80.662L2124.83 102.952Z" fill="#DCE3EC"/>
<path d="M1771.58 291.329L1778.86 295.208L1820.66 272.917L1813.38 269.039L1771.58 291.329Z" fill="#DCE3EC"/>
<path d="M1712.7 322.723L1719.99 326.601L1761.78 304.326L1754.5 300.433L1712.7 322.723Z" fill="#DCE3EC"/>
<path d="M1653.84 354.116L1661.11 358.009L1702.91 335.719L1695.63 331.826L1653.84 354.116Z" fill="#DCE3EC"/>
<path d="M1594.96 385.51L1602.23 389.403L1644.03 367.113L1636.76 363.234L1594.96 385.51Z" fill="#DCE3EC"/>
<path d="M1830.46 259.936L1837.74 263.815L1938.4 210.131L1931.13 206.252L1830.46 259.936Z" fill="#DCE3EC"/>
<path d="M1771.58 178.736L1813.38 201.026L1820.66 197.148L1778.86 174.857L1771.58 178.736Z" fill="#DCE3EC"/>
<path d="M1712.71 147.343L1754.51 169.633L1761.78 165.74L1719.99 143.464L1712.71 147.343Z" fill="#DCE3EC"/>
<path d="M1653.84 115.949L1695.62 138.225L1702.91 134.347L1661.11 112.056L1653.84 115.949Z" fill="#DCE3EC"/>
<path d="M1594.96 84.5404L1636.76 106.831L1644.03 102.952L1602.23 80.6619L1594.96 84.5404Z" fill="#DCE3EC"/>
<path d="M3037.13 614.57L3598.85 290.257L3447.72 203L2886 527.313L3037.13 614.57Z" fill="url(#paint3_linear_1166_29186)"/>
<path fill-rule="evenodd" clip-rule="evenodd" d="M3471.78 272.347L3511.66 249.328L3518.6 253.334L3478.73 276.368L3471.78 272.347ZM3455.49 281.752L3415.61 304.786L3422.56 308.792L3462.43 285.773L3455.49 281.752ZM3359.44 337.21L3399.33 314.191L3406.26 318.197L3366.39 341.216L3359.44 337.21ZM3343.14 346.615L3303.27 369.649L3310.21 373.654L3350.1 350.635L3343.14 346.615ZM3247.1 402.072L3286.97 379.053L3293.93 383.059L3254.04 406.078L3247.1 402.072ZM3190.92 434.511L3230.81 411.477L3237.74 415.498L3197.87 438.517L3190.92 434.511ZM3134.75 466.935L3174.64 443.916L3181.57 447.922L3141.7 470.941L3134.75 466.935ZM3118.47 476.34L3078.58 499.359L3085.54 503.379L3125.41 480.345L3118.47 476.34ZM3022.41 531.797L3062.28 508.778L3069.24 512.784L3029.35 535.803L3022.41 531.797ZM3006.12 541.203L2966.25 564.222L2973.18 568.242L3013.07 545.208L3006.12 541.203Z" fill="url(#paint4_linear_1166_29186)"/>
<path d="M3439.72 1068.57L2878 744.257L3029.13 657L3590.85 981.313L3439.72 1068.57Z" fill="url(#paint5_linear_1166_29186)"/>
<path fill-rule="evenodd" clip-rule="evenodd" d="M3005.07 726.347L2965.19 703.328L2958.25 707.334L2998.12 730.368L3005.07 726.347ZM3021.36 735.752L3061.24 758.786L3054.29 762.792L3014.42 739.773L3021.36 735.752ZM3117.41 791.21L3077.52 768.191L3070.59 772.197L3110.46 795.216L3117.41 791.21ZM3133.71 800.615L3173.58 823.649L3166.64 827.654L3126.75 804.635L3133.71 800.615ZM3229.75 856.072L3189.88 833.053L3182.92 837.059L3222.81 860.078L3229.75 856.072ZM3285.93 888.511L3246.04 865.477L3239.1 869.498L3278.97 892.517L3285.93 888.511ZM3342.1 920.935L3302.21 897.916L3295.27 901.922L3335.14 924.941L3342.1 920.935ZM3358.38 930.34L3398.26 953.359L3391.31 957.379L3351.44 934.345L3358.38 930.34ZM3454.43 985.797L3414.56 962.778L3407.61 966.784L3447.5 989.803L3454.43 985.797ZM3470.73 995.203L3510.6 1018.22L3503.66 1022.24L3463.78 999.208L3470.73 995.203Z" fill="url(#paint6_linear_1166_29186)"/>
<defs>
<linearGradient id="paint0_linear_1166_29186" x1="3073.5" y1="862" x2="1239" y2="873.5" gradientUnits="userSpaceOnUse">
<stop stop-color="#E7D7DD"/>
<stop offset="0.729949" stop-color="#B4A7D1"/>
<stop offset="1" stop-color="#9186C9"/>
</linearGradient>
<linearGradient id="paint1_linear_1166_29186" x1="3343.65" y1="708.141" x2="481.636" y2="718.244" gradientUnits="userSpaceOnUse">
<stop stop-color="#E7D7DD"/>
<stop offset="0.590038" stop-color="#B4A7D1"/>
<stop offset="1" stop-color="#9186C9"/>
</linearGradient>
<linearGradient id="paint2_linear_1166_29186" x1="3543.5" y1="160.5" x2="360.5" y2="195.5" gradientUnits="userSpaceOnUse">
<stop stop-color="#E7D7DD"/>
<stop offset="0.593692" stop-color="#B4A7D1"/>
<stop offset="1" stop-color="#9186C9"/>
</linearGradient>
<linearGradient id="paint3_linear_1166_29186" x1="3415" y1="517.5" x2="2847.97" y2="510.671" gradientUnits="userSpaceOnUse">
<stop stop-color="#E7D7DD" stop-opacity="0"/>
<stop offset="0.442708" stop-color="#D5C6D9"/>
<stop offset="1" stop-color="#D5C6D9"/>
</linearGradient>
<linearGradient id="paint4_linear_1166_29186" x1="2936.5" y1="596.5" x2="3593" y2="203" gradientUnits="userSpaceOnUse">
<stop offset="0.272614" stop-color="#DCE3EC"/>
<stop offset="1" stop-color="#D3C5D9" stop-opacity="0"/>
</linearGradient>
<linearGradient id="paint5_linear_1166_29186" x1="3483" y1="1081.5" x2="2972.51" y2="760.095" gradientUnits="userSpaceOnUse">
<stop stop-color="#E7D7DD" stop-opacity="0"/>
<stop offset="0.442708" stop-color="#D5C6D9"/>
<stop offset="1" stop-color="#D5C6D9"/>
</linearGradient>
<linearGradient id="paint6_linear_1166_29186" x1="3071" y1="762.5" x2="3506" y2="989" gradientUnits="userSpaceOnUse">
<stop offset="0.272614" stop-color="#DCE3EC"/>
<stop offset="1" stop-color="#D3C5D9" stop-opacity="0"/>
</linearGradient>
</defs>
</svg>
