<svg width="436" height="660" viewBox="0 0 436 660" fill="none" xmlns="http://www.w3.org/2000/svg">
<g clip-path="url(#clip0_1027_13068)">
<path style="mix-blend-mode:multiply" d="M436 614.276H182.102V660H436V614.276Z" fill="url(#paint0_linear_1027_13068)"/>
<path d="M96.5133 4.11993L182.139 53.5592L182.102 660L96.4766 610.561L96.5133 4.11993Z" fill="#F2F9CF"/>
<path d="M182.103 647.052L166.912 638.26V640.725L182.103 649.516V647.052Z" fill="#F4F4FB"/>
<path d="M182.103 594.191L166.912 585.436V587.864L182.103 596.619V594.191Z" fill="#F4F4FB"/>
<path d="M182.103 541.331L166.912 532.576V535.004L182.103 543.759V541.331Z" fill="#F4F4FB"/>
<path d="M182.103 488.471L166.912 479.679V482.144L182.103 490.898V488.471Z" fill="#F4F4FB"/>
<path d="M182.139 435.61L166.912 426.819V429.283L182.103 438.075L182.139 435.61Z" fill="#F4F4FB"/>
<path d="M182.102 382.75L166.912 373.958L166.875 376.423L182.139 385.178L182.102 382.75Z" fill="#F4F4FB"/>
<path d="M182.103 329.89L166.912 321.098V323.526L182.139 332.354L182.103 329.89Z" fill="#F4F4FB"/>
<path d="M182.139 277.029L166.912 268.238V270.666L182.103 279.494L182.139 277.029Z" fill="#F4F4FB"/>
<path d="M182.139 224.169L166.912 215.377V217.842L182.103 226.634L182.139 224.169Z" fill="#F4F4FB"/>
<path d="M182.103 171.309L166.912 162.517V164.982L182.103 173.736V171.309Z" fill="#F4F4FB"/>
<path d="M182.103 118.448L166.912 109.657V112.121L182.139 120.913L182.103 118.448Z" fill="#F4F4FB"/>
<path d="M182.102 68.0158L166.911 59.261V56.7964L182.102 65.588V68.0158Z" fill="#F4F4FB"/>
<path d="M189.274 49.4393L103.648 0L96.5127 4.11994L182.138 53.5592L189.274 49.4393Z" fill="#AAC9C0"/>
<path d="M189.275 655.88V49.4393L182.139 53.5592L182.103 660L189.275 655.88Z" fill="#519080"/>
<path d="M189.275 645.36L182.103 649.516V647.052L189.275 642.932V645.36Z" fill="#C8D5E7"/>
<path d="M189.275 592.499L182.103 596.619V594.191L189.275 590.071V592.499Z" fill="#C8D5E7"/>
<path d="M189.275 539.639L182.139 543.759L182.103 541.331L189.275 537.174V539.639Z" fill="#C8D5E7"/>
<path d="M189.275 486.742L182.139 490.898L182.103 488.434L189.275 484.314V486.742Z" fill="#C8D5E7"/>
<path d="M189.275 433.881L182.139 438.038L182.103 435.574L189.275 431.454V433.881Z" fill="#C8D5E7"/>
<path d="M189.275 381.021L182.139 385.141L182.103 382.713L189.275 378.556V381.021Z" fill="#C8D5E7"/>
<path d="M189.275 328.161L182.139 332.281L182.103 329.853L189.275 325.696V328.161Z" fill="#C8D5E7"/>
<path d="M189.275 275.264L182.139 279.42L182.103 276.956L189.275 272.836V275.264Z" fill="#C8D5E7"/>
<path d="M189.275 222.403L182.139 226.523L182.103 224.095L189.275 219.975V222.403Z" fill="#C8D5E7"/>
<path d="M189.275 169.543L182.139 173.663L182.103 171.235L189.275 167.078V169.543Z" fill="#C8D5E7"/>
<path d="M189.275 116.646L182.14 120.803V118.338L189.275 114.218V116.646Z" fill="#C8D5E7"/>
<path d="M189.274 63.7855L182.139 67.9422V65.4776L189.274 61.3577V63.7855Z" fill="#C8D5E7"/>
<path d="M182.102 639.547L174.525 635.133L174.488 637.561L182.102 641.975V639.547Z" fill="#F4F4FB"/>
<path d="M182.102 631.97L174.525 627.555L174.488 629.983L182.102 634.398V631.97Z" fill="#F4F4FB"/>
<path d="M182.102 624.392L174.525 619.978L174.488 622.442L182.102 626.82V624.392Z" fill="#F4F4FB"/>
<path d="M182.102 616.814L174.525 612.4L174.488 614.865L182.102 619.242V616.814Z" fill="#F4F4FB"/>
<path d="M182.102 609.236L174.525 604.822L174.488 607.287L182.102 611.664V609.236Z" fill="#F4F4FB"/>
<path d="M182.102 601.659L174.525 597.244L174.488 599.709L182.102 604.086V601.659Z" fill="#F4F4FB"/>
<path d="M182.102 639.547L189.274 635.391L189.311 637.819L182.102 641.975V639.547Z" fill="#C8D5E7"/>
<path d="M182.102 631.97L189.274 627.813L189.311 630.278L182.102 634.398V631.97Z" fill="#C8D5E7"/>
<path d="M182.102 624.392L189.274 620.235L189.311 622.7L182.102 626.82V624.392Z" fill="#C8D5E7"/>
<path d="M182.102 616.814L189.274 612.657L189.311 615.122L182.102 619.242V616.814Z" fill="#C8D5E7"/>
<path d="M182.102 609.236L189.274 605.08L189.311 607.544L182.102 611.664V609.236Z" fill="#C8D5E7"/>
<path d="M182.102 601.659L189.274 597.502L189.311 599.967L182.102 604.087V601.659Z" fill="#C8D5E7"/>
<path d="M182.102 586.65L174.525 582.273L174.488 584.701L182.102 589.115V586.65Z" fill="#F4F4FB"/>
<path d="M182.102 579.073L174.525 574.695L174.488 577.123L182.102 581.537V579.073Z" fill="#F4F4FB"/>
<path d="M182.102 571.495L174.525 567.117L174.488 569.545L182.102 573.959V571.495Z" fill="#F4F4FB"/>
<path d="M182.102 563.917L174.525 559.54L174.488 561.967L182.102 566.382V563.917Z" fill="#F4F4FB"/>
<path d="M182.102 556.339L174.525 551.962L174.488 554.39L182.102 558.804V556.339Z" fill="#F4F4FB"/>
<path d="M182.102 548.762L174.525 544.384L174.488 546.812L182.102 551.226V548.762Z" fill="#F4F4FB"/>
<path d="M182.102 586.65L189.274 582.53L189.311 584.958L182.102 589.115V586.65Z" fill="#C8D5E7"/>
<path d="M182.102 579.073L189.274 574.953L189.311 577.38L182.102 581.537V579.073Z" fill="#C8D5E7"/>
<path d="M182.102 571.495L189.274 567.375L189.311 569.803L182.102 573.959V571.495Z" fill="#C8D5E7"/>
<path d="M182.102 563.917L189.274 559.797L189.311 562.225L182.102 566.382V563.917Z" fill="#C8D5E7"/>
<path d="M182.102 556.339L189.274 552.219L189.311 554.647L182.102 558.804V556.339Z" fill="#C8D5E7"/>
<path d="M182.102 548.762L189.274 544.642L189.311 547.069L182.102 551.226V548.762Z" fill="#C8D5E7"/>
<path d="M182.102 533.79L174.525 529.376L174.488 531.84L182.102 536.218V533.79Z" fill="#F4F4FB"/>
<path d="M182.102 526.212L174.525 521.798L174.488 524.263L182.102 528.64V526.212Z" fill="#F4F4FB"/>
<path d="M182.102 518.635L174.525 514.257L174.488 516.685L182.102 521.062V518.635Z" fill="#F4F4FB"/>
<path d="M182.102 511.057L174.525 506.679L174.488 509.107L182.102 513.485V511.057Z" fill="#F4F4FB"/>
<path d="M182.102 503.479L174.525 499.102L174.488 501.529L182.102 505.944V503.479Z" fill="#F4F4FB"/>
<path d="M182.102 495.901L174.525 491.524L174.488 493.952L182.102 498.366V495.901Z" fill="#F4F4FB"/>
<path d="M182.102 533.79L189.274 529.633L189.311 532.098L182.102 536.218V533.79Z" fill="#C8D5E7"/>
<path d="M182.102 526.212L189.274 522.056L189.311 524.52L182.102 528.64V526.212Z" fill="#C8D5E7"/>
<path d="M182.102 518.635L189.274 514.515L189.311 516.942L182.102 521.062V518.635Z" fill="#C8D5E7"/>
<path d="M182.102 511.057L189.274 506.937L189.311 509.365L182.102 513.485V511.057Z" fill="#C8D5E7"/>
<path d="M182.102 503.479L189.274 499.359L189.311 501.787L182.102 505.944V503.479Z" fill="#C8D5E7"/>
<path d="M182.102 495.901L189.274 491.781L189.311 494.209L182.102 498.366V495.901Z" fill="#C8D5E7"/>
<path d="M182.102 480.93L174.525 476.515L174.488 478.98L182.102 483.357V480.93Z" fill="#F4F4FB"/>
<path d="M182.102 473.352L174.525 468.938L174.488 471.402L182.102 475.78V473.352Z" fill="#F4F4FB"/>
<path d="M182.102 465.774L174.525 461.36L174.488 463.825L182.102 468.202V465.774Z" fill="#F4F4FB"/>
<path d="M182.102 458.196L174.525 453.782L174.488 456.247L182.102 460.624V458.196Z" fill="#F4F4FB"/>
<path d="M182.102 450.619L174.525 446.204L174.488 448.669L182.102 453.047V450.619Z" fill="#F4F4FB"/>
<path d="M182.102 443.041L174.525 438.627L174.488 441.091L182.102 445.469V443.041Z" fill="#F4F4FB"/>
<path d="M182.102 480.93L189.274 476.773L189.311 479.238L182.102 483.357V480.93Z" fill="#C8D5E7"/>
<path d="M182.102 473.352L189.274 469.195L189.311 471.66L182.102 475.78V473.352Z" fill="#C8D5E7"/>
<path d="M182.102 465.774L189.274 461.617L189.311 464.082L182.102 468.202V465.774Z" fill="#C8D5E7"/>
<path d="M182.102 458.196L189.274 454.04L189.311 456.504L182.102 460.624V458.196Z" fill="#C8D5E7"/>
<path d="M182.102 450.619L189.274 446.462L189.311 448.927L182.102 453.047V450.619Z" fill="#C8D5E7"/>
<path d="M182.102 443.041L189.274 438.884L189.311 441.349L182.102 445.469V443.041Z" fill="#C8D5E7"/>
<path d="M182.102 428.033L174.525 423.655L174.488 426.083L182.102 430.497V428.033Z" fill="#F4F4FB"/>
<path d="M182.102 420.455L174.525 416.077L174.488 418.505L182.102 422.919V420.455Z" fill="#F4F4FB"/>
<path d="M182.102 412.914L174.525 408.5L174.488 410.927L182.102 415.342V412.914Z" fill="#F4F4FB"/>
<path d="M182.102 405.336L174.525 400.922L174.488 403.35L182.102 407.764V405.336Z" fill="#F4F4FB"/>
<path d="M182.102 397.758L174.525 393.344L174.488 395.772L182.102 400.186V397.758Z" fill="#F4F4FB"/>
<path d="M182.102 390.181L174.525 385.766L174.488 388.194L182.102 392.608V390.181Z" fill="#F4F4FB"/>
<path d="M182.102 428.033L189.274 423.913L189.311 426.34L182.102 430.497V428.033Z" fill="#C8D5E7"/>
<path d="M182.102 420.455L189.274 416.335L189.311 418.763L182.102 422.919V420.455Z" fill="#C8D5E7"/>
<path d="M182.102 412.914L189.274 408.757L189.311 411.185L182.102 415.342V412.914Z" fill="#C8D5E7"/>
<path d="M182.102 405.336L189.274 401.179L189.311 403.607L182.102 407.764V405.336Z" fill="#C8D5E7"/>
<path d="M182.102 397.758L189.274 393.602L189.311 396.029L182.102 400.186V397.758Z" fill="#C8D5E7"/>
<path d="M182.102 390.181L189.274 386.024L189.311 388.452L182.102 392.608V390.181Z" fill="#C8D5E7"/>
<path d="M182.102 375.172L174.525 370.795L174.488 373.223L182.102 377.637V375.172Z" fill="#F4F4FB"/>
<path d="M182.102 367.594L174.525 363.217L174.488 365.645L182.102 370.059V367.594Z" fill="#F4F4FB"/>
<path d="M182.102 360.017L174.525 355.639L174.488 358.067L182.102 362.481V360.017Z" fill="#F4F4FB"/>
<path d="M182.102 352.439L174.525 348.062L174.488 350.489L182.102 354.904V352.439Z" fill="#F4F4FB"/>
<path d="M182.102 344.861L174.525 340.484L174.488 342.912L182.102 347.326V344.861Z" fill="#F4F4FB"/>
<path d="M182.102 337.283L174.525 332.906L174.488 335.334L182.102 339.748V337.283Z" fill="#F4F4FB"/>
<path d="M182.102 375.172L189.274 371.052L189.311 373.48L182.102 377.637V375.172Z" fill="#C8D5E7"/>
<path d="M182.102 367.594L189.274 363.475L189.311 365.902L182.102 370.059V367.594Z" fill="#C8D5E7"/>
<path d="M182.102 360.017L189.274 355.897L189.311 358.325L182.102 362.481V360.017Z" fill="#C8D5E7"/>
<path d="M182.102 352.439L189.274 348.319L189.311 350.747L182.102 354.904V352.439Z" fill="#C8D5E7"/>
<path d="M182.102 344.861L189.274 340.741L189.311 343.169L182.102 347.326V344.861Z" fill="#C8D5E7"/>
<path d="M182.102 337.283L189.274 333.164L189.311 335.591L182.102 339.748V337.283Z" fill="#C8D5E7"/>
<path d="M182.102 322.312L174.525 317.898L174.488 320.362L182.102 324.74V322.312Z" fill="#F4F4FB"/>
<path d="M182.102 314.734L174.525 310.32L174.488 312.785L182.102 317.162V314.734Z" fill="#F4F4FB"/>
<path d="M182.102 307.156L174.525 302.742L174.488 305.207L182.102 309.584V307.156Z" fill="#F4F4FB"/>
<path d="M182.102 299.579L174.525 295.164L174.488 297.629L182.102 302.006V299.579Z" fill="#F4F4FB"/>
<path d="M182.102 292.001L174.525 287.587L174.488 290.051L182.102 294.429V292.001Z" fill="#F4F4FB"/>
<path d="M182.102 284.423L174.525 280.009L174.488 282.474L182.102 286.851V284.423Z" fill="#F4F4FB"/>
<path d="M182.102 322.312L189.274 318.155L189.311 320.62L182.102 324.74V322.312Z" fill="#C8D5E7"/>
<path d="M182.102 314.734L189.274 310.577L189.311 313.042L182.102 317.162V314.734Z" fill="#C8D5E7"/>
<path d="M182.102 307.156L189.274 303L189.311 305.464L182.102 309.584V307.156Z" fill="#C8D5E7"/>
<path d="M182.102 299.579L189.274 295.422L189.311 297.887L182.102 302.006V299.579Z" fill="#C8D5E7"/>
<path d="M182.102 292.001L189.274 287.844L189.311 290.309L182.102 294.429V292.001Z" fill="#C8D5E7"/>
<path d="M182.102 284.423L189.274 280.266L189.311 282.731L182.102 286.851V284.423Z" fill="#C8D5E7"/>
<path d="M182.102 269.452L174.525 265.037L174.488 267.465L182.102 271.879V269.452Z" fill="#F4F4FB"/>
<path d="M182.102 261.874L174.525 257.46L174.488 259.924L182.102 264.302V261.874Z" fill="#F4F4FB"/>
<path d="M182.102 254.296L174.525 249.882L174.488 252.346L182.102 256.724V254.296Z" fill="#F4F4FB"/>
<path d="M182.102 246.718L174.525 242.304L174.488 244.769L182.102 249.146V246.718Z" fill="#F4F4FB"/>
<path d="M182.102 239.141L174.525 234.726L174.488 237.191L182.102 241.568V239.141Z" fill="#F4F4FB"/>
<path d="M182.102 231.563L174.525 227.149L174.488 229.613L182.102 233.991V231.563Z" fill="#F4F4FB"/>
<path d="M182.102 269.452L189.274 265.295L189.311 267.723L182.102 271.879V269.452Z" fill="#C8D5E7"/>
<path d="M182.102 261.874L189.274 257.717L189.311 260.182L182.102 264.302V261.874Z" fill="#C8D5E7"/>
<path d="M182.102 254.296L189.274 250.139L189.311 252.604L182.102 256.724V254.296Z" fill="#C8D5E7"/>
<path d="M182.102 246.718L189.274 242.562L189.311 245.026L182.102 249.146V246.718Z" fill="#C8D5E7"/>
<path d="M182.102 239.141L189.274 234.984L189.311 237.448L182.102 241.568V239.141Z" fill="#C8D5E7"/>
<path d="M182.102 231.563L189.274 227.406L189.311 229.871L182.102 233.991V231.563Z" fill="#C8D5E7"/>
<path d="M182.102 216.554L174.525 212.177L174.488 214.605L182.102 219.019V216.554Z" fill="#F4F4FB"/>
<path d="M182.102 208.977L174.525 204.599L174.488 207.027L182.102 211.441V208.977Z" fill="#F4F4FB"/>
<path d="M182.102 201.399L174.525 197.022L174.488 199.449L182.102 203.864V201.399Z" fill="#F4F4FB"/>
<path d="M182.102 193.821L174.525 189.444L174.488 191.872L182.102 196.286V193.821Z" fill="#F4F4FB"/>
<path d="M182.102 186.243L174.525 181.866L174.488 184.294L182.102 188.708V186.243Z" fill="#F4F4FB"/>
<path d="M182.102 178.666L174.525 174.288L174.488 176.716L182.102 181.13V178.666Z" fill="#F4F4FB"/>
<path d="M182.102 216.554L189.274 212.435L189.311 214.862L182.102 219.019V216.554Z" fill="#C8D5E7"/>
<path d="M182.102 208.977L189.274 204.857L189.311 207.285L182.102 211.441V208.977Z" fill="#C8D5E7"/>
<path d="M182.102 201.399L189.274 197.279L189.311 199.707L182.102 203.864V201.399Z" fill="#C8D5E7"/>
<path d="M182.102 193.821L189.274 189.701L189.311 192.129L182.102 196.286V193.821Z" fill="#C8D5E7"/>
<path d="M182.102 186.243L189.274 182.124L189.311 184.551L182.102 188.708V186.243Z" fill="#C8D5E7"/>
<path d="M182.102 178.666L189.274 174.546L189.311 176.974L182.102 181.13V178.666Z" fill="#C8D5E7"/>
<path d="M182.102 163.694L174.525 159.28L174.488 161.745L182.102 166.122V163.694Z" fill="#F4F4FB"/>
<path d="M182.102 156.116L174.525 151.739L174.488 154.167L182.102 158.544V156.116Z" fill="#F4F4FB"/>
<path d="M182.102 148.539L174.525 144.161L174.488 146.589L182.102 150.966V148.539Z" fill="#F4F4FB"/>
<path d="M182.102 140.961L174.525 136.583L174.488 139.011L182.102 143.389V140.961Z" fill="#F4F4FB"/>
<path d="M182.102 133.383L174.525 129.006L174.488 131.433L182.102 135.848V133.383Z" fill="#F4F4FB"/>
<path d="M182.102 125.805L174.525 121.428L174.488 123.856L182.102 128.27V125.805Z" fill="#F4F4FB"/>
<path d="M182.102 163.694L189.274 159.537L189.311 162.002L182.102 166.122V163.694Z" fill="#C8D5E7"/>
<path d="M182.102 156.116L189.274 151.996L189.311 154.424L182.102 158.544V156.116Z" fill="#C8D5E7"/>
<path d="M182.102 148.539L189.274 144.419L189.311 146.846L182.102 150.966V148.539Z" fill="#C8D5E7"/>
<path d="M182.102 140.961L189.274 136.841L189.311 139.269L182.102 143.389V140.961Z" fill="#C8D5E7"/>
<path d="M182.102 133.383L189.274 129.263L189.311 131.691L182.102 135.848V133.383Z" fill="#C8D5E7"/>
<path d="M182.102 125.805L189.274 121.685L189.311 124.113L182.102 128.27V125.805Z" fill="#C8D5E7"/>
<path d="M182.139 110.834L174.525 106.42L174.488 108.884L182.139 113.262V110.834Z" fill="#F4F4FB"/>
<path d="M182.139 103.256L174.525 98.8418L174.488 101.306L182.139 105.684V103.256Z" fill="#F4F4FB"/>
<path d="M182.139 95.6783L174.525 91.2641L174.488 93.7287L182.139 98.1061V95.6783Z" fill="#F4F4FB"/>
<path d="M182.139 88.1005L174.525 83.6863L174.488 86.1509L182.139 90.5284V88.1005Z" fill="#F4F4FB"/>
<path d="M182.139 80.5228L174.525 76.1086L174.488 78.5732L182.139 82.9506V80.5228Z" fill="#F4F4FB"/>
<path d="M182.139 72.945L174.525 68.5308L174.488 70.9954L182.139 75.3729V72.945Z" fill="#F4F4FB"/>
<path d="M182.139 110.834L189.274 106.677L189.311 109.142L182.139 113.262V110.834Z" fill="#C8D5E7"/>
<path d="M182.139 103.256L189.274 99.0993L189.311 101.564L182.139 105.684V103.256Z" fill="#C8D5E7"/>
<path d="M182.139 95.6783L189.274 91.5216L189.311 93.9862L182.139 98.1061V95.6783Z" fill="#C8D5E7"/>
<path d="M182.139 88.1005L189.274 83.9438L189.311 86.4084L182.139 90.5284V88.1005Z" fill="#C8D5E7"/>
<path d="M182.139 80.5228L189.274 76.3661L189.311 78.8307L182.139 82.9506V80.5228Z" fill="#C8D5E7"/>
<path d="M182.139 72.9451L189.274 68.7883L189.311 71.2529L182.139 75.3729V72.9451Z" fill="#C8D5E7"/>
<path style="mix-blend-mode:multiply" d="M96.4757 588.821H46.8584L58.4811 614.276H102.912L96.4757 610.561V588.821Z" fill="url(#paint1_linear_1027_13068)"/>
<path style="mix-blend-mode:multiply" d="M96.4761 555.236L23.0615 555.273L24.4224 571.458H96.4761V555.236Z" fill="url(#paint2_linear_1027_13068)"/>
<path d="M13.9033 531.62C9.2321 528.456 1.87594 533.863 0.000115715 539.859C-0.073446 542.434 1.83916 546.775 1.83916 546.775C1.83916 546.775 9.63669 564.174 12.2849 567.117C14.9331 570.097 25.7099 574.327 30.896 569.913C34.6109 565.094 27.2179 562.188 25.8938 557.406C24.1283 551.189 24.9007 546.223 23.172 541.515C21.7376 537.652 13.9033 531.583 13.9033 531.583V531.62Z" fill="url(#paint3_linear_1027_13068)"/>
<path d="M0.441486 538.682C0.441486 538.682 0.441486 538.719 0.441486 538.756C0.367924 541.331 2.28053 545.672 2.28053 545.672C2.28053 545.672 10.0781 563.071 12.7263 566.014C15.3745 568.993 26.1513 573.224 31.3374 568.81C31.5581 568.552 31.7052 568.258 31.8523 568C31.7052 568.626 31.4477 569.251 30.896 569.913C25.7099 574.327 14.9331 570.097 12.2849 567.117C9.63669 564.175 1.83916 546.775 1.83916 546.775C1.83916 546.775 -0.073446 542.434 0.000115715 539.86C0.110458 539.455 0.257582 539.05 0.441486 538.682Z" fill="#2C60A3"/>
<path d="M26.7393 535.556C24.4589 534.011 15.043 530.59 15.043 530.59C15.043 530.59 14.2339 531.656 12.9097 532.171C12.7626 532.171 12.6523 532.245 12.5052 532.319C10.188 532.319 5.95816 534.526 8.5696 539.197C13.6086 548.283 25.3049 547.989 24.0176 543.648C23.1348 540.742 25.5623 537.321 26.7393 535.556Z" fill="white"/>
<path d="M24.2023 546.003C24.5701 544.568 24.9747 541.441 21.2966 540.926C17.4346 540.375 13.0945 542.177 13.4623 544.421C14.1979 549.129 23.8345 547.437 24.2023 546.003Z" fill="url(#paint4_linear_1027_13068)"/>
<path d="M9.82101 530.737C14.1979 524.851 46.5651 485.859 61.8291 478.097C56.7166 456.578 43.4019 428.621 47.6317 405.594H80.1092C80.1092 405.594 99.3823 473.83 87.024 490.089C77.6816 502.412 36.3768 533.9 20.9656 543.832C15.6692 543.832 7.90841 535.298 9.82101 530.737Z" fill="url(#paint5_linear_1027_13068)"/>
<path d="M37.3691 587.423C31.7784 588.342 30.1601 597.318 32.9554 602.983C34.6841 604.933 39.061 606.735 39.061 606.735C39.061 606.735 56.6791 613.982 60.6514 614.276C64.6237 614.607 73.4143 613.099 74.15 606.33C73.4511 602.174 69.9937 601.07 65.7272 598.532C60.1733 595.221 55.3917 590.439 50.9413 588.232C47.2632 586.43 37.4059 587.423 37.4059 587.423H37.3691Z" fill="url(#paint6_linear_1027_13068)"/>
<path d="M60.541 612.474C56.4583 612.142 38.3253 604.712 38.3253 604.712C38.3253 604.712 34.0955 602.946 32.2197 600.997C32.4036 601.695 32.6611 602.358 32.9553 602.946C34.684 604.896 39.061 606.698 39.061 606.698C39.061 606.698 56.679 613.945 60.6513 614.239C64.6236 614.57 73.4143 613.062 74.1499 606.294C74.1499 606.147 74.0763 606.036 74.0395 605.889C72.1637 611.48 64.2558 612.731 60.541 612.437V612.474Z" fill="#2C60A3"/>
<path d="M49.396 581.427C46.6743 581.868 37.479 585.878 37.479 585.878C37.479 585.878 37.6262 587.202 37.0377 588.49C36.9641 588.6 36.8906 588.747 36.817 588.857C35.1619 590.476 33.3964 593.345 38.5089 594.964C48.4397 598.091 56.8993 591.432 53.0006 589.188C50.3891 587.68 49.7638 583.56 49.4328 581.427H49.396Z" fill="white"/>
<path d="M54.656 590.513C53.9204 589.52 52.1917 586.908 49.1756 589.078C46.0125 591.322 45.2769 594.044 45.6815 596.325C46.0493 598.569 52.5963 596.913 52.8169 596.582C53.0744 596.251 54.656 590.55 54.656 590.55V590.513Z" fill="url(#paint7_linear_1027_13068)"/>
<path d="M51.6032 414.827C51.6032 445.358 51.8974 469.122 51.8974 495.754C51.8974 526.212 54.2146 563.991 53.9204 589.556C49.0285 595.626 36.5598 594.081 33.9484 589.409C30.7117 566.234 23.5026 530.921 25.2681 505.612C17.5441 472.285 10.1144 433.035 13.2408 406.881C20.6337 409.235 44.1735 412.472 51.5664 414.827H51.6032Z" fill="url(#paint8_linear_1027_13068)"/>
<path d="M96.4758 310.651C87.8691 314.403 84.0439 318.155 73.451 318.964C73.451 318.964 71.9062 343.721 85.8829 344.273C88.0162 344.346 94.4161 340.741 96.439 338.019V310.651H96.4758Z" fill="#4E79B2"/>
<path d="M20.8912 333.605C27.3278 325.512 43.2171 314.256 53.5893 313.483C71.2441 312.196 84.5588 325.696 87.0599 338.976C89.2667 350.747 80.1083 402.43 87.8691 426.046C85.9932 438.075 66.573 445.432 60.8352 446.683C35.8977 452.164 10.7029 448.669 10.4454 432.741C9.52588 379.954 11.5856 342.948 20.8912 333.642V333.605Z" fill="url(#paint9_linear_1027_13068)"/>
<path d="M111.888 312.895C112.734 311.975 123.327 307.892 126.747 315.911C124.687 320.105 113.837 321.723 111.888 312.895Z" fill="#2F2F60"/>
<path d="M111.887 317.714L113.69 312.564C114.499 309.658 112.513 301.712 113.616 296.047C115.713 285.343 118.214 292.773 117.662 298.07C117.221 302.411 115.97 301.786 117.257 294.098C117.883 290.493 120.935 284.754 122.186 283.467C124.908 280.671 131.639 283.577 132.852 289.867C133.809 294.723 130.204 297.04 129.027 301.455C127.078 308.738 128.917 309.989 125.459 314.44C122.112 318.781 123.253 320.509 123.253 320.509L111.851 317.751L111.887 317.714Z" fill="#3F1326"/>
<path d="M18.3906 340.741C16.5148 346.112 17.324 354.72 31.4846 359.465C40.7166 362.555 71.2079 371.089 87.8696 368.588C101.074 366.601 117.956 338.497 126.71 315.911C122.775 319.406 113.947 317.419 111.851 312.895C98.9774 329.853 90.996 344.861 83.3824 345.339C69.6631 346.185 44.2843 336.253 39.0983 334.966C28.2111 332.244 20.855 333.642 18.3539 340.778L18.3906 340.741Z" fill="url(#paint10_linear_1027_13068)"/>
<path d="M51.3828 290.051C50.7208 284.313 70.5089 295.974 69.6997 303.551C69.0376 309.695 67.2721 315.102 73.4881 318.964C75.6214 320.693 82.9776 332.649 71.6858 332.759C55.5391 332.943 51.2357 328.529 39.5762 318.523C46.5277 314.587 53.4425 308.628 51.346 290.051H51.3828Z" fill="#3F1326"/>
<path d="M46.7119 286.667L54.7301 275.374H89.7087V296.415C89.7087 308.039 81.8744 317.456 72.2378 317.456C62.6012 317.456 54.1416 309.695 53.7003 298.549L49.4705 297.077L46.7119 286.667Z" fill="#3F1326"/>
<path d="M71.4288 323.084C63.0796 323.084 52.7442 309.658 53.7005 298.549C54.1418 308.996 62.8221 316.573 71.5392 317.419C72.2748 318.045 72.7162 318.449 73.4885 318.928C73.6357 319.075 73.8564 319.259 74.077 319.516C74.077 321.208 72.9368 323.084 71.4288 323.084Z" fill="#210510"/>
<path d="M87.6857 265.847C87.5753 264.817 87.9799 261.359 86.4351 259.188C84.0076 255.767 80.072 257.46 77.7916 255.289C74.9963 252.089 69.4056 250.47 66.3896 254.737C63.8517 258.306 57.9668 254.517 53.6266 256.724C43.1809 261.984 40.9004 271.916 42.5556 282.621C44.2107 293.325 51.0887 303.478 51.0887 303.478C52.1186 304.508 52.2657 299.579 51.4198 295.937C51.0152 295.569 50.6106 294.576 50.206 292.81C47.7417 281.959 54.3622 283.577 55.2818 284.497C57.3415 285.343 53.3692 294.318 59.3644 293.435C62.2701 292.994 61.8655 284.901 61.8655 282.032C62.3069 282.142 62.7115 282.216 63.1896 282.363C68.1551 285.122 73.4147 284.975 75.6583 281.26C77.0192 277.875 86.4719 284.35 90.9224 277.691C92.4672 275.411 92.9821 271.732 92.0994 269.783C91.0327 267.428 87.8696 268.238 87.6489 265.847H87.6857Z" fill="black"/>
</g>
<defs>
<linearGradient id="paint0_linear_1027_13068" x1="182.102" y1="637.12" x2="436" y2="637.12" gradientUnits="userSpaceOnUse">
<stop stop-color="#D0DCEB"/>
<stop offset="0.33" stop-color="#E8EEF5"/>
<stop offset="0.65" stop-color="#F9FAFC"/>
<stop offset="0.9" stop-color="white"/>
</linearGradient>
<linearGradient id="paint1_linear_1027_13068" x1="46.8584" y1="601.548" x2="102.912" y2="601.548" gradientUnits="userSpaceOnUse">
<stop stop-color="#D0DCEB"/>
<stop offset="0.48" stop-color="#DEE5F0"/>
<stop offset="0.9" stop-color="#E4EAF3"/>
</linearGradient>
<linearGradient id="paint2_linear_1027_13068" x1="23.0983" y1="563.365" x2="96.5128" y2="563.365" gradientUnits="userSpaceOnUse">
<stop stop-color="#D0DCEB"/>
<stop offset="0.17" stop-color="#D7E1EE"/>
<stop offset="0.64" stop-color="#E8EDF5"/>
<stop offset="1" stop-color="#EEF2F8"/>
</linearGradient>
<linearGradient id="paint3_linear_1027_13068" x1="23.4663" y1="570.906" x2="6.54369" y2="529.671" gradientUnits="userSpaceOnUse">
<stop stop-color="#3869A9"/>
<stop offset="0.85" stop-color="#5680B5"/>
<stop offset="1" stop-color="#5D85B8"/>
</linearGradient>
<linearGradient id="paint4_linear_1027_13068" x1="29.0206" y1="568.625" x2="12.0981" y2="527.391" gradientUnits="userSpaceOnUse">
<stop stop-color="#3869A9"/>
<stop offset="0.85" stop-color="#5680B5"/>
<stop offset="1" stop-color="#5D85B8"/>
</linearGradient>
<linearGradient id="paint5_linear_1027_13068" x1="9.52676" y1="474.713" x2="91.1434" y2="474.713" gradientUnits="userSpaceOnUse">
<stop stop-color="#3869A9"/>
<stop offset="1" stop-color="#2C60A3"/>
</linearGradient>
<linearGradient id="paint6_linear_1027_13068" x1="66.9777" y1="611.995" x2="30.6357" y2="588.273" gradientUnits="userSpaceOnUse">
<stop stop-color="#3869A9"/>
<stop offset="1" stop-color="#4E79B2"/>
</linearGradient>
<linearGradient id="paint7_linear_1027_13068" x1="70.5453" y1="606.588" x2="34.1665" y2="582.865" gradientUnits="userSpaceOnUse">
<stop stop-color="#3869A9"/>
<stop offset="1" stop-color="#4E79B2"/>
</linearGradient>
<linearGradient id="paint8_linear_1027_13068" x1="63.6305" y1="492.223" x2="14.785" y2="503.734" gradientUnits="userSpaceOnUse">
<stop stop-color="#3869A9"/>
<stop offset="1" stop-color="#5D85B8"/>
</linearGradient>
<linearGradient id="paint9_linear_1027_13068" x1="10.2247" y1="381.242" x2="87.8691" y2="381.242" gradientUnits="userSpaceOnUse">
<stop stop-color="#83A1C9"/>
<stop offset="0.5" stop-color="#7697C3"/>
<stop offset="1" stop-color="#7093C0"/>
</linearGradient>
<linearGradient id="paint10_linear_1027_13068" x1="59.7619" y1="349.776" x2="107.679" y2="300.155" gradientUnits="userSpaceOnUse">
<stop stop-color="#95B0D1"/>
<stop offset="0.49" stop-color="#89A6CB"/>
<stop offset="1" stop-color="#83A1C9"/>
</linearGradient>
<clipPath id="clip0_1027_13068">
<rect width="436" height="660" fill="white"/>
</clipPath>
</defs>
</svg>
