<svg width="269" height="193" viewBox="0 0 269 193" fill="none" xmlns="http://www.w3.org/2000/svg">
<g clip-path="url(#clip0_1027_13398)">
<path style="mix-blend-mode:multiply" d="M268.999 82.4311L89.459 84.0634V192.981L268.999 191.348V82.4311Z" fill="url(#paint0_linear_1027_13398)"/>
<path d="M101.212 126.27C95.0838 129.826 85.0382 129.826 78.91 126.27L4.59614 83.2667C-1.53205 79.7106 -1.53205 73.9199 4.59614 70.3638L77.7077 28.0794C83.8358 24.5234 93.8814 24.5234 100.01 28.0794L174.304 71.0633C180.432 74.6194 180.452 80.4102 174.304 83.9663L101.173 126.27H101.212Z" fill="#F4F4FB"/>
<path d="M-0.000604247 97.938C-0.116962 100.367 1.39569 102.796 4.57614 104.642L78.8706 147.626C84.9988 151.182 95.0444 151.182 101.173 147.626L174.284 105.322C177.503 103.457 179.016 100.989 178.861 98.5404V77.8257C178.725 80.0604 177.212 82.2563 174.284 83.9468L101.153 126.251C95.025 129.807 84.9794 129.807 78.8512 126.251L4.59553 83.2667C1.57023 81.5178 0.0381817 79.2248 -0.000604247 76.9124V97.938Z" fill="url(#paint1_linear_1027_13398)"/>
<path d="M-0.000604247 119.294C-0.116962 121.723 1.39569 124.152 4.57614 125.998L78.8706 168.982C84.9988 172.538 95.0444 172.538 101.173 168.982L174.284 126.678C177.503 124.813 179.016 122.345 178.861 119.896V99.1816C178.725 101.416 177.212 103.612 174.284 105.303L101.153 147.607C95.025 151.163 84.9794 151.163 78.8512 147.607L4.59553 104.642C1.57023 102.874 0.0381817 100.581 -0.000604247 98.2683V119.294Z" fill="url(#paint2_linear_1027_13398)"/>
<path d="M-0.000604247 140.65C-0.116962 143.079 1.39569 145.508 4.57614 147.354L78.8706 190.338C84.9988 193.894 95.0444 193.894 101.173 190.338L174.284 148.034C177.503 146.169 179.016 143.701 178.861 141.252V120.538C178.725 122.772 177.212 124.968 174.284 126.659L101.153 168.962C95.025 172.519 84.9794 172.519 78.8512 168.962L4.61492 125.998C1.57023 124.249 0.0575747 121.937 -0.000604247 119.624V140.65Z" fill="url(#paint3_linear_1027_13398)"/>
<path style="mix-blend-mode:multiply" d="M138.369 57.4414C128.847 51.9421 116.203 49.3965 103.772 49.7657H84.2817V52.972C80.597 54.1379 77.1063 55.6342 73.9646 57.4414C56.2588 67.7599 56.3558 84.491 74.1779 94.8094C77.242 96.5777 80.6552 98.0351 84.2623 99.2011V102.543H107.631C118.859 102.349 130.01 99.8035 138.563 94.8288C156.288 84.5104 156.191 67.7793 138.349 57.4608L138.369 57.4414Z" fill="url(#paint4_linear_1027_13398)"/>
<path d="M39.8905 64.0095C39.8905 57.4025 44.2345 50.815 52.942 45.7627C61.6494 40.7298 73.0719 38.2036 84.4749 38.2036C95.878 38.2036 107.3 40.7298 116.008 45.7627C124.715 50.7956 129.059 57.4025 129.059 64.0095C129.059 70.6164 124.715 77.2039 116.008 82.2562C107.3 87.2892 95.8974 89.8153 84.4749 89.8153C73.0525 89.8153 61.6494 87.2892 52.942 82.2562C44.2345 77.2233 39.8905 70.6164 39.8711 64.0095H39.8905Z" fill="#E7CFD8"/>
<path d="M116.008 82.2368C107.3 87.2697 95.8974 89.7959 84.4749 89.7959C73.0525 89.7959 61.6494 87.2697 52.942 82.2368C44.2345 77.2039 39.8905 70.5969 39.8711 63.99V76.7181C39.8711 83.325 44.2345 89.9125 52.942 94.9648C61.6494 99.9978 73.0525 102.524 84.4749 102.524C95.8974 102.524 107.3 99.9978 116.008 94.9648C124.715 89.9319 129.079 83.325 129.059 76.7181V63.99C129.059 70.5969 124.715 77.1844 116.008 82.2368Z" fill="url(#paint5_linear_1027_13398)"/>
<path d="M58.8761 78.8167C65.9545 82.8975 75.2244 84.9573 84.4942 84.9573C93.7641 84.9573 103.034 82.9169 110.093 78.8167C116.628 75.0469 120.119 70.1889 120.623 65.2531C120.119 60.3173 116.609 55.4593 110.093 51.6895C103.015 47.5893 93.7447 45.5489 84.4942 45.5489C75.2438 45.5489 65.9545 47.5893 58.8761 51.6895C52.3601 55.4593 48.8499 60.3173 48.3457 65.2531C48.8499 70.1889 52.3601 75.0469 58.8761 78.8362V78.8167Z" fill="#83B0A4"/>
<path d="M58.8765 51.67C65.955 47.5699 75.2248 45.5295 84.4946 45.5295C93.7645 45.5295 103.034 47.5699 110.093 51.67C116.629 55.4399 120.12 60.2979 120.624 65.2337C120.663 64.8256 120.701 64.3981 120.701 63.99C120.701 58.6268 117.172 53.2635 110.093 49.1827C103.015 45.0825 93.7451 43.0422 84.4946 43.0422C75.2442 43.0422 65.955 45.0825 58.8765 49.1827C51.7981 53.2635 48.2686 58.6268 48.2686 63.99C48.2686 64.3981 48.2879 64.8256 48.3461 65.2337C48.8503 60.2979 52.3605 55.4399 58.8765 51.67Z" fill="url(#paint6_linear_1027_13398)"/>
<path d="M102.336 58.6656L105.749 56.6836V54.2157L102.336 56.1977V58.6656Z" fill="#5E9889"/>
<path d="M86.5311 62.8241C85.2511 62.0857 84.553 61.0947 84.553 60.0647C84.553 59.0348 85.2511 58.0438 86.5311 57.3054C89.1685 55.7702 93.4544 55.7702 96.0918 57.3054C98.7292 58.8211 98.7292 61.3084 96.0918 62.8435L100.436 65.3503C104.722 62.8824 105.342 59.0737 102.336 56.2172L105.769 54.2351L101.425 51.7284L97.9923 53.7104C93.0277 51.981 86.4729 52.3308 82.187 54.8181C79.7435 56.2172 78.4054 58.1021 78.4054 60.0842C78.4054 62.0663 79.7435 63.9512 82.187 65.3697C84.8245 66.9049 84.8245 69.3727 82.187 70.9079C79.5496 72.443 75.2637 72.443 72.6263 70.9079C69.9889 69.3727 69.9889 66.9049 72.6263 65.3697L68.2823 62.863C63.9964 65.3309 63.3758 69.1396 66.3818 71.9961L63.2207 73.8227L67.5647 76.3294L70.7258 74.5028C75.6904 76.2323 82.2452 75.8825 86.5311 73.4146C91.5538 70.4998 91.5538 65.7778 86.5311 62.863V62.8241Z" fill="#E7CFD8"/>
<path d="M63.2207 76.2712L67.5647 78.7779V76.31L63.2207 73.7838V76.2712Z" fill="#549181"/>
<path d="M67.5645 78.7779L70.7255 76.9513V74.464L67.5645 76.31V78.7779Z" fill="#5E9889"/>
<path d="M96.0918 65.3114L100.436 67.8182V65.3309L96.0918 62.8241V65.3114Z" fill="#549181"/>
<path d="M72.6262 67.8182V65.3308C70.7451 66.419 70.2215 67.9736 70.9972 69.3339C71.3075 68.7703 71.8505 68.2457 72.6262 67.8182Z" fill="#5E9889"/>
<path d="M64.5203 67.9736V70.7719C64.5591 71.4326 64.7336 72.0932 65.0633 72.7345L66.382 71.9767C65.1021 70.7524 64.4815 69.3728 64.5203 67.9931V67.9736Z" fill="#549181"/>
<path d="M82.1869 67.8182C82.9626 68.2651 83.4862 68.7898 83.8159 69.3533C84.5916 67.9931 84.068 66.4385 82.1869 65.3503C79.7434 63.9512 78.4053 62.0663 78.4053 60.0648V62.5521C78.4053 64.5341 79.7434 66.4191 82.1869 67.8182Z" fill="#549181"/>
<path d="M104.178 60.0453C104.178 61.9497 102.937 63.8734 100.416 65.3309V67.8182C102.995 66.3219 104.236 64.3593 104.178 62.3966V60.0648V60.0453Z" fill="#5E9889"/>
<path d="M86.5309 73.3758C82.245 75.8436 75.6902 76.2129 70.7256 74.464V76.9513C75.6902 78.7002 82.245 78.331 86.5309 75.8631C89.0326 74.4251 90.2737 72.5207 90.2931 70.6358V68.1291C90.2931 70.0334 89.0326 71.9378 86.5115 73.3952L86.5309 73.3758Z" fill="url(#paint7_linear_1027_13398)"/>
<path d="M96.0916 57.286C93.4541 55.7702 89.1683 55.7702 86.5308 57.286C85.2509 58.0244 84.5527 59.0154 84.5527 60.0453C84.5527 60.4728 84.6691 60.9003 84.9018 61.289C85.2315 60.7254 85.7745 60.2008 86.5308 59.7733C89.1683 58.2381 93.4541 58.2381 96.0916 59.7733C96.8673 60.2202 97.3909 60.7449 97.7206 61.3084C98.5157 59.9482 97.9727 58.3936 96.0916 57.3054V57.286Z" fill="#5E9889"/>
<path d="M39.8905 51.262C39.8905 44.6551 44.2345 38.0676 52.942 33.0152C61.6494 27.9823 73.0719 25.4561 84.4749 25.4561C95.878 25.4561 107.3 27.9823 116.008 33.0152C124.715 38.0481 129.059 44.6551 129.059 51.262C129.059 57.8689 124.715 64.4564 116.008 69.5088C107.3 74.5417 95.8974 77.0679 84.4749 77.0679C73.0525 77.0679 61.6494 74.5417 52.942 69.5088C44.2345 64.4758 39.8905 57.8689 39.8711 51.262H39.8905Z" fill="#E7CFD8"/>
<path d="M116.008 69.5088C107.3 74.5417 95.8974 77.0679 84.4749 77.0679C73.0525 77.0679 61.6494 74.5417 52.942 69.5088C44.2345 64.4758 39.8905 57.8689 39.8711 51.262V63.99C39.8711 70.597 44.2345 77.1845 52.942 82.2368C61.6494 87.2697 73.0525 89.7959 84.4749 89.7959C95.8974 89.7959 107.3 87.2697 116.008 82.2368C124.715 77.2039 129.079 70.597 129.059 63.99V51.262C129.059 57.8689 124.715 64.4564 116.008 69.5088Z" fill="url(#paint8_linear_1027_13398)"/>
<path d="M58.8761 66.0887C65.9545 70.1695 75.2244 72.2293 84.4942 72.2293C93.7641 72.2293 103.034 70.1889 110.093 66.0887C116.628 62.3189 120.119 57.4608 120.623 52.5251C120.119 47.5893 116.609 42.7313 110.093 38.9614C103.015 34.8613 93.7447 32.8209 84.4942 32.8209C75.2438 32.8209 65.9545 34.8613 58.8761 38.9614C52.3601 42.7313 48.8499 47.5893 48.3457 52.5251C48.8499 57.4608 52.3601 62.3189 58.8761 66.1081V66.0887Z" fill="#83B0A4"/>
<path d="M58.8765 38.942C65.955 34.8418 75.2248 32.8015 84.4946 32.8015C93.7645 32.8015 103.034 34.8418 110.093 38.942C116.629 42.7119 120.12 47.5699 120.624 52.5057C120.663 52.0976 120.701 51.6701 120.701 51.262C120.701 45.8987 117.172 40.5355 110.093 36.4547C103.015 32.3545 93.7451 30.3141 84.4946 30.3141C75.2442 30.3141 65.955 32.3545 58.8765 36.4547C51.7981 40.5355 48.2686 45.8987 48.2686 51.262C48.2686 51.6701 48.2879 52.0976 48.3461 52.5057C48.8503 47.5699 52.3605 42.7119 58.8765 38.942Z" fill="url(#paint9_linear_1027_13398)"/>
<path d="M102.336 45.9376L105.749 43.9555V41.4682L102.336 43.4503V45.9376Z" fill="#5E9889"/>
<path d="M86.5311 50.0961C85.2511 49.3576 84.553 48.3666 84.553 47.3367C84.553 46.3068 85.2511 45.3158 86.5311 44.5773C89.1685 43.0422 93.4544 43.0422 96.0918 44.5773C98.7292 46.093 98.7292 48.5804 96.0918 50.1155L100.436 52.6222C104.722 50.1544 105.342 46.3457 102.336 43.4891L105.769 41.5071L101.425 39.0003L97.9923 40.9824C93.0277 39.2529 86.4729 39.6027 82.187 42.09C79.7435 43.4891 78.4054 45.374 78.4054 47.3561C78.4054 49.3382 79.7435 51.2231 82.187 52.6417C84.8245 54.1768 84.8245 56.6447 82.187 58.1798C79.5496 59.715 75.2637 59.715 72.6263 58.1798C69.9889 56.6447 69.9889 54.1768 72.6263 52.6417L68.2823 50.1349C63.9964 52.6028 63.3758 56.4115 66.3818 59.268L63.2207 61.0946L67.5647 63.6014L70.7258 61.7748C75.6904 63.5042 82.2452 63.1545 86.5311 60.6866C91.5538 57.7717 91.5538 53.0497 86.5311 50.1349V50.0961Z" fill="#E7CFD8"/>
<path d="M63.2207 63.5431L67.5647 66.0498V63.5625L63.2207 61.0558V63.5431Z" fill="#549181"/>
<path d="M67.5645 66.0498L70.7255 64.2232V61.7359L67.5645 63.5625V66.0498Z" fill="#5E9889"/>
<path d="M96.0918 52.5639L100.436 55.0707V52.6028L96.0918 50.0961V52.5639Z" fill="#549181"/>
<path d="M72.6262 55.0707V52.5834C70.7451 53.6716 70.2215 55.2261 70.9972 56.5864C71.3075 56.0229 71.8505 55.4982 72.6262 55.0707Z" fill="#5E9889"/>
<path d="M64.5203 55.2456V58.0438C64.5591 58.7045 64.7336 59.3652 65.0633 60.0064L66.382 59.2486C65.1021 58.0244 64.4815 56.6447 64.5203 55.265V55.2456Z" fill="#549181"/>
<path d="M82.1869 55.0707C82.9626 55.5176 83.4862 56.0423 83.8159 56.6058C84.5916 55.2456 84.068 53.691 82.1869 52.6028C79.7434 51.2037 78.4053 49.3188 78.4053 47.3173V49.8046C78.4053 51.7867 79.7434 53.6716 82.1869 55.0707Z" fill="#549181"/>
<path d="M104.178 47.3173C104.178 49.2216 102.937 51.1454 100.416 52.6028V55.0901C102.995 53.5938 104.236 51.6312 104.178 49.6685V47.3367V47.3173Z" fill="#5E9889"/>
<path d="M86.5309 60.6477C82.245 63.1156 75.6902 63.4848 70.7256 61.7359V64.2232C75.6902 65.9721 82.245 65.6029 86.5309 63.135C89.0326 61.697 90.2737 59.7927 90.2931 57.9078V55.401C90.2931 57.3054 89.0326 59.2097 86.5115 60.6671L86.5309 60.6477Z" fill="url(#paint10_linear_1027_13398)"/>
<path d="M96.0916 44.5579C93.4541 43.0422 89.1683 43.0422 86.5308 44.5579C85.2509 45.2963 84.5527 46.2874 84.5527 47.3173C84.5527 47.7448 84.6691 48.1723 84.9018 48.5609C85.2315 47.9974 85.7745 47.4727 86.5308 47.0452C89.1683 45.5101 93.4541 45.5101 96.0916 47.0452C96.8673 47.4921 97.3909 48.0168 97.7206 48.5803C98.5157 47.2201 97.9727 45.6655 96.0916 44.5773V44.5579Z" fill="#5E9889"/>
<path d="M39.8905 38.5339C39.8905 31.927 44.2345 25.3395 52.942 20.2872C61.6494 15.2542 73.0719 12.7281 84.4749 12.7281C95.878 12.7281 107.3 15.2542 116.008 20.2872C124.715 25.3201 129.059 31.927 129.059 38.5339C129.059 45.1409 124.715 51.7284 116.008 56.7807C107.3 61.8136 95.8974 64.3398 84.4749 64.3398C73.0525 64.3398 61.6494 61.8136 52.942 56.7807C44.2345 51.7478 39.8905 45.1409 39.8711 38.5339H39.8905Z" fill="#E7CFD8"/>
<path d="M116.008 56.7807C107.3 61.8136 95.8974 64.3398 84.4749 64.3398C73.0525 64.3398 61.6494 61.8136 52.942 56.7807C44.2345 51.7478 39.8905 45.1409 39.8711 38.5339V51.262C39.8711 57.8689 44.2345 64.4564 52.942 69.5088C61.6494 74.5417 73.0525 77.0679 84.4749 77.0679C95.8974 77.0679 107.3 74.5417 116.008 69.5088C124.715 64.4758 129.079 57.8689 129.059 51.262V38.5339C129.059 45.1409 124.715 51.7284 116.008 56.7807Z" fill="url(#paint11_linear_1027_13398)"/>
<path d="M58.8761 53.3412C65.9545 57.422 75.2244 59.4818 84.4942 59.4818C93.7641 59.4818 103.034 57.4414 110.093 53.3412C116.628 49.5714 120.119 44.7133 120.623 39.7776C120.119 34.8418 116.609 29.9838 110.093 26.214C103.015 22.1138 93.7447 20.0734 84.4942 20.0734C75.2438 20.0734 65.9545 22.1138 58.8761 26.214C52.3601 29.9838 48.8499 34.8418 48.3457 39.7776C48.8499 44.7133 52.3601 49.5714 58.8761 53.3606V53.3412Z" fill="#83B0A4"/>
<path d="M58.8765 26.1945C65.955 22.0943 75.2248 20.054 84.4946 20.054C93.7645 20.054 103.034 22.0943 110.093 26.1945C116.629 29.9644 120.12 34.8224 120.624 39.7582C120.663 39.3501 120.701 38.9226 120.701 38.5145C120.701 33.1512 117.172 27.788 110.093 23.7072C103.015 19.607 93.7451 17.5667 84.4946 17.5667C75.2442 17.5667 65.955 19.607 58.8765 23.7072C51.7981 27.788 48.2686 33.1512 48.2686 38.5145C48.2686 38.9226 48.2879 39.3501 48.3461 39.7582C48.8503 34.8224 52.3605 29.9644 58.8765 26.1945Z" fill="url(#paint12_linear_1027_13398)"/>
<path d="M102.336 33.2095L105.749 31.2275V28.7401L102.336 30.7222V33.2095Z" fill="#5E9889"/>
<path d="M86.5311 37.3486C85.2511 36.6102 84.553 35.6191 84.553 34.5892C84.553 33.5593 85.2511 32.5683 86.5311 31.8299C89.1685 30.2947 93.4544 30.2947 96.0918 31.8299C98.7292 33.3456 98.7292 35.8329 96.0918 37.368L100.436 39.8748C104.722 37.4069 105.342 33.5982 102.336 30.7417L105.769 28.7596L101.425 26.2528L97.9923 28.2349C93.0277 26.5055 86.4729 26.8552 82.187 29.3425C79.7435 30.7417 78.4054 32.6266 78.4054 34.6087C78.4054 36.5907 79.7435 38.4757 82.187 39.8748C84.8245 41.4099 84.8245 43.8778 82.187 45.4129C79.5496 46.9481 75.2637 46.9481 72.6263 45.4129C69.9889 43.8778 69.9889 41.4099 72.6263 39.8748L68.2823 37.368C63.9964 39.8359 63.3758 43.6446 66.3818 46.5011L63.2207 48.3277L67.5647 50.8345L70.7258 49.0079C75.6904 50.7373 82.2452 50.3876 86.5311 47.9197C91.5538 45.0049 91.5538 40.2828 86.5311 37.368V37.3486Z" fill="#E7CFD8"/>
<path d="M63.2207 50.8151L67.5647 53.3218V50.8345L63.2207 48.3278V50.8151Z" fill="#549181"/>
<path d="M67.5645 53.3218L70.7255 51.4758V49.0079L67.5645 50.8345V53.3218Z" fill="#5E9889"/>
<path d="M96.0918 39.8359L100.436 42.3426V39.8553L96.0918 37.3486V39.8359Z" fill="#549181"/>
<path d="M72.6262 42.3427V39.8553C70.7451 40.9435 70.2215 42.4981 70.9972 43.8584C71.3075 43.2948 71.8505 42.7702 72.6262 42.3427Z" fill="#5E9889"/>
<path d="M64.5203 42.4981V45.2963C64.5591 45.957 64.7336 46.6177 65.0633 47.259L66.382 46.5011C65.1021 45.2769 64.4815 43.8972 64.5203 42.5175V42.4981Z" fill="#549181"/>
<path d="M82.1869 42.3426C82.9626 42.7896 83.4862 43.3142 83.8159 43.8778C84.5916 42.5175 84.068 40.963 82.1869 39.8748C79.7434 38.4756 78.4053 36.5907 78.4053 34.6086V37.096C78.4053 39.078 79.7434 40.963 82.1869 42.3621V42.3426Z" fill="#549181"/>
<path d="M104.178 34.5892C104.178 36.4936 102.937 38.4174 100.416 39.8748V42.3621C102.995 40.8658 104.236 38.9032 104.178 36.9405V34.6087V34.5892Z" fill="#5E9889"/>
<path d="M86.5309 47.9197C82.245 50.3876 75.6902 50.7568 70.7256 49.0079V51.4952C75.6902 53.2441 82.245 52.8749 86.5309 50.407C89.0326 48.969 90.2737 47.0647 90.2931 45.1798V42.673C90.2931 44.5774 89.0326 46.4817 86.5115 47.9391L86.5309 47.9197Z" fill="url(#paint13_linear_1027_13398)"/>
<path d="M96.0916 31.8104C93.4541 30.2947 89.1683 30.2947 86.5308 31.8104C85.2509 32.5488 84.5527 33.5399 84.5527 34.5698C84.5527 34.9973 84.6691 35.4248 84.9018 35.8134C85.2315 35.2499 85.7745 34.7252 86.5308 34.2977C89.1683 32.7626 93.4541 32.7626 96.0916 34.2977C96.8673 34.7447 97.3909 35.2693 97.7206 35.8329C98.5157 34.4726 97.9727 32.9181 96.0916 31.8299V31.8104Z" fill="#5E9889"/>
<path d="M39.8906 25.8059C39.8906 19.199 44.2347 12.6115 52.9421 7.5591C61.6689 2.52618 73.072 0 84.4945 0C95.9169 0 107.32 2.52618 116.027 7.5591C124.735 12.592 129.079 19.199 129.079 25.8059C129.079 32.4128 124.735 39.0003 116.027 44.0527C107.32 49.0856 95.9169 51.6118 84.4945 51.6118C73.072 51.6118 61.6689 49.0856 52.9615 44.0527C44.254 39.0197 39.91 32.4128 39.8906 25.8059Z" fill="#E7CFD8"/>
<path d="M116.008 44.0332C107.3 49.0661 95.8974 51.5923 84.4749 51.5923C73.0525 51.5923 61.6494 49.0661 52.942 44.0332C44.2345 39.0003 39.8905 32.3934 39.8711 25.7864V38.5145C39.8711 45.1214 44.2345 51.7089 52.942 56.7613C61.6494 61.7942 73.0525 64.3204 84.4749 64.3204C95.8974 64.3204 107.3 61.7942 116.008 56.7613C124.715 51.7283 129.079 45.1214 129.059 38.5145V25.7864C129.059 32.3934 124.715 38.9809 116.008 44.0332Z" fill="url(#paint14_linear_1027_13398)"/>
<path d="M58.8761 40.6132C65.9545 44.6939 75.2244 46.7537 84.4942 46.7537C93.7641 46.7537 103.034 44.7133 110.093 40.6132C116.628 36.8433 120.119 31.9853 120.623 27.0495C120.119 22.1138 116.609 17.2557 110.093 13.4859C103.015 9.38571 93.7447 7.34534 84.4942 7.34534C75.2438 7.34534 65.9545 9.38571 58.8761 13.4859C52.3601 17.2557 48.8499 22.1138 48.3457 27.0495C48.8499 31.9853 52.3601 36.8433 58.8761 40.6326V40.6132Z" fill="#83B0A4"/>
<path d="M58.8765 13.4665C65.955 9.36628 75.2248 7.32591 84.4946 7.32591C93.7645 7.32591 103.034 9.36628 110.093 13.4665C116.629 17.2363 120.12 22.0943 120.624 27.0301C120.663 26.622 120.701 26.1945 120.701 25.7864C120.701 20.4232 117.172 15.0599 110.093 10.9791C103.015 6.87897 93.7451 4.83859 84.4946 4.83859C75.2442 4.83859 65.955 6.87897 58.8765 10.9791C51.7981 15.0599 48.2686 20.4232 48.2686 25.7864C48.2686 26.1945 48.2879 26.622 48.3461 27.0301C48.8503 22.0943 52.3605 17.2363 58.8765 13.4665Z" fill="url(#paint15_linear_1027_13398)"/>
<path d="M102.336 20.462L105.749 18.48V16.0121L102.336 17.9747V20.462Z" fill="#5E9889"/>
<path d="M86.5311 24.6205C85.2511 23.8821 84.553 22.8911 84.553 21.8612C84.553 20.8313 85.2511 19.8402 86.5311 19.1018C89.1685 17.5667 93.4544 17.5667 96.0918 19.1018C98.7292 20.6175 98.7292 23.1048 96.0918 24.64L100.436 27.1467C104.722 24.6788 105.342 20.8701 102.336 18.0136L105.769 16.0315L101.425 13.5248L97.9923 15.5069C93.0277 13.7774 86.4729 14.1272 82.187 16.6145C79.7435 18.0136 78.4054 19.8985 78.4054 21.8806C78.4054 23.8627 79.7435 25.7476 82.187 27.1661C84.8245 28.7013 84.8245 31.1692 82.187 32.7043C79.5496 34.2394 75.2637 34.2394 72.6263 32.7043C69.9889 31.1692 69.9889 28.7013 72.6263 27.1661L68.2823 24.6594C63.9964 27.1273 63.3758 30.936 66.3818 33.7925L63.2207 35.6191L67.5647 38.1259L70.7258 36.2992C75.6904 38.0287 82.2452 37.6789 86.5311 35.211C91.5538 32.2962 91.5538 27.5742 86.5311 24.6594V24.6205Z" fill="#E7CFD8"/>
<path d="M63.2207 38.0676L67.5647 40.5743V38.1064L63.2207 35.5803V38.0676Z" fill="#549181"/>
<path d="M67.5645 40.5743L70.7255 38.7477V36.2604L67.5645 38.1064V40.5743Z" fill="#5E9889"/>
<path d="M96.0918 27.1079L100.436 29.6146V27.1273L96.0918 24.6205V27.1079Z" fill="#549181"/>
<path d="M72.6262 29.6146V27.1273C70.7451 28.2155 70.2215 29.7701 70.9972 31.1303C71.3075 30.5668 71.8505 30.0421 72.6262 29.6146Z" fill="#5E9889"/>
<path d="M64.5203 29.7701V32.5683C64.5591 33.229 64.7336 33.8897 65.0633 34.5309L66.382 33.7731C65.1021 32.5488 64.4815 31.1692 64.5203 29.7895V29.7701Z" fill="#549181"/>
<path d="M82.1869 29.6146C82.9626 30.0615 83.4862 30.5862 83.8159 31.1497C84.5916 29.7895 84.068 28.2349 82.1869 27.1467C79.7434 25.7476 78.4053 23.8627 78.4053 21.8612V24.3485C78.4053 26.3306 79.7434 28.2155 82.1869 29.6146Z" fill="#549181"/>
<path d="M104.178 21.8417C104.178 23.7461 102.937 25.6699 100.416 27.1273V29.6146C102.995 28.1183 104.236 26.1557 104.178 24.193V21.8612V21.8417Z" fill="#5E9889"/>
<path d="M86.5309 35.1722C82.245 37.6401 75.6902 38.0093 70.7256 36.2604V38.7477C75.6902 40.4966 82.245 40.1274 86.5309 37.6595C89.0326 36.2215 90.2737 34.3172 90.2931 32.4323V29.9255C90.2931 31.8299 89.0326 33.7342 86.5115 35.1916L86.5309 35.1722Z" fill="url(#paint16_linear_1027_13398)"/>
<path d="M96.0916 19.0824C93.4541 17.5667 89.1683 17.5667 86.5308 19.0824C85.2509 19.8208 84.5527 20.8118 84.5527 21.8417C84.5527 22.2692 84.6691 22.6967 84.9018 23.0854C85.2315 22.5219 85.7745 21.9972 86.5308 21.5697C89.1683 20.0345 93.4541 20.0345 96.0916 21.5697C96.8673 22.0166 97.3909 22.5413 97.7206 23.1048C98.5157 21.7446 97.9727 20.19 96.0916 19.1018V19.0824Z" fill="#5E9889"/>
</g>
<defs>
<linearGradient id="paint0_linear_1027_13398" x1="89.459" y1="137.696" x2="268.999" y2="137.696" gradientUnits="userSpaceOnUse">
<stop stop-color="#DCE5EF"/>
<stop offset="0.52" stop-color="#F0F4F8"/>
<stop offset="1" stop-color="white"/>
</linearGradient>
<linearGradient id="paint1_linear_1027_13398" x1="178.939" y1="113.612" x2="0.0184947" y2="113.612" gradientUnits="userSpaceOnUse">
<stop offset="0.41" stop-color="#C8D5E7"/>
<stop offset="0.57" stop-color="#D9E2EE"/>
</linearGradient>
<linearGradient id="paint2_linear_1027_13398" x1="178.933" y1="134.976" x2="0.0291969" y2="134.967" gradientUnits="userSpaceOnUse">
<stop offset="0.43" stop-color="#5D85B8"/>
<stop offset="0.51" stop-color="#82A1C8"/>
<stop offset="0.57" stop-color="#95B0D1"/>
</linearGradient>
<linearGradient id="paint3_linear_1027_13398" x1="178.944" y1="156.332" x2="0.0231232" y2="156.332" gradientUnits="userSpaceOnUse">
<stop offset="0.41" stop-color="#C8D5E7"/>
<stop offset="0.57" stop-color="#D9E2EE"/>
</linearGradient>
<linearGradient id="paint4_linear_1027_13398" x1="60.758" y1="76.1351" x2="151.808" y2="76.1351" gradientUnits="userSpaceOnUse">
<stop offset="0.45" stop-color="#CEDAEA"/>
<stop offset="1" stop-color="white"/>
</linearGradient>
<linearGradient id="paint5_linear_1027_13398" x1="39.8905" y1="83.2667" x2="129.079" y2="83.2667" gradientUnits="userSpaceOnUse">
<stop stop-color="#549181"/>
<stop offset="1" stop-color="#659C8D"/>
</linearGradient>
<linearGradient id="paint6_linear_1027_13398" x1="48.2686" y1="54.1379" x2="120.701" y2="54.1379" gradientUnits="userSpaceOnUse">
<stop stop-color="#549181"/>
<stop offset="1" stop-color="#5E9889"/>
</linearGradient>
<linearGradient id="paint7_linear_1027_13398" x1="70.7256" y1="73.0843" x2="90.2931" y2="73.0843" gradientUnits="userSpaceOnUse">
<stop stop-color="#549181"/>
<stop offset="1" stop-color="#5E9889"/>
</linearGradient>
<linearGradient id="paint8_linear_1027_13398" x1="39.8905" y1="70.5387" x2="129.079" y2="70.5387" gradientUnits="userSpaceOnUse">
<stop stop-color="#549181"/>
<stop offset="1" stop-color="#519080"/>
</linearGradient>
<linearGradient id="paint9_linear_1027_13398" x1="-0.000571391" y1="41.4099" x2="1.93873" y2="41.4099" gradientUnits="userSpaceOnUse">
<stop stop-color="#549181"/>
<stop offset="1" stop-color="#5E9889"/>
</linearGradient>
<linearGradient id="paint10_linear_1027_13398" x1="70.7256" y1="60.3368" x2="90.2931" y2="60.3368" gradientUnits="userSpaceOnUse">
<stop stop-color="#549181"/>
<stop offset="1" stop-color="#5E9889"/>
</linearGradient>
<linearGradient id="paint11_linear_1027_13398" x1="-0.000868649" y1="57.7912" x2="1.93843" y2="57.7912" gradientUnits="userSpaceOnUse">
<stop stop-color="#549181"/>
<stop offset="1" stop-color="#659C8D"/>
</linearGradient>
<linearGradient id="paint12_linear_1027_13398" x1="-0.000571391" y1="28.6818" x2="1.93873" y2="28.6818" gradientUnits="userSpaceOnUse">
<stop stop-color="#549181"/>
<stop offset="1" stop-color="#5E9889"/>
</linearGradient>
<linearGradient id="paint13_linear_1027_13398" x1="70.7256" y1="47.6088" x2="90.2931" y2="47.6088" gradientUnits="userSpaceOnUse">
<stop stop-color="#549181"/>
<stop offset="1" stop-color="#5E9889"/>
</linearGradient>
<linearGradient id="paint14_linear_1027_13398" x1="-0.000868649" y1="45.0631" x2="1.93843" y2="45.0631" gradientUnits="userSpaceOnUse">
<stop stop-color="#549181"/>
<stop offset="1" stop-color="#519080"/>
</linearGradient>
<linearGradient id="paint15_linear_1027_13398" x1="-0.000571391" y1="15.9343" x2="1.93873" y2="15.9343" gradientUnits="userSpaceOnUse">
<stop stop-color="#549181"/>
<stop offset="1" stop-color="#5E9889"/>
</linearGradient>
<linearGradient id="paint16_linear_1027_13398" x1="70.7256" y1="34.8807" x2="90.2931" y2="34.8807" gradientUnits="userSpaceOnUse">
<stop stop-color="#549181"/>
<stop offset="1" stop-color="#5E9889"/>
</linearGradient>
<clipPath id="clip0_1027_13398">
<rect width="269" height="193" fill="white"/>
</clipPath>
</defs>
</svg>
