<svg width="354" height="336" viewBox="0 0 354 336" fill="none" xmlns="http://www.w3.org/2000/svg">
<path style="mix-blend-mode:multiply" d="M79.0793 333.767H43.1182V335.998H79.0793V333.767Z" fill="url(#paint0_linear_1166_29189)"/>
<path d="M43.1182 335.998L41.3496 334.973V315.058L43.1182 316.083V335.998Z" fill="#34318B"/>
<path d="M43.1182 335.998L44.8867 334.973V315.058L43.1182 316.083V335.998Z" fill="#1E1C6B"/>
<path d="M62.5918 310.35L43.1184 281.513C43.1184 281.513 23.3502 310.768 23.2171 310.986C22.4089 312.306 22 313.682 22 315.068C22 318.181 24.0634 321.295 28.19 323.668C36.4339 328.423 49.8123 328.423 58.0562 323.668C62.1829 321.295 64.2367 318.181 64.2367 315.068C64.2367 313.464 63.6852 311.859 62.5918 310.35Z" fill="url(#paint1_linear_1166_29189)"/>
<path d="M60.1865 298.684L43.1188 273.417L26.0605 298.684C25.1002 300.004 24.6152 301.409 24.6152 302.813C24.6152 305.547 26.4218 308.271 30.0351 310.36C37.271 314.527 48.9855 314.527 56.212 310.36C59.8252 308.271 61.6318 305.547 61.6318 302.813C61.6318 301.409 61.1469 300.004 60.1865 298.684Z" fill="url(#paint2_linear_1166_29189)"/>
<path d="M58.0086 289.06C57.9135 288.898 43.1183 267 43.1183 267C43.1183 267 28.3231 288.898 28.2185 289.06C27.6195 290.047 27.3057 291.081 27.3057 292.107C27.3057 294.442 28.846 296.767 31.9268 298.552C38.0978 302.111 48.1102 302.111 54.2813 298.552C57.3715 296.777 58.9119 294.442 58.9119 292.107C58.9119 291.072 58.6076 290.037 57.9991 289.06H58.0086Z" fill="url(#paint3_linear_1166_29189)"/>
<path style="mix-blend-mode:multiply" d="M353.079 138.767H317.118V140.998H353.079V138.767Z" fill="url(#paint4_linear_1166_29189)"/>
<path d="M317.118 140.998L315.35 139.973V120.058L317.118 121.083V140.998Z" fill="#34318B"/>
<path d="M317.118 140.998L318.887 139.973V120.058L317.118 121.083V140.998Z" fill="#1E1C6B"/>
<path d="M336.592 115.35L317.118 86.5134C317.118 86.5134 297.35 115.768 297.217 115.986C296.409 117.306 296 118.682 296 120.068C296 123.181 298.063 126.295 302.19 128.668C310.434 133.423 323.812 133.423 332.056 128.668C336.183 126.295 338.237 123.181 338.237 120.068C338.237 118.464 337.685 116.859 336.592 115.35Z" fill="url(#paint5_linear_1166_29189)"/>
<path d="M334.187 103.684L317.119 78.4167L300.061 103.684C299.1 105.004 298.615 106.409 298.615 107.813C298.615 110.547 300.422 113.271 304.035 115.36C311.271 119.527 322.986 119.527 330.212 115.36C333.825 113.271 335.632 110.547 335.632 107.813C335.632 106.409 335.147 105.004 334.187 103.684Z" fill="url(#paint6_linear_1166_29189)"/>
<path d="M332.009 94.0595C331.914 93.8982 317.118 72.0001 317.118 72.0001C317.118 72.0001 302.323 93.8982 302.218 94.0595C301.619 95.0467 301.306 96.0814 301.306 97.1065C301.306 99.4415 302.846 101.767 305.927 103.552C312.098 107.111 322.11 107.111 328.281 103.552C331.372 101.777 332.912 99.4415 332.912 97.1065C332.912 96.0719 332.608 95.0372 331.999 94.0595H332.009Z" fill="url(#paint7_linear_1166_29189)"/>
<path style="mix-blend-mode:multiply" d="M57.0793 66.767H21.1182V68.9977H57.0793V66.767Z" fill="url(#paint8_linear_1166_29189)"/>
<path d="M21.1182 68.9977L19.3496 67.9725V48.0582L21.1182 49.0833V68.9977Z" fill="#34318B"/>
<path d="M21.1182 68.9977L22.8867 67.9725V48.0582L21.1182 49.0833V68.9977Z" fill="#1E1C6B"/>
<path d="M40.5918 43.3502L21.1184 14.5133C21.1184 14.5133 1.35021 43.7678 1.21709 43.9861C0.408864 45.3055 0 46.6818 0 48.0677C0 51.1811 2.06335 54.2945 6.19004 56.6675C14.4339 61.423 27.8123 61.423 36.0562 56.6675C40.1829 54.2945 42.2367 51.1811 42.2367 48.0677C42.2367 46.4635 41.6852 44.8594 40.5918 43.3502Z" fill="url(#paint9_linear_1166_29189)"/>
<path d="M38.1865 31.6845L21.1188 6.41667L4.06053 31.6845C3.10017 33.0039 2.61523 34.4087 2.61523 35.8135C2.61523 38.5472 4.42185 41.2714 8.03507 43.3597C15.271 47.5267 26.9855 47.5267 34.212 43.3597C37.8252 41.2714 39.6318 38.5472 39.6318 35.8135C39.6318 34.4087 39.1469 33.0039 38.1865 31.6845Z" fill="url(#paint10_linear_1166_29189)"/>
<path d="M36.0086 22.0595C35.9135 21.8982 21.1183 4.19617e-05 21.1183 4.19617e-05C21.1183 4.19617e-05 6.32308 21.8982 6.21849 22.0595C5.61945 23.0467 5.30566 24.0813 5.30566 25.1065C5.30566 27.4415 6.84604 29.7671 9.92679 31.5516C16.0978 35.1111 26.1102 35.1111 32.2813 31.5516C35.3715 29.7765 36.9119 27.4415 36.9119 25.1065C36.9119 24.0719 36.6076 23.0372 35.9991 22.0595H36.0086Z" fill="url(#paint11_linear_1166_29189)"/>
<defs>
<linearGradient id="paint0_linear_1166_29189" x1="43.1182" y1="334.878" x2="79.0793" y2="334.878" gradientUnits="userSpaceOnUse">
<stop stop-color="#C2C7E3"/>
<stop offset="0.27" stop-color="#D7DAEC"/>
<stop offset="0.7" stop-color="#F4F4F9"/>
<stop offset="0.95" stop-color="white"/>
</linearGradient>
<linearGradient id="paint1_linear_1166_29189" x1="22.8748" y1="318.561" x2="56.2397" y2="299.261" gradientUnits="userSpaceOnUse">
<stop stop-color="#669085"/>
<stop offset="0.34" stop-color="#658D84"/>
<stop offset="1" stop-color="#3F3F60"/>
</linearGradient>
<linearGradient id="paint2_linear_1166_29189" x1="25.3759" y1="305.879" x2="54.6177" y2="288.968" gradientUnits="userSpaceOnUse">
<stop stop-color="#669085"/>
<stop offset="0.34" stop-color="#658D84"/>
<stop offset="1" stop-color="#3F3F60"/>
</linearGradient>
<linearGradient id="paint3_linear_1166_29189" x1="27.3152" y1="284.105" x2="58.9214" y2="284.105" gradientUnits="userSpaceOnUse">
<stop stop-color="#669085"/>
<stop offset="0.34" stop-color="#658D84"/>
<stop offset="1" stop-color="#3F3F60"/>
</linearGradient>
<linearGradient id="paint4_linear_1166_29189" x1="317.118" y1="139.878" x2="353.079" y2="139.878" gradientUnits="userSpaceOnUse">
<stop stop-color="#C2C7E3"/>
<stop offset="0.27" stop-color="#D7DAEC"/>
<stop offset="0.7" stop-color="#F4F4F9"/>
<stop offset="0.95" stop-color="white"/>
</linearGradient>
<linearGradient id="paint5_linear_1166_29189" x1="296.875" y1="123.561" x2="330.24" y2="104.261" gradientUnits="userSpaceOnUse">
<stop stop-color="#669085"/>
<stop offset="0.34" stop-color="#658D84"/>
<stop offset="1" stop-color="#3F3F60"/>
</linearGradient>
<linearGradient id="paint6_linear_1166_29189" x1="299.376" y1="110.879" x2="328.618" y2="93.9682" gradientUnits="userSpaceOnUse">
<stop stop-color="#669085"/>
<stop offset="0.34" stop-color="#658D84"/>
<stop offset="1" stop-color="#3F3F60"/>
</linearGradient>
<linearGradient id="paint7_linear_1166_29189" x1="301.315" y1="89.1047" x2="332.921" y2="89.1047" gradientUnits="userSpaceOnUse">
<stop stop-color="#669085"/>
<stop offset="0.34" stop-color="#658D84"/>
<stop offset="1" stop-color="#3F3F60"/>
</linearGradient>
<linearGradient id="paint8_linear_1166_29189" x1="21.1182" y1="67.8776" x2="57.0793" y2="67.8776" gradientUnits="userSpaceOnUse">
<stop stop-color="#C2C7E3"/>
<stop offset="0.27" stop-color="#D7DAEC"/>
<stop offset="0.7" stop-color="#F4F4F9"/>
<stop offset="0.95" stop-color="white"/>
</linearGradient>
<linearGradient id="paint9_linear_1166_29189" x1="0.874782" y1="51.5608" x2="34.2397" y2="32.2609" gradientUnits="userSpaceOnUse">
<stop stop-color="#669085"/>
<stop offset="0.34" stop-color="#658D84"/>
<stop offset="1" stop-color="#3F3F60"/>
</linearGradient>
<linearGradient id="paint10_linear_1166_29189" x1="3.37591" y1="38.8794" x2="32.6177" y2="21.9682" gradientUnits="userSpaceOnUse">
<stop stop-color="#669085"/>
<stop offset="0.34" stop-color="#658D84"/>
<stop offset="1" stop-color="#3F3F60"/>
</linearGradient>
<linearGradient id="paint11_linear_1166_29189" x1="5.31517" y1="17.1047" x2="36.9214" y2="17.1047" gradientUnits="userSpaceOnUse">
<stop stop-color="#669085"/>
<stop offset="0.34" stop-color="#658D84"/>
<stop offset="1" stop-color="#3F3F60"/>
</linearGradient>
</defs>
</svg>
